<?xml version="1.0" encoding="UTF-8"?>
<svg id="line" xmlns="http://www.w3.org/2000/svg" viewBox="0 0 2076.64 1212.05">
  <defs>
    <style>
      .cls-1 {
        fill: #ffaf0d;
      }

      .cls-2 {
        fill: #58006b;
      }

      .cls-3 {
        fill: #006678;
      }

      .cls-4 {
        fill: #c1272d;
      }

      .cls-5 {
        fill: #006b00;
      }
    </style>
  </defs>
  <path class="cls-1" d="M1325.39,579.74c6.44-20.72,16-51.49,45.35-71,42.75-28.42,109.25-20.81,130.69,13.02,13.4,21.15,17.59,65.79-28.63,106.35-41.96,36.82-101.72,49.43-132.78,35.77-35.87-15.78-21.69-61.41-14.63-84.14Z"/>
  <path class="cls-4" d="M1452.67,553.52c13.62-19.45,33.84-48.34,62.99-49.63,42.46-1.88,85.73,55.6,85.89,110.71.1,34.45-16.58,89.57-66.81,103.07-45.6,12.26-93.03-16.72-108.8-55.35-18.21-44.62,11.78-87.46,26.72-108.8Z"/>
  <path class="cls-3" d="M354.09,520.62c30.28-14.07,54.23,25.09,102.03,14.72,40.92-8.87,51.02-43.57,74.25-37.88,23.16,5.68,37.92,46.25,34.85,78.79-5.35,56.77-66.6,106.43-129.05,108.52-6.52.22-83.68,1.63-108.8-55.35-17.82-40.43-2.77-95.1,26.72-108.8Z"/>
  <path class="cls-5" d="M289.5,487.83c29.02-44.43,22.44-64.47,41.13-73.69,39.27-19.38,127.39,39.87,123.39,85.69-2.66,30.47-43.76,28.79-89.12,82.26-51.3,60.47-42.39,114.09-66.84,116.54-32.27,3.23-86.44-86.35-63.41-143.96,10.15-25.38,27.37-24.77,54.84-66.84Z"/>
  <path class="cls-2" d="M875.42,474.33c58.07-13.94,131.6,42.91,126.96,77.42-4.48,33.33-79.14,25.33-102.19,74.32-30.66,65.18,66.29,154.18,49.55,170.32-15.35,14.79-125.23-32.77-151.74-126.96-21.24-75.49,11.54-179.27,77.42-195.09Z"/>
</svg>