<?xml version="1.0" encoding="UTF-8"?>
<svg id="Layer_1" data-name="Layer 1" xmlns="http://www.w3.org/2000/svg" viewBox="0 0 639.61 752.81">
  <defs>
    <style>
      .cls-1 {
        fill: #633828;
      }

      .cls-2 {
        fill: #ffd8bf;
      }

      .cls-3 {
        fill: #d2a689;
      }

      .cls-4 {
        fill: #775143;
      }

      .cls-5 {
        fill: #fff;
      }

      .cls-6 {
        fill: #c1272d;
      }
    </style>
  </defs>
  <g id="Layer_3" data-name="Layer 3">
    <path class="cls-1" d="M124.39,453.94c70.82-133.77,338.74-144.29,416.89-18.53,44.19,71.1,23.76,179.54-37.06,245.5-88.61,96.07-257.08,95.65-342.77,0-54.15-60.4-73.93-157.35-37.06-226.97Z"/>
  </g>
  <g id="Face">
    <path class="cls-2" d="M328.2,0C195.86,41.64,106.28,155.92,103.54,280.24c-2.55,116.64,71.06,255.55,189.91,273.29,129.88,19.41,258.28-114.13,268.66-254.76C571.98,165.36,474.9,34.74,328.2,0Z"/>
  </g>
  <g id="Layer_2" data-name="Layer 2">
    <g>
      <path class="cls-1" d="M323.57,0c-77.4,24.41-133.22,65.13-143.59,106.54-5.74,23.02,0,41.69,0,41.69,8.85,28.67,34.32,42.61,41.69,46.32-4.82-16.63-8.57-39.19-4.63-64.85C229.91,45.58,313.38,4.77,323.57,0Z"/>
      <path class="cls-1" d="M41.01,690.18c-9.68-14.08-1.34-21.59-13.9-69.48-9.17-34.93-16.3-41.09-18.53-64.85-2.59-27.28,4.96-38.72,9.26-64.85,12.09-73.6-30.66-87.18-13.9-134.33,12.04-33.81,41.83-52.43,60.22-97.27,3.61-8.8,5.88-16.35,7.36-23.25,6.16-28.35,6.44-49.84,6.53-55.49.51-41.87,55.68-95.98,97.27-125.07C240.74,9.82,321.57-8.43,328.2,4.63c5.84,11.44-51.69,34.23-101.91,101.91-13.16,17.74-64.9,89.31-69.48,185.28-4.59,96.3,5.6,180.42,18.53,236.24,22.84,98.71,47.9,128.08,27.79,157.49-30.76,45.02-135.35,43.59-162.12,4.63Z"/>
      <path class="cls-1" d="M318.93,9.26c-3.66-4.91-67.77,16.35-88.01,69.48-16.91,44.28,3.43,93.06,9.26,92.64,4.91-.37-3.2-35.48,13.9-78.75,22.14-56,68.09-79.02,64.85-83.38Z"/>
      <path class="cls-1" d="M179.97,162.12c4.4,1.34-31.82,73.46-23.16,180.65,5.51,68.37,27.14,123.77,46.32,162.12-18.53-16.35-48.08-46.88-64.85-92.64-44.1-120.57,35.67-251.94,41.69-250.13Z"/>
    </g>
    <g>
      <path class="cls-1" d="M324.63,0c75.64,23.9,129.7,65.31,143.59,106.54,10.56,31.41,3.57,55.58,3.57,55.58-5.42,18.62-16.63,30.9-23.16,37.06-3.29-19.27-8.89-41.36-18.53-64.85C401.57,64.71,353.58,21.77,324.63,0Z"/>
      <path class="cls-1" d="M607.19,690.18c9.68-14.08,1.34-21.59,13.9-69.48,10.19-38.72,18.62-42.34,18.53-64.85-.09-19.73-6.48-25.29-19.59-64.85-7.78-23.48-14.78-44.61-18.53-69.48-8.52-56.65,9.68-67.4-4.63-101.91-12.04-29-27.84-28.53-32.42-55.58-4.31-25.57,8.34-34.65,4.63-60.22-3.1-21.45-14.73-34.05-32.42-55.58-55.91-68-45.02-70.13-69.48-92.64C408.38,1.44,324.49-5.56,320,4.63c-3.71,8.34,46.41,27.14,101.91,101.91,13.16,17.74,64.9,89.31,69.48,185.28,4.59,96.3-5.6,180.42-18.53,236.24-22.84,98.71-47.9,128.08-27.79,157.49,30.76,45.02,135.35,43.59,162.12,4.63Z"/>
      <path class="cls-1" d="M329.26,9.26c6.16-7.5,74.44,18.2,88.01,69.48,7.32,27.7-2.13,59.57-10.33,60.22-6.35.51-9.63-17.83-23.16-46.32-27.24-57.3-59.06-77.82-54.52-83.38Z"/>
      <path class="cls-1" d="M472.86,185.28c-4.4,1.34,31.82,73.46,23.16,180.65-5.51,68.37-27.14,123.77-46.32,162.12,18.53-16.35,48.08-46.88,64.85-92.64,44.1-120.57-35.67-251.94-41.69-250.13Z"/>
    </g>
    <g>
      <path class="cls-3" d="M313.88,169.39c-.56.74-.56,1.99-.6,3.15.51-.93.69-1.9.6-3.15Z"/>
      <path class="cls-3" d="M332.92,348.19c-.23.14-.51.32-.79.51.28-.14.56-.32.79-.51Z"/>
      <path class="cls-3" d="M310.09,229.47l.93.28c-.23,2.78-1.11.69-1.16,3.29,1.2,1.11-.56,4.26,0,5.19-.09,0-.28,1.2-.65,1.11.65.46,0,1.3.14,2.13.19.32.23-.19.46-.37v1.85c-.28.69-.74.79-.69,0-.83,4.77-4.68,27.1-5.56,32.29.65-.56.6-2.18,1.53-2.59.19,1.44-.56,1.95-.19,2.59-1.34.28-.88,2.87-2.32,3.66l.6.51-.56.56c-.42,6.02.09,1.44-1.16,6.53-.56,3.01.09,4.63-.6,6.25.05-.23.65-.79.65,0-.6,0-.05,2.18-.74,2.41-.09.79-.79,3.2.23,2.59-.51.32-1.2,2.45-1.25,1.07-.19.74-.51,1.44-.46,1.99l.46-.88c-.46,2.55-1.44,3.71-1.16,5.51l.56-.83c-.32,1.48-.6,2.73-1.57,3.1l.14-1.57c-.65,2.45-.97,3.94-1.07,6.11l.23-.74c.19,2.83-3.2,16.63-3.01,19.32l.97-.88-.14,2.22c.09-.23-1.71-1.62-1.44-1.76-.42,1.67-1.81,5.51-3.29,11.49-.65,2.96-1.3,6.48-1.2,10.38,0,3.84,1.07,8.11,2.78,11.49,2.59,4.91,6.02,7.6,7.36,8.71,2.13,1.85-.14,1.16-.28,1.2,3.1,1.71,1.62.23,4.12,1.67.65.42-.37.42-.79.28,1.16.51,2.13,1.16,2.36.88-1.34-.83-.42-1.34-.74-2.08,1.07.51,2.08.93,3.15,1.34l-.32.42c.74.23,2.22-.69,5.28.14,2.64.51,5.42.65,8.25.37,2.73-.28,5.23-.88,7.6-1.53,0,.32-.88.79-1.9,1.25.65-.14,1.62-.51,2.27-.46-1.3-.14,1.85-.97.88-.93,2.92-2.27,7.13-3.1,9.17-5.19-.14-.56-1.2-5.51-2.5-10.38-1.3-4.86-2.73-9.73-3.1-10.28.65-.37,1.34-.74,1.57-.74-.32-.19-1.71.46-2.27,1.02l.23.69c-1.39,1.11-.6-.14-1.99.74-.37-.46.88-1.3,2.08-2.08-1.16.6-2.41.83-2.5,1.62-1.11.32-.28-.69-1.53-.28-.74.6-1.48,1.67-2.55,1.76v-.09c-2.36.42-2.83,2.27-4.72,2.22l.14-.23c-.69-.14-1.67.6-2.64.37.28.09.6.46,0,.6-1.02-.23-1.44.14-2.08-.32l-.65.51c-1.2,0-3.98-1.2-3.89-1.48-.09-.19-.37-.46-.42-1.44-.09-.93,0-2.36.32-4.03.6-3.24,1.85-6.95,2.45-9.13v.28c3.29-10.51,9.22-32.38,10.79-43.63.93-1.57,1.3-3.98,1.85-5.74-.46.93-.79.51-.56-.23,1.2-5.47-.28-.46.56-6.02.97-6.44,5.42-30.85,6.39-36.59-.42-3.15.56-6.95.37-10.01l.19.32c.19-3.24,2.22-21.59,2.08-25.43l-.14.51c-.37-3.34.51-2.83.88-5.42-.97.32-1.39-2.55-1.39-3.61h.19c-.09-1.57-.83-5.28-.93-7.97l.51.09c-.51-2.22-.23-6.44-.32-8.06.19-3.66,1.07-9.36.19-14.27l1.34-3.24-.14-.46s-4.45-1.11-9.36-1.34c-4.91-.28-10.24.32-12.04,3.52l-.51-.09.09,1.2c-.19,1.48.42,2.13-.09,2.04v-2.04c-.09,1.48-.42.46-.69-.09,0,.6-.09,1.2-.23,1.71.19.28.19-.23.32-.46.19.79.74,1.9.51,2.87,0,1.53-.83.14-.83,1.9-.37,9.36-.79,18.39-1.16,27.7-.23.19-.19-.05-.28-.32.14,2.83-.05,5.33,0,7.92-.28.69-.6.88-.83,1.07.23-.19.14,3.38-.05,6.99-.14,1.81-.28,3.66-.37,5.05-.14,1.39-.23,2.36-.23,2.41l.05.05Z"/>
    </g>
    <g>
      <path class="cls-4" d="M301.56,172.59c0-.65-.51-.97-.93-1.34.14.69.37,1.11.93,1.34Z"/>
      <path class="cls-4" d="M208.04,189.5s.19-.14.28-.19c-.09,0-.23.09-.28.19Z"/>
      <path class="cls-4" d="M276.36,159.62l-.32.88c-1.25-.32-.09-1.11-1.34-1.2-.79,1.11-1.95-.65-2.5-.05,0-.09-.56-.28-.42-.65-.32.65-.65,0-1.07.09-.19.14.05.23.09.46h-.88c-.28-.28-.28-.69.09-.69-2.08-.88-12.74-3.34-15.24-3.01.28.56,1.07.28,1.25,1.16-.69.42-.93-.23-1.25.23-.14-1.25-1.39-.42-1.76-1.76l-.23.69-.28-.46c-2.87.56-.65.32-3.2,0-1.48,0-2.18.97-2.96.6.14,0,.42.46.05.6-.05-.6-1.02.42-1.16-.19-.37.09-1.57,0-1.16.83-.19-.42-1.25-.6-.65-.97-.37,0-.69-.14-.97,0l.46.23c-1.2.09-1.9-.51-2.64.28l.46.32c-.69.09-1.3.19-1.62-.65l.74-.28c-1.2.05-1.95.14-2.87.65h.37c-1.25.88-7.74,2.18-8.71,3.43l.6.6-.88.69s.19-2.18.32-1.99c-1.07.19-4.31.79-7.46,1.53-3.2.74-6.35,1.62-7.32,1.67-.88-.14-.42-.97-.46-1.07-.88.51-.23.79-1.02.97-.23-.05-.09-.51,0-.65-.32.19-.69.05-.65.37.51.09.56.93.88,1.39l-1.02.23-.09-.51s-.14,1.48-1.2,1.57c-1.71.32-3.43,1.16-5.14,1.67-.09-.28.19-.6.46-.88-.23.05-.56.28-.83.14.6.37-.56.6-.19.69-.74,1.62-2.69,1.25-3.38,2.45.23,1.11,6.11,18.53,6.81,19.69-.23.09-.51.19-.65.14.19.23.74.14.93-.14l-.28-.65c.46-.51.32.32.88,0,.28.51-.19.88-.65,1.16.46-.14,1.02.05.93-.6.51,0,.28.69.83.69.23-.32.46-1.02,1.02-.88v.09c1.2.14,1.16-1.44,2.27-1.25v.23c.42.19.88-.46,1.57-.32-.19-.05-.51-.42-.19-.6.79.09,1.11-.42,1.76-.14l.28-.69c2.27-.83,11.72-3.89,14.27-4.17l-.09.09c3.75-.97,11.72-1.34,15.8-1.9.6.6,1.48.51,2.13.69-.37-.28-.19-.65.09-.6,1.99.19.14-.42,2.22-.51,2.41-.51,11.26,1.48,13.11,2.55,1.25-.56,2.5.37,3.66.14l-.14.14c1.25-.05,7.41,2.64,8.75,2.92l-.14-.19c1.3-.05.83.74,1.62,1.34.23-.93,1.39-1.07,1.76-.97l-.09.19c.6.09,2.18-.19,3.1.14l-.23.46c.97-.19,2.27.69,2.83.88,1.16.79,2.59,2.5,4.45,2.73l.28,1.85h.23s2.59-3.66,5.19-7.83c2.59-4.17,5.19-8.85,4.82-11.21l.28-.42-.56-.23c-.46-.56-1.07-.19-.74-.6l.79.51c-.56-.46,0-.46.37-.6-.23-.19-.46-.37-.6-.6-.23.09,0,.23,0,.37-.42,0-1.11.14-1.39-.28-.6-.37.32-.74-.37-1.2-3.71-2.36-7.36-4.68-11.58-6.16,0-.23.09-.19.23-.23-1.34-.28-2.41-.79-3.66-.93-.23-.32-.23-.65-.23-.88,0,.23-1.62-.23-3.29-.69-.83-.23-1.67-.51-2.32-.69s-1.07-.32-1.11-.37l.14.09Z"/>
    </g>
    <g>
      <path class="cls-4" d="M455.81,178.15c0-.65-.51-.97-.93-1.34.14.69.37,1.11.93,1.34Z"/>
      <path class="cls-4" d="M362.29,195.01s.19-.14.28-.19c-.09,0-.23.09-.28.19Z"/>
      <path class="cls-4" d="M430.61,165.18l-.32.88c-1.25-.32-.09-1.11-1.34-1.2-.79,1.11-1.95-.65-2.5-.05,0-.09-.56-.28-.42-.65-.32.65-.65,0-1.07.09-.19.14.05.23.09.46h-.88c-.28-.28-.28-.69.09-.69-2.08-.88-12.74-3.34-15.24-3.01.28.56,1.07.28,1.25,1.16-.69.42-.93-.23-1.25.23-.14-1.25-1.39-.42-1.76-1.76l-.23.69-.28-.46c-2.87.56-.65.32-3.2,0-1.48,0-2.18.97-2.96.6.14,0,.42.46.05.6-.05-.6-1.02.42-1.16-.19-.37.09-1.57,0-1.16.83-.19-.42-1.25-.6-.65-.97-.37,0-.69-.14-.97,0l.46.23c-1.2.09-1.9-.51-2.64.28l.46.32c-.69.09-1.3.19-1.62-.65l.74-.28c-1.2.05-1.95.14-2.87.65h.37c-1.25.88-7.74,2.18-8.71,3.43l.6.6-.88.69s.19-2.18.32-1.99c-1.07.19-4.31.79-7.46,1.53-3.2.74-6.35,1.62-7.32,1.67-.88-.14-.42-.97-.46-1.07-.88.51-.23.79-1.02.97-.23-.05-.09-.51,0-.65-.32.19-.69.05-.65.37.51.09.56.93.88,1.39l-1.02.23-.09-.51s-.14,1.48-1.2,1.57c-1.71.32-3.43,1.16-5.14,1.67-.09-.28.19-.6.46-.88-.23.05-.56.28-.83.14.6.37-.56.6-.19.69-.74,1.62-2.69,1.25-3.38,2.45.23,1.11,6.11,18.53,6.81,19.69-.23.09-.51.19-.65.14.19.23.74.14.93-.14l-.28-.65c.46-.51.32.32.88,0,.28.51-.19.88-.65,1.16.46-.14,1.02.05.93-.6.51,0,.28.69.83.69.23-.32.46-1.02,1.02-.88v.09c1.2.14,1.16-1.44,2.27-1.25v.23c.42.19.88-.46,1.57-.32-.19-.05-.51-.42-.19-.6.79.09,1.11-.42,1.76-.14l.28-.69c2.27-.83,11.72-3.89,14.27-4.17l-.09.09c3.75-.97,11.72-1.34,15.8-1.9.6.6,1.48.51,2.13.69-.37-.28-.19-.65.09-.6,1.99.19.14-.42,2.22-.51,2.41-.51,11.26,1.48,13.11,2.55,1.25-.56,2.5.37,3.66.14l-.14.14c1.25-.05,7.41,2.64,8.75,2.92l-.14-.19c1.3-.05.83.74,1.62,1.34.23-.93,1.39-1.07,1.76-.97l-.09.19c.6.09,2.18-.19,3.1.14l-.23.46c.97-.19,2.27.69,2.83.88,1.16.79,2.55,2.5,4.45,2.73l.28,1.85h.23s2.59-3.66,5.19-7.83c2.59-4.17,5.19-8.85,4.82-11.21l.28-.42-.56-.23c-.46-.56-1.07-.19-.74-.6l.79.51c-.56-.46,0-.46.37-.6-.23-.19-.46-.37-.6-.6-.23.09,0,.23,0,.37-.42,0-1.11.14-1.39-.28-.6-.37.32-.74-.37-1.2-3.71-2.36-7.36-4.68-11.58-6.16,0-.23.09-.19.23-.23-1.34-.28-2.41-.79-3.66-.93-.23-.32-.23-.65-.23-.88,0,.23-1.62-.23-3.29-.69-.83-.23-1.67-.51-2.32-.69s-1.07-.32-1.11-.37l.14.09Z"/>
    </g>
    <path class="cls-5" d="M230.92,213.07c-3.8.74-11.49,2.87-18.53,9.26-4.03,3.71-8.89,8.11-9.26,13.9-.83,12.74,20.1,25.11,37.06,28.12,1.48.28,8.94,1.53,18.53,0,7.55-1.2,24.32-3.89,27.79-14.22,4.26-12.69-13.06-27.14-13.9-27.79-8.57-6.95-18.16-8.48-23.16-9.26-7.64-1.2-14.17-.69-18.53,0Z"/>
    <path d="M242.6,213.49c-8.34,4.17-13.76,12.83-13.8,22.14,0,9.59,5.56,19.45,13.8,22.14,1.16.37,5,1.57,9.22,0,8.15-3.01,11.72-13.99,11.53-22.14-.23-9.17-5.42-19.87-13.8-22.14-2.73-.74-5.19-.42-6.9,0h-.05Z"/>
    <path class="cls-6" d="M281.88,426.15c1.53-8.57,14.5-16.35,23.16-13.9,6.81,1.95,8.15,9.45,13.9,9.26,5.93-.19,7.32-7.18,13.9-9.26,10.33-3.29,27.65,8.25,27.79,18.53.14,12.41-24.78,26.68-46.32,23.16-16.58-2.69-34.46-16.4-32.42-27.79Z"/>
    <path class="cls-5" d="M391.01,218.36c-3.57,1.44-10.79,4.86-16.54,12.46-3.34,4.35-7.27,9.54-6.62,15.33,1.44,12.65,24.27,21.08,41.5,20.98,1.53,0,9.08-.09,18.2-3.34,7.23-2.55,23.21-8.2,24.78-18.99,1.9-13.25-17.74-24.32-18.67-24.83-9.68-5.28-19.36-5.05-24.46-4.96-7.74.19-14.04,1.85-18.2,3.34Z"/>
    <path d="M402.54,216.69c-7.46,5.6-11.26,15.1-9.59,24.27,1.67,9.4,8.99,18.11,17.6,19.27,1.2.19,5.19.65,9.08-1.67,7.46-4.45,9.03-15.89,7.32-23.86-1.9-8.94-8.89-18.57-17.6-19.27-2.83-.23-5.19.51-6.81,1.25Z"/>
  </g>
</svg>