<svg width="1230" height="814" viewBox="0 0 1230 814" fill="none" xmlns="http://www.w3.org/2000/svg">
<path d="M660.696 2C660.696 2 685.863 80.5822 660.696 126.634C594.647 247.496 254.894 89.7821 151.512 199.911C92.3144 262.972 61.8106 323.172 121.001 386.236C192.07 461.956 296.352 457.457 469.127 441.663C559.043 433.444 677.184 453.453 690.707 397.196C697 371.017 699.498 342.585 660.696 332.061C619.126 320.785 585.674 346.46 562.661 370.891C518.383 417.898 577.038 439.586 642.69 475.484C773.672 547.103 1011.68 421.627 1121.86 505.859C1167.14 540.47 1178.86 568.082 1189.39 612.33C1201.62 663.746 1248.45 697.374 1212.94 744.167C1188.09 776.915 1159.51 796.286 1104.4 807.423C1015.75 825.338 981.474 743.958 888.322 744.167C795.876 744.374 766.653 809.054 674.244 807.423C596.192 806.046 569.752 755.659 491.678 756.38C416.092 757.078 391.541 810.569 316.114 807.423C246.781 804.532 231.533 752.511 162.058 751.682C90.2037 750.826 1 807.423 1 807.423" stroke="black" stroke-width="8" stroke-linejoin="round"/>
</svg>
