<svg width="263" height="105" viewBox="0 0 263 105" fill="none" xmlns="http://www.w3.org/2000/svg">
<path d="M225.355 54.9552L223.504 54.522C229.446 54.3805 232.221 54.8354 237.307 54.5579L237.025 54.646C237.765 54.7517 238.184 53.814 246.364 55.0591L246.364 55.1004C246.649 55.0986 246.646 55.0124 247.212 55.133L245.798 54.8591C246.645 54.7639 247.385 54.5763 248.515 54.5622C248.755 54.6124 248.836 54.6982 248.86 54.7671L251.63 54.7355L252.479 55.0165C253.326 54.88 252.942 54.3062 255.207 54.6541C254.352 54.2489 256.331 54.433 256.052 54.2277C256.167 54.2788 256.426 54.3529 256.635 54.4241C257.981 54.3948 260.519 54.32 261.147 54.1262C261.147 54.1262 255.877 53.2248 254.46 52.7853C256.356 52.9181 254.961 52.7442 254.586 52.6051L254.459 52.7025C253.322 52.5925 253.323 52.3406 252.755 52.2649C252.755 52.2856 252.772 52.3096 252.787 52.3336L252.859 52.3021C252.913 52.3466 252.881 52.3779 252.82 52.4024C252.833 52.4575 252.78 52.4958 252.472 52.4771L252.531 52.4526C252.055 52.4833 251.237 52.4332 250.88 52.4114L250.872 52.2044C250.029 52.5894 245.211 51.5229 244.081 51.4991C242.945 51.2234 241.536 51.536 240.116 51.3864C237.856 51.2939 238.987 51.0693 237.851 50.8764C236.433 50.7302 238.137 51.123 237.57 51.1301L235.871 50.8201C236.858 50.8069 236.322 50.6757 236.141 50.5906C234.673 50.5379 232.357 50.1317 231.907 50.5417C229.926 50.3198 229.921 50.1542 229.073 50.1251C229.358 50.2026 229.922 50.2784 229.926 50.3646C229.133 50.173 229.546 50.405 229.872 50.4512C228.662 50.6142 223.591 49.6357 223.337 50.0859L223.337 50.0031C223.056 50.3395 223.507 50.6748 222.662 50.8527L222.098 50.6941L221.25 50.8307C220.68 50.7136 220.959 50.629 220.959 50.5841C219.575 50.7276 217.645 50.5224 215.971 50.4607L217.746 51.4016C216.332 51.1761 213.782 50.7162 213.499 51.0113L212.65 50.6924C209.814 50.0757 210.672 50.9362 209.54 50.7502L208.117 50.4005L209.534 50.4156C208.118 50.2348 207.55 50.1178 206.421 49.8904C206.421 49.8904 206.408 49.8973 206.408 49.9008C206.487 49.9141 206.536 49.931 206.546 49.9516L206.349 49.9598C206.178 50.1265 205.439 50.2382 204.441 50.2204C203.024 50.1639 201.916 50.4056 199.652 50.0302L199.089 50.3719L197.39 50.1516L197.388 49.8756C199.054 49.9029 202.187 49.8208 204.326 49.8209L204.363 49.6964C203.095 49.6873 201.651 49.8001 200.814 49.7675C200.406 49.708 199.359 49.4145 200.118 49.2337L199.334 49.4974C195.098 49.4969 195.071 49.5143 190.652 49.1802L191.035 49.3192C190.158 49.3973 189.286 49.4719 189.04 49.2457C186.387 49.1868 183.637 48.9974 181.914 48.6392L181.538 48.9624C180.977 48.9419 180.137 48.447 179.863 48.9007L178.666 49.0395C177.899 49.0134 177.431 49.1957 176.559 49.0081L176.555 49.0081C176.501 48.9946 176.444 48.9812 176.391 48.9678C176.391 48.9781 176.395 48.985 176.399 48.9953C174.665 48.8476 176.418 49.2884 174.431 49.0941C173.794 48.8601 173.728 49.5058 172.759 49.4292L171.787 48.9592C170.033 48.6875 169.734 49.1517 167.196 49.1472C165.976 48.9791 165.385 48.5792 166.192 48.2255C165.083 48.6501 165.688 48.5014 164.215 48.704C163.989 48.526 164.146 48.4905 164.47 48.3332C163.16 48.1242 163.663 48.4901 162.676 48.4792C162.391 48.8088 162.061 49.3353 161.74 49.3581L162.123 49.4626C161.079 49.6383 159.939 49.7215 158.723 49.5533L158.768 49.3874L157.475 49.4716L157.393 49.2582L155.548 49.3217L155.801 49.3788C155.368 49.4057 153.945 49.4769 153.131 49.3648L153.16 49.2473C150.863 48.8755 148.973 49.3569 146.284 49.3982L146.635 49.1579C145.718 48.9188 146.385 49.5287 145.295 49.4114L145.24 49.115C144.28 49.5076 143.996 49.0333 143.335 48.8857L143.645 49.2735L142.398 49.1919C141.025 49.0661 141.554 48.7004 141.754 48.499L140.821 48.8051L140.636 48.4613C139.955 48.8624 139.954 48.3966 138.757 48.6147C138.659 48.4842 138.96 48.4099 138.554 48.3539L136.581 48.8391L137.772 48.6245L137.629 49.1257C136.39 49.5063 135.948 49.0744 135.063 49.2146L135.672 49.0657C134.226 49.1888 134.148 48.9754 133.332 48.8668C133.585 48.9583 133.972 49.0974 133.387 49.1632C132.958 49.1901 133.152 48.9887 132.746 48.9326C132.65 49.2679 131.615 49.4436 130.673 49.2909C130.683 49.2425 130.704 49.1976 130.765 49.1661C130.526 49.2194 130.403 49.3064 129.984 49.2298L130.228 48.859L129.425 49.2161C128.889 49.116 128.109 49.3866 128.178 49.1378L128.481 49.0634L124.421 48.9858L124.364 48.6895C123.965 49.0992 122.152 48.5415 122.289 49.0512C121.522 48.7767 119.276 49.2568 119.722 48.6812C117.056 48.6464 115.617 49.2008 112.374 48.9386C111.218 48.4561 108.054 48.6315 105.974 48.5896C101.907 48.8157 99.2808 49.0085 95.1249 49.1972C92.6204 48.5335 88.8899 49.4786 86.1983 49.1128L85.463 49.39C83.6717 48.9701 80.9455 49.5224 78.4321 49.1244C77.819 49.2491 77.4964 49.2891 77.3542 49.3004C77.469 49.3134 77.6413 49.3606 77.6976 49.5328C76.981 49.42 75.5312 49.5846 75.6331 49.2389L75.8156 49.2032C75.9174 48.8575 73.6436 49.3828 72.8409 49.0946L73.2829 49.4575L71.9253 49.4075L72.2881 49.3327C66.401 50.2019 63.7277 49.0666 58.1971 49.8782C58.9274 49.4699 57.1067 50.1025 57.0317 49.6648C55.6305 49.1286 54.4474 49.8125 53.3035 49.975C53.3036 49.9958 53.291 50.0234 53.2254 50.0549L51.2242 50.0263C52.4144 49.4563 49.787 50.5013 50.88 50.0182C45.6606 49.672 38.8557 50.1847 32.8158 50.0783L33.0822 50.2181C31.5506 50.2141 29.6465 50.416 28.4832 50.2061C27.3177 49.9962 25.9451 50.6087 25.495 50.6357C24.2242 50.9026 23.0593 50.4305 23.6074 50.4477C22.2464 50.5358 20.9709 51.0649 19.0792 50.8769C18.4283 50.4153 13.9292 51.4273 13.8664 50.8964L13.8455 50.9414C11.4218 50.6119 9.14454 51.2854 6.53411 50.995C6.53411 50.995 6.58281 50.9568 6.67178 50.9183L1.38469 52.6185L2.91474 54.3615L7.52664 55.7191L19.982 55.1944L29.9302 55.6036L54.1285 55.0867L55.8528 54.6684C60.6131 55.3143 66.7063 54.437 71.8329 54.8907L71.9368 54.545C73.3811 54.5116 73.2848 54.7262 73.642 54.7825C87.0765 54.5725 100.904 54.0321 112.996 54.4068C114.163 54.6271 117.708 54.4802 118.622 54.7194C122.547 54.2872 126.707 54.2778 130.639 54.3079L130.49 54.3469L132.342 54.2763C132.421 54.3034 132.43 54.3448 132.371 54.3728C134.459 54.0661 137.749 54.3625 140.307 54.4842L140.159 54.5231C155.08 54.5658 168.932 53.9563 183.733 54.5C190.616 55.0944 198.619 54.3601 206.514 54.8893C207.963 55.232 223.934 55.1195 225.346 54.9759L225.355 54.9552Z" fill="#BD2B54"/>
</svg>
