<svg width="352" height="336" viewBox="0 0 352 336" fill="none" xmlns="http://www.w3.org/2000/svg">
<path d="M351.059 335.397C347.835 335.397 343.452 332.503 340.228 332.503C337.004 332.503 333.779 335.862 330.555 335.862C327.331 335.862 324.107 332.503 320.882 332.503C317.658 332.503 314.434 335.862 311.209 335.862C307.985 335.862 304.761 332.503 301.537 332.503C298.312 332.503 295.088 335.862 291.864 335.862C288.639 335.862 285.415 332.503 282.191 332.503C278.967 332.503 275.742 335.862 272.518 335.862C269.294 335.862 266.07 332.503 262.845 332.503C259.621 332.503 256.397 335.862 253.173 335.862C249.948 335.862 246.724 332.503 243.5 332.503C240.275 332.503 237.051 335.862 233.827 335.862C230.603 335.862 227.378 332.503 224.154 332.503C220.93 332.503 217.706 335.862 214.481 335.862C211.257 335.862 208.033 332.503 204.808 332.503C201.584 332.503 198.36 335.862 195.136 335.862C191.911 335.862 188.687 332.503 185.463 332.503C182.239 332.503 179.014 335.862 175.79 335.862C172.566 335.862 169.342 332.503 166.117 332.503C162.893 332.503 159.669 335.862 156.444 335.862C153.22 335.862 149.996 332.503 146.772 332.503C143.547 332.503 140.323 335.862 137.099 335.862C133.874 335.862 130.65 332.503 127.426 332.503C124.202 332.503 120.977 335.862 117.753 335.862C114.529 335.862 111.305 332.503 108.08 332.503C104.856 332.503 101.632 335.862 98.4076 335.862C95.1834 335.862 91.9589 332.503 88.7347 332.503C85.5104 332.503 82.2862 335.862 79.062 335.862C75.8377 335.862 72.6133 332.503 69.389 332.503C66.1647 332.503 62.9406 335.862 59.7163 335.862C56.492 335.862 53.2676 332.503 50.0433 332.503C46.8191 332.503 43.5949 335.862 40.3706 335.862C37.1464 335.862 33.9219 332.503 30.6977 332.503C27.4734 332.503 24.2492 335.862 21.025 335.862C17.8007 335.862 14.5766 332.503 11.3523 332.503C8.12801 332.503 3.74496 335.397 0.520684 335.397C0.520684 332.318 3.35862 328.025 3.35862 324.946C3.35862 321.867 0 318.789 0 315.71C0 312.631 3.35862 309.553 3.35862 306.474C3.35862 303.395 0 300.316 0 297.238C0 294.159 3.35862 291.08 3.35862 288.001C3.35862 284.923 0 281.844 0 278.765C0 275.686 3.35862 272.608 3.35862 269.529C3.35862 266.45 0 263.372 0 260.293C0 257.214 3.35862 254.135 3.35862 251.057C3.35862 247.978 0 244.899 0 241.82C0 238.742 3.35862 235.663 3.35862 232.584C3.35862 229.505 0 226.427 0 223.348C0 220.269 3.35862 217.191 3.35862 214.112C3.35862 211.033 0 207.954 0 204.876C0 201.797 3.35862 198.718 3.35862 195.639C3.35862 192.561 0 189.482 0 186.403C0 183.325 3.35862 180.246 3.35862 177.167C3.35862 174.088 0 171.01 0 167.931C0 164.852 3.35862 161.773 3.35862 158.695C3.35862 155.616 0 152.537 0 149.458C0 146.38 3.35862 143.301 3.35862 140.222C3.35862 137.144 0 134.065 0 130.986C0 127.907 3.35862 124.829 3.35862 121.75C3.35862 118.671 0 115.592 0 112.514C0 109.435 3.35862 106.356 3.35862 103.277C3.35862 100.199 0 97.12 0 94.0413C0 90.9625 3.35862 87.8838 3.35862 84.8051C3.35862 81.7263 0 78.6476 0 75.5689C0 72.4902 3.35862 69.4114 3.35862 66.3327C3.35862 63.254 0 60.1752 0 57.0965C0 54.0178 3.35862 50.939 3.35862 47.8603C3.35862 44.7816 0 41.7028 0 38.6241C0 35.5454 3.35862 32.4666 3.35862 29.3879C3.35862 26.3092 0 23.2304 0 20.1517C0 17.073 3.35862 13.9942 3.35862 10.9155C3.35862 7.83677 0.520684 3.54338 0.520684 0.464652C3.74496 0.464652 8.12801 3.35862 11.3523 3.35862C14.5766 3.35862 17.8007 0 21.025 0C24.2492 0 27.4734 3.35862 30.6977 3.35862C33.9219 3.35862 37.1464 0 40.3706 0C43.5949 0 46.8191 3.35862 50.0433 3.35862C53.2676 3.35862 56.492 0 59.7163 0C62.9406 0 66.1647 3.35862 69.389 3.35862C72.6133 3.35862 75.8377 0 79.062 0C82.2862 0 85.5104 3.35862 88.7347 3.35862C91.9589 3.35862 95.1834 0 98.4076 0C101.632 0 104.856 3.35862 108.08 3.35862C111.305 3.35862 114.529 0 117.753 0C120.977 0 124.202 3.35862 127.426 3.35862C130.65 3.35862 133.874 0 137.099 0C140.323 0 143.547 3.35862 146.772 3.35862C149.996 3.35862 153.22 0 156.444 0C159.669 0 162.893 3.35862 166.117 3.35862C169.342 3.35862 172.566 0 175.79 0C179.014 0 182.239 3.35862 185.463 3.35862C188.687 3.35862 191.911 0 195.136 0C198.36 0 201.584 3.35862 204.808 3.35862C208.033 3.35862 211.257 0 214.481 0C217.706 0 220.93 3.35862 224.154 3.35862C227.378 3.35862 230.603 0 233.827 0C237.051 0 240.275 3.35862 243.5 3.35862C246.724 3.35862 249.948 0 253.173 0C256.397 0 259.621 3.35862 262.845 3.35862C266.07 3.35862 269.294 0 272.518 0C275.742 0 278.967 3.35862 282.191 3.35862C285.415 3.35862 288.639 0 291.864 0C295.088 0 298.312 3.35862 301.537 3.35862C304.761 3.35862 307.985 0 311.209 0C314.434 0 317.658 3.35862 320.882 3.35862C324.107 3.35862 327.331 0 330.555 0C333.779 0 337.004 3.35862 340.228 3.35862C343.452 3.35862 347.835 0.464652 351.059 0.464652C351.059 3.54338 348.221 7.83677 348.221 10.9155C348.221 13.9942 351.58 17.073 351.58 20.1517C351.58 23.2304 348.221 26.3092 348.221 29.3879C348.221 32.4666 351.58 35.5454 351.58 38.6241C351.58 41.7028 348.221 44.7816 348.221 47.8603C348.221 50.939 351.58 54.0178 351.58 57.0965C351.58 60.1752 348.221 63.254 348.221 66.3327C348.221 69.4114 351.58 72.4902 351.58 75.5689C351.58 78.6476 348.221 81.7263 348.221 84.8051C348.221 87.8838 351.58 90.9625 351.58 94.0413C351.58 97.12 348.221 100.199 348.221 103.277C348.221 106.356 351.58 109.435 351.58 112.514C351.58 115.592 348.221 118.671 348.221 121.75C348.221 124.829 351.58 127.907 351.58 130.986C351.58 134.065 348.221 137.144 348.221 140.222C348.221 143.301 351.58 146.38 351.58 149.458C351.58 152.537 348.221 155.616 348.221 158.695C348.221 161.773 351.58 164.852 351.58 167.931C351.58 171.01 348.221 174.088 348.221 177.167C348.221 180.246 351.58 183.325 351.58 186.403C351.58 189.482 348.221 192.561 348.221 195.639C348.221 198.718 351.58 201.797 351.58 204.876C351.58 207.954 348.221 211.033 348.221 214.112C348.221 217.191 351.58 220.269 351.58 223.348C351.58 226.427 348.221 229.505 348.221 232.584C348.221 235.663 351.58 238.742 351.58 241.82C351.58 244.899 348.221 247.978 348.221 251.057C348.221 254.135 351.58 257.214 351.58 260.293C351.58 263.372 348.221 266.45 348.221 269.529C348.221 272.608 351.58 275.686 351.58 278.765C351.58 281.844 348.221 284.923 348.221 288.001C348.221 291.08 351.58 294.159 351.58 297.238C351.58 300.316 348.221 303.395 348.221 306.474C348.221 309.553 351.58 312.631 351.58 315.71C351.58 318.789 348.221 321.867 348.221 324.946C348.221 328.025 351.059 332.318 351.059 335.397Z" fill="#F0EFEA"/>
<rect x="27" y="19" width="298" height="298" fill="#DED2C2"/>
</svg>
