<svg width="412" height="861" viewBox="0 0 412 861" fill="none" xmlns="http://www.w3.org/2000/svg">
<mask id="mask0_253_37105" style="mask-type:alpha" maskUnits="userSpaceOnUse" x="-138" y="0" width="1615" height="909">
<rect width="1604.95" height="895.037" transform="matrix(-0.999962 0.00870743 -0.0112928 -0.999936 1477 894.979)" fill="url(#paint0_linear_253_37105)"/>
</mask>
<g mask="url(#mask0_253_37105)">
<g opacity="0.18">
<path d="M401.195 211.515C401.195 211.515 395.063 99.3842 533.332 91.5708C687.212 87.6346 686.214 210.979 686.214 210.979" stroke="#623800" stroke-width="3"/>
<path d="M698.741 207.479C698.741 207.479 695.576 81.044 530.021 85.2902C381.261 93.719 388.372 208.565 388.372 208.565H359.938" stroke="#623800" stroke-width="3"/>
<path d="M708.399 200.97C708.399 200.97 708.956 67.3314 531.405 71.5776C371.866 80.0065 378.941 200.969 378.941 200.969H369.416" stroke="#623800" stroke-width="3"/>
<path d="M401.195 212.037C401.195 212.037 395.062 99.9057 533.331 92.0922C687.212 88.1561 686.213 211.5 686.213 211.5" stroke="#623800" stroke-width="3"/>
<path d="M698.741 208C698.741 208 695.575 81.5654 530.02 85.8116C381.261 94.2405 388.372 209.086 388.372 209.086H359.938" stroke="#623800" stroke-width="3"/>
<path d="M708.398 201.492C708.398 201.492 708.956 67.8529 531.404 72.0991C371.865 80.5279 378.941 201.491 378.941 201.491H369.416" stroke="#623800" stroke-width="3"/>
<path d="M327.48 836.521L355.097 238.947H396.355L425.99 836.521H327.48Z" stroke="#623800" stroke-width="3"/>
<path d="M404.161 212.999H341.716L344.504 217.405H404.161H408.621H410.851L404.161 212.999Z" stroke="#623800" stroke-width="3"/>
<path d="M403.603 217.896H346.734L349.072 221.812H399.107H402.848V222.302L403.603 217.896Z" stroke="#623800" stroke-width="3"/>
<path d="M360.115 229.155L351.752 222.301H399.7L392.452 230.623L391.895 234.05H360.115V229.155Z" stroke="#623800" stroke-width="3"/>
<path d="M397.47 238.457H353.982C353.982 238.457 351.953 237.928 351.752 236.989C351.572 236.148 352.867 235.03 352.867 235.03H397.47C397.47 235.03 399.546 235.553 399.7 236.499C399.874 237.57 397.47 238.457 397.47 238.457Z" stroke="#623800" stroke-width="3"/>
<path d="M64.0998 212.037C64.0998 212.037 57.9675 99.9057 196.237 92.0922C350.117 88.1561 349.119 211.5 349.119 211.5" stroke="#623800" stroke-width="3"/>
<path d="M361.646 208C361.646 208 358.48 81.5654 192.925 85.8116C44.166 94.2405 51.2772 209.086 51.2772 209.086H22.8428" stroke="#623800" stroke-width="3"/>
<path d="M371.304 201.492C371.304 201.492 371.861 67.8529 194.309 72.0991C34.7704 80.5279 41.8459 201.491 41.8459 201.491H32.3208" stroke="#623800" stroke-width="3"/>
<path d="M64.0998 212.037C64.0998 212.037 57.9675 99.9057 196.237 92.0922C350.117 88.1561 349.119 211.5 349.119 211.5" stroke="#623800" stroke-width="3"/>
<path d="M361.646 208C361.646 208 358.48 81.5654 192.925 85.8116C44.166 94.2405 51.2772 209.086 51.2772 209.086H22.8428" stroke="#623800" stroke-width="3"/>
<path d="M371.304 201.492C371.304 201.492 371.861 67.8529 194.309 72.0991C34.7704 80.5279 41.8459 201.491 41.8459 201.491H32.3208" stroke="#623800" stroke-width="3"/>
<path d="M-9.61426 836.521L18.0022 238.947H59.26L88.8949 836.521H-9.61426Z" stroke="#623800" stroke-width="3"/>
<path d="M67.0658 212.999H4.62158L7.40927 217.405H67.0658H71.5261H73.7562L67.0658 212.999Z" stroke="#623800" stroke-width="3"/>
<path d="M66.5085 217.896H9.63965L11.9777 221.812H62.0122H65.7531V222.302L66.5085 217.896Z" stroke="#623800" stroke-width="3"/>
<path d="M23.0203 229.155L14.6572 222.301H62.6054L55.3575 230.623L54.7999 234.05H23.0203V229.155Z" stroke="#623800" stroke-width="3"/>
<path d="M60.3753 238.457H16.8874C16.8874 238.457 14.8578 237.928 14.6572 236.989C14.4778 236.148 15.7723 235.03 15.7723 235.03H60.3753C60.3753 235.03 62.4515 235.553 62.6054 236.499C62.7796 237.57 60.3753 238.457 60.3753 238.457Z" stroke="#623800" stroke-width="3"/>
<path d="M-272.995 212.037C-272.995 212.037 -279.127 99.9057 -140.858 92.0922C13.0225 88.1561 12.024 211.5 12.024 211.5" stroke="#623800" stroke-width="3"/>
<path d="M24.5512 208C24.5512 208 21.3858 81.5654 -144.169 85.8116C-292.929 94.2405 -285.818 209.086 -285.818 209.086H-314.252" stroke="#623800" stroke-width="3"/>
<path d="M34.2089 201.492C34.2089 201.492 34.7665 67.8529 -142.785 72.0991C-302.324 80.5279 -295.249 201.491 -295.249 201.491H-304.774" stroke="#623800" stroke-width="3"/>
<path d="M404.161 212.478H341.717L344.504 216.884H404.161H408.621H410.851L404.161 212.478Z" stroke="#623800" stroke-width="3"/>
<path d="M403.603 217.374H346.734L349.072 221.291H399.107H402.848V221.78L403.603 217.374Z" stroke="#623800" stroke-width="3"/>
<path d="M360.116 228.633L351.752 221.779H399.701L392.453 230.102L391.895 233.529H360.116V228.633Z" stroke="#623800" stroke-width="3"/>
<path d="M397.47 237.936H353.983C353.983 237.936 351.953 237.407 351.752 236.467C351.573 235.627 352.867 234.509 352.867 234.509H397.47C397.47 234.509 399.547 235.031 399.701 235.977C399.875 237.048 397.47 237.936 397.47 237.936Z" stroke="#623800" stroke-width="3"/>
</g>
</g>
<defs>
<linearGradient id="paint0_linear_253_37105" x1="802.477" y1="0" x2="802.477" y2="895.037" gradientUnits="userSpaceOnUse">
<stop stop-color="#D9D9D9" stop-opacity="0"/>
<stop offset="1" stop-color="#737373"/>
</linearGradient>
</defs>
</svg>
