<svg width="297" height="193" viewBox="0 0 297 193" fill="none" xmlns="http://www.w3.org/2000/svg">
<path d="M1.71601 191.338C-0.832974 189.698 4.24439 187.769 4.24439 185.163C4.24439 182.556 1.14218 182.552 1.14218 179.946C1.14218 177.339 4.24439 177.335 4.24439 174.729C4.24439 172.122 1.14218 172.118 1.14218 169.511C1.14218 166.905 4.24439 166.901 4.24439 164.294C4.24439 161.688 1.14218 161.684 1.14218 159.077C1.14218 156.471 4.24439 156.466 4.24439 153.86C4.24439 151.253 1.14218 151.249 1.14218 148.643C1.14218 146.036 4.24439 146.032 4.24439 143.426C4.24439 140.819 1.14218 140.815 1.14218 138.209C1.14218 135.602 4.24439 135.598 4.24439 132.991C4.24439 130.385 1.14218 130.381 1.14218 127.774C1.14218 125.168 4.24439 125.164 4.24439 122.557C4.24439 119.95 1.14218 119.946 1.14218 117.34C1.14218 114.733 4.24439 114.729 4.24439 112.119C4.24439 109.508 1.14218 109.508 1.14218 106.901C1.14218 104.295 4.24439 104.291 4.24439 101.684C4.24439 99.0777 1.14218 99.0736 1.14218 96.4671C1.14218 93.8606 4.24439 93.8605 4.24439 91.2499C4.24439 88.6392 1.14218 88.6393 1.14218 86.0327C1.14218 83.4262 4.24439 83.4262 4.24439 80.8156C4.24439 78.205 1.14218 78.205 1.14218 75.5985C1.14218 72.9919 4.24439 72.9878 4.24439 70.3772C4.24439 67.7666 1.14218 67.7665 1.14218 65.16C1.14218 62.5534 4.24439 62.5494 4.24439 59.9428C4.24439 57.3363 1.14218 57.3322 1.14218 54.7216C1.14218 52.1109 4.24439 52.111 4.24439 49.5003C4.24439 46.8897 1.14218 46.8896 1.14218 44.279C1.14218 41.6683 4.24439 41.6684 4.24439 39.0577C4.24439 36.4471 1.14218 36.4471 1.14218 33.8365C1.14218 31.2258 4.24439 31.2259 4.24439 28.6193C4.24439 26.0128 1.14218 26.0087 1.14218 23.3981C1.14218 20.7874 4.24439 20.7874 4.24439 18.1767C4.24439 15.5661 1.14218 15.5661 1.14218 12.9555C1.14218 10.3448 4.24439 10.3449 4.24439 7.73011C4.24439 5.11536 -0.832974 3.1954 1.71601 1.55091C4.8596 -0.475933 6.74176 3.74223 10.7902 3.74223C14.8385 3.74223 14.8384 1.27549 18.8868 1.27549C22.9352 1.27549 22.9352 3.74223 26.9836 3.74223C31.032 3.74223 31.032 1.27549 35.0804 1.27549C39.1288 1.27549 39.1289 3.74223 43.1824 3.74223C47.236 3.74223 47.2308 1.27549 51.2792 1.27549C55.3276 1.27549 55.3275 3.74223 59.3811 3.74223C63.4347 3.74223 63.4296 1.27549 67.478 1.27549C71.5264 1.27549 71.5263 3.74223 75.5799 3.74223C79.6335 3.74223 79.6282 1.27549 83.6766 1.27549C87.725 1.27549 87.7251 3.74223 91.7787 3.74223C95.8322 3.74223 95.827 1.27549 99.8806 1.27549C103.934 1.27549 103.929 3.74223 107.977 3.74223C112.026 3.74223 112.026 1.27549 116.079 1.27549C120.133 1.27549 120.128 3.74223 124.181 3.74223C128.235 3.74223 128.23 1.27549 132.283 1.27549C136.337 1.27549 136.332 3.74223 140.385 3.74223C144.439 3.74223 144.434 1.27549 148.487 1.27549C152.541 1.27549 152.536 3.74223 156.589 3.74223C160.643 3.74223 160.638 1.27549 164.691 1.27549C168.745 1.27549 168.74 3.74223 172.793 3.74223C176.847 3.74223 176.841 1.27549 180.89 1.27549C184.938 1.27549 184.938 3.74223 188.992 3.74223C193.045 3.74223 193.04 1.27549 197.089 1.27549C201.137 1.27549 201.137 3.74223 205.185 3.74223C209.234 3.74223 209.234 1.27549 213.287 1.27549C217.341 1.27549 217.336 3.74223 221.389 3.74223C225.443 3.74223 225.438 1.27549 229.491 1.27549C233.545 1.27549 233.54 3.74223 237.593 3.74223C241.647 3.74223 241.642 1.27549 245.695 1.27549C249.749 1.27549 249.749 3.74223 253.797 3.74223C257.846 3.74223 257.846 1.27549 261.899 1.27549C265.953 1.27549 265.953 3.74223 270.001 3.74223C274.049 3.74223 274.055 1.27549 278.103 1.27549C282.151 1.27549 282.157 3.74223 286.205 3.74223C290.253 3.74223 292.135 -0.475933 295.284 1.55091C297.833 3.19129 292.756 5.11947 292.756 7.72599C292.756 10.3325 295.858 10.3366 295.858 12.9431C295.858 15.5497 292.756 15.5538 292.756 18.1604C292.756 20.7669 295.858 20.771 295.858 23.3775C295.858 25.984 292.756 25.9881 292.756 28.5946C292.756 31.2012 295.858 31.2053 295.858 33.8118C295.858 36.4183 292.756 36.4225 292.756 39.029C292.756 41.6355 295.858 41.6396 295.858 44.2462C295.858 46.8527 292.756 46.8568 292.756 49.4633C292.756 52.0698 295.858 52.0739 295.858 54.6804C295.858 57.287 292.756 57.2911 292.756 59.8977C292.756 62.5042 295.858 62.5083 295.858 65.1148C295.858 67.7213 292.756 67.7254 292.756 70.3319C292.756 72.9385 295.858 72.9426 295.858 75.5491C295.858 78.1556 292.756 78.1597 292.756 80.7703C292.756 83.381 295.858 83.381 295.858 85.9876C295.858 88.5941 292.756 88.5982 292.756 91.2047C292.756 93.8112 295.858 93.8153 295.858 96.4218C295.858 99.0284 292.756 99.0283 292.756 101.639C292.756 104.25 295.858 104.25 295.858 106.856C295.858 109.463 292.756 109.463 292.756 112.073C292.756 114.684 295.858 114.684 295.858 117.29C295.858 119.897 292.756 119.901 292.756 122.512C292.756 125.122 295.858 125.122 295.858 127.729C295.858 130.336 292.756 130.34 292.756 132.946C292.756 135.553 295.858 135.557 295.858 138.167C295.858 140.778 292.756 140.778 292.756 143.389C292.756 145.999 295.858 145.999 295.858 148.61C295.858 151.221 292.756 151.221 292.756 153.831C292.756 156.442 295.858 156.442 295.858 159.052C295.858 161.663 292.756 161.663 292.756 164.27C292.756 166.876 295.858 166.88 295.858 169.491C295.858 172.102 292.756 172.101 292.756 174.712C292.756 177.323 295.858 177.323 295.858 179.933C295.858 182.544 292.756 182.544 292.756 185.159C292.756 187.774 297.833 189.694 295.284 191.338C292.141 193.365 290.259 189.147 286.21 189.147C282.162 189.147 282.162 191.613 278.113 191.613C274.065 191.613 274.065 189.147 270.017 189.147C265.968 189.147 265.968 191.613 261.92 191.613C257.871 191.613 257.871 189.147 253.818 189.147C249.764 189.147 249.769 191.613 245.721 191.613C241.673 191.613 241.673 189.147 237.619 189.147C233.566 189.147 233.571 191.613 229.522 191.613C225.474 191.613 225.474 189.147 221.42 189.147C217.367 189.147 217.372 191.613 213.324 191.613C209.275 191.613 209.275 189.147 205.222 189.147C201.168 189.147 201.173 191.613 197.12 191.613C193.066 191.613 193.071 189.147 189.023 189.147C184.974 189.147 184.974 191.613 180.921 191.613C176.867 191.613 176.873 189.147 172.819 189.147C168.765 189.147 168.771 191.613 164.717 191.613C160.663 191.613 160.669 189.147 156.615 189.147C152.561 189.147 152.567 191.613 148.513 191.613C144.46 191.613 144.465 189.147 140.411 189.147C136.358 189.147 136.363 191.613 132.309 191.613C128.256 191.613 128.261 189.147 124.207 189.147C120.159 189.147 120.159 191.613 116.11 191.613C112.062 191.613 112.062 189.147 108.008 189.147C103.955 189.147 103.96 191.613 99.9116 191.613C95.8633 191.613 95.8633 189.147 91.8149 189.147C87.7665 189.147 87.7664 191.613 83.7129 191.613C79.6593 191.613 79.6645 189.147 75.6109 189.147C71.5574 189.147 71.5626 191.613 67.509 191.613C63.4555 191.613 63.4605 189.147 59.407 189.147C55.3534 189.147 55.3586 191.613 51.3051 191.613C47.2515 191.613 47.2515 189.147 43.2031 189.147C39.1547 189.147 39.1547 191.613 35.1011 191.613C31.0475 191.613 31.0474 189.147 26.999 189.147C22.9506 189.147 22.9455 191.613 18.8971 191.613C14.8487 191.613 14.306 188.357 10.392 189.188C5.71285 190.183 4.85972 193.365 1.71097 191.338H1.71601Z" fill="#F0EFEA"/>
<path d="M1.71601 191.338C-0.832974 189.698 4.24439 187.769 4.24439 185.163C4.24439 182.556 1.14218 182.552 1.14218 179.946C1.14218 177.339 4.24439 177.335 4.24439 174.729C4.24439 172.122 1.14218 172.118 1.14218 169.511C1.14218 166.905 4.24439 166.901 4.24439 164.294C4.24439 161.688 1.14218 161.684 1.14218 159.077C1.14218 156.471 4.24439 156.466 4.24439 153.86C4.24439 151.253 1.14218 151.249 1.14218 148.643C1.14218 146.036 4.24439 146.032 4.24439 143.426C4.24439 140.819 1.14218 140.815 1.14218 138.209C1.14218 135.602 4.24439 135.598 4.24439 132.991C4.24439 130.385 1.14218 130.381 1.14218 127.774C1.14218 125.168 4.24439 125.164 4.24439 122.557C4.24439 119.95 1.14218 119.946 1.14218 117.34C1.14218 114.733 4.24439 114.729 4.24439 112.119C4.24439 109.508 1.14218 109.508 1.14218 106.901C1.14218 104.295 4.24439 104.291 4.24439 101.684C4.24439 99.0777 1.14218 99.0736 1.14218 96.4671C1.14218 93.8606 4.24439 93.8605 4.24439 91.2499C4.24439 88.6392 1.14218 88.6393 1.14218 86.0327C1.14218 83.4262 4.24439 83.4262 4.24439 80.8156C4.24439 78.205 1.14218 78.205 1.14218 75.5985C1.14218 72.9919 4.24439 72.9878 4.24439 70.3772C4.24439 67.7666 1.14218 67.7665 1.14218 65.16C1.14218 62.5534 4.24439 62.5494 4.24439 59.9428C4.24439 57.3363 1.14218 57.3322 1.14218 54.7216C1.14218 52.1109 4.24439 52.111 4.24439 49.5003C4.24439 46.8897 1.14218 46.8896 1.14218 44.279C1.14218 41.6683 4.24439 41.6684 4.24439 39.0577C4.24439 36.4471 1.14218 36.4471 1.14218 33.8365C1.14218 31.2258 4.24439 31.2259 4.24439 28.6193C4.24439 26.0128 1.14218 26.0087 1.14218 23.3981C1.14218 20.7874 4.24439 20.7874 4.24439 18.1767C4.24439 15.5661 1.14218 15.5661 1.14218 12.9555C1.14218 10.3448 4.24439 10.3449 4.24439 7.73011C4.24439 5.11536 -0.832974 3.1954 1.71601 1.55091C4.8596 -0.475933 6.74176 3.74223 10.7902 3.74223C14.8385 3.74223 14.8384 1.27549 18.8868 1.27549C22.9352 1.27549 22.9352 3.74223 26.9836 3.74223C31.032 3.74223 31.032 1.27549 35.0804 1.27549C39.1288 1.27549 39.1289 3.74223 43.1824 3.74223C47.236 3.74223 47.2308 1.27549 51.2792 1.27549C55.3276 1.27549 55.3275 3.74223 59.3811 3.74223C63.4347 3.74223 63.4296 1.27549 67.478 1.27549C71.5264 1.27549 71.5263 3.74223 75.5799 3.74223C79.6335 3.74223 79.6282 1.27549 83.6766 1.27549C87.725 1.27549 87.7251 3.74223 91.7787 3.74223C95.8322 3.74223 95.827 1.27549 99.8806 1.27549C103.934 1.27549 103.929 3.74223 107.977 3.74223C112.026 3.74223 112.026 1.27549 116.079 1.27549C120.133 1.27549 120.128 3.74223 124.181 3.74223C128.235 3.74223 128.23 1.27549 132.283 1.27549C136.337 1.27549 136.332 3.74223 140.385 3.74223C144.439 3.74223 144.434 1.27549 148.487 1.27549C152.541 1.27549 152.536 3.74223 156.589 3.74223C160.643 3.74223 160.638 1.27549 164.691 1.27549C168.745 1.27549 168.74 3.74223 172.793 3.74223C176.847 3.74223 176.841 1.27549 180.89 1.27549C184.938 1.27549 184.938 3.74223 188.992 3.74223C193.045 3.74223 193.04 1.27549 197.089 1.27549C201.137 1.27549 201.137 3.74223 205.185 3.74223C209.234 3.74223 209.234 1.27549 213.287 1.27549C217.341 1.27549 217.336 3.74223 221.389 3.74223C225.443 3.74223 225.438 1.27549 229.491 1.27549C233.545 1.27549 233.54 3.74223 237.593 3.74223C241.647 3.74223 241.642 1.27549 245.695 1.27549C249.749 1.27549 249.749 3.74223 253.797 3.74223C257.846 3.74223 257.846 1.27549 261.899 1.27549C265.953 1.27549 265.953 3.74223 270.001 3.74223C274.049 3.74223 274.055 1.27549 278.103 1.27549C282.151 1.27549 282.157 3.74223 286.205 3.74223C290.253 3.74223 292.135 -0.475933 295.284 1.55091C297.833 3.19129 292.756 5.11947 292.756 7.72599C292.756 10.3325 295.858 10.3366 295.858 12.9431C295.858 15.5497 292.756 15.5538 292.756 18.1604C292.756 20.7669 295.858 20.771 295.858 23.3775C295.858 25.984 292.756 25.9881 292.756 28.5946C292.756 31.2012 295.858 31.2053 295.858 33.8118C295.858 36.4183 292.756 36.4225 292.756 39.029C292.756 41.6355 295.858 41.6396 295.858 44.2462C295.858 46.8527 292.756 46.8568 292.756 49.4633C292.756 52.0698 295.858 52.0739 295.858 54.6804C295.858 57.287 292.756 57.2911 292.756 59.8977C292.756 62.5042 295.858 62.5083 295.858 65.1148C295.858 67.7213 292.756 67.7254 292.756 70.3319C292.756 72.9385 295.858 72.9426 295.858 75.5491C295.858 78.1556 292.756 78.1597 292.756 80.7703C292.756 83.381 295.858 83.381 295.858 85.9876C295.858 88.5941 292.756 88.5982 292.756 91.2047C292.756 93.8112 295.858 93.8153 295.858 96.4218C295.858 99.0284 292.756 99.0283 292.756 101.639C292.756 104.25 295.858 104.25 295.858 106.856C295.858 109.463 292.756 109.463 292.756 112.073C292.756 114.684 295.858 114.684 295.858 117.29C295.858 119.897 292.756 119.901 292.756 122.512C292.756 125.122 295.858 125.122 295.858 127.729C295.858 130.336 292.756 130.34 292.756 132.946C292.756 135.553 295.858 135.557 295.858 138.167C295.858 140.778 292.756 140.778 292.756 143.389C292.756 145.999 295.858 145.999 295.858 148.61C295.858 151.221 292.756 151.221 292.756 153.831C292.756 156.442 295.858 156.442 295.858 159.052C295.858 161.663 292.756 161.663 292.756 164.27C292.756 166.876 295.858 166.88 295.858 169.491C295.858 172.102 292.756 172.101 292.756 174.712C292.756 177.323 295.858 177.323 295.858 179.933C295.858 182.544 292.756 182.544 292.756 185.159C292.756 187.774 297.833 189.694 295.284 191.338C292.141 193.365 290.259 189.147 286.21 189.147C282.162 189.147 282.162 191.613 278.113 191.613C274.065 191.613 274.065 189.147 270.017 189.147C265.968 189.147 265.968 191.613 261.92 191.613C257.871 191.613 257.871 189.147 253.818 189.147C249.764 189.147 249.769 191.613 245.721 191.613C241.673 191.613 241.673 189.147 237.619 189.147C233.566 189.147 233.571 191.613 229.522 191.613C225.474 191.613 225.474 189.147 221.42 189.147C217.367 189.147 217.372 191.613 213.324 191.613C209.275 191.613 209.275 189.147 205.222 189.147C201.168 189.147 201.173 191.613 197.12 191.613C193.066 191.613 193.071 189.147 189.023 189.147C184.974 189.147 184.974 191.613 180.921 191.613C176.867 191.613 176.873 189.147 172.819 189.147C168.765 189.147 168.771 191.613 164.717 191.613C160.663 191.613 160.669 189.147 156.615 189.147C152.561 189.147 152.567 191.613 148.513 191.613C144.46 191.613 144.465 189.147 140.411 189.147C136.358 189.147 136.363 191.613 132.309 191.613C128.256 191.613 128.261 189.147 124.207 189.147C120.159 189.147 120.159 191.613 116.11 191.613C112.062 191.613 112.062 189.147 108.008 189.147C103.955 189.147 103.96 191.613 99.9116 191.613C95.8633 191.613 95.8633 189.147 91.8149 189.147C87.7665 189.147 87.7664 191.613 83.7129 191.613C79.6593 191.613 79.6645 189.147 75.6109 189.147C71.5574 189.147 71.5626 191.613 67.509 191.613C63.4555 191.613 63.4605 189.147 59.407 189.147C55.3534 189.147 55.3586 191.613 51.3051 191.613C47.2515 191.613 47.2515 189.147 43.2031 189.147C39.1547 189.147 39.1547 191.613 35.1011 191.613C31.0475 191.613 31.0474 189.147 26.999 189.147C22.9506 189.147 22.9455 191.613 18.8971 191.613C14.8487 191.613 14.306 188.357 10.392 189.188C5.71285 190.183 4.85972 193.365 1.71097 191.338H1.71601Z" stroke="#F0EFEA" stroke-miterlimit="10"/>
</svg>
