<svg width="291" height="362" viewBox="0 0 291 362" fill="none" xmlns="http://www.w3.org/2000/svg">
<g opacity="0.18">
<path d="M19.1675 325.803H55.5013M19.1675 325.803V360.364H56.8306M19.1675 325.803L21.8261 320.486M55.5013 325.803L56.8306 360.364M55.5013 325.803L59.9323 322.735M56.8306 360.364L61.2616 355.047V321.815L59.9323 322.735M21.8261 320.486H51.9566L56.8306 318.713M21.8261 320.486L23.1553 316.941L25.3708 315.169M56.8306 318.713L59.9323 320.486V322.735M56.8306 318.713L55.5013 315.169M55.5013 315.169H25.3708M55.5013 315.169V312.067L51.9566 310.295M25.3708 315.169V312.067L27.1432 310.295M27.1432 310.295H51.9566M27.1432 310.295L25.3708 125.967H49.298L51.9566 310.295" stroke="#623800"/>
<path d="M32.4599 112.23C32.4599 112.23 23.6393 110.229 19.6101 112.23C16.4305 113.81 14.7361 115.326 14.7361 118.877C14.7361 122.427 17.3979 125.272 20.9394 125.523C24.4977 125.776 28.178 123.327 28.029 119.763C27.916 117.062 26.2899 114.691 23.598 114.446C20.9061 114.201 17.5648 116.271 18.2809 118.877C18.6698 120.293 19.4948 121.273 20.9394 121.535C22.4622 121.812 24.7031 121.295 24.4842 119.763C24.3458 118.794 22.7118 117.991 22.7118 117.991" stroke="#623800"/>
<path d="M47.5253 117.993C47.5253 117.993 45.8913 118.797 45.7529 119.766C45.534 121.298 47.7749 121.815 49.2976 121.538C50.7422 121.276 51.5672 120.295 51.9562 118.88C52.6723 116.273 49.3309 114.204 46.6391 114.449C43.9472 114.693 42.3211 117.065 42.2081 119.766C42.059 123.33 45.7393 125.779 49.2976 125.526C52.8392 125.274 55.501 122.43 55.501 118.88C55.501 115.329 53.8066 113.813 50.6269 112.233C48.9691 111.41 46.0428 112.12 42.6512 112.234M42.6512 112.234C37.8 112.396 32.46 112.233 32.46 112.233L42.6512 112.234Z" stroke="#623800"/>
<path d="M28.0293 118.876H42.2084" stroke="#623800"/>
<path d="M23.1551 110.901V108.243M23.1551 108.243H47.9685M23.1551 108.243L17.838 105.141L18.2811 100.71M47.9685 108.243V110.901M47.9685 108.243L50.6271 110.015M47.9685 108.243L50.6271 105.141L48.8547 100.71M50.6271 110.015V112.231M50.6271 110.015L53.2857 108.243V104.698M53.2857 104.698L48.8547 100.71M53.2857 104.698L55.058 103.812V100.71L50.6271 97.5452M48.8547 100.71H18.2811M48.8547 100.71V98.4947V96.2792M18.2811 100.71L17.838 98.4947L19.1673 96.2792H48.8547M48.8547 96.2792L50.6271 97.5452M50.6271 97.5452V82.5432M50.6271 82.5432L46.6392 77.6692L25.3706 78.5554M50.6271 82.5432L55.058 78.5554M25.3706 78.5554V95.393M25.3706 78.5554L19.1673 72.352M19.1673 72.352H50.6271L55.058 78.5554M19.1673 72.352L14.7363 70.1366M55.058 78.5554L56.3873 78.0441M14.7363 70.1366V66.5918H51.5133L60.8183 76.3399L56.3873 78.0441M14.7363 70.1366H50.6271L56.3873 78.0441" stroke="#623800"/>
<path d="M296.103 326.245H259.769M296.103 326.245V360.807H258.439M296.103 326.245L293.444 320.928M259.769 326.245L258.439 360.807M259.769 326.245L255.338 323.178M258.439 360.807L254.008 355.49V322.258L255.338 323.178M293.444 320.928H263.313L258.439 319.156M293.444 320.928L292.115 317.383L289.899 315.611M258.439 319.156L255.338 320.928V323.178M258.439 319.156L259.769 315.611M259.769 315.611H289.899M259.769 315.611V312.509L263.313 310.737M289.899 315.611V312.509L288.127 310.737M288.127 310.737H263.313M288.127 310.737L289.899 126.409H265.972L263.313 310.737" stroke="#623800"/>
<path d="M282.81 112.673C282.81 112.673 291.631 110.671 295.66 112.673C298.84 114.253 300.534 115.769 300.534 119.319C300.534 122.87 297.872 125.714 294.331 125.966C290.772 126.219 287.092 123.77 287.241 120.205C287.354 117.505 288.98 115.133 291.672 114.888C294.364 114.644 297.705 116.713 296.989 119.319C296.6 120.735 295.775 121.715 294.331 121.978C292.808 122.255 290.567 121.738 290.786 120.205C290.924 119.236 292.558 118.433 292.558 118.433" stroke="#623800"/>
<path d="M267.745 118.436C267.745 118.436 269.379 119.239 269.517 120.208C269.736 121.74 267.495 122.257 265.972 121.981C264.528 121.718 263.703 120.738 263.314 119.322C262.598 116.716 265.939 114.646 268.631 114.891C271.323 115.136 272.949 117.508 273.062 120.208C273.211 123.772 269.531 126.221 265.972 125.968C262.431 125.717 259.769 122.872 259.769 119.322C259.769 115.772 261.463 114.255 264.643 112.676C266.301 111.852 269.227 112.562 272.619 112.676M272.619 112.676C277.47 112.839 282.81 112.676 282.81 112.676L272.619 112.676Z" stroke="#623800"/>
<path d="M287.241 119.318H273.062" stroke="#623800"/>
<path d="M292.115 111.344V108.685M292.115 108.685H267.301M292.115 108.685L297.432 105.584L296.989 101.153M267.301 108.685V111.344M267.301 108.685L264.643 110.458M267.301 108.685L264.643 105.584L266.415 101.153M264.643 110.458V112.673M264.643 110.458L261.984 108.685V105.14M261.984 105.14L266.415 101.153M261.984 105.14L260.212 104.254V101.153L264.643 97.9876M266.415 101.153H296.989M266.415 101.153V98.9371V96.7216M296.989 101.153L297.432 98.9371L296.102 96.7216H266.415M266.415 96.7216L264.643 97.9876M264.643 97.9876V82.9856M264.643 82.9856L268.631 78.1116L289.899 78.9978M264.643 82.9856L260.212 78.9978M289.899 78.9978V95.8354M289.899 78.9978L296.102 72.7944M296.102 72.7944H264.643L260.212 78.9978M296.102 72.7944L300.533 70.5789M260.212 78.9978L258.882 78.4865M300.533 70.5789V67.0342H263.756L254.451 76.7823L258.882 78.4865M300.533 70.5789H264.643L258.882 78.4865" stroke="#623800"/>
<path d="M88.7335 349.729C88.3526 346.409 88.1205 343.984 85.6318 341.753C82.7505 339.171 79.7389 339.651 75.8837 339.981C72.2305 340.294 69.5235 340.402 67.0218 343.083C64.7818 345.483 64.0269 347.792 64.3632 351.058C64.6887 354.218 64.8929 355.841 67.4647 357.706C70.298 359.76 73.7138 359.522 77.213 359.477C81.8299 359.418 86.1769 360.038 88.2904 355.932C89.5577 353.471 89.0104 352.142 88.7335 349.729ZM88.7335 349.729H159.186M229.638 349.729H159.186M159.186 349.729V176.923M159.186 176.923H83.4161M159.186 176.923H236.727" stroke="#623800"/>
<path d="M174.251 310.296V188.002H226.093V310.296H174.251Z" stroke="#623800"/>
<path d="M169.819 315.17V184.014H230.967V315.17H169.819Z" stroke="#623800"/>
<path d="M93.6084 310.296V188.002H145.451V310.296H93.6084Z" stroke="#623800"/>
<path d="M89.177 315.17V184.014H150.324V315.17H89.177Z" stroke="#623800"/>
<path d="M232.654 341.134C235.535 338.551 238.547 339.031 242.402 339.361C246.055 339.674 248.762 339.782 251.264 342.463C253.504 344.863 254.259 347.173 253.923 350.439C253.597 353.598 253.393 355.222 250.821 357.086C247.988 359.14 244.572 358.902 241.073 358.857C236.456 358.798 232.109 359.418 229.995 355.313C228.728 352.851 229.276 351.522 229.552 349.109C229.933 345.789 230.165 343.364 232.654 341.134Z" stroke="#623800"/>
<path d="M236.284 338.652V320.042V176.036V141.475C236.284 141.475 232.019 130.98 226.536 126.853C221.026 122.706 209.698 121.535 209.698 121.535L174.25 117.104V119.32H142.791L141.461 117.991L106.014 119.763C106.014 119.763 93.5932 123.141 88.7329 129.068C84.9429 133.69 82.9727 143.247 82.9727 143.247L85.1881 341.311" stroke="#623800"/>
<path d="M85.6313 321.816L236.284 320.486" stroke="#623800"/>
<path d="M153.868 321.372V350.616" stroke="#623800"/>
<path d="M165.389 321.372V350.616" stroke="#623800"/>
<path d="M83.8589 172.492L236.727 171.163" stroke="#623800"/>
<path d="M83.8589 166.732L236.727 165.402" stroke="#623800"/>
<path d="M141.462 136.602C140.479 132.211 141.462 125.081 141.462 125.081L113.103 126.853V129.069C113.103 129.069 100.827 127.483 95.8227 132.171C90.9824 136.705 91.3917 148.565 91.3917 148.565H88.29V160.529H147.665V148.565C147.665 148.565 142.611 141.737 141.462 136.602Z" stroke="#623800"/>
<path d="M138.75 137.089C137.9 133.357 138.75 127.297 138.75 127.297L114.202 128.803V130.687C114.202 130.687 103.574 129.339 99.2422 133.323C95.0521 137.177 95.4065 147.258 95.4065 147.258H92.7214V157.427H144.121V147.258C144.121 147.258 139.745 141.455 138.75 137.089Z" stroke="#623800"/>
<path d="M176.909 137.044C177.892 132.653 176.909 125.523 176.909 125.523L205.267 127.296V129.511C205.267 129.511 217.544 127.926 222.548 132.613C227.388 137.147 226.979 149.008 226.979 149.008H230.081V160.971H170.706V149.008C170.706 149.008 175.76 142.18 176.909 137.044Z" stroke="#623800"/>
<path d="M179.62 137.532C180.471 133.8 179.62 127.739 179.62 127.739L204.169 129.246V131.129C204.169 131.129 214.797 129.781 219.129 133.765C223.319 137.619 222.964 147.701 222.964 147.701H225.649V157.87H174.25V147.701C174.25 147.701 178.626 141.897 179.62 137.532Z" stroke="#623800"/>
<path d="M21.8255 75.4571H11.6343L1 60.3918M1 60.3918V52.4161H12.9636C12.9636 52.4161 39.1252 31.6494 58.1594 22.2856C93.5772 4.86184 117.499 1.29862 156.97 1.01698C197.795 0.725683 222.804 4.03679 259.325 22.2856C275.983 30.6093 299.203 48.4282 299.203 48.4282H312.939V60.3918M1 60.3918H19.61C19.61 60.3918 44.2275 38.9265 62.5903 29.372C96.0404 11.9673 119.263 8.74258 156.97 8.98957C196.295 9.24717 219.497 15.339 254.894 32.4736C273.303 41.3849 299.203 60.3918 299.203 60.3918H312.939M312.939 60.3918L303.191 75.4571H293.443" stroke="#623800"/>
<path d="M46.6609 65.8867C46.6609 65.8867 75.4753 43.632 89.176 36.9055C114.871 24.2903 131.921 18.7368 160.514 20.0678C184.424 21.1808 197.558 27.2198 219.446 36.9055C234.893 43.7409 266.253 66.4875 266.253 66.4875" stroke="#623800"/>
<path d="M84.7451 323.143H62.1472L60.3748 177.365M79.4279 339.538L76.3605 165.844M76.3605 165.844L75.8832 138.815L82.9727 141.917M76.3605 165.844H82.9727V177.365H60.3748M76.3605 165.844H67.0213M60.3748 165.844H56.387V177.365H60.3748M60.3748 165.844V127.295C60.3748 127.295 72.6371 112.569 82.9727 106.469C101.646 95.4502 137.917 98.4938 137.917 98.4938V104.254C137.917 104.254 105.338 102.112 88.2899 111.787C78.6912 117.234 67.0213 130.397 67.0213 130.397V165.844M60.3748 165.844H67.0213" stroke="#623800"/>
<path d="M251.792 323.087H234.801M251.792 323.087L253.565 177.308M251.792 323.087V341.754M236.284 337.767L237.579 165.788M237.579 165.788V177.308H253.565M237.579 165.788H246.918M253.565 165.788H257.552V177.308H253.565M253.565 165.788V127.238C253.565 127.238 241.302 112.512 230.967 106.413C212.294 95.3936 176.023 98.4371 176.023 98.4371V104.197C176.023 104.197 208.601 102.055 225.65 111.73C235.248 117.177 246.918 130.34 246.918 130.34V165.788M253.565 165.788H246.918" stroke="#623800"/>
<path d="M144.563 88.7459C145.482 88.1266 146.335 86.5305 146.335 86.5305C146.335 86.5305 148.953 89.6283 151.21 89.6321C153.912 89.6367 156.527 85.2012 156.527 85.2012C156.527 85.2012 160.169 89.8534 162.73 88.7459C164.318 88.0591 165.389 85.2012 165.389 85.2012C165.389 85.2012 169.22 89.4275 172.478 89.6321C174.239 89.7427 176.909 88.7459 176.909 88.7459V93.1769H180.454L175.58 98.494V104.254L173.807 106.913C173.807 106.913 172.321 109.544 172.478 111.344C172.674 113.591 175.58 116.218 175.58 116.218L173.807 119.763H143.234L141.461 116.218C141.461 116.218 143.93 115.35 144.563 114.002C145.402 112.217 143.234 109.128 143.234 109.128L137.917 104.254V98.494L139.246 97.6079L135.258 91.8476C135.258 91.8476 138.29 93.0769 139.246 91.8476C139.99 90.8915 139.246 88.7459 139.246 88.7459C139.246 88.7459 142.841 89.9067 144.563 88.7459Z" stroke="#623800"/>
</g>
</svg>
