<svg width="297" height="206" viewBox="0 0 297 206" fill="none" xmlns="http://www.w3.org/2000/svg">
<path d="M1.71601 204.726C-0.832974 202.97 4.24439 200.906 4.24439 198.116C4.24439 195.326 1.14218 195.322 1.14218 192.532C1.14218 189.742 4.24439 189.738 4.24439 186.948C4.24439 184.158 1.14218 184.154 1.14218 181.364C1.14218 178.574 4.24439 178.57 4.24439 175.78C4.24439 172.99 1.14218 172.986 1.14218 170.196C1.14218 167.406 4.24439 167.401 4.24439 164.611C4.24439 161.822 1.14218 161.817 1.14218 159.027C1.14218 156.238 4.24439 156.233 4.24439 153.443C4.24439 150.653 1.14218 150.649 1.14218 147.859C1.14218 145.069 4.24439 145.065 4.24439 142.275C4.24439 139.485 1.14218 139.481 1.14218 136.691C1.14218 133.901 4.24439 133.897 4.24439 131.107C4.24439 128.317 1.14218 128.313 1.14218 125.523C1.14218 122.733 4.24439 122.728 4.24439 119.934C4.24439 117.14 1.14218 117.14 1.14218 114.35C1.14218 111.56 4.24439 111.556 4.24439 108.766C4.24439 105.976 1.14218 105.972 1.14218 103.182C1.14218 100.392 4.24439 100.392 4.24439 97.5977C4.24439 94.8034 1.14218 94.8035 1.14218 92.0136C1.14218 89.2237 4.24439 89.2238 4.24439 86.4295C4.24439 83.6352 1.14218 83.6353 1.14218 80.8454C1.14218 78.0556 4.24439 78.0512 4.24439 75.2569C4.24439 72.4627 1.14218 72.4626 1.14218 69.6727C1.14218 66.8829 4.24439 66.8785 4.24439 64.0886C4.24439 61.2988 1.14218 61.2944 1.14218 58.5001C1.14218 55.7059 4.24439 55.7059 4.24439 52.9116C4.24439 50.1174 1.14218 50.1173 1.14218 47.323C1.14218 44.5288 4.24439 44.5288 4.24439 41.7346C4.24439 38.9403 1.14218 38.9403 1.14218 36.1461C1.14218 33.3518 4.24439 33.3518 4.24439 30.562C4.24439 27.7721 1.14218 27.7677 1.14218 24.9735C1.14218 22.1792 4.24439 22.1791 4.24439 19.3849C4.24439 16.5906 1.14218 16.5906 1.14218 13.7964C1.14218 11.0021 4.24439 11.0021 4.24439 8.20348C4.24439 5.40482 -0.832974 3.34982 1.71601 1.58966C4.8596 -0.579745 6.74176 3.93511 10.7902 3.93511C14.8385 3.93511 14.8384 1.29486 18.8868 1.29486C22.9352 1.29486 22.9352 3.93511 26.9836 3.93511C31.032 3.93511 31.032 1.29486 35.0804 1.29486C39.1288 1.29486 39.1289 3.93511 43.1824 3.93511C47.236 3.93511 47.2308 1.29486 51.2792 1.29486C55.3276 1.29486 55.3275 3.93511 59.3811 3.93511C63.4347 3.93511 63.4296 1.29486 67.478 1.29486C71.5264 1.29486 71.5263 3.93511 75.5799 3.93511C79.6335 3.93511 79.6282 1.29486 83.6766 1.29486C87.725 1.29486 87.7251 3.93511 91.7787 3.93511C95.8322 3.93511 95.827 1.29486 99.8806 1.29486C103.934 1.29486 103.929 3.93511 107.977 3.93511C112.026 3.93511 112.026 1.29486 116.079 1.29486C120.133 1.29486 120.128 3.93511 124.181 3.93511C128.235 3.93511 128.23 1.29486 132.283 1.29486C136.337 1.29486 136.332 3.93511 140.385 3.93511C144.439 3.93511 144.434 1.29486 148.487 1.29486C152.541 1.29486 152.536 3.93511 156.589 3.93511C160.643 3.93511 160.638 1.29486 164.691 1.29486C168.745 1.29486 168.74 3.93511 172.793 3.93511C176.847 3.93511 176.841 1.29486 180.89 1.29486C184.938 1.29486 184.938 3.93511 188.992 3.93511C193.045 3.93511 193.04 1.29486 197.089 1.29486C201.137 1.29486 201.137 3.93511 205.185 3.93511C209.234 3.93511 209.234 1.29486 213.287 1.29486C217.341 1.29486 217.336 3.93511 221.389 3.93511C225.443 3.93511 225.438 1.29486 229.491 1.29486C233.545 1.29486 233.54 3.93511 237.593 3.93511C241.647 3.93511 241.642 1.29486 245.695 1.29486C249.749 1.29486 249.749 3.93511 253.797 3.93511C257.846 3.93511 257.846 1.29486 261.899 1.29486C265.953 1.29486 265.953 3.93511 270.001 3.93511C274.049 3.93511 274.055 1.29486 278.103 1.29486C282.151 1.29486 282.157 3.93511 286.205 3.93511C290.253 3.93511 292.135 -0.579745 295.284 1.58966C297.833 3.34542 292.756 5.40922 292.756 8.19907C292.756 10.9889 295.858 10.9933 295.858 13.7832C295.858 16.573 292.756 16.5775 292.756 19.3674C292.756 22.1572 295.858 22.1616 295.858 24.9515C295.858 27.7413 292.756 27.7457 292.756 30.5355C292.756 33.3254 295.858 33.3298 295.858 36.1196C295.858 38.9095 292.756 38.914 292.756 41.7038C292.756 44.4937 295.858 44.4981 295.858 47.2879C295.858 50.0778 292.756 50.0821 292.756 52.872C292.756 55.6619 295.858 55.6662 295.858 58.4561C295.858 61.246 292.756 61.2504 292.756 64.0403C292.756 66.8301 295.858 66.8345 295.858 69.6244C295.858 72.4142 292.756 72.4186 292.756 75.2085C292.756 77.9983 295.858 78.0027 295.858 80.7926C295.858 83.5824 292.756 83.5868 292.756 86.3811C292.756 89.1753 295.858 89.1754 295.858 91.9653C295.858 94.7551 292.756 94.7595 292.756 97.5493C292.756 100.339 295.858 100.344 295.858 103.133C295.858 105.923 292.756 105.923 292.756 108.718C292.756 111.512 295.858 111.512 295.858 114.302C295.858 117.092 292.756 117.092 292.756 119.886C292.756 122.68 295.858 122.68 295.858 125.47C295.858 128.26 292.756 128.264 292.756 131.058C292.756 133.853 295.858 133.853 295.858 136.643C295.858 139.432 292.756 139.437 292.756 142.227C292.756 145.017 295.858 145.021 295.858 147.815C295.858 150.609 292.756 150.609 292.756 153.404C292.756 156.198 295.858 156.198 295.858 158.992C295.858 161.786 292.756 161.787 292.756 164.581C292.756 167.375 295.858 167.375 295.858 170.169C295.858 172.964 292.756 172.963 292.756 175.753C292.756 178.543 295.858 178.548 295.858 181.342C295.858 184.136 292.756 184.136 292.756 186.93C292.756 189.725 295.858 189.725 295.858 192.519C295.858 195.313 292.756 195.313 292.756 198.112C292.756 200.91 297.833 202.965 295.284 204.726C292.141 206.895 290.259 202.38 286.21 202.38C282.162 202.38 282.162 205.02 278.113 205.02C274.065 205.02 274.065 202.38 270.017 202.38C265.968 202.38 265.968 205.02 261.92 205.02C257.871 205.02 257.871 202.38 253.818 202.38C249.764 202.38 249.769 205.02 245.721 205.02C241.673 205.02 241.673 202.38 237.619 202.38C233.566 202.38 233.571 205.02 229.522 205.02C225.474 205.02 225.474 202.38 221.42 202.38C217.367 202.38 217.372 205.02 213.324 205.02C209.275 205.02 209.275 202.38 205.222 202.38C201.168 202.38 201.173 205.02 197.12 205.02C193.066 205.02 193.071 202.38 189.023 202.38C184.974 202.38 184.974 205.02 180.921 205.02C176.867 205.02 176.873 202.38 172.819 202.38C168.765 202.38 168.771 205.02 164.717 205.02C160.663 205.02 160.669 202.38 156.615 202.38C152.561 202.38 152.567 205.02 148.513 205.02C144.46 205.02 144.465 202.38 140.411 202.38C136.358 202.38 136.363 205.02 132.309 205.02C128.256 205.02 128.261 202.38 124.207 202.38C120.159 202.38 120.159 205.02 116.11 205.02C112.062 205.02 112.062 202.38 108.008 202.38C103.955 202.38 103.96 205.02 99.9116 205.02C95.8633 205.02 95.8633 202.38 91.8149 202.38C87.7665 202.38 87.7664 205.02 83.7129 205.02C79.6593 205.02 79.6645 202.38 75.6109 202.38C71.5574 202.38 71.5626 205.02 67.509 205.02C63.4555 205.02 63.4605 202.38 59.407 202.38C55.3534 202.38 55.3586 205.02 51.3051 205.02C47.2515 205.02 47.2515 202.38 43.2031 202.38C39.1547 202.38 39.1547 205.02 35.1011 205.02C31.0475 205.02 31.0474 202.38 26.999 202.38C22.9506 202.38 22.9455 205.02 18.8971 205.02C14.8487 205.02 14.306 201.535 10.392 202.424C5.71285 203.489 4.85972 206.895 1.71097 204.726H1.71601Z" fill="#F0EFEA"/>
<path d="M1.71601 204.726C-0.832974 202.97 4.24439 200.906 4.24439 198.116C4.24439 195.326 1.14218 195.322 1.14218 192.532C1.14218 189.742 4.24439 189.738 4.24439 186.948C4.24439 184.158 1.14218 184.154 1.14218 181.364C1.14218 178.574 4.24439 178.57 4.24439 175.78C4.24439 172.99 1.14218 172.986 1.14218 170.196C1.14218 167.406 4.24439 167.401 4.24439 164.611C4.24439 161.822 1.14218 161.817 1.14218 159.027C1.14218 156.238 4.24439 156.233 4.24439 153.443C4.24439 150.653 1.14218 150.649 1.14218 147.859C1.14218 145.069 4.24439 145.065 4.24439 142.275C4.24439 139.485 1.14218 139.481 1.14218 136.691C1.14218 133.901 4.24439 133.897 4.24439 131.107C4.24439 128.317 1.14218 128.313 1.14218 125.523C1.14218 122.733 4.24439 122.728 4.24439 119.934C4.24439 117.14 1.14218 117.14 1.14218 114.35C1.14218 111.56 4.24439 111.556 4.24439 108.766C4.24439 105.976 1.14218 105.972 1.14218 103.182C1.14218 100.392 4.24439 100.392 4.24439 97.5977C4.24439 94.8034 1.14218 94.8035 1.14218 92.0136C1.14218 89.2237 4.24439 89.2238 4.24439 86.4295C4.24439 83.6352 1.14218 83.6353 1.14218 80.8454C1.14218 78.0556 4.24439 78.0512 4.24439 75.2569C4.24439 72.4627 1.14218 72.4626 1.14218 69.6727C1.14218 66.8829 4.24439 66.8785 4.24439 64.0886C4.24439 61.2988 1.14218 61.2944 1.14218 58.5001C1.14218 55.7059 4.24439 55.7059 4.24439 52.9116C4.24439 50.1174 1.14218 50.1173 1.14218 47.323C1.14218 44.5288 4.24439 44.5288 4.24439 41.7346C4.24439 38.9403 1.14218 38.9403 1.14218 36.1461C1.14218 33.3518 4.24439 33.3518 4.24439 30.562C4.24439 27.7721 1.14218 27.7677 1.14218 24.9735C1.14218 22.1792 4.24439 22.1791 4.24439 19.3849C4.24439 16.5906 1.14218 16.5906 1.14218 13.7964C1.14218 11.0021 4.24439 11.0021 4.24439 8.20348C4.24439 5.40482 -0.832974 3.34982 1.71601 1.58966C4.8596 -0.579745 6.74176 3.93511 10.7902 3.93511C14.8385 3.93511 14.8384 1.29486 18.8868 1.29486C22.9352 1.29486 22.9352 3.93511 26.9836 3.93511C31.032 3.93511 31.032 1.29486 35.0804 1.29486C39.1288 1.29486 39.1289 3.93511 43.1824 3.93511C47.236 3.93511 47.2308 1.29486 51.2792 1.29486C55.3276 1.29486 55.3275 3.93511 59.3811 3.93511C63.4347 3.93511 63.4296 1.29486 67.478 1.29486C71.5264 1.29486 71.5263 3.93511 75.5799 3.93511C79.6335 3.93511 79.6282 1.29486 83.6766 1.29486C87.725 1.29486 87.7251 3.93511 91.7787 3.93511C95.8322 3.93511 95.827 1.29486 99.8806 1.29486C103.934 1.29486 103.929 3.93511 107.977 3.93511C112.026 3.93511 112.026 1.29486 116.079 1.29486C120.133 1.29486 120.128 3.93511 124.181 3.93511C128.235 3.93511 128.23 1.29486 132.283 1.29486C136.337 1.29486 136.332 3.93511 140.385 3.93511C144.439 3.93511 144.434 1.29486 148.487 1.29486C152.541 1.29486 152.536 3.93511 156.589 3.93511C160.643 3.93511 160.638 1.29486 164.691 1.29486C168.745 1.29486 168.74 3.93511 172.793 3.93511C176.847 3.93511 176.841 1.29486 180.89 1.29486C184.938 1.29486 184.938 3.93511 188.992 3.93511C193.045 3.93511 193.04 1.29486 197.089 1.29486C201.137 1.29486 201.137 3.93511 205.185 3.93511C209.234 3.93511 209.234 1.29486 213.287 1.29486C217.341 1.29486 217.336 3.93511 221.389 3.93511C225.443 3.93511 225.438 1.29486 229.491 1.29486C233.545 1.29486 233.54 3.93511 237.593 3.93511C241.647 3.93511 241.642 1.29486 245.695 1.29486C249.749 1.29486 249.749 3.93511 253.797 3.93511C257.846 3.93511 257.846 1.29486 261.899 1.29486C265.953 1.29486 265.953 3.93511 270.001 3.93511C274.049 3.93511 274.055 1.29486 278.103 1.29486C282.151 1.29486 282.157 3.93511 286.205 3.93511C290.253 3.93511 292.135 -0.579745 295.284 1.58966C297.833 3.34542 292.756 5.40922 292.756 8.19907C292.756 10.9889 295.858 10.9933 295.858 13.7832C295.858 16.573 292.756 16.5775 292.756 19.3674C292.756 22.1572 295.858 22.1616 295.858 24.9515C295.858 27.7413 292.756 27.7457 292.756 30.5355C292.756 33.3254 295.858 33.3298 295.858 36.1196C295.858 38.9095 292.756 38.914 292.756 41.7038C292.756 44.4937 295.858 44.4981 295.858 47.2879C295.858 50.0778 292.756 50.0821 292.756 52.872C292.756 55.6619 295.858 55.6662 295.858 58.4561C295.858 61.246 292.756 61.2504 292.756 64.0403C292.756 66.8301 295.858 66.8345 295.858 69.6244C295.858 72.4142 292.756 72.4186 292.756 75.2085C292.756 77.9983 295.858 78.0027 295.858 80.7926C295.858 83.5824 292.756 83.5868 292.756 86.3811C292.756 89.1753 295.858 89.1754 295.858 91.9653C295.858 94.7551 292.756 94.7595 292.756 97.5493C292.756 100.339 295.858 100.344 295.858 103.133C295.858 105.923 292.756 105.923 292.756 108.718C292.756 111.512 295.858 111.512 295.858 114.302C295.858 117.092 292.756 117.092 292.756 119.886C292.756 122.68 295.858 122.68 295.858 125.47C295.858 128.26 292.756 128.264 292.756 131.058C292.756 133.853 295.858 133.853 295.858 136.643C295.858 139.432 292.756 139.437 292.756 142.227C292.756 145.017 295.858 145.021 295.858 147.815C295.858 150.609 292.756 150.609 292.756 153.404C292.756 156.198 295.858 156.198 295.858 158.992C295.858 161.786 292.756 161.787 292.756 164.581C292.756 167.375 295.858 167.375 295.858 170.169C295.858 172.964 292.756 172.963 292.756 175.753C292.756 178.543 295.858 178.548 295.858 181.342C295.858 184.136 292.756 184.136 292.756 186.93C292.756 189.725 295.858 189.725 295.858 192.519C295.858 195.313 292.756 195.313 292.756 198.112C292.756 200.91 297.833 202.965 295.284 204.726C292.141 206.895 290.259 202.38 286.21 202.38C282.162 202.38 282.162 205.02 278.113 205.02C274.065 205.02 274.065 202.38 270.017 202.38C265.968 202.38 265.968 205.02 261.92 205.02C257.871 205.02 257.871 202.38 253.818 202.38C249.764 202.38 249.769 205.02 245.721 205.02C241.673 205.02 241.673 202.38 237.619 202.38C233.566 202.38 233.571 205.02 229.522 205.02C225.474 205.02 225.474 202.38 221.42 202.38C217.367 202.38 217.372 205.02 213.324 205.02C209.275 205.02 209.275 202.38 205.222 202.38C201.168 202.38 201.173 205.02 197.12 205.02C193.066 205.02 193.071 202.38 189.023 202.38C184.974 202.38 184.974 205.02 180.921 205.02C176.867 205.02 176.873 202.38 172.819 202.38C168.765 202.38 168.771 205.02 164.717 205.02C160.663 205.02 160.669 202.38 156.615 202.38C152.561 202.38 152.567 205.02 148.513 205.02C144.46 205.02 144.465 202.38 140.411 202.38C136.358 202.38 136.363 205.02 132.309 205.02C128.256 205.02 128.261 202.38 124.207 202.38C120.159 202.38 120.159 205.02 116.11 205.02C112.062 205.02 112.062 202.38 108.008 202.38C103.955 202.38 103.96 205.02 99.9116 205.02C95.8633 205.02 95.8633 202.38 91.8149 202.38C87.7665 202.38 87.7664 205.02 83.7129 205.02C79.6593 205.02 79.6645 202.38 75.6109 202.38C71.5574 202.38 71.5626 205.02 67.509 205.02C63.4555 205.02 63.4605 202.38 59.407 202.38C55.3534 202.38 55.3586 205.02 51.3051 205.02C47.2515 205.02 47.2515 202.38 43.2031 202.38C39.1547 202.38 39.1547 205.02 35.1011 205.02C31.0475 205.02 31.0474 202.38 26.999 202.38C22.9506 202.38 22.9455 205.02 18.8971 205.02C14.8487 205.02 14.306 201.535 10.392 202.424C5.71285 203.489 4.85972 206.895 1.71097 204.726H1.71601Z" stroke="#F0EFEA" stroke-miterlimit="10"/>
</svg>
