<svg width="129" height="129" viewBox="0 0 129 129" fill="none" xmlns="http://www.w3.org/2000/svg">
<ellipse cx="33.4541" cy="32.6177" rx="33.4541" ry="32.6177" transform="matrix(0.461948 -0.886907 -0.886907 -0.461948 78.2151 107.646)" fill="#B30D3B"/>
<path d="M49.3628 90.8712C49.4477 90.8881 49.4818 90.9202 49.3628 90.8712Z" fill="#BD2B54"/>
<path d="M49.6627 36.5089C49.6831 36.4922 49.6946 36.4864 49.715 36.471C49.7877 36.4887 49.8526 36.5017 49.909 36.507L49.6627 36.5089Z" fill="#BD2B54"/>
<path d="M58.7064 31.6895C58.7283 31.6791 58.744 31.672 58.7647 31.6615C58.7659 31.6973 58.7851 31.7292 58.7064 31.6895Z" fill="#BD2B54"/>
<path d="M35.3115 56.3611C35.2868 56.4524 35.2589 56.4984 35.23 56.5289C35.2582 56.4811 35.2848 56.4312 35.3115 56.3611Z" fill="#BD2B54"/>
<path d="M68.9659 92.7051C68.9659 92.7051 68.9382 92.7069 68.9181 92.7081C68.954 92.6904 68.9912 92.6753 69.0272 92.6537L68.9659 92.7051Z" fill="#BD2B54"/>
<path d="M68.7347 92.6438C68.5056 92.7263 68.8133 92.7128 68.9193 92.7068C68.6715 92.8276 68.4109 92.8845 68.1385 92.8852C68.1325 92.8404 68.256 92.8045 68.3932 92.766C68.5299 92.7259 68.6821 92.6861 68.735 92.6433L68.7347 92.6438Z" fill="#BD2B54"/>
<path d="M95.2211 69.8821L95.1391 69.967C95.1684 69.9295 95.1952 69.9044 95.2211 69.8821Z" fill="#BD2B54"/>
<path d="M31.4997 53.9488C31.472 54.002 31.4459 54.0646 31.4193 54.1132C31.4484 54.0236 31.4752 53.9783 31.4997 53.9488Z" fill="#BD2B54"/>
<path d="M92.55 75.1207L92.3958 75.1055C92.4752 75.0856 92.5197 75.0964 92.55 75.1207Z" fill="#BD2B54"/>
<path d="M49.9072 36.5068L50.0014 36.5045C49.9732 36.5099 49.9417 36.5092 49.9072 36.5068Z" fill="#BD2B54"/>
<path d="M68.1089 32.2768C68.1248 32.2362 68.1563 32.2097 68.1899 32.1888C68.2017 32.1923 68.211 32.1945 68.2169 32.1957L68.1087 32.276L68.1089 32.2768Z" fill="#BD2B54"/>
<path d="M96.9811 69.3892C96.965 69.3815 96.9489 69.3686 96.9335 69.3495L97.0781 69.1619C97.045 69.2703 97.0126 69.3438 96.9814 69.3887L96.9811 69.3892Z" fill="#BD2B54"/>
<path d="M80.9913 37.6313C80.993 37.6517 81.0131 37.6817 81.0059 37.698C80.7791 37.6123 80.2424 37.29 79.5456 36.8874L79.5884 36.713C80.0634 37.0116 80.5331 37.3154 80.9918 37.6316L80.9913 37.6313Z" fill="#BD2B54"/>
<path d="M95.0209 46.0761C94.626 45.6723 94.2239 45.2811 93.8167 44.9034C94.5348 45.9982 95.1315 46.9746 95.651 47.8822C96.1687 48.7909 96.6152 49.6293 97.0101 50.4681C97.4053 51.3065 97.7544 52.1435 98.0612 53.052C98.3666 53.9605 98.6296 54.9416 98.8248 56.0654L98.8384 55.8024C98.8961 55.9597 98.9026 56.1105 98.9081 56.3582C98.9127 56.6061 98.9313 56.9469 98.9971 57.4877C99.0354 57.757 99.0731 58.0786 99.1404 58.4617C99.1979 58.8463 99.2781 59.2945 99.3641 59.8238C99.4136 60.0879 99.4488 60.3731 99.4986 60.6802C99.5231 60.8339 99.5485 60.9932 99.5752 61.1578C99.5888 61.2402 99.6028 61.3241 99.6174 61.4096C99.6244 61.4523 99.6325 61.4954 99.6384 61.5388C99.6436 61.5824 99.6494 61.6263 99.6553 61.671C99.7005 62.0257 99.7519 62.4044 99.8096 62.8111C99.8162 62.8619 99.8251 62.9134 99.8307 62.965C99.8363 63.0166 99.8411 63.0684 99.8467 63.1213C99.8576 63.2264 99.8687 63.3334 99.8798 63.4418C99.9032 63.6599 99.9273 63.8841 99.9523 64.1154L99.9873 64.1167C99.9782 64.3737 99.9046 64.3678 99.9667 64.8845C99.9429 64.6696 99.9251 64.4557 99.8949 64.2419L99.7998 63.6028C99.7487 63.9827 99.6849 64.3371 99.5995 64.7193C99.5602 64.9106 99.5222 65.1095 99.4885 65.3225C99.4713 65.4292 99.4571 65.54 99.4408 65.6548C99.4221 65.7692 99.4047 65.8886 99.3885 66.0133C99.4053 66.2292 99.4683 66.3101 99.522 66.3368C99.4951 66.5416 99.4709 66.7465 99.4417 66.9509L99.3391 67.5617C99.3041 67.7649 99.2719 67.9689 99.234 68.1713L99.1083 68.7766C99.1349 69.0385 99.1684 69.3034 99.1829 69.5661C99.0409 69.9247 98.8731 69.9925 98.7183 70.2236C98.643 70.3395 98.5616 70.4933 98.4877 70.745C98.4122 70.996 98.3499 71.346 98.2678 71.8455C98.2158 71.4366 98.0979 71.6628 97.9829 71.9523C97.9243 72.0971 97.8704 72.2593 97.8171 72.3653C97.7651 72.4713 97.7236 72.5237 97.7028 72.4525C97.7106 72.5598 97.6979 72.7961 97.6942 72.989C97.6689 73.0589 97.6416 73.1324 97.6141 73.2089C97.5837 73.2847 97.552 73.3643 97.5197 73.4462C97.4537 73.6092 97.3836 73.7824 97.3113 73.961C97.2375 74.1388 97.1544 74.3196 97.0736 74.5009C97.0325 74.5911 96.9915 74.6822 96.9507 74.7719C96.9069 74.8608 96.8643 74.949 96.8213 75.0364C96.4831 75.7356 96.1231 76.3345 95.9308 76.5454C95.9308 76.5454 95.9516 76.4757 95.9884 76.3513C96.0242 76.2265 96.0802 76.0491 96.1379 75.8285C96.1962 75.6082 96.2698 75.3511 96.3353 75.0644C96.3693 74.9218 96.4045 74.7732 96.441 74.6208C96.4755 74.4673 96.5072 74.3091 96.5408 74.1487C96.6102 73.8296 96.6665 73.4972 96.7213 73.1725C96.735 73.0914 96.7485 73.0107 96.7616 72.9305C96.7725 72.8498 96.7836 72.7699 96.7945 72.6905C96.8151 72.5324 96.8349 72.3771 96.8544 72.2275C96.8634 72.153 96.8723 72.0797 96.8812 72.0077C96.8889 71.9357 96.8942 71.8645 96.8999 71.796C96.9112 71.6584 96.9214 71.528 96.9296 71.4062C96.9457 71.1633 96.9558 70.9582 96.9481 70.8009C96.9108 70.9984 96.8712 71.1505 96.8427 71.2675C96.8135 71.3847 96.7913 71.466 96.7757 71.5183C96.7436 71.6237 96.7348 71.6132 96.7369 71.5442C96.74 71.4049 96.7905 71.0312 96.776 70.8645L96.8819 70.7833C96.9616 70.3086 96.9549 70.0609 96.9272 69.8711C96.8984 69.6808 96.8593 69.5501 96.882 69.3132C96.8985 69.3166 96.9149 69.3349 96.9324 69.3524L96.8923 69.4056C96.9185 69.4576 96.9493 69.4372 96.9802 69.3916C97.021 69.4129 97.0649 69.3773 97.1088 69.1209L97.0769 69.1647C97.1048 69.0688 97.137 68.9558 97.1602 68.8328C97.1839 68.71 97.2059 68.5793 97.2263 68.4516C97.2666 68.1959 97.2997 67.9515 97.3192 67.8032L97.1484 67.7694C97.2551 67.6094 97.3199 67.2308 97.3581 66.741C97.3748 66.4957 97.3713 66.2218 97.3697 65.9346C97.3679 65.7908 97.3647 65.6437 97.3612 65.4945C97.3539 65.3452 97.3407 65.1935 97.3298 65.0424C97.3047 64.739 97.2834 64.4357 97.2504 64.1438C97.2124 63.8526 97.1754 63.5722 97.1415 63.3143C97.1256 63.1866 97.1104 63.0637 97.096 62.9491C97.0773 62.8342 97.0605 62.7267 97.0457 62.6281C97.0168 62.4305 96.9978 62.2687 96.9938 62.153C96.8819 61.6921 96.8453 61.1775 96.8338 60.6287C96.8314 60.354 96.8128 60.0729 96.7882 59.7886C96.7816 59.7177 96.7753 59.6462 96.767 59.575C96.7573 59.5037 96.7469 59.4327 96.7352 59.3617C96.7118 59.2196 96.6845 59.0775 96.6511 58.936C96.4798 58.0293 96.362 57.8179 96.2693 57.719C96.1736 57.621 96.0914 57.6354 95.9203 57.206C95.8344 56.9333 95.8027 56.8096 95.8064 56.7687C95.811 56.7276 95.851 56.7692 95.9002 56.8319C95.9986 56.9559 96.1234 57.1637 96.0811 56.9371C95.9909 56.7226 95.895 56.5103 95.8026 56.2986L95.5093 55.6698C95.6949 56.4405 95.4821 56.0511 95.3801 55.9304C95.2113 55.3691 94.9096 54.6743 94.6518 54.077C94.3959 53.4788 94.1982 52.9693 94.2889 52.7366C93.9107 52.0377 93.6672 51.716 93.4979 51.485C93.4132 51.3695 93.3398 51.2799 93.2716 51.1801C93.2024 51.0811 93.1383 50.9723 93.0565 50.8252C93.2162 50.996 93.4624 51.3749 93.528 51.3474C93.113 50.8488 93.4287 51.0593 93.5737 51.2771C93.4359 50.8072 92.7238 49.7571 92.0107 48.8434C91.3041 47.9234 90.6092 47.1218 90.7059 46.9274L90.6494 46.9675C90.7486 46.6198 91.1884 46.7579 90.9132 46.1081L90.5392 45.8126C90.4339 45.6032 90.3269 45.3936 90.2183 45.1831C89.8598 44.8652 89.94 45.0953 89.9129 45.1162C89.3406 44.1428 88.2099 43.0546 87.2342 42.1314C87.7515 42.2878 88.2695 42.4602 88.7865 42.6496C88.3339 42.273 87.6709 41.7841 87.1195 41.3593C86.98 41.2542 86.8488 41.152 86.7299 41.055C86.612 40.9572 86.5008 40.8702 86.4107 40.7875C86.2293 40.6235 86.1182 40.489 86.1154 40.4058C85.8832 40.3192 85.6562 40.2302 85.4246 40.1486C84.9078 39.8716 84.576 39.6722 84.3616 39.5066C84.1443 39.3453 84.0436 39.2195 83.983 39.1113C83.8614 38.896 83.8986 38.7511 83.4853 38.5371L82.9333 38.3165L82.3796 38.1067L82.8513 38.429L83.317 38.7592C82.8118 38.4837 82.4505 38.3059 82.1078 38.1534C81.7657 38.0012 81.4424 37.8738 81.0113 37.7116C81.0126 37.709 81.0053 37.7019 81.0068 37.7001C81.0662 37.7233 81.1073 37.733 81.1237 37.7227L80.9922 37.6334C80.9503 37.4421 80.4971 37.0418 79.7906 36.6491C79.2826 36.3826 78.854 36.0996 78.3281 35.8101C77.802 35.5211 77.1778 35.2285 76.2753 34.9513L75.9837 34.4864L74.6329 34.0166L74.5306 34.223C74.8452 34.3746 75.2297 34.5664 75.6445 34.776C76.0604 34.9861 76.5097 35.2182 76.9648 35.4578C77.4196 35.698 77.8789 35.9482 78.3182 36.192C78.7565 36.4365 79.1737 36.6752 79.546 36.8905L79.5205 36.9968C79.0793 36.7442 78.6126 36.4609 78.1778 36.2046C77.7421 35.949 77.3384 35.7206 77.0275 35.5768C76.7099 35.4672 75.8342 35.3034 76.3229 35.7177L75.8451 35.2311C75.0597 34.8402 74.469 34.5469 73.9741 34.3001C73.4911 34.068 73.0981 33.8874 72.6952 33.7223C72.2927 33.5562 71.881 33.4015 71.3605 33.2265C70.8402 33.0522 70.2102 32.8553 69.3705 32.6361C69.4777 32.6322 69.5857 32.6268 69.6929 32.6255C69.0659 32.3294 68.427 32.0674 68.1913 32.1921C67.6933 32.0548 67.1873 31.9354 66.6884 31.8398C66.1896 31.7476 65.698 31.6779 65.2289 31.6348C64.2902 31.5531 63.4443 31.5788 62.8052 31.6913C62.7176 31.5964 62.629 31.5035 62.5391 31.4092C62.33 31.4055 62.0686 31.5122 61.8384 31.5651C61.6084 31.6265 61.4073 31.6334 61.3012 31.4495C61.154 31.4365 61.0062 31.4212 60.858 31.409L60.4138 31.3803C60.2739 31.3996 60.1468 31.4067 60.0246 31.4094C59.902 31.4104 59.7862 31.417 59.6669 31.423C59.6073 31.4264 59.5477 31.4311 59.4863 31.4381C59.4248 31.445 59.3633 31.4571 59.299 31.471C59.2343 31.4854 59.1681 31.5029 59.099 31.5247C59.0645 31.5359 59.0293 31.5474 58.993 31.561C58.9572 31.5761 58.9203 31.592 58.8835 31.6092L58.8801 31.6107C58.8432 31.6278 58.8046 31.646 58.7677 31.6658C58.766 31.6577 58.7682 31.6498 58.7701 31.6423C58.4644 31.7344 58.3101 31.7612 58.2278 31.7696C58.1453 31.7747 58.1349 31.7472 58.1186 31.7225C58.1025 31.6972 58.081 31.675 57.9759 31.6897C57.8718 31.7076 57.681 31.7498 57.3381 31.8945C57.1378 32.0546 56.9878 32.001 56.8022 31.9583C56.7091 31.9351 56.6067 31.911 56.4849 31.9106C56.3635 31.9116 56.2205 31.9294 56.0538 32.0114L55.7766 32.3229L55.6403 32.4772L55.5076 32.6373C55.3657 32.7264 55.2373 32.7998 55.1162 32.8614C55.0554 32.8921 54.9972 32.9215 54.9411 32.9494C54.8845 32.9771 54.829 33.0027 54.7748 33.0258C54.5571 33.1195 54.3513 33.1793 54.129 33.2544C53.9058 33.3264 53.6599 33.3971 53.3662 33.5208C53.2928 33.5507 53.2155 33.5832 53.1348 33.6184C53.0536 33.6534 52.9695 33.6914 52.8822 33.7369C52.7071 33.8262 52.5141 33.9276 52.3021 34.0516C52.1182 34.2052 51.9671 34.3518 51.8549 34.485C51.743 34.6176 51.6731 34.7429 51.6457 34.8416C51.5915 35.0406 51.7141 35.148 52.0497 35.1059C51.6001 35.1848 51.4854 35.1893 51.3562 35.2317C51.2279 35.2786 51.0828 35.3589 50.567 35.6149C50.5097 35.8383 50.6262 35.7892 50.906 35.7544C50.1895 36.478 50.3228 36.0039 49.7167 36.4707C49.6305 36.4492 49.5362 36.4209 49.4395 36.3932C49.3431 36.3664 49.2451 36.34 49.1514 36.3205C48.9632 36.2815 48.791 36.2718 48.6855 36.3434L48.8706 36.0879C48.7778 36.1376 48.6847 36.1891 48.5914 36.2424C48.498 36.2957 48.4044 36.3509 48.314 36.4122C48.1316 36.5329 47.9492 36.6625 47.7696 36.8015C47.5901 36.9404 47.4128 37.089 47.2393 37.2487C47.1959 37.2884 47.1527 37.3289 47.1103 37.3704C47.0691 37.4133 47.0285 37.4577 46.9878 37.5021C46.907 37.5912 46.8275 37.6829 46.7499 37.7782L46.8699 37.8569L46.062 38.5004L46.1364 38.673C45.7737 39.0003 45.4173 39.3355 45.0558 39.6667L45.1643 39.4908C45.099 39.5476 44.997 39.6374 44.8744 39.7482C44.8117 39.8026 44.7498 39.8677 44.683 39.9349C44.6169 40.0031 44.5475 40.0741 44.4768 40.1476C44.1949 40.4431 43.8976 40.7758 43.7118 41.044L43.8016 41.0921C43.5612 41.489 43.3057 41.8423 43.0301 42.1721C42.9612 42.2544 42.8913 42.3363 42.8204 42.4162C42.7491 42.4959 42.6835 42.5806 42.6129 42.6614C42.4734 42.8245 42.3301 42.9849 42.1824 43.1463C42.0347 43.3077 41.8839 43.4688 41.7292 43.6336C41.6501 43.7145 41.5785 43.8032 41.5029 43.8898C41.428 43.9774 41.3521 44.0658 41.2754 44.1557C41.1225 44.3358 40.9672 44.5218 40.8097 44.7171C40.7315 44.8147 40.6508 44.9136 40.5729 45.0171C40.498 45.1223 40.4222 45.2303 40.347 45.3411L40.6684 45.2202C40.4337 45.9389 40.3014 45.2128 39.9042 45.9955L40.0878 46.1665C39.9154 46.2819 39.7946 46.3917 39.7175 46.5048C39.6409 46.6182 39.6002 46.7301 39.5751 46.8417C39.525 47.0663 39.539 47.2937 39.4562 47.5487L39.3053 47.1714L39.0778 47.6132C39.0027 47.7612 38.9233 47.9062 38.8561 48.0576C38.4234 49.0666 38.8929 48.8397 39.1169 48.7862L38.5369 49.3076L38.7204 49.5674C38.5802 49.6444 38.5051 49.7189 38.4521 49.7933C38.3996 49.8679 38.3746 49.9445 38.3479 50.0345C38.2941 50.215 38.2362 50.4471 37.9455 50.8282C38.0085 50.9441 38.1708 50.7598 38.0694 51.0641C37.9794 51.1634 37.8991 51.2677 37.8149 51.3706L37.5648 51.6812L37.0609 52.3071L37.6094 51.5259L37.1817 51.4557C36.8363 51.8395 36.7044 52.1487 36.6203 52.4374C36.5423 52.7293 36.5018 52.9965 36.3162 53.3005L36.6122 52.8981C36.3518 53.4106 36.2561 53.6978 36.2073 53.9347C36.1635 54.1736 36.1716 54.3648 36.1066 54.6829C36.0998 54.469 36.0942 54.1394 35.8876 54.5585C35.7519 54.8716 35.9646 54.7823 35.9006 55.0997C35.7567 55.0903 35.5779 55.2667 35.4255 55.5418C35.282 55.8197 35.1617 56.1954 35.1145 56.5715C35.1554 56.574 35.1965 56.57 35.235 56.531C35.1356 56.6993 35.0372 56.7735 35.0039 57.1093L35.3592 57.0093C35.1984 57.1821 35.0566 57.3621 34.9058 57.5407C34.8803 57.9723 34.5037 58.5171 34.7207 58.5132L34.8425 58.2955L34.7493 58.6853C34.718 58.8151 34.6947 58.9471 34.6671 59.0775L34.5872 59.4703C34.561 59.6015 34.5321 59.7319 34.5108 59.8637L34.3718 60.6517C34.3288 60.915 34.2928 61.1788 34.2523 61.4421L34.4895 61.5267C34.2901 61.6527 34.2625 62.0884 34.2284 62.468C34.2204 62.5632 34.2107 62.6542 34.201 62.7375C34.1922 62.8206 34.1801 62.8948 34.1627 62.9546C34.1277 63.074 34.069 63.137 33.9663 63.0984C34.0068 63.2552 33.9977 63.4784 33.9735 63.7217C33.9546 63.9651 33.918 64.2285 33.892 64.463C33.8629 64.6972 33.8579 64.9037 33.8829 65.0303C33.9091 65.157 33.9714 65.2044 34.0969 65.1243C34.0912 65.2538 34.0837 65.3791 34.0749 65.5018C34.0703 65.5631 34.0655 65.6235 34.0609 65.6835C34.0571 65.7432 34.0535 65.8024 34.05 65.8603C34.0337 66.0934 34.0123 66.3166 33.9881 66.5339C33.9741 66.6429 33.966 66.7497 33.9557 66.8567C33.9449 66.9634 33.9347 67.0691 33.9239 67.1745C33.9037 67.3854 33.8749 67.5964 33.8637 67.8101C33.849 68.0239 33.8362 68.2419 33.8267 68.4681C33.8205 68.5811 33.8209 68.6963 33.8228 68.8135C33.8245 68.9313 33.8271 69.0508 33.8318 69.1741C33.8365 69.2973 33.8429 69.4233 33.8508 69.5528C33.8613 69.6823 33.8774 69.8147 33.8942 69.952C33.9112 70.0888 33.9308 70.2295 33.9534 70.3757C33.9736 70.5213 34.0044 70.6705 34.0384 70.8246C34.2934 71.2451 34.4616 72.0567 34.663 72.9467C34.6867 73.0584 34.7103 73.1714 34.7342 73.2851C34.7565 73.3993 34.7871 73.5114 34.8125 73.6259C34.8652 73.854 34.9175 74.0826 34.9692 74.3076C35.0901 74.7511 35.193 75.1858 35.3257 75.5569C35.3715 75.7444 35.4156 75.9278 35.4595 76.1078C35.5096 76.2859 35.559 76.4603 35.6075 76.6317C35.6316 76.7176 35.6554 76.8027 35.679 76.8871C35.6906 76.9295 35.7026 76.9715 35.714 77.0131C35.7275 77.0546 35.7404 77.0957 35.7537 77.1364C35.8063 77.3008 35.8583 77.463 35.9095 77.6228C36.0056 77.9456 36.1263 78.25 36.2338 78.556C36.2614 78.6327 36.2887 78.7086 36.3161 78.7846C36.3445 78.8597 36.3759 78.9339 36.4059 79.0086C36.4665 79.1577 36.5269 79.3061 36.5871 79.4549C36.8333 80.0481 37.1073 80.6318 37.4223 81.2375C37.4966 81.3917 37.5858 81.5395 37.6709 81.6929C37.7575 81.8458 37.845 82.0018 37.9351 82.1604C38.0284 82.3168 38.1286 82.4722 38.2285 82.6334C38.2789 82.7135 38.3293 82.795 38.3808 82.877C38.4069 82.9179 38.4328 82.9593 38.4586 83.0006C38.4863 83.041 38.5142 83.0809 38.5424 83.1216C38.7432 83.2696 38.9338 83.4397 39.1183 83.628C39.3097 83.8102 39.4974 84.0073 39.6791 84.2195C39.7682 84.3276 39.866 84.4291 39.9595 84.5376C40.0535 84.645 40.1468 84.7553 40.2399 84.8681C40.2869 84.9237 40.3321 84.9817 40.3796 85.0376C40.4281 85.0928 40.4769 85.1474 40.5255 85.2026C40.6218 85.3144 40.7186 85.4265 40.8159 85.5389L40.961 85.7092L41.1131 85.8722C41.2148 85.9811 41.3164 86.0892 41.4179 86.1972C41.469 86.2511 41.5196 86.3048 41.5703 86.3584C41.6212 86.4116 41.6763 86.4604 41.729 86.5113C41.8358 86.6117 41.9424 86.7101 42.0492 86.8066C42.2585 87.0046 42.4875 87.1732 42.71 87.3332C42.8226 87.4114 42.931 87.4912 43.0471 87.5575C43.1627 87.6236 43.2779 87.6855 43.3931 87.7423L43.5553 87.9956L43.6372 88.1227C43.6653 88.1646 43.6946 88.2045 43.7235 88.2462C43.8919 88.3008 44.0615 88.3716 44.234 88.4556C44.3206 88.4962 44.4051 88.5447 44.4956 88.5879C44.5855 88.6322 44.6764 88.6795 44.7673 88.7295C45.1302 88.9341 45.5202 89.1541 45.9253 89.3826C46.7438 89.8284 47.6631 90.265 48.6291 90.4513C49.0394 90.7085 49.2639 90.8261 49.3656 90.8713C49.2791 90.8516 49.1386 90.8446 49.0501 90.9647C49.1202 90.9772 49.1966 90.9962 49.2782 91.0192C49.3597 91.0409 49.4474 91.0645 49.5356 91.091C49.7122 91.1434 49.8949 91.2015 50.06 91.2486C50.2241 91.2976 50.3762 91.3236 50.4838 91.3264C50.5923 91.3277 50.6586 91.2999 50.6601 91.226L50.5327 91.1564C50.5345 91.082 50.6336 91.0837 50.7924 91.1267C50.9514 91.1693 51.1676 91.2579 51.4107 91.341C51.653 91.4256 51.9149 91.5237 52.1617 91.5847C52.4087 91.6452 52.6364 91.6807 52.8024 91.6574L52.3957 91.8735L52.9216 91.976L53.4507 92.0659L53.1835 91.9468C53.3207 91.9988 53.4559 92.0484 53.5899 92.0968C53.7233 92.1448 53.8549 92.1913 53.9867 92.2313C54.2491 92.3135 54.5039 92.3891 54.7534 92.4573C55.0043 92.5205 55.2483 92.5781 55.4868 92.6302C55.6059 92.6572 55.7242 92.6805 55.8413 92.7013C55.9587 92.7215 56.0741 92.7419 56.1884 92.7619C56.3027 92.7805 56.416 92.7999 56.5285 92.8157C56.6411 92.8302 56.7527 92.8441 56.863 92.858C57.0841 92.8836 57.3011 92.9109 57.5164 92.9263C57.7315 92.9435 57.9438 92.9586 58.1537 92.9731C58.3646 92.9823 58.5733 92.9917 58.7816 93.0008C59.615 93.029 60.4375 93.0406 61.3253 93.0653C62.2134 93.0921 63.1653 93.1457 64.2721 93.2475C63.9732 93.097 64.1914 93.1282 64.4891 93.1514C64.6383 93.1629 64.8074 93.1724 64.9419 93.156C65.0759 93.1382 65.1737 93.0924 65.1814 93.0003C65.3145 92.9319 65.4462 92.8797 65.5762 92.8409C65.7058 92.8026 65.8343 92.7767 65.9611 92.7576C66.2149 92.7204 66.4647 92.7284 66.7108 92.7494C66.9566 92.7677 67.1994 92.8052 67.4392 92.8385C67.6782 92.8695 67.9126 92.8909 68.1424 92.8885C68.1454 92.9063 68.1593 92.9259 68.2151 92.9459C68.736 92.8484 69.2558 92.7431 69.7704 92.6228C69.2618 92.4872 69.5595 92.5266 69.8692 92.5716C70.0246 92.5961 70.1827 92.6155 70.2432 92.619C70.3044 92.6224 70.2675 92.6097 70.035 92.56C71.0281 92.2616 72.0892 91.9474 73.182 91.5834C74.2751 91.2202 75.4007 90.8071 76.5147 90.3191C77.6286 89.8324 78.7324 89.2741 79.7787 88.6392C80.8258 88.0053 81.8126 87.2952 82.7076 86.5243L82.619 86.7457C82.8534 86.5587 83.0984 86.3538 83.3524 86.153C83.48 86.0538 83.6044 85.9472 83.7292 85.8434C83.8536 85.738 83.9779 85.6339 84.0999 85.5306C84.3374 85.3153 84.5678 85.1061 84.7668 84.8961C84.9638 84.6837 85.1374 84.4813 85.2651 84.2848C85.3915 84.087 85.5551 83.9125 85.7346 83.7573C85.9114 83.5987 86.102 83.457 86.2872 83.3334C86.4737 83.211 86.6456 83.0966 86.7927 83.0025C86.9391 82.9072 87.055 82.828 87.1189 82.7639C87.323 82.604 87.4945 82.4219 87.6329 82.2459C87.7708 82.0696 87.8701 81.8941 87.9389 81.7533C88.0744 81.4706 88.0757 81.3161 87.946 81.4914C88.3087 81.0855 88.7276 80.7413 89.1503 80.3251C89.3629 80.1189 89.5702 79.8892 89.7761 79.6322C89.8785 79.503 89.9758 79.3634 90.0731 79.2154C90.1688 79.0665 90.2657 78.9105 90.3522 78.738C90.3358 78.4106 90.9993 77.6055 91.5933 76.8103C92.1902 76.0185 92.7312 75.2529 92.5504 75.1224L92.591 75.1266C92.9514 74.1967 93.4571 73.3841 93.9674 72.544C94.4761 71.7044 94.9861 70.8362 95.3284 69.8125C95.3284 69.8125 95.2817 69.8349 95.2228 69.8867C96.2613 68.7795 97.2835 67.6398 98.2954 66.4837C98.5714 67.0671 98.8477 67.6538 99.1177 68.2425C98.9449 69.5779 98.7522 70.9178 98.5303 72.2653C96.8785 75.3941 95.0562 78.4802 92.9131 81.3855C92.7256 81.6931 92.5256 81.9948 92.3307 82.2991C92.1333 82.6021 91.9289 82.9022 91.7261 83.2031C91.3115 83.7995 90.8896 84.3941 90.4428 84.975C89.5546 86.1391 88.6034 87.2723 87.5686 88.3451L87.0669 88.8033L86.5526 89.2497C86.3827 89.4002 86.2056 89.5431 86.0304 89.6875C85.8539 89.8306 85.6814 89.9785 85.4999 90.1164C84.788 90.684 84.0422 91.2131 83.2831 91.7243C82.8983 91.9706 82.5173 92.2234 82.1232 92.4539L81.8299 92.6304L81.6835 92.7184L81.5345 92.8025L80.938 93.1373C80.7393 93.2494 80.5354 93.3504 80.3343 93.4573L80.0318 93.6154C79.9312 93.6688 79.8279 93.7163 79.7259 93.7664L79.1122 94.0644L78.4914 94.3449C75.1707 95.8219 71.6514 96.7514 68.1072 97.2113L67.3281 97.1412L67.1341 97.1233L66.9405 97.1011L66.5538 97.0568C65.5291 97.3049 64.4111 97.4441 63.2495 97.4949C62.0874 97.5468 60.8819 97.5098 59.6737 97.4169C58.465 97.3251 57.2534 97.1791 56.0664 97.0206C54.8786 96.8623 53.7194 96.6917 52.5915 96.5569L52.561 96.2565C52.2528 96.1837 52.0239 96.1443 51.85 96.1167C51.6758 96.0896 51.5558 96.083 51.4644 96.0853C51.2811 96.0906 51.2117 96.1317 51.0524 96.1182C49.614 95.743 48.1811 95.2837 46.7768 94.7133C45.3727 94.145 43.9959 93.4708 42.6787 92.6795C41.3618 91.889 40.1038 90.9805 38.946 89.958C37.7883 88.9368 36.7398 87.8154 35.8043 86.6281C33.9312 84.2511 32.5089 81.6219 31.4763 78.9366C30.9596 77.5934 30.5396 76.2305 30.2076 74.8718C29.8751 73.5141 29.6283 72.1602 29.4487 70.8231C29.4135 70.6963 29.3798 70.5353 29.3481 70.3493C29.3177 70.1633 29.2818 69.953 29.2618 69.7257C29.2391 69.4989 29.2176 69.2559 29.1972 69.0057C29.1921 68.9433 29.1872 68.8803 29.1818 68.8171C29.1785 68.7537 29.1751 68.6903 29.1721 68.6263C29.1657 68.499 29.1598 68.3706 29.1537 68.2427C29.0998 67.2204 29.1082 66.228 29.0238 65.8165C29.0383 65.7078 29.0524 65.5983 29.0666 65.4888C29.0808 65.3793 29.0991 65.2706 29.115 65.1614C29.1462 64.9432 29.1779 64.724 29.2096 64.5048C29.2369 64.2853 29.2774 64.0667 29.3104 63.8475C29.3434 63.6283 29.3772 63.4089 29.4102 63.1884C29.447 62.9693 29.4842 62.7497 29.5213 62.53C29.5576 62.3106 29.5906 62.0901 29.6331 61.8714C29.7146 61.4333 29.7855 60.9929 29.8762 60.557L30.0027 59.9014C30.049 59.684 30.0954 59.4666 30.1415 59.2497C30.228 58.8142 30.3338 58.3842 30.4309 57.9536C30.4769 57.7379 30.5355 57.5256 30.5901 57.3125C30.6451 57.0996 30.6997 56.8877 30.7542 56.6758C30.8087 56.4639 30.8621 56.2528 30.9161 56.0419C30.9413 55.9362 30.975 55.833 31.005 55.7292C31.0358 55.6251 31.0669 55.5218 31.0975 55.4182L31.0286 55.5343L31.2953 54.7654L31.4284 54.3814L31.4952 54.1896L31.5692 54.0002C31.5698 53.9278 31.5403 53.9085 31.502 53.9509C31.7154 53.5386 31.9207 53.056 32.1195 52.5296C32.3334 52.0092 32.5516 51.4481 32.7606 50.8686C32.9849 50.2945 33.2136 49.7084 33.4374 49.1354L33.4791 49.0278L33.5244 48.9222C33.5544 48.8521 33.5852 48.7818 33.6149 48.7122C33.6752 48.5728 33.7349 48.4344 33.7939 48.2976C33.9135 48.0242 34.0305 47.7572 34.1435 47.4992L34.0568 47.6021L34.1938 47.3266L34.3407 47.057C34.4392 46.8778 34.5373 46.6983 34.6358 46.5191C34.7343 46.3399 34.8331 46.1615 34.9314 45.9828L35.0793 45.715C35.1305 45.6267 35.1844 45.5406 35.2364 45.4533C35.4479 45.1057 35.6585 44.7589 35.8695 44.4123L36.0278 44.1532C36.081 44.0672 36.1393 43.984 36.1943 43.8996C36.3066 43.7314 36.4189 43.5633 36.5311 43.3951C37.4149 42.0424 38.4024 40.7748 39.4158 39.5435C39.6781 39.2431 39.9399 38.9424 40.202 38.6425C40.334 38.4938 40.4615 38.3413 40.5971 38.1957L41.0076 37.7628C41.2816 37.4749 41.5553 37.1876 41.8287 36.9008C42.1136 36.6245 42.3982 36.3486 42.6825 36.0733L43.1092 35.6605C43.2549 35.5266 43.4038 35.3964 43.5513 35.2641C43.8468 35.0011 44.1422 34.7381 44.4374 34.4756C44.5099 34.4088 44.5879 34.3475 44.6642 34.2846L44.8937 34.097L45.3523 33.7215C45.6583 33.4718 45.9608 33.219 46.2782 32.981C46.5896 32.7373 46.9121 32.5047 47.2315 32.2691C47.3924 32.1522 47.5566 32.039 47.719 31.9242L47.9629 31.7526L48.2112 31.5851L48.7095 31.2518L49.2172 30.9292C49.3851 30.8199 49.5576 30.7169 49.7309 30.6136C49.9039 30.5109 50.0744 30.4042 50.2502 30.3048L50.7783 30.0065L50.9106 29.9319L51.0452 29.8605L51.315 29.7179C51.6714 29.5236 52.0416 29.3489 52.4076 29.1674C52.5927 29.08 52.7808 28.9969 52.9675 28.9116L53.2485 28.7846L53.5344 28.6659C53.7258 28.5877 53.9147 28.5056 54.1084 28.4305L54.6921 28.2111L54.838 28.1566L54.9862 28.1065L55.2836 28.0068C55.4823 27.9408 55.6789 27.8712 55.8823 27.8148L56.4881 27.6367C56.6922 27.5827 56.8981 27.5328 57.1032 27.4805C57.2064 27.4557 57.3081 27.4275 57.4121 27.405L57.7249 27.3393L58.0381 27.2739C58.1423 27.2522 58.247 27.2295 58.3524 27.2129C58.7728 27.1377 59.1955 27.0728 59.6201 27.0232C61.3182 26.8199 63.0365 26.8187 64.7317 26.9764C66.3186 27.0528 67.938 27.356 69.5297 27.8221C71.1233 28.2872 72.6923 28.9102 74.2265 29.6178C74.4175 29.7075 74.6092 29.7969 74.8006 29.8869C74.991 29.9789 75.1811 30.0715 75.372 30.1638C75.5614 30.2578 75.7504 30.3524 75.9408 30.447C76.1257 30.5407 76.3104 30.635 76.4959 30.729C77.2004 31.0882 77.9453 31.4547 78.6972 31.8301C80.2053 32.5825 81.7512 33.3798 83.2848 34.2293C83.3624 34.2561 83.4807 34.3144 83.6365 34.3969C83.7144 34.4381 83.8004 34.4862 83.8958 34.5398C83.9908 34.5944 84.093 34.6561 84.2037 34.7228C84.6463 34.9891 85.2058 35.3584 85.8334 35.8106C86.4606 36.2633 87.1555 36.8018 87.861 37.4083C88.5674 38.0145 89.2861 38.6869 89.971 39.3917C90.6567 40.0963 91.3078 40.8335 91.894 41.5544C92.0391 41.7359 92.182 41.9155 92.3223 42.0911C92.4582 42.2704 92.5918 42.4465 92.7221 42.6189C92.7549 42.6619 92.7871 42.7047 92.8194 42.7475C92.8494 42.7884 92.8794 42.8294 92.9096 42.8698C92.9688 42.9507 93.027 43.031 93.0847 43.1097C93.2008 43.2708 93.3133 43.4275 93.4221 43.579C93.8583 44.1939 94.226 44.7484 94.4984 45.1831C94.7714 45.6175 94.9507 45.933 95.0215 46.0751L95.0209 46.0761Z" fill="#BD2B54"/>
<path d="M99.5209 66.3348L99.528 66.2799C99.6483 66.295 99.5938 66.3721 99.5209 66.3348Z" fill="#BD2B54"/>
<path d="M87.171 42.0737C87.1921 42.0932 87.2127 42.1123 87.2323 42.131L86.8891 42.029L87.171 42.0737Z" fill="#BD2B54"/>
<path d="M95.5122 56.6025C95.4584 56.4209 95.4181 56.2821 95.3876 56.1784C95.3578 56.0744 95.3406 56.0049 95.3328 55.9598C95.3175 55.8705 95.3411 55.8828 95.3783 55.9276C95.4172 56.0591 95.4507 56.1833 95.4749 56.2968C95.4983 56.4105 95.5101 56.5142 95.5125 56.602L95.5122 56.6025Z" fill="#BD2B54"/>
<path d="M97.8327 73.0202C97.7692 73.2319 97.7321 73.2918 97.7125 73.2647C97.6939 73.2381 97.6904 73.124 97.6929 72.9882C97.769 72.7772 97.8333 72.5977 97.8789 72.4715C97.9013 72.4085 97.9191 72.358 97.931 72.324C97.9424 72.2896 97.9484 72.2707 97.9484 72.2707C97.9019 72.5146 97.884 72.7683 97.8327 73.0202Z" fill="#BD2B54"/>
<path d="M96.7746 70.8616C96.7322 70.8955 96.6901 70.9289 96.6457 70.9617C96.7336 70.7303 96.7633 70.7483 96.7746 70.8616Z" fill="#BD2B54"/>
<path d="M63.5527 52.224C63.4844 52.1984 63.5049 52.2132 63.5527 52.224Z" fill="#DED2C2"/>
<path d="M67.7393 67.7476C67.7302 67.7508 67.7256 67.7513 67.7168 67.754C67.6928 67.737 67.6723 67.7222 67.6536 67.7121L67.7397 67.7479L67.7393 67.7476Z" fill="#DED2C2"/>
<path d="M64.3388 68.0232C64.3522 68.0284 64.3614 68.0316 64.3735 68.0367C64.3638 68.0472 64.3625 68.0632 64.3388 68.0232Z" fill="#DED2C2"/>
<path d="M70.1284 63.3119C70.143 63.2863 70.151 63.2761 70.1637 63.2696C70.152 63.281 70.1427 63.2932 70.1284 63.3119Z" fill="#DED2C2"/>
<path d="M54.6738 56.0127C54.6738 56.0127 54.6836 56.0008 54.6907 55.9921C54.6823 56.0126 54.6723 56.0321 54.6646 56.0537L54.6738 56.0127Z" fill="#DED2C2"/>
<path d="M54.7771 55.9354C54.8433 55.8178 54.7277 55.9453 54.691 55.9909C54.749 55.8504 54.8407 55.7325 54.9415 55.62C54.9701 55.6429 54.7948 55.8662 54.7771 55.9354Z" fill="#DED2C2"/>
<path d="M58.788 71.0721L58.7288 71.0616C58.7527 71.0638 58.7713 71.0675 58.788 71.0721Z" fill="#DED2C2"/>
<path d="M71.1182 64.899C71.1515 64.8716 71.1877 64.8398 71.2181 64.8126C71.171 64.8633 71.1407 64.8849 71.1182 64.899Z" fill="#DED2C2"/>
<path d="M55.8185 70.6328L55.8123 70.567C55.8287 70.6009 55.8276 70.6198 55.8185 70.6328Z" fill="#DED2C2"/>
<path d="M67.6544 67.7133L67.6228 67.7004C67.6326 67.7026 67.6429 67.7073 67.6544 67.7133Z" fill="#DED2C2"/>
<path d="M69.1986 71.1979C69.2107 71.1848 69.2295 71.1808 69.2492 71.1796C69.2551 71.1835 69.26 71.1867 69.263 71.1887L69.1986 71.1979Z" fill="#DED2C2"/>
<path d="M58.1518 68.6153C58.145 68.6171 58.1368 68.6167 58.1263 68.6134C58.1273 68.6098 58.1279 68.6067 58.1287 68.6044C58.1355 68.6047 58.1173 68.6089 58.109 68.6077C58.0954 68.6059 58.0961 68.6091 58.0907 68.6056C58.09 68.6045 58.0873 68.6033 58.0907 68.6056C58.092 68.6079 58.0901 68.6066 58.0921 68.6121C58.0946 68.6222 58.0922 68.627 58.0909 68.6408C58.0886 68.6604 58.0894 68.6539 58.0886 68.6562C58.0883 68.6567 58.0904 68.6588 58.091 68.6599L58.125 68.6982C58.1142 68.6912 58.104 68.6852 58.0943 68.6796C58.0914 68.6777 58.0884 68.6758 58.0855 68.6738C58.085 68.6735 58.084 68.6729 58.0845 68.6732L58.0864 68.6681L58.0889 68.6557C58.0903 68.6482 58.0907 68.6379 58.0916 68.6322C58.0927 68.6273 58.093 68.6225 58.0928 68.6175C58.0921 68.6121 58.0902 68.6074 58.0914 68.6067C58.092 68.6057 58.0877 68.6015 58.0899 68.6036C58.0918 68.6049 58.0943 68.6065 58.0964 68.6065C58.0977 68.6067 58.0985 68.6065 58.0997 68.6058L58.108 68.6071C58.1188 68.6078 58.129 68.606 58.1385 68.6024C58.1399 68.6012 58.1445 68.6007 58.1482 68.6003L58.1539 68.5991L58.1533 68.6001C58.151 68.6014 58.1532 68.6099 58.1529 68.6146L58.1518 68.6153Z" fill="#DED2C2"/>
<path d="M74.6745 75.9943C74.6677 76.0004 74.6628 76.0154 74.6555 76.017C74.6513 75.9911 74.6404 75.9551 74.6326 75.91C74.6265 75.8646 74.6116 75.812 74.5989 75.7518C74.5938 75.721 74.5827 75.6907 74.5733 75.6578C74.5638 75.625 74.556 75.5918 74.5401 75.5505C74.5262 75.5105 74.5116 75.4694 74.497 75.4261C74.4812 75.3836 74.4616 75.3405 74.444 75.2954L74.4998 75.2454C74.5228 75.3103 74.5513 75.3731 74.5693 75.439C74.5879 75.5031 74.6135 75.5725 74.6239 75.6298C74.6553 75.7472 74.6662 75.8715 74.6758 75.9944L74.6745 75.9943Z" fill="#DED2C2"/>
<path d="M67.9426 76.7076C68.2145 76.8204 68.4867 76.9315 68.7603 77.0406C67.5809 76.2903 66.7174 75.749 65.9016 75.2248C65.0876 74.699 64.3253 74.1866 63.3875 73.4578L63.477 73.5584C63.3265 73.4728 63.2566 73.3366 62.809 72.9854C62.3621 72.634 61.5362 72.0673 59.8902 71.0981L59.8825 71.1099C59.7772 71.0292 59.7946 71.0069 59.5605 70.8815L60.1411 71.2001C59.8456 70.9384 59.6086 70.6797 59.1939 70.362C59.0952 70.3088 59.0474 70.3099 59.0254 70.3222C58.6874 70.0643 58.3466 69.8032 58.0181 69.5642C57.9591 69.5418 57.9001 69.5201 57.8453 69.5019C57.792 69.4847 57.7342 69.4666 57.7105 69.4708L57.7101 69.4691L57.7104 69.4686L57.7095 69.468L57.726 69.4373C57.7697 69.3585 57.8082 69.2888 57.8453 69.2147C57.8837 69.1365 57.9137 69.0831 57.9418 69.0228C57.9669 68.9682 57.9913 68.9147 58.0153 68.8629C58.0252 68.8392 58.0351 68.8154 58.0433 68.792C58.0516 68.7708 58.059 68.7552 58.0651 68.736C58.0713 68.719 58.076 68.6968 58.0805 68.6835C58.0846 68.6708 58.0877 68.6574 58.0892 68.6443C58.0934 68.6218 58.0906 68.6066 58.0873 68.6052C58.0911 68.6091 58.0941 68.6089 58.0995 68.6082C58.1091 68.6095 58.1184 68.6093 58.1277 68.6069C58.1326 68.6059 58.1351 68.6041 58.1412 68.6024C58.1482 68.6013 58.155 68.5995 58.1615 68.5981C58.1748 68.5949 58.188 68.5908 58.2005 68.5857C58.2213 68.5754 58.2595 68.5631 58.2894 68.5496C58.3222 68.5359 58.3472 68.5213 58.3822 68.5042C58.4178 68.4874 58.4516 68.4701 58.4851 68.452C58.5551 68.4126 58.6225 68.3738 58.6893 68.336C58.7237 68.3156 58.7573 68.2954 58.7899 68.2745C58.8064 68.2642 58.8216 68.2538 58.8398 68.2432L58.885 68.2159C58.8678 68.2327 58.8651 68.2744 58.8774 68.3233C58.8907 68.374 58.9231 68.4394 58.9978 68.5282C59.0725 68.6171 59.1904 68.7312 59.3787 68.8689C59.2058 68.7981 59.2735 68.8922 59.3747 68.9997C59.4754 69.1068 59.6099 69.2214 59.5431 69.2108C59.5906 69.2284 59.6903 69.2767 59.7725 69.31C59.8804 69.3965 60.0142 69.498 60.161 69.598C60.3078 69.698 60.4673 69.7958 60.6255 69.8837C60.7849 69.973 60.9387 70.0482 61.0979 70.1324C61.1391 70.1544 61.1794 70.1765 61.2258 70.2033C61.2704 70.2296 61.3206 70.2603 61.3822 70.3068C61.4103 70.3272 61.4491 70.3603 61.4822 70.3924C61.5036 70.4134 61.5231 70.4352 61.541 70.4561C61.5493 70.465 61.5619 70.4823 61.5719 70.4959C61.5822 70.5104 61.5924 70.5248 61.6019 70.5394C61.6191 70.5646 61.6412 70.6072 61.6567 70.6426C61.6648 70.6612 61.6719 70.6784 61.6786 70.6983C61.6855 70.7189 61.6911 70.7394 61.6962 70.7596C61.7167 70.8411 61.7188 70.9163 61.7141 70.9848C61.7141 70.9848 61.7151 70.9672 61.7136 70.9318C61.7118 70.8969 61.7095 70.8456 61.6908 70.7786C61.6731 70.7088 61.6419 70.6371 61.5963 70.5673C61.5766 70.5383 61.5515 70.5058 61.5266 70.4783C61.5053 70.456 61.4796 70.4308 61.4555 70.4108C61.3621 70.3344 61.2871 70.3009 61.2201 70.2712C61.1529 70.2428 61.0919 70.2233 61.0301 70.204C60.9066 70.1662 60.7787 70.1319 60.6413 70.0885C60.5036 70.0457 60.3575 69.9952 60.2081 69.9356C59.9089 69.8175 59.5989 69.6587 59.3324 69.5001C59.0652 69.3426 58.8432 69.1878 58.7065 69.0993C58.862 69.245 58.9544 69.3229 58.9969 69.3633C59.0397 69.4032 59.0343 69.4039 59.0028 69.3854C58.9395 69.349 58.7779 69.2287 58.7021 69.1835L58.686 69.1189C58.4963 68.9459 58.3927 68.8656 58.3106 68.8085C58.2697 68.7797 58.2346 68.7561 58.1993 68.7274C58.1813 68.7129 58.1644 68.6969 58.1468 68.6777C58.1301 68.6591 58.1106 68.6351 58.1006 68.6117C58.1066 68.61 58.1173 68.6142 58.1263 68.6144C58.1265 68.6237 58.1266 68.6343 58.1285 68.6454C58.1529 68.6585 58.1542 68.6404 58.1512 68.616C58.1561 68.615 58.1595 68.613 58.1621 68.609C58.1634 68.6071 58.1647 68.6051 58.165 68.6025C58.1651 68.5991 58.1664 68.5971 58.1672 68.5969C58.1716 68.5956 58.156 68.6001 58.1473 68.6015C58.135 68.6033 58.1327 68.6067 58.1244 68.6076C58.1171 68.6091 58.1091 68.6095 58.1011 68.6078C58.095 68.6074 58.0938 68.6094 58.0896 68.606C58.087 68.6036 58.0896 68.606 58.0906 68.6066C58.0915 68.6086 58.0906 68.6087 58.0917 68.6115C58.0942 68.6195 58.0938 68.6276 58.0914 68.6366C58.0906 68.6508 58.0884 68.6649 58.0837 68.6786C58.0826 68.6814 58.0811 68.6868 58.0802 68.6883L58.0816 68.6892C58.0892 68.6927 58.1133 68.7043 58.1423 68.719L58.1245 68.6989C58.2101 68.7527 58.3346 68.8375 58.4526 68.916C58.5711 68.9947 58.6842 69.07 58.7528 69.1155L58.7968 69.0599C59.0355 69.3934 61.0328 70.4473 61.4587 70.75C61.9361 70.9879 62.398 71.4615 62.9575 71.8071C63.8217 72.3958 63.4433 72.0266 63.9065 72.2799C64.4676 72.6209 63.7505 72.2714 63.9624 72.4266L64.6615 72.7959C64.2926 72.5284 64.5197 72.6345 64.6041 72.6601C65.166 73.0396 66.1216 73.5314 66.2155 73.7641C67.0118 74.2158 67.0461 74.1666 67.3762 74.3751C67.2523 74.3251 67.0221 74.2022 67.0047 74.2245C67.3439 74.373 67.1423 74.3333 67.0094 74.2627C67.2251 74.4421 67.866 74.7833 68.4588 75.093C69.0508 75.4037 69.594 75.6818 69.6045 75.7786L69.619 75.7543C69.6703 75.9198 69.4338 75.91 69.7356 76.164L69.9855 76.2513L70.2984 76.4906C70.5441 76.5886 70.4477 76.4975 70.4549 76.4854C70.7176 76.666 71.0502 76.8502 71.4046 77.0281C71.7543 77.2045 72.1197 77.3601 72.4577 77.4769C72.1843 77.488 71.899 77.4745 71.6104 77.4476C71.9146 77.5613 72.3484 77.6928 72.7131 77.7623C72.8956 77.7979 73.0599 77.8216 73.1848 77.8378C73.3091 77.8551 73.3947 77.8681 73.4229 77.8949C73.5415 77.8649 73.6528 77.8245 73.752 77.7748C73.8783 77.7309 73.9701 77.6827 74.0428 77.6402C74.0797 77.6201 74.1094 77.5974 74.1386 77.5806C74.1664 77.5595 74.1914 77.5406 74.215 77.5259C74.227 77.5183 74.2384 77.5116 74.2492 77.5047C74.2594 77.4966 74.269 77.4895 74.2782 77.4829C74.2967 77.4696 74.3144 77.4587 74.3307 77.4497C74.3647 77.4333 74.3886 77.4159 74.4138 77.4064C74.438 77.3962 74.4608 77.3893 74.4827 77.3826C74.5047 77.3758 74.523 77.366 74.5433 77.3533C74.5636 77.3405 74.5846 77.3233 74.6078 77.2985C74.629 77.2715 74.6496 77.2345 74.673 77.1858C74.7341 77.0115 74.7641 76.8289 74.7689 76.6474C74.7277 76.8192 74.6637 76.9817 74.5776 77.1243C74.5919 77.0971 74.6007 77.0663 74.6125 77.0396C74.6224 77.0116 74.6355 76.9872 74.6416 76.9596C74.6492 76.9329 74.6566 76.9076 74.6632 76.8824C74.667 76.8701 74.67 76.858 74.6738 76.8458C74.6763 76.8333 74.6783 76.8206 74.6804 76.8087C74.7012 76.7134 74.709 76.6251 74.7136 76.5417C74.7205 76.3742 74.7024 76.2156 74.6528 76.0196C74.6541 76.0197 74.6544 76.015 74.6557 76.0152C74.6618 76.0423 74.668 76.0597 74.6751 76.0629L74.6747 75.9925C74.6874 75.9762 74.6966 75.9471 74.7042 75.9064C74.7076 75.8861 74.7108 75.8629 74.7122 75.8372C74.7119 75.8117 74.7112 75.7838 74.7094 75.7532C74.7086 75.6909 74.693 75.6245 74.6768 75.5472C74.6509 75.4664 74.6275 75.3753 74.5848 75.2835C74.4679 75.0239 74.3576 74.7904 74.1858 74.5385C74.0123 74.2911 73.7719 74.0204 73.3761 73.7662C73.3415 73.6868 73.3054 73.6077 73.266 73.5293L72.5916 73.1424L72.5377 73.2196C72.6957 73.3283 72.8906 73.4654 73.0987 73.6146C73.2774 73.7432 73.468 73.9105 73.6454 74.0937C73.8215 74.2789 73.9844 74.4822 74.1203 74.6882C74.2562 74.8942 74.3638 75.1027 74.4442 75.2936L74.4102 75.324C74.3166 75.1007 74.1963 74.8655 74.0615 74.6589C73.9279 74.4516 73.7812 74.273 73.6602 74.156C73.597 74.1022 73.4707 74.0225 73.383 73.9912C73.2949 73.9604 73.2496 73.9729 73.3375 74.0942C73.2839 74.0031 73.225 73.9148 73.1641 73.8273C73.1236 73.7959 73.0844 73.7654 73.0465 73.7386C73.0255 73.7234 73.005 73.7086 72.9844 73.6938C72.9619 73.6777 72.9391 73.6621 72.9171 73.6464C72.8288 73.5838 72.7455 73.5252 72.6672 73.4699C72.5102 73.3596 72.3716 73.2621 72.245 73.1732C71.992 72.996 71.7865 72.8548 71.5762 72.7155C71.1565 72.4365 70.72 72.1628 69.8498 71.6242L70.0226 71.6865C69.7051 71.4328 69.3879 71.1808 69.2517 71.1797C68.2336 70.4954 67.1511 69.8301 66.4265 69.4912L66.3436 69.3029C66.1255 69.1648 65.7125 69.0939 65.6927 68.8963L65.2602 68.5584C64.9619 68.3785 64.8144 68.2098 64.4479 68.0633L64.446 68.062C64.4237 68.0531 64.3996 68.0437 64.3767 68.0357C64.3787 68.0328 64.3818 68.0313 64.3853 68.0301C64.0436 67.8576 64.0611 67.8437 64.0611 67.8157C64.0618 67.8028 64.0593 67.7885 64.0082 67.7559C63.9831 67.7395 63.9457 67.7193 63.8928 67.6938C63.8409 67.6691 63.7688 67.6375 63.6936 67.6129C63.6675 67.612 63.6483 67.6101 63.6362 67.6071C63.6313 67.606 63.6263 67.6041 63.6243 67.6028C63.6228 67.6018 63.6218 67.6012 63.623 67.6005C63.6366 67.556 63.6495 67.5125 63.6622 67.4695C63.715 67.2821 63.7483 67.1353 63.7606 67.0176C63.7637 66.9881 63.7662 66.9637 63.7656 66.9367C63.7664 66.9259 63.7666 66.9148 63.766 66.9039L63.7645 66.8868L63.7639 66.8738C63.7591 66.8348 63.7486 66.8132 63.7434 66.8084C63.7414 66.8071 63.7434 66.8084 63.7424 66.8077C63.7439 66.8087 63.7483 66.8116 63.7509 66.8119L63.7561 66.8125C63.7597 66.8134 63.7628 66.8141 63.7664 66.815C63.7734 66.8161 63.7798 66.816 63.7865 66.8155C63.8085 66.8172 63.8248 66.8138 63.8497 66.809C63.8782 66.8051 63.9003 66.7971 63.9319 66.7875C63.9652 66.7784 63.9962 66.7663 64.0297 66.7516C64.0684 66.7376 64.1069 66.7206 64.1448 66.7011C64.1841 66.6818 64.2314 66.66 64.2744 66.6361C64.3128 66.6149 64.3524 66.5929 64.3923 66.5705C64.3855 66.5745 64.3888 66.5921 64.4005 66.6138C64.4118 66.6353 64.4318 66.6616 64.4608 66.6904C64.5727 66.7396 64.6973 66.7907 64.8236 66.836C64.9622 66.9335 65.0728 67.0148 65.1697 67.0921C65.2664 67.17 65.3504 67.2445 65.4432 67.324C65.5359 67.4035 65.6379 67.4883 65.7732 67.5802C65.9086 67.6707 66.0778 67.7706 66.3028 67.8585C66.5294 67.9159 66.6982 67.9067 66.7761 67.867C66.8539 67.8264 66.8461 67.761 66.7354 67.6712C66.8912 67.7855 66.9289 67.8115 66.9795 67.834C67.0052 67.8452 67.035 67.8534 67.086 67.8656C67.137 67.8779 67.2086 67.893 67.3172 67.9063C67.3793 67.8423 67.332 67.8352 67.2421 67.7814C67.3328 67.7641 67.3855 67.7522 67.4245 67.7495C67.4631 67.7474 67.4863 67.7506 67.5089 67.759C67.5304 67.7646 67.5512 67.7726 67.5818 67.7764C67.5973 67.7774 67.6151 67.7792 67.6379 67.7765C67.6607 67.7717 67.688 67.7643 67.7207 67.754C67.8311 67.8366 68.0072 67.9572 68.1131 67.9112L68.0082 68.0021C68.1874 67.9534 68.3743 67.8682 68.5422 67.7454C68.7099 67.6231 68.8593 67.4609 68.951 67.2785L68.8962 67.2581C68.988 67.1509 69.0534 67.0377 69.0985 66.931C69.0777 66.9167 69.0568 66.9023 69.0355 66.8898C69.0537 66.8533 69.0534 66.8215 69.0655 66.7879C69.0725 66.7707 69.0699 66.7564 69.0722 66.7411C69.0737 66.7259 69.0765 66.7109 69.0796 66.6953C69.0823 66.6374 69.0758 66.5721 69.0568 66.4979C69.0683 66.5159 69.0823 66.5342 69.0919 66.5517C69.0896 66.5263 69.0796 66.4846 69.0635 66.4306C69.0462 66.3765 69.0169 66.3096 68.9759 66.2379C68.8951 66.0938 68.7618 65.9345 68.6403 65.8355L68.6185 65.8711C68.2771 65.6012 67.9394 65.3344 67.5669 65.0596C67.1934 64.7884 66.7741 64.5055 66.2501 64.2702L66.3538 64.406C66.1603 64.3647 66.1495 64.3274 66.131 64.2795C66.1218 64.2559 66.1103 64.2294 66.0743 64.2017C66.0383 64.174 65.9762 64.1433 65.8712 64.1169L65.8186 64.2062C65.7456 64.1459 65.6799 64.1121 65.658 64.1048C65.656 64.1035 65.6557 64.104 65.656 64.1035L65.6586 64.0898L65.6642 64.0555C65.6709 64.0107 65.6777 63.966 65.6846 63.922C65.6917 63.8832 65.6972 63.8446 65.7019 63.8062C65.7066 63.7679 65.71 63.7293 65.7117 63.6912C65.7158 63.6601 65.7191 63.6293 65.7198 63.5981C65.72 63.5828 65.7205 63.567 65.7203 63.5521C65.72 63.5365 65.7187 63.5202 65.7201 63.5105C65.7211 63.4874 65.7198 63.4647 65.7155 63.4423L65.7119 63.4252C65.7109 63.4203 65.7115 63.4172 65.7112 63.4134C65.7104 63.4059 65.7086 63.3991 65.7062 63.3919C65.7045 63.3859 65.6977 63.3759 65.6982 63.3741C65.6975 63.3708 65.6957 63.3682 65.6931 63.3658C65.6921 63.3652 65.6891 63.3632 65.6891 63.3632C65.6906 63.3642 65.6916 63.3648 65.6926 63.3655C65.6954 63.3666 65.6965 63.3659 65.7032 63.3675C65.7089 63.3684 65.7148 63.368 65.7197 63.367C65.7259 63.3661 65.7357 63.3662 65.7433 63.3642C65.7514 63.3625 65.7586 63.3601 65.767 63.3579C65.7776 63.3557 65.7877 63.3531 65.7976 63.3498C65.8174 63.3431 65.8348 63.3348 65.8605 63.3255C65.8836 63.316 65.9065 63.3057 65.9279 63.2944C65.9539 63.2826 65.9789 63.2701 66.0037 63.2568C66.1025 63.2033 66.2111 63.138 66.3186 63.067L66.3579 63.0401C66.3686 63.0323 66.3923 63.0176 66.3863 63.0214L66.3899 63.0202C66.3899 63.0202 66.3948 63.0192 66.3979 63.0198C66.41 63.0207 66.4278 63.0267 66.4461 63.033C66.4844 63.0475 66.5287 63.0679 66.5769 63.0994L66.4101 63.1141C66.5065 63.2094 66.6335 63.3161 66.7619 63.4119C66.9833 63.5656 67.0779 63.5733 67.1068 63.5409C67.1367 63.507 67.109 63.4278 67.1002 63.3779C67.1719 63.4745 67.2491 63.5692 67.3298 63.6597C67.3695 63.6386 67.4091 63.6167 67.4477 63.5942C67.5195 63.7155 67.5789 63.7396 67.6586 63.7649C67.7395 63.7882 67.8408 63.8171 68.0144 63.9136C68.0576 63.8807 67.9753 63.8284 68.1019 63.8485C68.2805 63.9588 68.4599 64.0401 68.6425 64.0842C68.5329 64.066 68.4227 64.0348 68.3112 63.9915C68.3158 64.05 68.3218 64.1087 68.329 64.1675C68.5186 64.2589 68.6525 64.2452 68.7628 64.2161C68.8765 64.185 68.9728 64.1355 69.1211 64.1094C69.0507 64.1161 68.9817 64.1196 68.9152 64.1183C69.0284 64.1009 69.1171 64.0724 69.1859 64.0436C69.2547 64.0134 69.305 63.9837 69.3469 63.9528C69.43 63.8912 69.4831 63.8303 69.5822 63.7398C69.5326 63.8114 69.443 63.9228 69.624 63.8339C69.6869 63.7956 69.6944 63.7723 69.6974 63.7462C69.6999 63.7198 69.7024 63.6933 69.7457 63.6443C69.7938 63.6792 69.8951 63.652 69.997 63.5766C70.0989 63.5034 70.1908 63.3766 70.2094 63.2673C70.1941 63.2629 70.1782 63.2603 70.1625 63.2683C70.1728 63.2589 70.1817 63.2506 70.1906 63.2424C70.1995 63.2342 70.2084 63.2259 70.2142 63.2171C70.22 63.2082 70.2277 63.1964 70.2294 63.1841C70.2304 63.1771 70.2306 63.1737 70.2307 63.1681C70.2301 63.1615 70.2281 63.1538 70.2265 63.1465C70.1829 63.151 70.14 63.1511 70.0974 63.1443C70.1408 63.1369 70.1872 63.1067 70.2247 63.0687C70.2227 63.0653 70.222 63.062 70.2203 63.0581C70.2088 63.0436 70.2112 63.0065 70.2027 62.9764C70.2003 62.9608 70.1987 62.945 70.1975 62.9295C70.1943 62.9141 70.1907 62.8991 70.1878 62.8853C70.1836 62.8572 70.1731 62.8335 70.1623 62.8201C70.1514 62.8067 70.1393 62.8037 70.1224 62.8166C70.1233 62.8431 70.1299 62.8685 70.1279 62.8932C70.0977 62.8222 70.0559 62.7485 70.0005 62.6731C69.9427 62.5981 69.8728 62.5223 69.793 62.4477C69.6306 62.2996 69.4269 62.161 69.2039 62.0442L69.1369 62.1233C69.1121 62.0278 68.901 61.937 68.7028 61.8568C68.5053 61.7763 68.3189 61.6982 68.3837 61.6323C68.2019 61.6021 67.8659 61.4326 67.5813 61.2672C67.2984 61.1036 67.0778 60.9511 67.1299 61.108C67.0683 61.0678 67.009 61.0221 66.9508 60.9799C66.8935 60.9354 66.8378 60.8885 66.7842 60.8437L67.9191 59.2483C68.3326 59.5 68.6537 59.7117 69.0173 59.8873C69.1987 59.9741 69.3902 60.0507 69.6034 60.1049C69.7099 60.1323 69.8215 60.1518 69.9385 60.165C69.9969 60.168 70.0573 60.1766 70.1183 60.1757C70.149 60.176 70.18 60.1759 70.2111 60.1766C70.2405 60.1746 70.2706 60.1726 70.3008 60.1705C70.3481 60.1529 70.4051 60.129 70.4694 60.1134C70.5333 60.0919 70.6045 60.0752 70.6803 60.0517C70.8312 60.0076 71.0008 59.9512 71.1594 59.875C71.3197 59.8006 71.4635 59.7028 71.5721 59.5988C71.6827 59.494 71.7553 59.3849 71.8026 59.276C71.9136 59.0704 71.9639 58.8062 71.9492 58.5339C71.9424 58.3982 71.9208 58.2612 71.8867 58.1273C71.8696 58.06 71.8501 57.9952 71.8263 57.9284C71.8018 57.8605 71.7747 57.7923 71.7439 57.7244C71.4997 57.1788 71.0517 56.6313 70.393 55.9935C69.9118 55.713 69.4037 55.2725 68.8521 54.8492C68.3038 54.4252 67.7136 54.0203 67.157 53.7973C67.0771 53.7163 66.993 53.6418 66.9104 53.564C66.525 53.4444 66.0757 53.2227 65.5801 52.9975C65.0854 52.7721 64.5402 52.551 63.986 52.4329C63.74 52.3011 63.6081 52.248 63.5493 52.223C63.5986 52.2347 63.6771 52.2425 63.7185 52.1951C63.6396 52.1794 63.5433 52.1516 63.443 52.1234C63.3429 52.0938 63.2396 52.0629 63.1462 52.0391C62.9593 51.9888 62.8143 51.9699 62.8208 52.031L62.8935 52.0638C62.8998 52.1262 62.6774 52.0484 62.4095 51.9683C62.1418 51.889 61.8272 51.8157 61.6571 51.8429L61.8561 51.7467C61.6672 51.7231 61.4799 51.7055 61.2949 51.6964C61.3435 51.707 61.3924 51.7214 61.4408 51.7354C61.144 51.6695 60.8658 51.6318 60.6063 51.626C60.5409 51.6219 60.4781 51.6266 60.4153 51.6271C60.384 51.6277 60.3527 51.6283 60.3219 51.6293C60.2911 51.6302 60.261 51.6344 60.2308 51.6365C60.1708 51.6423 60.1112 51.6476 60.0526 51.6536C59.9951 51.6631 59.9381 51.6729 59.8819 51.6826C59.8541 51.6876 59.8256 51.6915 59.7984 51.6976C59.7714 51.7045 59.7444 51.7115 59.7177 51.7179C59.664 51.7313 59.6108 51.7451 59.5584 51.7586C59.455 51.7922 59.3539 51.8245 59.2559 51.8659C59.0595 51.9462 58.8724 52.0382 58.6919 52.1479C58.3292 52.3626 57.9875 52.6235 57.6176 52.9234C57.2485 53.2252 56.8485 53.5722 56.3714 53.9749C56.5368 53.9066 56.4354 53.978 56.3104 54.0889C56.1844 54.199 56.0287 54.3439 56.0727 54.4056C56.0038 54.553 55.9209 54.6779 55.8285 54.7883C55.7363 54.8994 55.6391 54.9988 55.5354 55.0899C55.4303 55.1799 55.3275 55.2674 55.2268 55.354C55.125 55.4399 55.0257 55.5253 54.9403 55.6206C54.9344 55.6167 54.924 55.6155 54.8969 55.6323C54.7208 55.8719 54.5548 56.1175 54.3918 56.365C54.5032 56.2804 54.5328 56.2696 54.5131 56.289C54.4939 56.3087 54.4321 56.3646 54.3689 56.4217C54.242 56.5354 54.1086 56.6527 54.3106 56.4938C53.7278 57.494 53.1045 58.665 52.6789 59.9537C52.4651 60.5964 52.3027 61.2635 52.2087 61.9388C52.1141 62.613 52.0879 63.2911 52.1364 63.9407L52.0826 63.8283C52.0876 63.911 52.0916 63.9964 52.0945 64.0833C52.0967 64.1704 52.1075 64.2582 52.1126 64.3472C52.119 64.4363 52.1254 64.5255 52.1318 64.6146C52.1427 64.7032 52.1537 64.7919 52.1643 64.8788C52.1763 64.966 52.1854 65.052 52.2007 65.135C52.2172 65.2174 52.2341 65.298 52.2515 65.3746C52.2693 65.4516 52.2857 65.5255 52.3072 65.5936C52.3301 65.6619 52.3532 65.7254 52.3777 65.7836C52.4685 66.0177 52.522 66.2822 52.551 66.5196C52.5712 66.636 52.5853 66.7456 52.5983 66.8376C52.6046 66.8839 52.6112 66.9254 52.6171 66.9616C52.6238 66.9975 52.6334 67.027 52.6416 67.0499C52.6758 67.1846 52.7232 67.311 52.7735 67.4211C52.8292 67.5284 52.8884 67.6183 52.9378 67.6857C53.0365 67.8196 53.0997 67.8595 53.0453 67.7566C53.1662 68.0244 53.2659 68.2889 53.4072 68.5673C53.5493 68.8433 53.7359 69.133 54.0373 69.3985C54.1146 69.4188 54.2368 69.5351 54.3929 69.682C54.4303 69.7204 54.4736 69.7564 54.5165 69.797C54.5596 69.8364 54.6028 69.88 54.6495 69.9204C54.7435 70 54.838 70.0898 54.9397 70.1653C55.3362 70.4852 55.7697 70.7128 55.8158 70.6326L55.8177 70.65C56.3045 70.7929 56.7678 70.9438 57.2672 71.0458C57.7636 71.1459 58.2969 71.1928 58.8465 71.0909C58.8465 71.0909 58.8246 71.0794 58.786 71.0696C59.1664 71.1333 59.5588 71.1669 59.9523 71.159C60.1485 71.1544 60.3457 71.1405 60.5373 71.1084C60.6324 71.0918 60.7271 71.0715 60.8141 71.0426C60.8573 71.028 60.8994 71.0119 60.9346 70.9935C60.9708 70.9757 60.997 70.9528 61.0074 70.9476C61.0336 70.9527 61.0488 70.9886 61.0525 71.0248C61.057 71.0621 61.0528 71.1029 61.0455 71.1431C61.0301 71.2237 61.0027 71.3033 60.9705 71.3806C60.9058 71.5357 60.8242 71.6833 60.7357 71.8263C60.3836 72.0515 60.0214 72.2224 59.6463 72.37C59.2713 72.5163 58.8833 72.6352 58.4834 72.726C57.9387 72.7299 57.393 72.6827 56.8534 72.5789C56.314 72.4747 55.7801 72.3136 55.2697 72.0865C54.2469 71.6343 53.3467 70.9209 52.665 70.0721C52.3743 69.7482 52.1097 69.4027 51.8771 69.0416C51.7596 68.8602 51.6495 68.6803 51.5491 68.4932L51.3978 68.2118C51.373 68.1648 51.3466 68.1181 51.3235 68.0707L51.2557 67.926C50.8884 67.1581 50.6169 66.3467 50.4371 65.5173C50.0944 63.4812 50.2831 61.398 50.9104 59.4712C51.2162 58.508 51.6358 57.5909 52.1178 56.7182L52.3054 56.3954L52.3994 56.2342L52.4983 56.0762L52.6967 55.7605L52.9038 55.4518L53.0078 55.2979L53.1155 55.1469L53.3318 54.8458C53.4824 54.6506 53.6281 54.45 53.7849 54.2603C53.8912 54.1653 53.9943 54.0676 54.1023 53.9752L54.4249 53.6985C54.7577 53.2241 55.1601 52.7551 55.6112 52.2975C56.0668 51.8407 56.5892 51.3847 57.1927 50.9852C57.4941 50.7859 57.8169 50.6013 58.1583 50.4429C58.499 50.2847 58.8609 50.1509 59.2304 50.0571C59.4142 50.0058 59.5996 49.9724 59.7832 49.9363C59.9668 49.9101 60.1505 49.8805 60.3307 49.8668C60.421 49.8576 60.5117 49.8488 60.5999 49.846C60.6891 49.8417 60.7782 49.8353 60.8656 49.8326C61.0409 49.8298 61.2151 49.8255 61.3843 49.8299L61.4304 49.9506C61.6183 49.9673 61.7527 49.9841 61.857 49.9889C61.9591 49.9981 62.0283 49.9997 62.0807 49.998C62.186 49.9938 62.2227 49.9763 62.3139 49.9839C63.1601 50.1431 63.955 50.398 64.7125 50.6769C65.4735 50.9547 66.2258 51.2674 66.9615 51.6206C68.4303 52.3288 69.8346 53.2013 71.08 54.2581C71.2362 54.3888 71.3861 54.5281 71.5388 54.6622C71.6882 54.8012 71.8339 54.9426 71.9807 55.0834C72.2705 55.3709 72.5586 55.6805 72.8245 56.0282C73.0895 56.3754 73.3333 56.7635 73.5157 57.1951C73.7015 57.6344 73.8156 58.1071 73.8361 58.5973C73.856 59.0864 73.7783 59.6045 73.5594 60.0872C73.4516 60.3287 73.3031 60.554 73.1393 60.7554L73.0112 60.9021L72.8742 61.0367C72.829 61.0823 72.7798 61.1211 72.7319 61.1621C72.6834 61.2021 72.6357 61.244 72.5843 61.2785C72.1832 61.5756 71.7419 61.7686 71.2949 61.8876C71.0709 61.9457 70.8444 61.9839 70.6168 62.0066C70.5596 62.0114 70.5028 62.0144 70.4458 62.0179C70.3889 62.0222 70.3314 62.0232 70.2739 62.023C70.217 62.023 70.1582 62.0239 70.1033 62.0218L69.9389 62.0135C69.7698 62.0176 69.5135 61.9991 69.2307 61.9409C68.947 61.8849 68.6382 61.7921 68.3498 61.6832C67.7702 61.4663 67.2754 61.196 67.0563 61.1196C66.9993 61.081 66.9428 61.0428 66.8849 61.0035L68.1051 59.2883C68.276 59.4729 68.5327 59.6475 68.8535 59.8176C69.1734 59.9892 69.5525 60.156 69.9585 60.3754C70.3826 60.6066 70.7981 60.8898 71.1714 61.2873C71.3568 61.4862 71.5302 61.7175 71.6692 61.9865C71.7041 62.0536 71.7344 62.1253 71.7656 62.1948C71.7947 62.2665 71.8194 62.3416 71.845 62.4152C71.8673 62.4909 71.8862 62.5685 71.9048 62.6453C71.913 62.6843 71.9188 62.7239 71.9249 62.763L71.9436 62.8925C71.9608 63.0715 71.9549 63.2517 71.9253 63.4282C71.9175 63.4724 71.9096 63.5156 71.8994 63.5603L71.865 63.6894C71.84 63.7686 71.813 63.8486 71.7814 63.9207C71.7998 63.8871 71.8194 63.8549 71.8364 63.8182C71.7487 64.0461 71.6333 64.239 71.5086 64.4097C71.3833 64.58 71.2469 64.7276 71.1044 64.8599C71.0752 64.9013 71.0804 64.916 71.1137 64.8962C70.856 65.1058 70.5581 65.3095 70.2158 65.4863C69.8732 65.6615 69.4859 65.8138 69.0381 65.893C68.8133 65.933 68.5747 65.9478 68.3477 65.9394C68.12 65.9312 67.8982 65.9009 67.6885 65.8553C67.2683 65.7642 66.8947 65.6158 66.5714 65.4518L66.6403 65.5031C66.4045 65.3793 66.1827 65.2415 65.9728 65.0919C65.7624 64.9419 65.5633 64.7811 65.37 64.6007C65.273 64.5094 65.1777 64.4155 65.0786 64.3038C65.0285 64.2472 64.9778 64.1882 64.9188 64.1075C64.8896 64.0673 64.8572 64.0223 64.8156 63.9516L64.8001 63.9247L64.7814 63.89L64.7631 63.8534L64.7393 63.8007L64.7281 63.7737L64.714 63.7372C64.7038 63.7087 64.6942 63.6793 64.6863 63.6495C64.6824 63.6372 64.6741 63.6015 64.6691 63.5779C64.664 63.5514 64.6593 63.5252 64.6558 63.4983C64.6531 63.4797 64.6485 63.4395 64.6476 63.3806C64.647 63.3289 64.65 63.2769 64.6567 63.2257C64.6594 63.1938 64.682 63.0751 64.7163 62.9915C64.7492 62.9034 64.7992 62.8139 64.848 62.7488C64.8979 62.681 64.9593 62.615 65.0279 62.5594C65.0921 62.5051 65.1803 62.4517 65.2352 62.4258C65.2993 62.3953 65.3687 62.3697 65.4385 62.352C65.4683 62.3441 65.5208 62.3335 65.5313 62.3325L65.578 62.3266C65.6385 62.319 65.7154 62.3172 65.7361 62.3188L65.7867 62.321L65.8117 62.3225L65.8324 62.3241C65.8737 62.3286 65.9235 62.3351 65.9492 62.3399L65.9956 62.3485L66.0338 62.3566C66.1324 62.3788 66.2043 62.3998 66.2734 62.421C66.4093 62.4634 66.5263 62.5068 66.6416 62.5518C67.0957 62.7317 67.5048 62.9334 67.9109 63.16C68.315 63.3865 68.7072 63.6377 69.0882 63.9285C69.4676 64.2219 69.8397 64.5512 70.1751 64.9871C70.3411 65.2072 70.499 65.4549 70.6207 65.7535C70.6809 65.9023 70.7317 66.0632 70.7656 66.235C70.7983 66.4066 70.8161 66.5923 70.8046 66.7723L70.7951 66.9073C70.791 66.9523 70.7882 66.9975 70.7791 67.0394C70.7634 67.1247 70.746 67.2095 70.7262 67.2935C70.7021 67.3725 70.6766 67.4514 70.6493 67.5297C70.6225 67.6084 70.5874 67.6761 70.5552 67.7492C70.4189 68.031 70.2523 68.2776 70.0647 68.4886C69.6892 68.9121 69.2515 69.233 68.7537 69.4663C68.5032 69.5801 68.2415 69.6776 67.9537 69.7333C67.6694 69.7956 67.3807 69.8108 67.1037 69.8006C66.5476 69.7746 66.038 69.6343 65.5774 69.4439C65.1153 69.2525 64.697 69.0102 64.3052 68.7348C64.1096 68.5966 63.921 68.4488 63.7379 68.2893C63.554 68.1278 63.3779 67.9609 63.1956 67.7485C63.1499 67.6948 63.1031 67.6375 63.0538 67.5688C63.0287 67.5342 63.0035 67.4974 62.9756 67.4531C62.963 67.4337 62.9464 67.4053 62.9328 67.381C62.9261 67.3696 62.9168 67.3516 62.909 67.3367C62.9009 67.3201 62.8938 67.3085 62.8847 67.2878L62.8582 67.2284C62.8547 67.2198 62.8492 67.2056 62.8437 67.1915L62.8291 67.1504C62.8242 67.1353 62.8209 67.1253 62.8151 67.1062C62.8092 67.0862 62.8042 67.066 62.7994 67.0453C62.7946 67.0246 62.7905 67.0051 62.7867 66.983C62.7819 66.9517 62.7776 66.9194 62.7752 66.8877L62.7728 66.8397C62.7723 66.8254 62.7718 66.8089 62.773 66.7802C62.7748 66.7301 62.7804 66.6797 62.789 66.6299C62.7949 66.5908 62.8164 66.5073 62.8443 66.4398C62.8583 66.4054 62.8741 66.3715 62.8916 66.3394C62.9078 66.3092 62.9306 66.2721 62.9563 66.237C62.9818 66.2023 63.0092 66.169 63.0384 66.1382C63.0679 66.1069 63.0951 66.0825 63.1258 66.0569C63.1563 66.0318 63.1883 66.0085 63.2209 65.9877C63.2509 65.9686 63.276 65.9549 63.3048 65.9399C63.3328 65.9259 63.3619 65.9126 63.391 65.9014C63.4185 65.8905 63.436 65.8851 63.4599 65.8776C63.5022 65.8645 63.5565 65.8522 63.5841 65.8477C63.6165 65.8421 63.6517 65.8377 63.6826 65.8355C63.7069 65.8338 63.7313 65.8329 63.7555 65.8325C63.7822 65.8324 63.7994 65.833 63.817 65.834L63.8713 65.8379C63.8983 65.8407 63.9293 65.8448 63.9527 65.8489C63.9742 65.8524 63.9986 65.8571 64.0169 65.8613C64.0943 65.8782 64.1454 65.8946 64.1925 65.9106C64.2858 65.942 64.3531 65.9712 64.4186 65.9999C64.4828 66.0285 64.5413 66.0562 64.5973 66.0843C64.7093 66.1399 64.8121 66.1943 64.9129 66.2496C65.3117 66.4692 65.6786 66.6933 66.0471 66.9206C66.7805 67.3741 67.5006 67.8372 68.2268 68.3028C69.6087 69.1214 71.0187 70.122 72.4701 71.1601C72.833 71.4195 73.1989 71.6808 73.5665 71.9439C73.6584 72.0096 73.7507 72.0748 73.8432 72.1407L73.9819 72.2391L74.0594 72.2946L74.1453 72.3577C74.3686 72.5266 74.5735 72.7053 74.7687 72.898C75.1565 73.2839 75.505 73.7235 75.7827 74.2243C75.9195 74.4751 76.045 74.7368 76.1404 75.0133C76.1662 75.0772 76.1895 75.1619 76.2134 75.2393C76.2385 75.3182 76.2555 75.3974 76.2726 75.4767C76.281 75.5166 76.2902 75.5563 76.2977 75.5963L76.3165 75.716L76.3336 75.8361L76.3441 75.9566C76.3543 76.0153 76.3673 76.1115 76.3679 76.2418C76.3696 76.3069 76.3705 76.3798 76.3646 76.4609C76.3595 76.5418 76.3552 76.6303 76.3393 76.7267C76.3319 76.7745 76.3246 76.8245 76.3171 76.8758C76.3079 76.9274 76.2949 76.9807 76.2825 77.0351C76.2601 77.1448 76.2219 77.2603 76.182 77.3817C76.0938 77.6232 75.9699 77.8872 75.7807 78.1513C75.5898 78.4135 75.3293 78.6739 75.0044 78.8747C74.9633 78.8999 74.9241 78.9256 74.8811 78.9495C74.8372 78.9727 74.7927 78.9956 74.7472 79.0179C74.6561 79.0596 74.5634 79.0995 74.4685 79.1309C74.2789 79.1953 74.0852 79.2381 73.8955 79.261C73.516 79.3054 73.158 79.2774 72.8302 79.2179C72.503 79.1567 72.2003 79.0651 71.9177 78.9592C71.6353 78.8528 71.3709 78.7329 71.123 78.6083C70.9991 78.5464 70.8791 78.4827 70.764 78.4202C70.6533 78.3585 70.5433 78.2979 70.4351 78.2378C70.0077 77.9975 69.6105 77.7627 69.2632 77.5514C68.5689 77.1284 68.0735 76.8007 67.9393 76.7019L67.9426 76.7076Z" fill="#DED2C2"/>
<path d="M59.0264 70.3227L59.0495 70.3407C59.018 70.3812 58.9943 70.3396 59.0264 70.3227Z" fill="#DED2C2"/>
<path d="M72.4994 77.4913C72.4849 77.4868 72.4711 77.482 72.4574 77.4772C72.5175 77.4744 72.5772 77.4712 72.636 77.466C72.5911 77.4746 72.5453 77.4834 72.4994 77.4913Z" fill="#DED2C2"/>
<path d="M64.2876 72.4198C64.6555 72.6586 64.6655 72.6799 64.6037 72.6606C64.4722 72.5726 64.3605 72.4899 64.2876 72.4198Z" fill="#DED2C2"/>
<path d="M59.803 69.2608C59.9677 69.3774 59.889 69.357 59.7728 69.3113C59.6101 69.1798 59.5018 69.081 59.5018 69.081C59.5974 69.1476 59.7026 69.1994 59.803 69.2608Z" fill="#DED2C2"/>
<path d="M58.7014 69.1835L58.7234 69.2617C58.6353 69.16 58.6504 69.153 58.7014 69.1835Z" fill="#DED2C2"/>
<path d="M45.8548 91.0989C45.9392 91.1246 45.9705 91.1605 45.8548 91.0989Z" fill="#DED2C2"/>
<path d="M51.5988 35.8935C51.6208 35.8791 51.6333 35.8739 51.6556 35.8603C51.7276 35.8855 51.792 35.9051 51.8487 35.9162L51.5988 35.8935Z" fill="#DED2C2"/>
<path d="M61.2742 31.9052C61.2971 31.897 61.3134 31.8914 61.335 31.8831C61.3327 31.9188 61.3487 31.9524 61.2742 31.9052Z" fill="#DED2C2"/>
<path d="M35.0343 54.6327C35.0001 54.7227 34.9673 54.7666 34.9349 54.7946C34.9677 54.7486 35.0002 54.701 35.0343 54.6327Z" fill="#DED2C2"/>
<path d="M65.591 94.9257C65.591 94.9257 65.5628 94.9248 65.5422 94.924C65.5804 94.9096 65.6196 94.898 65.6582 94.8797L65.591 94.9257Z" fill="#DED2C2"/>
<path d="M65.3591 94.8403C65.1186 94.901 65.4319 94.9181 65.54 94.9226C65.2767 95.0204 65.0067 95.052 64.7305 95.0255C64.7289 94.9795 64.8577 94.9554 65.0007 94.9301C65.1433 94.9031 65.3016 94.8779 65.3594 94.8398L65.3591 94.8403Z" fill="#DED2C2"/>
<path d="M94.5501 74.3674L94.4585 74.4452C94.4919 74.4102 94.5216 74.3874 94.5501 74.3674Z" fill="#DED2C2"/>
<path d="M31.4014 51.8002C31.368 51.8514 31.3353 51.9123 31.3035 51.9589C31.3419 51.8709 31.3736 51.8277 31.4014 51.8002Z" fill="#DED2C2"/>
<path d="M91.3106 79.4185L91.1558 79.3877C91.2382 79.3755 91.2823 79.3909 91.3106 79.4185Z" fill="#DED2C2"/>
<path d="M51.849 35.916L51.9448 35.923C51.9157 35.9257 51.8838 35.9218 51.849 35.916Z" fill="#DED2C2"/>
<path d="M70.7635 33.4412C70.7837 33.4017 70.8182 33.3778 70.8544 33.36C70.866 33.3648 70.8752 33.368 70.8811 33.3697L70.7633 33.4403L70.7635 33.4412Z" fill="#DED2C2"/>
<path d="M96.3861 74.0394C96.3705 74.0299 96.3556 74.0152 96.3418 73.9943L96.5071 73.8185C96.4628 73.9251 96.4226 73.9964 96.3864 74.0389L96.3861 74.0394Z" fill="#DED2C2"/>
<path d="M83.3177 40.1721C83.3174 40.193 83.3348 40.2254 83.3259 40.2413C83.104 40.1316 82.591 39.7503 81.9232 39.2716L81.9842 39.0986C82.4369 39.4496 82.8838 39.8052 83.3182 40.1724L83.3177 40.1721Z" fill="#DED2C2"/>
<path d="M99.2734 71.19L99.2861 71.1351C99.4065 71.1625 99.3436 71.2352 99.2734 71.19Z" fill="#DED2C2"/>
<path d="M89.1543 45.3035C89.1737 45.3253 89.1927 45.3468 89.2107 45.3677L88.8729 45.23L89.1543 45.3035Z" fill="#DED2C2"/>
<path d="M96.174 60.8975C96.1375 60.708 96.1105 60.5632 96.0899 60.455C96.0701 60.3466 96.0597 60.2744 96.0563 60.228C96.0497 60.1359 96.0723 60.1507 96.1056 60.1998C96.1319 60.337 96.1535 60.4663 96.1667 60.5837C96.1791 60.7014 96.1801 60.8074 96.1743 60.897L96.174 60.8975Z" fill="#DED2C2"/>
<path d="M96.8901 77.8123C96.8044 78.0211 96.7603 78.078 96.7435 78.0488C96.7273 78.0199 96.7351 77.9035 96.7513 77.7659C96.8497 77.5591 96.933 77.3831 96.992 77.2594C97.0211 77.1977 97.0442 77.1482 97.0597 77.1148C97.0747 77.081 97.0827 77.0624 97.0827 77.0624C97.011 77.3056 96.9675 77.5616 96.8901 77.8123Z" fill="#DED2C2"/>
<path d="M96.0311 75.5141C95.9847 75.5442 95.9387 75.5739 95.8904 75.6027C96.0027 75.3769 96.031 75.3981 96.0311 75.5141Z" fill="#DED2C2"/>
<path d="M51.9734 87.2685C52.0393 87.2869 52.0684 87.3059 51.9734 87.2685Z" fill="#DED2C2"/>
<path d="M50.2626 44.2983C50.2789 44.2851 50.287 44.2791 50.3026 44.2661C50.3469 44.2606 50.3871 44.2538 50.4229 44.2442L50.2621 44.2979L50.2626 44.2983Z" fill="#DED2C2"/>
<path d="M57.2999 39.6708C57.317 39.6609 57.3288 39.6546 57.3447 39.6453C57.3461 39.6603 57.3608 39.6691 57.2999 39.6708Z" fill="#DED2C2"/>
<path d="M39.5885 60.4029C39.5704 60.4747 39.5542 60.5125 39.5389 60.5391C39.5549 60.4996 39.5709 60.4588 39.5885 60.4029Z" fill="#DED2C2"/>
<path d="M67.3497 88.9483C67.3497 88.9483 67.3285 88.9506 67.3127 88.9522C67.3418 88.9431 67.3716 88.9352 67.4012 88.9243L67.3499 88.9491L67.3497 88.9483Z" fill="#DED2C2"/>
<path d="M67.1736 88.9353C66.9904 88.9815 67.2295 88.9606 67.3119 88.9526C67.1116 89.0185 66.9051 89.0466 66.6938 89.0582C66.6902 89.0207 67.0861 88.98 67.1736 88.9353Z" fill="#DED2C2"/>
<path d="M89.482 73.1213L89.4379 73.1943C89.4539 73.1634 89.4683 73.1412 89.482 73.1213Z" fill="#DED2C2"/>
<path d="M38.1246 59.0685C38.1087 59.11 38.0924 59.1577 38.0769 59.1953C38.0963 59.1279 38.1113 59.0921 38.1246 59.0685Z" fill="#DED2C2"/>
<path d="M87.4292 77.0568L87.3544 77.0648C87.3978 77.0426 87.4182 77.0447 87.4292 77.0568Z" fill="#DED2C2"/>
<path d="M50.4202 44.2428L50.482 44.2213C50.4627 44.2305 50.4424 44.2369 50.4202 44.2428Z" fill="#DED2C2"/>
<path d="M64.7614 38.369C64.7658 38.3516 64.7844 38.3391 64.8056 38.3291C64.8151 38.3297 64.8225 38.3303 64.8272 38.3306L64.7609 38.3687L64.7614 38.369Z" fill="#DED2C2"/>
<path d="M91.4485 64.8265C91.4412 64.8238 91.4334 64.8174 91.4252 64.8063C91.4366 64.7513 91.4445 64.6961 91.4533 64.6407C91.4582 64.7268 91.4555 64.7868 91.4485 64.8265Z" fill="#DED2C2"/>
<path d="M74.7862 41.9917C74.7914 42.002 74.811 42.0205 74.8088 42.0281C74.6348 41.9504 74.2009 41.7029 73.6504 41.3877L73.6517 41.3072C74.0299 41.5323 74.4074 41.7619 74.7862 41.9917Z" fill="#DED2C2"/>
<path d="M85.2817 48.348C85.1381 48.2023 84.9807 48.068 84.8293 47.9298L84.3726 47.5193C85.0138 48.2581 85.5487 48.9156 86.0156 49.5322C86.1314 49.6872 86.2443 49.8381 86.355 49.9869C86.4648 50.1359 86.5783 50.2773 86.6762 50.4263C86.8782 50.7203 87.0736 51.0052 87.2664 51.2863C88.0016 52.3975 88.6913 53.4924 89.4011 55.0028L89.3441 54.8244C89.4687 55.0336 89.4985 55.2321 89.815 55.9661C89.9761 56.3325 90.1984 56.8385 90.5157 57.5604C90.5941 57.7415 90.6807 57.9357 90.7672 58.1474C90.8115 58.2528 90.8582 58.362 90.9058 58.4752C90.9514 58.5892 90.999 58.7067 91.0485 58.8289C91.2472 59.3161 91.4562 59.8759 91.6786 60.5204L91.6923 60.5167C91.7365 60.7007 91.7086 60.7057 91.8377 61.0631L91.6799 60.6175L91.6009 60.3953L91.5161 60.1756C91.5788 60.4496 91.612 60.7129 91.6619 60.9947C91.6877 61.1358 91.7057 61.2846 91.7332 61.4415C91.7587 61.5993 91.7937 61.7662 91.824 61.951C91.8689 62.1038 91.9079 62.1518 91.9336 62.1629C91.9908 62.4636 92.0309 62.7679 92.0751 63.0713C92.0992 63.2226 92.1122 63.3757 92.1302 63.5279C92.1465 63.6804 92.1653 63.8324 92.1791 63.9854L92.3211 64.5402C92.3228 64.6817 92.3046 64.7731 92.2858 64.8535C92.2665 64.9336 92.2445 65.0028 92.2295 65.1011C92.2132 65.1993 92.2075 65.3262 92.2096 65.5221C92.2094 65.6203 92.2128 65.7355 92.2197 65.8734C92.2239 65.9422 92.2285 66.0169 92.234 66.0977C92.237 66.1383 92.2407 66.18 92.2439 66.2235C92.2463 66.2672 92.2485 66.3122 92.2508 66.3593C92.1277 65.7938 92.1548 67.1021 92.0901 66.9152C92.1073 66.991 92.1205 67.1633 92.1357 67.3024C92.117 67.5248 92.1026 67.7963 92.063 68.0829C92.0451 68.2264 92.0268 68.3739 92.0082 68.5218C91.9999 68.5958 91.9874 68.6698 91.9743 68.7426C91.9616 68.8158 91.9493 68.8885 91.9367 68.9604C91.9107 69.1035 91.8861 69.2434 91.862 69.3751C91.8365 69.5066 91.8049 69.6292 91.7782 69.741C91.7239 69.964 91.6764 70.1401 91.6405 70.2381C91.6405 70.2381 91.6617 70.0217 91.6942 69.6826C91.7023 69.5981 91.7106 69.5058 91.72 69.4074C91.7256 69.3085 91.7308 69.2038 91.7366 69.0938C91.7421 68.9843 91.7478 68.8701 91.7542 68.7528C91.7567 68.694 91.7596 68.6348 91.7623 68.5747C91.7628 68.5147 91.7636 68.4534 91.7639 68.3926C91.7646 68.2701 91.7656 68.1458 91.7667 68.0215C91.7673 67.8969 91.7692 67.7724 91.7628 67.6489C91.7529 67.4015 91.7464 67.1599 91.7313 66.9345C91.7128 66.709 91.694 66.5001 91.6765 66.3194C91.6584 66.1383 91.631 65.9856 91.6126 65.8718C91.6191 66.0242 91.6244 66.1442 91.6284 66.236C91.6286 66.3281 91.6276 66.3921 91.627 66.4338C91.625 66.5175 91.6201 66.5122 91.6144 66.4607C91.6078 66.4094 91.6015 66.3126 91.5909 66.2137C91.5782 66.1148 91.565 66.0135 91.5526 65.9541L91.5847 65.8726C91.5727 65.6898 91.5606 65.5535 91.5431 65.4458C91.5243 65.338 91.5056 65.2591 91.4876 65.1919C91.4521 65.057 91.4202 64.9681 91.3989 64.7878C91.4056 64.7873 91.4147 64.7981 91.4234 64.8073L91.4146 64.8542C91.4314 64.8876 91.441 64.8665 91.4471 64.827C91.4645 64.8348 91.4809 64.7999 91.4574 64.6026L91.4518 64.6412C91.4445 64.4889 91.4259 64.283 91.4057 64.0858C91.3831 63.8892 91.3521 63.7032 91.336 63.5902L91.2651 63.5945C91.3054 63.3188 91.1202 62.4268 90.8471 61.5414C90.783 61.3191 90.7053 61.0991 90.6335 60.8865C90.5641 60.6734 90.4851 60.4716 90.4171 60.2853C90.3823 60.1924 90.3513 60.1033 90.319 60.0204C90.2867 59.9376 90.2568 59.8597 90.229 59.7882C90.1743 59.6451 90.1316 59.5266 90.1035 59.4416C89.7957 58.7891 89.5907 57.9144 89.1873 57.1082C89.112 56.946 89.0496 56.8147 88.997 56.708C88.9442 56.6019 88.8992 56.5213 88.8633 56.4579C88.7909 56.3312 88.75 56.2764 88.7171 56.243C88.6519 56.1751 88.6181 56.1903 88.4333 55.8829C87.9913 55.1056 88.5901 56.0063 88.4329 55.6845L88.1437 55.2303C88.0447 55.0808 87.9477 54.9304 87.8473 54.7819C88.1348 55.3333 87.9364 55.0564 87.859 54.9694C87.6345 54.5658 87.3103 54.0662 87.0312 53.6333C86.7532 53.1997 86.5216 52.8294 86.5058 52.6709C86.3236 52.4164 86.1837 52.2219 86.0687 52.0787C85.9539 51.935 85.8686 51.8322 85.7967 51.7466C85.6533 51.5758 85.566 51.4739 85.4154 51.2561C85.5354 51.3886 85.7517 51.6681 85.777 51.6552C85.4485 51.2785 85.6573 51.4492 85.7825 51.6103C85.7362 51.5274 85.6635 51.416 85.5722 51.2848C85.5262 51.2197 85.4776 51.1479 85.4211 51.0752C85.3632 51.0037 85.3021 50.9273 85.2379 50.8482C84.9787 50.5343 84.6846 50.1639 84.3719 49.8341C84.2197 49.6659 84.0717 49.5012 83.9329 49.348C83.7938 49.1954 83.6579 49.0604 83.5477 48.9379C83.3242 48.695 83.1812 48.5182 83.1835 48.462L83.1624 48.4813C83.1296 48.2724 83.4058 48.4043 83.0863 47.9752L82.8036 47.7541C82.6916 47.6149 82.5846 47.47 82.4661 47.3364C82.1821 47.1131 82.2874 47.2584 82.2772 47.2686C82.1309 47.1078 81.9633 46.9373 81.7834 46.7601C81.5982 46.5887 81.3971 46.4138 81.1919 46.2356C80.9893 46.0542 80.7675 45.8863 80.5532 45.7133C80.4456 45.6276 80.3387 45.5417 80.2325 45.4569C80.1244 45.3751 80.0177 45.2935 79.913 45.2139C80.2737 45.3574 80.6224 45.5212 80.9792 45.6825C80.7956 45.5528 80.5754 45.3964 80.3459 45.2339C80.1113 45.0779 79.8693 44.9151 79.6482 44.7623C79.4249 44.6116 79.2186 44.4769 79.066 44.3632C78.9128 44.2505 78.8109 44.1623 78.7883 44.1174L78.2873 43.8963C77.4934 43.4742 77.242 43.2925 77.1123 43.1629C76.9831 43.035 76.9781 42.9609 76.6579 42.7974C76.3809 42.6742 76.1068 42.5487 75.8275 42.4302C76.0863 42.5802 76.3389 42.7374 76.5944 42.8915C76.3955 42.7884 76.2259 42.7008 76.0743 42.6222C75.9214 42.5455 75.7844 42.48 75.6527 42.4172C75.3903 42.2908 75.1414 42.1817 74.8129 42.034C74.8136 42.033 74.807 42.028 74.8077 42.027C74.8532 42.0476 74.8837 42.0591 74.8925 42.0564L74.7848 41.991C74.7187 41.8868 74.3312 41.6156 73.779 41.3063C73.3842 41.0914 73.0444 40.8815 72.6369 40.6569C72.2297 40.4332 71.755 40.1921 71.0898 39.9397C71.0009 39.8522 70.9102 39.7684 70.8203 39.6823C70.6548 39.6164 70.4869 39.5574 70.3208 39.4945C70.153 39.4363 69.987 39.3743 69.8184 39.3197L69.7827 39.4066C70.0222 39.5033 70.3115 39.6303 70.6291 39.7773C70.9457 39.9271 71.2902 40.0952 71.6395 40.2776C72.3391 40.6409 73.0609 41.0509 73.6486 41.3876L73.6483 41.4366C72.9506 41.038 72.1729 40.5717 71.6997 40.3435C71.4628 40.2429 70.8349 40.0472 71.231 40.3107C71.0988 40.2131 70.9667 40.1121 70.8323 40.0167C70.2386 39.7344 69.7855 39.5432 69.4035 39.3915C69.212 39.317 69.0386 39.2502 68.8724 39.1929C68.7071 39.132 68.5487 39.082 68.3897 39.0309C68.2307 38.9797 68.0692 38.9355 67.8974 38.8857C67.7242 38.8422 67.5417 38.7905 67.3358 38.7467C66.9254 38.6536 66.4294 38.5538 65.7651 38.4754C65.8443 38.4702 65.923 38.469 66.0021 38.4672C65.4835 38.3484 64.9565 38.2628 64.8022 38.3292C64.0029 38.2596 63.1835 38.2767 62.4427 38.3583C61.7054 38.4401 61.0511 38.5937 60.5584 38.7524L60.3142 38.6941C60.2322 38.7143 60.142 38.746 60.05 38.7815C59.9582 38.8156 59.8662 38.8609 59.7775 38.8956C59.601 38.968 59.4398 39.0095 59.3397 38.9617L58.9856 39.0437C58.9265 39.0578 58.8671 39.0703 58.8082 39.0852L58.632 39.1324C58.413 39.212 58.2301 39.2576 58.0443 39.3238C57.8583 39.3871 57.6654 39.4578 57.4319 39.5918L57.4296 39.5931C57.4012 39.6097 57.3709 39.6271 57.3417 39.6439C57.3402 39.6408 57.342 39.637 57.3437 39.6333C57.1031 39.7437 56.9844 39.8018 56.9197 39.8234C56.8552 39.8459 56.8473 39.8365 56.8351 39.8293C56.823 39.8221 56.8063 39.8175 56.7251 39.8495C56.6843 39.8657 56.6274 39.8904 56.5473 39.9293C56.4679 39.9702 56.3644 40.0255 56.2307 40.099C56.1512 40.1595 56.0835 40.1932 56.0175 40.2147C55.9527 40.2377 55.89 40.2487 55.8211 40.2607C55.7519 40.2731 55.6765 40.2864 55.585 40.3158C55.4938 40.3447 55.387 40.3888 55.2591 40.4675L55.0335 40.6819C54.9582 40.7521 54.8842 40.8245 54.8113 40.8985C54.5888 41.0544 54.4065 41.1658 54.24 41.267C54.0738 41.3678 53.9175 41.4448 53.751 41.5363C53.6675 41.5814 53.5803 41.6278 53.4861 41.6786C53.4392 41.7041 53.39 41.731 53.3389 41.7588C53.2891 41.7888 53.2371 41.8201 53.1816 41.8534C52.9624 41.987 52.7032 42.1527 52.3774 42.3754C52.3038 42.4355 52.2337 42.4901 52.1742 42.5468C52.1142 42.6032 52.0613 42.6563 52.0143 42.7057C51.9214 42.8038 51.8557 42.8852 51.8231 42.9447C51.7581 43.0637 51.8239 43.0941 52.059 42.9933C51.7419 43.1402 51.6645 43.1684 51.5709 43.2203C51.5242 43.2467 51.4731 43.2787 51.3856 43.3353C51.3418 43.3636 51.2887 43.3977 51.2228 43.4404C51.1584 43.4854 51.0813 43.539 50.988 43.6045C50.9167 43.7405 51 43.6882 51.1887 43.6035C50.6077 44.1687 50.7689 43.8765 50.2991 44.2649C50.2469 44.2716 50.1896 44.2756 50.132 44.2809C50.0752 44.2873 50.0172 44.2944 49.961 44.3041C49.8483 44.3239 49.7417 44.3561 49.6642 44.42L49.8194 44.2348C49.5559 44.4287 49.2858 44.6392 49.015 44.869C48.9812 44.8982 48.9472 44.9266 48.9136 44.9566C48.8814 44.9875 48.8484 45.0187 48.816 45.0502C48.751 45.1131 48.6859 45.1773 48.6214 45.2427C48.4917 45.3736 48.3636 45.5097 48.2366 45.6515L48.297 45.672L47.9964 45.942L47.7067 46.2234L47.7236 46.3103L47.3177 46.718L47.115 46.9221C47.0467 46.9891 46.9844 47.0629 46.9187 47.1324L47.0088 47.0009C46.9159 47.099 46.7179 47.3109 46.5044 47.5487C46.3977 47.6679 46.2872 47.7931 46.1843 47.9141C46.0819 48.0355 45.9944 48.1588 45.9202 48.2628L45.9629 48.2738C45.7621 48.5717 45.5559 48.8444 45.3455 49.1087C45.145 49.3802 44.9378 49.6417 44.7222 49.9075C44.5014 50.1693 44.296 50.4516 44.0728 50.7462C43.9619 50.8935 43.849 51.046 43.7331 51.2042C43.6192 51.3636 43.5119 51.5344 43.3976 51.7105L43.5845 51.5685C43.3496 52.0949 43.3944 51.6326 43.066 52.2314L43.1345 52.3126C43.081 52.3676 43.0331 52.4184 42.9943 52.4682C42.9559 52.5183 42.9234 52.566 42.8953 52.6122C42.8398 52.7038 42.8021 52.7873 42.7729 52.8686C42.714 53.031 42.6867 53.1845 42.6065 53.3752L42.5875 53.1429L42.406 53.4865C42.376 53.5442 42.3445 53.6001 42.316 53.6588L42.2322 53.8344C41.8759 54.6137 42.1386 54.3758 42.2571 54.2987L41.8961 54.7645L41.9481 54.9172C41.6425 55.238 41.7877 55.3082 41.4057 55.9471C41.4202 56.0205 41.5224 55.8618 41.4329 56.0969C41.3756 56.1824 41.3246 56.2713 41.273 56.3591L41.117 56.6238L40.8039 57.156L41.1572 56.504L40.9654 56.5192C40.7561 56.8496 40.6587 57.0935 40.5818 57.3144C40.5126 57.5389 40.4654 57.7412 40.3471 57.9912L40.5269 57.6535C40.1771 58.482 40.2201 58.5494 40.0993 59.0421C40.1186 58.8834 40.1499 58.6398 40.014 58.9781C39.9205 59.2288 40.0251 59.1342 39.9635 59.3791C39.8982 59.3898 39.807 59.5458 39.7144 59.7705C39.6683 59.883 39.6221 60.0129 39.5805 60.1508C39.5413 60.2895 39.5083 60.4357 39.4818 60.5807C39.4995 60.5782 39.5174 60.5702 39.5379 60.5366C39.4809 60.6756 39.4311 60.7421 39.3893 60.9999L39.5516 60.8847C39.4664 61.0334 39.3919 61.1863 39.312 61.3377C39.2899 61.5038 39.2233 61.6984 39.1822 61.8506C39.1406 62.0025 39.1157 62.1106 39.1616 62.0984L39.2267 61.919L39.0996 62.5354C39.06 62.7413 39.0253 62.9483 38.9883 63.1545C38.9492 63.3607 38.92 63.5677 38.8892 63.7752C38.8592 63.9824 38.8244 64.1886 38.8027 64.397L38.8983 64.4454C38.8558 64.5019 38.8265 64.6155 38.8042 64.7519C38.7815 64.8888 38.7653 65.0481 38.7568 65.1978C38.735 65.4968 38.7139 65.754 38.631 65.7055C38.64 65.8252 38.6391 66.0008 38.6255 66.1927C38.6147 66.3845 38.5884 66.5927 38.5823 66.7783C38.5634 67.1494 38.5604 67.4262 38.6644 67.2905C38.6527 68.1087 38.6143 68.7387 38.6216 69.4149C38.6224 70.0902 38.6656 70.8136 38.866 71.7878C38.9361 71.9557 38.9991 72.2012 39.0798 72.4906C39.1184 72.6358 39.1565 72.7927 39.1949 72.9575C39.2387 73.1217 39.2841 73.2931 39.3284 73.4695C39.3502 73.5575 39.3725 73.6472 39.3947 73.7368C39.4202 73.8258 39.4459 73.9156 39.4707 74.0055C39.522 74.1851 39.5699 74.3666 39.6231 74.5433C39.7376 74.8939 39.8378 75.2374 39.9551 75.531C40.34 76.7043 40.7436 77.6426 41.2126 78.5527C41.2721 78.666 41.3275 78.7822 41.3909 78.8938C41.4547 79.0057 41.5186 79.1177 41.5832 79.2307C41.6488 79.3431 41.7103 79.4598 41.781 79.5719C41.8518 79.6841 41.9231 79.7974 41.9957 79.9122C42.0319 79.9696 42.0684 80.0278 42.1053 80.0863C42.1237 80.1152 42.1422 80.1448 42.1608 80.1745C42.1808 80.203 42.2008 80.2315 42.2205 80.2605C42.3007 80.3754 42.3817 80.4922 42.4646 80.6116C42.5064 80.6712 42.548 80.7313 42.5905 80.7921C42.6333 80.8523 42.6803 80.9104 42.7261 80.9705C42.8184 81.0905 42.9121 81.2127 43.0085 81.3381C43.5842 81.846 44.2074 82.5415 44.9101 83.1968C45.6073 83.8542 46.3785 84.4715 47.1046 84.8619L47.439 85.1779C47.6889 85.2953 47.9702 85.4291 48.263 85.5915C48.3359 85.6327 48.4121 85.672 48.4893 85.7118C48.5662 85.7522 48.6445 85.7935 48.7234 85.8352C48.8812 85.9193 49.0419 86.0087 49.2112 86.0904C49.8767 86.4371 50.6207 86.7635 51.3683 86.979C51.7082 87.1532 51.8909 87.2359 51.9739 87.2669C51.9057 87.2477 51.7985 87.229 51.7469 87.2704C51.9629 87.3279 52.2797 87.4406 52.5392 87.525C52.801 87.6026 53.0052 87.6523 52.9927 87.5866L52.889 87.5399C52.8825 87.5069 52.9583 87.5199 53.0833 87.5586C53.1459 87.5778 53.2207 87.6041 53.3038 87.6338C53.3876 87.6625 53.4799 87.6933 53.5764 87.7261C53.7697 87.7905 53.9782 87.8669 54.1729 87.9182C54.3677 87.9716 54.5449 88.0121 54.6712 88.0209L54.3755 88.0694L54.786 88.1709C54.9229 88.2021 55.0586 88.2352 55.1964 88.264C55.1252 88.2386 55.0543 88.2127 54.9841 88.1858C55.8515 88.4782 56.624 88.6631 57.338 88.7914C58.0524 88.92 58.7089 88.9933 59.3582 89.0485C60.0086 89.101 60.6519 89.1333 61.3473 89.1695C62.0429 89.2065 62.7904 89.2373 63.6538 89.2785C63.4233 89.2165 63.5938 89.2295 63.8267 89.2397C63.8849 89.2419 63.9471 89.2445 64.0076 89.2454C64.0683 89.245 64.1278 89.2431 64.1807 89.2384C64.2863 89.2294 64.3647 89.2104 64.3742 89.1723C64.481 89.143 64.5864 89.1205 64.6899 89.1038C64.7935 89.0872 64.8954 89.0709 64.9955 89.0617C65.1964 89.0412 65.3924 89.0421 65.5842 89.043C65.7755 89.0436 65.9638 89.0521 66.1488 89.0591C66.3339 89.0682 66.5144 89.0639 66.6935 89.0552C66.6942 89.0627 66.7043 89.0699 66.7459 89.076L67.0546 89.0324L67.3623 88.9805C67.5671 88.9443 67.7723 88.914 67.9761 88.8729C67.7853 88.8607 67.7463 88.8485 67.7851 88.8471C67.8239 88.8458 67.9393 88.8453 68.0566 88.8453C68.2919 88.8452 68.5367 88.8477 68.1856 88.8306C68.3835 88.7835 68.5863 88.7438 68.7905 88.6925C68.9947 88.6432 69.2025 88.5928 69.4132 88.5421C69.6237 88.4907 69.8355 88.4309 70.0509 88.3763C70.1583 88.3474 70.2673 88.3224 70.3758 88.2907C70.4839 88.2594 70.5926 88.2286 70.7024 88.197C71.1417 88.078 71.584 87.9341 72.0342 87.794C72.2574 87.7179 72.4822 87.6413 72.7082 87.5641C72.822 87.5275 72.9336 87.4845 73.0462 87.4421C73.1589 87.3998 73.2711 87.3579 73.3846 87.3154C73.4972 87.2731 73.6106 87.2305 73.7241 87.188C73.8363 87.1419 73.9485 87.0958 74.0608 87.0497C74.173 87.0036 74.2856 86.9571 74.3984 86.9113L74.5673 86.8418L74.7342 86.7668C74.957 86.6665 75.179 86.5663 75.4018 86.466C75.6218 86.3603 75.8401 86.2507 76.0587 86.1428C76.2758 86.0373 76.4986 85.9208 76.7159 85.8063C76.934 85.6917 77.1489 85.5765 77.3623 85.4594C77.7888 85.2267 78.2028 84.9851 78.6053 84.7387L78.4873 84.8646C78.8975 84.617 79.3643 84.3515 79.7921 84.0781C80.0084 83.9447 80.2109 83.8045 80.399 83.6745C80.5853 83.5419 80.7508 83.4119 80.8887 83.2934C81.4355 82.8161 82.2355 82.4522 82.4604 82.2788C82.6306 82.1729 82.7833 82.0521 82.9143 81.9375C83.0456 81.8224 83.1574 81.7156 83.2363 81.626C83.3949 81.4465 83.4402 81.3546 83.3152 81.4696C83.3966 81.402 83.4793 81.3366 83.5627 81.2723C83.6465 81.2084 83.7314 81.1451 83.8142 81.0784C83.9816 80.9468 84.1562 80.8171 84.3327 80.6747C84.5065 80.529 84.6869 80.3743 84.8721 80.2003C85.0511 80.0208 85.2384 79.8242 85.4255 79.5967C85.4632 79.4949 85.6226 79.3012 85.8397 79.0666C85.9464 78.9473 86.0628 78.8141 86.1878 78.6787C86.2504 78.6107 86.314 78.5413 86.3779 78.4713C86.4413 78.4011 86.5019 78.3276 86.5643 78.2567C86.6876 78.1131 86.8087 77.9717 86.9216 77.8397C87.0286 77.7038 87.1263 77.5766 87.2071 77.4657C87.2884 77.3552 87.3528 77.2609 87.3927 77.1901C87.4311 77.1183 87.4444 77.07 87.4286 77.0534L87.4481 77.0514C87.5387 76.8858 87.6328 76.7254 87.7302 76.5677L87.8031 76.4496L87.8727 76.3301C87.9202 76.2508 87.9674 76.1721 88.0149 76.0928L88.1603 75.8584L88.2338 75.7414L88.3031 75.6223C88.3969 75.4637 88.4909 75.3046 88.5853 75.145L88.6565 75.0251L88.7229 74.902C88.7668 74.8197 88.811 74.7369 88.8547 74.6538C88.8984 74.5707 88.942 74.4868 88.9863 74.4027C89.0081 74.3607 89.0297 74.3179 89.0515 74.276C89.0723 74.2334 89.0911 74.1895 89.1112 74.1457C89.1896 73.9708 89.2662 73.7933 89.3403 73.612C89.3588 73.5665 89.3772 73.521 89.3957 73.4755C89.4127 73.429 89.4279 73.382 89.4439 73.3349C89.4755 73.2403 89.5061 73.1451 89.5355 73.0484C89.5355 73.0484 89.512 73.0725 89.481 73.1189C90.0504 72.1704 90.5426 71.1583 90.9494 70.0953C91.0751 70.447 91.1986 70.8085 91.3194 71.1795C91.2225 72.1906 91.0539 73.2083 90.8061 74.2193C90.245 75.494 89.5559 76.7077 88.7662 77.8431C87.9793 78.9817 87.0815 80.0332 86.1186 81.0091C84.644 82.6299 82.9744 84.0644 81.1902 85.3216C80.0825 86.0535 78.9303 86.7148 77.7669 87.3233L77.3328 87.5483L77.1157 87.6593L76.8917 87.7701L76.4432 87.9913L76.2187 88.1018L75.9909 88.2044C75.3856 88.4841 74.7714 88.744 74.1496 88.9833C71.6609 89.9407 69.047 90.5628 66.404 90.8485C66.0213 90.841 65.6402 90.8386 65.2598 90.8178C63.7128 91.062 61.9158 91.0588 60.1111 90.8974C59.2079 90.8169 58.3024 90.6969 57.4161 90.5572C56.5298 90.4154 55.6633 90.2563 54.8331 90.0963L54.7933 89.9657C54.3329 89.8491 54.1177 89.8034 53.9861 89.7877C53.8545 89.772 53.8071 89.7832 53.6918 89.762C51.5756 89.1592 49.4807 88.3506 47.5196 87.2627C46.5396 86.7191 45.5952 86.1047 44.7084 85.4162C43.8212 84.7282 42.9922 83.9651 42.2432 83.1376C41.4943 82.3109 40.8257 81.4257 40.2398 80.5032C39.6539 79.5807 39.1479 78.6219 38.7166 77.6465C37.8544 75.6939 37.2899 73.678 36.9632 71.6958C36.9193 71.5071 36.8719 71.2184 36.8217 70.8822C36.7995 70.714 36.7824 70.5336 36.7622 70.3483C36.7436 70.1628 36.7214 69.972 36.7113 69.7821C36.6982 69.5924 36.6853 69.4035 36.6732 69.2229C36.6591 69.0423 36.6571 68.869 36.6476 68.7104C36.6397 68.5514 36.631 68.4067 36.622 68.2828C36.6142 68.1591 36.6083 68.0563 36.5983 67.9802C36.6746 66.6768 36.8096 65.3472 37.0124 64.0309C37.2146 62.7142 37.4927 61.4127 37.8268 60.1652L37.7885 60.2561L37.9622 59.6729L38.15 59.0947C38.156 59.0424 38.1445 59.0321 38.1246 59.0669C38.1857 58.9066 38.2516 58.7347 38.3214 58.5535C38.3905 58.3725 38.4553 58.1796 38.5286 57.9823C38.6792 57.5891 38.8319 57.1649 38.9841 56.7306C39.1511 56.3017 39.3215 55.8631 39.4881 55.4347C39.6654 55.0104 39.8479 54.5987 40.0159 54.2133L39.9619 54.296C40.0875 54.0164 40.2361 53.749 40.3749 53.4772C40.4455 53.3422 40.5157 53.2068 40.5863 53.0717L40.6917 52.8694L40.7443 52.7683L40.801 52.6697C40.9526 52.4063 41.1035 52.144 41.2549 51.8819C41.3312 51.7512 41.4051 51.6196 41.4827 51.4899C41.5634 51.362 41.6442 51.235 41.7245 51.1077C41.8856 50.8534 42.0473 50.5993 42.2081 50.3455C42.3758 50.0961 42.5488 49.8516 42.7188 49.6052C43.0522 49.1073 43.423 48.6394 43.7806 48.1637L43.9158 47.9857L44.0571 47.8133L44.3405 47.4695L44.6236 47.1263L44.7652 46.9546L44.8359 46.8688L44.9098 46.7857C45.1073 46.565 45.3048 46.3442 45.502 46.1239L45.7976 45.7937L46.1064 45.4757C46.3121 45.2638 46.5175 45.0524 46.7232 44.8405L46.8001 44.7615L46.8801 44.6852L47.0406 44.533L47.3608 44.2287L47.6809 43.9243L47.8411 43.7726L48.0072 43.6268L48.6714 43.045L48.8371 42.8998L48.9205 42.827L49.0065 42.7575L49.3503 42.4806L50.0378 41.9266L50.7472 41.4003L51.102 41.1376C51.1606 41.093 51.221 41.051 51.2821 41.0101L51.4651 40.8859C51.7089 40.7199 51.9525 40.5545 52.1963 40.3886L52.3797 40.2646L52.5668 40.1459L52.9412 39.9079C53.1955 39.7551 53.4451 39.5965 53.7042 39.4503C53.8331 39.3765 53.9607 39.3004 54.0904 39.2277L54.4823 39.0124C54.6122 38.9392 54.7453 38.8709 54.8779 38.8023C55.011 38.7339 55.1427 38.6633 55.2775 38.5968C55.5474 38.4662 55.8156 38.3309 56.0916 38.2091C56.6383 37.9558 57.2017 37.7296 57.7745 37.5192L58.2073 37.3671C58.3518 37.3168 58.4995 37.2734 58.646 37.2265L58.866 37.1574C58.9393 37.1343 59.0143 37.1152 59.0885 37.0941C59.2375 37.053 59.386 37.0116 59.5353 36.9701C59.6861 36.9337 59.8371 36.8982 59.988 36.8618C60.0633 36.8443 60.1386 36.8246 60.2151 36.8086L60.4447 36.7625C60.5978 36.7333 60.7508 36.699 60.9052 36.6734C61.0602 36.6489 61.2152 36.6244 61.3711 36.5998C61.5145 36.5705 61.6613 36.5554 61.8085 36.5342C61.9551 36.5162 62.104 36.4926 62.2521 36.4797C62.4002 36.4669 62.5496 36.4542 62.6991 36.4415C62.8495 36.4337 63.0005 36.4262 63.1517 36.4182C63.7587 36.3974 64.3787 36.4137 65.0032 36.4703C66.2532 36.5821 67.5186 36.8597 68.7481 37.2664C69.9796 37.67 71.1727 38.2025 72.3276 38.7837C73.484 39.3638 74.6029 39.9959 75.713 40.5908C75.8215 40.6377 76.0539 40.7571 76.3811 40.9399C76.545 41.0321 76.7324 41.1376 76.9387 41.2582C77.1448 41.3815 77.3709 41.5137 77.6108 41.6626C78.5719 42.2535 79.7605 43.0617 80.8818 43.9623L81.0925 44.1301C81.1628 44.1858 81.2328 44.2421 81.3004 44.3009C81.4366 44.4172 81.5731 44.533 81.7077 44.6483C81.981 44.8752 82.2369 45.1145 82.488 45.3452C82.6131 45.4612 82.7395 45.5719 82.8569 45.6879C82.9743 45.8038 83.0901 45.918 83.2027 46.0295C83.3154 46.1409 83.4255 46.2508 83.5332 46.3569C83.6412 46.4625 83.738 46.5735 83.8362 46.6769C84.0295 46.8853 84.2107 47.08 84.375 47.2575C84.5336 47.4404 84.6745 47.6076 84.7976 47.7525C84.92 47.8984 85.0241 48.0219 85.1069 48.1209C85.1912 48.2188 85.245 48.2988 85.2798 48.3454L85.2817 48.348Z" fill="#DED2C2"/>
<path d="M91.9336 62.164L91.9269 62.1237C91.9759 62.1164 91.9688 62.1799 91.9336 62.164Z" fill="#DED2C2"/>
<path d="M79.8613 45.1744C79.879 45.1881 79.8966 45.201 79.9134 45.214L79.6771 45.1167L79.8609 45.1749L79.8613 45.1744Z" fill="#DED2C2"/>
<path d="M88.0974 55.4531C87.807 54.9321 87.8018 54.9034 87.8595 54.9678C87.963 55.1568 88.0505 55.3249 88.0974 55.4531Z" fill="#DED2C2"/>
<path d="M92.1954 67.2954C92.1795 67.6263 92.1577 67.4983 92.1366 67.3026C92.1493 67.1347 92.1615 66.9923 92.1625 66.8919C92.1656 66.7914 92.1681 66.7326 92.1681 66.7326C92.1723 66.8252 92.1795 66.9184 92.1868 67.0117C92.1911 67.1051 92.1948 67.1995 92.1949 67.295L92.1954 67.2954Z" fill="#DED2C2"/>
<path d="M91.5525 65.9525L91.5145 66.0527C91.5209 65.8645 91.5356 65.872 91.5525 65.9525Z" fill="#DED2C2"/>
</svg>
