<svg width="55" height="55" viewBox="0 0 55 55" fill="none" xmlns="http://www.w3.org/2000/svg">
<circle cx="27.4997" cy="27.4997" r="27.4997" fill="#DD8C21"/>
<path d="M36.3967 18.6026H36.4129M19.4116 11.3232H35.5879C40.0549 11.3232 43.6761 14.9444 43.6761 19.4114V35.5877C43.6761 40.0546 40.0549 43.6758 35.5879 43.6758H19.4116C14.9447 43.6758 11.3235 40.0546 11.3235 35.5877V19.4114C11.3235 14.9444 14.9447 11.3232 19.4116 11.3232ZM33.9703 26.4804C34.1699 27.8267 33.94 29.2016 33.3132 30.4097C32.6863 31.6177 31.6945 32.5974 30.4789 33.2092C29.2632 33.8211 27.8855 34.0341 26.5418 33.8179C25.1981 33.6017 23.9568 32.9673 22.9944 32.0049C22.0321 31.0425 21.3977 29.8012 21.1814 28.4575C20.9652 27.1138 21.1782 25.7362 21.7901 24.5205C22.402 23.3048 23.3816 22.313 24.5896 21.6862C25.7977 21.0593 27.1726 20.8294 28.5189 21.029C29.8921 21.2327 31.1635 21.8726 32.1451 22.8542C33.1268 23.8358 33.7667 25.1072 33.9703 26.4804Z" stroke="#DED2C2" stroke-width="4" stroke-linecap="round" stroke-linejoin="round"/>
</svg>
