<svg width="59" height="58" viewBox="0 0 59 58" fill="none" xmlns="http://www.w3.org/2000/svg">
<path d="M8.82083 24.2501C8.85115 24.1984 8.85022 24.1659 8.82083 24.2501Z" fill="#BD2B54"/>
<path d="M37.0331 49.0292C37.0506 49.0263 37.0592 49.0231 37.0765 49.0196C37.1007 48.974 37.1237 48.9347 37.1467 48.9032L37.0331 49.0292Z" fill="#BD2B54"/>
<path d="M43.6702 46.5657C43.6855 46.5592 43.6963 46.5544 43.7111 46.5485C43.6933 46.5316 43.6857 46.5072 43.6702 46.5657Z" fill="#BD2B54"/>
<path d="M20.1987 47.332C20.1404 47.303 20.1039 47.2963 20.075 47.2972C20.1125 47.3046 20.1504 47.3137 20.1987 47.332Z" fill="#BD2B54"/>
<path d="M16.8644 13.2845C16.8644 13.2845 16.8507 13.298 16.8408 13.3079C16.8665 13.2974 16.8915 13.2851 16.9192 13.2764L16.8644 13.2845Z" fill="#BD2B54"/>
<path d="M16.7891 13.4317C16.6418 13.512 16.7895 13.3596 16.8411 13.3078C16.6654 13.3802 16.5169 13.4884 16.3919 13.6285C16.4122 13.6521 16.4872 13.6049 16.5699 13.5518C16.6532 13.4993 16.7432 13.4395 16.7895 13.4318L16.7891 13.4317Z" fill="#BD2B54"/>
<path d="M40.6914 10.1919L40.6097 10.1953C40.6426 10.1974 40.6679 10.1951 40.6914 10.1919Z" fill="#BD2B54"/>
<path d="M19.6959 50.4079C19.6557 50.3979 19.6115 50.3827 19.5743 50.3741C19.6338 50.4001 19.6694 50.407 19.6959 50.4079Z" fill="#BD2B54"/>
<path d="M36.7616 9.17087L36.6985 9.25774C36.7453 9.22577 36.7602 9.19775 36.7616 9.17087Z" fill="#BD2B54"/>
<path d="M37.147 48.9031L37.1915 48.8554C37.1757 48.8675 37.1616 48.8841 37.147 48.9031Z" fill="#BD2B54"/>
<path d="M47.6778 41.4415C47.7061 41.4519 47.7343 41.4479 47.7606 41.4401C47.7642 41.4323 47.7673 41.4265 47.7695 41.4229L47.6781 41.442L47.6778 41.4415Z" fill="#BD2B54"/>
<path d="M41.753 9.51073C41.7496 9.52259 41.7489 9.53678 41.7517 9.55347L41.9145 9.56483C41.8435 9.53224 41.7908 9.51531 41.7534 9.51083L41.753 9.51073Z" fill="#BD2B54"/>
<path d="M50.8207 32.3338C50.811 32.3236 50.8047 32.2994 50.7929 32.2957C50.7332 32.4521 50.6535 32.8771 50.5418 33.4216L50.6516 33.4795C50.7151 33.0972 50.7737 32.7153 50.8208 32.3334L50.8207 32.3338Z" fill="#BD2B54"/>
<path d="M52.8949 21.2146C52.9223 21.6038 52.94 21.9909 52.9483 22.3744C52.7122 21.5014 52.4816 20.7454 52.2512 20.0609C52.0193 19.3768 51.7911 18.7617 51.539 18.1731C51.2873 17.5845 51.0151 17.0203 50.6866 16.4452C50.3575 15.8709 49.9714 15.2851 49.4806 14.6688L49.6227 14.7824C49.5679 14.6805 49.493 14.608 49.3676 14.4916C49.2417 14.3755 49.0742 14.2096 48.8251 13.9276C48.7036 13.7843 48.5548 13.6174 48.3878 13.4069C48.2156 13.2008 48.0208 12.9538 47.787 12.6667C47.6733 12.52 47.5421 12.371 47.4064 12.2044C47.3382 12.1213 47.2676 12.0351 47.1948 11.9459C47.1585 11.9011 47.1216 11.8553 47.0841 11.8086C47.0654 11.7854 47.0467 11.7614 47.0271 11.7385C47.0069 11.7158 46.9869 11.6927 46.9666 11.6691C46.8041 11.4831 46.6321 11.2829 46.4485 11.0666C46.4253 11.0398 46.4028 11.0116 46.3787 10.9851C46.3546 10.9585 46.3301 10.9323 46.3053 10.9051C46.2561 10.8513 46.2058 10.7965 46.155 10.7411C46.0531 10.6289 45.9483 10.5136 45.8404 10.3947L45.8558 10.376C45.7189 10.2629 45.6882 10.3035 45.4497 10.0345C45.5499 10.1454 45.6521 10.2527 45.7487 10.3663L46.0356 10.7086C45.8159 10.5608 45.6036 10.4312 45.3671 10.3C45.2503 10.2326 45.1301 10.161 45.0046 10.0807C44.9417 10.0407 44.878 9.99719 44.8111 9.95293C44.7435 9.91013 44.6738 9.86432 44.602 9.81553C44.4982 9.70785 44.4854 9.63818 44.4962 9.59825C44.3781 9.51815 44.2611 9.4367 44.1423 9.35804L43.7797 9.13087C43.6587 9.05578 43.5386 8.97886 43.4167 8.90561L43.0465 8.69289C42.9234 8.55905 42.802 8.42029 42.6729 8.29232C42.4227 8.20119 42.3107 8.25675 42.1204 8.2307C42.0259 8.21642 41.9092 8.18794 41.7453 8.11069C41.5811 8.0346 41.3717 7.90617 41.0761 7.71957C41.2634 7.93394 41.0925 7.89103 40.8903 7.8177C40.7886 7.78151 40.6801 7.735 40.601 7.71388C40.5223 7.6921 40.4762 7.68954 40.5035 7.73289C40.4516 7.67968 40.3238 7.57786 40.2225 7.49132C40.1748 7.47236 40.1243 7.45273 40.0721 7.43183C40.0191 7.41277 39.9635 7.39264 39.9064 7.37175C39.7919 7.33111 39.6703 7.28787 39.5449 7.24327C39.4192 7.19982 39.2878 7.15984 39.1571 7.11842C39.0916 7.09829 39.0258 7.07767 38.9607 7.05763C38.8947 7.03943 38.8296 7.02103 38.7648 7.00312C38.2486 6.85711 37.7742 6.76836 37.5771 6.77096C37.5771 6.77096 37.6226 6.79223 37.7037 6.83022C37.7846 6.86899 37.9019 6.92141 38.0423 6.99275C38.1828 7.0637 38.3497 7.14375 38.5274 7.24127C38.6167 7.28912 38.7096 7.3391 38.805 7.39014C38.9001 7.44272 38.9963 7.49887 39.0946 7.55512C39.2912 7.66559 39.4887 7.78898 39.6815 7.90958C39.7297 7.93973 39.7776 7.96979 39.825 7.99974C39.8717 8.03114 39.918 8.06207 39.964 8.09289C40.0551 8.15473 40.1444 8.21569 40.2306 8.27424C40.2732 8.30381 40.3151 8.3328 40.3564 8.3612C40.3971 8.39028 40.4363 8.42022 40.4743 8.44863C40.5506 8.50592 40.6226 8.56051 40.6892 8.61209C40.822 8.71517 40.9326 8.80403 41.0103 8.88014C40.8912 8.80882 40.7945 8.75952 40.721 8.72056C40.6471 8.6819 40.5949 8.65609 40.5608 8.64013C40.4916 8.60842 40.493 8.61778 40.5296 8.6483C40.6029 8.7106 40.8191 8.85592 40.8985 8.93984L40.989 8.92238C41.2708 9.09893 41.3956 9.21598 41.4809 9.31737C41.566 9.41953 41.6156 9.49966 41.7483 9.59656C41.7541 9.58653 41.7522 9.56964 41.7512 9.55256L41.7053 9.54885C41.6905 9.5115 41.7151 9.50496 41.7528 9.50992C41.7606 9.47906 41.7991 9.47272 41.9516 9.56762L41.9144 9.56402C41.9767 9.5936 42.0499 9.62879 42.124 9.67324C42.1983 9.71731 42.2759 9.76592 42.3512 9.81394C42.5017 9.91038 42.6431 10.0054 42.7286 10.0633L42.6677 10.167C42.7993 10.1853 43.0246 10.3255 43.2951 10.5304C43.4294 10.6342 43.5692 10.7616 43.7168 10.8942C43.7903 10.9611 43.8648 11.0302 43.9402 11.1004C44.014 11.1727 44.0863 11.2491 44.1593 11.324C44.3044 11.4761 44.4513 11.6262 44.5869 11.7771C44.7199 11.9303 44.8477 12.078 44.9654 12.2138C45.024 12.2806 45.0805 12.3448 45.1331 12.4048C45.1839 12.4671 45.2317 12.5251 45.2758 12.578C45.3646 12.6835 45.4395 12.7675 45.4974 12.8227C45.6841 13.0919 45.9331 13.3467 46.2112 13.6044C46.352 13.7316 46.4886 13.8701 46.6241 14.0132C46.6578 14.0491 46.6918 14.0852 46.7247 14.1225C46.757 14.1602 46.7889 14.1981 46.8202 14.2367C46.8829 14.314 46.9438 14.3933 47.0015 14.4754C47.3912 14.9797 47.4464 15.1375 47.4549 15.2307C47.4616 15.3251 47.4165 15.3609 47.5598 15.6463C47.6612 15.8157 47.7105 15.8888 47.7334 15.9056C47.7567 15.9221 47.7536 15.8824 47.7438 15.8282C47.7249 15.7205 47.6748 15.5607 47.7724 15.6865C47.8418 15.8315 47.9074 15.9784 47.9744 16.1232L48.1646 16.563C47.8517 16.1137 47.9553 16.4022 47.9708 16.5103C48.1833 16.8548 48.4037 17.3293 48.594 17.7363C48.7859 18.143 48.958 18.4786 49.1197 18.5385C49.3072 19.0544 49.3617 19.3277 49.4033 19.5214C49.4241 19.6181 49.4367 19.6971 49.4569 19.7781C49.4763 19.8593 49.5031 19.9423 49.5416 20.052C49.5266 19.8912 49.4438 19.5903 49.4881 19.569C49.5553 20.012 49.5914 19.7524 49.5454 19.5776C49.7249 19.8642 49.9406 20.7137 50.0854 21.501C50.2365 22.2878 50.3317 23.0143 50.4765 23.0535L50.4299 23.0644C50.655 23.1725 50.7853 22.8821 50.9947 23.3222L50.9758 23.6509C51.0356 23.8013 51.0948 23.9527 51.1537 24.1053C51.1535 24.4362 51.0714 24.2893 51.0481 24.2937C51.2884 25.0357 51.3319 26.1187 51.3612 27.046C51.5176 26.7071 51.6661 26.3605 51.8054 26.0067C51.7924 26.4131 51.7408 26.9797 51.7073 27.4594C51.6976 27.5796 51.6902 27.6942 51.6857 27.8001C51.6822 27.9058 51.6762 28.0032 51.6775 28.0876C51.679 28.2565 51.6975 28.3756 51.7392 28.4152C51.6774 28.5748 51.6193 28.7329 51.5553 28.8899C51.4613 29.2838 51.4121 29.5467 51.3993 29.7333C51.3829 29.9195 51.4017 30.0292 51.4298 30.1101C51.4852 30.2717 51.5771 30.3189 51.498 30.6305L51.3588 31.0167L51.2132 31.3989L51.2631 31.0075L51.3062 30.6155C51.2167 31.0028 51.1428 31.2709 51.0644 31.5178C50.9861 31.7644 50.9037 31.9898 50.7898 32.2868C50.7917 32.2873 50.792 32.2943 50.7936 32.2943C50.8089 32.2531 50.8227 32.2274 50.8356 32.2237L50.8214 32.3325C50.901 32.4418 50.8999 32.8595 50.7786 33.4045C50.6833 33.789 50.6329 34.1402 50.5412 34.5445C50.4491 34.9488 50.314 35.4054 50.0433 35.9985L50.1496 36.3624L49.7727 37.2754L49.6192 37.2336C49.6852 37.0016 49.7625 36.7151 49.8445 36.4047C49.9267 36.0935 50.0129 35.7551 50.0979 35.4102C50.1825 35.0652 50.2638 34.7132 50.3394 34.3745C50.4142 34.0361 50.4822 33.7111 50.5417 33.4201L50.4752 33.3845C50.4033 33.7282 50.3357 34.0988 50.2686 34.4412C50.2007 34.7835 50.1335 35.0967 50.0652 35.3232C49.9761 35.5375 49.6591 36.0649 49.6693 35.6225L49.7014 36.0924C49.5431 36.6772 49.4237 37.1169 49.3242 37.4856C49.2225 37.8415 49.1356 38.1273 49.036 38.4111C48.9372 38.6951 48.8283 38.9787 48.68 39.3278C48.5313 39.6764 48.3441 40.092 48.0722 40.6263C48.1234 40.5727 48.1757 40.5194 48.2256 40.4646C48.0909 40.9242 47.9332 41.3743 47.7607 41.4389C47.6032 41.759 47.4328 42.0751 47.2534 42.3766C47.0723 42.6765 46.8828 42.9623 46.6899 43.2244C46.3016 43.7466 45.9004 44.1717 45.5491 44.4501C45.558 44.5389 45.5653 44.6273 45.5728 44.7169C45.4788 44.8266 45.3038 44.9127 45.1709 45.0073C45.0338 45.098 44.938 45.1986 44.9842 45.3378C44.9235 45.4197 44.8635 45.5031 44.8019 45.5852L44.6131 45.8278C44.5389 45.8912 44.4769 45.9535 44.4195 46.0154C44.3627 46.0783 44.3062 46.135 44.2484 46.1939C44.2193 46.2231 44.1896 46.2518 44.1578 46.2803C44.126 46.3088 44.0916 46.335 44.0549 46.3619C44.0178 46.3887 43.9784 46.4149 43.9355 46.4406C43.9138 46.4532 43.8917 46.4661 43.8681 46.4786C43.8438 46.4902 43.8187 46.502 43.793 46.5131L43.7907 46.5142C43.7649 46.5253 43.7378 46.537 43.7107 46.547C43.714 46.5515 43.7191 46.554 43.7239 46.5565C43.5361 46.6721 43.4515 46.7395 43.4094 46.7781C43.3689 46.8184 43.3784 46.8364 43.3837 46.8562C43.3893 46.876 43.391 46.8974 43.3351 46.9449C43.2782 46.9904 43.1689 47.0696 42.9368 47.1804C42.7624 47.2104 42.7212 47.3124 42.6582 47.4278C42.6274 47.4866 42.5929 47.5505 42.5373 47.6136C42.4811 47.6758 42.4063 47.7415 42.2875 47.79L41.9994 47.7907L41.8572 47.7903L41.7136 47.7854C41.6026 47.8178 41.5058 47.8505 41.4184 47.8848C41.3747 47.9021 41.3328 47.9186 41.2927 47.9348C41.2524 47.9514 41.2137 47.9683 41.1769 47.9857C41.0287 48.0552 40.9035 48.134 40.7627 48.2144C40.6231 48.2966 40.4739 48.3912 40.2753 48.4861C40.2262 48.5103 40.174 48.5353 40.1188 48.5608C40.0635 48.5867 40.0053 48.6127 39.9418 48.637C39.8153 48.6864 39.6744 48.7397 39.5131 48.7923C39.3495 48.8168 39.2045 48.8276 39.0846 48.8245C38.9648 48.8215 38.8681 48.8001 38.8045 48.769C38.6769 48.7058 38.6776 48.5932 38.8533 48.4392C38.6064 48.6352 38.5514 48.6923 38.4703 48.7396C38.3872 48.7844 38.2792 48.8225 37.9105 48.9715C37.7688 48.8986 37.8476 48.8609 37.9939 48.7324C37.2915 48.7705 37.5975 48.9191 37.0785 49.0181C37.0501 49.0725 37.0214 49.1342 36.9914 49.1968C36.961 49.2589 36.9297 49.3216 36.8968 49.3789C36.8306 49.494 36.7567 49.5874 36.6713 49.609L36.8882 49.6306C36.8199 49.6557 36.7506 49.6802 36.6803 49.7039C36.6099 49.7277 36.5385 49.7508 36.4654 49.7693C36.3195 49.8082 36.1688 49.8429 36.0147 49.8719C35.8606 49.9009 35.7026 49.9244 35.5406 49.9407C35.5001 49.9449 35.4594 49.9486 35.4185 49.9515C35.3775 49.9531 35.3359 49.9537 35.2943 49.9544C35.2113 49.9552 35.1274 49.9543 35.0426 49.9506L35.057 49.8525L34.3541 49.9746L34.2992 49.8571C33.9638 49.8943 33.6272 49.9246 33.2904 49.9594L33.431 49.984C33.3717 49.9917 33.2786 50.0032 33.1651 50.0157C33.1083 50.0232 33.0462 50.0252 32.9809 50.0289C32.9154 50.0317 32.8469 50.0351 32.7765 50.0379C32.4946 50.0479 32.1864 50.0489 31.9627 50.0218L31.9791 49.9533C31.6638 49.8955 31.3643 49.865 31.0674 49.8565C30.9933 49.8543 30.919 49.8529 30.8452 49.8528C30.7713 49.8532 30.6975 49.8482 30.6234 49.8476C30.4752 49.8448 30.3267 49.8453 30.1756 49.8475C30.0249 49.8499 29.8722 49.8538 29.716 49.8581C29.638 49.8619 29.5594 49.8581 29.48 49.8574C29.4004 49.8559 29.3199 49.8546 29.2383 49.853C29.0751 49.8493 28.9079 49.8442 28.7348 49.836C28.6485 49.8316 28.5605 49.828 28.4712 49.8207C28.3826 49.8112 28.2921 49.8008 28.2004 49.7888L28.4102 49.6783C27.9314 49.4699 28.2457 49.8712 27.6593 49.7174L27.6552 49.5441C27.5165 49.5802 27.4044 49.5923 27.3106 49.5802C27.217 49.5678 27.1405 49.5375 27.0714 49.4992C26.9324 49.4221 26.8214 49.3105 26.6518 49.2364L26.7774 49.4873L26.4448 49.4022C26.334 49.3731 26.2227 49.3477 26.1137 49.3129C25.3941 49.0736 25.7266 48.9352 25.857 48.8441L25.3217 48.9045L25.2717 48.6906C25.1677 48.7276 25.0947 48.7323 25.032 48.7255C24.9694 48.7184 24.9184 48.6962 24.8597 48.6687C24.7418 48.6137 24.5953 48.5372 24.2652 48.5125C24.2342 48.4268 24.4039 48.4276 24.2002 48.3403C24.1077 48.3413 24.017 48.3349 23.9252 48.3312L23.6501 48.3179L23.0958 48.2907L23.7508 48.3657L23.5909 48.6188C23.2343 48.6212 23.0142 48.5474 22.8265 48.4585C22.64 48.3649 22.4834 48.2633 22.2413 48.2197L22.5848 48.2514C22.2008 48.1509 22.0086 48.0686 21.8638 47.9851C21.7204 47.8982 21.6253 47.8062 21.4312 47.6939C21.5386 47.7955 21.7062 47.9496 21.3951 47.8641C21.1711 47.7906 21.3148 47.7217 21.1215 47.6092C21.0604 47.6878 20.8873 47.6993 20.6753 47.6518C20.466 47.5984 20.2168 47.4883 20.0009 47.3402C20.0184 47.3179 20.0393 47.2985 20.0771 47.2965C19.9445 47.2707 19.8612 47.2874 19.6724 47.1506L19.887 47.013C19.724 47.0168 19.566 47.0075 19.4046 47.0035C19.1701 46.8187 18.716 46.7633 18.8175 46.653L18.9858 46.69L18.7418 46.5594C18.6604 46.516 18.5815 46.4674 18.5015 46.4219L18.262 46.283C18.1822 46.2364 18.1016 46.1915 18.0238 46.142L17.5531 45.8524C17.3974 45.7539 17.2447 45.6516 17.0901 45.5516L17.1552 45.3904C16.9987 45.4356 16.7611 45.25 16.5493 45.0935C16.4965 45.054 16.445 45.0173 16.3976 44.984C16.3506 44.9505 16.3068 44.9227 16.2679 44.9043C16.1902 44.8676 16.1308 44.869 16.1036 44.9397C16.0411 44.847 15.9217 44.7493 15.785 44.6502C15.6506 44.5484 15.4978 44.4464 15.3647 44.3523C15.2304 44.26 15.1215 44.1678 15.0676 44.0968C15.0142 44.0252 15.0183 43.9713 15.1172 43.9432C15.0477 43.8868 14.9795 43.8332 14.9122 43.7814C14.8784 43.7557 14.845 43.7305 14.8119 43.7054C14.7793 43.6799 14.7471 43.6546 14.7156 43.6299C14.5878 43.5314 14.4626 43.4401 14.3393 43.3529C14.2767 43.3101 14.2178 43.2654 14.1578 43.2216C14.0977 43.1783 14.0384 43.1351 13.979 43.0923C13.8608 43.006 13.7387 42.9241 13.6232 42.8319C13.5061 42.7414 13.3876 42.6481 13.2664 42.5492C13.2052 42.5006 13.1459 42.4475 13.0863 42.3928C13.0262 42.3379 12.9657 42.2817 12.9042 42.2228C12.8427 42.1639 12.7805 42.1027 12.7173 42.0393C12.6552 41.9745 12.5942 41.9055 12.531 41.8338C12.4682 41.7623 12.4046 41.6872 12.3397 41.609C12.2738 41.5318 12.2109 41.4475 12.1469 41.3592C12.0467 41.0347 11.7047 40.5756 11.3374 40.0634C11.2906 40 11.2431 39.9359 11.1953 39.8714C11.1465 39.8075 11.1023 39.7402 11.0552 39.6747C10.9616 39.5429 10.8675 39.411 10.7751 39.2812C10.6015 39.0153 10.4241 38.7628 10.2933 38.5241C10.2175 38.4144 10.143 38.3075 10.0702 38.2023C10.0012 38.0948 9.93382 37.9892 9.86754 37.8857C9.83421 37.8338 9.80116 37.7825 9.76841 37.7316C9.75184 37.7061 9.73567 37.6807 9.71939 37.6557C9.70417 37.6297 9.68885 37.6042 9.67392 37.5787C9.61315 37.4761 9.55324 37.3749 9.49419 37.2751C9.37158 37.0774 9.2697 36.8755 9.16098 36.6796C9.13401 36.6302 9.10734 36.5813 9.08067 36.5323C9.05486 36.4832 9.03098 36.4329 9.00614 36.3832C8.95694 36.2835 8.90803 36.1843 8.85874 36.0849C8.66531 35.6857 8.48955 35.2766 8.32163 34.8362C8.27601 34.7271 8.24062 34.6132 8.20041 34.4989C8.16116 34.3841 8.12077 34.2673 8.08018 34.148C8.04219 34.0282 8.00786 33.9051 7.97046 33.7797C7.95219 33.7168 7.93324 33.6534 7.91449 33.5893C7.90535 33.557 7.89585 33.5247 7.88633 33.4924C7.87816 33.4595 7.87038 33.4268 7.86231 33.3936C7.87792 33.222 7.87751 33.0456 7.86486 32.864C7.85858 32.6815 7.84285 32.4942 7.81661 32.3031C7.80165 32.2075 7.79404 32.1104 7.78092 32.0124C7.76857 31.9145 7.75439 31.8158 7.73924 31.7161C7.73206 31.6663 7.72284 31.6164 7.71575 31.5662C7.70953 31.5158 7.70371 31.4656 7.69749 31.4152C7.68389 31.3142 7.67038 31.2128 7.65698 31.111L7.63552 30.9579L7.62111 30.8046C7.61156 30.7021 7.6023 30.6001 7.59305 30.4981C7.58866 30.447 7.58417 30.3963 7.57968 30.3455C7.57558 30.2949 7.57565 30.244 7.57358 30.1934C7.57069 30.0922 7.56877 29.9921 7.5679 29.8926C7.56164 29.6938 7.57958 29.4981 7.59897 29.3098C7.60987 29.2158 7.61875 29.1233 7.63775 29.0329C7.65665 28.9429 7.67747 28.855 7.701 28.7695L7.64458 28.5695L7.6165 28.469C7.60775 28.4352 7.60055 28.4018 7.59229 28.3677C7.64132 28.2558 7.68264 28.1353 7.71827 28.0081C7.73705 27.9447 7.75072 27.8788 7.76989 27.8123C7.78829 27.7455 7.80553 27.6769 7.82142 27.607C7.88219 27.3258 7.94743 27.0235 8.01518 26.7095C8.16034 26.0823 8.35648 25.4073 8.70333 24.823C8.75865 24.4932 8.80088 24.3233 8.82421 24.25C8.79473 24.3037 8.73386 24.3795 8.63122 24.3701C8.65692 24.3282 8.68216 24.28 8.70768 24.2273C8.73388 24.1753 8.76191 24.1191 8.7887 24.0615C8.84265 23.9462 8.8964 23.8252 8.94783 23.7184C8.99772 23.6111 9.05407 23.5207 9.10198 23.4638C9.15105 23.4072 9.19583 23.3857 9.23468 23.4188L9.21219 23.5165C9.25143 23.5497 9.29606 23.4978 9.34662 23.396C9.39756 23.2944 9.45097 23.1421 9.51954 22.9785C9.58695 22.8145 9.6564 22.6343 9.73808 22.4788C9.82015 22.3235 9.90625 22.1896 9.99441 22.1146L9.69628 22.2255L9.88453 21.9069L10.0808 21.5924L10.0197 21.785C10.0558 21.6903 10.0922 21.5977 10.1286 21.5064C10.165 21.4155 10.2014 21.3262 10.2411 21.2398C10.3191 21.0666 10.3969 20.9003 10.4761 20.7402C10.5585 20.5816 10.6407 20.4292 10.7231 20.2821C10.7638 20.2083 10.806 20.1364 10.849 20.0664C10.8924 19.9965 10.9348 19.9276 10.9769 19.8594C11.0197 19.7918 11.0616 19.7244 11.1051 19.6591C11.1493 19.5943 11.1932 19.5303 11.2366 19.4669C11.3248 19.341 11.4102 19.2164 11.5011 19.0982C11.5908 18.9792 11.6804 18.8626 11.7691 18.7475C11.8611 18.6345 11.952 18.5223 12.0428 18.4106C12.4104 17.9673 12.7817 17.5372 13.1761 17.0673C13.5696 16.5964 13.9784 16.0802 14.4335 15.4619C14.3741 15.6853 14.4581 15.5583 14.5826 15.394C14.6451 15.3116 14.7178 15.22 14.7879 15.158C14.8586 15.097 14.9271 15.0675 14.9782 15.1057C15.0745 15.0684 15.1619 15.0243 15.2415 14.9749C15.3208 14.9255 15.3931 14.8711 15.4611 14.8143C15.5967 14.7004 15.7071 14.5677 15.8092 14.4309C15.9124 14.2957 16.0044 14.153 16.0972 14.0139C16.1908 13.8762 16.2872 13.7454 16.3938 13.6278C16.386 13.6181 16.3823 13.602 16.3976 13.564C16.6868 13.3396 16.9796 13.1195 17.2777 12.9089C17.1145 13.2338 17.2307 13.062 17.3494 12.8814C17.4081 12.7899 17.4706 12.6993 17.4965 12.6665C17.5229 12.6333 17.5125 12.6582 17.4315 12.8011C18.0411 12.425 18.69 12.0212 19.3792 11.6237C20.068 11.2257 20.7976 10.8339 21.5605 10.4824C22.3227 10.1304 23.1173 9.81635 23.9251 9.56719C24.7326 9.31716 25.5519 9.13323 26.3605 9.02454L26.2055 8.9688C26.4096 8.9335 26.6278 8.90092 26.848 8.86187C26.9577 8.84143 27.0698 8.82611 27.1807 8.80924C27.2921 8.79334 27.4029 8.77685 27.5122 8.76123C27.7323 8.73734 27.9461 8.7143 28.1458 8.70785C28.3458 8.70351 28.53 8.70669 28.69 8.73087C28.8501 8.75631 29.0153 8.75184 29.1778 8.7303C29.3407 8.71174 29.5013 8.67824 29.6501 8.63931C29.7988 8.59914 29.9368 8.5628 30.0528 8.53002C30.1691 8.49811 30.2632 8.47457 30.3257 8.47097C30.5019 8.43892 30.6745 8.43388 30.8289 8.4431C30.9832 8.45271 31.1194 8.48199 31.2236 8.51103C31.4318 8.57067 31.5122 8.6409 31.3622 8.62743C31.7381 8.62627 32.108 8.56777 32.5167 8.54078C32.7207 8.52555 32.9344 8.52385 33.1616 8.53536C33.2752 8.54175 33.3919 8.55547 33.513 8.57315C33.6338 8.59199 33.7588 8.61353 33.8875 8.64791C34.0491 8.80659 34.7692 8.83316 35.4523 8.89106C36.1349 8.94596 36.7784 9.01771 36.7629 9.17091L36.7794 9.14797C37.4249 9.38836 38.0764 9.49987 38.7443 9.62162C39.4113 9.74395 40.0935 9.87874 40.7792 10.1715C40.7792 10.1715 40.7462 10.1853 40.6924 10.1919C41.7405 10.1635 42.7979 10.1582 43.8591 10.1659C43.6844 9.75576 43.508 9.34401 43.3278 8.93456C42.559 8.41136 41.7786 7.89635 40.9809 7.393C38.6076 6.81107 36.178 6.33685 33.6947 6.1112C33.4499 6.06696 33.2024 6.03189 32.9558 5.99296C32.7088 5.95595 32.4601 5.92386 32.2117 5.89061C31.7135 5.83116 31.213 5.77644 30.708 5.74072C29.6995 5.66552 28.678 5.63709 27.6494 5.67947L27.1827 5.7284L26.7163 5.7893C26.5606 5.80805 26.4057 5.83395 26.2507 5.8582C26.0958 5.88371 25.9404 5.90497 25.7859 5.9355C25.1664 6.04245 24.551 6.18529 23.9389 6.3429C23.6352 6.42866 23.3299 6.50949 23.0301 6.60731L22.8045 6.67779L22.6918 6.71309L22.5801 6.75147L22.1336 6.90597C21.9846 6.95715 21.8389 7.01614 21.6915 7.07099L21.4711 7.1547C21.3974 7.18212 21.3255 7.21369 21.2528 7.24343L20.8175 7.4237L20.3879 7.61565C18.1022 8.6532 16.0081 10.0444 14.1452 11.6639L13.824 12.0984L13.7443 12.2067L13.667 12.3169L13.5125 12.5369C12.9144 12.9524 12.3298 13.4659 11.7709 14.0425C11.2111 14.6189 10.6773 15.2584 10.1712 15.9249C9.6643 16.5913 9.18401 17.284 8.72148 17.9697C8.25847 18.6556 7.81495 19.3326 7.36732 19.9769L7.50843 20.1304C7.40472 20.323 7.32005 20.4592 7.25453 20.5617C7.18863 20.6641 7.13705 20.7291 7.09388 20.7753C7.00715 20.8675 6.95407 20.8845 6.88799 20.9729C6.42205 21.8878 6.00208 22.8385 5.65261 23.8253C5.30218 24.8111 5.01897 25.8313 4.82352 26.8744C4.62778 27.9171 4.51999 28.9834 4.51709 30.0503C4.51351 31.1166 4.61183 32.1723 4.79594 33.2C5.16444 35.2575 5.86997 37.1978 6.7832 38.9626C7.23991 39.8455 7.75117 40.6875 8.30059 41.482C8.84923 42.2764 9.43527 43.0248 10.0434 43.7308C10.0928 43.8071 10.1605 43.8984 10.242 44C10.3241 44.101 10.4162 44.2161 10.5244 44.3306C10.6311 44.4464 10.7468 44.5689 10.8667 44.6942C10.8966 44.7255 10.9268 44.7568 10.957 44.7886C10.9882 44.8194 11.0194 44.8502 11.0511 44.8811C11.1139 44.9428 11.1775 45.0048 11.2407 45.0666C11.744 45.5633 12.2603 46.014 12.4341 46.2463C12.4969 46.2888 12.56 46.3316 12.623 46.3745C12.6861 46.4174 12.7506 46.4578 12.8143 46.4997C12.9413 46.5836 13.069 46.6678 13.1968 46.752C13.3227 46.8385 13.4541 46.9179 13.5824 47.0017C13.7107 47.0852 13.8395 47.1684 13.9685 47.2525C14.0986 47.334 14.229 47.4155 14.3595 47.4971C14.4894 47.5789 14.6184 47.663 14.7509 47.7414C15.0145 47.9003 15.2745 48.0656 15.5412 48.2187L15.9378 48.454C16.0713 48.5298 16.2048 48.6055 16.338 48.6812C16.6026 48.8362 16.8732 48.9788 17.1401 49.1262C17.2726 49.2013 17.4091 49.2684 17.5442 49.338C17.6794 49.4072 17.8138 49.4762 17.9482 49.5452C18.0827 49.6143 18.2162 49.6835 18.3499 49.7523C18.416 49.7878 18.4848 49.8178 18.5522 49.8498C18.6201 49.8817 18.6877 49.913 18.7552 49.9447L18.6636 49.9271L19.183 50.142L19.4424 50.2493L19.5721 50.3028L19.7038 50.3514C19.7415 50.3843 19.7379 50.4084 19.6985 50.4088C20.0092 50.4876 20.3527 50.6029 20.7157 50.7416C21.0825 50.8698 21.4724 51.0145 21.8675 51.1723C22.2669 51.3198 22.6744 51.4705 23.073 51.6177L23.1477 51.6455L23.223 51.6706C23.2729 51.6872 23.3234 51.7036 23.373 51.7201C23.4726 51.7529 23.5714 51.7855 23.6691 51.8178C23.8652 51.8814 24.0568 51.9435 24.2418 52.0035L24.1489 52.001L24.354 52.0566L24.5606 52.1044C24.6984 52.1357 24.836 52.1674 24.9737 52.1987C25.1115 52.23 25.2489 52.2608 25.3863 52.292L25.5924 52.3384C25.6615 52.3525 25.7307 52.3641 25.7996 52.3773C26.0761 52.4275 26.3518 52.4778 26.6276 52.5278L26.834 52.5649C26.9028 52.5768 26.9726 52.5849 27.0413 52.5952C27.1797 52.6143 27.318 52.6335 27.4563 52.6526C28.5603 52.8166 29.6678 52.8879 30.7684 52.9293C31.0439 52.9316 31.3192 52.9343 31.5943 52.9365C31.7317 52.9365 31.8689 52.9406 32.0062 52.9374L32.4181 52.9239C32.6924 52.9144 32.9663 52.9048 33.2399 52.8952C33.5132 52.8748 33.7862 52.8543 34.0587 52.8338L34.4676 52.8027C34.6036 52.7889 34.7392 52.7716 34.8751 52.7561C35.1465 52.7242 35.4178 52.6922 35.6887 52.6602C35.7565 52.6534 35.8239 52.6412 35.8913 52.6307L36.0935 52.5982L36.4977 52.5336C36.767 52.49 37.0363 52.4498 37.3048 52.395C37.5734 52.3459 37.8415 52.2861 38.1097 52.2291C38.2438 52.1997 38.3776 52.1668 38.5113 52.1356L38.7119 52.0883L38.9122 52.0369L39.3129 51.9324L39.7123 51.8182C39.8458 51.7816 39.9781 51.7397 40.1109 51.6976C40.2433 51.6554 40.3766 51.6163 40.5085 51.5711L40.9048 51.4351L41.004 51.401L41.1026 51.3642L41.3 51.2903C41.5638 51.1954 41.8238 51.0843 42.0854 50.9785C42.2154 50.923 42.3446 50.864 42.4742 50.8067L42.6687 50.7198L42.8611 50.6266C42.9893 50.5636 43.1183 50.5037 43.246 50.4382L43.627 50.2373L43.7221 50.1869L43.8163 50.1335L44.0041 50.0256C44.1293 49.9533 44.2555 49.8837 44.3779 49.8045L44.7477 49.5733C44.8692 49.4927 44.9894 49.4092 45.1105 49.3273C45.1706 49.2853 45.2318 49.2458 45.2911 49.2024L45.4685 49.071L45.6459 48.9392C45.7049 48.8953 45.7647 48.8517 45.8216 48.8049C46.0532 48.6223 46.2806 48.4337 46.5009 48.2372C47.3847 47.4534 48.1733 46.5666 48.8694 45.6188C49.5577 44.7642 50.1438 43.7889 50.6331 42.7531C51.1238 41.7168 51.5216 40.6207 51.8598 39.504C51.9011 39.3642 51.9428 39.2242 51.9841 39.084C52.0239 38.9435 52.0633 38.8029 52.1032 38.6619C52.1414 38.521 52.1794 38.3796 52.2178 38.2383C52.2542 38.0998 52.2902 37.9612 52.3267 37.8223C52.4643 37.2938 52.6166 36.741 52.7676 36.1805C53.0707 35.0566 53.3679 33.8926 53.6326 32.711C53.6544 32.6582 53.6784 32.5707 53.7073 32.4525C53.7213 32.3933 53.7364 32.3269 53.7525 32.253C53.7678 32.1789 53.7828 32.0978 53.7991 32.01C53.8646 31.6594 53.9305 31.201 53.9847 30.6695C54.0386 30.138 54.0792 29.5322 54.0895 28.8896C54.1004 28.2468 54.0828 27.5673 54.0329 26.8903C53.9835 26.2131 53.9014 25.5387 53.7979 24.9054C53.7708 24.7472 53.7435 24.5911 53.7172 24.438C53.6869 24.2857 53.6573 24.1359 53.628 23.9895C53.6208 23.9528 53.6135 23.9166 53.6062 23.8803C53.5988 23.846 53.5914 23.8118 53.5844 23.7776C53.5698 23.71 53.555 23.6431 53.5408 23.5772C53.5108 23.4433 53.4815 23.3133 53.4532 23.1877C53.3357 22.6804 53.218 22.2362 53.1184 21.8962C53.0193 21.5559 52.9385 21.3187 52.8976 21.217L52.8949 21.2146Z" fill="#BD2B54"/>
<path d="M44.4958 9.59958L44.5275 9.62114C44.575 9.55182 44.51 9.54458 44.4958 9.59958Z" fill="#BD2B54"/>
<path d="M51.3615 27.1044C51.3611 27.0846 51.3606 27.0652 51.36 27.0466L51.2555 27.2701L51.3615 27.1044Z" fill="#BD2B54"/>
<path d="M47.6841 16.1328C47.753 16.2436 47.8061 16.3279 47.8456 16.3912C47.8856 16.4541 47.9135 16.4947 47.9332 16.5194C47.9722 16.5681 47.9767 16.5504 47.9706 16.5107C47.9206 16.4305 47.872 16.3564 47.8246 16.292C47.7767 16.2278 47.7285 16.1747 47.6845 16.1329L47.6841 16.1328Z" fill="#BD2B54"/>
<path d="M40.2697 7.40591C40.1312 7.34161 40.0832 7.33365 40.0883 7.35584C40.0935 7.37765 40.1508 7.43183 40.2221 7.49278C40.3659 7.55023 40.4881 7.59937 40.5743 7.6337C40.6171 7.65102 40.6513 7.66495 40.6744 7.67443C40.6973 7.68429 40.7099 7.68989 40.7099 7.68989C40.5625 7.60205 40.4233 7.49492 40.2697 7.40591Z" fill="#BD2B54"/>
<path d="M40.8986 8.94091C40.8617 8.94724 40.8253 8.95367 40.788 8.96154C40.9475 9.02209 40.9518 8.99856 40.8986 8.94091Z" fill="#BD2B54"/>
<path d="M13.6203 23.3405C13.6449 23.3005 13.6507 23.2774 13.6203 23.3405Z" fill="#BD2B54"/>
<path d="M32.5092 45.4685C32.5234 45.4675 32.5302 45.4667 32.544 45.4661C32.5686 45.4483 32.5919 45.4331 32.6142 45.4214L32.5091 45.4689L32.5092 45.4685Z" fill="#BD2B54"/>
<path d="M38.1304 44.5318C38.1433 44.529 38.152 44.5267 38.164 44.5241C38.1579 44.5161 38.161 44.5051 38.1304 44.5318Z" fill="#BD2B54"/>
<path d="M19.8112 42.3732C19.769 42.3457 19.7434 42.3344 19.7235 42.3281C19.7497 42.3405 19.7766 42.3534 19.8112 42.3732Z" fill="#BD2B54"/>
<path d="M20.4843 15.4438C20.4843 15.4438 20.4725 15.4525 20.4638 15.459C20.4827 15.4501 20.5014 15.4402 20.5214 15.4319L20.484 15.4433L20.4843 15.4438Z" fill="#BD2B54"/>
<path d="M20.403 15.531C20.2909 15.5922 20.4192 15.4928 20.4638 15.4589C20.3341 15.5182 20.2186 15.5991 20.1083 15.6904C20.1238 15.7106 20.3391 15.549 20.403 15.531Z" fill="#BD2B54"/>
<path d="M38.7462 13.1372L38.6904 13.1211C38.7127 13.1292 38.7302 13.1336 38.7462 13.1372Z" fill="#BD2B54"/>
<path d="M19.697 43.7064C19.6699 43.6929 19.6397 43.6767 19.6146 43.665C19.6554 43.6897 19.6795 43.7007 19.697 43.7064Z" fill="#BD2B54"/>
<path d="M35.9194 12.1251L35.878 12.1559C35.9102 12.1469 35.9195 12.1364 35.9194 12.1251Z" fill="#BD2B54"/>
<path d="M32.6136 45.4204L32.6536 45.4029C32.64 45.4072 32.6271 45.4133 32.6136 45.4204Z" fill="#BD2B54"/>
<path d="M42.4328 41.7522C42.4431 41.7589 42.4583 41.7565 42.4737 41.7516C42.4782 41.747 42.4816 41.7432 42.4839 41.7409L42.4327 41.7526L42.4328 41.7522Z" fill="#BD2B54"/>
<path d="M43.5324 16.3527C43.5299 16.3574 43.5291 16.3642 43.53 16.3735C43.5611 16.3958 43.5906 16.4197 43.6206 16.4433C43.5833 16.398 43.5542 16.3693 43.5324 16.3527Z" fill="#BD2B54"/>
<path d="M45.7481 35.3481C45.7459 35.3405 45.7472 35.3224 45.743 35.3197C45.6923 35.4382 45.5905 35.7604 45.4619 36.1699L45.4996 36.2093C45.584 35.9237 45.666 35.6363 45.7485 35.3482L45.7481 35.3481Z" fill="#BD2B54"/>
<path d="M48.0402 27.3694C48.0358 27.5081 48.0194 27.6467 48.0077 27.7848L47.9695 28.1985C47.9485 27.537 47.9121 26.9648 47.8608 26.4442C47.8471 26.314 47.8338 26.1872 47.8204 26.0624C47.8066 25.938 47.7979 25.8156 47.7782 25.6966C47.7434 25.4578 47.7095 25.2266 47.6762 24.9984C47.5308 24.1088 47.3704 23.2483 47.0291 22.1721L47.0827 22.2869C47.0485 22.1257 46.9721 22.0134 46.7921 21.5036C46.7038 21.2476 46.5817 20.8942 46.4077 20.3899C46.3634 20.264 46.3173 20.1277 46.263 19.9828C46.2365 19.9102 46.2092 19.8344 46.1812 19.7564C46.1515 19.6788 46.1212 19.5986 46.0896 19.5152C45.9645 19.182 45.8111 18.808 45.6255 18.3857L45.634 18.3812C45.5714 18.2696 45.5553 18.2799 45.4552 18.0431L45.5816 18.3369L45.6444 18.4835L45.7032 18.6316C45.6085 18.4667 45.504 18.3207 45.3993 18.1579C45.3473 18.0759 45.288 17.9937 45.2295 17.9032C45.1697 17.8131 45.1104 17.7142 45.0406 17.6084C44.9926 17.5119 44.99 17.4702 44.9976 17.4529C44.8879 17.2773 44.7681 17.1077 44.6506 16.9368C44.5931 16.8505 44.5292 16.7685 44.4682 16.6847C44.4063 16.6014 44.3458 16.5173 44.2824 16.435L44.0981 16.0942C44.0339 16.0232 43.9829 15.9862 43.9366 15.9549C43.8902 15.9239 43.8475 15.8997 43.7949 15.8578C43.7417 15.8165 43.6806 15.756 43.5916 15.6578C43.5464 15.6092 43.4952 15.5504 43.4352 15.4787C43.4057 15.4426 43.3737 15.4034 43.3393 15.3607C43.3222 15.3392 43.3048 15.3168 43.2864 15.2937C43.2675 15.2709 43.248 15.2476 43.2275 15.2231C43.4261 15.5605 42.8386 14.8983 42.8923 15.0209C42.866 14.9753 42.7934 14.8837 42.7371 14.8076C42.6257 14.7058 42.4938 14.5775 42.3425 14.4534C42.2677 14.3903 42.1908 14.3255 42.1136 14.2606C42.0755 14.2277 42.0353 14.1967 41.9953 14.1665C41.9554 14.136 41.9159 14.1056 41.8767 14.0756C41.798 14.0165 41.7215 13.9583 41.649 13.904C41.576 13.8504 41.5039 13.804 41.4393 13.7607C41.31 13.6749 41.2054 13.6093 41.1426 13.5771C41.1426 13.5771 41.2526 13.6749 41.4244 13.8284C41.4673 13.8666 41.5138 13.9086 41.5637 13.9532C41.6119 13.9997 41.6626 14.0493 41.716 14.1013C41.769 14.1532 41.8243 14.2073 41.8814 14.2626C41.9096 14.2906 41.9383 14.3187 41.9672 14.3473C41.995 14.3768 42.0235 14.407 42.0517 14.437C42.1083 14.4975 42.1659 14.5588 42.2235 14.62C42.2811 14.6816 42.3392 14.7425 42.3928 14.8069C42.5015 14.9342 42.6092 15.0572 42.7053 15.1761C42.7997 15.2966 42.8863 15.409 42.9606 15.5068C43.0348 15.605 43.0913 15.6934 43.1345 15.7584C43.0677 15.6797 43.0152 15.6177 42.975 15.5703C42.9328 15.5244 42.9029 15.4931 42.8835 15.4727C42.844 15.432 42.844 15.4369 42.8648 15.4651C42.8852 15.4936 42.9265 15.5446 42.9667 15.5985C43.0058 15.6535 43.0458 15.7099 43.0669 15.7451L43.1203 15.7708C43.1983 15.8671 43.2549 15.9404 43.2957 16.0019C43.3358 16.064 43.3628 16.1118 43.3848 16.1534C43.429 16.2367 43.4541 16.2955 43.5263 16.3949C43.5299 16.3921 43.5294 16.3825 43.5295 16.3739L43.5036 16.3547C43.4966 16.3304 43.511 16.3365 43.5323 16.3533C43.5373 16.3414 43.5615 16.3512 43.6404 16.46L43.62 16.4434C43.6859 16.5223 43.7716 16.6332 43.8522 16.7404C43.9313 16.8484 44.0013 16.955 44.0452 17.0185L44.0081 17.049C44.1547 17.1674 44.4724 17.6955 44.7436 18.2606C44.8138 18.4005 44.8763 18.5454 44.9383 18.684C45.0017 18.8217 45.0553 18.9582 45.107 19.0819C45.1324 19.1441 45.1579 19.2026 45.18 19.2585C45.202 19.3145 45.2229 19.3669 45.242 19.4152C45.2806 19.5114 45.3138 19.5899 45.3389 19.645C45.4857 20.1105 45.7857 20.639 45.9557 21.2247C45.9929 21.3398 46.0222 21.4337 46.0451 21.5108C46.0676 21.5878 46.0823 21.6485 46.0936 21.6965C46.1158 21.7927 46.1207 21.8386 46.1197 21.8704C46.1184 21.9341 46.0947 21.942 46.1442 22.1796C46.2817 22.7687 46.1653 22.0463 46.235 22.2783L46.3001 22.6367C46.3197 22.7565 46.3406 22.8757 46.3589 22.9956C46.2483 22.5897 46.277 22.8183 46.2786 22.8971C46.3525 23.2007 46.421 23.5976 46.4812 23.9409C46.5423 24.2839 46.597 24.5741 46.6624 24.6602C46.6888 24.8703 46.7087 25.0311 46.7173 25.1551C46.7264 25.2792 46.7312 25.3694 46.7348 25.4449C46.7421 25.5957 46.7456 25.6864 46.7707 25.8637C46.7695 25.7428 46.7485 25.5046 46.7671 25.4994C46.7769 25.8374 46.8022 25.6567 46.7904 25.5192C46.8055 25.5816 46.8205 25.6703 46.8355 25.7774C46.8426 25.8309 46.8514 25.8889 46.8567 25.9509C46.8612 26.0131 46.8656 26.079 46.87 26.1478C46.8855 26.4228 46.9096 26.7418 46.9058 27.0493C46.9075 27.2027 46.9096 27.3525 46.911 27.4923C46.912 27.632 46.9066 27.7615 46.9081 27.873C46.9087 28.0963 46.919 28.2498 46.9459 28.2766L46.9265 28.2767C47.0062 28.3955 47.0828 28.2031 47.1212 28.563L47.0824 28.8027C47.0907 28.9233 47.1042 29.0443 47.1067 29.1651C47.0682 29.4065 47.0538 29.286 47.044 29.2856C47.0452 29.4327 47.0403 29.5943 47.0323 29.765C47.0191 29.9351 46.9996 30.1144 46.9795 30.2972C46.9623 30.4803 46.9293 30.6656 46.9023 30.8499C46.8882 30.9419 46.8746 31.0337 46.8608 31.1246C46.8447 31.2148 46.8291 31.3045 46.8137 31.392C46.9269 31.1551 47.0249 30.9135 47.128 30.6695C47.0964 30.8183 47.0589 30.9971 47.0195 31.1833C46.9747 31.3685 46.9293 31.5605 46.8897 31.738C46.848 31.9154 46.8074 32.077 46.7839 32.2036C46.7595 32.33 46.7495 32.4205 46.7589 32.4532L46.6117 32.7932C46.4112 33.3679 46.3699 33.5733 46.365 33.6971C46.3596 33.8201 46.3912 33.8591 46.3072 34.0874C46.2263 34.2759 46.1478 34.4641 46.0635 34.6513C46.1231 34.4579 46.1764 34.2638 46.2325 34.0699C46.1811 34.2124 46.1371 34.3338 46.0979 34.4425C46.0572 34.5508 46.0192 34.6463 45.9827 34.738C45.9104 34.9213 45.8369 35.0898 45.7417 35.3141C45.7424 35.3143 45.7415 35.3198 45.7423 35.32C45.7554 35.2888 45.7653 35.2691 45.7709 35.2664L45.7474 35.3483C45.7625 35.4304 45.6946 35.7432 45.5624 36.1504C45.4651 36.4385 45.3928 36.6988 45.2936 36.9975C45.1941 37.2958 45.0691 37.6335 44.8547 38.0644C44.8507 38.1488 44.8442 38.232 44.8391 38.316C44.7872 38.4248 44.7309 38.5313 44.6773 38.6388C44.6207 38.7448 44.5668 38.8518 44.5081 38.9564L44.4504 38.9296C44.525 38.7716 44.6103 38.5756 44.7005 38.3567C44.7889 38.1369 44.8829 37.8951 44.9725 37.6441C45.1531 37.1423 45.3231 36.6071 45.4604 36.1699L45.4377 36.1458C45.2743 36.6642 45.1023 37.253 44.9721 37.5837C44.9006 37.7425 44.6788 38.1281 44.7544 37.8153C44.7336 37.9245 44.7144 38.0354 44.6915 38.1444C44.5263 38.5574 44.3891 38.8605 44.2691 39.1113C44.2082 39.2363 44.1528 39.3491 44.0965 39.4539C44.0424 39.5601 43.9867 39.6577 43.9313 39.7561C43.8758 39.8546 43.816 39.9507 43.7534 40.0544C43.6874 40.1555 43.6206 40.265 43.5384 40.3814C43.3774 40.6162 43.1769 40.8935 42.883 41.2377C42.9247 41.2038 42.9644 41.1683 43.0044 41.1328C42.8014 41.43 42.5791 41.7146 42.4719 41.7525C42.1069 42.1543 41.6922 42.5222 41.2868 42.822C40.883 43.1201 40.4875 43.3444 40.17 43.4918L40.0755 43.633C40.0255 43.6606 39.9661 43.6863 39.9041 43.711C39.8429 43.7362 39.7764 43.756 39.7163 43.7795C39.5955 43.8246 39.4963 43.8781 39.4686 43.9478L39.2551 44.0697C39.2192 44.0898 39.184 44.1109 39.1479 44.1306L39.0387 44.1881C38.8934 44.2492 38.7816 44.3105 38.6589 44.363C38.5375 44.417 38.4092 44.4705 38.2316 44.5112L38.2299 44.5116C38.2082 44.5164 38.1851 44.5217 38.1629 44.5268C38.1636 44.529 38.1662 44.5301 38.1688 44.5311C37.9986 44.5868 37.913 44.6125 37.8709 44.6315C37.8285 44.6499 37.8289 44.6582 37.8262 44.6674C37.8235 44.6766 37.8173 44.6865 37.7623 44.708C37.7346 44.7186 37.695 44.7325 37.6373 44.75C37.5791 44.7661 37.5023 44.7862 37.4021 44.8111C37.3349 44.8176 37.2857 44.8319 37.2431 44.8516C37.2003 44.8699 37.1641 44.8933 37.1244 44.919C37.0844 44.9446 37.0408 44.9726 36.9819 45.0001C36.9233 45.0276 36.85 45.0547 36.7503 45.0744L36.5398 45.0716C36.4702 45.0714 36.4001 45.0694 36.33 45.0661C36.1478 45.0909 36.0062 45.1193 35.877 45.1455C35.7481 45.1718 35.6351 45.2054 35.5104 45.2364C35.4482 45.2524 35.3836 45.2694 35.3135 45.2875C35.2784 45.2963 35.2417 45.3055 35.2036 45.3152C35.1651 45.3232 35.1248 45.3316 35.082 45.3405C34.9117 45.3749 34.7069 45.4116 34.4428 45.4507C34.3786 45.4547 34.3187 45.4597 34.2631 45.4589C34.2075 45.4585 34.1567 45.4564 34.1107 45.4534C34.0195 45.4474 33.9495 45.4372 33.906 45.4226C33.819 45.3933 33.8378 45.348 34.0008 45.2901C33.7758 45.3628 33.7245 45.3844 33.6541 45.4016C33.6188 45.4099 33.5787 45.4175 33.5093 45.4296C33.4745 45.4356 33.4325 45.4431 33.3802 45.4521C33.3275 45.4594 33.2646 45.4682 33.1882 45.4786C33.0903 45.4437 33.1557 45.4315 33.2883 45.3868C32.7401 45.3731 32.9544 45.4441 32.5426 45.467C32.5137 45.4876 32.4834 45.512 32.4524 45.5358C32.4212 45.5587 32.3891 45.5819 32.3568 45.6029C32.2917 45.6448 32.2239 45.6778 32.1561 45.6817L32.3183 45.7023C32.0984 45.7271 31.8675 45.7466 31.6274 45.7569C31.5972 45.7579 31.5673 45.7594 31.5368 45.76C31.5066 45.7594 31.476 45.759 31.4454 45.7583C31.3842 45.7569 31.3224 45.7549 31.2603 45.7521C31.1358 45.7466 31.0096 45.7379 30.8814 45.7258L30.902 45.688L30.6287 45.6919L30.3555 45.6853L30.324 45.6343L29.9352 45.6183L29.7408 45.6101C29.676 45.6082 29.6112 45.6001 29.5467 45.5958L29.6518 45.6197C29.5606 45.6137 29.3649 45.5994 29.1497 45.5794C29.0419 45.5691 28.9295 45.5577 28.8228 45.5449C28.7162 45.5317 28.6161 45.5106 28.5315 45.4931L28.5477 45.468C28.3111 45.4123 28.0834 45.3716 27.8575 45.337C27.6332 45.2942 27.4102 45.2596 27.181 45.2266C26.9511 45.198 26.7194 45.1522 26.4732 45.1084C26.3504 45.0862 26.2244 45.0623 26.0942 45.037C25.9643 45.0101 25.8326 44.9746 25.6949 44.9397L25.853 44.9244C25.4945 44.7708 25.7291 44.9798 25.291 44.8333L25.2877 44.7615C25.2359 44.7588 25.1887 44.7555 25.1466 44.7486C25.1045 44.7414 25.0665 44.7327 25.0313 44.7226C24.9616 44.7026 24.9046 44.6785 24.8527 44.6515C24.7488 44.5979 24.6648 44.5342 24.5374 44.4764L24.6346 44.6004L24.3866 44.5132C24.3453 44.4983 24.3035 44.4849 24.2628 44.4689L24.1405 44.4202C23.6056 44.1969 23.8453 44.1943 23.9396 44.1782L23.5463 44.1127L23.502 44.013C23.2029 43.9941 23.2427 43.8925 22.7595 43.7507C22.733 43.7075 22.8567 43.7394 22.7042 43.6638C22.6365 43.6476 22.5704 43.6269 22.5044 43.6071L22.3053 43.5472L21.9053 43.4267L22.3803 43.5882L22.2781 43.6688C22.0224 43.6009 21.8619 43.5245 21.7223 43.4501C21.5848 43.3705 21.4684 43.2916 21.2949 43.2218L21.5392 43.3069C20.9849 43.0562 20.9753 43.0029 20.689 42.8137C20.7715 42.8837 20.8989 42.9903 20.6761 42.8847C20.5145 42.8032 20.6099 42.8021 20.4668 42.7087C20.4294 42.7334 20.3124 42.6979 20.1633 42.6288C20.0887 42.5941 20.0061 42.5508 19.9221 42.5014C19.8389 42.4506 19.7553 42.3931 19.6756 42.3333C19.6855 42.3264 19.6981 42.3221 19.7237 42.3294C19.6315 42.2866 19.5763 42.2764 19.4371 42.1676L19.5706 42.1503C19.4596 42.1155 19.3527 42.0739 19.2435 42.0353C19.1562 41.963 19.0338 41.897 18.9434 41.8403C18.853 41.7839 18.791 41.7417 18.8194 41.7267L18.9341 41.7858L18.5878 41.5381C18.4736 41.4541 18.3613 41.3672 18.2482 41.2818C18.134 41.1974 18.0244 41.1079 17.9138 41.0191C17.8038 40.9299 17.6917 40.8435 17.5852 40.7499L17.6105 40.682C17.5634 40.6735 17.4967 40.6305 17.4229 40.573C17.3488 40.5155 17.2675 40.4438 17.1946 40.3734C17.0464 40.2349 16.9178 40.1169 16.8989 40.179C16.8484 40.1154 16.7672 40.0286 16.6723 39.9396C16.5789 39.8493 16.4702 39.758 16.3819 39.6686C16.202 39.493 16.0734 39.3569 16.1874 39.3765C15.8057 38.9756 15.4972 38.6803 15.1903 38.3412C14.8804 38.0054 14.5696 37.6263 14.2216 37.0505C14.1792 36.9349 14.0978 36.784 14.0049 36.6032C13.9574 36.5133 13.9042 36.4179 13.8476 36.3184C13.7939 36.2168 13.7377 36.1108 13.6787 36.0029C13.6491 35.9491 13.619 35.8944 13.5888 35.8396C13.5606 35.7837 13.5321 35.7274 13.5031 35.6713C13.4461 35.5585 13.3865 35.4464 13.3318 35.3342C13.2276 35.1075 13.1195 34.8909 13.0429 34.6912C12.6951 33.9316 12.4645 33.2803 12.2794 32.6129C12.2569 32.5293 12.231 32.4461 12.2112 32.3616C12.1915 32.2766 12.1718 32.1917 12.1519 32.1059C12.1329 32.0199 12.1099 31.9338 12.0935 31.8456C12.077 31.7574 12.0604 31.6683 12.0437 31.578C12.0354 31.5328 12.0268 31.4872 12.0182 31.4412C12.0141 31.4184 12.0097 31.3951 12.0053 31.3719C12.0021 31.3485 11.9989 31.3252 11.9954 31.3017C11.9825 31.2078 11.969 31.1126 11.9553 31.0152C11.9487 30.9664 11.9418 30.9175 11.935 30.8678C11.9285 30.8182 11.9252 30.7677 11.9203 30.7169C11.9111 30.6149 11.9014 30.5112 11.8917 30.4046C11.9443 29.8879 11.9344 29.2562 11.9823 28.6079C12.0265 27.9612 12.126 27.3004 12.3072 26.773L12.3282 26.4624C12.3983 26.2893 12.4766 26.0936 12.5474 25.8785C12.5646 25.8246 12.5845 25.7701 12.6045 25.7148C12.6241 25.6594 12.6441 25.6029 12.6641 25.546C12.7038 25.4317 12.7426 25.3135 12.7891 25.1952C12.9603 24.7173 13.1799 24.2134 13.4522 23.7629C13.541 23.5203 13.5937 23.3953 13.6207 23.3418C13.5956 23.3827 13.551 23.4412 13.5063 23.4443C13.5872 23.3166 13.6927 23.115 13.7828 22.9539C13.8772 22.7951 13.9558 22.6766 13.9798 22.715L13.9497 22.7858C13.9617 22.8052 13.9933 22.764 14.0376 22.6873C14.0599 22.649 14.085 22.6016 14.1126 22.5486C14.141 22.4959 14.1727 22.4382 14.2056 22.3776C14.272 22.2569 14.3404 22.1231 14.4136 22.0082C14.4858 21.8922 14.5552 21.7907 14.6139 21.7283L14.4447 21.8401L14.6019 21.601C14.6557 21.5227 14.7078 21.4439 14.763 21.3663C14.7393 21.4116 14.716 21.457 14.6935 21.5026C14.9899 20.959 15.2887 20.5123 15.5843 20.1206C15.88 19.7285 16.1724 19.3906 16.4695 19.0649C16.7684 18.74 17.073 18.4285 17.4018 18.0911C17.7303 17.7531 18.0873 17.3945 18.4972 16.9774C18.4112 17.1141 18.4899 17.0293 18.6008 16.9173C18.6287 16.8894 18.6584 16.8595 18.688 16.8313C18.7184 16.8036 18.7488 16.7772 18.7773 16.7553C18.8338 16.7112 18.8815 16.6846 18.9037 16.6992C18.9702 16.6647 19.0329 16.6275 19.092 16.5882C19.151 16.5489 19.2092 16.5102 19.263 16.4687C19.3722 16.3866 19.4692 16.2961 19.564 16.2076C19.6587 16.1194 19.7484 16.0287 19.837 15.9402C19.9247 15.8507 20.0164 15.7699 20.1094 15.692C20.1063 15.6879 20.1079 15.6797 20.1258 15.6575L20.2991 15.5374L20.4757 15.4218C20.5941 15.3457 20.71 15.2665 20.8301 15.1933C20.7409 15.287 20.7271 15.311 20.747 15.2939C20.7669 15.2767 20.8244 15.2239 20.8827 15.17C20.9996 15.062 21.12 14.9483 20.9535 15.1181C21.0734 15.0506 21.1924 14.9771 21.3174 14.9088C21.4414 14.8395 21.5678 14.7691 21.6957 14.6974C21.8239 14.6262 21.9565 14.5587 22.0886 14.4868C22.1552 14.4519 22.2208 14.4142 22.2892 14.3801C22.3573 14.3459 22.4254 14.3114 22.4944 14.2766C22.7673 14.1339 23.053 14.0022 23.341 13.8649C23.4868 13.8002 23.6336 13.735 23.7813 13.6695C23.8547 13.6354 23.9299 13.6055 24.0052 13.5748C24.0806 13.5441 24.1556 13.5133 24.2315 13.4823C24.3069 13.4516 24.3827 13.4206 24.4586 13.3896C24.5355 13.361 24.6124 13.3323 24.6893 13.3036C24.7663 13.2749 24.8436 13.2464 24.9206 13.2173L25.0364 13.1742L25.1538 13.1348C25.3105 13.0822 25.4668 13.03 25.6235 12.9775C25.7813 12.9289 25.94 12.8831 26.0982 12.8362C26.2545 12.7889 26.4186 12.7444 26.5791 12.7015C26.7401 12.6582 26.8998 12.6167 27.0595 12.5768C27.3782 12.4965 27.6949 12.4263 28.0079 12.3638L27.8914 12.3555C28.2089 12.29 28.5627 12.2074 28.9007 12.1466C29.0694 12.1135 29.2344 12.0901 29.3875 12.0683C29.541 12.0486 29.6829 12.037 29.8058 12.0326C30.2966 12.0185 30.8611 11.8317 31.0524 11.8145C31.1856 11.7889 31.3169 11.7788 31.4346 11.7755C31.5527 11.7724 31.6573 11.774 31.7376 11.7823C31.8988 11.7985 31.9636 11.8234 31.8486 11.8237C31.9201 11.8199 31.9913 11.8144 32.0622 11.808C32.1332 11.8012 32.2044 11.7936 32.2762 11.7887C32.4197 11.7772 32.566 11.7614 32.7192 11.751C32.8724 11.7436 33.033 11.7376 33.2049 11.7389C33.3763 11.7458 33.5596 11.7574 33.757 11.7844C33.8225 11.8177 33.9906 11.8406 34.2063 11.8574C34.314 11.8676 34.4331 11.8803 34.5573 11.8902C34.6196 11.8952 34.6831 11.9004 34.747 11.9058C34.8107 11.9116 34.8746 11.9202 34.9382 11.9267C35.0653 11.9414 35.1904 11.956 35.3072 11.9697C35.4227 11.9881 35.5297 12.0063 35.6208 12.0243C35.7119 12.0418 35.7871 12.0591 35.8395 12.0759C35.8916 12.0939 35.9203 12.1118 35.9201 12.1273L35.9307 12.1193C36.0518 12.16 36.1722 12.1964 36.293 12.23L36.3835 12.2551L36.473 12.2825C36.533 12.3001 36.5926 12.3175 36.6526 12.335L36.8324 12.3847L36.9227 12.409L37.0118 12.4363C37.1312 12.472 37.251 12.5078 37.3712 12.5437L37.4617 12.5706L37.5512 12.6012C37.6108 12.6219 37.6708 12.6427 37.7307 12.6639C37.7906 12.6851 37.8507 12.7068 37.9114 12.7282C37.9415 12.739 37.9719 12.7503 38.002 12.7612C38.0319 12.7728 38.0614 12.7859 38.0915 12.7984C38.2108 12.8493 38.3303 12.9023 38.4504 12.9582C38.4805 12.9723 38.5106 12.9865 38.5406 13.0006C38.5704 13.0159 38.5996 13.0322 38.6292 13.0482C38.6883 13.0807 38.7472 13.114 38.8062 13.1485C38.8062 13.1485 38.7835 13.1473 38.7468 13.1385C39.4652 13.348 40.1747 13.6245 40.865 13.9656C40.7659 13.7332 40.6611 13.4969 40.5507 13.2571C40.0381 12.7995 39.4869 12.3715 38.8994 11.9833C38.0352 11.608 37.1354 11.3218 36.2217 11.1207C35.3078 10.9167 34.3789 10.8069 33.4524 10.7646C31.9756 10.637 30.4874 10.6916 29.0238 10.8868C28.1375 11.0322 27.2615 11.2331 26.4043 11.4653L26.0853 11.553L25.9265 11.5976L25.7643 11.6455L25.44 11.7416L25.2777 11.7899L25.1174 11.8436C24.6884 11.9827 24.264 12.1358 23.8452 12.3026C22.1695 12.9704 20.5856 13.8622 19.1418 14.9343C18.9552 15.1139 18.767 15.2901 18.5876 15.4752C17.7071 16.0646 16.8162 16.8916 15.9945 17.8009C15.5829 18.2558 15.1883 18.7313 14.8124 19.2078C14.4373 19.6854 14.0801 20.1625 13.7413 20.6233L13.7815 20.7064C13.6064 20.9758 13.5205 21.0974 13.4624 21.1656C13.4042 21.2339 13.3756 21.2501 13.328 21.3136C12.554 22.5851 11.8851 23.949 11.4109 25.3901C11.1739 26.1103 10.9871 26.8492 10.863 27.5985C10.7385 28.3477 10.6773 29.1075 10.6854 29.8626C10.6932 30.6172 10.7678 31.3639 10.9006 32.0912C11.0334 32.8185 11.2226 33.5271 11.4564 34.2096C11.9252 35.5754 12.5709 36.8358 13.3192 37.9703C13.3841 38.0842 13.4932 38.2494 13.6227 38.4394C13.689 38.5331 13.7633 38.6305 13.8384 38.7318C13.9144 38.8325 13.991 38.9375 14.0732 39.0364C14.1539 39.1367 14.2342 39.2364 14.3112 39.3316C14.3871 39.4278 14.4658 39.5148 14.5339 39.5979C14.603 39.6805 14.6651 39.7564 14.7172 39.8219C14.7702 39.8869 14.8145 39.9407 14.8445 39.9831C15.4811 40.5953 16.1589 41.1937 16.8643 41.7542C17.5696 42.3152 18.3056 42.8338 19.0445 43.2999L18.9838 43.2723L19.3379 43.4822L19.6968 43.6831C19.7238 43.7063 19.7228 43.7167 19.697 43.7085C19.8009 43.7601 19.9126 43.8152 20.0305 43.8731C20.148 43.9313 20.2688 43.9973 20.3958 44.0616C20.6512 44.1876 20.9219 44.3282 21.197 44.474C21.477 44.6103 21.7631 44.7498 22.0426 44.886C22.3256 45.0153 22.6053 45.136 22.8658 45.2502L22.801 45.2339C22.9918 45.315 23.1885 45.3796 23.3822 45.4508C23.4793 45.4854 23.5764 45.5204 23.6735 45.5551L23.8187 45.6071L23.8914 45.6331L23.9648 45.6561C24.161 45.7173 24.3565 45.7782 24.5521 45.8388C24.65 45.8687 24.7471 45.9001 24.8453 45.9288C24.9441 45.9553 25.0426 45.9812 25.1409 46.0076C25.3378 46.0599 25.5348 46.1118 25.7312 46.164C25.9291 46.2108 26.1273 46.2528 26.3249 46.297C26.7191 46.3915 27.1183 46.4532 27.5145 46.5252L27.6633 46.5515L27.8127 46.5722L28.1114 46.6127L28.4097 46.6531L28.5588 46.6733L28.6334 46.6834L28.7082 46.6908C28.9077 46.7097 29.1072 46.7286 29.3063 46.7474L29.6048 46.7756L29.9043 46.7917C30.1038 46.8024 30.3029 46.813 30.5024 46.8238L30.5769 46.8277L30.6516 46.8288L30.8013 46.8307L31.1001 46.8348L31.3989 46.8388L31.5481 46.8406L31.6975 46.8367L32.2947 46.8206L32.4437 46.8165L32.5185 46.8144L32.5932 46.8094L32.8911 46.789L33.487 46.7483L34.0811 46.6838L34.378 46.6513C34.4276 46.6465 34.4769 46.6396 34.526 46.6319L34.6739 46.6095C34.8713 46.5799 35.0682 46.5502 35.2655 46.5206L35.4136 46.4979L35.561 46.4709L35.8563 46.4171C36.0527 46.3762 36.2496 46.3403 36.4454 46.2939C36.5434 46.2713 36.6417 46.2505 36.7394 46.227L37.033 46.1539C37.1311 46.1306 37.2286 46.1034 37.326 46.0765C37.4234 46.0493 37.5213 46.0239 37.6188 45.995C37.8129 45.9359 38.0082 45.8799 38.2012 45.8136C38.5891 45.6882 38.9728 45.5418 39.3539 45.3832L39.6387 45.2599C39.7336 45.2185 39.8268 45.1722 39.9211 45.1282L40.0622 45.0614C40.1092 45.0392 40.1552 45.0143 40.2017 44.9907C40.2946 44.9426 40.3874 44.895 40.4806 44.847C40.5722 44.7958 40.6635 44.7441 40.7551 44.6928C40.8006 44.6669 40.8471 44.6421 40.8924 44.6149L41.0276 44.5324C41.1171 44.4765 41.2088 44.4232 41.2972 44.3651C41.3854 44.306 41.4737 44.2469 41.5624 44.1876C41.6471 44.1363 41.7269 44.0763 41.8097 44.0192C41.8909 43.9608 41.9756 43.9042 42.0551 43.8425C42.1346 43.7809 42.2146 43.7185 42.295 43.6563C42.3733 43.591 42.4517 43.5254 42.5305 43.4599C42.8416 43.1914 43.1419 42.8985 43.426 42.5835C43.9955 41.9538 44.4964 41.2346 44.9202 40.4679C45.3463 39.7017 45.6943 38.8892 46.0009 38.07C46.3087 37.2507 46.574 36.4229 46.852 35.6174C46.8843 35.5443 46.9449 35.3783 47.0235 35.1371C47.0625 35.0161 47.1071 34.8776 47.1541 34.7229C47.1998 34.567 47.2514 34.3975 47.3022 34.2134C47.508 33.4784 47.727 32.531 47.8702 31.5687L47.8978 31.3886C47.9071 31.3286 47.916 31.2685 47.9225 31.2082C47.9367 31.0879 47.9513 30.9677 47.9652 30.8486C47.9967 30.6104 48.0139 30.3739 48.0326 30.1441C48.0414 30.029 48.0534 29.9159 48.0584 29.8044C48.0635 29.6929 48.0685 29.583 48.0732 29.4759C48.078 29.3688 48.0822 29.2636 48.087 29.1615C48.0921 29.0594 48.0892 28.9598 48.0905 28.8634C48.0908 28.6711 48.0912 28.4912 48.0913 28.3275C48.086 28.1638 48.0792 28.0161 48.0738 27.8876C48.0675 27.7589 48.0625 27.6497 48.0582 27.5625C48.0551 27.4752 48.045 27.4107 48.0409 27.3716L48.0402 27.3694Z" fill="#BD2B54"/>
<path d="M44.9976 17.4521L45.0125 17.4749C45.0398 17.4563 45.0076 17.4283 44.9976 17.4521Z" fill="#BD2B54"/>
<path d="M46.8062 31.4352C46.8087 31.4203 46.8115 31.4058 46.8138 31.3916L46.7412 31.5485L46.8058 31.4352L46.8062 31.4352Z" fill="#BD2B54"/>
<path d="M46.1742 22.5469C46.2693 22.9391 46.2799 22.9557 46.279 22.8972C46.2436 22.7558 46.2098 22.6321 46.1742 22.5469Z" fill="#BD2B54"/>
<path d="M42.7697 14.7843C42.6098 14.6273 42.6578 14.7008 42.7372 14.8077C42.8207 14.8853 42.8921 14.9504 42.9388 14.9998C42.9865 15.0483 43.0147 15.0763 43.0147 15.0763C42.9742 15.0284 42.935 14.9788 42.8958 14.9291C42.855 14.8808 42.8135 14.8322 42.7696 14.7847L42.7697 14.7843Z" fill="#BD2B54"/>
<path d="M43.0673 15.7454L43.0021 15.7129C43.0922 15.804 43.0961 15.7934 43.0673 15.7454Z" fill="#BD2B54"/>
<path d="M35.8658 34.2971C35.8557 34.2746 35.8449 34.2672 35.8658 34.2971Z" fill="#BD2B54"/>
<path d="M29.2441 39.301C29.2383 39.2996 29.2352 39.3 29.2297 39.2991C29.2165 39.3132 29.2043 39.3255 29.1933 39.3344L29.2445 39.3011L29.2441 39.301Z" fill="#BD2B54"/>
<path d="M26.8713 38.8445C26.8656 38.8418 26.8618 38.84 26.8568 38.8379C26.8568 38.8481 26.852 38.8571 26.8713 38.8445Z" fill="#BD2B54"/>
<path d="M34.6361 40.3209C34.6555 40.3279 34.6676 40.328 34.6774 40.3254C34.6649 40.3252 34.6522 40.3245 34.6361 40.3209Z" fill="#BD2B54"/>
<path d="M31.4805 32.4941C31.4805 32.4941 31.4864 32.4948 31.4912 32.4952C31.4835 32.4904 31.4757 32.486 31.4681 32.4805L31.4808 32.4946L31.4805 32.4941Z" fill="#BD2B54"/>
<path d="M31.5344 32.4779C31.584 32.501 31.5149 32.4968 31.4916 32.495C31.5446 32.5288 31.6021 32.5432 31.6627 32.547C31.6675 32.5228 31.5564 32.5014 31.5343 32.4782L31.5344 32.4779Z" fill="#BD2B54"/>
<path d="M23.557 30.9759L23.5823 30.9705C23.572 30.9711 23.5641 30.9736 23.557 30.9759Z" fill="#BD2B54"/>
<path d="M34.7596 39.0972C34.7721 39.0987 34.786 39.1018 34.7974 39.1026C34.7786 39.0962 34.7675 39.0955 34.7596 39.0972Z" fill="#BD2B54"/>
<path d="M24.8054 31.2287L24.8265 31.1925C24.8114 31.2065 24.806 31.2181 24.8054 31.2287Z" fill="#BD2B54"/>
<path d="M29.1934 39.334L29.1736 39.3465C29.1801 39.344 29.1866 39.3394 29.1934 39.334Z" fill="#BD2B54"/>
<path d="M24.6538 38.4757C24.6548 38.4638 24.6516 38.4537 24.647 38.4449C24.6443 38.4442 24.6424 38.4437 24.6409 38.4434L24.6539 38.4754L24.6538 38.4757Z" fill="#BD2B54"/>
<path d="M21.7277 32.0097C21.7233 32.0074 21.7179 32.0061 21.7118 32.0058L21.7068 32.0585C21.719 32.0381 21.7259 32.0221 21.7276 32.0101L21.7277 32.0097Z" fill="#BD2B54"/>
<path d="M21.6441 37.7124C21.6403 37.7159 21.6323 37.7184 21.6307 37.7229C21.6796 37.7471 21.815 37.7848 21.9904 37.821L22.0118 37.7768C21.8892 37.7571 21.7668 37.735 21.6445 37.7125L21.6441 37.7124Z" fill="#BD2B54"/>
<path d="M19.6431 35.9266C19.6261 35.9305 19.6087 35.9381 19.5946 35.9485C19.5796 35.9591 19.5649 35.9734 19.5552 35.9894C19.5378 35.9687 19.5309 35.9423 19.5328 35.9182C19.5344 35.894 19.5443 35.871 19.5548 35.8536C19.5548 35.8536 19.555 35.8528 19.5554 35.8529L19.5599 35.8446L19.5731 35.8233C19.5811 35.8093 19.5924 35.7937 19.6018 35.7792C19.623 35.7485 19.6455 35.7176 19.671 35.6847C19.7282 35.6121 19.7837 35.5415 19.8384 35.472C20.0653 35.1844 20.2773 34.91 20.5161 34.5274L20.5029 34.5799C20.5993 34.4884 20.4707 34.2998 21.5492 33.3025L21.5568 33.3081C21.5856 33.2669 21.57 33.2556 21.6506 33.1909L21.4535 33.3551C21.5241 33.2211 21.5659 33.0889 21.6804 32.9253C21.7144 32.8977 21.7389 32.8981 21.7538 32.9039L22.0346 32.5028L22.1743 32.4201C22.2372 32.2805 22.0912 32.2561 22.3897 31.98C22.2263 32.046 22.4653 31.7886 22.3984 31.8001C22.4197 31.7907 22.4604 31.764 22.495 31.744C22.6293 31.5472 22.8781 31.1737 22.907 31.0567C22.907 31.0567 22.1949 31.6862 21.9666 31.8278C22.1876 31.5749 22.0106 31.7503 21.9465 31.7851L21.9513 31.8166C21.813 31.964 21.7671 31.9295 21.694 32.0002C21.6979 32.0028 21.7042 32.0039 21.7104 32.0051L21.7121 31.9903C21.726 31.9889 21.7283 31.9977 21.7261 32.0095C21.7375 32.0148 21.7395 32.028 21.704 32.0699L21.7054 32.058C21.6618 32.1303 21.5677 32.2404 21.5266 32.2883L21.4876 32.2604C21.4714 32.4344 20.7758 32.9767 20.6533 33.1346C20.4844 33.2587 20.3956 33.503 20.221 33.6851C19.9689 33.9951 20.045 33.8029 19.8917 33.9383C19.7172 34.1205 19.9669 33.9314 19.9093 34.0137L19.6758 34.2135C19.7757 34.0704 19.6958 34.1287 19.6619 34.1431C19.4999 34.3457 19.1837 34.6198 19.2124 34.741C19.0888 34.8671 19.0194 34.9247 18.9691 34.965C18.9192 35.0054 18.8875 35.0286 18.837 35.0942C18.8603 35.0767 18.8909 35.0495 18.9175 35.0283C18.9436 35.0078 18.9652 34.9936 18.9733 34.9989C18.9146 35.0416 18.9049 35.0592 18.9176 35.0575C18.9303 35.0558 18.9627 35.038 18.9835 35.0187C18.9608 35.0667 18.8944 35.1435 18.8111 35.2448C18.7901 35.2711 18.7683 35.2976 18.746 35.3277C18.7348 35.343 18.7235 35.3569 18.712 35.3733C18.6999 35.3904 18.684 35.4147 18.6723 35.4335C18.6212 35.5142 18.5748 35.6026 18.5407 35.6945C18.5066 35.7861 18.4841 35.8809 18.477 35.971C18.471 36.0605 18.4746 36.1455 18.491 36.216C18.4947 36.2338 18.4983 36.2507 18.5019 36.2672C18.5065 36.2831 18.5122 36.2981 18.5173 36.3121C18.5279 36.3402 18.5367 36.3653 18.5487 36.3847C18.5716 36.4241 18.5922 36.4465 18.6077 36.4488L18.5904 36.4571C18.6432 36.4737 18.673 36.4451 18.7069 36.4359C18.724 36.4312 18.7423 36.4305 18.765 36.4395C18.7877 36.4488 18.8148 36.4684 18.8545 36.4997C18.8704 36.541 18.8924 36.5789 18.9144 36.6189C18.9426 36.6387 18.9723 36.6564 19.001 36.6742C19.0304 36.6911 19.0607 36.706 19.0905 36.7213C19.1859 36.815 19.1218 36.7973 19.1151 36.8046C19.1541 36.8255 19.1897 36.8406 19.2243 36.8579C19.2592 36.874 19.2956 36.8909 19.3326 36.9084C19.4062 36.9421 19.4824 36.9752 19.5599 37.0077C19.718 37.0724 19.8634 37.1254 20.0063 37.1752L19.7663 36.8799C19.8792 36.9399 20.0364 37.0261 20.175 37.0916C20.3129 37.1582 20.4333 37.1967 20.4664 37.1709L20.5927 37.2806C20.8176 37.4154 20.908 37.4213 20.9634 37.4081C21.0189 37.3946 21.0402 37.3601 21.1327 37.4051L21.3596 37.5437L21.1152 37.4798C21.3499 37.5822 21.4428 37.6286 21.6273 37.7253C21.6275 37.7245 21.6299 37.7247 21.6301 37.724C21.6174 37.7175 21.6094 37.7118 21.6086 37.7067L21.6435 37.713C21.6826 37.6814 21.8165 37.6887 21.9899 37.7286C22.1121 37.7613 22.2246 37.774 22.3534 37.7998C22.4823 37.8255 22.6281 37.8605 22.8172 37.942L22.9315 37.8838L23.219 37.9884L23.207 38.051C23.1345 38.036 23.0454 38.0198 22.9469 38.0025C22.8484 37.9847 22.7405 37.965 22.6299 37.945C22.4085 37.9071 22.1772 37.8613 21.9903 37.8218L21.9773 37.8489C22.1992 37.898 22.4569 37.9266 22.6024 37.9615C22.671 37.9886 22.8413 38.0912 22.6995 38.1056L22.8491 38.0731C23.2208 38.143 23.408 38.1765 23.5977 38.2184C23.7874 38.2598 23.9792 38.3142 24.3612 38.415L24.2994 38.372C24.4565 38.3798 24.6127 38.3883 24.6471 38.4458C25.1113 38.5328 25.5872 38.6481 25.8773 38.7735L25.9549 38.7093C26.0526 38.7285 26.183 38.8625 26.2466 38.7661L26.4611 38.7646C26.5945 38.7903 26.6829 38.76 26.8293 38.8255L26.83 38.8257C26.8389 38.8295 26.8485 38.834 26.8575 38.8387C26.8581 38.8364 26.8574 38.8346 26.8567 38.8323C27.1551 38.9097 26.8636 38.7656 27.2043 38.8593C27.3079 38.9284 27.3414 38.7834 27.5077 38.8252L27.6617 38.9565C27.9587 39.0627 28.0265 38.964 28.469 39.0296C28.6753 39.0999 28.7639 39.2062 28.6112 39.2654C28.819 39.1974 28.7087 39.2153 28.9715 39.2074C29.0046 39.2535 28.9761 39.2578 28.9138 39.2852C29.1335 39.3675 29.0593 39.2709 29.23 39.3002C29.2916 39.2329 29.3679 39.1216 29.4243 39.1255L29.362 39.0914C29.5496 39.079 29.7507 39.0934 29.9547 39.166L29.9406 39.2026L30.1674 39.2206L30.1732 39.2713L30.494 39.3116L30.4528 39.291C30.4909 39.2944 30.5718 39.3024 30.6606 39.3161C30.7489 39.3305 30.8448 39.3505 30.9123 39.3756L30.9021 39.4014C30.9969 39.4403 31.0896 39.4665 31.1825 39.4853C31.2752 39.5049 31.3678 39.5167 31.4635 39.5259C31.5594 39.5344 31.6573 39.543 31.7608 39.5522C31.8638 39.5633 31.9716 39.5768 32.087 39.5988L32.0154 39.6407C32.1602 39.7275 32.0761 39.5657 32.2563 39.6319L32.251 39.7007C32.4332 39.6496 32.4575 39.7668 32.5618 39.825L32.5293 39.7258L32.7366 39.7918C32.9621 39.8755 32.8525 39.9362 32.8084 39.9731L32.9817 39.9428L32.9938 40.027C33.1302 39.9657 33.1051 40.0689 33.3174 40.0709C33.3263 40.1043 33.2718 40.1075 33.3364 40.1376L33.6941 40.1163L33.4827 40.112L33.5362 40.0065C33.7664 39.9769 33.8152 40.0913 33.9705 40.1032L33.8599 40.1075C34.1079 40.1488 34.1074 40.2 34.2355 40.2629C34.1998 40.2305 34.1441 40.1813 34.2457 40.1945C34.3189 40.2088 34.273 40.2444 34.3368 40.276C34.3747 40.2068 34.5578 40.2208 34.7027 40.3035C34.6974 40.3132 34.691 40.3223 34.6791 40.3258C34.7225 40.3261 34.749 40.3135 34.8123 40.3523L34.7457 40.4213C34.7979 40.4094 34.8505 40.396 34.9025 40.3852C34.9826 40.4369 35.1302 40.4207 35.1003 40.4714L35.045 40.471L35.3728 40.5915L35.6969 40.72L35.6824 40.7877C35.7306 40.7556 35.8175 40.795 35.8927 40.8307C35.9304 40.8488 35.9657 40.865 35.9925 40.8693C35.9969 40.8696 36.0116 40.8733 36.0204 40.8738C36.03 40.875 36.0387 40.8747 36.0452 40.8731C36.0587 40.8699 36.0663 40.8612 36.0661 40.8455C36.1156 40.8821 36.1971 40.9198 36.2877 40.9561C36.3793 40.9931 36.4788 41.0328 36.5671 41.0685C36.589 41.0777 36.6106 41.0864 36.631 41.0948C36.6511 41.1031 36.6718 41.1137 36.6864 41.1161C36.7178 41.1248 36.7451 41.1337 36.7664 41.1436C36.8086 41.1636 36.8277 41.1869 36.8047 41.218C36.9595 41.2536 37.0971 41.2787 37.2245 41.2988C37.2874 41.308 37.3487 41.3172 37.4092 41.3263C37.4382 41.3299 37.4699 41.3362 37.4963 41.3371C37.5171 41.3325 37.5381 41.3275 37.5587 41.322C37.6409 41.2983 37.7207 41.27 37.8138 41.2191C37.8602 41.193 37.9114 41.1604 37.9622 41.1149C38.0135 41.0707 38.0608 41.0129 38.0974 40.9569C38.1172 40.9221 38.136 40.8899 38.1519 40.8577C38.167 40.8251 38.1809 40.7929 38.1936 40.76C38.2323 40.7287 38.2678 40.6719 38.2908 40.5739C38.3028 40.5261 38.3086 40.4652 38.3079 40.3962C38.3063 40.326 38.2963 40.2448 38.273 40.1548C38.2512 40.0653 38.2122 39.9673 38.1765 39.871C38.1397 39.774 38.1031 39.6766 38.0669 39.5806C38.0307 39.4846 37.9949 39.3902 37.9604 39.2991C37.9435 39.2535 37.9269 39.2087 37.9103 39.1652C37.8955 39.1245 37.8812 39.0853 37.8674 39.047C37.5684 38.392 37.3643 37.9732 37.0699 37.2997C37.0605 36.831 36.6285 36.289 36.5432 35.8136L36.4386 35.7139C36.434 35.6312 36.4125 35.5437 36.3822 35.452C36.3519 35.3604 36.3127 35.2648 36.2697 35.1617C36.1836 34.9555 36.0853 34.7266 36.0094 34.475C35.9683 34.4245 35.937 34.3859 35.9135 34.357C35.8905 34.3279 35.8761 34.3083 35.867 34.2957C35.8774 34.318 35.8844 34.3554 35.8553 34.3846C35.8321 34.3136 35.7704 34.2165 35.7209 34.136C35.6706 34.0553 35.6338 33.9895 35.6725 33.9742L35.7033 34.002C35.742 33.9883 35.6633 33.8931 35.5511 33.7862C35.4402 33.6792 35.2952 33.5657 35.2375 33.4819C35.2481 33.5263 35.2587 33.5692 35.2661 33.6129C35.1876 33.5419 35.105 33.4753 35.0201 33.4166C35.0463 33.4265 35.0729 33.4368 35.099 33.4487C34.9439 33.3721 34.8017 33.3163 34.6712 33.2691C34.5406 33.2224 34.4215 33.1839 34.3101 33.1489C34.0979 33.0842 33.9047 33.0254 33.7139 32.9673C33.3551 32.8608 33.009 32.7542 32.5112 32.7293C32.6586 32.6683 32.3121 32.7334 32.3219 32.6322C32.1089 32.4532 31.8688 32.5582 31.6637 32.5469C31.6626 32.5515 31.6592 32.5568 31.646 32.5621L31.3028 32.4735C31.5372 32.3941 31.031 32.5221 31.244 32.4575C30.3625 32.164 29.1629 32.0072 28.1239 31.7512L28.1631 31.7927C27.8984 31.7328 27.5601 31.7048 27.3686 31.6133C27.1767 31.5216 26.9106 31.6078 26.8316 31.5974C26.5997 31.6097 26.4198 31.4604 26.5134 31.4843C26.2738 31.4537 26.0291 31.5251 25.7101 31.4135C25.6182 31.2846 24.7937 31.3491 24.8061 31.2275L24.8005 31.2368C24.3947 31.0742 23.9711 31.1458 23.5305 30.988C23.5305 30.988 23.5405 30.9807 23.5574 30.9755L22.5694 31.1778L22.7621 31.6257L23.5019 32.0931C24.2256 32.1985 24.9492 32.3076 25.6719 32.4218C26.2371 32.5735 26.8015 32.7284 27.3646 32.8854C28.7593 33.1506 30.151 33.4311 31.5394 33.728L31.8565 33.7051C32.2472 33.8758 32.714 33.9766 33.1894 34.0758C33.4303 34.1261 33.6619 34.1707 33.8585 34.2323C34.056 34.2934 34.2222 34.3745 34.3324 34.4764L34.3846 34.4157C34.4041 34.4263 34.419 34.437 34.4312 34.4471C34.4435 34.4571 34.4545 34.4656 34.4621 34.4745C34.4774 34.4919 34.4854 34.5058 34.4901 34.5181C34.4992 34.5425 34.4936 34.5599 34.5035 34.5776C34.6406 34.6961 34.7674 34.8707 34.8824 35.0907C34.998 35.31 35.1006 35.5691 35.2122 35.8486C35.4332 36.4024 35.6538 36.9548 35.8717 37.5001C36.0877 38.046 36.2973 38.5867 36.4946 39.1177C36.5432 39.2505 36.592 39.383 36.6403 39.514C36.6445 39.5253 36.6434 39.523 36.6441 39.5252L36.6457 39.5301L36.6486 39.5399L36.654 39.5593L36.6631 39.5965C36.6686 39.6204 36.6725 39.6423 36.6748 39.6609C36.6763 39.6797 36.6786 39.6951 36.6725 39.7079C36.6627 39.7042 36.655 39.7023 36.6474 39.7016C36.6353 39.7006 36.6225 39.7027 36.6092 39.7002C36.5959 39.6977 36.584 39.6926 36.5733 39.6863C36.5521 39.6727 36.5335 39.6554 36.5192 39.6239C36.5223 39.6509 36.5086 39.6647 36.4844 39.6697C36.478 39.6705 36.4708 39.6712 36.4634 39.6714L36.4605 39.6715C36.4605 39.6715 36.4601 39.6714 36.459 39.6711L36.4507 39.6682L36.4177 39.6575L36.3522 39.6357C36.2647 39.6071 36.177 39.579 36.0894 39.5504C35.9148 39.4926 35.7412 39.431 35.5679 39.3748C35.3949 39.3174 35.2241 39.2561 35.0544 39.2032L35.0828 39.203L34.7575 39.1184C34.7457 39.1081 34.7469 39.0985 34.7587 39.0957C34.6632 39.0841 34.5565 39.0647 34.4441 39.0352C34.3314 39.0069 34.2132 38.9682 34.0925 38.9297C33.8507 38.8538 33.6013 38.7609 33.3801 38.6943L33.4085 38.6924C32.1012 38.3629 30.8244 38.1703 29.5606 37.99C28.2962 37.8099 27.0402 37.6472 25.764 37.3936C25.1769 37.2376 24.5329 37.1448 23.8708 37.0389C23.2089 36.9326 22.5276 36.812 21.8761 36.6021C21.7626 36.5363 21.034 36.3558 20.3179 36.1501C20.2283 36.1248 20.1387 36.099 20.0503 36.0739C20.0308 36.0682 20.0113 36.0625 19.9922 36.0569C19.9735 36.0514 19.9568 36.046 19.9398 36.0405C19.9222 36.0352 19.906 36.0295 19.8902 36.0239C19.8744 36.0183 19.8581 36.013 19.8439 36.0074C19.7842 35.9854 19.7339 35.9637 19.6973 35.9443C19.6874 35.9398 19.6894 35.9415 19.6883 35.9412L19.6857 35.9418C19.6857 35.9418 19.6823 35.9422 19.6806 35.9422C19.6653 35.9428 19.6517 35.93 19.6426 35.9252L19.6431 35.9266Z" fill="#BD2B54"/>
<path d="M21.7546 32.9033L21.7482 32.9125C21.7756 32.9323 21.7751 32.9114 21.7546 32.9033Z" fill="#BD2B54"/>
<path d="M20.0249 37.1809C20.0188 37.179 20.0132 37.1768 20.0071 37.1748L20.0611 37.2404L20.0249 37.1809Z" fill="#BD2B54"/>
<path d="M19.7458 34.0142C19.6365 34.1422 19.6387 34.153 19.6635 34.1424C19.7017 34.095 19.7315 34.0512 19.7458 34.0142Z" fill="#BD2B54"/>
<path d="M22.5263 31.77C22.5814 31.701 22.5452 31.7161 22.4963 31.744C22.4453 31.8182 22.4099 31.8695 22.4099 31.8695C22.4461 31.8348 22.4894 31.8058 22.5263 31.77Z" fill="#BD2B54"/>
<path d="M21.9483 31.7855L21.9431 31.7467C21.9169 31.793 21.9263 31.797 21.9483 31.7855Z" fill="#BD2B54"/>
<path d="M36.8775 23.9446C36.8645 23.973 36.8649 23.9614 36.8775 23.9446Z" fill="#BD2B54"/>
<path d="M28.0332 17.65C28.0292 17.6544 28.0277 17.6569 28.0238 17.6612C28.029 17.6799 28.0328 17.6961 28.0346 17.7101L28.0332 17.65Z" fill="#BD2B54"/>
<path d="M26.6967 19.776C26.6929 19.781 26.6903 19.7846 26.6865 19.7896C26.6961 19.792 26.7043 19.7983 26.6967 19.776Z" fill="#BD2B54"/>
<path d="M33.0182 16.4877C33.0388 16.4966 33.0518 16.4978 33.0622 16.4963C33.0488 16.495 33.0352 16.4928 33.0182 16.4877Z" fill="#BD2B54"/>
<path d="M34.2424 28.1692C34.2424 28.1692 34.2456 28.1631 34.2479 28.1588C34.2399 28.1649 34.2328 28.172 34.2241 28.1779L34.2427 28.1696L34.2424 28.1692Z" fill="#BD2B54"/>
<path d="M34.2502 28.1085C34.2933 28.0643 34.26 28.1347 34.2482 28.1588C34.3031 28.1152 34.341 28.0603 34.3697 27.9986C34.3487 27.9855 34.2818 28.0938 34.2501 28.1088L34.2502 28.1085Z" fill="#BD2B54"/>
<path d="M28.9436 35.3543L28.9563 35.3328C28.9503 35.3406 28.9465 35.3477 28.9436 35.3543Z" fill="#BD2B54"/>
<path d="M33.1895 15.2641C33.2041 15.267 33.2205 15.2715 33.2342 15.2733C33.2122 15.2648 33.1992 15.2632 33.1895 15.2641Z" fill="#BD2B54"/>
<path d="M29.9185 34.428L29.8993 34.3916C29.9026 34.4123 29.9098 34.4222 29.9185 34.428Z" fill="#BD2B54"/>
<path d="M28.0344 17.7109L28.0348 17.7337C28.036 17.7271 28.0355 17.7197 28.0344 17.7109Z" fill="#BD2B54"/>
<path d="M26.2292 22.0032C26.2176 22.0043 26.2082 22.0096 26.2001 22.0161C26.2001 22.019 26.2001 22.0209 26.2001 22.0226L26.2292 22.0032Z" fill="#BD2B54"/>
<path d="M27.4187 34.6259C27.4233 34.6242 27.4281 34.6213 27.4329 34.6171L27.3987 34.5693C27.4048 34.596 27.4113 34.6142 27.4183 34.6258L27.4187 34.6259Z" fill="#BD2B54"/>
<path d="M26.7159 25.3309C26.7211 25.333 26.7268 25.3398 26.7318 25.3394C26.7312 25.2782 26.6967 25.1247 26.6485 24.9297L26.5991 24.9288L26.7159 25.3309Z" fill="#BD2B54"/>
<path d="M26.3426 29.2452C26.3581 29.1215 26.3728 28.9977 26.3868 28.8732C26.4945 29.4458 26.5298 29.8721 26.5627 30.2766C26.5948 30.6816 26.6226 31.0655 26.6934 31.5628L26.6689 31.5086C26.6623 31.582 26.7149 31.6358 26.7467 31.8751C26.7626 31.9948 26.7729 32.161 26.7671 32.3999C26.7612 32.6388 26.7379 32.9491 26.6904 33.3637L26.6808 33.3642C26.6853 33.4215 26.7041 33.4201 26.684 33.536L26.7297 33.2481C26.7614 33.4173 26.8136 33.564 26.833 33.7937C26.8251 33.8434 26.8066 33.8613 26.7913 33.8669C26.8079 34.0556 26.8264 34.2465 26.8513 34.4414C26.8362 34.5032 26.8228 34.5663 26.8093 34.6297C26.8376 34.7197 26.8819 34.7394 26.9189 34.7992C26.937 34.8287 26.9547 34.8693 26.9676 34.9336C26.9824 34.9989 26.9918 35.0873 27.0062 35.2226C27.028 35.1145 27.055 35.1754 27.0837 35.2536C27.1117 35.3315 27.147 35.4294 27.1582 35.39C27.1564 35.4199 27.1593 35.485 27.1654 35.5411C27.1981 35.6198 27.2452 35.7182 27.3111 35.8216C27.3763 35.9246 27.4628 36.0324 27.5626 36.1219C27.6619 36.2116 27.773 36.2801 27.867 36.3222C27.9139 36.3446 27.9577 36.3581 27.9942 36.3697C28.0311 36.3794 28.0615 36.3857 28.0839 36.3881C28.0839 36.3881 28.0633 36.3768 28.0271 36.3562C28.009 36.3463 27.9874 36.3327 27.9628 36.3163C27.9381 36.3006 27.9105 36.2814 27.8815 36.2581C27.7634 36.1698 27.6218 36.0166 27.5369 35.8402C27.4932 35.753 27.461 35.6624 27.4373 35.5753C27.4145 35.488 27.4008 35.4037 27.3919 35.3264C27.3758 35.1718 27.3796 35.044 27.3889 34.9676C27.4171 35.1625 27.4317 35.1875 27.4315 35.1526C27.432 35.1179 27.4274 35.0249 27.4351 34.9845L27.4075 34.9637C27.3865 34.7304 27.4475 34.7227 27.4473 34.6078C27.4426 34.6083 27.4375 34.6123 27.4324 34.6164L27.4417 34.6298C27.4329 34.6419 27.4253 34.6363 27.4179 34.625C27.4061 34.6295 27.3953 34.6202 27.3909 34.558L27.3983 34.5693C27.378 34.4752 27.371 34.3102 27.3694 34.2384L27.4172 34.2328C27.3639 34.1525 27.3782 33.8666 27.4108 33.5754C27.443 33.2836 27.4894 32.9844 27.4858 32.8715C27.5364 32.6419 27.4488 32.3635 27.4643 32.0783C27.4551 31.6248 27.5221 31.8479 27.5499 31.6179C27.562 31.3313 27.4977 31.679 27.4874 31.5648L27.5313 31.2199C27.5506 31.4175 27.5723 31.3081 27.5883 31.2707C27.5771 30.9754 27.6235 30.5015 27.5194 30.4196C27.5264 30.0174 27.5627 30.0117 27.5491 29.8405C27.5379 29.8997 27.5348 30.015 27.5156 30.0179C27.5404 29.8539 27.4967 29.943 27.4949 30.009C27.4612 29.8898 27.4694 29.5699 27.4665 29.2743C27.4641 28.9784 27.451 28.7069 27.3955 28.6897L27.4147 28.6867C27.3287 28.6421 27.2675 28.7437 27.1986 28.582L27.2158 28.4645L27.1551 28.3012C27.1616 28.1839 27.1915 28.2361 27.201 28.2344C27.1196 27.9654 27.093 27.5749 27.0361 27.2411C26.9892 27.3724 26.9431 27.5023 26.8948 27.6325C26.8924 27.3448 26.8833 26.8238 26.8051 26.7824L26.8405 26.6006C26.8525 26.0154 26.6968 26.2257 26.6882 25.9951C26.6933 25.8963 26.6962 25.7982 26.7006 25.6992C26.7212 25.7918 26.7432 25.8838 26.763 25.9766C26.7385 25.6903 26.7369 25.5742 26.7351 25.3412C26.7343 25.341 26.7332 25.3391 26.7323 25.3393C26.7328 25.3554 26.7313 25.3661 26.7272 25.3692L26.7164 25.3308C26.6705 25.3061 26.6099 25.1683 26.5657 24.9735C26.5109 24.6952 26.4002 24.4926 26.3766 24.036L26.2727 23.9451L26.244 23.6069L26.3062 23.593C26.3717 23.9117 26.5461 24.5129 26.6491 24.9292L26.6792 24.9298C26.6201 24.682 26.5237 24.4092 26.491 24.2452C26.4846 24.1632 26.5005 23.9461 26.5774 24.0827L26.4808 23.9461C26.4303 23.7423 26.3959 23.5917 26.3661 23.4637C26.3392 23.3372 26.3194 23.235 26.3016 23.1309C26.2709 22.925 26.2428 22.7101 26.2378 22.3052L26.2118 22.3778C26.1958 22.2992 26.18 22.2202 26.1738 22.1551C26.166 22.0895 26.177 22.0394 26.2012 22.0163C26.2014 21.9569 26.2016 21.8975 26.2021 21.8381C26.2026 21.7788 26.2112 21.7203 26.2159 21.6624C26.2222 21.6045 26.2256 21.5467 26.2355 21.4909C26.2467 21.4351 26.2576 21.38 26.2682 21.3265C26.2868 21.2196 26.3225 21.1182 26.3533 21.0267C26.3698 20.9808 26.3835 20.9375 26.4028 20.8964C26.4222 20.8553 26.4408 20.817 26.4599 20.782L26.4029 20.6984C26.4174 20.6491 26.4582 20.5958 26.4902 20.5435C26.5204 20.4937 26.5368 20.4461 26.4937 20.407C26.5043 20.3338 26.516 20.2596 26.5293 20.1854C26.5797 20.0516 26.5698 19.9536 26.6677 19.8154L26.6679 19.8146C26.6741 19.8063 26.6804 19.7972 26.6874 19.7891C26.6851 19.7886 26.6832 19.7881 26.6809 19.7887C26.7553 19.6429 26.7404 19.6384 26.728 19.6275C26.7162 19.6172 26.7053 19.6004 26.7991 19.4374C26.8951 19.3491 26.7651 19.2771 26.8577 19.1174L27.0347 19.0003C27.1364 18.8683 27.1702 18.7792 27.2093 18.6709C27.228 18.6161 27.2482 18.5568 27.2802 18.4865C27.2957 18.451 27.314 18.4125 27.3356 18.3704C27.3587 18.329 27.3852 18.284 27.417 18.2342C27.4548 18.1912 27.4932 18.1577 27.5283 18.1337C27.5631 18.1097 27.5946 18.095 27.6203 18.0908C27.672 18.0825 27.7014 18.1157 27.6945 18.1988C27.7099 18.0887 27.7098 18.0595 27.7205 18.0298C27.7311 17.9993 27.7514 17.9658 27.8118 17.8444C27.8697 17.8376 27.8574 17.8636 27.8527 17.933C27.9417 17.8545 27.9583 17.8229 27.964 17.7903C27.971 17.7593 27.9664 17.7269 28.0249 17.6621C27.9996 17.5749 27.9475 17.4491 27.9826 17.4009L27.9187 17.4382C27.965 17.3501 28.0255 17.2693 28.0933 17.1887C28.1269 17.1479 28.1668 17.1133 28.2074 17.0771C28.249 17.0424 28.2909 17.0062 28.3401 16.9784L28.3594 17.0123C28.4143 16.9572 28.4678 16.8993 28.524 16.8453L28.5664 16.8744C28.6498 16.8035 28.7322 16.7298 28.8213 16.6661L28.7766 16.6807C28.7919 16.6685 28.8156 16.6495 28.8446 16.6268C28.8741 16.6043 28.9082 16.5763 28.9472 16.5533C28.9856 16.5293 29.0266 16.5048 29.0665 16.4832C29.0865 16.4722 29.1059 16.4619 29.1249 16.4532C29.1445 16.4454 29.163 16.4385 29.1807 16.4335L29.1889 16.4598C29.2886 16.4332 29.3755 16.3943 29.4633 16.3614C29.5068 16.3435 29.5487 16.3237 29.5908 16.3027C29.6337 16.284 29.6768 16.2657 29.7201 16.2454C29.7634 16.2263 29.8065 16.2018 29.8523 16.1842C29.8983 16.1662 29.9456 16.1478 29.9937 16.1291C30.0181 16.12 30.0427 16.1106 30.0677 16.1009C30.0936 16.0939 30.1196 16.0869 30.146 16.0795C30.1992 16.0654 30.2547 16.0519 30.3125 16.0389L30.2612 16.106C30.3028 16.1119 30.3245 16.1088 30.3382 16.1016C30.3518 16.0947 30.3564 16.0827 30.3622 16.0694C30.3733 16.0431 30.3883 16.0128 30.4866 16.015L30.5039 16.0817C30.5432 16.0542 30.5772 16.0398 30.6069 16.0341C30.637 16.0302 30.6636 16.0356 30.6885 16.0443C30.7381 16.0621 30.7809 16.0958 30.839 16.1096L30.7816 16.023L30.8922 16.0266L31.0034 16.0381C31.2468 16.0713 31.1467 16.1532 31.1116 16.1998C31.1658 16.1752 31.2212 16.1588 31.2775 16.1389L31.3033 16.2204C31.3658 16.1791 31.3959 16.185 31.4355 16.197C31.4757 16.2116 31.5252 16.2335 31.6328 16.2232C31.6453 16.255 31.5907 16.2651 31.6586 16.287C31.6884 16.281 31.7181 16.277 31.7484 16.2739L31.8389 16.263C31.8996 16.2565 31.9611 16.2469 32.0231 16.2432C31.9498 16.2429 31.8768 16.2479 31.8049 16.25L31.8519 16.1412C31.9112 16.1302 31.9598 16.1293 32.0017 16.1341C32.0435 16.1392 32.0783 16.1525 32.1107 16.1656C32.1753 16.1924 32.2298 16.2221 32.3129 16.2278C32.2738 16.2282 32.2344 16.2315 32.1957 16.2337C32.2286 16.2382 32.2574 16.243 32.2828 16.2477C32.3081 16.2533 32.3302 16.26 32.3499 16.2666C32.3889 16.2793 32.4179 16.2927 32.4424 16.3063C32.492 16.3343 32.5259 16.3609 32.5929 16.3982C32.5744 16.38 32.5505 16.358 32.5446 16.3438C32.5387 16.3296 32.5509 16.3187 32.6047 16.3298C32.6821 16.35 32.6329 16.3824 32.6996 16.4192C32.7207 16.3856 32.78 16.375 32.8539 16.3845C32.9274 16.3956 33.0144 16.4294 33.0899 16.4783C33.0839 16.4878 33.0764 16.4962 33.0631 16.4986C33.1094 16.5037 33.1393 16.4923 33.2041 16.5414L33.1286 16.602L33.2989 16.5869C33.3823 16.6468 33.5417 16.654 33.5052 16.7011L33.446 16.6919C33.5598 16.75 33.6743 16.8054 33.7864 16.8684L33.9552 16.9605L34.1224 17.0574L34.0987 17.1224C34.1266 17.1109 34.163 17.1197 34.2016 17.1375C34.2399 17.1562 34.2812 17.1846 34.3199 17.2103C34.3972 17.2617 34.4648 17.3045 34.4837 17.2473C34.5299 17.3131 34.6604 17.3782 34.7591 17.4358C34.8555 17.4929 34.9222 17.5441 34.8509 17.5766C35.0539 17.7153 35.2248 17.8025 35.4004 17.9085C35.5756 18.0145 35.7557 18.1417 35.9532 18.3681C35.9922 18.482 36.1206 18.6307 36.261 18.7935C36.402 18.9557 36.5543 19.133 36.6578 19.2844C36.7729 19.422 36.8702 19.5527 36.9594 19.6792C37.001 19.7438 37.0458 19.8055 37.0827 19.8693C37.1022 19.9009 37.1214 19.9324 37.1406 19.9638L37.194 20.0597C37.3355 20.3163 37.4488 20.5884 37.5364 20.9372C37.5254 20.9939 37.5206 21.0522 37.5209 21.1117C37.5182 21.1713 37.5179 21.2332 37.5222 21.2958C37.5242 21.3271 37.5273 21.359 37.5311 21.3911C37.532 21.4234 37.5337 21.4558 37.5357 21.4887C37.5377 21.5216 37.5405 21.5547 37.5437 21.5879C37.5467 21.6215 37.5515 21.6546 37.5508 21.6885C37.5684 21.9579 37.551 22.2431 37.4561 22.4625L37.485 22.6038C37.474 22.6216 37.4641 22.64 37.4548 22.659C37.4446 22.6782 37.434 22.6977 37.4243 22.7182C37.4047 22.7588 37.3872 22.8024 37.3711 22.8484C37.3559 22.8942 37.3367 22.9415 37.3194 22.9908C37.3013 23.04 37.2856 23.091 37.2664 23.1428C37.1893 23.349 37.0926 23.5704 36.9415 23.7527C36.9111 23.8657 36.8889 23.9229 36.8783 23.9473C36.8912 23.93 36.9169 23.9077 36.9566 23.9177C36.9341 23.9436 36.9116 23.9794 36.8882 24.017C36.8645 24.0545 36.8395 24.0938 36.8171 24.1288C36.7718 24.1982 36.7279 24.247 36.6995 24.2182L36.7108 24.1845C36.682 24.1556 36.6362 24.2482 36.5794 24.3603C36.5501 24.4165 36.5175 24.4776 36.4842 24.5304C36.4499 24.5837 36.4135 24.6287 36.3781 24.6522L36.4962 24.6261L36.3375 24.8434L36.3636 24.7737C35.8777 25.8628 35.3615 26.161 34.8999 27.1795C34.9028 27.0063 34.8213 27.3882 34.7288 27.3449C34.4697 27.5079 34.4686 27.7914 34.3714 28.0008C34.3756 28.0035 34.3787 28.0092 34.3782 28.0242L34.1485 28.3509C34.1731 28.0814 34.0786 28.6491 34.1084 28.4064C33.4553 29.2222 32.7851 30.4066 32.0657 31.3687L32.1228 31.344C31.9447 31.5909 31.7606 31.9241 31.5845 32.0816C31.4087 32.2393 31.3599 32.5399 31.3114 32.6155C31.2094 32.8536 30.9822 32.9709 31.0508 32.8873C30.904 33.1125 30.8459 33.3866 30.5778 33.6507C30.4957 33.6674 30.3614 33.8835 30.2296 34.0833C30.0985 34.2838 29.9697 34.4668 29.9201 34.4309L29.9254 34.4409C29.739 34.5901 29.5988 34.7665 29.4497 34.9387C29.3018 35.1095 29.1419 35.281 28.9358 35.3847C28.9358 35.3847 28.9373 35.3723 28.9448 35.357C28.902 35.4279 28.8576 35.4955 28.81 35.5606C28.7625 35.6242 28.7123 35.6854 28.6578 35.7406C28.5491 35.847 28.4225 35.9379 28.2505 35.9431C28.2697 36.0205 28.3076 36.103 28.3638 36.1749C28.4197 36.2497 28.4919 36.3146 28.5737 36.3728C28.6875 36.385 28.7989 36.381 28.9059 36.3697C29.0104 36.357 29.1137 36.3374 29.2105 36.3129C29.4065 36.2641 29.5861 36.1988 29.7598 36.128C29.9424 35.9692 30.1049 35.807 30.2573 35.6427C30.4097 35.4783 30.5529 35.3116 30.6913 35.1442C30.9671 34.8086 31.2236 34.4682 31.472 34.1254C31.9179 33.6156 32.3448 33.0965 32.7648 32.5736C33.6868 31.2322 34.5661 29.8764 35.442 28.5198L35.5551 28.1803C36.212 27.4733 36.7235 26.3508 37.3795 25.5562L37.3247 25.4952C37.4787 25.2509 37.5105 25.2909 37.561 25.2383C37.9331 24.6546 38.2926 24.0038 38.5255 23.2867C38.7582 22.5708 38.8529 21.782 38.7512 21.024C38.705 20.6458 38.6083 20.2778 38.4799 19.9302C38.4172 19.7553 38.3415 19.5878 38.2639 19.4231C38.1824 19.2608 38.0979 19.1009 38.0048 18.9492C37.9137 18.7955 37.8144 18.6504 37.7142 18.5071C37.6113 18.3664 37.5075 18.228 37.3984 18.0972C37.1818 17.8329 36.9524 17.5899 36.719 17.3611C36.643 17.2571 36.4541 17.085 36.2629 16.9287C36.072 16.7709 35.8795 16.6278 35.8134 16.5493C35.6261 16.4494 35.4307 16.347 35.2467 16.2532C35.2004 16.2289 35.154 16.2045 35.1077 16.1798L34.9668 16.1071L34.8266 16.0333L34.6848 15.9612C34.3069 15.7671 33.9227 15.5775 33.5342 15.4144L33.5673 15.4181L33.379 15.3528C33.3165 15.331 33.254 15.3087 33.1896 15.2905C33.1757 15.2788 33.1769 15.2693 33.1912 15.2679C33.078 15.2485 32.9554 15.2108 32.8194 15.1758C32.7518 15.1572 32.6828 15.1366 32.6121 15.1144C32.5404 15.0943 32.4673 15.0735 32.393 15.0528C32.3559 15.0418 32.3189 15.0309 32.2814 15.0202C32.2438 15.0096 32.2054 15.0012 32.1676 14.9913C32.0912 14.9721 32.015 14.9525 31.9398 14.9333C31.8636 14.9166 31.7869 14.9018 31.7124 14.8868C31.6378 14.8718 31.5648 14.8571 31.4925 14.8493L31.5273 14.8432C31.1085 14.7976 30.6807 14.8042 30.2614 14.8638C29.8406 14.9226 29.4241 15.0391 29.0377 15.2078C28.6504 15.3764 28.2915 15.5955 27.9688 15.8467C27.6457 16.0982 27.3572 16.3813 27.0988 16.6819C26.5824 17.2847 26.1833 17.9515 25.8502 18.6446C25.6853 18.9925 25.5364 19.3472 25.4031 19.7132C25.2699 20.0784 25.1535 20.4638 25.0699 20.8702C25.0581 20.9173 25.0459 20.9642 25.0336 21.0116C25.0209 21.0589 25.015 21.1086 25.0056 21.1576C24.9898 21.2561 24.971 21.3556 24.9608 21.4568C24.9525 21.5585 24.9452 21.6612 24.9393 21.7647C24.935 21.8682 24.939 21.9718 24.9402 22.0762C24.9545 22.4932 25.0203 22.9056 25.1039 23.303C25.1902 23.6975 25.2886 24.0864 25.3812 24.4706C25.4274 24.6639 25.4714 24.8546 25.5126 25.0482C25.5526 25.2404 25.5903 25.4332 25.6221 25.6266C25.6159 25.7755 25.81 26.6129 25.9874 27.4503C26.0756 27.8649 26.1575 28.2804 26.2197 28.6094C26.2823 28.9384 26.3251 29.1813 26.3439 29.2484L26.3426 29.2452Z" fill="#BD2B54"/>
<path d="M26.792 33.8676L26.791 33.8549C26.7571 33.8576 26.7712 33.8757 26.792 33.8676Z" fill="#BD2B54"/>
<path d="M27.0325 27.2206C27.0336 27.2279 27.0348 27.2348 27.0359 27.2417L27.0665 27.1545L27.0329 27.2207L27.0325 27.2206Z" fill="#BD2B54"/>
<path d="M27.612 31.4432C27.6097 31.2515 27.6007 31.243 27.5892 31.2709C27.592 31.3401 27.5986 31.4004 27.612 31.4432Z" fill="#BD2B54"/>
<path d="M27.1276 35.5511C27.1493 35.6119 27.1625 35.6295 27.167 35.6212C27.1712 35.6129 27.1689 35.5795 27.166 35.5406C27.1401 35.4804 27.1227 35.4305 27.1101 35.3953C27.0984 35.3604 27.0917 35.3398 27.0917 35.3398C27.1032 35.4067 27.1077 35.4784 27.1276 35.5511Z" fill="#BD2B54"/>
<path d="M27.4356 34.9847L27.4691 35.0106C27.4502 34.9531 27.4409 34.957 27.4356 34.9847Z" fill="#BD2B54"/>
<path d="M29.5794 21.8388C29.5822 21.8316 29.5756 21.8284 29.5794 21.8388Z" fill="#BD2B54"/>
<path d="M32.9612 23.4776C32.9612 23.4776 32.9633 23.4761 32.9647 23.4752C32.9596 23.4593 32.9555 23.4458 32.9526 23.4355L32.9612 23.4776Z" fill="#BD2B54"/>
<path d="M33.5682 23.1194C33.5708 23.1192 33.5721 23.1191 33.5747 23.1189C33.5669 23.1127 33.5602 23.1055 33.5682 23.1194Z" fill="#BD2B54"/>
<path d="M31.3428 23.8733C31.3366 23.8709 31.3321 23.8736 31.3284 23.8782C31.3329 23.8755 31.3373 23.8732 31.3428 23.8733Z" fill="#BD2B54"/>
<path d="M29.8044 20.5277C29.8044 20.5277 29.8039 20.5297 29.8035 20.5313C29.8079 20.5307 29.8112 20.5294 29.8163 20.5294L29.804 20.5276L29.8044 20.5277Z" fill="#BD2B54"/>
<path d="M29.8203 20.5557C29.8013 20.5637 29.8032 20.5398 29.8044 20.5319C29.7761 20.5359 29.7649 20.5512 29.7637 20.5724C29.7853 20.5848 29.8003 20.5531 29.8203 20.5557Z" fill="#BD2B54"/>
<path d="M31.9661 19.3716L31.9573 19.3813C31.9609 19.3788 31.9634 19.3756 31.9661 19.3716Z" fill="#BD2B54"/>
<path d="M31.2195 25.0753C31.2134 25.0767 31.2071 25.0768 31.2017 25.0783C31.2103 25.0805 31.2158 25.0785 31.2195 25.0753Z" fill="#BD2B54"/>
<path d="M31.5546 19.3545L31.5541 19.3943C31.5562 19.3778 31.556 19.3653 31.5546 19.3545Z" fill="#BD2B54"/>
<path d="M32.953 23.436L32.9498 23.4199C32.9501 23.4238 32.9512 23.4296 32.953 23.436Z" fill="#BD2B54"/>
<path d="M33.9191 22.583C33.9302 22.587 33.9394 22.5889 33.9476 22.5901C33.9478 22.5894 33.948 22.5886 33.9485 22.5883L33.9191 22.583Z" fill="#BD2B54"/>
<path d="M32.9012 19.1292C32.8997 19.1337 32.8981 19.1386 32.8971 19.144L32.9242 19.1265C32.9149 19.125 32.9073 19.1259 32.9012 19.1296L32.9012 19.1292Z" fill="#BD2B54"/>
<path d="M34.1976 21.6722C34.1932 21.672 34.1887 21.67 34.1838 21.67C34.1722 21.6884 34.1721 21.7331 34.1779 21.7899L34.2261 21.7909L34.1977 21.6719L34.1976 21.6722Z" fill="#BD2B54"/>
<path d="M34.8288 20.0704C34.8251 20.131 34.8204 20.1905 34.8151 20.2491C34.6866 20.047 34.6005 19.8966 34.5105 19.7555C34.4872 19.7206 34.4642 19.6865 34.4403 19.6526C34.4161 19.6186 34.3887 19.5871 34.3604 19.5542C34.3047 19.4885 34.2347 19.4279 34.1518 19.366L34.1824 19.368C34.1707 19.338 34.1178 19.3559 34.0361 19.3009C33.9956 19.2727 33.9444 19.2299 33.8832 19.1534C33.8206 19.0778 33.746 18.9713 33.6412 18.8203L33.6465 18.8122C33.6258 18.8001 33.6161 18.8157 33.5893 18.7688C33.6129 18.8055 33.6336 18.8455 33.6544 18.8835C33.5839 18.8622 33.5071 18.8691 33.4258 18.827C33.4147 18.8078 33.419 18.7871 33.4251 18.7726C33.3569 18.7387 33.2866 18.7083 33.2168 18.6777L33.1798 18.5917C33.1403 18.5921 33.1143 18.6253 33.0813 18.6408C33.0646 18.6485 33.0465 18.6518 33.0234 18.6443C33.0001 18.6376 32.9719 18.6207 32.9353 18.5869C32.9667 18.6969 32.8311 18.6051 32.8361 18.6568C32.8315 18.6425 32.8179 18.6198 32.8065 18.6001C32.7526 18.589 32.6759 18.5714 32.6039 18.5673C32.5315 18.5631 32.4665 18.5656 32.4376 18.5826C32.4376 18.5826 32.4602 18.6005 32.4949 18.6289C32.5293 18.6585 32.5759 18.6952 32.6213 18.7415C32.6667 18.7877 32.7132 18.8359 32.7498 18.8828C32.7865 18.931 32.815 18.9746 32.8292 19.0061C32.7127 18.9342 32.7925 19.0038 32.8051 19.0415L32.822 19.0236C32.8877 19.0737 32.8628 19.129 32.8914 19.1587C32.8932 19.1547 32.8947 19.1489 32.896 19.1435L32.8882 19.1485C32.8893 19.1377 32.8939 19.1323 32.9001 19.1289C32.9043 19.1172 32.9118 19.1101 32.9296 19.1224L32.9233 19.1261C32.9398 19.129 32.9604 19.1387 32.9786 19.1494C32.9972 19.1603 33.0132 19.1733 33.0232 19.1807L33.0014 19.2237C33.0475 19.1967 33.1187 19.2728 33.1747 19.3648C33.2042 19.4091 33.2285 19.4595 33.25 19.4993C33.2715 19.5396 33.2897 19.57 33.303 19.5824C33.3134 19.6293 33.3469 19.6508 33.3856 19.6716C33.4232 19.6933 33.4644 19.7156 33.4886 19.7565C33.5835 19.8669 33.4924 19.8571 33.5141 19.9356C33.5555 20.0177 33.5415 19.8838 33.5687 19.9062C33.5782 19.9468 33.5848 19.989 33.5923 20.0294C33.5468 19.9885 33.5484 20.0328 33.542 20.0533C33.5556 20.0711 33.5673 20.0945 33.579 20.1184C33.5895 20.1436 33.5998 20.1695 33.6109 20.192C33.6221 20.2145 33.6347 20.2329 33.6504 20.2438C33.6653 20.2549 33.6832 20.2586 33.7065 20.2492C33.7241 20.3115 33.725 20.347 33.7241 20.3734C33.7227 20.4002 33.7207 20.4165 33.7327 20.4388C33.7379 20.415 33.7323 20.3784 33.748 20.3667C33.7394 20.4302 33.7693 20.3798 33.7661 20.3581C33.8032 20.3769 33.8221 20.4796 33.8334 20.5719C33.8409 20.6172 33.846 20.6608 33.8562 20.6904C33.8664 20.72 33.8821 20.7359 33.9073 20.727L33.8903 20.7359C33.9676 20.7155 34.0236 20.6557 34.0851 20.6835L34.0684 20.7306L34.1215 20.764C34.1137 20.8067 34.0868 20.7992 34.0784 20.8032C34.1133 20.8341 34.1293 20.8832 34.1434 20.9348C34.1562 20.9868 34.1603 21.044 34.1729 21.0935C34.2284 21.0373 34.2833 20.9789 34.3373 20.9174C34.3285 20.9702 34.3176 21.0417 34.3098 21.1004C34.3034 21.1587 34.3086 21.2031 34.3443 21.203C34.3257 21.2266 34.3063 21.25 34.2874 21.2728C34.2644 21.3236 34.2579 21.3544 34.2618 21.375C34.2641 21.3953 34.2764 21.4049 34.2909 21.4106C34.3204 21.4225 34.3592 21.4196 34.3455 21.458C34.3256 21.4915 34.3051 21.5241 34.2818 21.5564C34.2795 21.528 34.2748 21.4997 34.2699 21.4718C34.2589 21.517 34.2463 21.5492 34.232 21.5784C34.2177 21.6076 34.202 21.6344 34.1809 21.6693C34.1817 21.6695 34.1824 21.6697 34.1832 21.6699C34.186 21.6652 34.1893 21.662 34.1937 21.6606C34.1949 21.6642 34.196 21.6681 34.1971 21.6717C34.2367 21.6775 34.266 21.719 34.268 21.7781C34.266 21.8203 34.2757 21.8568 34.2799 21.9005C34.285 21.944 34.2736 21.9944 34.2303 22.0574C34.2566 22.0701 34.2825 22.0832 34.3074 22.0964L34.2496 22.191L34.1865 22.183C34.2037 22.0897 34.1873 21.91 34.1778 21.7895L34.1485 21.7887C34.1508 21.8594 34.1812 21.9409 34.171 21.988C34.1574 22.0112 34.0889 22.0637 34.0477 22.0202C34.0678 22.035 34.088 22.0508 34.1079 22.0664C34.1029 22.1238 34.1014 22.1673 34.0961 22.2029C34.0901 22.2383 34.0841 22.2672 34.0758 22.2954C34.0682 22.3239 34.0529 22.3508 34.0359 22.3843C34.0264 22.4007 34.018 22.4195 34.0044 22.4391C33.9913 22.4588 33.9764 22.4805 33.9591 22.5053L33.9955 22.4959C34.0014 22.5458 34.0011 22.5962 33.9478 22.5898C33.9204 22.653 33.8772 22.7107 33.8321 22.758C33.8072 22.7804 33.7821 22.8004 33.7559 22.8164C33.7301 22.8325 33.7004 22.8431 33.6728 22.8501L33.726 22.9061C33.7083 22.9295 33.5901 22.897 33.6681 22.9686C33.6652 22.9913 33.663 23.0149 33.6589 23.0377C33.6298 23.064 33.6475 23.1111 33.5859 23.1178C33.5822 23.1181 33.578 23.1183 33.5735 23.1184C33.5751 23.12 33.5769 23.1209 33.5787 23.1221C33.4939 23.1657 33.6294 23.1669 33.5273 23.2138C33.4657 23.1996 33.5684 23.3066 33.5182 23.3321C33.4813 23.3188 33.4433 23.3035 33.4071 23.2878C33.3517 23.2944 33.3416 23.3214 33.3277 23.3557C33.3139 23.3895 33.3027 23.4372 33.2455 23.4757C33.1693 23.4832 33.0951 23.4211 33.0832 23.3312C33.0911 23.4435 33.0976 23.398 33.0589 23.4789C33.0278 23.4506 33.0308 23.4386 33.0253 23.3987C32.9456 23.3926 33.009 23.4504 32.9641 23.474C32.9887 23.5478 33.0309 23.6638 33.0174 23.6768L33.0472 23.6872C33.0315 23.7201 33.0095 23.7458 32.9824 23.7656C32.9689 23.7754 32.9539 23.7827 32.9375 23.7876C32.9209 23.7916 32.9025 23.7931 32.8824 23.7914L32.8693 23.7553L32.8098 23.8027L32.7872 23.7589L32.6961 23.8098L32.7139 23.8172C32.6942 23.8335 32.6211 23.873 32.5698 23.8634L32.5634 23.8368C32.489 23.8128 32.4369 23.8358 32.3805 23.8659C32.3252 23.8984 32.2667 23.9387 32.1912 23.9554L32.2028 23.8976C32.1444 23.8493 32.2012 23.9841 32.1355 23.9648L32.1242 23.8971C32.0809 23.9942 32.0528 23.8858 32.0146 23.8549L32.0393 23.9427L31.9679 23.9297C31.8896 23.9035 31.9168 23.818 31.9245 23.7711L31.8776 23.8434L31.8658 23.7646C31.8312 23.8584 31.8303 23.7508 31.7673 23.7993C31.7629 23.7695 31.779 23.7527 31.7582 23.7392C31.7233 23.7768 31.6873 23.8108 31.6493 23.846L31.7153 23.8006L31.7024 23.9155C31.6288 23.9979 31.6098 23.8988 31.5592 23.9243L31.5959 23.8941C31.5145 23.9126 31.5148 23.8639 31.4754 23.8331C31.4855 23.8566 31.5028 23.8904 31.4689 23.9016C31.4445 23.9041 31.4619 23.8592 31.4426 23.8429C31.434 23.8805 31.4142 23.9071 31.3903 23.9188C31.3664 23.9308 31.3386 23.9271 31.3167 23.9032C31.3194 23.8924 31.3227 23.8825 31.3276 23.8764C31.3125 23.8857 31.3014 23.9038 31.2826 23.8807L31.3139 23.7999C31.2945 23.8234 31.2742 23.847 31.2536 23.8705C31.2303 23.8421 31.1741 23.8895 31.1923 23.835L31.2126 23.8229C31.1433 23.7985 31.0767 23.7695 31.0114 23.7388L31.0324 23.6735C30.9795 23.7533 30.9397 23.5998 30.9015 23.7095C30.8958 23.6716 30.8555 23.6656 30.8253 23.6551C30.7952 23.6443 30.7778 23.6272 30.8179 23.5737C30.7892 23.5554 30.7595 23.548 30.7302 23.5422C30.7011 23.5357 30.6715 23.5328 30.6411 23.5281C30.61 23.5244 30.5822 23.5129 30.553 23.4965C30.5245 23.4795 30.4958 23.4563 30.4719 23.4179C30.4831 23.3535 30.4537 23.3039 30.4111 23.2612C30.3709 23.2158 30.3204 23.1719 30.2858 23.1317C30.2431 23.1008 30.2035 23.0721 30.1644 23.045C30.1546 23.0381 30.1447 23.0319 30.1355 23.0246C30.1267 23.0171 30.1178 23.0099 30.1091 23.0024C30.0914 22.9877 30.0741 22.9731 30.0565 22.9585C30.0389 22.9438 30.0213 22.9287 30.0034 22.9135C29.9864 22.8978 29.9707 22.8803 29.9535 22.8625C29.9366 22.8447 29.9195 22.826 29.9013 22.8071C29.8923 22.7974 29.8833 22.7874 29.874 22.7773C29.8655 22.7669 29.8573 22.7555 29.8487 22.7439C29.8864 22.6459 29.8349 22.5833 29.7841 22.5127C29.7275 22.446 29.6737 22.371 29.692 22.2899C29.6681 22.2839 29.6426 22.2775 29.6204 22.2698C29.6566 22.2088 29.6366 22.1529 29.6148 22.0909C29.6072 22.0594 29.5986 22.0265 29.5969 21.9924C29.5961 21.9582 29.5974 21.9233 29.6202 21.888C29.5907 21.8588 29.5808 21.8424 29.5781 21.8352C29.5757 21.8415 29.5646 21.8515 29.5251 21.8584C29.5502 21.8175 29.5082 21.7413 29.5881 21.7433L29.5972 21.7526C29.6368 21.7535 29.6244 21.7262 29.6156 21.6924C29.6056 21.6587 29.5937 21.618 29.6282 21.5984L29.5432 21.6197L29.5576 21.5478L29.5739 21.5679C29.5315 21.4884 29.5216 21.417 29.5231 21.3538C29.5314 21.2911 29.5525 21.2365 29.5732 21.1834C29.5978 21.1314 29.6258 21.0818 29.6392 21.0236C29.6449 20.9943 29.6524 20.9642 29.6549 20.93C29.6562 20.9131 29.656 20.8946 29.6554 20.8756C29.6552 20.8567 29.6541 20.8367 29.6514 20.8147C29.7216 20.8881 29.6292 20.7398 29.7246 20.7781C29.7992 20.7718 29.8053 20.7393 29.7972 20.6979C29.789 20.6573 29.7624 20.6063 29.7632 20.5704C29.7589 20.5681 29.754 20.5644 29.7493 20.5571C29.7727 20.5277 29.7941 20.4978 29.8181 20.4694C29.8534 20.5315 29.8418 20.5007 29.8295 20.4681C29.8169 20.435 29.8032 20.3996 29.831 20.4554C29.9503 20.3627 30.0512 20.2383 30.1696 20.1147C30.287 19.992 30.4244 19.8727 30.5789 19.8044L30.5491 19.7842C30.5867 19.7637 30.6257 19.7341 30.664 19.7089C30.7038 19.6861 30.7433 19.6677 30.7845 19.6784C30.8254 19.6887 30.8475 19.6545 30.8651 19.6171C30.8827 19.5797 30.8938 19.5369 30.9051 19.5295C30.9547 19.4497 31.0557 19.5341 31.0237 19.5392C31.0576 19.5186 31.0835 19.4771 31.1171 19.44C31.1508 19.4054 31.1924 19.3752 31.252 19.3877C31.2672 19.4121 31.2913 19.414 31.3199 19.4048C31.3481 19.3955 31.3817 19.3776 31.4143 19.3588C31.4801 19.3236 31.5456 19.2917 31.5531 19.353L31.5532 19.3428C31.5904 19.3616 31.6249 19.3645 31.6588 19.3619C31.6928 19.3602 31.7261 19.3501 31.7607 19.3415C31.795 19.3338 31.83 19.3249 31.8659 19.3241C31.9014 19.3248 31.9381 19.3307 31.9735 19.3531C31.9735 19.3531 31.9701 19.3617 31.9644 19.3697C32.0731 19.2539 32.1969 19.1463 32.337 19.0486C32.333 18.9094 32.3235 18.7692 32.3085 18.6281C32.2111 18.4998 32.0997 18.3751 31.9755 18.2586C31.6224 18.2635 31.2804 18.3273 30.9578 18.4325C30.6853 18.4576 30.4114 18.5131 30.1431 18.6032C29.8434 18.7646 29.567 18.97 29.3226 19.2101C29.0802 19.4519 28.8702 19.7298 28.7099 20.0349C28.7137 20.0932 28.7161 20.1492 28.7234 20.2064C28.5625 20.3477 28.4796 20.5701 28.4345 20.7987L28.4155 20.8842C28.4088 20.9124 28.4063 20.9417 28.4015 20.9709C28.3927 21.0286 28.3836 21.0861 28.3728 21.1425C28.3599 21.1987 28.3542 21.2555 28.342 21.3107C28.3306 21.3661 28.3157 21.4206 28.2969 21.4741L28.3752 21.4872C28.378 21.6068 28.3294 21.5979 28.3153 21.628C28.3123 21.7704 28.3307 21.9112 28.3471 22.0519C28.3579 22.1214 28.3733 22.1905 28.3872 22.2596C28.3946 22.2939 28.4006 22.3286 28.4097 22.3625L28.4389 22.4637L28.4686 22.5643L28.4835 22.6144C28.4892 22.631 28.4954 22.6469 28.5016 22.6632C28.5263 22.7281 28.5515 22.7926 28.5762 22.8575C28.6024 22.9215 28.6338 22.9827 28.6629 23.045C28.6777 23.0757 28.6921 23.1068 28.7074 23.1373L28.7572 23.2265C28.8861 23.466 29.0431 23.6834 29.2083 23.8865C29.2506 23.9369 29.2926 23.9868 29.3344 24.0363C29.379 24.084 29.4233 24.1312 29.4673 24.1779C29.5101 24.2264 29.5575 24.2699 29.6033 24.3142C29.6502 24.3579 29.6934 24.4049 29.7417 24.4461C29.7658 24.4953 29.8446 24.5573 29.9218 24.6173C30.0023 24.6723 30.0803 24.7276 30.1027 24.7689C30.2738 24.8078 30.4384 24.8532 30.6001 24.902C30.7623 24.9468 30.9216 24.9983 31.0797 25.0335L31.0659 25.0394C31.1167 25.0461 31.1679 25.0499 31.2185 25.0523C31.2236 25.0598 31.2229 25.069 31.217 25.0745C31.3077 25.055 31.4156 25.0678 31.5287 25.0892C31.642 25.1102 31.761 25.1377 31.8668 25.1507L31.8548 25.1596C32.1631 25.1583 32.4644 25.1117 32.7507 25.0281C33.037 24.9433 33.3095 24.8247 33.5655 24.6757C34.0764 24.3758 34.5267 23.9643 34.8891 23.4323C35.0919 23.2027 35.2042 22.8798 35.2553 22.5505C35.3051 22.2181 35.3015 21.883 35.3217 21.546C35.3294 21.5299 35.3329 21.4947 35.3327 21.445C35.3323 21.4203 35.3313 21.3917 35.3293 21.3605C35.3264 21.3294 35.3215 21.2953 35.3162 21.2592C35.297 21.1133 35.2491 20.9351 35.1895 20.7622C35.1568 20.6769 35.1254 20.5911 35.0879 20.5136C35.0698 20.4746 35.0523 20.4366 35.0342 20.4009C35.0151 20.3657 34.9968 20.3324 34.9798 20.3007C34.946 20.2377 34.9119 20.1856 34.8849 20.146C34.8579 20.1065 34.838 20.0797 34.8271 20.0692L34.8288 20.0704Z" fill="#BD2B54"/>
<path d="M33.4247 18.7731L33.4291 18.7755C33.4461 18.746 33.4331 18.7532 33.4247 18.7731Z" fill="#BD2B54"/>
<path d="M34.1758 21.1012L34.1746 21.0947L34.1365 21.1321L34.1758 21.1012Z" fill="#BD2B54"/>
<path d="M33.5008 20.0237C33.5321 20.0732 33.5395 20.0698 33.5442 20.0544C33.5315 20.0376 33.5176 20.0259 33.5008 20.0237Z" fill="#BD2B54"/>
<path d="M32.821 18.5647C32.7827 18.5497 32.7916 18.5734 32.8067 18.6019C32.8272 18.6058 32.844 18.6109 32.856 18.6143C32.8679 18.6177 32.8748 18.6199 32.8748 18.6199C32.8564 18.6041 32.8413 18.5789 32.821 18.5647Z" fill="#BD2B54"/>
<path d="M32.8053 19.0425L32.7855 19.0634C32.8066 19.0647 32.8098 19.0554 32.8053 19.0425Z" fill="#BD2B54"/>
</svg>
