<svg width="412" height="121" viewBox="0 0 412 121" fill="none" xmlns="http://www.w3.org/2000/svg">
<path d="M346.554 75.083C345.178 70.4729 348.672 65.1839 354.639 63.4035C360.607 61.6231 366.427 64.1331 367.803 68.7432C369.178 73.3532 365.684 78.6422 359.717 80.4226C353.75 82.203 347.929 79.6931 346.554 75.083Z" fill="#DD8C21" stroke="#DD8C21"/>
<path d="M280.34 75.083C278.965 70.4729 282.459 65.1839 288.426 63.4035C294.393 61.6231 300.214 64.1331 301.59 68.7432C302.965 73.3532 299.471 78.6422 293.504 80.4226C287.537 82.203 281.716 79.6931 280.34 75.083Z" fill="#DD8C21" stroke="#DD8C21"/>
<path d="M234.543 75.083C233.167 70.4729 236.661 65.1839 242.628 63.4035C248.596 61.6231 254.416 64.1331 255.792 68.7432C257.167 73.3532 253.673 78.6422 247.706 80.4226C241.739 82.203 235.918 79.6931 234.543 75.083Z" fill="#DD8C21" stroke="#DD8C21"/>
<path d="M367.377 69.3174L367.377 10.829" stroke="#DD8C21" stroke-width="3"/>
<path d="M301.44 69.3174L301.44 10.829" stroke="#DD8C21" stroke-width="3"/>
<path d="M255.642 69.3174L255.642 10.829" stroke="#DD8C21" stroke-width="3"/>
<path d="M367.671 14.1387L255.66 14.1387" stroke="#DD8C21" stroke-width="7"/>
<path d="M301.458 26.8301H255.66" stroke="#DD8C21" stroke-width="7"/>
<g opacity="0.18">
<path d="M-144.379 100.855L551.964 115.54" stroke="#623800" stroke-width="4"/>
<path d="M-133.343 77.4072L563 92.092" stroke="#623800" stroke-width="4"/>
<path d="M-133.343 50.6406L563 65.3254" stroke="#623800" stroke-width="4"/>
<path d="M-143.275 26.8301L539.825 41.7281" stroke="#623800" stroke-width="4"/>
<path d="M-151 2L526.031 16.898" stroke="#623800" stroke-width="4"/>
</g>
<path d="M12.8162 65.4595L26.5535 48.8799L43.6068 69.486L30.8169 82.7496L12.8162 65.4595Z" stroke="#623800" stroke-width="4"/>
<path d="M70.1343 90.5659L83.8717 73.9863L100.925 94.5924L88.135 107.856L70.1343 90.5659Z" stroke="#623800" stroke-width="4"/>
<path d="M83.8716 26.6162V77.3024" stroke="#623800" stroke-width="4"/>
<path d="M153.032 82.9028L166.77 66.3232L183.823 86.9293L171.033 100.193L153.032 82.9028Z" stroke="#623800" stroke-width="4"/>
<path d="M166.77 14.6904V65.3766" stroke="#623800" stroke-width="4"/>
</svg>
