<?xml version="1.0" encoding="UTF-8"?>
<svg id="Layer_8" data-name="Layer 8" xmlns="http://www.w3.org/2000/svg" viewBox="0 0 175 257">
  <defs>
    <style>
      .cls-1 {
        fill: #58006b;
      }
    </style>
  </defs>
  <path class="cls-1" d="M61.67,70.88c-14.22,24.89-28.44,49.78-42.67,74.67,7.01,12.18,12.87,14.89,17.07,14.93,5.9.06,8.6-5.17,14.93-4.27,6.59.94,6.75,7.05,12.8,8.53,9.31,2.29,13.95-10.95,25.6-10.67,9.82.24,12.33,9.77,21.33,8.53,7.6-1.05,8.23-8.17,14.93-8.53,8.77-.48,11.94,11.47,21.33,12.8,4.63.66,11.57-1.15,21.33-12.8-16.36-28.44-32.71-56.89-49.07-85.33-19.2.71-38.4,1.42-57.6,2.13Z"/>
</svg>