<svg width="339" height="366" viewBox="0 0 339 366" fill="none" xmlns="http://www.w3.org/2000/svg">
<path d="M1.81781 363.738C-1.09409 360.612 4.70616 356.938 4.70616 351.97C4.70616 347.003 1.16227 346.995 1.16227 342.028C1.16227 337.06 4.70616 337.052 4.70616 332.085C4.70616 327.117 1.16227 327.11 1.16227 322.142C1.16227 317.175 4.70616 317.167 4.70616 312.2C4.70616 307.232 1.16227 307.224 1.16227 302.257C1.16227 297.29 4.70616 297.282 4.70616 292.314C4.70616 287.347 1.16227 287.339 1.16227 282.372C1.16227 277.404 4.70616 277.396 4.70616 272.429C4.70616 267.462 1.16227 267.454 1.16227 262.486C1.16227 257.519 4.70616 257.511 4.70616 252.544C4.70616 247.576 1.16227 247.568 1.16227 242.601C1.16227 237.634 4.70616 237.626 4.70616 232.658C4.70616 227.691 1.16227 227.683 1.16227 222.716C1.16227 217.748 4.70616 217.74 4.70616 212.765C4.70616 207.79 1.16227 207.79 1.16227 202.823C1.16227 197.855 4.70616 197.847 4.70616 192.88C4.70616 187.913 1.16227 187.905 1.16227 182.937C1.16227 177.97 4.70616 177.97 4.70616 172.995C4.70616 168.019 1.16227 168.019 1.16227 163.052C1.16227 158.085 4.70616 158.085 4.70616 153.109C4.70616 148.134 1.16227 148.134 1.16227 143.167C1.16227 138.199 4.70616 138.191 4.70616 133.216C4.70616 128.241 1.16227 128.241 1.16227 123.273C1.16227 118.306 4.70616 118.298 4.70616 113.331C4.70616 108.363 1.16227 108.356 1.16227 103.38C1.16227 98.4052 4.70616 98.4052 4.70616 93.43C4.70616 88.4547 1.16227 88.4546 1.16227 83.4793C1.16227 78.5041 4.70616 78.5041 4.70616 73.5289C4.70616 68.5536 1.16227 68.5537 1.16227 63.5784C1.16227 58.6032 4.70616 58.6032 4.70616 53.6358C4.70616 48.6684 1.16227 48.6606 1.16227 43.6854C1.16227 38.7101 4.70616 38.71 4.70616 33.7347C4.70616 28.7595 1.16227 28.7595 1.16227 23.7843C1.16227 18.809 4.70616 18.809 4.70616 13.826C4.70616 8.84289 -1.09409 5.18391 1.81781 2.0499C5.40895 -1.81277 7.55909 6.22603 12.1839 6.22603C16.8086 6.22603 16.8084 1.52501 21.4332 1.52501C26.058 1.52501 26.0581 6.22603 30.6829 6.22603C35.3077 6.22603 35.3076 1.52501 39.9324 1.52501C44.5572 1.52501 44.5573 6.22603 49.1879 6.22603C53.8186 6.22603 53.8127 1.52501 58.4374 1.52501C63.0622 1.52501 63.0622 6.22603 67.6929 6.22603C72.3236 6.22603 72.3177 1.52501 76.9425 1.52501C81.5673 1.52501 81.5672 6.22603 86.1979 6.22603C90.8286 6.22603 90.8227 1.52501 95.4474 1.52501C100.072 1.52501 100.072 6.22603 104.703 6.22603C109.334 6.22603 109.328 1.52501 113.958 1.52501C118.589 1.52501 118.583 6.22603 123.208 6.22603C127.833 6.22603 127.833 1.52501 132.463 1.52501C137.094 1.52501 137.088 6.22603 141.719 6.22603C146.35 6.22603 146.344 1.52501 150.974 1.52501C155.605 1.52501 155.599 6.22603 160.23 6.22603C164.861 6.22603 164.855 1.52501 169.485 1.52501C174.116 1.52501 174.11 6.22603 178.741 6.22603C183.371 6.22603 183.366 1.52501 187.996 1.52501C192.627 1.52501 192.621 6.22603 197.252 6.22603C201.882 6.22603 201.876 1.52501 206.501 1.52501C211.126 1.52501 211.126 6.22603 215.757 6.22603C220.387 6.22603 220.381 1.52501 225.006 1.52501C229.631 1.52501 229.631 6.22603 234.256 6.22603C238.881 6.22603 238.881 1.52501 243.511 1.52501C248.142 1.52501 248.136 6.22603 252.767 6.22603C257.397 6.22603 257.391 1.52501 262.022 1.52501C266.653 1.52501 266.647 6.22603 271.278 6.22603C275.908 6.22603 275.902 1.52501 280.533 1.52501C285.164 1.52501 285.164 6.22603 289.789 6.22603C294.413 6.22603 294.413 1.52501 299.044 1.52501C303.675 1.52501 303.675 6.22603 308.3 6.22603C312.924 6.22603 312.93 1.52501 317.555 1.52501C322.18 1.52501 322.186 6.22603 326.811 6.22603C331.435 6.22603 333.585 -1.81277 337.182 2.0499C340.094 5.17607 334.294 8.85072 334.294 13.8181C334.294 18.7855 337.838 18.7933 337.838 23.7607C337.838 28.7281 334.294 28.7361 334.294 33.7035C334.294 38.6709 337.838 38.6787 337.838 43.6461C337.838 48.6135 334.294 48.6213 334.294 53.5887C334.294 58.5562 337.838 58.5639 337.838 63.5314C337.838 68.4988 334.294 68.5067 334.294 73.4742C334.294 78.4416 337.838 78.4494 337.838 83.4168C337.838 88.3842 334.294 88.392 334.294 93.3594C334.294 98.3268 337.838 98.3346 337.838 103.302C337.838 108.269 334.294 108.277 334.294 113.245C334.294 118.212 337.838 118.22 337.838 123.187C337.838 128.155 334.294 128.163 334.294 133.13C334.294 138.097 337.838 138.105 337.838 143.073C337.838 148.04 334.294 148.048 334.294 153.023C334.294 157.998 337.838 157.998 337.838 162.966C337.838 167.933 334.294 167.941 334.294 172.908C334.294 177.876 337.838 177.884 337.838 182.851C337.838 187.818 334.294 187.818 334.294 192.794C334.294 197.769 337.838 197.769 337.838 202.736C337.838 207.704 334.294 207.704 334.294 212.679C334.294 217.654 337.838 217.654 337.838 222.622C337.838 227.589 334.294 227.597 334.294 232.572C334.294 237.547 337.838 237.548 337.838 242.515C337.838 247.482 334.294 247.49 334.294 252.458C334.294 257.425 337.838 257.433 337.838 262.408C337.838 267.383 334.294 267.383 334.294 272.358C334.294 277.334 337.838 277.334 337.838 282.309C337.838 287.284 334.294 287.284 334.294 292.26C334.294 297.235 337.838 297.235 337.838 302.21C337.838 307.185 334.294 307.185 334.294 312.153C334.294 317.12 337.838 317.128 337.838 322.103C337.838 327.078 334.294 327.078 334.294 332.053C334.294 337.029 337.838 337.029 337.838 342.004C337.838 346.979 334.294 346.979 334.294 351.962C334.294 356.945 340.094 360.604 337.182 363.738C333.591 367.601 331.441 359.562 326.816 359.562C322.192 359.562 322.192 364.263 317.567 364.263C312.942 364.263 312.942 359.562 308.317 359.562C303.692 359.562 303.693 364.263 299.068 364.263C294.443 364.263 294.443 359.562 289.812 359.562C285.182 359.562 285.187 364.263 280.563 364.263C275.938 364.263 275.938 359.562 271.307 359.562C266.677 359.562 266.682 364.263 262.058 364.263C257.433 364.263 257.433 359.562 252.802 359.562C248.172 359.562 248.177 364.263 243.553 364.263C238.928 364.263 238.928 359.562 234.297 359.562C229.666 359.562 229.672 364.263 225.042 364.263C220.411 364.263 220.417 359.562 215.792 359.562C211.167 359.562 211.167 364.263 206.537 364.263C201.906 364.263 201.912 359.562 197.281 359.562C192.651 359.562 192.657 364.263 188.026 364.263C183.395 364.263 183.401 359.562 178.77 359.562C174.14 359.562 174.146 364.263 169.515 364.263C164.884 364.263 164.89 359.562 160.259 359.562C155.629 359.562 155.635 364.263 151.004 364.263C146.373 364.263 146.379 359.562 141.748 359.562C137.124 359.562 137.124 364.263 132.499 364.263C127.874 364.263 127.874 359.562 123.243 359.562C118.613 359.562 118.619 364.263 113.994 364.263C109.369 364.263 109.369 359.562 104.744 359.562C100.12 359.562 100.12 364.263 95.4888 364.263C90.8581 364.263 90.8641 359.562 86.2334 359.562C81.6027 359.562 81.6087 364.263 76.978 364.263C72.3473 364.263 72.3531 359.562 67.7224 359.562C63.0917 359.562 63.0977 364.263 58.467 364.263C53.8363 364.263 53.8364 359.562 49.2116 359.562C44.5868 359.562 44.5867 364.263 39.956 364.263C35.3253 364.263 35.3252 359.562 30.7005 359.562C26.0757 359.562 26.0698 364.263 21.4451 364.263C16.8203 364.263 16.2003 358.058 11.7291 359.641C6.38369 361.537 5.40909 367.601 1.81204 363.738H1.81781Z" fill="#F0EFEA"/>
<path d="M1.81781 363.738C-1.09409 360.612 4.70616 356.938 4.70616 351.97C4.70616 347.003 1.16227 346.995 1.16227 342.028C1.16227 337.06 4.70616 337.052 4.70616 332.085C4.70616 327.117 1.16227 327.11 1.16227 322.142C1.16227 317.175 4.70616 317.167 4.70616 312.2C4.70616 307.232 1.16227 307.224 1.16227 302.257C1.16227 297.29 4.70616 297.282 4.70616 292.314C4.70616 287.347 1.16227 287.339 1.16227 282.372C1.16227 277.404 4.70616 277.396 4.70616 272.429C4.70616 267.462 1.16227 267.454 1.16227 262.486C1.16227 257.519 4.70616 257.511 4.70616 252.544C4.70616 247.576 1.16227 247.568 1.16227 242.601C1.16227 237.634 4.70616 237.626 4.70616 232.658C4.70616 227.691 1.16227 227.683 1.16227 222.716C1.16227 217.748 4.70616 217.74 4.70616 212.765C4.70616 207.79 1.16227 207.79 1.16227 202.823C1.16227 197.855 4.70616 197.847 4.70616 192.88C4.70616 187.913 1.16227 187.905 1.16227 182.937C1.16227 177.97 4.70616 177.97 4.70616 172.995C4.70616 168.019 1.16227 168.019 1.16227 163.052C1.16227 158.085 4.70616 158.085 4.70616 153.109C4.70616 148.134 1.16227 148.134 1.16227 143.167C1.16227 138.199 4.70616 138.191 4.70616 133.216C4.70616 128.241 1.16227 128.241 1.16227 123.273C1.16227 118.306 4.70616 118.298 4.70616 113.331C4.70616 108.363 1.16227 108.356 1.16227 103.38C1.16227 98.4052 4.70616 98.4052 4.70616 93.43C4.70616 88.4547 1.16227 88.4546 1.16227 83.4793C1.16227 78.5041 4.70616 78.5041 4.70616 73.5289C4.70616 68.5536 1.16227 68.5537 1.16227 63.5784C1.16227 58.6032 4.70616 58.6032 4.70616 53.6358C4.70616 48.6684 1.16227 48.6606 1.16227 43.6854C1.16227 38.7101 4.70616 38.71 4.70616 33.7347C4.70616 28.7595 1.16227 28.7595 1.16227 23.7843C1.16227 18.809 4.70616 18.809 4.70616 13.826C4.70616 8.84289 -1.09409 5.18391 1.81781 2.0499C5.40895 -1.81277 7.55909 6.22603 12.1839 6.22603C16.8086 6.22603 16.8084 1.52501 21.4332 1.52501C26.058 1.52501 26.0581 6.22603 30.6829 6.22603C35.3077 6.22603 35.3076 1.52501 39.9324 1.52501C44.5572 1.52501 44.5573 6.22603 49.1879 6.22603C53.8186 6.22603 53.8127 1.52501 58.4374 1.52501C63.0622 1.52501 63.0622 6.22603 67.6929 6.22603C72.3236 6.22603 72.3177 1.52501 76.9425 1.52501C81.5673 1.52501 81.5672 6.22603 86.1979 6.22603C90.8286 6.22603 90.8227 1.52501 95.4474 1.52501C100.072 1.52501 100.072 6.22603 104.703 6.22603C109.334 6.22603 109.328 1.52501 113.958 1.52501C118.589 1.52501 118.583 6.22603 123.208 6.22603C127.833 6.22603 127.833 1.52501 132.463 1.52501C137.094 1.52501 137.088 6.22603 141.719 6.22603C146.35 6.22603 146.344 1.52501 150.974 1.52501C155.605 1.52501 155.599 6.22603 160.23 6.22603C164.861 6.22603 164.855 1.52501 169.485 1.52501C174.116 1.52501 174.11 6.22603 178.741 6.22603C183.371 6.22603 183.366 1.52501 187.996 1.52501C192.627 1.52501 192.621 6.22603 197.252 6.22603C201.882 6.22603 201.876 1.52501 206.501 1.52501C211.126 1.52501 211.126 6.22603 215.757 6.22603C220.387 6.22603 220.381 1.52501 225.006 1.52501C229.631 1.52501 229.631 6.22603 234.256 6.22603C238.881 6.22603 238.881 1.52501 243.511 1.52501C248.142 1.52501 248.136 6.22603 252.767 6.22603C257.397 6.22603 257.391 1.52501 262.022 1.52501C266.653 1.52501 266.647 6.22603 271.278 6.22603C275.908 6.22603 275.902 1.52501 280.533 1.52501C285.164 1.52501 285.164 6.22603 289.789 6.22603C294.413 6.22603 294.413 1.52501 299.044 1.52501C303.675 1.52501 303.675 6.22603 308.3 6.22603C312.924 6.22603 312.93 1.52501 317.555 1.52501C322.18 1.52501 322.186 6.22603 326.811 6.22603C331.435 6.22603 333.585 -1.81277 337.182 2.0499C340.094 5.17607 334.294 8.85072 334.294 13.8181C334.294 18.7855 337.838 18.7933 337.838 23.7607C337.838 28.7281 334.294 28.7361 334.294 33.7035C334.294 38.6709 337.838 38.6787 337.838 43.6461C337.838 48.6135 334.294 48.6213 334.294 53.5887C334.294 58.5562 337.838 58.5639 337.838 63.5314C337.838 68.4988 334.294 68.5067 334.294 73.4742C334.294 78.4416 337.838 78.4494 337.838 83.4168C337.838 88.3842 334.294 88.392 334.294 93.3594C334.294 98.3268 337.838 98.3346 337.838 103.302C337.838 108.269 334.294 108.277 334.294 113.245C334.294 118.212 337.838 118.22 337.838 123.187C337.838 128.155 334.294 128.163 334.294 133.13C334.294 138.097 337.838 138.105 337.838 143.073C337.838 148.04 334.294 148.048 334.294 153.023C334.294 157.998 337.838 157.998 337.838 162.966C337.838 167.933 334.294 167.941 334.294 172.908C334.294 177.876 337.838 177.884 337.838 182.851C337.838 187.818 334.294 187.818 334.294 192.794C334.294 197.769 337.838 197.769 337.838 202.736C337.838 207.704 334.294 207.704 334.294 212.679C334.294 217.654 337.838 217.654 337.838 222.622C337.838 227.589 334.294 227.597 334.294 232.572C334.294 237.547 337.838 237.548 337.838 242.515C337.838 247.482 334.294 247.49 334.294 252.458C334.294 257.425 337.838 257.433 337.838 262.408C337.838 267.383 334.294 267.383 334.294 272.358C334.294 277.334 337.838 277.334 337.838 282.309C337.838 287.284 334.294 287.284 334.294 292.26C334.294 297.235 337.838 297.235 337.838 302.21C337.838 307.185 334.294 307.185 334.294 312.153C334.294 317.12 337.838 317.128 337.838 322.103C337.838 327.078 334.294 327.078 334.294 332.053C334.294 337.029 337.838 337.029 337.838 342.004C337.838 346.979 334.294 346.979 334.294 351.962C334.294 356.945 340.094 360.604 337.182 363.738C333.591 367.601 331.441 359.562 326.816 359.562C322.192 359.562 322.192 364.263 317.567 364.263C312.942 364.263 312.942 359.562 308.317 359.562C303.692 359.562 303.693 364.263 299.068 364.263C294.443 364.263 294.443 359.562 289.812 359.562C285.182 359.562 285.187 364.263 280.563 364.263C275.938 364.263 275.938 359.562 271.307 359.562C266.677 359.562 266.682 364.263 262.058 364.263C257.433 364.263 257.433 359.562 252.802 359.562C248.172 359.562 248.177 364.263 243.553 364.263C238.928 364.263 238.928 359.562 234.297 359.562C229.666 359.562 229.672 364.263 225.042 364.263C220.411 364.263 220.417 359.562 215.792 359.562C211.167 359.562 211.167 364.263 206.537 364.263C201.906 364.263 201.912 359.562 197.281 359.562C192.651 359.562 192.657 364.263 188.026 364.263C183.395 364.263 183.401 359.562 178.77 359.562C174.14 359.562 174.146 364.263 169.515 364.263C164.884 364.263 164.89 359.562 160.259 359.562C155.629 359.562 155.635 364.263 151.004 364.263C146.373 364.263 146.379 359.562 141.748 359.562C137.124 359.562 137.124 364.263 132.499 364.263C127.874 364.263 127.874 359.562 123.243 359.562C118.613 359.562 118.619 364.263 113.994 364.263C109.369 364.263 109.369 359.562 104.744 359.562C100.12 359.562 100.12 364.263 95.4888 364.263C90.8581 364.263 90.8641 359.562 86.2334 359.562C81.6027 359.562 81.6087 364.263 76.978 364.263C72.3473 364.263 72.3531 359.562 67.7224 359.562C63.0917 359.562 63.0977 364.263 58.467 364.263C53.8363 364.263 53.8364 359.562 49.2116 359.562C44.5868 359.562 44.5867 364.263 39.956 364.263C35.3253 364.263 35.3252 359.562 30.7005 359.562C26.0757 359.562 26.0698 364.263 21.4451 364.263C16.8203 364.263 16.2003 358.058 11.7291 359.641C6.38369 361.537 5.40909 367.601 1.81204 363.738H1.81781Z" stroke="#F0EFEA" stroke-miterlimit="10"/>
</svg>
