<svg width="1420" height="851" viewBox="0 0 1420 851" fill="none" xmlns="http://www.w3.org/2000/svg">
<mask id="mask0_406_86142" style="mask-type:alpha" maskUnits="userSpaceOnUse" x="-39" y="0" width="1501" height="910">
<rect x="1461.08" y="895.168" width="1491.28" height="895.024" transform="rotate(179.432 1461.08 895.168)" fill="url(#paint0_linear_406_86142)"/>
</mask>
<g mask="url(#mask0_406_86142)">
<g opacity="0.18">
<path d="M960.236 836.002L986.986 239.428H1023.21L1056.24 836.002H960.236Z" stroke="#623800" stroke-width="3"/>
<path d="M1030.07 213.479H975.236L977.684 217.886H1030.07H1033.98H1035.94L1030.07 213.479Z" stroke="#623800" stroke-width="3"/>
<path d="M1029.58 218.376H979.643L981.696 222.293H1025.63H1028.92V222.782L1029.58 218.376Z" stroke="#623800" stroke-width="3"/>
<path d="M1026.64 212.517C1026.64 212.517 1021.26 100.386 1142.67 92.5725C1277.79 88.6363 1277.79 220.823 1277.79 220.823" stroke="#623800" stroke-width="3"/>
<path d="M990.413 209.567H1015.38C1015.38 209.567 1009.14 94.7209 1139.76 86.292C1285.13 82.0458 1284.64 214.948 1284.64 214.948H1306.18" stroke="#623800" stroke-width="3"/>
<path d="M1296.24 202.002C1296.24 202.002 1296.88 68.3333 1140.98 72.5795C1000.89 81.0084 1007.1 201.971 1007.1 201.971H998.735" stroke="#623800" stroke-width="3"/>
<path d="M730.463 212.517C730.463 212.517 725.079 100.386 846.492 92.5727C981.613 88.6365 980.736 211.98 980.736 211.98" stroke="#623800" stroke-width="3"/>
<path d="M991.736 208.48C991.736 208.48 988.957 82.0459 843.584 86.2921C712.96 94.721 719.204 209.567 719.204 209.567H694.236" stroke="#623800" stroke-width="3"/>
<path d="M1000.22 201.972C1000.22 201.972 1000.71 68.3334 844.799 72.5796C704.71 81.0084 710.923 201.971 710.923 201.971H702.559" stroke="#623800" stroke-width="3"/>
<path d="M991.392 229.635L984.048 222.781H1026.15L1019.79 231.104L1019.3 234.531H991.392V229.635Z" stroke="#623800" stroke-width="3"/>
<path d="M1024.19 238.938H986.006C986.006 238.938 984.224 238.409 984.048 237.469C983.891 236.629 985.027 235.511 985.027 235.511H1024.19C1024.19 235.511 1026.02 236.033 1026.15 236.979C1026.3 238.05 1024.19 238.938 1024.19 238.938Z" stroke="#623800" stroke-width="3"/>
<path d="M1315.27 221.039C1315.27 221.039 1309.89 108.908 1431.3 101.094C1566.42 97.158 1565.54 220.502 1565.54 220.502" stroke="#623800" stroke-width="3"/>
<path d="M1582.74 214.295C1582.74 214.295 1579.96 87.8604 1434.58 92.1066C1303.96 100.535 1310.24 215.002 1310.24 215.002H1301.74" stroke="#623800" stroke-width="3"/>
<path d="M1590.22 200.972C1590.22 200.972 1590.71 67.3334 1434.8 71.5796C1294.71 80.0084 1300.92 200.971 1300.92 200.971L1294.74 201.002" stroke="#623800" stroke-width="3"/>
<path d="M665.736 837.002L689.986 239.428H726.214L752.236 837.002H665.736Z" stroke="#623800" stroke-width="3"/>
<path d="M733.068 213.479H678.236L680.684 217.886H733.068H736.985H738.943L733.068 213.479Z" stroke="#623800" stroke-width="3"/>
<path d="M732.579 218.376H682.643L684.696 222.293H728.63H731.915V222.782L732.579 218.376Z" stroke="#623800" stroke-width="3"/>
<path d="M694.392 229.635L687.048 222.781H729.151L722.787 231.104L722.297 234.531H694.392V229.635Z" stroke="#623800" stroke-width="3"/>
<path d="M727.193 238.938H689.006C689.006 238.938 687.224 238.409 687.048 237.469C686.891 236.629 688.027 235.511 688.027 235.511H727.193C727.193 235.511 729.016 236.033 729.151 236.979C729.304 238.05 727.193 238.938 727.193 238.938Z" stroke="#623800" stroke-width="3"/>
<path d="M434.463 212.517C434.463 212.517 429.079 100.386 550.492 92.5727C685.613 88.6365 684.736 211.98 684.736 211.98" stroke="#623800" stroke-width="3"/>
<path d="M695.736 208.48C695.736 208.48 692.957 82.0459 547.584 86.2921C416.96 94.721 423.204 209.567 423.204 209.567H398.236" stroke="#623800" stroke-width="3"/>
<path d="M704.216 201.972C704.216 201.972 704.706 68.3334 548.799 72.5796C408.71 81.0084 414.923 201.971 414.923 201.971H406.559" stroke="#623800" stroke-width="3"/>
<path d="M434.463 213.039C434.463 213.039 429.079 100.908 550.492 93.0942C685.613 89.158 684.736 212.502 684.736 212.502" stroke="#623800" stroke-width="3"/>
<path d="M695.736 209.002C695.736 209.002 692.956 82.5674 547.584 86.8136C416.96 95.2425 423.204 210.088 423.204 210.088H398.236" stroke="#623800" stroke-width="3"/>
<path d="M704.216 202.494C704.216 202.494 704.706 68.8548 548.799 73.101C408.71 81.5299 414.923 202.493 414.923 202.493H406.559" stroke="#623800" stroke-width="3"/>
<path d="M369.735 837.523L393.985 239.949H430.213L456.235 837.523H369.735Z" stroke="#623800" stroke-width="3"/>
<path d="M437.068 214.001H382.236L384.684 218.407H437.068H440.984H442.942L437.068 214.001Z" stroke="#623800" stroke-width="3"/>
<path d="M436.578 218.897H386.642L388.695 222.814H432.63H435.915V223.304L436.578 218.897Z" stroke="#623800" stroke-width="3"/>
<path d="M398.391 230.157L391.048 223.303H433.151L426.786 231.625L426.297 235.052H398.391V230.157Z" stroke="#623800" stroke-width="3"/>
<path d="M431.193 239.459H393.006C393.006 239.459 391.224 238.93 391.048 237.991C390.891 237.15 392.027 236.032 392.027 236.032H431.193C431.193 236.032 433.016 236.555 433.151 237.501C433.304 238.572 431.193 239.459 431.193 239.459Z" stroke="#623800" stroke-width="3"/>
<path d="M138.463 213.039C138.463 213.039 133.079 100.908 254.492 93.0942C389.613 89.158 388.736 212.502 388.736 212.502" stroke="#623800" stroke-width="3"/>
<path d="M399.736 209.002C399.736 209.002 396.956 82.5674 251.584 86.8136C120.96 95.2425 127.204 210.088 127.204 210.088H102.236" stroke="#623800" stroke-width="3"/>
<path d="M408.216 202.494C408.216 202.494 408.706 68.8548 252.799 73.101C112.71 81.5299 118.923 202.493 118.923 202.493H110.559" stroke="#623800" stroke-width="3"/>
<path d="M138.463 213.039C138.463 213.039 133.079 100.908 254.492 93.0942C389.613 89.158 388.736 212.502 388.736 212.502" stroke="#623800" stroke-width="3"/>
<path d="M399.736 209.002C399.736 209.002 396.956 82.5674 251.584 86.8136C120.96 95.2425 127.204 210.088 127.204 210.088H102.236" stroke="#623800" stroke-width="3"/>
<path d="M408.216 202.494C408.216 202.494 408.706 68.8548 252.799 73.101C112.71 81.5299 118.923 202.493 118.923 202.493H110.559" stroke="#623800" stroke-width="3"/>
<path d="M73.7354 837.523L97.9851 239.949H134.213L160.235 837.523H73.7354Z" stroke="#623800" stroke-width="3"/>
<path d="M141.068 214.001H86.2358L88.6837 218.407H141.068H144.984H146.942L141.068 214.001Z" stroke="#623800" stroke-width="3"/>
<path d="M140.578 218.897H90.6421L92.6951 222.814H136.63H139.915V223.304L140.578 218.897Z" stroke="#623800" stroke-width="3"/>
<path d="M102.391 230.157L95.0479 223.303H137.151L130.786 231.625L130.297 235.052H102.391V230.157Z" stroke="#623800" stroke-width="3"/>
<path d="M135.193 239.459H97.0065C97.0065 239.459 95.2244 238.93 95.0482 237.991C94.8906 237.15 96.0273 236.032 96.0273 236.032H135.193C135.193 236.032 137.016 236.555 137.151 237.501C137.304 238.572 135.193 239.459 135.193 239.459Z" stroke="#623800" stroke-width="3"/>
<path d="M-157.537 213.039C-157.537 213.039 -162.921 100.908 -41.5082 93.0942C93.6128 89.158 92.7361 212.502 92.7361 212.502" stroke="#623800" stroke-width="3"/>
<path d="M103.736 209.002C103.736 209.002 100.956 82.5674 -44.4161 86.8136C-175.04 95.2425 -168.796 210.088 -168.796 210.088H-193.764" stroke="#623800" stroke-width="3"/>
<path d="M112.216 202.494C112.216 202.494 112.706 68.8548 -43.2006 73.101C-183.29 81.5299 -177.077 202.493 -177.077 202.493H-185.441" stroke="#623800" stroke-width="3"/>
<path d="M437.068 213.479H382.236L384.684 217.886H437.068H440.985H442.943L437.068 213.479Z" stroke="#623800" stroke-width="3"/>
<path d="M436.579 218.376H386.643L388.696 222.293H432.63H435.915V222.782L436.579 218.376Z" stroke="#623800" stroke-width="3"/>
<path d="M398.392 229.635L391.048 222.781H433.151L426.787 231.104L426.297 234.531H398.392V229.635Z" stroke="#623800" stroke-width="3"/>
<path d="M431.193 238.938H393.006C393.006 238.938 391.224 238.409 391.048 237.469C390.891 236.629 392.027 235.511 392.027 235.511H431.193C431.193 235.511 433.016 236.033 433.151 236.979C433.304 238.05 431.193 238.938 431.193 238.938Z" stroke="#623800" stroke-width="3"/>
<path d="M1249.24 837.502L1278.28 248.239H1314.51L1333.74 841.002L1249.24 837.502Z" stroke="#623800" stroke-width="3"/>
<path d="M1321.36 222.292H1266.53L1268.98 226.698H1321.36H1325.28H1327.24L1321.36 222.292Z" stroke="#623800" stroke-width="3"/>
<path d="M1320.87 227.188H1270.94L1272.99 231.105H1316.92H1320.21V231.595L1320.87 227.188Z" stroke="#623800" stroke-width="3"/>
<path d="M1282.69 238.448L1275.34 231.594H1317.44L1311.08 239.916L1310.59 243.343H1282.69V238.448Z" stroke="#623800" stroke-width="3"/>
<path d="M1315.49 247.75H1277.3C1277.3 247.75 1275.52 247.221 1275.34 246.282C1275.18 245.441 1276.32 244.323 1276.32 244.323H1315.49C1315.49 244.323 1317.31 244.846 1317.44 245.792C1317.6 246.863 1315.49 247.75 1315.49 247.75Z" stroke="#623800" stroke-width="3"/>
</g>
</g>
<defs>
<linearGradient id="paint0_linear_406_86142" x1="2206.72" y1="895.168" x2="2206.72" y2="1790.19" gradientUnits="userSpaceOnUse">
<stop stop-color="#D9D9D9" stop-opacity="0"/>
<stop offset="1" stop-color="#737373"/>
</linearGradient>
</defs>
</svg>
