<svg width="1501" height="910" viewBox="0 0 1501 910" fill="none" xmlns="http://www.w3.org/2000/svg">
<mask id="mask0_193_13552" style="mask-type:alpha" maskUnits="userSpaceOnUse" x="0" y="0" width="1501" height="910">
<rect x="1500.08" y="895.168" width="1491.28" height="895.024" transform="rotate(179.432 1500.08 895.168)" fill="url(#paint0_linear_193_13552)"/>
</mask>
<g mask="url(#mask0_193_13552)">
<g opacity="0.10">
<path d="M999.235 836.002L1025.99 239.428H1062.21L1095.24 836.002H999.235Z" stroke="#623800" stroke-width="3"/>
<path d="M1069.07 213.48H1014.24L1016.68 217.887H1069.07H1072.98H1074.94L1069.07 213.48Z" stroke="#623800" stroke-width="3"/>
<path d="M1068.58 218.375H1018.64L1020.69 222.292H1064.63H1067.91V222.781L1068.58 218.375Z" stroke="#623800" stroke-width="3"/>
<path d="M1065.64 212.517C1065.64 212.517 1060.26 100.386 1181.67 92.5725C1316.79 88.6363 1316.79 220.823 1316.79 220.823" stroke="#623800" stroke-width="3"/>
<path d="M1029.41 209.566H1054.38C1054.38 209.566 1048.14 94.7199 1178.76 86.291C1324.13 82.0448 1323.64 214.947 1323.64 214.947H1345.18" stroke="#623800" stroke-width="3"/>
<path d="M1335.24 202.002C1335.24 202.002 1335.88 68.3333 1179.98 72.5795C1039.89 81.0084 1046.1 201.971 1046.1 201.971H1037.73" stroke="#623800" stroke-width="3"/>
<path d="M769.463 212.517C769.463 212.517 764.078 100.386 885.491 92.5727C1020.61 88.6365 1019.74 211.98 1019.74 211.98" stroke="#623800" stroke-width="3"/>
<path d="M1030.74 208.48C1030.74 208.48 1027.96 82.0459 882.583 86.2921C751.959 94.721 758.203 209.567 758.203 209.567H733.235" stroke="#623800" stroke-width="3"/>
<path d="M1039.22 201.972C1039.22 201.972 1039.71 68.3334 883.799 72.5796C743.709 81.0084 749.922 201.971 749.922 201.971H741.558" stroke="#623800" stroke-width="3"/>
<path d="M1030.39 229.635L1023.05 222.781H1065.15L1058.79 231.104L1058.3 234.531H1030.39V229.635Z" stroke="#623800" stroke-width="3"/>
<path d="M1063.19 238.939H1025.01C1025.01 238.939 1023.22 238.41 1023.05 237.47C1022.89 236.63 1024.03 235.512 1024.03 235.512H1063.19C1063.19 235.512 1065.02 236.034 1065.15 236.98C1065.3 238.051 1063.19 238.939 1063.19 238.939Z" stroke="#623800" stroke-width="3"/>
<path d="M1354.27 221.039C1354.27 221.039 1348.89 108.908 1470.3 101.094C1605.42 97.158 1604.54 220.502 1604.54 220.502" stroke="#623800" stroke-width="3"/>
<path d="M1621.74 214.295C1621.74 214.295 1618.96 87.8604 1473.58 92.1066C1342.96 100.535 1349.24 215.002 1349.24 215.002H1340.74" stroke="#623800" stroke-width="3"/>
<path d="M1629.22 200.972C1629.22 200.972 1629.71 67.3334 1473.8 71.5796C1333.71 80.0084 1339.92 200.971 1339.92 200.971L1333.74 201.002" stroke="#623800" stroke-width="3"/>
<path d="M704.735 837.002L728.985 239.428H765.213L791.235 837.002H704.735Z" stroke="#623800" stroke-width="3"/>
<path d="M772.067 213.48H717.235L719.683 217.887H772.067H775.984H777.942L772.067 213.48Z" stroke="#623800" stroke-width="3"/>
<path d="M771.578 218.375H721.642L723.695 222.292H767.629H770.914V222.781L771.578 218.375Z" stroke="#623800" stroke-width="3"/>
<path d="M733.391 229.635L726.048 222.781H768.151L761.786 231.104L761.297 234.531H733.391V229.635Z" stroke="#623800" stroke-width="3"/>
<path d="M766.193 238.939H728.006C728.006 238.939 726.224 238.41 726.048 237.47C725.891 236.63 727.027 235.512 727.027 235.512H766.193C766.193 235.512 768.016 236.034 768.151 236.98C768.304 238.051 766.193 238.939 766.193 238.939Z" stroke="#623800" stroke-width="3"/>
<path d="M473.463 212.517C473.463 212.517 468.078 100.386 589.491 92.5727C724.612 88.6365 723.736 211.98 723.736 211.98" stroke="#623800" stroke-width="3"/>
<path d="M734.735 208.48C734.735 208.48 731.956 82.0459 586.583 86.2921C455.959 94.721 462.203 209.567 462.203 209.567H437.235" stroke="#623800" stroke-width="3"/>
<path d="M743.216 201.972C743.216 201.972 743.706 68.3334 587.799 72.5796C447.709 81.0084 453.922 201.971 453.922 201.971H445.558" stroke="#623800" stroke-width="3"/>
<path d="M473.463 213.039C473.463 213.039 468.078 100.908 589.491 93.0942C724.612 89.158 723.735 212.502 723.735 212.502" stroke="#623800" stroke-width="3"/>
<path d="M734.735 209.002C734.735 209.002 731.956 82.5674 586.583 86.8136C455.959 95.2425 462.203 210.088 462.203 210.088H437.235" stroke="#623800" stroke-width="3"/>
<path d="M743.215 202.494C743.215 202.494 743.705 68.8548 587.798 73.101C447.709 81.5299 453.922 202.493 453.922 202.493H445.558" stroke="#623800" stroke-width="3"/>
<path d="M408.735 837.523L432.985 239.949H469.213L495.235 837.523H408.735Z" stroke="#623800" stroke-width="3"/>
<path d="M476.067 214H421.235L423.683 218.406H476.067H479.984H481.942L476.067 214Z" stroke="#623800" stroke-width="3"/>
<path d="M475.578 218.898H425.642L427.695 222.815H471.629H474.914V223.305L475.578 218.898Z" stroke="#623800" stroke-width="3"/>
<path d="M437.391 230.157L430.048 223.303H472.151L465.786 231.625L465.297 235.052H437.391V230.157Z" stroke="#623800" stroke-width="3"/>
<path d="M470.192 239.458H432.006C432.006 239.458 430.224 238.929 430.048 237.99C429.89 237.149 431.027 236.031 431.027 236.031H470.192C470.192 236.031 472.015 236.554 472.151 237.5C472.304 238.571 470.192 239.458 470.192 239.458Z" stroke="#623800" stroke-width="3"/>
<path d="M177.463 213.039C177.463 213.039 172.078 100.908 293.491 93.0942C428.612 89.158 427.735 212.502 427.735 212.502" stroke="#623800" stroke-width="3"/>
<path d="M438.735 209.002C438.735 209.002 435.956 82.5674 290.583 86.8136C159.959 95.2425 166.203 210.088 166.203 210.088H141.235" stroke="#623800" stroke-width="3"/>
<path d="M447.215 202.494C447.215 202.494 447.705 68.8548 291.798 73.101C151.709 81.5299 157.922 202.493 157.922 202.493H149.558" stroke="#623800" stroke-width="3"/>
<path d="M177.463 213.039C177.463 213.039 172.078 100.908 293.491 93.0942C428.612 89.158 427.735 212.502 427.735 212.502" stroke="#623800" stroke-width="3"/>
<path d="M438.735 209.002C438.735 209.002 435.956 82.5674 290.583 86.8136C159.959 95.2425 166.203 210.088 166.203 210.088H141.235" stroke="#623800" stroke-width="3"/>
<path d="M447.215 202.494C447.215 202.494 447.705 68.8548 291.798 73.101C151.709 81.5299 157.922 202.493 157.922 202.493H149.558" stroke="#623800" stroke-width="3"/>
<path d="M112.735 837.523L136.985 239.949H173.213L199.235 837.523H112.735Z" stroke="#623800" stroke-width="3"/>
<path d="M180.067 214H125.235L127.683 218.406H180.067H183.984H185.942L180.067 214Z" stroke="#623800" stroke-width="3"/>
<path d="M179.578 218.898H129.642L131.695 222.815H175.629H178.914V223.305L179.578 218.898Z" stroke="#623800" stroke-width="3"/>
<path d="M141.391 230.157L134.048 223.303H176.151L169.786 231.625L169.297 235.052H141.391V230.157Z" stroke="#623800" stroke-width="3"/>
<path d="M174.193 239.458H136.006C136.006 239.458 134.224 238.929 134.048 237.99C133.891 237.149 135.027 236.031 135.027 236.031H174.193C174.193 236.031 176.016 236.554 176.151 237.5C176.304 238.571 174.193 239.458 174.193 239.458Z" stroke="#623800" stroke-width="3"/>
<path d="M-118.537 213.039C-118.537 213.039 -123.922 100.908 -2.5092 93.0942C132.612 89.158 131.735 212.502 131.735 212.502" stroke="#623800" stroke-width="3"/>
<path d="M142.735 209.002C142.735 209.002 139.956 82.5674 -5.4166 86.8136C-136.041 95.2425 -129.797 210.088 -129.797 210.088H-154.765" stroke="#623800" stroke-width="3"/>
<path d="M151.215 202.494C151.215 202.494 151.705 68.8548 -4.20159 73.101C-144.291 81.5299 -138.078 202.493 -138.078 202.493H-146.442" stroke="#623800" stroke-width="3"/>
<path d="M476.067 213.48H421.235L423.683 217.887H476.067H479.984H481.942L476.067 213.48Z" stroke="#623800" stroke-width="3"/>
<path d="M475.578 218.375H425.642L427.695 222.292H471.629H474.914V222.781L475.578 218.375Z" stroke="#623800" stroke-width="3"/>
<path d="M437.391 229.635L430.048 222.781H472.151L465.786 231.104L465.297 234.531H437.391V229.635Z" stroke="#623800" stroke-width="3"/>
<path d="M470.193 238.939H432.006C432.006 238.939 430.224 238.41 430.048 237.47C429.891 236.63 431.027 235.512 431.027 235.512H470.193C470.193 235.512 472.016 236.034 472.151 236.98C472.304 238.051 470.193 238.939 470.193 238.939Z" stroke="#623800" stroke-width="3"/>
<path d="M1288.24 837.501L1317.28 248.238H1353.51L1372.74 841.001L1288.24 837.501Z" stroke="#623800" stroke-width="3"/>
<path d="M1360.36 222.293H1305.53L1307.98 226.699H1360.36H1364.28H1366.24L1360.36 222.293Z" stroke="#623800" stroke-width="3"/>
<path d="M1359.87 227.188H1309.94L1311.99 231.104H1355.92H1359.21V231.594L1359.87 227.188Z" stroke="#623800" stroke-width="3"/>
<path d="M1321.68 238.448L1314.34 231.594H1356.44L1350.08 239.916L1349.59 243.343H1321.68V238.448Z" stroke="#623800" stroke-width="3"/>
<path d="M1354.49 247.751H1316.3C1316.3 247.751 1314.52 247.222 1314.34 246.282C1314.18 245.442 1315.32 244.324 1315.32 244.324H1354.49C1354.49 244.324 1356.31 244.847 1356.44 245.793C1356.6 246.864 1354.49 247.751 1354.49 247.751Z" stroke="#623800" stroke-width="3"/>
</g>
</g>
<defs>
<linearGradient id="paint0_linear_193_13552" x1="2245.72" y1="895.168" x2="2245.72" y2="1790.19" gradientUnits="userSpaceOnUse">
<stop stop-color="#D9D9D9" stop-opacity="0"/>
<stop offset="1" stop-color="#737373"/>
</linearGradient>
</defs>
</svg>
