<svg width="412" height="479" viewBox="0 0 412 479" fill="none" xmlns="http://www.w3.org/2000/svg">
<g opacity="0.18">
<path d="M365.995 108.295L371.609 138.168L352.071 160.264M365.995 108.295L342.713 103.457M365.995 108.295L367.305 104.758M342.713 103.457L352.071 160.264M342.713 103.457L283.918 109.241M342.713 103.457L344.658 99.8012M352.071 160.264L294.232 171.132L283.918 109.241M283.918 109.241L280.024 106.024M367.305 104.758L344.658 99.8012M367.305 104.758L373.422 102.293L368.773 98.5602M344.658 99.8012L280.024 106.024M344.658 99.8012L348.749 97.0584L346.761 93.4837M280.024 106.024L274.858 103.047M368.773 98.5602L346.761 93.4837M368.773 98.5602L368.175 95.3822M346.761 93.4837L274.858 103.047M346.761 93.4837L346.045 89.6701M274.858 103.047L274.022 98.5974M368.175 95.3822L346.045 89.6701M368.175 95.3822L373.456 88.4675L360.9 82.9304M346.045 89.6701L274.022 98.5974M346.045 89.6701L348.344 77.3933M274.022 98.5974L272.947 92.877L266.587 83.5435L340.558 77.9791M348.344 77.3933L340.558 77.9791M348.344 77.3933L358.389 81.823M360.9 82.9304C360.9 82.9304 364.864 69.5806 370.705 63.3209C380.453 52.8756 391.132 53.018 405.343 51.5479C419.011 50.1341 428.583 49.1564 440.305 55.507C452.027 61.8576 448.617 71.9928 453.942 82.5562M360.9 82.9304L358.389 81.823M453.942 82.5562L446.755 89.8292L449.894 92.5294M453.942 82.5562L470.541 62.3283M340.558 77.9791C340.558 77.9791 336.581 73.6818 339.117 52.8043C348.366 31.9849 373.685 26.7537 399.849 22.3093C417.971 19.231 430.674 15.3395 446.887 23.9991C462.931 32.5677 474.354 61.6117 474.354 61.6117M358.389 81.823C358.389 81.823 359.418 68.9474 363.991 62.6088C370.162 54.0553 377.929 53.3959 387.982 50.2043C395.203 47.9116 399.493 47.1728 407.05 46.6214C419.717 45.6969 428.032 44.6585 439.35 50.4222C445.892 53.7539 450.398 55.7694 454.054 62.1364C457.323 67.8311 457.159 78.6616 457.159 78.6616M449.894 92.5294L471.257 66.1418M449.894 92.5294L454.463 92.3294M471.257 66.1418L470.541 62.3283M471.257 66.1418L522.186 60.5202M471.257 66.1418L472.332 71.8626M470.541 62.3283L521.469 56.7066L522.186 60.5202M522.186 60.5202L522.903 64.3338M454.463 92.3294L472.332 71.8626M454.463 92.3294L456.331 95.2685M472.332 71.8626L522.903 64.3338M522.903 64.3338L530.85 68.1048M530.85 68.1048L474.956 75.3175M530.85 68.1048L531.925 73.8252M474.956 75.3175L456.331 95.2685M474.956 75.3175L476.389 82.9446M456.331 95.2685L451.686 102.064M451.686 102.064L476.389 82.9446M451.686 102.064L457.329 107.584M476.389 82.9446L531.925 73.8252M531.925 73.8252L533.238 80.8171M533.238 80.8171L479.251 87.6715M533.238 80.8171L543.271 134.207L486.067 144.956M479.251 87.6715L457.329 107.584M479.251 87.6715L486.067 144.956M457.329 107.584L466.005 146.752L486.067 144.956" stroke="#623800"/>
<path d="M343.571 62.4977C342.539 65.4461 343.098 70.4831 343.098 70.4831L349.931 71.8312C349.931 71.8312 348.619 68.3714 348.856 66.1108C349.212 62.7316 353.382 58.68 353.382 58.68L350.004 54.7085C350.004 54.7085 344.875 58.7743 343.571 62.4977Z" stroke="#623800"/>
<path d="M354.044 64.709C353.154 67.3941 352.824 72.4409 352.824 72.4409L356.16 75.1142C356.16 75.1142 355.911 71.464 356.31 69.2957C356.905 66.0543 359.538 62.9091 359.538 62.9091L358.293 58.3486C358.293 58.3486 355.167 61.3182 354.044 64.709Z" stroke="#623800"/>
<path d="M378.486 48.6982L363.432 56.1332L360.054 52.1617L376.26 43.8523L378.486 48.6982Z" stroke="#623800"/>
<path d="M357.034 50.0971L354.014 48.0324L369.106 37.3L372.088 42.6621L357.034 50.0971Z" stroke="#623800"/>
<path d="M403.432 41.3785L383.729 45.0809L381.344 42.8968L402.596 36.9293L403.432 41.3785Z" stroke="#623800"/>
<path d="M410.027 41.4554L410.582 37.4029L430.366 37.6335L429.931 42.3216L410.027 41.4554Z" stroke="#623800"/>
<path d="M436.129 43.789L436.923 41.0078C436.923 41.0078 443.57 41.7626 447.293 43.6655C450.318 45.2121 454.207 48.9465 454.207 48.9465L451.388 51.4505C451.388 51.4505 447.51 47.6925 444.473 46.1694C441.444 44.6505 436.129 43.789 436.129 43.789Z" stroke="#623800"/>
<path d="M399.973 33.4744L380.269 37.1768L377.885 34.9928L399.137 29.0253L399.973 33.4744Z" stroke="#623800"/>
<path d="M430.99 31.5522L410.97 30.4726L409.172 27.785L431.233 27.0317L430.99 31.5522Z" stroke="#623800"/>
</g>
<path opacity="0.18" d="M54.4409 461.292C54.8054 458.139 55.9975 455.249 56.7601 452.188C57.0429 451.052 57.7481 449.82 57.3985 448.64C56.3907 445.238 55.3117 441.758 54.042 438.445C52.1725 433.567 47.6152 429.727 44.9783 425.253C41.2829 418.984 38.5496 412.289 35.7887 405.573C34.1179 401.509 32.034 397.612 29.1838 394.254C27.7245 392.535 25.9414 389.164 23.3936 389.347C19.4811 389.627 16.4386 393.378 12.6953 394.438C10.4217 395.082 7.95877 394.53 5.94634 393.379C3.32277 391.879 0.15071 390.983 -2.74871 390.132C-5.35418 389.368 -7.63136 389.918 -10.2587 389.984C-12.0548 390.03 -13.8602 389.937 -15.6523 389.832C-16.5459 389.78 -19.11 390.066 -18.3297 389.627C-17.0697 388.918 -13.2408 390.066 -11.8582 390.139C-7.50662 390.367 -3.22297 390.62 1.13491 390.336C6.16867 390.009 12.292 389.735 16.252 386.182C17.6658 384.913 18.7124 383.432 20.5308 382.697C21.1977 382.427 22.9645 382.409 23.4357 382.091C23.5411 382.02 21.8453 377.215 20.3633 377.964C15.8383 380.252 12.7605 377.683 8.6435 376.614C6.23182 375.988 4.33068 378.992 2.05675 379.97C-1.88411 381.665 -5.92664 381.81 -10.1542 381.186C-13.4688 380.697 -15.795 378.476 -18.9233 377.939C-20.6523 377.643 -27.5111 380.558 -25.988 376.517C-25.1767 374.364 -17.56 375.769 -16.0595 375.776C-12.0478 375.796 -6.76318 376.642 -2.9843 374.793C-1.66279 374.146 0.258726 373.298 1.0825 372.015C1.75954 370.961 -2.80804 370.11 -3.61648 369.844C-6.80113 368.797 -9.27062 369.87 -12.4362 369.682C-13.8993 369.595 -17.941 367.155 -17.6158 365.287C-17.5563 364.945 -16.7811 365.268 -16.7056 365.284C-14.9692 365.655 -13.187 365.448 -11.4367 365.28C-7.20455 364.876 -3.21274 363.228 0.938046 362.832C5.58034 362.389 9.79683 366.387 13.8746 368.056C14.3651 368.256 17.3297 369.677 17.7982 368.909C18.7126 367.411 14.2707 361.869 13.3558 360.591C13.0975 360.23 11.5831 357.626 11.1633 357.649C7.48121 357.856 4.42704 357.965 0.932698 356.034C-0.421697 355.285 -4.48481 349.61 -6.44728 350.933C-7.5923 351.706 -7.45758 353.454 -8.23294 354.512C-9.89172 356.776 -13.0302 358.367 -15.8004 357.353C-17.6232 356.686 -18.4475 354.891 -20.0261 354.144C-20.9763 353.693 -22.9323 355.093 -23.647 355.572C-24.4994 356.144 -25.5771 357.48 -26.5408 357.795C-27.0714 357.968 -27.413 355.981 -27.1699 355.644C-25.7408 353.657 -21.5938 352.771 -19.4045 351.977C-16.4733 350.913 -16.1795 348.766 -14.4533 346.48C-10.8416 341.697 -4.64372 345.252 -0.327455 346.601C1.5046 347.174 3.28805 348.122 5.11251 348.629C6.14079 348.914 3.7288 343.693 3.55088 343.247C3.28229 342.574 2.85334 339.654 1.64289 339.82C-0.899575 340.17 -2.87783 340.525 -5.54467 340.132C-9.46034 339.554 -12.246 338.323 -14.7016 335.17C-15.6852 333.907 -17.074 332.475 -14.7417 333.465C-11.6961 334.758 -7.39572 334.3 -4.20034 333.997C-3.37433 333.919 -0.343715 333.891 0.246585 332.985C0.821306 332.104 -1.23802 328.89 -1.54158 328.267C-4.02511 323.172 -7.08928 318.62 -8.59372 313.093C-9.32499 310.406 -9.87101 304.282 -4.91721 306.785C1.11764 309.836 2.07682 318.008 5.70201 323.003C6.60373 324.246 6.82346 325.351 7.11119 323.623C7.36185 322.117 8.60406 320.014 10.0631 319.393C14.0952 317.677 13.7088 312.704 13.5981 308.885C13.5845 308.414 15.7659 312.035 16.0148 312.588C17.4077 315.682 18.612 318.361 16.2441 321.277C12.8843 325.414 15.8572 329.106 14.9666 333.87C14.7211 335.184 13.0245 337.182 13.4109 338.454C14.2526 341.224 16.5412 343.839 18.0788 346.257C18.4627 346.861 19.7113 350.456 20.6559 350.3C22.9411 349.923 24.2321 344.303 24.7565 342.577C25.3217 340.718 25.707 337.042 27.7236 336.133C30.7834 334.755 30.3857 328.636 30.3091 325.96C30.2004 322.163 29.3366 318.038 31.1573 314.464C31.5345 313.723 32.035 315.913 32.1926 316.727C32.7331 319.521 33.0639 322.345 33.7041 325.12C34.4512 328.359 36.7564 332.273 35.2164 335.55C33.9998 338.139 31.9657 340.392 31.3751 343.237C30.8336 345.846 31.3251 348.327 30.0284 350.797C28.5248 353.661 26.0178 355.988 25.545 359.307C25.0049 363.1 24.2795 367.526 25.4561 371.243C25.9822 372.905 26.3345 375.352 28.5657 375.333C30.4673 375.316 31.3584 372.112 32.1634 370.818C35.7399 365.07 42.7674 364.334 46.1225 358.524C47.8922 355.459 48.6057 352.338 48.2827 348.857C47.9162 344.907 50.4063 342.139 52.0812 338.778C53.1593 336.615 53.5139 334.332 52.9121 331.977C52.0932 328.772 50.7394 324.895 53.1359 321.961C55.1573 319.487 49.3008 327.134 47.9968 330.048C46.4672 333.466 46.2452 336.897 45.1733 340.398C44.4027 342.914 42.9881 344.906 41.8115 347.216C40.4971 349.797 41.3732 352.841 40.2088 355.424C39.2898 357.462 36.734 357.967 34.938 358.963C33.0867 359.989 31.6829 361.361 30.1169 362.748C28.3962 364.272 27.5549 366.043 26.92 368.187C26.3509 370.109 27.4472 372.773 29.1756 373.808C31.1153 374.969 31.9337 370.826 33.3153 371.178C34.0954 371.377 35.4452 375.481 36.0624 376.344C39.7794 381.542 41.8937 387.529 44.8277 393.144C46.6132 396.561 49.0497 399.613 50.7389 403.093C52.7379 407.213 53.3753 411.879 56.4115 415.478C58.742 418.241 60.126 420.957 61.4273 424.346C63.2348 429.053 65.1213 431.403 68.9718 434.621C72.9805 437.972 77.4449 440.973 82.5732 442.181C84.5171 442.639 80.7957 448.292 80.2768 449.019C77.1614 453.384 72.7203 456.202 67.6957 457.844C63.58 459.189 59.1502 459.311 55.1114 460.631" stroke="#623800" stroke-linecap="round"/>
<path opacity="0.18" d="M48.5752 351.903C48.5752 351.903 48.5414 348.371 49.8376 346.759C51.3445 344.885 55.5565 344.477 55.5565 344.477C55.5565 344.477 55.2585 348.251 53.7222 349.849M48.5752 351.903C48.5752 351.903 52.2225 351.409 53.7222 349.849M48.5752 351.903L51.091 351.562L53.7222 349.849M48.5752 351.903L51.6659 348.018" stroke="#623800"/>
<path opacity="0.18" d="M31.8743 344.406C31.8743 344.406 31.8404 340.874 33.1367 339.262C34.6435 337.388 38.8556 336.98 38.8556 336.98C38.8556 336.98 38.5576 340.754 37.0213 342.352M31.8743 344.406C31.8743 344.406 35.5216 343.912 37.0213 342.352M31.8743 344.406L34.3901 344.065L37.0213 342.352M31.8743 344.406L34.965 340.521" stroke="#623800"/>
<path opacity="0.18" d="M-3.73068 306.812C-3.73068 306.812 -3.76455 303.28 -2.4683 301.668C-0.961436 299.794 3.25058 299.386 3.25058 299.386C3.25058 299.386 2.95262 303.16 1.41631 304.759M-3.73068 306.812C-3.73068 306.812 -0.0834192 306.319 1.41631 304.759M-3.73068 306.812L-1.21491 306.471L1.41631 304.759M-3.73068 306.812L-0.640007 302.927" stroke="#623800"/>
<path opacity="0.18" d="M-1.01915 392.305C-1.01915 392.305 -1.47869 395.807 -2.98726 397.222C-4.74095 398.867 -8.96864 398.683 -8.96864 398.683C-8.96864 398.683 -8.14676 394.988 -6.40238 393.62M-1.01915 392.305C-1.01915 392.305 -4.69954 392.284 -6.40238 393.62M-1.01915 392.305L-3.55782 392.291L-6.40238 393.62M-1.01915 392.305L-4.62182 395.72" stroke="#623800"/>
</svg>
