<svg width="282" height="277" viewBox="0 0 282 277" fill="none" xmlns="http://www.w3.org/2000/svg">
<path d="M260.106 262.774C257.756 262.693 254.613 260.451 252.263 260.366C249.913 260.285 247.479 262.688 245.129 262.607C242.778 262.526 240.517 259.955 238.171 259.875C235.825 259.794 233.387 262.196 231.037 262.116C228.686 262.035 226.425 259.464 224.079 259.383C221.729 259.303 219.295 261.705 216.945 261.624C214.594 261.544 212.333 258.972 209.987 258.892C207.637 258.811 205.203 261.214 202.853 261.133C200.502 261.052 198.241 258.481 195.895 258.4C193.549 258.32 191.111 260.722 188.761 260.641C186.411 260.561 184.15 257.989 181.803 257.909C179.457 257.829 177.019 260.231 174.669 260.15C172.319 260.069 170.058 257.498 167.712 257.418C165.361 257.337 162.927 259.739 160.577 259.659C158.227 259.578 155.966 257.006 153.62 256.926C151.274 256.846 148.835 259.248 146.485 259.167C144.135 259.087 141.874 256.515 139.528 256.435C137.177 256.354 134.743 258.756 132.393 258.676C130.043 258.595 127.782 256.024 125.436 255.943C123.09 255.863 120.651 258.265 118.301 258.185C115.951 258.104 113.69 255.532 111.344 255.452C108.998 255.372 106.559 257.774 104.209 257.693C101.859 257.612 99.5978 255.041 97.2517 254.961C94.9016 254.88 92.4671 257.282 90.117 257.202C87.7668 257.121 85.5058 254.55 83.1598 254.469C80.8096 254.389 78.3752 256.791 76.025 256.71C73.6749 256.63 71.4138 254.058 69.0678 253.978C66.7176 253.897 64.2832 256.299 61.9331 256.219C59.5829 256.138 57.3219 253.567 54.9758 253.486C52.6257 253.406 50.1913 255.808 47.8411 255.727C45.4909 255.647 43.2299 253.075 40.8839 252.995C38.5378 252.915 36.0993 255.317 33.7491 255.236C31.399 255.155 29.138 252.584 26.7919 252.504C24.4459 252.423 22.0073 254.825 19.6572 254.745C17.307 254.664 15.046 252.093 12.7 252.012C10.3539 251.932 7.04122 253.927 4.69106 253.846C4.86081 251.525 7.18864 248.455 7.35426 246.134C7.52401 243.812 5.21512 241.312 5.38074 238.99C5.54637 236.668 8.19473 234.527 8.36448 232.206C8.53423 229.884 6.22534 227.383 6.39096 225.062C6.55659 222.74 9.20496 220.599 9.37471 218.277C9.54446 215.956 7.23557 213.455 7.40119 211.134C7.56682 208.812 10.2152 206.671 10.3849 204.349C10.5547 202.028 8.24579 199.527 8.41142 197.206C8.58117 194.885 11.2254 192.743 11.3952 190.421C11.5649 188.1 9.25621 185.599 9.42184 183.278C9.59159 180.957 12.2356 178.814 12.4054 176.493C12.5751 174.172 10.2664 171.671 10.4321 169.35C10.6018 167.028 13.2459 164.886 13.4156 162.565C13.5854 160.244 11.2767 157.743 11.4423 155.422C11.612 153.1 14.2561 150.958 14.4258 148.637C14.5956 146.316 12.2869 143.815 12.4525 141.493C12.6223 139.172 15.2665 137.03 15.4363 134.709C15.606 132.388 13.2971 129.887 13.4627 127.565C13.6325 125.244 16.2767 123.102 16.4465 120.781C16.6162 118.46 14.3073 115.959 14.473 113.637C14.6427 111.316 17.287 109.174 17.4567 106.853C17.6265 104.532 15.3176 102.031 15.4832 99.7092C15.6529 97.388 18.2972 95.246 18.4669 92.9248C18.6367 90.6036 16.3278 88.1028 16.4934 85.7812C16.6632 83.46 19.3074 81.318 19.4772 78.9968C19.6469 76.6756 17.3382 74.1748 17.5038 71.8532C17.6695 69.5316 20.3176 67.3899 20.4874 65.0686C20.6571 62.7474 18.3484 60.2467 18.5141 57.9251C18.6838 55.6038 21.3279 53.4618 21.4976 51.1406C21.6674 48.8194 19.3587 46.3186 19.5243 43.997C19.6899 41.6754 22.3381 39.5338 22.5078 37.2126C22.6776 34.8914 20.3689 32.3906 20.5345 30.069C20.7001 27.7474 23.3483 25.6057 23.5181 23.2844C23.6878 20.9632 21.3791 18.4625 21.5447 16.1409C21.7104 13.8193 24.3587 11.6777 24.5285 9.35644C24.6982 7.03521 22.7875 3.70785 22.9531 1.38626C25.1021 1.57806 27.9865 3.91781 30.1359 4.10548C32.2852 4.29314 34.6558 2.00174 36.8051 2.18941C38.9545 2.37707 40.8908 5.04451 43.0402 5.23217C45.1895 5.41984 47.5603 3.12856 49.7096 3.31622C51.859 3.50388 53.7953 6.17132 55.9447 6.35898C58.094 6.54665 60.4646 4.25525 62.6139 4.44291C64.7633 4.63058 66.6996 7.29801 68.849 7.48567C70.9983 7.67334 73.3689 5.38194 75.5183 5.5696C77.6676 5.75727 79.6041 8.42472 81.7535 8.61238C83.9028 8.80005 86.2734 6.50865 88.4228 6.69631C90.5721 6.88398 92.5084 9.55141 94.6578 9.73908C96.8071 9.92674 99.1777 7.63544 101.327 7.82311C103.476 8.01077 105.413 10.6782 107.562 10.8659C109.712 11.0536 112.082 8.76215 114.232 8.94982C116.381 9.13748 118.317 11.8049 120.467 11.9926C122.616 12.1802 124.987 9.88884 127.136 10.0765C129.285 10.2642 131.222 12.9316 133.371 13.1193C135.52 13.3069 137.891 11.0156 140.04 11.2032C142.19 11.3909 144.126 14.0583 146.275 14.246C148.425 14.4336 150.795 12.1422 152.945 12.3299C155.094 12.5176 157.03 15.1851 159.18 15.3728C161.329 15.5604 163.7 13.2691 165.849 13.4567C167.999 13.6444 169.935 16.3118 172.084 16.4995C174.234 16.6871 176.604 14.3957 178.753 14.5834C180.903 14.7711 182.839 17.4385 184.989 17.6262C187.138 17.8138 189.508 15.5224 191.658 15.7101C193.807 15.8978 195.744 18.5652 197.893 18.7529C200.042 18.9406 202.413 16.6492 204.562 16.8368C206.712 17.0245 208.648 19.692 210.797 19.8797C212.947 20.0673 215.317 17.7759 217.467 17.9636C219.616 18.1513 221.552 20.8187 223.702 21.0064C225.851 21.194 228.222 18.9027 230.371 19.0903C232.52 19.278 234.457 21.9454 236.606 22.1331C238.756 22.3207 241.126 20.0293 243.275 20.217C245.425 20.4047 247.361 23.0721 249.51 23.2598C251.66 23.4474 254.838 21.5614 256.992 21.7494C257.023 23.9636 254.89 27.0342 254.917 29.2521C254.943 31.4701 257.46 33.6521 257.491 35.8663C257.522 38.0805 255.063 40.3307 255.094 42.5491C255.125 44.7674 257.636 46.9489 257.667 49.1631C257.699 51.3773 255.24 53.6276 255.271 55.8459C255.301 58.0642 257.813 60.2458 257.844 62.46C257.875 64.6742 255.417 66.9245 255.448 69.1428C255.479 71.3612 257.99 73.5427 258.021 75.7569C258.052 77.9711 255.594 80.2213 255.625 82.4397C255.655 84.658 258.167 86.8396 258.198 89.0538C258.229 91.268 255.771 93.5183 255.802 95.7366C255.833 97.9508 258.344 100.136 258.375 102.351C258.406 104.565 255.948 106.815 255.979 109.033C256.009 111.252 258.521 113.433 258.552 115.648C258.583 117.862 256.125 120.112 256.156 122.33C256.186 124.549 258.698 126.73 258.729 128.944C258.76 131.159 256.302 133.409 256.333 135.627C256.363 137.846 258.875 140.027 258.906 142.241C258.937 144.456 256.479 146.706 256.509 148.924C256.54 151.142 259.052 153.324 259.083 155.538C259.114 157.752 256.656 160.003 256.686 162.221C256.718 164.435 259.229 166.621 259.26 168.835C259.291 171.049 256.833 173.299 256.863 175.518C256.894 177.736 259.406 179.918 259.437 182.132C259.468 184.346 257.01 186.596 257.04 188.815C257.071 191.033 259.583 193.215 259.614 195.429C259.645 197.643 257.187 199.893 257.217 202.112C257.248 204.33 259.76 206.512 259.791 208.726C259.822 210.94 257.363 213.19 257.394 215.409C257.425 217.627 259.937 219.808 259.968 222.023C259.999 224.237 257.541 226.487 257.571 228.705C257.602 230.92 260.114 233.105 260.145 235.319C260.176 237.534 257.717 239.784 257.748 242.002C257.779 244.216 260.291 246.402 260.322 248.616C260.353 250.831 257.894 253.081 257.925 255.299C257.956 257.517 260.064 260.629 260.095 262.848L260.106 262.774Z" fill="#F0EFEA"/>
<path d="M260.106 262.774C257.756 262.693 254.613 260.451 252.263 260.366C249.913 260.285 247.479 262.688 245.129 262.607C242.778 262.526 240.517 259.955 238.171 259.875C235.825 259.794 233.387 262.196 231.037 262.116C228.686 262.035 226.425 259.464 224.079 259.383C221.729 259.303 219.295 261.705 216.945 261.624C214.594 261.544 212.333 258.972 209.987 258.892C207.637 258.811 205.203 261.214 202.853 261.133C200.503 261.052 198.241 258.481 195.895 258.4C193.549 258.32 191.111 260.722 188.761 260.641C186.411 260.561 184.15 257.989 181.803 257.909C179.457 257.829 177.019 260.231 174.669 260.15C172.319 260.069 170.058 257.498 167.712 257.418C165.361 257.337 162.927 259.739 160.577 259.659C158.227 259.578 155.966 257.006 153.62 256.926C151.274 256.846 148.835 259.248 146.485 259.167C144.135 259.087 141.874 256.515 139.528 256.435C137.177 256.354 134.743 258.756 132.393 258.676C130.043 258.595 127.782 256.024 125.436 255.943C123.09 255.863 120.651 258.265 118.301 258.185C115.951 258.104 113.69 255.532 111.344 255.452C108.998 255.372 106.559 257.774 104.209 257.693C101.859 257.612 99.5978 255.041 97.2517 254.961C94.9016 254.88 92.4671 257.282 90.117 257.202C87.7668 257.121 85.5058 254.55 83.1598 254.469C80.8096 254.389 78.3752 256.791 76.025 256.71C73.6749 256.63 71.4138 254.058 69.0678 253.978C66.7177 253.897 64.2832 256.299 61.9331 256.219C59.5829 256.138 57.3219 253.567 54.9758 253.486C52.6257 253.406 50.1913 255.808 47.8411 255.727C45.4909 255.647 43.2299 253.075 40.8839 252.995C38.5378 252.915 36.0993 255.317 33.7491 255.236C31.399 255.155 29.138 252.584 26.7919 252.504C24.4459 252.423 22.0073 254.825 19.6572 254.745C17.307 254.664 15.046 252.093 12.7 252.012C10.3539 251.932 7.04122 253.927 4.69106 253.846C4.86081 251.525 7.18864 248.455 7.35426 246.134C7.52401 243.812 5.21512 241.312 5.38074 238.99C5.54637 236.668 8.19473 234.527 8.36448 232.206C8.53423 229.884 6.22534 227.383 6.39096 225.062C6.55659 222.74 9.20496 220.599 9.37471 218.277C9.54446 215.956 7.23557 213.455 7.40119 211.134C7.56682 208.812 10.2152 206.671 10.3849 204.349C10.5547 202.028 8.24579 199.527 8.41142 197.206C8.58117 194.885 11.2254 192.743 11.3952 190.421C11.5649 188.1 9.25621 185.599 9.42184 183.278C9.59159 180.957 12.2356 178.814 12.4054 176.493C12.5751 174.172 10.2664 171.671 10.4321 169.35C10.6018 167.028 13.2459 164.886 13.4156 162.565C13.5854 160.244 11.2767 157.743 11.4423 155.422C11.612 153.1 14.2561 150.958 14.4258 148.637C14.5956 146.316 12.2869 143.815 12.4525 141.493C12.6223 139.172 15.2665 137.03 15.4363 134.709C15.606 132.388 13.2971 129.887 13.4627 127.565C13.6325 125.244 16.2767 123.102 16.4465 120.781C16.6162 118.46 14.3073 115.959 14.473 113.637C14.6427 111.316 17.287 109.174 17.4567 106.853C17.6265 104.532 15.3176 102.031 15.4832 99.7092C15.6529 97.388 18.2972 95.246 18.4669 92.9248C18.6367 90.6036 16.3278 88.1028 16.4934 85.7812C16.6632 83.46 19.3074 81.318 19.4772 78.9968C19.6469 76.6756 17.3382 74.1748 17.5038 71.8532C17.6695 69.5316 20.3176 67.3899 20.4874 65.0686C20.6571 62.7474 18.3484 60.2467 18.5141 57.9251C18.6838 55.6038 21.3279 53.4618 21.4976 51.1406C21.6674 48.8194 19.3587 46.3186 19.5243 43.997C19.6899 41.6754 22.3381 39.5338 22.5078 37.2126C22.6776 34.8914 20.3689 32.3906 20.5345 30.069C20.7001 27.7474 23.3483 25.6057 23.5181 23.2844C23.6878 20.9632 21.3791 18.4625 21.5447 16.1409C21.7104 13.8193 24.3587 11.6777 24.5285 9.35644C24.6982 7.03521 22.7875 3.70785 22.9531 1.38626C25.1021 1.57806 27.9865 3.91781 30.1359 4.10548C32.2852 4.29314 34.6558 2.00174 36.8051 2.18941C38.9545 2.37707 40.8908 5.04451 43.0402 5.23217C45.1895 5.41984 47.5603 3.12856 49.7096 3.31622C51.859 3.50388 53.7953 6.17132 55.9447 6.35898C58.094 6.54665 60.4646 4.25525 62.6139 4.44291C64.7633 4.63058 66.6996 7.29801 68.849 7.48567C70.9983 7.67334 73.3689 5.38194 75.5183 5.5696C77.6676 5.75727 79.6041 8.42472 81.7535 8.61238C83.9028 8.80005 86.2734 6.50865 88.4228 6.69631C90.5721 6.88398 92.5084 9.55141 94.6578 9.73908C96.8071 9.92674 99.1777 7.63544 101.327 7.82311C103.476 8.01077 105.413 10.6782 107.562 10.8659C109.712 11.0536 112.082 8.76215 114.232 8.94982C116.381 9.13748 118.317 11.8049 120.467 11.9926C122.616 12.1802 124.987 9.88884 127.136 10.0765C129.285 10.2642 131.222 12.9316 133.371 13.1193C135.52 13.3069 137.891 11.0156 140.04 11.2032C142.19 11.3909 144.126 14.0583 146.275 14.246C148.425 14.4336 150.795 12.1422 152.945 12.3299C155.094 12.5176 157.03 15.1851 159.18 15.3728C161.329 15.5604 163.7 13.2691 165.849 13.4567C167.999 13.6444 169.935 16.3118 172.084 16.4995C174.234 16.6871 176.604 14.3957 178.753 14.5834C180.903 14.7711 182.839 17.4385 184.989 17.6262C187.138 17.8138 189.508 15.5224 191.658 15.7101C193.807 15.8978 195.744 18.5652 197.893 18.7529C200.042 18.9405 202.413 16.6492 204.562 16.8368C206.712 17.0245 208.648 19.692 210.797 19.8797C212.947 20.0673 215.317 17.7759 217.467 17.9636C219.616 18.1513 221.552 20.8187 223.702 21.0064C225.851 21.194 228.222 18.9027 230.371 19.0903C232.52 19.278 234.457 21.9454 236.606 22.1331C238.756 22.3207 241.126 20.0293 243.275 20.217C245.425 20.4047 247.361 23.0721 249.51 23.2598C251.66 23.4474 254.838 21.5613 256.992 21.7494C257.023 23.9636 254.89 27.0342 254.917 29.2521C254.943 31.4701 257.46 33.6521 257.491 35.8663C257.522 38.0805 255.063 40.3307 255.094 42.5491C255.125 44.7674 257.636 46.9489 257.668 49.1631C257.699 51.3773 255.24 53.6276 255.271 55.8459C255.301 58.0642 257.813 60.2458 257.844 62.46C257.875 64.6742 255.417 66.9245 255.448 69.1428C255.479 71.3612 257.99 73.5427 258.021 75.7569C258.052 77.9711 255.594 80.2213 255.625 82.4397C255.655 84.658 258.167 86.8396 258.198 89.0538C258.229 91.268 255.771 93.5183 255.802 95.7366C255.833 97.9508 258.344 100.136 258.375 102.351C258.406 104.565 255.948 106.815 255.979 109.033C256.009 111.252 258.521 113.433 258.552 115.648C258.583 117.862 256.125 120.112 256.156 122.33C256.186 124.549 258.698 126.73 258.729 128.944C258.76 131.159 256.302 133.409 256.333 135.627C256.363 137.846 258.875 140.027 258.906 142.241C258.937 144.456 256.479 146.706 256.509 148.924C256.54 151.142 259.052 153.324 259.083 155.538C259.114 157.752 256.656 160.003 256.686 162.221C256.718 164.435 259.229 166.621 259.26 168.835C259.291 171.049 256.833 173.299 256.863 175.518C256.894 177.736 259.406 179.918 259.437 182.132C259.468 184.346 257.01 186.596 257.04 188.815C257.071 191.033 259.583 193.215 259.614 195.429C259.645 197.643 257.187 199.893 257.217 202.112C257.248 204.33 259.76 206.512 259.791 208.726C259.822 210.94 257.363 213.19 257.394 215.409C257.425 217.627 259.937 219.808 259.968 222.023C259.999 224.237 257.541 226.487 257.571 228.705C257.602 230.92 260.114 233.105 260.145 235.319C260.176 237.534 257.717 239.784 257.748 242.002C257.779 244.216 260.291 246.402 260.322 248.616C260.353 250.831 257.894 253.081 257.925 255.299C257.956 257.517 260.064 260.629 260.095 262.848L260.106 262.774Z" stroke="#F0EFEA" stroke-miterlimit="10"/>
</svg>
