<svg width="436" height="214" viewBox="0 0 436 214" fill="none" xmlns="http://www.w3.org/2000/svg">
<path d="M424.381 4.54576C424.708 4.56172 421.851 7.26703 421.851 7.59421C421.851 7.9214 426.639 7.92126 426.639 8.25643C426.639 8.59159 421.851 8.58367 421.851 8.91884C421.851 9.254 426.639 9.25406 426.639 9.58125C426.639 9.90843 421.851 9.91628 421.851 10.2435C421.851 10.5706 426.639 10.5787 426.639 10.9059C426.639 11.2331 421.851 11.2411 421.851 11.5683C421.851 11.8955 426.639 11.9033 426.639 12.2305C426.639 12.5577 421.851 12.5657 421.851 12.8929C421.851 13.2201 426.639 13.2281 426.639 13.5553C426.639 13.8825 421.851 13.8904 421.851 14.2175C421.851 14.5447 426.639 14.5528 426.639 14.8799C426.639 15.2071 421.851 15.2152 421.851 15.5424C421.851 15.8695 426.639 15.8776 426.639 16.2048C426.639 16.532 421.851 16.5398 421.851 16.867C421.851 17.1942 426.639 17.2022 426.639 17.5294C426.639 17.8566 421.851 17.8646 421.851 18.1918C421.851 18.519 426.639 18.5268 426.639 18.854C426.639 19.1812 421.851 19.1892 421.851 19.5164C421.851 19.8436 426.639 19.8517 426.639 20.1788C426.639 20.506 421.851 20.5139 421.851 20.8411C421.851 21.1682 426.639 21.1763 426.639 21.5035C426.639 21.8307 421.851 21.8387 421.851 22.1659C421.851 22.4931 426.639 22.5009 426.639 22.8281C426.639 23.1553 421.851 23.1633 421.851 23.4905C421.851 23.8177 426.639 23.8257 426.639 24.1609C426.639 24.4961 421.851 24.4959 421.851 24.8231C421.851 25.1503 426.639 25.1583 426.639 25.4855C426.639 25.8127 421.851 25.8208 421.851 26.1559C421.851 26.4911 426.639 26.491 426.639 26.8261C426.639 27.1613 421.851 27.1614 421.851 27.4885C421.851 27.8157 426.639 27.8238 426.639 28.1509C426.639 28.4781 421.851 28.486 421.851 28.8212C421.851 29.1563 426.639 29.1564 426.639 29.4916C426.639 29.8267 421.851 29.8268 421.851 30.1619C421.851 30.4971 424.724 33.2022 424.389 33.2262C418.771 33.5613 418.619 28.4461 412.993 28.4461C407.367 28.4461 407.367 33.2342 401.741 33.2342C396.115 33.2342 396.116 28.4461 390.49 28.4461C384.864 28.4461 384.864 33.2342 379.238 33.2342C373.612 33.2342 373.612 28.4461 367.978 28.4461C362.344 28.4461 362.352 33.2342 356.726 33.2342C351.1 33.2342 351.1 28.4461 345.466 28.4461C339.832 28.4461 339.84 33.2342 334.214 33.2342C328.588 33.2342 328.588 28.4461 322.954 28.4461C317.32 28.4461 317.328 33.2342 311.702 33.2342C306.076 33.2342 306.076 28.4461 300.442 28.4461C294.808 28.4461 294.816 33.2342 289.182 33.2342C283.548 33.2342 283.556 28.4461 277.93 28.4461C272.304 28.4461 272.304 33.2342 266.67 33.2342C261.037 33.2342 261.045 28.4461 255.411 28.4461C249.777 28.4461 249.784 33.2342 244.15 33.2342C238.517 33.2342 238.525 28.4461 232.891 28.4461C227.257 28.4461 227.265 33.2342 221.631 33.2342C215.997 33.2342 216.005 28.4461 210.371 28.4461C204.737 28.4461 204.745 33.2342 199.111 33.2342C193.477 33.2342 193.485 28.4461 187.859 28.4461C182.233 28.4461 182.233 33.2342 176.599 33.2342C170.965 33.2342 170.973 28.4461 165.339 28.4461C159.705 28.4461 159.713 33.2342 154.079 33.2342C148.445 33.2342 148.453 28.4461 142.819 28.4461C137.185 28.4461 137.193 33.2342 131.559 33.2342C125.925 33.2342 125.934 28.4461 120.3 28.4461C114.666 28.4461 114.673 33.2342 109.039 33.2342C103.405 33.2342 103.414 28.4461 97.7796 28.4461C92.1456 28.4461 92.1537 33.2342 86.5198 33.2342C80.8858 33.2342 80.8859 28.4461 75.26 28.4461C69.634 28.4461 69.6337 33.2342 63.9998 33.2342C58.3658 33.2342 58.3659 28.4461 52.74 28.4461C47.114 28.4461 47.1141 33.2342 41.4802 33.2342C35.8462 33.2342 35.8461 28.4461 30.2122 28.4461C24.5782 28.4461 24.5384 33.3219 18.9044 33.2342C18.8645 33.0506 21.2106 29.9862 21.1707 29.8027C21.1308 29.6191 16.4065 30.4092 16.3666 30.2257C16.3267 30.0421 20.9791 28.8851 20.9392 28.7015C20.8993 28.518 16.1751 29.308 16.1352 29.1245C16.0953 28.941 20.7477 27.7837 20.7078 27.6002C20.6679 27.4166 15.9436 28.2067 15.9037 28.0231C15.8638 27.8396 20.5162 26.6826 20.4763 26.499C20.4364 26.3155 15.7122 27.1055 15.6723 26.922C15.6324 26.7384 20.2851 25.5812 20.2452 25.3977C20.2053 25.2141 15.4811 26.0042 15.4412 25.8206C15.4013 25.6371 20.0537 24.48 20.0138 24.2965C19.9739 24.113 15.2497 24.903 15.2098 24.7195C15.1699 24.5359 19.8222 23.3787 19.7823 23.1951C19.7424 23.0116 15.0182 23.8017 14.9783 23.6181C14.9384 23.4346 19.5908 22.2775 19.5509 22.094C19.511 21.9104 14.7867 22.7005 14.7468 22.517C14.7069 22.3334 19.3593 21.1764 19.3194 20.9928C19.2795 20.8093 14.5553 21.5991 14.5154 21.4156C14.4755 21.2321 19.1279 20.075 19.088 19.8915C19.0481 19.7079 14.3238 20.498 14.2839 20.3144C14.244 20.1309 18.8964 18.9739 18.8565 18.7903C18.8166 18.6068 14.0924 19.3966 14.0525 19.2131C14.0126 19.0295 18.665 17.8725 18.6251 17.689C18.5852 17.5054 13.8609 18.2955 13.821 18.1119C13.7811 17.9284 18.4335 16.7713 18.3936 16.5878C18.3537 16.4043 13.6295 17.1941 13.5896 17.0106C13.5497 16.827 18.2021 15.67 18.1622 15.4864C18.1223 15.3029 13.398 16.093 13.3581 15.9094C13.3182 15.7259 17.9706 14.5688 17.9307 14.3853C17.8908 14.2017 13.1666 14.9918 13.1267 14.8082C13.0868 14.6247 17.7391 13.4675 17.6992 13.2839C17.6593 13.1004 12.9351 13.8904 12.8952 13.7069C12.8553 13.5234 17.5077 12.3663 17.4678 12.1828C17.4279 11.9992 12.704 12.7893 12.6641 12.6057C12.6242 12.4222 17.2766 11.265 17.2367 11.0814C17.1968 10.8979 12.4406 11.5044 12.4007 11.3209C12.4007 11.265 17.1728 10.9617 17.1728 10.9059C17.1728 10.85 12.3848 10.8501 12.3848 10.7942C12.3848 10.7384 17.1728 10.7383 17.1728 10.6824C17.1728 10.6265 12.3848 10.6266 12.3848 10.5708C12.3848 10.5149 17.1728 10.5148 17.1728 10.4589C17.1728 10.4031 12.3848 10.4032 12.3848 10.3473C12.3848 10.2914 17.1728 10.2913 17.1728 10.2355C17.1728 10.1796 12.3848 10.1797 12.3848 10.1238C12.3848 10.068 17.1728 10.0681 17.1728 10.0122C17.1728 9.95634 12.3848 9.95623 12.3848 9.90037C12.3848 9.84451 17.1728 9.8446 17.1728 9.78874C17.1728 9.73288 12.3848 9.73277 12.3848 9.67691C12.3848 9.62105 17.1728 9.62112 17.1728 9.55728C17.1728 9.49344 12.3848 9.50131 12.3848 9.43747C12.3848 9.37362 17.1728 9.38169 17.1728 9.32583C17.1728 9.26997 12.3848 9.27006 12.3848 9.21419C12.3848 9.15833 17.1728 9.15822 17.1728 9.10236C17.1728 9.0465 12.3848 9.04659 12.3848 8.99073C12.3848 8.93487 17.1728 8.93476 17.1728 8.8789C17.1728 8.82304 12.3848 8.82312 12.3848 8.76726C12.3848 8.7114 17.1728 8.71129 17.1728 8.65543C17.1728 8.59957 12.3848 8.59966 12.3848 8.5438C12.3848 8.48794 17.1728 8.48783 17.1728 8.43197C17.1728 8.37611 12.3848 8.37619 12.3848 8.32033C12.3848 8.26447 17.1728 8.26455 17.1728 8.20071C17.1728 8.13687 12.3848 8.14473 12.3848 8.08089C12.3848 8.01705 17.1728 8.02511 17.1728 7.96126C17.1728 7.89742 12.3848 7.90529 12.3848 7.84145C12.3848 7.77761 17.1728 7.78566 17.1728 7.72182C17.1728 7.65798 12.3848 7.66604 12.3848 7.6022C12.3848 7.53836 17.1728 7.54622 17.1728 7.48238C17.1728 7.41854 12.3848 7.4266 12.3848 7.36276C12.3848 7.29892 17.1728 7.30678 17.1728 7.24294C17.1728 7.1791 12.3848 7.18716 12.3848 7.12332C12.3848 7.05948 17.1728 7.05955 17.1728 7.00369C17.1728 6.94783 14.6908 4.48985 14.7546 4.48985C20.4365 4.426 20.4606 9.2779 26.1504 9.2779C31.8402 9.2779 31.8323 4.48985 37.5221 4.48985C43.2119 4.48985 43.2039 9.2779 48.8937 9.2779C54.5835 9.2779 54.5755 4.48985 60.2653 4.48985C65.9552 4.48985 65.9472 9.2779 71.637 9.2779C77.3268 9.2779 77.3188 4.48985 83.0086 4.48985C88.6984 4.48985 88.6984 9.2779 94.3803 9.2779C100.062 9.2779 100.062 4.48985 105.752 4.48985C111.442 4.48985 111.442 9.2779 117.124 9.2779C122.805 9.2779 122.805 4.48985 128.495 4.48985C134.185 4.48985 134.177 9.2779 139.867 9.2779C145.557 9.2779 145.549 4.48985 151.238 4.48985C156.928 4.48985 156.92 9.2779 162.61 9.2779C168.3 9.2779 168.292 4.48985 173.982 4.48985C179.672 4.48985 179.672 9.2779 185.353 9.2779C191.035 9.2779 191.035 4.48985 196.725 4.48985C202.415 4.48985 202.407 9.2779 208.097 9.2779C213.786 9.2779 213.778 4.48985 219.468 4.48985C225.158 4.48985 225.15 9.2779 230.84 9.2779C236.53 9.2779 236.53 4.48985 242.212 4.48985C247.893 4.48985 247.893 9.2779 253.575 9.2779C259.257 9.2779 259.257 4.48985 264.947 4.48985C270.636 4.48985 270.636 9.2779 276.318 9.2779C282 9.2779 282 4.48985 287.69 4.48985C293.38 4.48985 293.372 9.2779 299.062 9.2779C304.751 9.2779 304.751 4.48985 310.433 4.48985C316.115 4.48985 316.123 9.2779 321.805 9.2779C327.487 9.2779 327.495 4.48985 333.176 4.48985C338.858 4.48985 338.866 9.2779 344.548 9.2779C350.23 9.2779 350.238 4.48985 355.92 4.48985C361.602 4.48985 361.61 9.2779 367.291 9.2779C372.973 9.2779 372.981 4.48985 378.663 4.48985C384.345 4.48985 384.353 9.2779 390.035 9.2779C395.716 9.2779 395.724 4.48985 401.406 4.48985C407.088 4.48985 407.543 10.1397 413.161 9.24595C418.779 8.35218 418.628 4.16266 424.309 4.48985L424.381 4.54576Z" fill="#F0EFEA"/>
<path d="M424.381 4.54576C424.708 4.56172 421.851 7.26703 421.851 7.59421C421.851 7.9214 426.639 7.92126 426.639 8.25643C426.639 8.59159 421.851 8.58367 421.851 8.91884C421.851 9.254 426.639 9.25406 426.639 9.58125C426.639 9.90843 421.851 9.91628 421.851 10.2435C421.851 10.5706 426.639 10.5787 426.639 10.9059C426.639 11.2331 421.851 11.2411 421.851 11.5683C421.851 11.8955 426.639 11.9033 426.639 12.2305C426.639 12.5577 421.851 12.5657 421.851 12.8929C421.851 13.2201 426.639 13.2281 426.639 13.5553C426.639 13.8825 421.851 13.8904 421.851 14.2175C421.851 14.5447 426.639 14.5528 426.639 14.8799C426.639 15.2071 421.851 15.2152 421.851 15.5424C421.851 15.8695 426.639 15.8776 426.639 16.2048C426.639 16.532 421.851 16.5398 421.851 16.867C421.851 17.1942 426.639 17.2022 426.639 17.5294C426.639 17.8566 421.851 17.8646 421.851 18.1918C421.851 18.519 426.639 18.5268 426.639 18.854C426.639 19.1812 421.851 19.1892 421.851 19.5164C421.851 19.8436 426.639 19.8517 426.639 20.1788C426.639 20.506 421.851 20.5139 421.851 20.8411C421.851 21.1682 426.639 21.1763 426.639 21.5035C426.639 21.8306 421.851 21.8387 421.851 22.1659C421.851 22.4931 426.639 22.5009 426.639 22.8281C426.639 23.1553 421.851 23.1633 421.851 23.4905C421.851 23.8177 426.639 23.8257 426.639 24.1609C426.639 24.4961 421.851 24.4959 421.851 24.8231C421.851 25.1503 426.639 25.1583 426.639 25.4855C426.639 25.8127 421.851 25.8208 421.851 26.1559C421.851 26.4911 426.639 26.491 426.639 26.8261C426.639 27.1613 421.851 27.1614 421.851 27.4885C421.851 27.8157 426.639 27.8238 426.639 28.1509C426.639 28.4781 421.851 28.486 421.851 28.8212C421.851 29.1563 426.639 29.1564 426.639 29.4915C426.639 29.8267 421.851 29.8268 421.851 30.1619C421.851 30.4971 424.724 33.2022 424.389 33.2262C418.771 33.5613 418.619 28.4461 412.993 28.4461C407.367 28.4461 407.367 33.2342 401.741 33.2342C396.115 33.2342 396.116 28.4461 390.49 28.4461C384.864 28.4461 384.864 33.2342 379.238 33.2342C373.612 33.2342 373.612 28.4461 367.978 28.4461C362.344 28.4461 362.352 33.2342 356.726 33.2342C351.1 33.2342 351.1 28.4461 345.466 28.4461C339.832 28.4461 339.84 33.2342 334.214 33.2342C328.588 33.2342 328.588 28.4461 322.954 28.4461C317.32 28.4461 317.328 33.2342 311.702 33.2342C306.076 33.2342 306.076 28.4461 300.442 28.4461C294.808 28.4461 294.816 33.2342 289.182 33.2342C283.548 33.2342 283.556 28.4461 277.93 28.4461C272.304 28.4461 272.304 33.2342 266.67 33.2342C261.037 33.2342 261.045 28.4461 255.411 28.4461C249.777 28.4461 249.784 33.2342 244.15 33.2342C238.517 33.2342 238.525 28.4461 232.891 28.4461C227.257 28.4461 227.265 33.2342 221.631 33.2342C215.997 33.2342 216.005 28.4461 210.371 28.4461C204.737 28.4461 204.745 33.2342 199.111 33.2342C193.477 33.2342 193.485 28.4461 187.859 28.4461C182.233 28.4461 182.233 33.2342 176.599 33.2342C170.965 33.2342 170.973 28.4461 165.339 28.4461C159.705 28.4461 159.713 33.2342 154.079 33.2342C148.445 33.2342 148.453 28.4461 142.819 28.4461C137.185 28.4461 137.193 33.2342 131.559 33.2342C125.925 33.2342 125.934 28.4461 120.3 28.4461C114.666 28.4461 114.673 33.2342 109.039 33.2342C103.405 33.2342 103.414 28.4461 97.7796 28.4461C92.1456 28.4461 92.1537 33.2342 86.5198 33.2342C80.8858 33.2342 80.8859 28.4461 75.26 28.4461C69.634 28.4461 69.6337 33.2342 63.9998 33.2342C58.3658 33.2342 58.3659 28.4461 52.74 28.4461C47.114 28.4461 47.1141 33.2342 41.4802 33.2342C35.8462 33.2342 35.8461 28.4461 30.2122 28.4461C24.5782 28.4461 24.5384 33.3219 18.9044 33.2342C18.8645 33.0506 21.2106 29.9862 21.1707 29.8027C21.1308 29.6191 16.4065 30.4092 16.3666 30.2257C16.3267 30.0421 20.9791 28.8851 20.9392 28.7015C20.8993 28.518 16.1751 29.308 16.1352 29.1245C16.0953 28.941 20.7477 27.7837 20.7078 27.6002C20.6679 27.4166 15.9436 28.2067 15.9037 28.0231C15.8638 27.8396 20.5162 26.6826 20.4763 26.499C20.4364 26.3155 15.7122 27.1055 15.6723 26.922C15.6324 26.7384 20.2851 25.5812 20.2452 25.3977C20.2053 25.2141 15.4811 26.0042 15.4412 25.8206C15.4013 25.6371 20.0537 24.48 20.0138 24.2965C19.9739 24.113 15.2497 24.903 15.2098 24.7195C15.1699 24.5359 19.8222 23.3787 19.7823 23.1951C19.7424 23.0116 15.0182 23.8017 14.9783 23.6181C14.9384 23.4346 19.5908 22.2775 19.5509 22.094C19.511 21.9104 14.7867 22.7005 14.7468 22.517C14.7069 22.3334 19.3593 21.1764 19.3194 20.9928C19.2795 20.8093 14.5553 21.5991 14.5154 21.4156C14.4755 21.2321 19.1279 20.075 19.088 19.8915C19.0481 19.7079 14.3238 20.498 14.2839 20.3144C14.244 20.1309 18.8964 18.9739 18.8565 18.7903C18.8166 18.6068 14.0924 19.3966 14.0525 19.2131C14.0126 19.0295 18.665 17.8725 18.6251 17.689C18.5852 17.5054 13.8609 18.2955 13.821 18.1119C13.7811 17.9284 18.4335 16.7713 18.3936 16.5878C18.3537 16.4043 13.6295 17.1941 13.5896 17.0106C13.5497 16.827 18.2021 15.67 18.1622 15.4864C18.1223 15.3029 13.398 16.093 13.3581 15.9094C13.3182 15.7259 17.9706 14.5688 17.9307 14.3853C17.8908 14.2017 13.1666 14.9918 13.1267 14.8082C13.0868 14.6247 17.7391 13.4675 17.6992 13.2839C17.6593 13.1004 12.9351 13.8904 12.8952 13.7069C12.8553 13.5234 17.5077 12.3663 17.4678 12.1828C17.4279 11.9992 12.704 12.7893 12.6641 12.6057C12.6242 12.4222 17.2766 11.265 17.2367 11.0814C17.1968 10.8979 12.4406 11.5044 12.4007 11.3209C12.4007 11.265 17.1728 10.9617 17.1728 10.9059C17.1728 10.85 12.3848 10.8501 12.3848 10.7942C12.3848 10.7384 17.1728 10.7383 17.1728 10.6824C17.1728 10.6265 12.3848 10.6266 12.3848 10.5708C12.3848 10.5149 17.1728 10.5148 17.1728 10.4589C17.1728 10.4031 12.3848 10.4032 12.3848 10.3473C12.3848 10.2914 17.1728 10.2913 17.1728 10.2355C17.1728 10.1796 12.3848 10.1797 12.3848 10.1238C12.3848 10.068 17.1728 10.0681 17.1728 10.0122C17.1728 9.95634 12.3848 9.95623 12.3848 9.90037C12.3848 9.84451 17.1728 9.8446 17.1728 9.78874C17.1728 9.73288 12.3848 9.73277 12.3848 9.67691C12.3848 9.62105 17.1728 9.62112 17.1728 9.55728C17.1728 9.49344 12.3848 9.50131 12.3848 9.43747C12.3848 9.37362 17.1728 9.38169 17.1728 9.32583C17.1728 9.26997 12.3848 9.27006 12.3848 9.21419C12.3848 9.15833 17.1728 9.15822 17.1728 9.10236C17.1728 9.0465 12.3848 9.04659 12.3848 8.99073C12.3848 8.93487 17.1728 8.93476 17.1728 8.8789C17.1728 8.82304 12.3848 8.82312 12.3848 8.76726C12.3848 8.7114 17.1728 8.71129 17.1728 8.65543C17.1728 8.59957 12.3848 8.59966 12.3848 8.5438C12.3848 8.48794 17.1728 8.48783 17.1728 8.43197C17.1728 8.37611 12.3848 8.37619 12.3848 8.32033C12.3848 8.26447 17.1728 8.26455 17.1728 8.20071C17.1728 8.13687 12.3848 8.14473 12.3848 8.08089C12.3848 8.01705 17.1728 8.02511 17.1728 7.96126C17.1728 7.89742 12.3848 7.90529 12.3848 7.84145C12.3848 7.77761 17.1728 7.78566 17.1728 7.72182C17.1728 7.65798 12.3848 7.66604 12.3848 7.6022C12.3848 7.53836 17.1728 7.54622 17.1728 7.48238C17.1728 7.41854 12.3848 7.4266 12.3848 7.36276C12.3848 7.29892 17.1728 7.30678 17.1728 7.24294C17.1728 7.1791 12.3848 7.18716 12.3848 7.12332C12.3848 7.05948 17.1728 7.05955 17.1728 7.00369C17.1728 6.94783 14.6908 4.48985 14.7546 4.48985C20.4365 4.426 20.4606 9.2779 26.1504 9.2779C31.8402 9.2779 31.8323 4.48985 37.5221 4.48985C43.2119 4.48985 43.2039 9.2779 48.8937 9.2779C54.5835 9.2779 54.5755 4.48985 60.2653 4.48985C65.9552 4.48985 65.9472 9.2779 71.637 9.2779C77.3268 9.2779 77.3188 4.48985 83.0086 4.48985C88.6984 4.48985 88.6984 9.2779 94.3803 9.2779C100.062 9.2779 100.062 4.48985 105.752 4.48985C111.442 4.48985 111.442 9.2779 117.124 9.2779C122.805 9.2779 122.805 4.48985 128.495 4.48985C134.185 4.48985 134.177 9.2779 139.867 9.2779C145.557 9.2779 145.549 4.48985 151.238 4.48985C156.928 4.48985 156.92 9.2779 162.61 9.2779C168.3 9.2779 168.292 4.48985 173.982 4.48985C179.672 4.48985 179.672 9.2779 185.353 9.2779C191.035 9.2779 191.035 4.48985 196.725 4.48985C202.415 4.48985 202.407 9.2779 208.097 9.2779C213.786 9.2779 213.778 4.48985 219.468 4.48985C225.158 4.48985 225.15 9.2779 230.84 9.2779C236.53 9.2779 236.53 4.48985 242.212 4.48985C247.893 4.48985 247.893 9.2779 253.575 9.2779C259.257 9.2779 259.257 4.48985 264.947 4.48985C270.636 4.48985 270.636 9.2779 276.318 9.2779C282 9.2779 282 4.48985 287.69 4.48985C293.38 4.48985 293.372 9.2779 299.062 9.2779C304.751 9.2779 304.751 4.48985 310.433 4.48985C316.115 4.48985 316.123 9.2779 321.805 9.2779C327.487 9.2779 327.495 4.48985 333.176 4.48985C338.858 4.48985 338.866 9.2779 344.548 9.2779C350.23 9.2779 350.238 4.48985 355.92 4.48985C361.602 4.48985 361.61 9.2779 367.291 9.2779C372.973 9.2779 372.981 4.48985 378.663 4.48985C384.345 4.48985 384.353 9.2779 390.035 9.2779C395.716 9.2779 395.724 4.48985 401.406 4.48985C407.088 4.48985 407.543 10.1397 413.161 9.24595C418.779 8.35218 418.628 4.16266 424.309 4.48985L424.381 4.54576Z" stroke="#F0EFEA" stroke-miterlimit="10"/>
<path d="M18.1067 183.291C23.7406 183.195 23.7886 188.079 29.4226 188.079C35.0565 188.079 35.0644 183.291 40.6984 183.291C46.3323 183.291 46.3402 188.079 51.9742 188.079C57.6081 188.079 57.616 183.291 63.2499 183.291C68.8839 183.291 68.8918 188.079 74.5257 188.079C80.1597 188.079 80.1679 183.291 85.8019 183.291C91.4358 183.291 91.4435 188.079 97.0855 188.079C102.727 188.079 102.728 183.291 108.362 183.291C113.996 183.291 114.003 188.079 119.645 188.079C125.287 188.079 125.287 183.291 130.921 183.291C136.555 183.291 136.563 188.079 142.197 188.079C147.831 188.079 147.839 183.291 153.473 183.291C159.107 183.291 159.115 188.079 164.749 188.079C170.383 188.079 170.391 183.291 176.033 183.291C181.675 183.291 181.675 188.079 187.317 188.079C192.959 188.079 192.959 183.291 198.601 183.291C204.243 183.291 204.242 188.079 209.884 188.079C215.526 188.079 215.526 183.291 221.168 183.291C226.81 183.291 226.81 188.079 232.452 188.079C238.094 188.079 238.094 183.291 243.736 183.291C249.378 183.291 249.378 188.079 255.012 188.079C260.646 188.079 260.654 183.291 266.288 183.291C271.922 183.291 271.93 188.079 277.572 188.079C283.214 188.079 283.214 183.291 288.847 183.291C294.481 183.291 294.489 188.079 300.123 188.079C305.757 188.079 305.765 183.291 311.407 183.291C317.049 183.291 317.049 188.079 322.691 188.079C328.333 188.079 328.333 183.291 333.975 183.291C339.617 183.291 339.617 188.079 345.259 188.079C350.901 188.079 350.901 183.291 356.543 183.291C362.185 183.291 362.184 188.079 367.826 188.079C373.468 188.079 373.468 183.291 379.11 183.291C384.752 183.291 384.752 188.079 390.394 188.079C396.036 188.079 396.036 183.291 401.678 183.291C407.32 183.291 407.32 188.079 412.97 188.079C418.62 188.079 418.771 182.955 424.405 183.299C424.749 183.323 421.868 186.028 421.868 186.371C421.868 186.714 426.656 186.714 426.656 187.057C426.656 187.4 421.868 187.4 421.868 187.744C421.868 188.087 426.656 188.087 426.656 188.43C426.656 188.773 421.868 188.773 421.868 189.116C421.868 189.459 426.656 189.459 426.656 189.802C426.656 190.145 421.868 190.146 421.868 190.489C421.868 190.832 426.656 190.832 426.656 191.175C426.656 191.518 421.868 191.518 421.868 191.861C421.868 192.204 426.656 192.204 426.656 192.548C426.656 192.891 421.868 192.891 421.868 193.234C421.868 193.577 426.656 193.577 426.656 193.92C426.656 194.263 421.868 194.263 421.868 194.606C421.868 194.95 426.656 194.95 426.656 195.293C426.656 195.636 421.868 195.636 421.868 195.979C421.868 196.322 426.656 196.322 426.656 196.665C426.656 197.008 421.868 197.009 421.868 197.352C421.868 197.695 426.656 197.695 426.656 198.038C426.656 198.381 421.868 198.381 421.868 198.724C421.868 199.067 426.656 199.067 426.656 199.41C426.656 199.754 421.868 199.754 421.868 200.097C421.868 200.44 426.656 200.44 426.656 200.783C426.656 201.126 421.868 201.126 421.868 201.469C421.868 201.812 426.656 201.812 426.656 202.156C426.656 202.499 421.868 202.499 421.868 202.842C421.868 203.185 426.656 203.185 426.656 203.528C426.656 203.871 421.868 203.871 421.868 204.214C421.868 204.558 426.656 204.558 426.656 204.901C426.656 205.244 421.868 205.244 421.868 205.587C421.868 205.93 426.656 205.93 426.656 206.273C426.656 206.617 421.868 206.616 421.868 206.96C421.868 207.303 426.656 207.303 426.656 207.646C426.656 207.989 421.868 207.989 421.868 208.34C421.868 208.691 426.656 208.683 426.656 209.034C426.656 209.386 421.868 209.377 421.868 209.729C421.868 210.08 424.757 212.793 424.405 212.809C418.732 213.152 418.572 208.029 412.89 208.029C407.208 208.029 407.208 212.817 401.518 212.817C395.829 212.817 395.837 208.029 390.147 208.029C384.457 208.029 384.465 212.817 378.775 212.817C373.085 212.817 373.093 208.029 367.403 208.029C361.714 208.029 361.722 212.817 356.032 212.817C350.342 212.817 350.342 208.029 344.66 208.029C338.978 208.029 338.978 212.817 333.289 212.817C327.599 212.817 327.599 208.029 321.917 208.029C316.235 208.029 316.235 212.817 310.545 212.817C304.855 212.817 304.863 208.029 299.174 208.029C293.484 208.029 293.492 212.817 287.802 212.817C282.112 212.817 282.12 208.029 276.43 208.029C270.741 208.029 270.749 212.817 265.059 212.817C259.369 212.817 259.369 208.029 253.687 208.029C248.005 208.029 248.005 212.817 242.315 212.817C236.626 212.817 236.634 208.029 230.944 208.029C225.254 208.029 225.262 212.817 219.572 212.817C213.882 212.817 213.89 208.029 208.201 208.029C202.511 208.029 202.511 212.817 196.829 212.817C191.147 212.817 191.147 208.029 185.465 208.029C179.783 208.029 179.783 212.817 174.093 212.817C168.404 212.817 168.404 208.029 162.722 208.029C157.04 208.029 157.04 212.817 151.35 212.817C145.66 212.817 145.668 208.029 139.978 208.029C134.289 208.029 134.289 212.817 128.607 212.817C122.925 212.817 122.917 208.029 117.235 208.029C111.553 208.029 111.545 212.817 105.864 212.817C100.182 212.817 100.174 208.029 94.4919 208.029C88.8101 208.029 88.8021 212.817 83.1203 212.817C77.4385 212.817 77.4305 208.029 71.7487 208.029C66.0668 208.029 66.0589 212.817 60.377 212.817C54.6952 212.817 54.6872 208.029 49.0054 208.029C43.3236 208.029 43.3156 212.817 37.6337 212.817C31.9519 212.817 31.9441 208.029 26.2543 208.029C20.5645 208.029 20.5405 212.873 14.8507 212.817C14.7949 212.817 17.2685 210.367 17.2685 210.303C17.2685 210.24 12.4805 210.247 12.4805 210.184C12.4805 210.12 17.2685 210.128 17.2685 210.064C17.2685 210 12.4805 210.008 12.4805 209.944C12.4805 209.88 17.2685 209.888 17.2685 209.832C17.2685 209.777 12.4805 209.777 12.4805 209.713C12.4805 209.649 17.2685 209.657 17.2685 209.593C17.2685 209.529 12.4805 209.537 12.4805 209.473C12.4805 209.41 17.2685 209.417 17.2685 209.354C17.2685 209.29 12.4805 209.298 12.4805 209.234C12.4805 209.17 17.2685 209.178 17.2685 209.114C17.2685 209.05 12.4805 209.058 12.4805 208.994C12.4805 208.931 17.2685 208.939 17.2685 208.875C17.2685 208.811 12.4805 208.819 12.4805 208.755C12.4805 208.691 17.2685 208.699 17.2685 208.635C17.2685 208.572 12.4805 208.58 12.4805 208.516C12.4805 208.452 17.2685 208.46 17.2685 208.396C17.2685 208.332 12.4805 208.34 12.4805 208.284C12.4805 208.228 17.2685 208.228 17.2685 208.173C17.2685 208.117 12.4805 208.117 12.4805 208.061C12.4805 208.005 17.2685 208.005 17.2685 207.949C17.2685 207.893 12.4805 207.893 12.4805 207.837C12.4805 207.782 17.2685 207.782 17.2685 207.718C17.2685 207.654 12.4805 207.662 12.4805 207.598C12.4805 207.534 17.2685 207.542 17.2685 207.478C17.2685 207.415 12.4805 207.414 12.4805 207.359C12.4805 207.303 17.2685 207.303 17.2685 207.239C17.2685 207.175 12.4805 207.183 12.4805 207.119C12.4805 207.055 17.2685 207.063 17.2685 206.999C17.2685 206.936 12.4805 206.936 12.4805 206.88C12.4805 206.824 17.2685 206.816 17.2685 206.76C17.2685 206.704 12.4805 206.704 12.4805 206.64C12.4805 206.577 17.2685 206.585 17.2685 206.521C17.2685 206.457 12.4805 206.465 12.4805 206.401C12.4805 206.337 17.2685 206.337 17.2685 206.273C17.2685 206.21 12.4887 205.978 12.4887 205.922C12.5206 205.731 17.2927 206.154 17.3246 205.962C17.3566 205.771 12.6562 204.829 12.6882 204.637C12.7201 204.446 17.4762 205.012 17.5082 204.821C17.5401 204.629 12.8398 203.688 12.8717 203.496C12.9036 203.305 17.6598 203.871 17.6917 203.68C17.7236 203.488 13.0233 202.547 13.0552 202.355C13.0871 202.163 17.8433 202.73 17.8752 202.539C17.9071 202.347 13.2068 201.405 13.2387 201.214C13.2707 201.022 18.0268 201.589 18.0587 201.397C18.0907 201.206 13.3903 200.264 13.4223 200.073C13.4542 199.881 18.2104 200.448 18.2423 200.256C18.2742 200.065 13.5739 199.123 13.6058 198.932C13.6377 198.74 18.3939 199.307 18.4258 199.115C18.4577 198.924 13.7574 197.982 13.7893 197.79C13.8212 197.599 18.5774 198.165 18.6093 197.974C18.6412 197.782 13.9409 196.841 13.9728 196.649C14.0048 196.458 18.7609 197.024 18.7929 196.833C18.8248 196.641 14.1244 195.7 14.1564 195.508C14.1883 195.317 18.9445 195.883 18.9764 195.692C19.0083 195.5 14.308 194.558 14.3399 194.367C14.3718 194.175 19.128 194.742 19.1599 194.551C19.1918 194.359 14.4915 193.417 14.5234 193.226C14.5553 193.034 19.3115 193.601 19.3434 193.409C19.3754 193.218 14.675 192.276 14.7069 192.085C14.7389 191.893 19.495 192.46 19.527 192.268C19.5589 192.077 14.8586 191.135 14.8905 190.944C14.9224 190.752 19.6786 191.319 19.7105 191.127C19.7424 190.936 15.0421 189.994 15.074 189.802C15.1059 189.611 19.8621 190.177 19.894 189.986C19.9259 189.794 15.226 188.853 15.2579 188.661C15.2898 188.47 20.0456 189.036 20.0775 188.845C20.1095 188.653 15.4095 187.712 15.4414 187.52C15.4734 187.329 20.2291 187.895 20.2611 187.704C20.293 187.512 15.593 186.571 15.625 186.379C15.6569 186.188 20.4131 186.754 20.445 186.563C20.4769 186.371 18.0985 183.41 18.1304 183.219L18.1067 183.291Z" fill="#F0EFEA"/>
<path d="M18.1067 183.291C23.7406 183.195 23.7886 188.079 29.4226 188.079C35.0565 188.079 35.0644 183.291 40.6984 183.291C46.3323 183.291 46.3402 188.079 51.9742 188.079C57.6081 188.079 57.616 183.291 63.2499 183.291C68.8839 183.291 68.8918 188.079 74.5257 188.079C80.1597 188.079 80.1679 183.291 85.8019 183.291C91.4358 183.291 91.4435 188.079 97.0855 188.079C102.727 188.079 102.728 183.291 108.362 183.291C113.996 183.291 114.003 188.079 119.645 188.079C125.287 188.079 125.287 183.291 130.921 183.291C136.555 183.291 136.563 188.079 142.197 188.079C147.831 188.079 147.839 183.291 153.473 183.291C159.107 183.291 159.115 188.079 164.749 188.079C170.383 188.079 170.391 183.291 176.033 183.291C181.675 183.291 181.675 188.079 187.317 188.079C192.959 188.079 192.959 183.291 198.601 183.291C204.243 183.291 204.242 188.079 209.884 188.079C215.526 188.079 215.526 183.291 221.168 183.291C226.81 183.291 226.81 188.079 232.452 188.079C238.094 188.079 238.094 183.291 243.736 183.291C249.378 183.291 249.378 188.079 255.012 188.079C260.646 188.079 260.654 183.291 266.288 183.291C271.922 183.291 271.93 188.079 277.572 188.079C283.214 188.079 283.213 183.291 288.847 183.291C294.481 183.291 294.489 188.079 300.123 188.079C305.757 188.079 305.765 183.291 311.407 183.291C317.049 183.291 317.049 188.079 322.691 188.079C328.333 188.079 328.333 183.291 333.975 183.291C339.617 183.291 339.617 188.079 345.259 188.079C350.901 188.079 350.901 183.291 356.543 183.291C362.185 183.291 362.184 188.079 367.826 188.079C373.468 188.079 373.468 183.291 379.11 183.291C384.752 183.291 384.752 188.079 390.394 188.079C396.036 188.079 396.036 183.291 401.678 183.291C407.32 183.291 407.32 188.079 412.97 188.079C418.62 188.079 418.771 182.955 424.405 183.299C424.749 183.323 421.868 186.028 421.868 186.371C421.868 186.714 426.656 186.714 426.656 187.057C426.656 187.4 421.868 187.4 421.868 187.744C421.868 188.087 426.656 188.087 426.656 188.43C426.656 188.773 421.868 188.773 421.868 189.116C421.868 189.459 426.656 189.459 426.656 189.802C426.656 190.145 421.868 190.146 421.868 190.489C421.868 190.832 426.656 190.832 426.656 191.175C426.656 191.518 421.868 191.518 421.868 191.861C421.868 192.204 426.656 192.204 426.656 192.548C426.656 192.891 421.868 192.891 421.868 193.234C421.868 193.577 426.656 193.577 426.656 193.92C426.656 194.263 421.868 194.263 421.868 194.606C421.868 194.95 426.656 194.95 426.656 195.293C426.656 195.636 421.868 195.636 421.868 195.979C421.868 196.322 426.656 196.322 426.656 196.665C426.656 197.008 421.868 197.009 421.868 197.352C421.868 197.695 426.656 197.695 426.656 198.038C426.656 198.381 421.868 198.381 421.868 198.724C421.868 199.067 426.656 199.067 426.656 199.41C426.656 199.754 421.868 199.754 421.868 200.097C421.868 200.44 426.656 200.44 426.656 200.783C426.656 201.126 421.868 201.126 421.868 201.469C421.868 201.812 426.656 201.812 426.656 202.156C426.656 202.499 421.868 202.499 421.868 202.842C421.868 203.185 426.656 203.185 426.656 203.528C426.656 203.871 421.868 203.871 421.868 204.214C421.868 204.558 426.656 204.558 426.656 204.901C426.656 205.244 421.868 205.244 421.868 205.587C421.868 205.93 426.656 205.93 426.656 206.273C426.656 206.617 421.868 206.616 421.868 206.96C421.868 207.303 426.656 207.303 426.656 207.646C426.656 207.989 421.868 207.989 421.868 208.34C421.868 208.691 426.656 208.683 426.656 209.034C426.656 209.386 421.868 209.377 421.868 209.729C421.868 210.08 424.757 212.793 424.405 212.809C418.732 213.152 418.572 208.029 412.89 208.029C407.208 208.029 407.208 212.817 401.518 212.817C395.829 212.817 395.837 208.029 390.147 208.029C384.457 208.029 384.465 212.817 378.775 212.817C373.085 212.817 373.093 208.029 367.403 208.029C361.714 208.029 361.722 212.817 356.032 212.817C350.342 212.817 350.342 208.029 344.66 208.029C338.978 208.029 338.978 212.817 333.289 212.817C327.599 212.817 327.599 208.029 321.917 208.029C316.235 208.029 316.235 212.817 310.545 212.817C304.855 212.817 304.863 208.029 299.174 208.029C293.484 208.029 293.492 212.817 287.802 212.817C282.112 212.817 282.12 208.029 276.43 208.029C270.741 208.029 270.749 212.817 265.059 212.817C259.369 212.817 259.369 208.029 253.687 208.029C248.005 208.029 248.005 212.817 242.315 212.817C236.626 212.817 236.634 208.029 230.944 208.029C225.254 208.029 225.262 212.817 219.572 212.817C213.882 212.817 213.89 208.029 208.201 208.029C202.511 208.029 202.511 212.817 196.829 212.817C191.147 212.817 191.147 208.029 185.465 208.029C179.783 208.029 179.783 212.817 174.093 212.817C168.404 212.817 168.404 208.029 162.722 208.029C157.04 208.029 157.04 212.817 151.35 212.817C145.66 212.817 145.668 208.029 139.978 208.029C134.289 208.029 134.289 212.817 128.607 212.817C122.925 212.817 122.917 208.029 117.235 208.029C111.553 208.029 111.545 212.817 105.864 212.817C100.182 212.817 100.174 208.029 94.4919 208.029C88.8101 208.029 88.8021 212.817 83.1203 212.817C77.4385 212.817 77.4305 208.029 71.7487 208.029C66.0668 208.029 66.0589 212.817 60.377 212.817C54.6952 212.817 54.6872 208.029 49.0054 208.029C43.3236 208.029 43.3156 212.817 37.6337 212.817C31.9519 212.817 31.9441 208.029 26.2543 208.029C20.5645 208.029 20.5405 212.873 14.8507 212.817C14.7949 212.817 17.2685 210.367 17.2685 210.303C17.2685 210.24 12.4805 210.247 12.4805 210.184C12.4805 210.12 17.2685 210.128 17.2685 210.064C17.2685 210 12.4805 210.008 12.4805 209.944C12.4805 209.88 17.2685 209.888 17.2685 209.832C17.2685 209.777 12.4805 209.777 12.4805 209.713C12.4805 209.649 17.2685 209.657 17.2685 209.593C17.2685 209.529 12.4805 209.537 12.4805 209.473C12.4805 209.41 17.2685 209.417 17.2685 209.354C17.2685 209.29 12.4805 209.298 12.4805 209.234C12.4805 209.17 17.2685 209.178 17.2685 209.114C17.2685 209.05 12.4805 209.058 12.4805 208.995C12.4805 208.931 17.2685 208.939 17.2685 208.875C17.2685 208.811 12.4805 208.819 12.4805 208.755C12.4805 208.691 17.2685 208.699 17.2685 208.635C17.2685 208.572 12.4805 208.58 12.4805 208.516C12.4805 208.452 17.2685 208.46 17.2685 208.396C17.2685 208.332 12.4805 208.34 12.4805 208.284C12.4805 208.228 17.2685 208.228 17.2685 208.173C17.2685 208.117 12.4805 208.117 12.4805 208.061C12.4805 208.005 17.2685 208.005 17.2685 207.949C17.2685 207.893 12.4805 207.893 12.4805 207.837C12.4805 207.782 17.2685 207.782 17.2685 207.718C17.2685 207.654 12.4805 207.662 12.4805 207.598C12.4805 207.534 17.2685 207.542 17.2685 207.478C17.2685 207.415 12.4805 207.414 12.4805 207.359C12.4805 207.303 17.2685 207.303 17.2685 207.239C17.2685 207.175 12.4805 207.183 12.4805 207.119C12.4805 207.055 17.2685 207.063 17.2685 206.999C17.2685 206.936 12.4805 206.936 12.4805 206.88C12.4805 206.824 17.2685 206.816 17.2685 206.76C17.2685 206.704 12.4805 206.704 12.4805 206.64C12.4805 206.577 17.2685 206.585 17.2685 206.521C17.2685 206.457 12.4805 206.465 12.4805 206.401C12.4805 206.337 17.2685 206.337 17.2685 206.273C17.2685 206.21 12.4887 205.978 12.4887 205.922C12.5206 205.731 17.2927 206.154 17.3246 205.962C17.3566 205.771 12.6562 204.829 12.6882 204.637C12.7201 204.446 17.4762 205.012 17.5082 204.821C17.5401 204.629 12.8398 203.688 12.8717 203.496C12.9036 203.305 17.6598 203.871 17.6917 203.68C17.7236 203.488 13.0233 202.547 13.0552 202.355C13.0871 202.163 17.8433 202.73 17.8752 202.539C17.9071 202.347 13.2068 201.405 13.2387 201.214C13.2707 201.022 18.0268 201.589 18.0587 201.397C18.0907 201.206 13.3903 200.264 13.4223 200.073C13.4542 199.881 18.2103 200.448 18.2423 200.256C18.2742 200.065 13.5739 199.123 13.6058 198.932C13.6377 198.74 18.3939 199.307 18.4258 199.115C18.4577 198.924 13.7574 197.982 13.7893 197.79C13.8212 197.599 18.5774 198.165 18.6093 197.974C18.6412 197.782 13.9409 196.841 13.9728 196.649C14.0048 196.458 18.7609 197.024 18.7929 196.833C18.8248 196.641 14.1244 195.7 14.1564 195.508C14.1883 195.317 18.9445 195.883 18.9764 195.692C19.0083 195.5 14.308 194.558 14.3399 194.367C14.3718 194.175 19.128 194.742 19.1599 194.551C19.1918 194.359 14.4915 193.417 14.5234 193.226C14.5553 193.034 19.3115 193.601 19.3434 193.409C19.3754 193.218 14.675 192.276 14.7069 192.085C14.7389 191.893 19.495 192.46 19.527 192.268C19.5589 192.077 14.8586 191.135 14.8905 190.944C14.9224 190.752 19.6786 191.319 19.7105 191.127C19.7424 190.936 15.0421 189.994 15.074 189.802C15.1059 189.611 19.8621 190.177 19.894 189.986C19.9259 189.794 15.226 188.853 15.2579 188.661C15.2898 188.47 20.0456 189.036 20.0775 188.845C20.1095 188.653 15.4095 187.712 15.4414 187.52C15.4734 187.329 20.2291 187.895 20.2611 187.704C20.293 187.512 15.593 186.571 15.625 186.379C15.6569 186.188 20.4131 186.754 20.445 186.563C20.4769 186.371 18.0985 183.41 18.1304 183.219L18.1067 183.291Z" stroke="#F0EFEA" stroke-miterlimit="10"/>
<path d="M37.187 14.5995C38.0329 21.0155 32.4227 21.3825 32.4227 27.8543C32.4227 34.3262 37.2108 34.3182 37.2108 40.79C37.2108 47.2619 32.4227 47.2619 32.4227 53.7257C32.4227 60.1896 37.2108 60.1978 37.2108 66.6616C37.2108 73.1255 32.4227 73.1335 32.4227 79.5973C32.4227 86.0692 37.2108 86.0692 37.2108 92.533C37.2108 99.0049 32.4227 99.0049 32.4227 105.469C32.4227 111.933 37.2108 111.941 37.2108 118.404C37.2108 124.876 32.4227 124.876 32.4227 131.348C32.4227 137.82 37.2108 137.82 37.2108 144.284C37.2108 150.748 32.4227 150.756 32.4227 157.228C32.4227 163.7 37.2108 163.7 37.2108 170.171C37.2108 176.643 32.4227 176.643 32.4227 183.115C32.4227 189.587 38.0329 189.954 37.187 196.37C37.0753 197.216 33.9628 193.665 33.1089 193.665C32.255 193.665 32.2553 198.453 31.4014 198.453C30.5476 198.453 30.5475 193.665 29.6936 193.665C28.8397 193.665 28.8396 198.453 27.9857 198.453C27.1319 198.453 27.1318 193.665 26.2779 193.665C25.424 193.665 25.4243 198.453 24.5704 198.453C23.7166 198.453 23.7164 193.665 22.8626 193.665C22.0087 193.665 22.0086 198.453 21.1547 198.453C20.3009 198.453 20.3011 193.665 19.4473 193.665C18.5934 193.665 18.5933 198.453 17.7394 198.453C16.8855 198.453 16.8854 193.665 16.0316 193.665C15.1777 193.665 15.1776 198.453 14.3237 198.453C13.4699 198.453 13.4699 193.665 12.6081 193.665C11.7462 193.665 8.6339 197.224 8.52217 196.37C7.67628 189.954 13.2865 189.587 13.2865 183.115C13.2865 176.643 8.49841 176.651 8.49841 170.179C8.49841 163.708 13.2865 163.708 13.2865 157.244C13.2865 150.78 8.49841 150.772 8.49841 144.308C8.49841 137.844 13.2865 137.836 13.2865 131.372C13.2865 124.9 8.49841 124.9 8.49841 118.436C8.49841 111.965 13.2865 111.965 13.2865 105.501C13.2865 99.0368 8.49841 99.0289 8.49841 92.565C8.49841 86.0931 13.2865 86.0932 13.2865 79.6213C13.2865 73.1494 8.49841 73.1493 8.49841 66.6854C8.49841 60.2215 13.2865 60.2136 13.2865 53.7417C13.2865 47.2699 8.49841 47.2699 8.49841 40.798C8.49841 34.3262 13.2865 34.3262 13.2865 27.8543C13.2865 21.3825 7.67628 21.0155 8.52217 14.5995C8.6339 13.7536 11.7464 17.3047 12.6003 17.3047C13.4542 17.3047 13.4539 12.5166 14.3077 12.5166C15.1616 12.5166 15.1617 17.3047 16.0156 17.3047C16.8695 17.3047 16.8696 12.5166 17.7234 12.5166C18.5773 12.5166 18.5774 17.3047 19.4313 17.3047C20.2852 17.3047 20.2849 12.5166 21.1388 12.5166C21.9926 12.5166 21.9927 17.3047 22.8466 17.3047C23.7005 17.3047 23.7006 12.5166 24.5545 12.5166C25.4083 12.5166 25.408 17.3047 26.2619 17.3047C27.1158 17.3047 27.1159 12.5166 27.9698 12.5166C28.8236 12.5166 28.8237 17.3047 29.6776 17.3047C30.5315 17.3047 30.5316 12.5166 31.3855 12.5166C32.2393 12.5166 32.7421 17.4243 33.58 17.2567C35.6788 16.8258 37.0753 13.7456 37.187 14.5995Z" fill="#F0EFEA"/>
<path d="M37.187 14.5995C38.0329 21.0155 32.4227 21.3825 32.4227 27.8543C32.4227 34.3262 37.2108 34.3182 37.2108 40.79C37.2108 47.2619 32.4227 47.2619 32.4227 53.7257C32.4227 60.1896 37.2108 60.1978 37.2108 66.6616C37.2108 73.1255 32.4227 73.1335 32.4227 79.5973C32.4227 86.0692 37.2108 86.0692 37.2108 92.533C37.2108 99.0049 32.4227 99.0049 32.4227 105.469C32.4227 111.933 37.2108 111.941 37.2108 118.404C37.2108 124.876 32.4227 124.876 32.4227 131.348C32.4227 137.82 37.2108 137.82 37.2108 144.284C37.2108 150.748 32.4227 150.756 32.4227 157.228C32.4227 163.7 37.2108 163.7 37.2108 170.171C37.2108 176.643 32.4227 176.643 32.4227 183.115C32.4227 189.587 38.0329 189.954 37.187 196.37C37.0753 197.216 33.9628 193.665 33.1089 193.665C32.255 193.665 32.2553 198.453 31.4014 198.453C30.5476 198.453 30.5475 193.665 29.6936 193.665C28.8397 193.665 28.8396 198.453 27.9857 198.453C27.1319 198.453 27.1318 193.665 26.2779 193.665C25.424 193.665 25.4243 198.453 24.5704 198.453C23.7166 198.453 23.7165 193.665 22.8626 193.665C22.0087 193.665 22.0086 198.453 21.1547 198.453C20.3009 198.453 20.3011 193.665 19.4473 193.665C18.5934 193.665 18.5933 198.453 17.7394 198.453C16.8855 198.453 16.8854 193.665 16.0316 193.665C15.1777 193.665 15.1776 198.453 14.3237 198.453C13.4699 198.453 13.4699 193.665 12.6081 193.665C11.7462 193.665 8.6339 197.224 8.52217 196.37C7.67628 189.954 13.2865 189.587 13.2865 183.115C13.2865 176.643 8.49841 176.651 8.49841 170.179C8.49841 163.708 13.2865 163.708 13.2865 157.244C13.2865 150.78 8.49841 150.772 8.49841 144.308C8.49841 137.844 13.2865 137.836 13.2865 131.372C13.2865 124.9 8.49841 124.9 8.49841 118.436C8.49841 111.965 13.2865 111.965 13.2865 105.501C13.2865 99.0368 8.49841 99.0289 8.49841 92.565C8.49841 86.0931 13.2865 86.0932 13.2865 79.6213C13.2865 73.1494 8.49841 73.1493 8.49841 66.6854C8.49841 60.2215 13.2865 60.2136 13.2865 53.7417C13.2865 47.2699 8.49841 47.2699 8.49841 40.798C8.49841 34.3262 13.2865 34.3262 13.2865 27.8543C13.2865 21.3825 7.67628 21.0155 8.52217 14.5995C8.6339 13.7536 11.7464 17.3047 12.6003 17.3047C13.4542 17.3047 13.4539 12.5166 14.3077 12.5166C15.1616 12.5166 15.1617 17.3047 16.0156 17.3047C16.8695 17.3047 16.8696 12.5166 17.7234 12.5166C18.5773 12.5166 18.5774 17.3047 19.4313 17.3047C20.2852 17.3047 20.2849 12.5166 21.1388 12.5166C21.9926 12.5166 21.9927 17.3047 22.8466 17.3047C23.7005 17.3047 23.7006 12.5166 24.5545 12.5166C25.4083 12.5166 25.408 17.3047 26.2619 17.3047C27.1158 17.3047 27.1159 12.5166 27.9698 12.5166C28.8236 12.5166 28.8237 17.3047 29.6776 17.3047C30.5315 17.3047 30.5316 12.5166 31.3855 12.5166C32.2393 12.5166 32.7421 17.4243 33.58 17.2567C35.6788 16.8258 37.0753 13.7456 37.187 14.5995Z" stroke="#F0EFEA" stroke-miterlimit="10"/>
<path d="M431.404 13.8016C432.25 20.2176 426.64 20.5846 426.64 27.0565C426.64 33.5283 431.428 33.5203 431.428 39.9922C431.428 46.464 426.64 46.464 426.64 52.9279C426.64 59.3918 431.428 59.3999 431.428 65.8638C431.428 72.3277 426.64 72.3356 426.64 78.7995C426.64 85.2713 431.428 85.2713 431.428 91.7352C431.428 98.207 426.64 98.207 426.64 104.671C426.64 111.135 431.428 111.143 431.428 117.607C431.428 124.078 426.64 124.078 426.64 130.55C426.64 137.022 431.428 137.022 431.428 143.486C431.428 149.95 426.64 149.958 426.64 156.43C426.64 162.902 431.428 162.902 431.428 169.374C431.428 175.845 426.64 175.845 426.64 182.317C426.64 188.789 432.25 189.156 431.404 195.572C431.292 196.418 428.18 192.867 427.326 192.867C426.472 192.867 426.472 197.655 425.618 197.655C424.764 197.655 424.764 192.867 423.91 192.867C423.057 192.867 423.056 197.655 422.203 197.655C421.349 197.655 421.349 192.867 420.495 192.867C419.641 192.867 419.641 197.655 418.787 197.655C417.933 197.655 417.933 192.867 417.079 192.867C416.226 192.867 416.225 197.655 415.372 197.655C414.518 197.655 414.518 192.867 413.664 192.867C412.81 192.867 412.81 197.655 411.956 197.655C411.102 197.655 411.102 192.867 410.248 192.867C409.394 192.867 409.394 197.655 408.541 197.655C407.687 197.655 407.687 192.867 406.825 192.867C405.963 192.867 402.851 196.426 402.739 195.572C401.893 189.156 407.503 188.789 407.503 182.317C407.503 175.845 402.715 175.853 402.715 169.382C402.715 162.91 407.503 162.91 407.503 156.446C407.503 149.982 402.715 149.974 402.715 143.51C402.715 137.046 407.503 137.038 407.503 130.574C407.503 124.102 402.715 124.102 402.715 117.639C402.715 111.167 407.503 111.167 407.503 104.703C407.503 98.239 402.715 98.231 402.715 91.7671C402.715 85.2953 407.503 85.2953 407.503 78.8234C407.503 72.3516 402.715 72.3514 402.715 65.8876C402.715 59.4237 407.503 59.4157 407.503 52.9439C407.503 46.472 402.715 46.472 402.715 40.0002C402.715 33.5283 407.503 33.5283 407.503 27.0565C407.503 20.5846 401.893 20.2176 402.739 13.8016C402.851 12.9558 405.963 16.5068 406.817 16.5068C407.671 16.5068 407.671 11.7188 408.525 11.7188C409.378 11.7188 409.379 16.5068 410.232 16.5068C411.086 16.5068 411.086 11.7188 411.94 11.7188C412.794 11.7188 412.794 16.5068 413.648 16.5068C414.502 16.5068 414.502 11.7188 415.356 11.7188C416.209 11.7188 416.21 16.5068 417.063 16.5068C417.917 16.5068 417.917 11.7188 418.771 11.7188C419.625 11.7188 419.625 16.5068 420.479 16.5068C421.333 16.5068 421.333 11.7188 422.187 11.7188C423.04 11.7188 423.041 16.5068 423.894 16.5068C424.748 16.5068 424.748 11.7188 425.602 11.7188C426.456 11.7188 426.959 16.6265 427.797 16.4589C429.896 16.028 431.292 12.9478 431.404 13.8016Z" fill="#F0EFEA"/>
<path d="M431.404 13.8016C432.25 20.2176 426.64 20.5846 426.64 27.0565C426.64 33.5283 431.428 33.5203 431.428 39.9922C431.428 46.464 426.64 46.464 426.64 52.9279C426.64 59.3918 431.428 59.3999 431.428 65.8638C431.428 72.3277 426.64 72.3356 426.64 78.7995C426.64 85.2713 431.428 85.2713 431.428 91.7352C431.428 98.207 426.64 98.207 426.64 104.671C426.64 111.135 431.428 111.143 431.428 117.607C431.428 124.078 426.64 124.078 426.64 130.55C426.64 137.022 431.428 137.022 431.428 143.486C431.428 149.95 426.64 149.958 426.64 156.43C426.64 162.902 431.428 162.902 431.428 169.374C431.428 175.845 426.64 175.845 426.64 182.317C426.64 188.789 432.25 189.156 431.404 195.572C431.292 196.418 428.18 192.867 427.326 192.867C426.472 192.867 426.472 197.655 425.618 197.655C424.764 197.655 424.764 192.867 423.91 192.867C423.057 192.867 423.056 197.655 422.203 197.655C421.349 197.655 421.349 192.867 420.495 192.867C419.641 192.867 419.641 197.655 418.787 197.655C417.933 197.655 417.933 192.867 417.079 192.867C416.226 192.867 416.225 197.655 415.372 197.655C414.518 197.655 414.518 192.867 413.664 192.867C412.81 192.867 412.81 197.655 411.956 197.655C411.102 197.655 411.102 192.867 410.248 192.867C409.394 192.867 409.394 197.655 408.541 197.655C407.687 197.655 407.687 192.867 406.825 192.867C405.963 192.867 402.851 196.426 402.739 195.572C401.893 189.156 407.503 188.789 407.503 182.317C407.503 175.845 402.715 175.853 402.715 169.382C402.715 162.91 407.503 162.91 407.503 156.446C407.503 149.982 402.715 149.974 402.715 143.51C402.715 137.046 407.503 137.038 407.503 130.574C407.503 124.102 402.715 124.102 402.715 117.639C402.715 111.167 407.503 111.167 407.503 104.703C407.503 98.239 402.715 98.231 402.715 91.7671C402.715 85.2953 407.503 85.2953 407.503 78.8235C407.503 72.3516 402.715 72.3514 402.715 65.8876C402.715 59.4237 407.503 59.4157 407.503 52.9439C407.503 46.472 402.715 46.472 402.715 40.0002C402.715 33.5283 407.503 33.5283 407.503 27.0565C407.503 20.5846 401.893 20.2176 402.739 13.8016C402.851 12.9558 405.963 16.5068 406.817 16.5068C407.671 16.5068 407.671 11.7188 408.525 11.7188C409.378 11.7188 409.379 16.5068 410.232 16.5068C411.086 16.5068 411.086 11.7188 411.94 11.7188C412.794 11.7188 412.794 16.5068 413.648 16.5068C414.502 16.5068 414.502 11.7188 415.356 11.7188C416.209 11.7188 416.21 16.5068 417.063 16.5068C417.917 16.5068 417.917 11.7188 418.771 11.7188C419.625 11.7188 419.625 16.5068 420.479 16.5068C421.333 16.5068 421.333 11.7188 422.187 11.7188C423.04 11.7188 423.041 16.5068 423.894 16.5068C424.748 16.5068 424.748 11.7188 425.602 11.7188C426.456 11.7188 426.959 16.6265 427.797 16.4589C429.896 16.028 431.292 12.9478 431.404 13.8016Z" stroke="#F0EFEA" stroke-miterlimit="10"/>
<path d="M9.28045 191.271C3.37518 192.372 -0.0722246 199.219 1.30035 204.837C2.89637 211.365 10.8286 215.547 16.4625 212.817C21.1149 210.567 22.9105 204.239 21.2506 199.251C19.6546 194.471 14.659 190.266 9.28045 191.271Z" fill="#F0EFEA"/>
<path d="M9.48769 26.299C5.74503 26.1155 -0.136303 19.476 1.5076 12.7328C3.10362 6.20512 11.0358 2.02355 16.6698 4.75274C21.3222 7.00313 23.1177 13.3313 21.4578 18.3189C21.4179 18.4306 21.3863 18.5344 21.3144 18.7339C18.7927 25.8362 14.3398 31.3823 13.2704 30.8716C12.6081 30.5524 13.7971 28.1424 12.4724 26.8815C11.6186 26.0676 10.3575 26.3469 9.48769 26.299Z" fill="#F0EFEA" stroke="#F0EFEA" stroke-miterlimit="10"/>
<path d="M422.602 191.606C418.995 193.466 413.034 198.669 414.622 205.173C416.218 211.7 424.15 215.882 429.784 213.153C434.644 210.799 435.976 203.377 434.572 199.587C434.237 198.685 433.59 197.56 432.625 194.862C431.619 192.053 431.683 191.479 431.029 190.872C429.161 189.133 424.956 190.393 422.602 191.606Z" fill="#F0EFEA"/>
<path d="M424.668 23.3937C428.411 23.2102 434.292 16.5707 432.648 9.82757C431.052 3.29985 423.12 -0.881724 417.486 1.84747C412.834 4.09786 411.038 10.4261 412.698 15.4136C412.738 15.5254 412.77 15.6291 412.842 15.8286C415.364 22.9309 419.817 28.4772 420.886 27.9665C421.548 27.6473 420.359 25.2373 421.684 23.9765C422.538 23.1625 423.798 23.4416 424.668 23.3937Z" fill="#F0EFEA" stroke="#F0EFEA" stroke-miterlimit="10"/>
<path d="M415.467 18.1035H21.2507V197.656H415.467V18.1035Z" fill="#F0EFEA" stroke="#F0EFEA" stroke-miterlimit="10"/>
</svg>
