<svg width="69" height="69" viewBox="0 0 69 69" fill="none" xmlns="http://www.w3.org/2000/svg">
<path d="M34.5 69C53.2777 69 68.5 53.5538 68.5 34.5C68.5 15.4462 53.2777 0 34.5 0C15.7223 0 0.5 15.4462 0.5 34.5C0.5 53.5538 15.7223 69 34.5 69Z" fill="#F1E7DD"/>
<path d="M26.6499 64.6289C26.7292 64.6553 26.7706 64.6599 26.6499 64.6289V64.6289Z" fill="#E19A3D"/>
<path d="M12.1608 12.8699C12.178 12.8515 12.1872 12.8423 12.2033 12.8239C12.2183 12.7745 12.2332 12.7297 12.2505 12.6895L12.1597 12.8699H12.1608Z" fill="#E19A3D"/>
<path d="M20.4497 6.71309C20.4727 6.7039 20.4877 6.69816 20.5083 6.69011C20.4969 6.67977 20.5014 6.66253 20.4497 6.71309Z" fill="#E19A3D"/>
<path d="M3.85889 34.6396C3.85889 34.7293 3.86574 34.7787 3.87493 34.8143C3.86919 34.7638 3.86348 34.7109 3.85889 34.6396Z" fill="#E19A3D"/>
<path d="M45.2563 63.8301C45.2563 63.8301 45.2321 63.8393 45.2148 63.8462C45.2505 63.8393 45.2873 63.8301 45.324 63.8232L45.2563 63.829V63.8301Z" fill="#E19A3D"/>
<path d="M45.0735 63.936C44.8528 63.9934 45.1217 63.8854 45.2148 63.8486C44.9666 63.9003 44.7287 63.9785 44.4932 64.0739C44.5058 64.1072 44.9586 63.9475 45.0747 63.936H45.0735Z" fill="#E19A3D"/>
<path d="M65.4937 38.4141V38.5175C65.4971 38.475 65.496 38.4428 65.4937 38.4141Z" fill="#E19A3D"/>
<path d="M5.61572 33.6729C5.61687 33.7211 5.61917 33.7751 5.62032 33.82C5.62377 33.7441 5.62032 33.7027 5.61572 33.6729Z" fill="#E19A3D"/>
<path d="M64.335 43.6661L64.3706 43.7385C64.3648 43.6822 64.351 43.6649 64.335 43.6661Z" fill="#E19A3D"/>
<path d="M12.2515 12.6892L12.2871 12.6191C12.2733 12.641 12.2618 12.6639 12.2515 12.6892Z" fill="#E19A3D"/>
<path d="M29.4663 3.65332C29.4732 3.66941 29.4962 3.67976 29.5238 3.68665C29.5353 3.68435 29.5445 3.6832 29.5502 3.68205L29.4663 3.65332Z" fill="#E19A3D"/>
<path d="M64.4639 28.3938C64.4696 28.3892 64.4754 28.38 64.4811 28.3651C64.4582 28.3065 64.4283 28.249 64.4019 28.1904C64.4283 28.2858 64.4489 28.3513 64.4639 28.3938Z" fill="#E19A3D"/>
<path d="M42.4052 4.34517C42.4178 4.34172 42.4489 4.34286 42.4535 4.33596C42.3477 4.30149 42.1512 4.24977 41.8904 4.18656C41.7594 4.15554 41.6134 4.11992 41.4536 4.082C41.2939 4.04637 41.1215 4.00041 40.9365 3.97168L40.8779 4.03144C41.1353 4.06706 41.3882 4.13143 41.6421 4.18314L42.4052 4.34632V4.34517Z" fill="#E19A3D"/>
<path d="M53.8521 12.0746L53.6269 11.8321C53.5522 11.7505 53.4764 11.6701 53.3971 11.5942L52.9236 11.1311C53.1339 11.2932 53.3362 11.4494 53.5327 11.6011C53.7235 11.7597 53.9039 11.9183 54.082 12.07C54.259 12.2228 54.4302 12.3711 54.5968 12.5159C54.76 12.6641 54.9117 12.8158 55.0634 12.9606C55.6771 13.5329 56.1816 14.0995 56.6815 14.643C56.9205 14.9246 57.1561 15.2027 57.394 15.4831C57.5158 15.621 57.6284 15.7669 57.7422 15.914C57.8571 16.06 57.9731 16.2082 58.0903 16.3576C58.2076 16.5082 58.3305 16.6564 58.4489 16.8139C58.565 16.9724 58.6822 17.1345 58.8029 17.3C58.9247 17.4643 59.0488 17.6332 59.1764 17.8067C59.3062 17.978 59.4223 18.1664 59.5521 18.3526L59.4188 18.1998C59.4832 18.3159 59.5579 18.4078 59.6774 18.5606C59.7371 18.6376 59.8084 18.7295 59.8957 18.8468C59.9831 18.964 60.0865 19.1076 60.198 19.295C60.3118 19.4811 60.4439 19.7041 60.5979 19.9764C60.6726 20.1132 60.7634 20.2568 60.8416 20.4246C60.9209 20.5901 61.007 20.7694 61.1001 20.9636C61.1909 21.1578 61.2886 21.367 61.3931 21.5922C61.4874 21.822 61.5839 22.0691 61.6873 22.3334C61.7391 22.4656 61.7919 22.6023 61.8471 22.7437C61.8747 22.8149 61.9011 22.8862 61.9298 22.9597C61.9539 23.0344 61.9792 23.1103 62.0034 23.1861C62.1022 23.4929 62.2067 23.8193 62.3182 24.1664L62.3056 24.171C62.3826 24.3571 62.4044 24.3479 62.4987 24.7421C62.4573 24.5789 62.4216 24.4146 62.3757 24.2526L62.232 23.7688C62.4963 24.3135 62.709 24.7996 62.9802 25.5603C63.0193 25.7281 63.0032 25.7936 62.9871 25.8166C63.1698 26.4487 63.3721 27.0773 63.5134 27.7208L63.5605 28.3299C63.6076 28.4735 63.6455 28.5643 63.6823 28.6425C63.7191 28.7206 63.757 28.7884 63.7949 28.8873C63.8329 28.9861 63.8719 29.1182 63.9122 29.3251C63.9328 29.4285 63.9535 29.5515 63.9742 29.6986C63.9846 29.7721 63.9949 29.8514 64.0064 29.9388C64.0121 30.0261 64.019 30.1203 64.0248 30.2215C64.0788 29.5951 64.204 31.0098 64.2454 30.8029C64.2397 30.8868 64.2385 31.0742 64.2351 31.2247C64.2431 31.2845 64.2523 31.3477 64.2615 31.4132C64.2673 31.4798 64.2742 31.5488 64.281 31.62C64.2948 31.7625 64.3086 31.9142 64.3236 32.0694C64.3512 32.3819 64.3925 32.7118 64.4155 33.0278C64.4511 33.6599 64.4913 34.2275 64.5304 34.4539C64.5304 34.4539 64.5419 34.216 64.5603 33.8449C64.5741 33.4725 64.6201 32.9623 64.6109 32.421C64.6132 32.1498 64.6143 31.8694 64.6166 31.5947C64.6166 31.5258 64.6178 31.4569 64.6189 31.389C64.6166 31.3212 64.6143 31.2534 64.612 31.1868C64.6074 31.0535 64.6017 30.9225 64.5971 30.796C64.5752 30.2916 64.5776 29.8526 64.558 29.594C64.5707 29.679 64.5821 29.756 64.5925 29.8238C64.6017 29.8916 64.6063 29.9514 64.612 30.0031C64.6235 30.1065 64.6327 30.1789 64.6373 30.2261C64.65 30.3203 64.6534 30.3134 64.6534 30.2548C64.6511 30.1387 64.6408 29.8135 64.6327 29.6756L64.5844 29.5894C64.4707 28.7666 64.5523 28.7505 64.5029 28.3368C64.496 28.3379 64.4902 28.3517 64.4845 28.3655L64.5052 28.4161C64.4971 28.4574 64.4833 28.4368 64.4672 28.3943C64.4511 28.408 64.435 28.3724 64.3868 28.1506L64.4052 28.1908C64.3155 27.8541 64.1949 27.2669 64.142 27.0106L64.2087 26.9888C64.1914 26.9532 64.1742 26.9061 64.1569 26.8486C64.1362 26.7923 64.1144 26.7256 64.0903 26.6498C64.0443 26.4992 63.9938 26.3142 63.9421 26.105C63.8892 25.8959 63.8351 25.6626 63.7788 25.4155C63.7133 25.1719 63.6432 24.9156 63.5731 24.6582C63.503 24.4008 63.4387 24.1388 63.3663 23.8883C63.2882 23.6401 63.2123 23.401 63.1422 23.1815C63.0709 22.962 63.0066 22.7621 62.9515 22.592C62.8928 22.4231 62.8331 22.2886 62.7929 22.1921C62.7274 21.9921 62.6446 21.7852 62.5515 21.5715C62.4585 21.3589 62.3596 21.1371 62.2378 20.9211C62.1206 20.7016 62.0011 20.4775 61.8793 20.2488C61.8206 20.1339 61.762 20.0178 61.7023 19.9017C61.6448 19.7845 61.5782 19.6719 61.5196 19.5547C60.7082 18.0929 61.2012 18.7721 60.8047 18.0274C60.2761 17.115 60.8507 18.2503 60.6197 17.8964L60.3221 17.339C60.2244 17.1517 60.1095 16.9759 60.0026 16.7932C60.4324 17.3885 60.2382 17.0391 60.1819 16.9138C60.0268 16.6886 59.8544 16.4266 59.6786 16.1577C59.6349 16.0899 59.5901 16.0232 59.5464 15.9554C59.5016 15.8888 59.4522 15.8244 59.4062 15.7589C59.3108 15.629 59.2177 15.5015 59.1269 15.3774C58.9453 15.1314 58.7741 14.9062 58.6282 14.7338C58.4753 14.566 58.3489 14.4488 58.2685 14.4063C58.041 14.1156 57.872 13.8949 57.7399 13.7202C57.6089 13.5444 57.5032 13.4249 57.4227 13.3192C57.2572 13.1112 57.1584 12.9836 56.9423 12.7515C57.071 12.9238 57.3445 13.2456 57.3261 13.2674C56.963 12.7951 57.1205 13.0721 57.2768 13.2571C57.194 13.1801 57.0837 13.0663 56.955 12.9273C56.8906 12.8572 56.8217 12.7802 56.7481 12.6986C56.7114 12.6572 56.6746 12.6159 56.6355 12.5722C56.5953 12.5308 56.5539 12.4883 56.5125 12.4446C56.3447 12.2688 56.1643 12.0792 55.9781 11.8838C55.792 11.6884 55.6058 11.4828 55.4059 11.2989C55.2093 11.1116 55.0163 10.9277 54.837 10.7565C54.6578 10.5852 54.4888 10.4289 54.3336 10.306C54.0268 10.0543 53.8062 9.89113 53.7464 9.89228L53.7637 9.87046C53.5292 9.82908 53.7257 10.1244 53.196 9.78542L52.8857 9.50039L52.3444 9.17289C52.0215 8.89708 52.2077 8.99248 52.2157 8.98098C52.0031 8.83619 51.756 8.69712 51.5055 8.53393C51.255 8.37075 50.9918 8.19952 50.7218 8.0237C50.4471 7.85707 50.1655 7.68582 49.8874 7.51689C49.7472 7.433 49.6105 7.34567 49.4703 7.26637C49.3289 7.19053 49.1888 7.11468 49.0508 7.04114C49.2209 7.19053 49.3967 7.32845 49.5611 7.48474L50.0529 7.94783C49.206 7.33417 47.5534 6.39759 47.3179 6.41138L46.7858 6.05627C46.3158 5.81609 45.9917 5.6667 45.7596 5.57247C45.5286 5.47708 45.3883 5.43916 45.2815 5.42537C45.07 5.39434 45.0034 5.43113 44.6161 5.26679C44.2943 5.1174 43.9737 4.96226 43.6428 4.837C43.9829 4.92778 44.3139 5.04613 44.6471 5.16105C44.4023 5.06222 44.1932 4.97718 44.0059 4.90248C43.8163 4.83353 43.6485 4.77263 43.4865 4.71517C43.1624 4.59911 42.8682 4.47614 42.4671 4.33709C42.4671 4.33709 42.4579 4.33709 42.4568 4.33709C42.5119 4.35432 42.5476 4.36813 42.5533 4.37732L42.4085 4.34629C42.2694 4.37387 41.7247 4.27964 40.9984 4.11645C40.479 4.01762 40.0136 3.94293 39.47 3.86018C39.1977 3.82686 38.9058 3.78893 38.5771 3.73721C38.4128 3.71193 38.2404 3.6832 38.0566 3.64987C37.8715 3.62459 37.6762 3.59701 37.4659 3.56713L37.0372 3.64987C36.8281 3.62344 36.6177 3.59127 36.4086 3.57059L35.7765 3.52003L35.7788 3.42809C36.0903 3.43958 36.4706 3.43727 36.889 3.47519C37.0981 3.49013 37.3176 3.50509 37.544 3.52003C37.7692 3.53841 38.0025 3.54301 38.237 3.57634C38.7047 3.63265 39.185 3.68551 39.6458 3.74642C40.1044 3.82571 40.5445 3.9027 40.9399 3.9705L40.9755 3.93487C40.5066 3.85213 40.0044 3.76823 39.5413 3.69928C39.0759 3.64872 38.6507 3.60275 38.3392 3.55793C38.2634 3.54414 38.1588 3.52115 38.0531 3.49472C37.9473 3.47404 37.8393 3.44992 37.7601 3.42694C37.6003 3.38097 37.5497 3.33729 37.837 3.32809L37.2417 3.37293C36.4488 3.30053 35.8501 3.30743 35.3491 3.29134C34.848 3.26951 34.4435 3.29361 34.0344 3.29476C33.8298 3.29706 33.6241 3.29822 33.4046 3.30051C33.1851 3.30166 32.9529 3.3212 32.6932 3.33154C32.4335 3.34419 32.1474 3.35799 31.8222 3.37293C31.497 3.39361 31.1349 3.43612 30.7201 3.47404L31.0132 3.48325C30.6879 3.54071 30.3627 3.59013 30.0961 3.63265C29.8306 3.68091 29.6215 3.70619 29.5249 3.6855C29.279 3.72688 29.0308 3.76938 28.7837 3.81075C28.6596 3.82914 28.5378 3.85673 28.416 3.88316C28.2942 3.90959 28.1723 3.93487 28.0505 3.9613C27.5656 4.06588 27.0852 4.15551 26.6359 4.27848C26.4095 4.33364 26.1888 4.38882 25.9739 4.44168C25.8671 4.46696 25.7613 4.49224 25.6567 4.51752C25.5545 4.54625 25.4533 4.57498 25.3545 4.60256C24.9603 4.71403 24.5972 4.81056 24.2777 4.8887C24.1996 4.95191 24.1226 5.01971 24.0479 5.08981C23.6537 5.23921 22.9998 5.32309 22.8665 5.53914C22.5942 5.67014 22.3287 5.81495 22.0609 5.95286C21.7966 6.07007 21.5886 6.17579 21.3726 6.28726C21.16 6.40448 20.9347 6.52056 20.6279 6.64352L20.6244 6.64467C20.5865 6.65961 20.5463 6.67569 20.5084 6.69063C20.5095 6.69407 20.5141 6.69408 20.5187 6.69523C19.9246 6.97103 19.9453 7.00205 19.9372 7.02963C19.9303 7.05951 19.9028 7.09975 19.2397 7.4468C19.0121 7.53414 18.9144 7.62951 18.7949 7.74788C18.6789 7.87199 18.541 8.01681 18.2295 8.20413L17.5297 8.47187C16.9643 8.81663 16.6598 9.05912 16.3012 9.34987C16.1277 9.50271 15.9427 9.67162 15.7071 9.87388C15.4738 10.0796 15.1784 10.3083 14.8245 10.6289C14.0971 11.1897 13.6695 11.3885 14.0522 10.8967C13.7787 11.2242 13.735 11.3161 13.6477 11.4138C13.5638 11.5138 13.4478 11.631 13.0697 12.0424C12.9053 12.1194 12.9812 12.0286 13.1225 11.8195C12.9318 11.9792 12.8099 12.0884 12.7283 12.17C12.6502 12.255 12.6088 12.3113 12.5744 12.363C12.5054 12.4676 12.4629 12.5538 12.2043 12.825C12.1354 13.0595 12.0917 13.3559 11.9354 13.5387C12.0055 13.4732 12.0825 13.4145 12.156 13.3513C12.0296 13.5007 11.9102 13.6628 11.7837 13.8248C11.6573 13.9868 11.5275 14.1489 11.3918 14.3132C11.3229 14.3948 11.2539 14.4764 11.1838 14.5591C11.1126 14.6407 11.0413 14.7235 10.9735 14.8097C10.8345 14.9809 10.6897 15.1521 10.5392 15.3222L10.5162 15.2613C10.3277 15.5245 10.1255 15.7773 9.95194 16.0508L9.85885 16.0588L9.46813 16.6323C9.33942 16.8242 9.20378 17.0115 9.08657 17.2115L9.20496 17.0621C9.12107 17.2023 8.94061 17.4999 8.73721 17.8263C8.63378 17.9883 8.52576 18.1573 8.42348 18.3182C8.3258 18.4825 8.23158 18.6376 8.14769 18.7652L8.12468 18.7261C8.00401 18.9054 7.89024 19.0835 7.77992 19.2616C7.72591 19.3513 7.67191 19.4397 7.61905 19.5271C7.56733 19.6156 7.52254 19.7075 7.47428 19.7983C7.28696 20.1614 7.11229 20.5257 6.93761 20.8992C6.78247 21.2808 6.62271 21.6715 6.45493 22.084C6.36644 22.2886 6.29288 22.5035 6.21129 22.7253C6.13085 22.9471 6.04581 23.1746 5.95502 23.4102L5.97685 23.1344C5.81366 23.4412 5.82519 23.4964 5.83668 23.5676C5.84243 23.6033 5.84702 23.6435 5.82978 23.7216C5.81369 23.7998 5.7815 23.9181 5.70566 24.1089L5.59876 24.1147C5.54475 24.479 5.46431 24.6973 5.37122 24.8835C5.32411 24.9766 5.27472 25.0616 5.22415 25.1512C5.17704 25.2432 5.12992 25.3397 5.0851 25.4569L5.27241 25.2696L4.99201 26.1648C4.91272 26.4107 4.8495 26.5693 4.80583 26.667C4.76446 26.7658 4.7346 26.8015 4.71162 26.8015C4.6668 26.8015 4.65072 26.6544 4.63693 26.5728L4.57717 27.2864L4.43464 27.3956C4.45418 27.93 4.28182 27.8932 4.19908 28.8011C4.14392 28.8666 4.15884 28.6367 4.08759 28.9378L4.03703 29.6882L4.02323 30.4398C4.04046 30.1399 4.04508 29.8376 4.07266 29.5377L4.21861 29.671C4.21976 30.1433 4.17838 30.4547 4.12782 30.734C4.07955 31.0121 4.01635 31.2569 4.0198 31.5924C4.01635 31.4384 4.00488 31.2833 4.01178 31.1305C3.9773 31.674 3.95776 31.9602 3.92099 32.1854C3.88766 32.4107 3.84511 32.5773 3.80719 32.883C3.84856 32.6934 3.91868 32.4061 3.90718 32.8474C3.90718 33.1703 3.84395 33.0197 3.81752 33.3254C3.87268 33.3645 3.90947 33.5782 3.92441 33.8713C3.93131 34.0172 3.93361 34.1839 3.92901 34.3562C3.92327 34.5298 3.929 34.7102 3.91751 34.8872C3.90142 34.8791 3.88532 34.8642 3.87498 34.8182C3.89796 34.9986 3.92902 35.0906 3.90948 35.4055L3.78076 35.2239L3.91409 35.8249C3.898 36.0272 3.93246 36.2743 3.95544 36.4639C3.97728 36.6535 3.98879 36.7868 3.94512 36.7638L3.90258 36.5363C3.95545 37.5544 4.06577 38.5703 4.21861 39.5793L4.129 39.6379C4.22208 39.7758 4.28297 40.1895 4.33813 40.5527C4.36341 40.7354 4.3979 40.902 4.43352 41.0158C4.468 41.1296 4.50246 41.1905 4.53924 41.1572C4.54843 41.3031 4.58979 41.5134 4.64035 41.7432C4.66679 41.8582 4.69554 41.9777 4.72312 42.0961C4.73691 42.1547 4.75181 42.2144 4.7656 42.2719C4.78169 42.3293 4.79897 42.3856 4.81391 42.4397C4.94032 42.8752 5.02535 43.205 4.8863 43.0671C4.95295 43.3107 5.01842 43.5394 5.08393 43.7578C5.15632 43.9738 5.23337 44.1784 5.30692 44.3772C5.38162 44.576 5.45516 44.7691 5.52755 44.961L5.63787 45.2483C5.67924 45.3425 5.72062 45.4367 5.76199 45.5321C5.93092 45.9125 6.09293 46.309 6.28025 46.748C6.38023 46.9652 6.48253 47.1939 6.58825 47.4398C6.64112 47.5627 6.69509 47.6903 6.75025 47.8213C6.77783 47.8868 6.80541 47.9546 6.83414 48.0224C6.86517 48.0891 6.89623 48.158 6.92841 48.227C7.05712 48.6487 7.38233 49.4037 7.83856 50.1863C7.94888 50.384 8.0615 50.5874 8.17872 50.7885C8.30398 50.985 8.42924 51.1827 8.5522 51.3769C8.67517 51.5711 8.79697 51.7619 8.91419 51.9469C9.03026 52.1319 9.1567 52.2997 9.26702 52.4629C9.49801 52.772 9.71174 53.072 9.93123 53.3512C10.1565 53.6259 10.3737 53.8913 10.5863 54.1499C10.7931 54.4119 11.016 54.651 11.2321 54.8911C11.4493 55.129 11.6585 55.368 11.8768 55.6002C12.1009 55.8266 12.3261 56.053 12.5537 56.2828C12.6674 56.3977 12.7824 56.5126 12.8996 56.6299C13.0214 56.7413 13.1432 56.8539 13.2673 56.9689C13.5167 57.1964 13.7684 57.4355 14.0373 57.6745C14.3131 57.9066 14.5992 58.1479 14.8992 58.3996C14.9796 58.4869 15.0612 58.5789 15.152 58.6639C15.2428 58.749 15.3382 58.8351 15.437 58.9225C15.6335 59.096 15.8438 59.2707 16.0622 59.4477C16.1173 59.4913 16.1725 59.5362 16.2277 59.5798C16.284 59.6235 16.3437 59.6637 16.4023 59.7051C16.5207 59.7878 16.6402 59.8717 16.7597 59.9556C17.001 60.1222 17.247 60.2912 17.4952 60.4567C17.7503 60.6118 18.0078 60.7681 18.2617 60.9232C18.5169 61.0772 18.765 61.2381 19.0202 61.3749C19.273 61.5174 19.5189 61.6587 19.7545 61.8001C19.8717 61.8713 19.9878 61.9414 20.1016 62.0104C20.2176 62.0759 20.3303 62.1402 20.4383 62.2057L20.9738 62.3804C21.1151 62.4735 21.2691 62.5689 21.4335 62.662C21.6012 62.7481 21.7794 62.8355 21.9667 62.924C22.3413 63.0964 22.7401 63.2906 23.1734 63.448C23.3883 63.5319 23.6066 63.6158 23.8272 63.702C23.9376 63.7456 24.0479 63.7893 24.1594 63.833C24.2708 63.8755 24.3858 63.9123 24.4984 63.9536C24.7248 64.0341 24.9512 64.1168 25.1764 64.2019C25.4017 64.2857 25.6223 64.3823 25.8464 64.4593C26.3049 64.5501 26.5417 64.6041 26.6462 64.6305C26.5646 64.603 26.444 64.5501 26.4198 64.4846C26.5462 64.5317 26.7083 64.5822 26.8784 64.6328C26.9634 64.6581 27.0496 64.6845 27.1346 64.7098C27.2208 64.7317 27.3059 64.7523 27.3863 64.7719C27.7069 64.8535 27.9505 64.9259 27.9 64.973L27.7632 64.9534C27.7115 65.0005 28.1149 65.0798 28.6022 65.1775C29.094 65.2511 29.6686 65.3373 29.9582 65.4395L29.6525 65.2603L30.1547 65.3603L30.6603 65.4361L30.3857 65.4246C30.6638 65.4453 30.9315 65.4648 31.1913 65.4844C31.451 65.5028 31.7003 65.5338 31.944 65.5384C32.4312 65.5591 32.8886 65.5889 33.3265 65.6154C33.7643 65.6234 34.1826 65.6372 34.5894 65.6521C34.6917 65.6556 34.7917 65.6602 34.8928 65.6637C34.9928 65.6637 35.0927 65.6625 35.1927 65.6614C35.3915 65.6602 35.5892 65.659 35.7869 65.6579C37.359 65.6384 38.9207 65.5533 40.9399 65.0235C40.6813 65.1373 40.8801 65.0856 41.1525 65.0178C41.4237 64.9385 41.7673 64.8443 41.8098 64.9086C42.0764 64.8937 42.3281 64.8557 42.5694 64.804C42.8096 64.75 43.0337 64.6661 43.252 64.5857C43.6876 64.4179 44.0932 64.2444 44.4897 64.0732C44.4874 64.0663 44.4943 64.0548 44.538 64.0283C45.0126 63.8686 45.4941 63.7284 45.9584 63.5388C45.1907 64.0421 46.9088 62.9964 46.1997 63.4469C48.0476 62.7941 50.084 61.7667 52.0226 60.459L52.2065 60.3394L52.3858 60.2107L52.7432 59.9522C52.9811 59.7786 53.2201 59.6062 53.4591 59.4316L54.1521 58.8788C54.3831 58.6938 54.6175 58.5145 54.8359 58.3157C55.2783 57.925 55.7311 57.5504 56.1448 57.1401C56.3563 56.9401 56.5665 56.7402 56.7757 56.5425C56.9768 56.3357 57.1756 56.1311 57.3744 55.9277L57.2032 56.0392C57.402 55.8312 57.6123 55.6094 57.8203 55.3807C58.0203 55.1439 58.2225 54.9038 58.4191 54.6705C58.5179 54.5544 58.6156 54.4406 58.711 54.3292C58.8075 54.2189 58.8925 54.1039 58.9798 53.9982C59.1534 53.7845 59.3177 53.5925 59.4671 53.4317C59.7739 53.1156 60.0141 52.6973 60.2198 52.3411C60.3221 52.1618 60.4118 51.9952 60.4876 51.8561C60.5588 51.7136 60.6151 51.5976 60.6588 51.5252C60.8794 51.1 61.1449 50.7299 61.3173 50.5012C61.4839 50.2691 61.5747 50.1886 61.469 50.3645C61.962 49.4658 62.2826 48.5534 62.9261 47.2973C63.0112 47.2031 63.1445 46.9318 63.2973 46.579C63.4375 46.2205 63.5893 45.7758 63.7387 45.3471C63.8168 45.1345 63.8765 44.9173 63.9363 44.7185C63.996 44.5186 64.0524 44.3347 64.1041 44.1784C64.2063 43.8658 64.2903 43.6624 64.3351 43.6658L64.3247 43.6463C64.4775 43.22 64.6086 42.7925 64.7292 42.3627C64.7614 42.2558 64.7867 42.1478 64.8085 42.0386L64.8787 41.7111C64.9235 41.4927 64.9683 41.2744 65.0131 41.0537C65.0349 40.9434 65.0579 40.8331 65.0798 40.7228C65.097 40.6113 65.1142 40.4998 65.1326 40.3872C65.1694 40.1631 65.2062 39.9379 65.2429 39.7092C65.2636 39.5954 65.2831 39.4805 65.3038 39.3656C65.3257 39.2507 65.3475 39.1346 65.3625 39.0174C65.3969 38.7829 65.436 38.5462 65.4808 38.306C65.4808 38.306 65.4889 38.3439 65.4923 38.4117C65.498 37.0764 65.3693 35.7514 65.2153 34.4505C65.0096 34.8205 64.804 35.1848 64.5983 35.5411L64.5281 35.9536C64.5017 36.0904 64.4684 36.2271 64.4385 36.3627L64.2569 37.1764C64.2029 37.4476 64.1248 37.7142 64.0501 37.9808L63.8295 38.7772C63.6203 40.2378 63.3284 41.6881 62.9146 43.1085C62.4917 44.5243 61.9746 45.9137 61.3598 47.2605C60.2761 49.3624 58.9488 51.3286 57.4238 53.1145C56.516 54.2177 55.5357 55.2612 54.49 56.238C53.4316 57.1999 52.3088 58.0882 51.132 58.9018C49.9484 59.7051 48.7027 60.4141 47.4202 61.0462L46.4456 61.4944C46.2848 61.5725 46.1181 61.6369 45.9515 61.7035L45.4538 61.9035L44.9562 62.1034L44.4495 62.2793L43.9427 62.4539C43.7726 62.5103 43.6059 62.5758 43.4336 62.6217L42.2879 63.0872C40.6192 63.3997 38.7231 63.7399 36.7637 63.8778C34.8078 64.0215 32.7967 63.964 31.0051 63.6376L30.9155 63.741C30.6603 63.7077 30.473 63.6882 30.334 63.6548C30.1949 63.6238 30.103 63.5985 30.034 63.5756C29.8973 63.5307 29.8559 63.5009 29.7318 63.4687L29.2905 63.3906C29.1434 63.363 28.9951 63.3423 28.8503 63.3055C28.5596 63.2389 28.2677 63.1722 27.9758 63.1056C27.8299 63.0711 27.6839 63.0412 27.538 63.0044L27.1059 62.8826L26.2405 62.6401C25.9544 62.5505 25.6717 62.4505 25.3867 62.3574C25.1029 62.2609 24.8156 62.1735 24.5375 62.0575L23.6985 61.7299L23.4883 61.6484L23.2825 61.5564L22.8723 61.3726C21.7679 60.8991 20.7175 60.3165 19.6832 59.7177C18.672 59.0822 17.6722 58.4272 16.7505 57.6825C15.8093 56.962 14.9451 56.1587 14.1097 55.3451C13.3006 54.505 12.5158 53.6511 11.824 52.7398C10.422 50.9345 9.25436 49.013 8.38443 47.0445C8.25112 46.6491 7.89946 45.8895 7.62595 45.1219C7.55355 44.9311 7.48232 44.7426 7.41452 44.5611C7.35591 44.376 7.30075 44.1991 7.24904 44.037C7.14906 43.7118 7.07091 43.4441 7.03873 43.2843C6.91921 42.958 6.81577 42.6224 6.7043 42.2868C6.65028 42.119 6.59398 41.9501 6.54342 41.78C6.4986 41.6076 6.45379 41.4364 6.40897 41.2629C6.3653 41.0905 6.32047 40.917 6.27565 40.7435C6.23313 40.5699 6.18371 40.3964 6.15383 40.2194C6.08603 39.8666 6.01822 39.5138 5.95042 39.1599C5.91365 38.984 5.89069 38.8048 5.86771 38.6266L5.79645 38.0923C5.77346 37.9141 5.75047 37.736 5.72748 37.5579C5.7045 37.3798 5.69759 37.2005 5.68265 37.0224C5.65622 36.6661 5.62982 36.3099 5.60454 35.9571C5.59765 35.6031 5.58961 35.2503 5.58271 34.8998L5.59764 35.0055C5.59074 34.7861 5.57348 34.5666 5.57463 34.3459L5.58041 33.6863C5.59075 33.6311 5.60452 33.6242 5.61256 33.6667C5.60452 33.4806 5.59991 33.2806 5.59876 33.0703C5.59531 32.9646 5.59992 32.8577 5.60796 32.7474C5.61486 32.6371 5.62177 32.5256 5.62867 32.4107C5.66315 31.9544 5.6861 31.4649 5.76884 30.9707C5.84469 30.4766 5.90449 29.9698 6.01596 29.4825C6.12054 28.9941 6.20324 28.5149 6.32621 28.0759L6.3147 28.1816C6.3894 27.8587 6.463 27.537 6.5377 27.2163C6.57102 27.0543 6.62272 26.898 6.66524 26.7394L6.79857 26.2648L6.93183 25.7913C6.9732 25.6327 7.03297 25.4799 7.08238 25.3236C7.18581 25.0133 7.28923 24.7042 7.39151 24.3939C7.50183 24.0871 7.6248 23.786 7.74087 23.4826L7.91673 23.0287C7.97763 22.8781 8.04655 22.7322 8.11205 22.5828C8.24306 22.2863 8.37406 21.991 8.50507 21.6956C8.64987 21.4072 8.79352 21.1187 8.93832 20.8303L9.15441 20.3982L9.39109 19.9776C9.54853 19.6972 9.70713 19.4179 9.86457 19.1375C10.0358 18.8652 10.2059 18.5939 10.376 18.3227C10.4622 18.1871 10.5449 18.0504 10.6334 17.9171L10.908 17.5229C11.0919 17.2609 11.2712 16.9954 11.4585 16.7369L12.0434 15.9772C12.1423 15.852 12.2342 15.721 12.3388 15.6003L12.6491 15.2349C12.8582 14.9935 13.0582 14.7442 13.2731 14.5086C13.7132 14.0454 14.135 13.5651 14.6039 13.1307L14.9474 12.7974C15.0624 12.6871 15.175 12.5722 15.2968 12.4699L16.0173 11.8367C16.2529 11.6195 16.5115 11.4299 16.7597 11.2276L17.1355 10.9289L17.324 10.7795L17.5182 10.6381C17.7791 10.4508 18.0399 10.2646 18.3008 10.0773L18.4973 9.93709L18.6995 9.80609L19.1052 9.54523C21.2623 8.13977 23.6457 7.06067 26.1589 6.29186C26.4554 6.21716 26.7542 6.14132 27.0565 6.06547C27.207 6.0264 27.3587 5.98733 27.5104 5.9471C27.6621 5.90803 27.8184 5.88046 27.9724 5.84599C28.2815 5.77819 28.5929 5.71038 28.9078 5.64143C29.2227 5.57822 29.5433 5.52996 29.8651 5.47135C30.026 5.44262 30.1869 5.41389 30.3489 5.38516C30.5109 5.35528 30.6753 5.34148 30.8385 5.31735C31.166 5.27368 31.4958 5.23117 31.8279 5.1875C32.1612 5.15303 32.4967 5.13119 32.8335 5.10132C33.0024 5.08752 33.1713 5.07257 33.3403 5.05878C33.5103 5.04844 33.6804 5.04615 33.8505 5.03925C34.1918 5.02776 34.5343 5.01626 34.8779 5.00477C35.2215 5.01052 35.5674 5.0174 35.9133 5.02315C36.0868 5.02775 36.2604 5.02776 36.4339 5.0358C36.6074 5.04844 36.7798 5.06109 36.9533 5.07374C37.3004 5.10247 37.6486 5.11855 37.9956 5.15762C38.6886 5.24956 39.385 5.32541 40.0711 5.47365C40.7629 5.58972 41.4386 5.77933 42.1155 5.95286C42.2373 5.99538 42.5108 6.09076 42.9015 6.21027C43.0969 6.27003 43.3221 6.33784 43.5704 6.41368C43.8151 6.49987 44.084 6.5941 44.3713 6.69408C44.515 6.74349 44.6644 6.79522 44.8172 6.84808C44.97 6.89979 45.1218 6.96758 45.2803 7.02963C45.5952 7.15604 45.925 7.28707 46.2629 7.42267C46.595 7.57322 46.9363 7.72836 47.2822 7.88465C47.3684 7.92487 47.4557 7.96165 47.5419 8.00302L47.7971 8.13402C47.9683 8.22135 48.1395 8.3087 48.3108 8.39604C48.482 8.48452 48.6544 8.56842 48.8233 8.66035C48.9899 8.75574 49.1554 8.84997 49.3197 8.9442C49.6473 9.13497 49.9805 9.30964 50.2839 9.51189C50.5919 9.70726 50.8918 9.89687 51.178 10.0784C51.4561 10.2727 51.7215 10.4588 51.9709 10.6335C52.0962 10.7208 52.2169 10.8047 52.3329 10.8852C52.4456 10.9714 52.5524 11.0541 52.6558 11.1334C52.8615 11.2909 53.0477 11.4333 53.2086 11.5575C53.2902 11.6195 53.3649 11.6758 53.4338 11.7287C53.5016 11.7816 53.5603 11.8333 53.6143 11.8769C53.7212 11.9643 53.8016 12.0298 53.8498 12.0688L53.8521 12.0746Z" fill="#E19A3D"/>
<path d="M62.9837 25.816L62.9711 25.7734C62.9251 25.7895 62.9607 25.847 62.9837 25.816Z" fill="#E19A3D"/>
<path d="M48.9796 7.00508C49.0026 7.01772 49.0256 7.03037 49.0485 7.04186L48.8198 6.84766L48.9796 7.00508Z" fill="#E19A3D"/>
<path d="M60.5497 17.4378C60.3693 17.1321 60.2578 16.9839 60.2073 16.9161C60.1555 16.8494 60.159 16.8666 60.1797 16.9138C60.2532 17.0183 60.3221 17.1172 60.3842 17.2057C60.4439 17.2953 60.5003 17.3746 60.5497 17.4378Z" fill="#E19A3D"/>
<path d="M64.1731 31.2192C64.2133 31.5743 64.2248 31.4364 64.2317 31.2238C64.1811 30.863 64.1455 30.6113 64.1455 30.6113C64.1593 30.8113 64.1593 31.0135 64.1731 31.2181V31.2192Z" fill="#E19A3D"/>
<path d="M64.6295 29.6741L64.688 29.7798C64.6409 29.5695 64.6283 29.581 64.6295 29.6741Z" fill="#E19A3D"/>
<path d="M22.1494 38.9925C22.1448 38.9212 22.1529 38.9442 22.1494 38.9925V38.9925Z" fill="#E19A3D"/>
<path d="M45.1803 49.7362C45.1872 49.7247 45.1895 49.7189 45.1964 49.7075C45.1884 49.6753 45.1826 49.6465 45.1792 49.6201V49.7362H45.1803Z" fill="#E19A3D"/>
<path d="M46.8096 44.4192C46.8131 44.4055 46.8154 44.3963 46.8188 44.3848C46.8051 44.3871 46.7913 44.3779 46.8096 44.4192Z" fill="#E19A3D"/>
<path d="M33.9113 54.6064C33.8608 54.6018 33.8332 54.6064 33.8125 54.611C33.8412 54.6075 33.8711 54.6052 33.9113 54.6064Z" fill="#E19A3D"/>
<path d="M22.3354 28.0085C22.3354 28.0085 22.3354 28.0234 22.3354 28.0349C22.3412 28.0142 22.3458 27.9924 22.3539 27.9717L22.3354 28.0096V28.0085Z" fill="#E19A3D"/>
<path d="M22.3676 28.1327C22.3423 28.2648 22.3377 28.0947 22.3366 28.0361C22.2964 28.1809 22.286 28.3269 22.2906 28.4763C22.3262 28.4763 22.3377 28.197 22.3676 28.1327Z" fill="#E19A3D"/>
<path d="M32.291 15.0811L32.2324 15.0972C32.2566 15.0926 32.2749 15.0868 32.291 15.0811Z" fill="#E19A3D"/>
<path d="M34.4488 56.3662C34.4177 56.3685 34.3832 56.3697 34.3545 56.372C34.4039 56.3743 34.4304 56.372 34.4488 56.3662Z" fill="#E19A3D"/>
<path d="M29.2318 15.3564L29.21 15.4173C29.2341 15.3886 29.2375 15.3702 29.2318 15.3564Z" fill="#E19A3D"/>
<path d="M45.1791 49.621V49.5762C45.1768 49.59 45.1779 49.6049 45.1791 49.621Z" fill="#E19A3D"/>
<path d="M46.9841 38.918C47.0013 38.9157 47.0151 38.9031 47.0266 38.8881C47.0266 38.8813 47.0266 38.8755 47.0266 38.8721L46.9829 38.9169L46.9841 38.918Z" fill="#E19A3D"/>
<path d="M38.9307 14.5732C38.9307 14.5801 38.9341 14.5893 38.9399 14.5985L39.0594 14.5893C39.0008 14.5778 38.9594 14.5732 38.9307 14.5744V14.5732Z" fill="#E19A3D"/>
<path d="M47.4108 31.285C47.4039 31.2781 47.3982 31.2609 47.3913 31.2598C47.3741 31.3885 47.3695 31.7298 47.3672 32.1665L47.4361 32.194C47.428 31.8907 47.4235 31.5873 47.4108 31.285Z" fill="#E19A3D"/>
<path d="M47.868 22.7167C47.9094 23.004 47.9484 23.2913 47.9795 23.5763C47.5795 22.2696 47.2153 21.325 46.805 20.4516C46.5993 20.0149 46.3752 19.5989 46.1109 19.1737C46.0477 19.0657 45.9765 18.96 45.9018 18.8543C45.8282 18.7485 45.7524 18.6405 45.6754 18.529C45.5995 18.4176 45.5087 18.313 45.4214 18.2015C45.3318 18.0912 45.2444 17.9763 45.1444 17.8648C45.1812 17.8924 45.2157 17.9211 45.2501 17.951C45.2065 17.8751 45.1421 17.8246 45.0467 17.7373C44.9479 17.6522 44.8215 17.5246 44.6193 17.3201C44.5158 17.219 44.3963 17.0971 44.2561 16.9466C44.1147 16.7972 43.9389 16.6329 43.7436 16.4272C43.3333 16.0364 42.807 15.517 42.0187 14.9252L42.0255 14.9137C41.906 14.847 41.8934 14.8723 41.675 14.7045C41.8566 14.8436 42.0428 14.9735 42.2117 15.1251C42.0359 15.0252 41.8566 14.9562 41.6681 14.8735C41.5739 14.8321 41.4762 14.7884 41.3728 14.739C41.2671 14.6942 41.1544 14.6459 41.0338 14.5885C40.9384 14.5241 40.9154 14.4816 40.9154 14.4563C40.7189 14.3575 40.5086 14.2862 40.3052 14.2023C40.1029 14.1162 39.8903 14.0529 39.68 13.9851C39.5605 13.915 39.4433 13.8358 39.3181 13.776C39.1135 13.7461 39.0445 13.7898 38.8986 13.7932C38.7538 13.7909 38.532 13.7702 38.0068 13.6197C38.1976 13.7254 38.0631 13.7105 37.8942 13.7047C37.7253 13.6967 37.5242 13.6783 37.5874 13.7197C37.5357 13.6979 37.415 13.6599 37.3173 13.6266C37.1564 13.6208 36.9587 13.622 36.7507 13.6208C36.699 13.6208 36.645 13.6208 36.5922 13.6208C36.5393 13.6254 36.4853 13.6289 36.4313 13.6335C36.3233 13.6427 36.2164 13.653 36.1106 13.6622C35.9003 13.676 35.7038 13.7174 35.5418 13.753C35.3797 13.7875 35.2511 13.8208 35.181 13.8472C35.181 13.8472 35.3384 13.8438 35.5843 13.8392C35.6452 13.8392 35.7119 13.8369 35.7831 13.8357C35.8187 13.8357 35.8555 13.8358 35.8923 13.8346C35.9302 13.8369 35.9681 13.8392 36.0084 13.8426C36.1646 13.8541 36.3347 13.8668 36.5094 13.8794C36.6829 13.8944 36.861 13.9311 37.0334 13.9575C37.1196 13.9725 37.2058 13.9851 37.2886 14.0024C37.3713 14.0231 37.4517 14.0438 37.5287 14.0633C37.6839 14.1047 37.8264 14.1403 37.9482 14.1794C38.0688 14.223 38.1712 14.2621 38.2459 14.2943C37.831 14.1932 37.7712 14.2046 37.8413 14.2242C37.9114 14.2403 38.101 14.3081 38.1792 14.3437L38.2401 14.3219C38.3642 14.3529 38.455 14.3816 38.5263 14.4081C38.5975 14.4356 38.6469 14.4667 38.6894 14.4908C38.7745 14.5414 38.8285 14.5839 38.9469 14.6264C38.9492 14.6195 38.9434 14.6103 38.9388 14.6L38.9043 14.6023C38.8848 14.5816 38.9009 14.5758 38.9296 14.5747C38.9284 14.5563 38.9549 14.5482 39.0859 14.5885H39.0583C39.1629 14.608 39.2985 14.6563 39.4272 14.7022C39.5559 14.7505 39.6777 14.7953 39.7524 14.8229L39.7317 14.8884C39.8317 14.8861 40.019 14.9654 40.2535 15.0757C40.3718 15.1286 40.496 15.2021 40.6258 15.2814C40.7545 15.3619 40.8924 15.44 41.0223 15.5331C41.151 15.6273 41.2809 15.7216 41.4061 15.8135C41.4693 15.8583 41.5291 15.9043 41.5842 15.9537C41.6405 16.0008 41.6957 16.0468 41.7486 16.0905C41.8532 16.1766 41.9485 16.2548 42.0301 16.3226C42.1082 16.3927 42.1738 16.449 42.2232 16.4858C42.3082 16.5766 42.4071 16.6616 42.5128 16.7455C42.6139 16.8351 42.7242 16.9225 42.8391 17.0121C42.8966 17.0569 42.9541 17.1017 43.0127 17.1477C43.0679 17.1971 43.1241 17.2477 43.1793 17.2971C43.2896 17.3994 43.4022 17.504 43.5022 17.62C43.8263 17.9843 43.8941 18.0866 43.909 18.1555C43.9251 18.2222 43.8999 18.2452 44.0309 18.4497C44.3825 18.9404 44.0159 18.305 44.1734 18.4877L44.2699 18.6428L44.3595 18.8037L44.5365 19.1243C44.2791 18.791 44.3814 19.0002 44.4055 19.0772C44.4986 19.2013 44.5882 19.3565 44.679 19.515C44.725 19.5943 44.7709 19.6736 44.8169 19.7529C44.8617 19.8322 44.9019 19.9138 44.9433 19.9896C45.0238 20.1436 45.1065 20.2792 45.1743 20.3896C45.241 20.4999 45.303 20.5769 45.3559 20.6022C45.3973 20.6987 45.434 20.7837 45.4662 20.8596C45.4961 20.9354 45.5191 21.0032 45.5397 21.0619C45.58 21.1802 45.6076 21.2675 45.6294 21.3399C45.6754 21.4847 45.6949 21.5744 45.7627 21.741C45.7397 21.6203 45.6639 21.3905 45.6857 21.379C45.7684 21.7111 45.7673 21.5192 45.7213 21.3882C45.7914 21.4974 45.8719 21.7169 45.965 21.9778C46.0109 22.1088 46.05 22.2547 46.0937 22.4018C46.1374 22.5489 46.181 22.7018 46.2166 22.8523C46.2545 23.0017 46.2925 23.1488 46.3269 23.2855C46.358 23.4235 46.3879 23.5499 46.4177 23.659C46.4775 23.8762 46.5258 24.0245 46.5683 24.0405L46.5419 24.0474C46.6821 24.1348 46.7384 23.9176 46.8912 24.2543C46.8947 24.3371 46.9016 24.4198 46.9027 24.5025L47.0326 24.8496C47.0521 25.0978 46.9958 24.9863 46.982 24.9886C47.1613 25.5609 47.2452 26.3964 47.3176 27.1169C47.3877 26.8503 47.452 26.5814 47.5164 26.3102C47.5256 26.6216 47.5347 27.0572 47.5405 27.4284C47.5531 27.7995 47.5612 28.1075 47.6187 28.165C47.5968 28.2903 47.5703 28.4167 47.5439 28.5419C47.4899 29.1637 47.5129 29.3762 47.5612 29.4969C47.606 29.6176 47.6634 29.6452 47.6416 29.8934C47.6106 30.1014 47.5807 30.3094 47.5451 30.5162C47.5439 30.3105 47.537 30.1048 47.5313 29.8991C47.5141 30.2083 47.4945 30.4243 47.4715 30.6243C47.4497 30.8242 47.4244 31.0092 47.3876 31.2552C47.3876 31.2552 47.39 31.2609 47.3911 31.2609C47.3957 31.2264 47.4014 31.2046 47.4072 31.2L47.4106 31.2862C47.4681 31.3609 47.5072 31.6827 47.4991 32.1182C47.475 32.7365 47.5508 33.2237 47.3991 34.212L47.506 34.4637L47.4118 35.2073L47.3199 35.2038C47.3509 34.4718 47.3635 33.0985 47.367 32.1665L47.3256 32.1492C47.3198 32.702 47.3451 33.3329 47.3256 33.7006C47.3014 33.8788 47.1923 34.3339 47.1406 33.9995L47.2199 34.3454C47.1693 36.2047 47.1612 36.2151 47.0119 38.1721L47.0613 38.0032C47.0797 38.3928 47.1026 38.7824 47.0268 38.8892C47.0038 40.066 46.9487 41.2692 46.8153 42.0128L46.9199 42.1782C46.9073 42.4207 46.7337 42.777 46.8808 42.8999L46.9038 43.4159C46.8832 43.7446 46.9234 43.9468 46.8361 44.3146V44.3169C46.8303 44.3399 46.8245 44.3628 46.8176 44.3858C46.8211 44.3858 46.8234 44.3847 46.8269 44.3824C46.7062 45.1087 46.9257 44.3847 46.7763 45.2167C46.6614 45.4718 46.8705 45.5281 46.7878 45.9315C46.7165 46.059 46.6361 46.182 46.5614 46.305C46.5039 46.4796 46.474 46.621 46.4465 46.7486C46.4177 46.875 46.4005 46.9899 46.3844 47.1163C46.358 47.3703 46.3074 47.6599 46.15 48.1586C45.9178 48.6068 45.7133 48.7723 45.719 48.4287C45.7064 48.6608 45.7122 48.7194 45.6938 48.7849C45.6777 48.8527 45.6444 48.9309 45.5501 49.2124C45.4593 49.2687 45.4754 49.2055 45.4823 49.0665C45.4122 49.1756 45.372 49.2492 45.3478 49.3044C45.3214 49.3572 45.3099 49.3917 45.3042 49.4239C45.2915 49.4882 45.2938 49.5445 45.1962 49.7112C45.2157 49.7882 45.2467 49.8778 45.2651 49.964C45.2743 50.0065 45.28 50.049 45.2812 50.087C45.2789 50.1237 45.2709 50.1571 45.2536 50.1846C45.2927 50.149 45.3329 50.1134 45.3674 50.0732C45.28 50.2685 45.164 50.4605 45.0399 50.6581C44.9801 50.7592 44.9008 50.8466 44.8215 50.9374C44.741 51.027 44.6572 51.1155 44.5675 51.2017L44.5377 51.1511C44.5112 51.1856 44.4859 51.2224 44.4595 51.2557L44.3722 51.3534L44.1986 51.5499L44.1251 51.5235C43.9642 51.7131 43.7712 51.8728 43.5896 52.0429L43.6792 51.99C43.5608 52.121 43.108 52.4899 42.8104 52.6451L42.799 52.606C42.5818 52.7025 42.3921 52.8174 42.1979 52.9232C42.0002 53.0243 41.8152 53.1403 41.6199 53.253C41.4199 53.3575 41.2188 53.4725 40.9993 53.5839C40.7752 53.6828 40.5408 53.7965 40.2765 53.8885C40.3144 53.8471 40.3535 53.8092 40.3891 53.7655C40.003 53.8103 40.3305 53.9149 39.8835 54.0183L39.8329 53.931C39.6628 54.0574 39.5329 54.0793 39.4146 54.0816C39.2962 54.0816 39.1882 54.0574 39.0503 54.0689L39.2066 54.1608L38.9514 54.2137L38.6928 54.2551C38.1217 54.3332 38.3171 54.1677 38.3837 54.085L38.2044 54.1758L38.0217 54.2574L37.9275 54.1574C37.7988 54.2459 37.7275 54.2528 37.6298 54.2562C37.5322 54.262 37.4058 54.2562 37.1621 54.3206C37.1162 54.2826 37.238 54.2424 37.0679 54.2447C36.8036 54.3355 36.5347 54.4091 36.2635 54.4838L36.7542 54.3734L36.7094 54.5447C36.4543 54.6286 36.2761 54.6389 36.1176 54.6366C35.9578 54.6343 35.8164 54.6113 35.6303 54.6435L35.8854 54.5837C35.582 54.6159 35.42 54.6159 35.2924 54.6033C35.1649 54.586 35.0695 54.5596 34.8983 54.5412C35.0052 54.5723 35.1695 54.6171 34.9212 54.64C34.7397 54.6504 34.8224 54.5814 34.6512 54.5642C34.6305 54.6217 34.5098 54.6619 34.3443 54.678C34.1788 54.6929 33.9674 54.6952 33.7697 54.6527C33.7755 54.6366 33.7847 54.6228 33.8111 54.6136C33.7088 54.6251 33.6548 54.6504 33.479 54.6136L33.5905 54.4964C33.4755 54.5274 33.3595 54.5631 33.2434 54.5918C33.0216 54.5366 32.6826 54.5952 32.7217 54.5148L32.8527 54.5021C32.7102 54.4884 32.57 54.4677 32.4286 54.447C32.2884 54.4252 32.1471 54.4068 32.0069 54.3838C31.7288 54.3298 31.4472 54.2873 31.1737 54.2206L31.1703 54.1195C31.076 54.1666 30.8508 54.116 30.6589 54.054C30.4658 53.9965 30.2992 53.9505 30.3038 54.039C30.1601 53.9574 29.8602 53.8781 29.62 53.8138C29.3844 53.7356 29.2132 53.6667 29.3327 53.6069C28.8213 53.4219 28.4271 53.2875 28.01 53.1243C27.9054 53.084 27.8054 53.0323 27.6986 52.9829C27.594 52.9312 27.4814 52.8806 27.3722 52.8163C27.155 52.683 26.9125 52.5359 26.6678 52.321C26.5977 52.221 26.4781 52.1061 26.3437 51.9647C26.2747 51.8958 26.1989 51.8245 26.1173 51.751C26.0357 51.6774 25.9598 51.5912 25.876 51.5108C25.7944 51.4269 25.7024 51.3488 25.6231 51.2591C25.5427 51.1695 25.4611 51.0799 25.3818 50.9914C25.2152 50.8213 25.0842 50.6282 24.9589 50.4662C24.4521 49.8433 24.1005 49.2653 23.7833 48.6574C23.4753 48.0425 23.2121 47.3898 22.9604 46.5567C22.9547 46.4222 22.9386 46.2843 22.9157 46.1406C22.8973 45.9958 22.8719 45.8453 22.8409 45.6925C22.8248 45.6166 22.8076 45.5385 22.7915 45.4603C22.7755 45.381 22.7594 45.3017 22.7433 45.2213C22.7077 45.0615 22.672 44.8984 22.6352 44.7352C22.4973 44.079 22.3709 43.401 22.3824 42.8195C22.3411 42.7184 22.3031 42.6149 22.2652 42.5115C22.3043 42.1219 22.2629 41.6381 22.2285 41.1106C22.2124 40.8463 22.1951 40.5717 22.1882 40.2947C22.1836 40.0178 22.1905 39.7385 22.2169 39.465C22.1675 39.1984 22.1549 39.0582 22.1503 38.9961C22.1468 39.0455 22.1307 39.1214 22.0744 39.1467C22.1089 38.8341 22.0457 38.2032 22.1618 38.2469L22.1755 38.3261C22.2893 38.371 22.1123 37.3792 22.2135 37.031L22.0905 37.2218L22.1135 36.6299L22.1365 36.7885C22.0055 35.5026 22.0572 34.566 22.1181 33.6512C22.179 32.7365 22.2503 31.8424 22.1882 30.6243C22.3054 30.9529 22.1422 30.1428 22.2905 30.1186C22.5077 29.5176 22.3134 28.9844 22.2951 28.4787C22.2882 28.4787 22.2801 28.4718 22.2698 28.442L22.3399 27.5663C22.4916 28.1018 22.2261 26.925 22.3525 27.4157C22.4226 26.8457 22.4789 26.2309 22.5272 25.5885C22.5766 24.9438 22.6134 24.2796 22.6708 23.6131C22.7812 22.2846 22.9811 20.9343 23.4604 19.8127L23.3765 19.8943C23.4937 19.607 23.6178 19.2841 23.7718 18.9991C23.8108 18.9278 23.8488 18.8577 23.8856 18.7899C23.9223 18.7221 23.9683 18.6612 24.0085 18.6014C24.0913 18.4819 24.1694 18.375 24.2568 18.298C24.3418 18.2188 24.4096 18.1222 24.4785 18.028C24.5498 17.9349 24.6073 17.8315 24.6682 17.7419C24.7279 17.6511 24.7773 17.5603 24.8256 17.4902C24.8738 17.4201 24.9141 17.3626 24.9451 17.3304C25.0221 17.2259 25.1187 17.1454 25.2048 17.0742C25.2945 17.0052 25.3818 16.9569 25.4507 16.9213C25.5898 16.8524 25.6645 16.8535 25.5725 16.911C25.7874 16.7455 25.9828 16.5593 26.2253 16.3858C26.4678 16.2134 26.7517 16.0422 27.1297 15.9319C27.2826 15.9537 27.7629 15.7296 28.249 15.5664C28.7317 15.3986 29.2052 15.2757 29.2327 15.3619L29.2385 15.3458C29.7534 15.3136 30.2429 15.2251 30.752 15.1527C31.2599 15.0803 31.7862 15.0229 32.3505 15.0596C32.3505 15.0596 32.3298 15.0734 32.2919 15.0872C33.0481 14.8815 33.8226 14.7045 34.6029 14.5367C34.3846 14.3368 34.1651 14.138 33.9421 13.9403C33.2629 13.7771 32.5746 13.6254 31.8701 13.499C30.9278 13.5599 29.9751 13.6668 29.0247 13.8587C28.0755 14.0506 27.1228 14.3299 26.2138 14.7562C25.8415 14.9033 25.476 15.0826 25.1198 15.2826C24.7624 15.4825 24.4188 15.7147 24.0924 15.9744C23.4362 16.4869 22.8662 17.127 22.4043 17.8292C21.8906 18.7106 21.5435 19.6552 21.3228 20.5907C21.0953 21.5284 20.977 22.4593 20.8954 23.3717C20.8138 24.2876 20.7724 25.1748 20.7184 26.0597L20.5701 28.7235L20.6598 29.4935C20.307 31.5792 20.4633 34.289 20.2886 36.5633L20.4024 36.6116C20.407 37.2528 20.3357 37.2091 20.3173 37.3677C20.3288 38.8628 20.384 40.366 20.492 41.8749C20.6046 43.3872 20.7965 44.9087 21.1516 46.3992C21.1907 46.5854 21.2458 46.7704 21.2941 46.9554C21.3447 47.1404 21.3907 47.3254 21.4516 47.5082C21.509 47.6909 21.5677 47.8736 21.6251 48.0552C21.6918 48.2356 21.7573 48.416 21.8228 48.5953C21.8848 48.7757 21.9676 48.9504 22.04 49.1274C22.1147 49.3032 22.1882 49.4802 22.2767 49.6503C22.3629 49.8215 22.4445 49.9939 22.533 50.164C22.6284 50.3306 22.7226 50.4961 22.818 50.6616C22.9076 50.8293 23.0225 50.9845 23.1248 51.1442C23.2294 51.304 23.3317 51.4637 23.4523 51.6119C23.5684 51.7625 23.6833 51.913 23.7982 52.0636C23.9235 52.2061 24.0487 52.3474 24.174 52.4876C24.6854 53.0392 25.2427 53.5414 25.8357 53.962C26.0449 54.1517 26.5218 54.4642 27.0056 54.7239C27.2458 54.8572 27.4917 54.9676 27.6951 55.0756C27.9008 55.1744 28.0709 55.2526 28.164 55.3135C29.9533 55.8754 31.8541 56.2087 33.6583 56.3202L33.5893 56.3282C33.8732 56.342 34.1559 56.3374 34.4397 56.3397C34.4753 56.35 34.4799 56.3638 34.4523 56.3719C34.6925 56.3523 34.9672 56.334 35.2626 56.3305C35.5579 56.319 35.8727 56.3098 36.1957 56.3018C36.8415 56.2719 37.5184 56.2409 38.1079 56.1593L38.0413 56.1834C38.8986 56.0558 39.7432 55.8547 40.5649 55.5847C41.3866 55.3158 42.1887 54.9813 42.9426 54.547C43.6965 54.116 44.4147 53.6127 45.0513 53.0105C45.6857 52.4072 46.2408 51.7199 46.7062 50.9868C47.1532 50.2409 47.5106 49.4526 47.7876 48.6459C48.0542 47.8368 48.2403 47.014 48.3817 46.19C48.515 45.3649 48.5955 44.541 48.6575 43.7158C48.7127 42.8919 48.7437 42.0702 48.7725 41.2474C48.8242 40.4843 48.8437 39.6948 48.854 38.8938C48.8678 38.0917 48.8816 37.2677 48.8954 36.4288C48.9287 34.7418 48.9816 32.9836 49.0505 31.2127C49.1034 30.8886 49.1195 28.9258 48.8575 26.9423C48.7311 25.9528 48.5345 24.9691 48.3311 24.2003C48.1289 23.4315 47.9335 22.8764 47.8714 22.7236L47.868 22.7167Z" fill="#E19A3D"/>
<path d="M40.9165 14.454L40.943 14.4666C40.9625 14.4229 40.9154 14.4195 40.9165 14.454Z" fill="#E19A3D"/>
<path d="M47.3232 27.1591C47.322 27.1442 47.3209 27.1292 47.3197 27.1143L47.2715 27.2912L47.3232 27.1602V27.1591Z" fill="#E19A3D"/>
<path d="M44.1768 18.792C44.4043 19.1241 44.4238 19.1321 44.4066 19.0747C44.3227 18.9563 44.2434 18.8563 44.1768 18.792Z" fill="#E19A3D"/>
<path d="M37.3297 13.5667C37.0895 13.5506 37.1803 13.5828 37.3182 13.623C37.5607 13.6449 37.7285 13.6598 37.7285 13.6598C37.5975 13.6334 37.4665 13.5932 37.3297 13.5667Z" fill="#E19A3D"/>
<path d="M38.1792 14.3418L38.1045 14.3671C38.2344 14.382 38.232 14.3671 38.1792 14.3418Z" fill="#E19A3D"/>
<path d="M33.9688 22.039C33.9733 22.0264 33.9768 22.0344 33.9688 22.039V22.039Z" fill="#E19A3D"/>
<path d="M35.082 28.0013C35.082 28.0013 35.0855 28.0013 35.0878 28.0002C35.089 27.9772 35.0913 27.9565 35.0924 27.9404L35.0832 28.0013H35.082Z" fill="#E19A3D"/>
<path d="M35.9938 27.7791C35.9938 27.7791 35.9984 27.7791 36.0018 27.7802C35.9926 27.7699 35.9846 27.7584 35.9938 27.7791Z" fill="#E19A3D"/>
<path d="M33.5156 26.9897C33.5145 26.9794 33.5076 26.9748 33.4995 26.9736C33.5064 26.9782 33.5122 26.9828 33.5156 26.9897Z" fill="#E19A3D"/>
<path d="M35.6821 19.9931C35.6821 19.9931 35.6821 19.9989 35.6844 20.0046C35.689 19.9966 35.6925 19.9885 35.6982 19.9805L35.6821 19.9931Z" fill="#E19A3D"/>
<path d="M35.7199 20.0489C35.7015 20.1006 35.6877 20.0271 35.6831 20.0029C35.6509 20.0569 35.6475 20.1133 35.6601 20.1765C35.6958 20.1857 35.6923 20.0707 35.7187 20.0477L35.7199 20.0489Z" fill="#E19A3D"/>
<path d="M35.6821 14.9775L35.6959 14.9925C35.6925 14.9867 35.6867 14.9821 35.6821 14.9775Z" fill="#E19A3D"/>
<path d="M31.876 27.5925C31.8702 27.5844 31.8656 27.5753 31.8599 27.5684C31.8633 27.5821 31.8691 27.589 31.876 27.5925Z" fill="#E19A3D"/>
<path d="M35.6318 15.7513L35.6881 15.7605C35.6651 15.7524 35.6468 15.7501 35.6318 15.7513Z" fill="#E19A3D"/>
<path d="M35.0928 27.942L35.0962 27.9189C35.0962 27.9189 35.0939 27.9328 35.0928 27.942Z" fill="#E19A3D"/>
<path d="M36.2886 27.1275C36.3058 27.1298 36.3196 27.1286 36.3323 27.1275C36.3323 27.1263 36.3323 27.1252 36.3323 27.124L36.2886 27.1275Z" fill="#E19A3D"/>
<path d="M35.8234 20.9249C35.8212 20.9318 35.82 20.9387 35.8188 20.9468L35.8602 20.9203C35.8453 20.9169 35.8338 20.9203 35.8234 20.9249Z" fill="#E19A3D"/>
<path d="M36.6614 25.3721C36.6545 25.3698 36.6488 25.3664 36.6419 25.3652C36.6223 25.3963 36.6154 25.4779 36.6143 25.5836L36.6832 25.5928L36.6614 25.3721Z" fill="#E19A3D"/>
<path d="M38.2356 23.2633L38.1127 23.4885C38.0575 23.1484 38.0518 22.8932 38.0253 22.6381C37.9955 22.383 37.9667 22.1382 37.7897 21.7969L37.8323 21.8268C37.8265 21.767 37.7553 21.7533 37.6496 21.5832C37.622 21.5407 37.5886 21.4844 37.5507 21.4166C37.53 21.3809 37.5071 21.3419 37.4818 21.2993C37.4553 21.258 37.4277 21.2143 37.3967 21.166C37.2933 21.0097 37.1818 20.8109 36.9922 20.5466L37.0002 20.5351C36.9646 20.511 36.9486 20.5351 36.9003 20.4535C36.9417 20.519 36.9819 20.5811 37.0186 20.6489C36.898 20.5983 36.7727 20.5891 36.6336 20.5121C36.613 20.4811 36.6175 20.4501 36.6267 20.4294C36.5095 20.3685 36.3912 20.3145 36.2717 20.2674L36.2004 20.1375C36.136 20.1363 36.0982 20.1869 36.0476 20.2088C35.9959 20.2306 35.9315 20.2283 35.8051 20.1306C35.8706 20.2892 35.6407 20.1616 35.6568 20.2375C35.6476 20.2168 35.6224 20.1846 35.6028 20.1559C35.4305 20.1203 35.1087 20.0973 35.0236 20.1559C35.0236 20.1559 35.1742 20.2467 35.3305 20.3719C35.4879 20.496 35.643 20.6535 35.6948 20.7477C35.5017 20.6454 35.6373 20.7443 35.6614 20.7994L35.6856 20.773C35.7959 20.8454 35.7637 20.9258 35.812 20.9695C35.8143 20.9638 35.8155 20.9557 35.8178 20.9465L35.8063 20.9534C35.8063 20.9373 35.8131 20.9293 35.8223 20.9247C35.828 20.9075 35.8384 20.896 35.8683 20.9155L35.8591 20.9212C35.912 20.9316 35.9901 20.9798 36.0211 21.004L35.9913 21.066C36.0614 21.027 36.1797 21.1453 36.2682 21.2867C36.3579 21.4315 36.4153 21.5889 36.4509 21.6303C36.4624 21.6992 36.5084 21.7383 36.5589 21.7797C36.6141 21.8222 36.6624 21.8567 36.675 21.921C36.7141 22.0118 36.6992 22.0486 36.6773 22.0716C36.6544 22.0957 36.6233 22.1084 36.6141 22.1635C36.6141 22.2968 36.6808 22.1107 36.7026 22.1566C36.6911 22.2164 36.6762 22.275 36.6589 22.3359C36.6256 22.2509 36.5992 22.3106 36.5785 22.3336C36.6084 22.4623 36.5222 22.7048 36.6658 22.7232C36.6325 22.9266 36.5739 22.9358 36.5797 23.0185C36.6003 22.9875 36.6153 22.93 36.6428 22.9254C36.5934 23.0116 36.6635 22.9611 36.6716 22.9266C36.7118 22.9817 36.6647 23.1495 36.629 23.2978C36.5888 23.4495 36.5578 23.5862 36.6348 23.5954H36.6072C36.7221 23.6195 36.829 23.5655 36.8968 23.6506L36.8485 23.7126L36.9014 23.7988C36.8669 23.8597 36.8359 23.8322 36.8221 23.8322C36.883 23.9747 36.8221 24.1803 36.8118 24.3562L37.1163 24.1631C37.0497 24.3159 36.906 24.5872 37.0048 24.617L36.9014 24.7067C36.7037 25.0043 36.9853 24.917 36.9244 25.0377L36.8083 25.187L36.8129 25.0365C36.752 25.1859 36.7141 25.2445 36.6382 25.3617C36.6382 25.3617 36.6406 25.3629 36.6417 25.3629C36.6463 25.3548 36.652 25.3491 36.6589 25.3491L36.6612 25.3698C36.7176 25.3893 36.7532 25.4686 36.7451 25.5743C36.7244 25.7237 36.8026 25.8455 36.6704 26.0765L36.7831 26.142L36.7026 26.3155L36.6107 26.3098C36.6291 26.1386 36.6107 25.8076 36.613 25.5824L36.5716 25.5766C36.567 25.7099 36.6015 25.8628 36.5877 25.9501C36.567 25.9926 36.4659 26.0961 36.4084 26.0133L36.4935 26.0995C36.4854 26.319 36.4819 26.4293 36.4613 26.5385C36.4417 26.6476 36.4073 26.7603 36.3291 26.9694L36.3797 26.9372C36.3958 27.0257 36.4096 27.1131 36.3326 27.1257C36.3199 27.1878 36.3015 27.2464 36.2832 27.305C36.2625 27.3579 36.2395 27.4142 36.2131 27.4555C36.1993 27.4762 36.1854 27.4969 36.1717 27.5153C36.1567 27.5325 36.1418 27.5452 36.1269 27.5578C36.1108 27.5739 36.097 27.5762 36.082 27.5773C36.0671 27.5773 36.0545 27.5808 36.0395 27.575C36.0717 27.5911 36.1027 27.6095 36.1349 27.6279C36.1303 27.6337 36.0878 27.6176 36.0671 27.6107C36.0441 27.6026 36.0418 27.6026 36.1005 27.6498C36.1073 27.667 36.1177 27.6796 36.1108 27.7072C36.0752 27.7279 36.1108 27.7911 36.02 27.7808C36.0142 27.7808 36.0096 27.7796 36.0039 27.7773C36.0062 27.7796 36.0085 27.7819 36.0097 27.7842C35.8936 27.8175 36.0752 27.8635 35.9258 27.8911C35.8476 27.852 35.9625 28.0359 35.8832 28.052C35.8361 28.0198 35.7902 27.9865 35.7465 27.952C35.6683 27.9382 35.6465 27.9692 35.6166 28.0129C35.5845 28.0508 35.5523 28.1152 35.4569 28.1405C35.35 28.1175 35.2822 27.9922 35.3052 27.8681C35.2672 28.0221 35.296 27.9646 35.2087 28.0554C35.1822 27.9991 35.1914 27.9876 35.2029 27.9302C35.1052 27.8773 35.1592 27.9899 35.0914 27.998C35.0868 28.1117 35.0788 28.2864 35.0535 28.2956L35.0868 28.3278C35.0478 28.3599 35.0041 28.3852 34.957 28.3956C34.911 28.4025 34.8616 28.3956 34.8133 28.368L34.8191 28.3128C34.7846 28.3209 34.7513 28.3266 34.7168 28.3335V28.2623C34.6697 28.268 34.6249 28.2646 34.5778 28.2657L34.5927 28.2875C34.5582 28.2956 34.4502 28.2921 34.4031 28.2427L34.4168 28.206C34.3893 28.1634 34.3605 28.1393 34.3284 28.1267C34.2973 28.1117 34.2663 28.1037 34.2272 28.1025C34.1893 28.1014 34.1537 28.0922 34.1123 28.0864C34.0916 28.083 34.0698 28.0795 34.0503 28.0715C34.0319 28.0623 34.0124 28.0508 33.994 28.0382L34.0618 27.9899C34.0687 27.8922 33.9721 28.0761 33.9399 28.0002L34.0043 27.9256C33.871 27.9761 33.9687 27.8451 33.9791 27.7877L33.8963 27.8876C33.8836 27.8612 33.8699 27.8382 33.8618 27.8072C33.84 27.7049 33.9606 27.6658 34.0215 27.6325C33.9836 27.6383 33.9445 27.644 33.9043 27.6475L33.9928 27.575C33.8595 27.6095 33.9905 27.5268 33.8894 27.4969C33.9239 27.4705 33.956 27.4751 33.9583 27.4452C33.8894 27.436 33.825 27.4119 33.7538 27.3912L33.8549 27.4395L33.7009 27.5038C33.5458 27.467 33.6596 27.3797 33.5941 27.3268L33.6572 27.3567C33.5791 27.259 33.6435 27.228 33.6561 27.1556C33.6331 27.1843 33.601 27.2292 33.563 27.1901C33.5435 27.1568 33.6136 27.1533 33.6216 27.1142C33.5136 27.1395 33.4309 27.066 33.4596 26.9729C33.4757 26.9706 33.4906 26.9683 33.501 26.9717C33.4791 26.9545 33.4492 26.9499 33.4665 26.9074L33.5918 26.9005L33.4619 26.8557C33.4849 26.8016 33.3814 26.7488 33.4653 26.7396L33.4952 26.7614C33.486 26.7017 33.4849 26.6362 33.478 26.5753C33.4722 26.5132 33.4676 26.4512 33.4665 26.3857L33.5642 26.3684C33.4251 26.3466 33.5917 26.157 33.4251 26.1857C33.5124 26.1041 33.3389 25.8972 33.5331 25.9294C33.5331 25.8007 33.4883 25.7007 33.4515 25.5938C33.4182 25.4847 33.3929 25.3675 33.4412 25.2043C33.524 25.1468 33.5527 25.0388 33.5642 24.9181C33.5779 24.7963 33.5734 24.6653 33.5872 24.5561C33.54 24.1217 33.4906 23.8551 33.4883 23.4518C33.6159 23.3472 33.6182 23.2058 33.6159 23.061C33.6124 22.9162 33.6067 22.7657 33.7044 22.6772L33.6377 22.5887C33.8204 22.4922 33.7469 22.2233 33.971 22.1348C33.9606 22.0739 33.9675 22.0474 33.971 22.0371C33.9629 22.0417 33.9411 22.0429 33.8906 22.0141C33.9239 22.0026 33.9457 21.967 33.971 21.9429C33.9974 21.921 34.0261 21.9107 34.0687 21.9498V21.9681C34.1123 22.0072 34.125 21.9682 34.1445 21.921C34.1652 21.8774 34.1893 21.8211 34.2456 21.8383L34.1353 21.7739L34.2215 21.7188L34.2192 21.7544C34.2778 21.5211 34.4283 21.4487 34.5559 21.4189L34.6042 21.4097C34.6157 21.4062 34.6042 21.4119 34.6594 21.3935C34.6938 21.3844 34.711 21.3878 34.7375 21.3832C34.8375 21.3763 34.9306 21.3602 35.0409 21.3533C35.1477 21.3453 35.2569 21.3326 35.3649 21.3166C35.4729 21.3005 35.581 21.2786 35.6741 21.2533C35.6741 21.2235 35.6741 21.1925 35.6741 21.1603C35.6741 21.1442 35.6753 21.1304 35.6718 21.1108C35.6684 21.0913 35.6638 21.0706 35.6603 21.0499C35.7247 21.1672 35.7086 21.104 35.6936 21.0247C35.6787 20.9454 35.666 20.8523 35.7384 20.8925C35.8315 20.8213 35.8246 20.6822 35.7878 20.5489C35.7511 20.4145 35.6856 20.2846 35.6637 20.1777C35.6568 20.1754 35.6488 20.1708 35.6373 20.157L35.6614 19.8111C35.7511 19.9261 35.7143 19.8571 35.6741 19.7881C35.6339 19.718 35.589 19.664 35.666 19.7514C35.6683 19.7387 35.6706 19.7192 35.6729 19.7111L35.6798 19.6847L35.6913 19.6307C35.6982 19.5939 35.7051 19.5572 35.7109 19.5204C35.7224 19.4457 35.7292 19.3687 35.735 19.2894C35.7453 19.132 35.7453 18.9676 35.7442 18.7998C35.7407 18.4654 35.7281 18.1195 35.766 17.7955L35.7178 17.823C35.7304 17.6587 35.6764 17.4518 35.7545 17.3289C35.8327 17.2048 35.6396 17.0531 35.6327 17.0048C35.5534 16.8657 35.7189 16.7451 35.7097 16.8037C35.6901 16.6566 35.5235 16.5152 35.6005 16.3141C35.758 16.2475 35.458 15.7568 35.6339 15.7533L35.6189 15.751C35.7488 15.4925 35.5419 15.2431 35.6591 14.965C35.6591 14.965 35.6718 14.9707 35.6833 14.9799L35.1592 14.3984L34.5663 14.549L34.0779 15.0339L34.1549 16.3773L33.9468 17.4438L33.9526 18.747L33.956 19.3986V19.5617L33.9572 19.6433V19.6836V19.687L33.9641 19.7169C34.0077 19.7387 34.0514 19.7675 34.0951 19.8031C34.0744 19.8019 34.0537 19.8008 34.033 19.7996C34.025 19.7996 34.0192 19.7996 34.0146 19.7996C34.0089 19.7996 33.9986 19.7939 33.9917 19.7927C33.9687 19.7858 33.9583 19.7893 33.9468 19.7962C33.9411 19.7996 33.9365 19.8054 33.9307 19.8111L33.9261 19.8157C33.9261 19.8157 33.9538 19.8042 33.948 19.8065L33.9193 19.8203L33.8055 19.8766C33.5067 20.0329 33.2504 20.2168 32.9919 20.3685L33.0574 20.4639C32.9137 20.6133 32.8724 20.5547 32.823 20.5788C32.6552 20.7592 32.5138 20.9569 32.3897 21.1649C32.3265 21.2683 32.2725 21.3763 32.2196 21.4843L32.1461 21.6498L32.084 21.8107C31.93 22.2405 31.8473 22.6703 31.799 23.0725C31.7496 23.4759 31.7312 23.8551 31.7071 24.2102C31.683 24.5573 31.6531 24.9147 31.6128 25.2583C31.5749 25.3249 31.5692 25.4617 31.5611 25.595C31.5554 25.7294 31.5531 25.8616 31.5151 25.9168C31.6772 26.3753 31.7266 26.8694 31.8323 27.3682L31.8162 27.3521C31.8404 27.428 31.8726 27.505 31.9013 27.5808C31.8956 27.5934 31.8829 27.598 31.8714 27.5935C31.9541 27.7107 32.0185 27.8819 32.0737 28.0681C32.107 28.1623 32.138 28.26 32.1691 28.3565C32.2081 28.4542 32.2483 28.5496 32.2897 28.638L32.2679 28.6254C32.3403 28.7472 32.4345 28.8656 32.523 28.9805C32.5735 29.0357 32.6253 29.0908 32.6781 29.1449C32.7298 29.1989 32.7827 29.2517 32.8436 29.2988C32.9022 29.3471 32.962 29.3942 33.0218 29.4402C33.0815 29.4861 33.1481 29.5218 33.2125 29.562C33.278 29.5999 33.3412 29.6401 33.409 29.6712C33.4768 29.7022 33.5458 29.7321 33.6136 29.7608C33.8882 29.8654 34.1641 29.9275 34.4341 29.9527C34.703 29.9746 34.9673 29.9723 35.2236 29.9378C35.4798 29.9022 35.7304 29.8505 35.974 29.7666C36.2177 29.685 36.4567 29.5827 36.6877 29.4482C36.8049 29.3862 36.9163 29.3057 37.029 29.2287C37.1393 29.1414 37.2462 29.0621 37.36 28.9483C37.4668 28.8529 37.6001 28.7024 37.692 28.5496C37.7403 28.4737 37.784 28.3875 37.8208 28.3094L37.8736 28.1887L37.9139 28.0876C38.1494 27.6107 38.1736 27.1728 38.1942 26.7247C38.2103 26.2799 38.2046 25.8375 38.2954 25.4008C38.354 25.3215 38.3747 24.8365 38.3551 24.3435C38.339 23.8517 38.2678 23.3449 38.2333 23.2644L38.2356 23.2633Z" fill="#E19A3D"/>
<path d="M36.6279 20.4299L36.636 20.4333C36.6601 20.392 36.6394 20.4011 36.6279 20.4299Z" fill="#E19A3D"/>
<path d="M36.8106 24.3699L36.8118 24.3584L36.7451 24.4009L36.8106 24.3699Z" fill="#E19A3D"/>
<path d="M36.5405 22.2695C36.552 22.3511 36.5624 22.3546 36.5785 22.3362C36.5727 22.3052 36.5624 22.281 36.5405 22.2695Z" fill="#E19A3D"/>
<path d="M35.6199 20.1009C35.5578 20.0802 35.5751 20.1147 35.6026 20.155C35.667 20.1653 35.713 20.1779 35.713 20.1779C35.6819 20.1561 35.6532 20.1216 35.6199 20.1009Z" fill="#E19A3D"/>
<path d="M35.6615 20.7998L35.6328 20.8308C35.6661 20.832 35.6696 20.8182 35.6615 20.7998Z" fill="#E19A3D"/>
<path d="M35.7624 33.3145C35.7624 33.3145 35.7624 33.3156 35.7624 33.3167C35.7853 33.3167 35.8049 33.3145 35.8198 33.3145H35.7612H35.7624Z" fill="#E19A3D"/>
<path d="M35.6606 33.6606C35.6606 33.6606 35.6571 33.6629 35.6548 33.6629C35.6686 33.6606 35.6824 33.6595 35.6606 33.6606Z" fill="#E19A3D"/>
<path d="M35.4739 32.5723C35.4739 32.5723 35.4689 32.5674 35.4614 32.5674C35.4664 32.5686 35.4714 32.5699 35.4739 32.5723Z" fill="#E19A3D"/>
<path d="M35.3145 30.6507C35.3145 30.6507 35.3145 30.6507 35.3168 30.6519C35.3214 30.6507 35.3248 30.6496 35.3306 30.6484L35.3145 30.6507Z" fill="#E19A3D"/>
<path d="M35.3535 30.6579C35.3362 30.6648 35.3212 30.6556 35.3167 30.6533C35.2856 30.6614 35.2833 30.6694 35.2971 30.6786C35.3328 30.6786 35.327 30.6625 35.3535 30.6591V30.6579Z" fill="#E19A3D"/>
<path d="M35.2388 29.5332L35.2525 29.5367C35.2525 29.5367 35.2434 29.5344 35.2388 29.5332Z" fill="#E19A3D"/>
<path d="M33.7409 32.7501C33.7409 32.7501 33.7359 32.7464 33.731 32.7451C33.731 32.7476 33.7347 32.7501 33.7409 32.7501Z" fill="#E19A3D"/>
<path d="M35.1958 29.708L35.2521 29.7115C35.2291 29.7092 35.2107 29.708 35.1958 29.708Z" fill="#E19A3D"/>
<path d="M35.6661 33.9717C35.6488 33.9751 35.635 33.9774 35.6235 33.9797L35.6661 33.9717Z" fill="#E19A3D"/>
<path d="M35.0559 35.6864C35.0628 35.6853 35.0697 35.683 35.0778 35.6807L35.0376 35.683C35.0376 35.683 35.0479 35.6864 35.0571 35.6864H35.0559Z" fill="#E19A3D"/>
<path d="M35.488 34.4292C35.4949 34.4292 35.5006 34.4292 35.5075 34.428C35.5247 34.4177 35.5259 34.3982 35.5201 34.374L35.4512 34.3832L35.488 34.4292Z" fill="#E19A3D"/>
<path d="M33.9791 35.1733L34.1077 35.1009C34.1962 35.2422 34.0745 35.3388 34.2089 35.4479H34.1779C34.1503 35.4721 34.4571 35.4215 34.125 35.7054L34.1112 35.7077C34.1147 35.7145 34.1422 35.7088 34.1089 35.7306L34.1847 35.6778C34.2238 35.6927 34.2928 35.6985 34.3077 35.7249C34.2939 35.7341 34.2663 35.7421 34.2445 35.7467L34.2824 35.8122L34.1985 35.8525C34.2502 35.8639 34.4341 35.8157 34.3434 35.895C34.4675 35.8467 34.4261 35.9076 34.4904 35.8869C34.4755 35.8927 34.4525 35.9053 34.4318 35.9145C34.4537 35.9455 34.5031 36.0019 34.572 36.0042C34.572 36.0042 34.8156 35.8134 34.9455 35.7502C34.9202 35.8042 34.9639 35.7594 35.0053 35.741L34.9731 35.7444C34.9984 35.71 35.08 35.6927 35.0995 35.6743C35.0926 35.6755 35.0857 35.6778 35.0776 35.6801H35.0892C35.0754 35.6835 35.065 35.6847 35.057 35.6858C35.0398 35.6893 35.0259 35.6916 35.0294 35.6824H35.0386C35.0248 35.6732 35.0328 35.6502 35.0363 35.6399L35.1041 35.6261C34.9708 35.6318 35.2719 35.4468 35.2719 35.4181C35.3524 35.3732 35.2386 35.3595 35.2753 35.3169C35.2868 35.2572 35.3695 35.2698 35.4224 35.2307C35.458 35.1882 35.3443 35.2526 35.3374 35.2399L35.4247 35.1802C35.4373 35.2032 35.4765 35.1813 35.5017 35.1721C35.5063 35.1342 35.6212 35.0549 35.4822 35.0687C35.5385 35.0089 35.5925 34.9986 35.596 34.9768C35.573 34.9883 35.5523 35.0055 35.5247 35.0112C35.581 34.9814 35.5086 35.0043 35.496 35.0147C35.4305 34.9963 35.7178 34.8182 35.5672 34.8389L35.5948 34.8343C35.4822 34.8469 35.3765 34.8768 35.311 34.8676L35.3581 34.8446L35.3064 34.832C35.3397 34.8113 35.3707 34.8136 35.3845 34.8113C35.3271 34.786 35.3799 34.7286 35.388 34.6849L35.0915 34.7802C35.1558 34.7331 35.2868 34.647 35.188 34.6562L35.2868 34.6182C35.4707 34.5171 35.1949 34.5838 35.2489 34.5458L35.3546 34.4929L35.3581 34.5274C35.4087 34.4838 35.4431 34.4642 35.5121 34.4252H35.5086C35.5086 34.4252 35.4994 34.4298 35.4925 34.4309L35.4891 34.4263C35.4328 34.4309 35.3914 34.4194 35.3914 34.3941C35.4017 34.3574 35.3155 34.3424 35.4247 34.27L35.3087 34.2735L35.3707 34.2218L35.4615 34.208C35.4615 34.2493 35.5086 34.3206 35.5213 34.3712L35.5626 34.3654C35.558 34.3344 35.5121 34.3057 35.5178 34.2838C35.5339 34.2712 35.6247 34.2309 35.6891 34.2401L35.5971 34.2344C35.5707 34.1333 35.5672 34.1333 35.6545 34.0114L35.6098 34.0276C35.5799 34.0103 35.5511 33.9931 35.6235 33.9758C35.6293 33.9092 35.6776 33.8356 35.7867 33.7782L35.6775 33.7839C35.6821 33.7701 35.8407 33.7276 35.6902 33.7414L35.6396 33.7184C35.6454 33.6989 35.5833 33.6954 35.6419 33.6667C35.6454 33.6655 35.6499 33.6632 35.6545 33.6609C35.6511 33.6609 35.6488 33.6609 35.6454 33.6621C35.6879 33.6138 35.5489 33.6747 35.6052 33.6184C35.6799 33.5931 35.4661 33.6184 35.4879 33.592L35.6396 33.5495C35.7224 33.4966 35.5673 33.5081 35.5592 33.4461C35.6109 33.4104 35.7408 33.3805 35.8591 33.3863C35.7143 33.376 35.7649 33.3851 35.6937 33.3576C35.7511 33.3449 35.7638 33.3472 35.8178 33.3495C35.8821 33.3104 35.7626 33.3357 35.7637 33.3116C35.6534 33.3174 35.4776 33.3288 35.4707 33.3219L35.4374 33.3346C35.3765 33.3162 35.3454 33.2909 35.3972 33.2553L35.4523 33.2507L35.4213 33.222L35.4914 33.2128L35.4649 33.1703L35.4465 33.1783C35.4362 33.1691 35.4086 33.1369 35.4431 33.1128L35.4822 33.1093C35.5982 33.0404 35.4328 33.0116 35.4144 32.9473H35.4948C35.5718 32.9174 35.3707 32.9542 35.4087 32.9232L35.5063 32.9128C35.3753 32.9025 35.5316 32.8795 35.5787 32.8588L35.45 32.8784L35.4741 32.845C35.5144 32.8071 35.6351 32.8094 35.7029 32.8082L35.5994 32.7956L35.7132 32.7807C35.5787 32.7761 35.7327 32.7623 35.6591 32.7404C35.7017 32.7347 35.7269 32.7393 35.7453 32.7278L35.581 32.6945L35.6545 32.7175L35.4879 32.729C35.3592 32.7094 35.5029 32.6864 35.4534 32.6692L35.504 32.6796C35.4603 32.6474 35.5316 32.6405 35.5661 32.6175C35.5362 32.6267 35.4902 32.6393 35.4672 32.6267C35.4569 32.6175 35.5247 32.6163 35.5431 32.6048C35.4316 32.6117 35.3707 32.5911 35.4213 32.5646C35.4374 32.5646 35.4523 32.5623 35.4626 32.5646C35.4443 32.56 35.4155 32.56 35.4408 32.5474L35.5649 32.5428L35.4465 32.5325C35.4799 32.5164 35.3879 32.5049 35.4718 32.5003L35.4971 32.506L35.5201 32.4049L35.6189 32.3957C35.4822 32.3957 35.6661 32.3382 35.4971 32.3543C35.5879 32.329 35.4259 32.2854 35.6178 32.2831C35.6281 32.2176 35.4408 32.1957 35.5293 32.1107C35.6902 32.0728 35.6327 31.9992 35.6476 31.9487C35.5741 31.8544 35.5086 31.7935 35.4523 31.6947C35.6764 31.6234 35.3684 31.5465 35.4937 31.4752L35.4029 31.4602C35.5442 31.412 35.3661 31.3511 35.5052 31.2856C35.4649 31.2718 35.4523 31.2637 35.4488 31.2614C35.4442 31.2649 35.4282 31.2695 35.3707 31.2718C35.4109 31.2534 35.3592 31.2189 35.4741 31.2189L35.4856 31.2235C35.6006 31.2235 35.4305 31.1718 35.5293 31.15L35.4075 31.1637L35.427 31.1304L35.4511 31.1385C35.1753 31.0006 35.5638 30.9282 35.3133 30.7972C35.4466 30.8144 35.2431 30.7707 35.3891 30.7684C35.5729 30.7328 35.3489 30.7052 35.2995 30.6776C35.2926 30.6776 35.2834 30.6776 35.273 30.6753L35.2903 30.6259C35.4753 30.6547 35.1363 30.5915 35.2937 30.6179C35.4328 30.4903 35.2926 30.3237 35.3581 30.1766L35.311 30.1824C35.3213 30.1456 35.2638 30.0973 35.3408 30.0709C35.4167 30.0444 35.2213 30.0065 35.2145 29.995C35.1329 29.9617 35.2972 29.9376 35.288 29.9502C35.2661 29.9169 35.0984 29.8801 35.1719 29.8353C35.3282 29.825 35.0225 29.7031 35.1995 29.7077H35.1845C35.311 29.6514 35.1018 29.5871 35.2167 29.5285C35.2167 29.5285 35.2294 29.5308 35.2409 29.5331L34.7111 29.3779L34.1204 29.3883L33.6377 29.4871L33.7296 29.8157L33.5366 30.072C33.5539 30.2846 33.5734 30.4961 33.5952 30.7075L33.7285 30.7524C33.4975 30.8788 33.7653 31.035 33.6044 31.1718H33.7193C33.7274 31.2097 33.6561 31.2086 33.6366 31.2189C33.6687 31.5706 33.8412 31.9222 33.7159 32.2452C33.6412 32.2808 33.6929 32.3704 33.6147 32.3991C33.7618 32.4922 33.7688 32.6003 33.7619 32.7037L33.7492 32.7014L33.7757 32.7473C33.7665 32.7496 33.7526 32.7519 33.7435 32.7508C33.8492 32.7968 33.7572 32.891 33.7227 32.9611L33.7101 32.9588C33.7251 33.3518 33.9791 33.6851 33.8722 34.0885C33.7113 34.293 33.9963 34.4642 33.8756 34.6918C33.7676 34.7481 33.9227 35.148 33.9825 35.1744L33.9791 35.1733Z" fill="#E19A3D"/>
<path d="M34.2447 35.748C34.1976 35.7561 34.2159 35.7549 34.2447 35.748V35.748Z" fill="#E19A3D"/>
<path d="M35.3869 34.6824L35.3857 34.6859L35.4512 34.6641L35.3869 34.6824Z" fill="#E19A3D"/>
<path d="M35.5187 35.1905C35.5291 35.1641 35.5176 35.1653 35.4992 35.1722C35.498 35.1814 35.5026 35.1871 35.5187 35.1905Z" fill="#E19A3D"/>
<path d="M34.3755 35.9275C34.3755 35.9413 34.4019 35.9298 34.4318 35.916C34.4238 35.9045 34.4191 35.8965 34.4191 35.8965C34.41 35.9057 34.3859 35.9183 34.3767 35.9275H34.3755Z" fill="#E19A3D"/>
<path d="M35.0054 35.7409L35.0444 35.7363C35.0341 35.7306 35.0192 35.734 35.0054 35.7409Z" fill="#E19A3D"/>
</svg>
