<svg width="1264" height="240" viewBox="0 0 1264 240" fill="none" xmlns="http://www.w3.org/2000/svg">
<g opacity="0.18">
<path d="M1 190.158L1263 216.772" stroke="#623800" stroke-width="7"/>
<path d="M1 147.662L1263 174.276" stroke="#623800" stroke-width="7"/>
<path d="M1 96.1523L1263 122.766" stroke="#623800" stroke-width="7"/>
<path d="M1 54.0859L1263 80.6995" stroke="#623800" stroke-width="7"/>
<path d="M1 11.1602L1263 37.7738" stroke="#623800" stroke-width="7"/>
</g>
<path d="M136.645 102.591L161.541 72.543L192.447 109.888L169.268 133.926L136.645 102.591Z" stroke="#623800" stroke-width="7"/>
<path d="M246.533 126.2L271.43 96.1523L302.336 133.497L279.156 157.535L246.533 126.2Z" stroke="#623800" stroke-width="7"/>
<path d="M350.412 171.7L375.309 141.652L406.215 178.997L383.035 203.035L350.412 171.7Z" stroke="#623800" stroke-width="7"/>
<path d="M500.65 152.813L525.547 122.766L556.453 160.111L533.273 184.149L500.65 152.813Z" stroke="#623800" stroke-width="7"/>
<path d="M375.309 55.8027V147.663" stroke="#623800" stroke-width="7"/>
<path d="M525.546 29.1895V121.049" stroke="#623800" stroke-width="7"/>
<path d="M882.684 84.1336L907.581 54.0859L938.487 91.4308L915.307 115.469L882.684 84.1336Z" stroke="#623800" stroke-width="7"/>
<path d="M975.402 121.907L1000.3 91.8594L1031.21 129.204L1008.03 153.242L975.402 121.907Z" stroke="#623800" stroke-width="7"/>
<path d="M732.446 115.897L757.342 85.8496L788.249 123.195L765.069 147.233L732.446 115.897Z" fill="#623800" stroke="#623800" stroke-width="7"/>
<path d="M694.672 131.171L701.566 122.766L710.125 133.212L703.706 139.936L694.672 131.171Z" fill="#623800" stroke="#623800" stroke-width="7"/>
<path d="M1091.3 145.946L1116.2 115.898L1147.1 153.243L1123.92 177.281L1091.3 145.946Z" fill="#623800" stroke="#623800" stroke-width="7"/>
<path d="M1050.09 97.7259L1055.45 91.002L1062.11 99.3589L1057.12 104.738L1050.09 97.7259Z" fill="#623800" stroke="#623800" stroke-width="7"/>
<path d="M1167.71 160.54L1192.6 130.492L1223.51 167.837L1200.33 191.875L1167.71 160.54Z" fill="#623800" stroke="#623800" stroke-width="7"/>
<path d="M642.303 11.1602V103.02" stroke="#623800" stroke-width="7"/>
<path d="M760.776 0V91.8599" stroke="#623800" stroke-width="7"/>
<path d="M911.015 111.605V203.465" stroke="#623800" stroke-width="7"/>
<path d="M1003.73 147.662V239.522" stroke="#623800" stroke-width="7"/>
<path d="M1119.63 24.0391V115.899" stroke="#623800" stroke-width="7"/>
<path d="M1196.04 45.5V137.36" stroke="#623800" stroke-width="7"/>
<path d="M617 134.048L641.897 104L672.803 141.345L649.623 165.383L617 134.048Z" stroke="#623800" stroke-width="7"/>
</svg>
