<svg width="47" height="45" viewBox="0 0 47 45" fill="none" xmlns="http://www.w3.org/2000/svg">
<ellipse cx="23.8121" cy="22.5482" rx="20" ry="19.5" transform="rotate(5.62524 23.8121 22.5482)" fill="#B30D3B"/>
<path d="M4.78849 21.1082C4.80778 21.0602 4.80287 21.0326 4.78849 21.1082Z" fill="#BD2B54"/>
<path d="M32.1005 38.7252C32.1155 38.7204 32.1221 38.7166 32.1365 38.7114C32.1514 38.6692 32.1661 38.6325 32.1819 38.6025L32.1005 38.7252Z" fill="#BD2B54"/>
<path d="M37.4687 35.7715C37.4811 35.7639 37.4897 35.7584 37.5017 35.7514C37.4842 35.7391 37.4745 35.7191 37.4687 35.7715Z" fill="#BD2B54"/>
<path d="M17.472 39.42C17.4182 39.4025 17.3861 39.4014 17.3613 39.4059C17.3945 39.4075 17.4282 39.4104 17.472 39.42Z" fill="#BD2B54"/>
<path d="M10.2772 10.6954C10.2772 10.6954 10.2672 10.7087 10.26 10.7184C10.2806 10.7062 10.3003 10.6925 10.3229 10.6816L10.2772 10.6954Z" fill="#BD2B54"/>
<path d="M10.2324 10.8309C10.1162 10.9186 10.2235 10.769 10.2612 10.7179C10.1197 10.8024 10.006 10.9143 9.9167 11.0505C9.93716 11.0681 9.99547 11.018 10.0596 10.9619C10.1243 10.9066 10.194 10.8434 10.2327 10.8309L10.2324 10.8309Z" fill="#BD2B54"/>
<path d="M30.2819 5.01054L30.2126 5.02382C30.241 5.02141 30.2623 5.01623 30.2819 5.01054Z" fill="#BD2B54"/>
<path d="M17.4338 42.1171C17.398 42.1136 17.3582 42.1062 17.3252 42.1036C17.3795 42.1183 17.411 42.1197 17.4338 42.1171Z" fill="#BD2B54"/>
<path d="M26.787 4.63619L26.7442 4.71832C26.7801 4.6851 26.7892 4.6593 26.787 4.63619Z" fill="#BD2B54"/>
<path d="M32.182 38.6038L32.214 38.5574C32.202 38.5697 32.1921 38.5857 32.182 38.6038Z" fill="#BD2B54"/>
<path d="M40.247 30.8745C40.2725 30.8798 40.296 30.8728 40.3175 30.8628C40.3196 30.8557 40.3215 30.8503 40.3229 30.847L40.2473 30.8749L40.247 30.8745Z" fill="#BD2B54"/>
<path d="M31.1045 4.29079C31.1031 4.3014 31.1043 4.31365 31.1088 4.32762L31.25 4.31656C31.1849 4.29767 31.1375 4.28988 31.1048 4.29082L31.1045 4.29079Z" fill="#BD2B54"/>
<path d="M41.7765 22.6742C41.7669 22.6667 41.7585 22.6469 41.7479 22.6451C41.7167 22.7867 41.7027 23.1607 41.6765 23.6411L41.7778 23.6767C41.7835 23.3413 41.785 23.0069 41.7766 22.6739L41.7765 22.6742Z" fill="#BD2B54"/>
<path d="M42.1347 12.8916C42.2077 13.2213 42.2722 13.5504 42.3282 13.8777C42.0148 13.1604 41.721 12.5426 41.4365 11.9859C41.1508 11.4298 40.877 10.9323 40.5861 10.4604C40.2956 9.98863 39.9907 9.5403 39.6361 9.08985C39.2812 8.64006 38.8759 8.18774 38.3772 7.72275L38.5133 7.8019C38.4534 7.72161 38.38 7.66906 38.2578 7.58541C38.1353 7.50206 37.9707 7.38136 37.7215 7.17171C37.5992 7.06452 37.4505 6.94055 37.2807 6.78162C37.107 6.62716 36.9088 6.44053 36.672 6.2245C36.556 6.11343 36.4247 6.00258 36.2872 5.87729C36.2183 5.8148 36.1468 5.74998 36.0732 5.68287C36.0364 5.64915 35.9989 5.61466 35.9609 5.57943C35.9419 5.56199 35.9229 5.54386 35.9031 5.52669C35.883 5.50983 35.8629 5.49263 35.8425 5.47505C35.6797 5.33653 35.5069 5.187 35.3221 5.02522C35.2988 5.00529 35.276 4.98401 35.252 4.96434C35.228 4.94468 35.2036 4.92532 35.179 4.90525C35.1299 4.86548 35.08 4.82492 35.0293 4.78396C34.9278 4.70096 34.8234 4.6156 34.7159 4.5275L34.7266 4.50953C34.595 4.43014 34.5739 4.46888 34.3355 4.26895C34.4354 4.3511 34.5366 4.42992 34.6337 4.51491L34.9226 4.77137C34.7157 4.6728 34.5174 4.58891 34.2982 4.50677C34.1897 4.4639 34.0776 4.41793 33.96 4.36517C33.901 4.33894 33.8409 4.30985 33.778 4.28048C33.7147 4.25244 33.6492 4.22211 33.5815 4.1895C33.4789 4.11054 33.459 4.05254 33.4632 4.01697C33.3519 3.96345 33.2414 3.90862 33.1296 3.85643L32.7902 3.70815C32.6771 3.65929 32.5644 3.60875 32.4507 3.56157L32.1066 3.42665C31.9842 3.32775 31.8625 3.22443 31.7357 3.13133C31.5099 3.0852 31.4211 3.14705 31.2548 3.14901C31.1722 3.14882 31.0686 3.13931 30.9184 3.09407C30.7681 3.04986 30.5725 2.96659 30.2956 2.84452C30.4834 3.00417 30.3316 2.98922 30.1491 2.95221C30.0574 2.93419 29.9586 2.9082 29.8881 2.90022C29.8181 2.89159 29.7783 2.89528 29.8071 2.92891C29.7559 2.88997 29.6335 2.81909 29.5358 2.75791C29.4925 2.74776 29.4468 2.73739 29.3995 2.72615C29.3516 2.7166 29.3014 2.70645 29.2499 2.69584C29.1467 2.67564 29.037 2.65412 28.924 2.63192C28.8109 2.61074 28.6933 2.59328 28.5761 2.57447C28.5175 2.56558 28.4585 2.55632 28.4002 2.54746C28.3414 2.54028 28.2833 2.53283 28.2256 2.52576C27.765 2.46655 27.3476 2.45104 27.1791 2.47839C27.1791 2.47839 27.2208 2.4908 27.2951 2.51299C27.3693 2.53587 27.4764 2.5658 27.6057 2.60898C27.735 2.65182 27.8878 2.69904 28.0527 2.75991C28.1352 2.78949 28.2211 2.82044 28.3093 2.85197C28.3974 2.88487 28.487 2.92067 28.5783 2.9563C28.7607 3.02582 28.9455 3.10629 29.1259 3.18496C29.171 3.20463 29.2158 3.22426 29.2602 3.24386C29.3042 3.2648 29.3478 3.28535 29.3911 3.30588C29.477 3.34721 29.5612 3.38803 29.6425 3.42717C29.6827 3.44705 29.7223 3.46652 29.7613 3.48558C29.7998 3.50529 29.8372 3.52592 29.8734 3.5454C29.946 3.58473 30.0146 3.62228 30.0782 3.65796C30.2051 3.72927 30.311 3.79125 30.3872 3.8465C30.2762 3.80062 30.1871 3.77075 30.1193 3.74676C30.051 3.72309 30.0031 3.70764 29.9718 3.69834C29.9086 3.68 29.9109 3.68784 29.9462 3.7093C30.0169 3.75329 30.2205 3.85015 30.2992 3.91187L30.3744 3.88538C30.6381 4.00062 30.7599 4.08492 30.8459 4.16085C30.9317 4.23747 30.9844 4.29974 31.1104 4.36578C31.1141 4.35645 31.1103 4.34225 31.1072 4.32776L31.0675 4.33042C31.0501 4.30033 31.0703 4.2916 31.1032 4.29103C31.1059 4.26362 31.1381 4.25329 31.2808 4.31509L31.2484 4.31676C31.3055 4.33414 31.3727 4.35494 31.4418 4.38355C31.511 4.41181 31.5837 4.44353 31.6543 4.47505C31.7954 4.53843 31.9286 4.60172 32.0092 4.64045L31.9703 4.73694C32.0853 4.73581 32.296 4.82715 32.5537 4.96809C32.6819 5.03988 32.8179 5.13112 32.9611 5.22584C33.0325 5.2737 33.1051 5.32341 33.1787 5.3739C33.251 5.42635 33.3226 5.48254 33.3947 5.53738C33.5384 5.6491 33.6833 5.75886 33.8186 5.87079C33.952 5.98495 34.0802 6.09515 34.1982 6.19639C34.257 6.24612 34.3135 6.29389 34.3662 6.33852C34.4177 6.38545 34.466 6.42896 34.5105 6.46864C34.5999 6.54768 34.6747 6.61006 34.7314 6.64989C34.9255 6.85654 35.1711 7.04299 35.4421 7.22815C35.5788 7.31911 35.7135 7.42025 35.8478 7.52551C35.8811 7.55197 35.9148 7.57848 35.9478 7.60594C35.9803 7.63405 36.0124 7.66247 36.0442 7.69155C36.1076 7.7497 36.1699 7.8098 36.2298 7.87278C36.6277 8.25485 36.695 8.38292 36.7143 8.46162C36.732 8.54156 36.698 8.578 36.857 8.80402C36.9654 8.93614 37.017 8.99242 37.0387 9.0039C37.0607 9.01507 37.053 8.98144 37.0377 8.93634C37.0078 8.84655 36.9445 8.71611 37.0441 8.81138C37.122 8.92665 37.197 9.04405 37.2728 9.15946L37.4917 9.51179C37.1665 9.16699 37.2919 9.40077 37.319 9.49132C37.5448 9.75921 37.794 10.1373 38.0088 10.4616C38.2246 10.7852 38.4151 11.0507 38.5612 11.0813C38.7875 11.4991 38.8689 11.7261 38.9292 11.8864C38.9594 11.9665 38.9802 12.0325 39.0079 12.0993C39.0349 12.1663 39.0684 12.2339 39.1153 12.323C39.082 12.1872 38.9727 11.9401 39.0079 11.9162C39.1219 12.2869 39.1197 12.0601 39.0581 11.9163C39.2483 12.1389 39.5413 12.8386 39.7656 13.4942C39.9952 14.1485 40.1694 14.7584 40.2983 14.7735L40.2598 14.7887C40.4663 14.8526 40.5408 14.5873 40.7762 14.9375L40.8019 15.2213C40.8723 15.3424 40.9423 15.4645 41.0121 15.5876C41.0541 15.871 40.9652 15.7556 40.9458 15.7624C41.2461 16.367 41.4214 17.2887 41.5646 18.0788C41.6554 17.7688 41.7383 17.4531 41.8125 17.1324C41.8531 17.482 41.8812 17.9737 41.9136 18.3886C41.9207 18.4927 41.9289 18.5918 41.9386 18.6831C41.949 18.774 41.9563 18.8581 41.9682 18.9302C41.991 19.0747 42.0221 19.1743 42.0628 19.2028C42.0303 19.3474 42.0006 19.4901 41.9658 19.6327C41.9356 19.9819 41.927 20.2132 41.9398 20.3747C41.9495 20.5361 41.9796 20.6277 42.0139 20.6933C42.082 20.8246 42.1667 20.8534 42.1387 21.1302L42.0688 21.4786L41.9928 21.8244L41.9856 21.4829L41.9725 21.1418C41.9453 21.4848 41.9163 21.7237 41.8806 21.9451C41.845 22.1662 41.8032 22.3696 41.7435 22.6385C41.7452 22.6386 41.7463 22.6446 41.7477 22.6444C41.7555 22.6071 41.7641 22.5834 41.7746 22.5786L41.7763 22.6735C41.8584 22.757 41.9107 23.1147 41.8764 23.5968C41.8438 23.9382 41.8454 24.2452 41.8184 24.6031C41.7912 24.9609 41.7337 25.369 41.5775 25.9113L41.7149 26.2093L41.5086 27.039L41.3718 27.0228C41.3988 26.8158 41.4284 26.5606 41.4591 26.2844C41.4898 26.0075 41.5205 25.7068 41.5492 25.4007C41.5777 25.0945 41.6025 24.7828 41.624 24.4832C41.6449 24.1839 41.6617 23.897 41.6756 23.6403L41.6141 23.6183C41.5963 23.9217 41.5856 24.248 41.5718 24.5494C41.5574 24.851 41.5398 25.1278 41.5102 25.3304C41.4612 25.5252 41.2571 26.0171 41.2094 25.6371L41.2968 26.0353C41.2358 26.5562 41.1896 26.9478 41.1514 27.2761C41.1097 27.5938 41.0717 27.8495 41.0227 28.1052C40.9743 28.361 40.9172 28.6176 40.8347 28.9354C40.7519 29.2528 40.6446 29.6325 40.4799 30.1246C40.5169 30.0722 40.5549 30.0198 40.5906 29.9666C40.5339 30.3772 40.4562 30.7827 40.3168 30.86C40.2228 31.1541 40.1172 31.4465 40.002 31.7275C39.8851 32.0073 39.7594 32.2762 39.6276 32.5251C39.3618 33.0217 39.0725 33.4367 38.8072 33.7199C38.8261 33.7948 38.8437 33.8695 38.8615 33.9453C38.795 34.0512 38.6561 34.1472 38.5545 34.2451C38.4486 34.3402 38.3794 34.4386 38.4367 34.5518C38.3952 34.6297 38.3545 34.7088 38.3122 34.787L38.1814 35.0187C38.126 35.0824 38.0809 35.1437 38.0397 35.204C37.999 35.2651 37.9579 35.3209 37.9159 35.3786C37.8947 35.4073 37.8729 35.4357 37.8493 35.4641C37.8258 35.4926 37.7996 35.5194 37.7716 35.5471C37.7433 35.5748 37.7129 35.6022 37.6794 35.6297C37.6625 35.6433 37.6452 35.6571 37.6266 35.6709C37.6073 35.6839 37.5873 35.6971 37.5667 35.71L37.5648 35.7112C37.5442 35.724 37.5225 35.7374 37.5005 35.7494C37.504 35.7529 37.5087 35.7544 37.513 35.7559C37.367 35.8789 37.3032 35.9473 37.2721 35.9857C37.2426 36.0254 37.2529 36.0396 37.26 36.0558C37.2674 36.0721 37.2715 36.0902 37.2298 36.138C37.1868 36.1842 37.1033 36.266 36.9188 36.3903C36.7732 36.4383 36.751 36.5309 36.7117 36.6377C36.6929 36.6919 36.6715 36.7511 36.6319 36.8122C36.5917 36.8726 36.5361 36.9384 36.4406 36.9951L36.194 37.032L36.0723 37.0498L35.9487 37.0639C35.8578 37.1058 35.7791 37.1461 35.7086 37.1866C35.6734 37.207 35.6397 37.2265 35.6073 37.2455C35.575 37.2648 35.544 37.2842 35.5148 37.3038C35.3967 37.3822 35.2995 37.4657 35.1893 37.5524C35.0802 37.6406 34.9645 37.7406 34.8067 37.8472C34.7677 37.8741 34.7261 37.9022 34.6821 37.9311C34.6381 37.9603 34.5916 37.99 34.5403 38.0188C34.4384 38.0773 34.3245 38.1408 34.1931 38.2064C34.0562 38.2483 33.9334 38.276 33.8301 38.2886C33.7271 38.3013 33.6415 38.2953 33.5832 38.2768C33.4658 38.2389 33.4521 38.1424 33.5829 37.9882C33.3965 38.1875 33.3567 38.2434 33.2932 38.2942C33.2279 38.3431 33.1403 38.3895 32.8435 38.5641C32.7129 38.5197 32.7756 38.4775 32.8845 38.3488C32.2881 38.471 32.5689 38.5592 32.1372 38.7101C32.1198 38.7602 32.1031 38.8167 32.0854 38.8741C32.0673 38.9312 32.0485 38.9888 32.0277 39.0421C31.9857 39.1491 31.9343 39.2385 31.8639 39.2679L32.0523 39.2587C31.9971 39.2889 31.9409 39.3187 31.8837 39.348C31.8265 39.3773 31.7683 39.4062 31.708 39.4314C31.5881 39.4832 31.4635 39.5322 31.3353 39.5767C31.2071 39.6211 31.0747 39.6613 30.9381 39.696C30.904 39.7047 30.8697 39.7131 30.835 39.7208C30.8001 39.7274 30.7646 39.7332 30.7291 39.7391C30.658 39.7504 30.5862 39.7603 30.5131 39.7679L30.5129 39.6821L29.9267 39.8763L29.8647 39.7826C29.5823 39.8572 29.298 39.9261 29.014 39.9988L29.1376 40.002C29.0878 40.0161 29.0095 40.0378 28.914 40.063C28.8663 40.0766 28.8134 40.0863 28.758 40.0978C28.7022 40.1086 28.644 40.1201 28.5841 40.1315C28.3441 40.176 28.0803 40.2161 27.8853 40.2215L27.8906 40.1608C27.6134 40.1515 27.353 40.1639 27.0978 40.1941C27.0341 40.2017 26.9703 40.2099 26.9071 40.2193C26.8439 40.2289 26.78 40.2341 26.7165 40.243C26.5893 40.2596 26.4622 40.2789 26.3331 40.3001C26.2041 40.3213 26.0741 40.3441 25.941 40.3677C25.8747 40.3809 25.8069 40.3877 25.7388 40.3972C25.6705 40.4061 25.6014 40.4152 25.5314 40.4242C25.3912 40.4419 25.2474 40.4589 25.0981 40.4739C25.0237 40.4811 24.9479 40.4892 24.8706 40.4944C24.7934 40.4975 24.7146 40.5001 24.6346 40.5016L24.8001 40.3802C24.3636 40.2628 24.6839 40.5663 24.1622 40.5094L24.1366 40.3616C24.0225 40.4102 23.9281 40.4348 23.8463 40.4364C23.7645 40.4377 23.6952 40.4215 23.6311 40.3976C23.5023 40.3492 23.393 40.2679 23.2383 40.226L23.3779 40.4249L23.0823 40.3944C22.9837 40.3836 22.8852 40.376 22.7875 40.3601C22.1409 40.247 22.4079 40.0861 22.5079 39.9915L22.0574 40.1114L21.9873 39.9347C21.9029 39.9796 21.8411 39.9929 21.7865 39.9951C21.732 39.997 21.6855 39.9845 21.6317 39.9685C21.5238 39.9364 21.3887 39.8895 21.1029 39.9105C21.0654 39.8411 21.2107 39.8201 21.0252 39.7714C20.9462 39.784 20.8677 39.7901 20.7887 39.7986L20.5514 39.8223L20.0734 39.87L20.6438 39.8508L20.5391 40.0878C20.2341 40.1353 20.0362 40.1002 19.8642 40.048C19.6926 39.9917 19.5456 39.9246 19.3328 39.9182L19.6309 39.9015C19.2893 39.8644 19.1143 39.8184 18.9797 39.7654C18.8458 39.7093 18.7527 39.6427 18.5722 39.5713C18.6771 39.6446 18.8402 39.7551 18.563 39.7216C18.3619 39.6872 18.476 39.6099 18.2963 39.5382C18.2539 39.6133 18.1072 39.6452 17.9196 39.6316C17.7337 39.6126 17.5063 39.55 17.3026 39.4507C17.3147 39.4294 17.3301 39.4102 17.3622 39.4037C17.2455 39.3984 17.1762 39.4234 16.9972 39.3304L17.1634 39.1852C17.0243 39.2092 16.8879 39.2213 16.7492 39.2385C16.5248 39.1102 16.129 39.1206 16.2019 39.0133L16.3507 39.0235L16.1251 38.9428C16.0499 38.916 15.9762 38.8845 15.9018 38.8557L15.6791 38.7674C15.6049 38.7376 15.5301 38.7094 15.4572 38.677L15.0173 38.4891C14.8714 38.4245 14.7276 38.3564 14.5826 38.2906L14.6178 38.1442C14.4895 38.2028 14.2624 38.0743 14.0612 37.9672C14.0109 37.9402 13.9622 37.9153 13.9173 37.8929C13.8729 37.8702 13.8318 37.8519 13.7961 37.8412C13.7249 37.8196 13.6742 37.8285 13.66 37.8924C13.5947 37.821 13.48 37.7526 13.3503 37.6851C13.2223 37.6151 13.0785 37.5473 12.9526 37.4837C12.8258 37.4217 12.7208 37.3567 12.6656 37.3029C12.6107 37.2483 12.6074 37.2016 12.6885 37.165C12.6218 37.1256 12.5566 37.0883 12.4923 37.0526C12.4601 37.0349 12.4283 37.0176 12.3968 37.0003C12.3657 36.9827 12.3349 36.9651 12.3047 36.948C12.1827 36.8799 12.0639 36.8177 11.9473 36.7588C11.8882 36.7302 11.832 36.6994 11.7751 36.6695C11.7182 36.6401 11.6619 36.6106 11.6056 36.5816C11.4934 36.5228 11.3784 36.4682 11.2678 36.404C11.1559 36.3415 11.0426 36.2767 10.9263 36.2074C10.8677 36.1736 10.8101 36.1358 10.7521 36.0965C10.6937 36.0572 10.6347 36.0168 10.5745 35.9742C10.5144 35.9316 10.4534 35.8872 10.3912 35.8409C10.3298 35.7934 10.2687 35.742 10.2055 35.6887C10.1426 35.6355 10.0785 35.5797 10.0127 35.5206C9.94644 35.4629 9.88183 35.3987 9.81581 35.3314C9.68865 35.0663 9.3373 34.7168 8.95759 34.3251C8.90942 34.2768 8.86059 34.228 8.81145 34.1789C8.76157 34.1304 8.71547 34.0785 8.66644 34.0283C8.56947 33.9274 8.47216 33.8265 8.37643 33.7271C8.19392 33.5216 8.00988 33.3281 7.86749 33.1404C7.7886 33.0561 7.71123 32.9741 7.63546 32.8933C7.56271 32.81 7.49151 32.7283 7.42157 32.6481C7.38643 32.6079 7.3516 32.5682 7.31707 32.5288C7.29964 32.5091 7.28255 32.4894 7.26542 32.4701C7.24908 32.4498 7.23272 32.4298 7.21669 32.4099C7.15158 32.3298 7.08739 32.2508 7.02413 32.173C6.89395 32.0193 6.78099 31.8594 6.66294 31.7056C6.63356 31.6667 6.60449 31.6282 6.57541 31.5897C6.54705 31.551 6.5202 31.511 6.4926 31.4716C6.43777 31.3925 6.38325 31.3138 6.32838 31.235C6.11189 30.9179 5.90927 30.59 5.70903 30.2343C5.65607 30.1468 5.61126 30.0538 5.56226 29.9611C5.51402 29.8677 5.46454 29.7729 5.41458 29.676C5.36678 29.5782 5.32171 29.4772 5.27369 29.3746C5.25005 29.3231 5.22575 29.2713 5.20152 29.2187C5.18959 29.1923 5.17731 29.1658 5.16504 29.1393C5.15387 29.1123 5.14304 29.0853 5.1319 29.0579C5.12338 28.909 5.10056 28.7579 5.06658 28.6041C5.03795 28.4487 5.0006 28.2904 4.95376 28.1301C4.92877 28.0501 4.90988 27.968 4.88615 27.8857C4.86311 27.8035 4.83839 27.7208 4.81236 27.6373C4.79986 27.5956 4.78561 27.554 4.77315 27.512C4.7614 27.4697 4.74999 27.4274 4.73825 27.385C4.71373 27.3003 4.68925 27.2152 4.6648 27.1297L4.62692 27.0014L4.59504 26.872C4.57381 26.7855 4.55288 26.6994 4.53196 26.6132C4.52168 26.57 4.51136 26.5271 4.50106 26.4843C4.49109 26.4414 4.48465 26.3979 4.47643 26.3549C4.46106 26.2686 4.44665 26.1831 4.43323 26.098C4.40252 25.9286 4.39296 25.7588 4.38555 25.5951C4.38324 25.5133 4.3787 25.4329 4.38345 25.3531C4.38816 25.2736 4.39478 25.1957 4.40402 25.1195L4.33022 24.9555L4.29337 24.873C4.28158 24.8452 4.27116 24.8175 4.25974 24.7894C4.28744 24.6873 4.30743 24.5792 4.32175 24.4654C4.32976 24.4088 4.33306 24.3507 4.34099 24.2912C4.34823 24.2317 4.35424 24.1708 4.35895 24.1089C4.37512 23.8604 4.39244 23.5933 4.41042 23.3158C4.45475 22.7604 4.53663 22.1575 4.75909 21.613C4.76442 21.3236 4.77892 21.1728 4.78955 21.1071C4.77116 21.1568 4.7287 21.2294 4.63963 21.2345C4.6563 21.1953 4.67176 21.1508 4.6869 21.1025C4.70269 21.0546 4.71953 21.003 4.73511 20.9502C4.76661 20.8446 4.79721 20.7342 4.82762 20.6361C4.85666 20.538 4.89338 20.4533 4.92714 20.3986C4.96194 20.3439 4.99753 20.3197 5.03501 20.3431L5.02822 20.4296C5.06604 20.4531 5.09762 20.4029 5.12794 20.3093C5.1586 20.2158 5.18492 20.0787 5.22276 19.9298C5.25958 19.7809 5.29606 19.6177 5.34618 19.4742C5.39664 19.3307 5.45329 19.2052 5.5192 19.1297L5.2781 19.2627L5.39866 18.9659L5.5266 18.6717L5.49887 18.8443C5.51769 18.7586 5.53701 18.6747 5.55659 18.5919C5.57613 18.5094 5.59589 18.4283 5.6189 18.3493C5.66355 18.1911 5.70899 18.0388 5.75636 17.8916C5.80674 17.7454 5.85764 17.6044 5.90948 17.468C5.9349 17.3995 5.9619 17.3327 5.9898 17.2673C6.01803 17.2019 6.04548 17.1375 6.07287 17.0737C6.1009 17.0104 6.12821 16.9474 6.1571 16.8859C6.18665 16.8248 6.21614 16.7643 6.2452 16.7046C6.30467 16.5855 6.36192 16.468 6.42458 16.3552C6.48625 16.2419 6.54807 16.1307 6.6094 16.0208C6.67372 15.9123 6.73725 15.8047 6.80074 15.6975C7.05898 15.2711 7.32202 14.8555 7.59978 14.403C7.87659 13.9497 8.16087 13.4556 8.47163 12.8683C8.44928 13.0671 8.50499 12.9477 8.59065 12.7911C8.63366 12.7126 8.68417 12.6249 8.73629 12.5629C8.78903 12.5017 8.84393 12.4676 8.89255 12.4939C8.97025 12.4496 9.03943 12.4007 9.10133 12.3484C9.16288 12.296 9.21786 12.2401 9.26882 12.1829C9.37044 12.068 9.44804 11.9404 9.51795 11.8102C9.58912 11.6813 9.64971 11.5475 9.71139 11.4165C9.77399 11.2867 9.83987 11.1624 9.91617 11.0482C9.90824 11.0408 9.90297 11.0275 9.91121 10.993C10.1303 10.7641 10.3528 10.5383 10.5812 10.32C10.4829 10.6189 10.5605 10.457 10.6391 10.2873C10.6777 10.2015 10.7197 10.116 10.7376 10.0846C10.756 10.0528 10.7503 10.0754 10.6992 10.2081C11.1731 9.80846 11.6772 9.37997 12.2165 8.95184C12.7556 8.52332 13.3302 8.09485 13.9386 7.69669C14.5463 7.29813 15.1865 6.92801 15.8463 6.61173C16.5058 6.29473 17.1838 6.03282 17.8622 5.8367L17.7224 5.80874C17.8926 5.7525 18.0752 5.6968 18.2588 5.6353C18.3501 5.60381 18.4442 5.57641 18.5369 5.54783C18.6303 5.52001 18.7231 5.49177 18.8147 5.46447C19 5.41595 19.1801 5.36899 19.3502 5.33801C19.5209 5.3088 19.679 5.28804 19.8191 5.28835C19.9594 5.28972 20.1003 5.26484 20.2366 5.22568C20.3738 5.18902 20.507 5.13987 20.6294 5.08758C20.7516 5.03422 20.8651 4.98554 20.9603 4.94267C21.0558 4.90053 21.1333 4.86838 21.1863 4.85734C21.3331 4.80744 21.4803 4.78112 21.6136 4.76934C21.7469 4.7579 21.8672 4.7656 21.9602 4.77718C22.146 4.80171 22.2238 4.85158 22.0936 4.85917C22.4154 4.81025 22.7246 4.71304 23.0711 4.63749C23.2437 4.59845 23.4265 4.56974 23.6225 4.55064C23.7206 4.54162 23.8223 4.53849 23.9282 4.53819C24.034 4.53893 24.1437 4.54144 24.2583 4.55445C24.4169 4.66971 25.0368 4.60067 25.629 4.56317C26.2204 4.52316 26.7805 4.50256 26.7867 4.63569L26.7979 4.61395C27.3811 4.73748 27.9532 4.74989 28.5405 4.76899C29.1271 4.78871 29.7284 4.81714 30.3527 4.98035C30.3527 4.98035 30.3262 4.99642 30.2811 5.00893C31.1747 4.85096 32.0793 4.71171 32.9888 4.58297C32.787 4.25413 32.5835 3.92409 32.3771 3.59653C31.6521 3.24661 30.9183 2.90516 30.1713 2.5759C28.0652 2.38022 25.9247 2.28391 23.7699 2.40727C23.5547 2.4006 23.3383 2.40213 23.1223 2.40023C22.906 2.40003 22.689 2.40427 22.4721 2.40747C22.0381 2.42007 21.6025 2.43702 21.1657 2.4708C20.2927 2.53497 19.4145 2.64084 18.5393 2.80824L18.146 2.90962L17.7544 3.02121C17.6236 3.05711 17.4942 3.09903 17.3646 3.13955C17.2353 3.18113 17.1049 3.21914 16.9765 3.26497C16.4597 3.43584 15.9511 3.63624 15.4472 3.8492C15.1981 3.96133 14.947 4.06946 14.7028 4.19141L14.5186 4.28052L14.4267 4.32509L14.3359 4.3722L13.9734 4.56138C13.8523 4.62419 13.7352 4.69326 13.6159 4.75901L13.4379 4.85877C13.3783 4.89165 13.3207 4.92784 13.2623 4.96257L12.9126 5.17239L12.5693 5.39149C10.7446 6.57113 9.12922 8.02913 7.74069 9.65306L7.52115 10.066L7.46672 10.1689L7.41459 10.2731L7.31037 10.4812C6.85127 10.9131 6.41624 11.4272 6.01117 11.9921C5.6054 12.5569 5.22993 13.1725 4.88159 13.8076C4.53256 14.4427 4.20967 15.097 3.90108 15.743C3.59213 16.3893 3.29871 17.0254 2.99761 17.6341L3.13797 17.7475C3.07372 17.9256 3.01862 18.053 2.97559 18.1491C2.93222 18.2452 2.89635 18.3074 2.86527 18.3524C2.80278 18.4424 2.7595 18.4638 2.7142 18.5479C2.43191 19.3906 2.19354 20.258 2.02014 21.1474C1.84577 22.036 1.73336 22.9456 1.69899 23.8636C1.66431 24.7811 1.70796 25.7078 1.84147 26.6216C1.97432 27.5349 2.19307 28.4262 2.48169 29.2826C3.05945 30.9971 3.9108 32.5683 4.91761 33.9628C5.42115 34.6605 5.96618 35.3162 6.53784 35.9264C7.10881 36.5365 7.70593 37.1026 8.31659 37.6294C8.36855 37.6885 8.43816 37.758 8.52091 37.8347C8.60407 37.9107 8.6976 37.9974 8.80486 38.0816C8.91096 38.1672 9.02558 38.2573 9.1442 38.3493C9.17376 38.3723 9.20368 38.3953 9.23356 38.4186C9.26422 38.441 9.29488 38.4634 9.32588 38.4859C9.38755 38.5307 9.44991 38.5756 9.51192 38.6204C10.0061 38.9815 10.5056 39.3016 10.684 39.4783C10.7432 39.5067 10.8026 39.5354 10.8621 39.564C10.9215 39.5927 10.9819 39.6191 11.0418 39.6468C11.1612 39.7025 11.2813 39.7583 11.4014 39.814C11.5202 39.8721 11.6429 39.9233 11.7634 39.9784C11.8839 40.0335 12.0047 40.0883 12.1259 40.1438C12.2476 40.197 12.3697 40.2502 12.4918 40.3034C12.6135 40.3569 12.7347 40.4124 12.8581 40.4626C13.104 40.5651 13.3476 40.6735 13.5955 40.7705L13.965 40.9215C14.089 40.9693 14.213 41.0171 14.3366 41.065C14.5829 41.1639 14.8328 41.2515 15.08 41.3437C15.203 41.3911 15.3285 41.4311 15.453 41.4735C15.5776 41.5155 15.7015 41.5575 15.8254 41.5994C15.9492 41.6414 16.0724 41.6836 16.1956 41.7255C16.2567 41.7475 16.3194 41.7643 16.3812 41.7832C16.4434 41.8018 16.5053 41.82 16.5671 41.8386L16.4865 41.8351L16.9586 41.9529L17.1943 42.0117L17.3121 42.041L17.4311 42.0659C17.4676 42.0892 17.4676 42.1103 17.4338 42.1156C17.71 42.1435 18.0187 42.1985 18.3471 42.271C18.6776 42.3339 19.0298 42.4081 19.3882 42.4929C19.7489 42.5682 20.117 42.6453 20.477 42.7205L20.5445 42.7348L20.6121 42.7466C20.657 42.7545 20.7023 42.7621 20.7468 42.7699C20.8363 42.7853 20.9251 42.8006 21.0129 42.8158C21.1889 42.8453 21.3608 42.874 21.5269 42.9018L21.447 42.9115L21.6297 42.933L21.8126 42.9476C21.9345 42.9568 22.0564 42.9664 22.1783 42.9756C22.3003 42.9848 22.4219 42.9937 22.5434 43.0029L22.7258 43.0164C22.7867 43.0196 22.8475 43.0208 22.9082 43.0233C23.1513 43.031 23.3938 43.0389 23.6362 43.0466L23.8177 43.052C23.8781 43.0534 23.9388 43.0515 23.999 43.0515C24.1199 43.0503 24.2408 43.049 24.3616 43.0478C25.3276 43.0474 26.2849 42.9673 27.2325 42.8624C27.4686 42.8293 27.7047 42.7965 27.9405 42.7633C28.0581 42.7458 28.1761 42.7319 28.2933 42.7116L28.6442 42.6475C28.8778 42.6045 29.1111 42.5614 29.344 42.5182C29.5754 42.4659 29.8065 42.4136 30.0373 42.3613L30.3834 42.2826C30.498 42.2534 30.6119 42.2214 30.7263 42.1908C30.9545 42.1288 31.1827 42.0669 31.4106 42.0049C31.4677 41.9905 31.5239 41.9714 31.5803 41.9538L31.7493 41.9002L32.0871 41.7934C32.3121 41.7218 32.5375 41.653 32.7604 41.5718C32.9841 41.4956 33.206 41.4102 33.4284 41.3273C33.5394 41.2849 33.6498 41.2397 33.7603 41.196L33.9259 41.1299L34.0909 41.0604L34.4206 40.9199L34.748 40.7712C34.8576 40.7228 34.9656 40.6701 35.0739 40.6171C35.1819 40.5641 35.291 40.5136 35.3982 40.4581L35.7201 40.2912L35.8007 40.2493L35.8805 40.2053L36.04 40.1168C36.2537 40.0019 36.4622 39.8737 36.6727 39.7498C36.7769 39.6857 36.88 39.6187 36.9837 39.5531L37.1391 39.4539L37.2919 39.3496C37.3936 39.2794 37.4965 39.2116 37.5974 39.1392L37.898 38.9187L37.9729 38.8635L38.0465 38.8057L38.1935 38.6893C38.2915 38.6115 38.3907 38.5358 38.4854 38.4524L38.7724 38.2073C38.8662 38.1228 38.9585 38.0361 39.0517 37.9504C39.0978 37.9069 39.1452 37.8652 39.1904 37.8205L39.3255 37.6854L39.4607 37.55C39.5056 37.5049 39.5512 37.4599 39.5939 37.4126C39.7689 37.2267 39.9396 37.0363 40.1032 36.84C40.7599 36.0563 41.322 35.1965 41.7972 34.2964C42.2775 33.477 42.6549 32.5672 42.9418 31.6181C43.2298 30.6684 43.4307 29.6793 43.5779 28.6801C43.5954 28.5552 43.6132 28.4299 43.6308 28.3047C43.6469 28.1793 43.6627 28.0539 43.6789 27.9282C43.6937 27.8026 43.7081 27.6771 43.723 27.5509C43.7365 27.4277 43.7497 27.3044 43.7632 27.1808C43.8137 26.7108 43.8736 26.2181 43.9315 25.719C44.0477 24.7181 44.1537 23.6837 44.2297 22.6384C44.2417 22.5908 44.2511 22.5125 44.2607 22.4076C44.2656 22.3551 44.2696 22.2963 44.274 22.231C44.2776 22.1657 44.2802 22.0943 44.2829 22.0171C44.2943 21.7085 44.2923 21.3077 44.271 20.8458C44.2494 20.3838 44.2069 19.86 44.1338 19.3086C44.0612 18.7568 43.9595 18.1773 43.8305 17.6041C43.7019 17.0306 43.5456 16.4637 43.3763 15.9347C43.3329 15.8027 43.2897 15.6725 43.2476 15.5449C43.2023 15.4183 43.1578 15.2938 43.1141 15.1722C43.1032 15.1418 43.0924 15.1116 43.0815 15.0815C43.0708 15.0531 43.0601 15.0247 43.0497 14.9964C43.0286 14.9403 43.0074 14.885 42.9869 14.8303C42.9441 14.7196 42.9025 14.612 42.8622 14.5081C42.697 14.0887 42.5396 13.7234 42.4109 13.445C42.2827 13.1664 42.1834 12.9736 42.1354 12.8917L42.1347 12.8916Z" fill="#BD2B54"/>
<path d="M33.4636 4.01847L33.4934 4.03284C33.5251 3.96766 33.4687 3.96974 33.4636 4.01847Z" fill="#BD2B54"/>
<path d="M41.5727 18.1296C41.5699 18.1126 41.567 18.0961 41.5641 18.0802L41.503 18.2853L41.5727 18.1296Z" fill="#BD2B54"/>
<path d="M37.0261 9.20508C37.0995 9.29136 37.1558 9.35689 37.1977 9.4061C37.2401 9.455 37.2692 9.4863 37.2892 9.50492C37.329 9.54177 37.3305 9.52597 37.3203 9.49271C37.2671 9.43026 37.2159 9.37287 37.167 9.32367C37.1177 9.27478 37.0697 9.23502 37.0265 9.20511L37.0261 9.20508Z" fill="#BD2B54"/>
<path d="M29.566 2.67843C29.4392 2.64103 29.3971 2.64 29.4043 2.65869C29.4115 2.6767 29.4675 2.71578 29.5362 2.75888C29.6668 2.78973 29.7776 2.81622 29.8557 2.83464C29.8946 2.844 29.9257 2.85156 29.9466 2.85674C29.9675 2.86226 29.979 2.86546 29.979 2.86546C29.8417 2.80903 29.7088 2.73506 29.566 2.67843Z" fill="#BD2B54"/>
<path d="M30.3 3.91299C30.2692 3.92313 30.2388 3.9333 30.2078 3.94482C30.3524 3.97639 30.353 3.95566 30.3 3.91299Z" fill="#BD2B54"/>
<path d="M4.74963 23.31C4.76367 23.2619 4.75632 23.2359 4.74963 23.31Z" fill="#BD2B54"/>
<path d="M32.7981 37.7236C32.8118 37.7176 32.8181 37.7133 32.8315 37.7069C32.8419 37.6648 32.8526 37.6281 32.8649 37.5977L32.7981 37.7236Z" fill="#BD2B54"/>
<path d="M37.7001 34.3598C37.7111 34.3514 37.7188 34.3454 37.7295 34.3377C37.7118 34.3277 37.7008 34.3097 37.7001 34.3598Z" fill="#BD2B54"/>
<path d="M18.7381 39.7857C18.6847 39.774 18.6536 39.7761 18.6302 39.7827C18.6623 39.7811 18.695 39.7807 18.7381 39.7857Z" fill="#BD2B54"/>
<path d="M9.059 12.7345C9.059 12.7345 9.05066 12.7482 9.04465 12.7582C9.06336 12.7445 9.08106 12.7295 9.10177 12.7168L9.059 12.7345Z" fill="#BD2B54"/>
<path d="M9.02795 12.8694C8.92438 12.9649 9.01357 12.8106 9.04498 12.7578C8.91669 12.8527 8.81781 12.9713 8.74464 13.1109C8.76603 13.126 8.81748 13.0722 8.87394 13.012C8.93107 12.9522 8.99219 12.8851 9.02827 12.8694H9.02795Z" fill="#BD2B54"/>
<path d="M27.8346 5.33984L27.7691 5.35922C27.7962 5.3542 27.8162 5.34719 27.8346 5.33984Z" fill="#BD2B54"/>
<path d="M18.9576 42.3934C18.9229 42.3934 18.8838 42.39 18.8517 42.3907C18.9055 42.3997 18.9359 42.3981 18.9576 42.3934Z" fill="#BD2B54"/>
<path d="M24.4249 5.3125L24.3915 5.39569C24.4229 5.36027 24.4293 5.33455 24.4249 5.3125Z" fill="#BD2B54"/>
<path d="M32.8649 37.5986L32.8913 37.5508C32.8809 37.5638 32.8729 37.5802 32.8649 37.5986Z" fill="#BD2B54"/>
<path d="M39.9174 29.3677C39.9425 29.3704 39.9646 29.3614 39.9843 29.3497C39.9856 29.3427 39.9869 29.3373 39.9879 29.334L39.9178 29.3681L39.9174 29.3677Z" fill="#BD2B54"/>
<path d="M28.5609 4.56808C28.5605 4.57844 28.5629 4.59013 28.5686 4.60316L28.7035 4.57911C28.6391 4.56708 28.5926 4.56407 28.5612 4.56808H28.5609Z" fill="#BD2B54"/>
<path d="M40.6143 21.3066C40.6043 21.3003 40.5943 21.2819 40.5839 21.2812C40.5672 21.4209 40.5893 21.7834 40.6097 22.2498L40.7109 22.2745C40.6845 21.9501 40.6541 21.627 40.6143 21.3063V21.3066Z" fill="#BD2B54"/>
<path d="M40.03 11.8242C40.1319 12.1356 40.2255 12.4473 40.3107 12.758C39.9398 12.0951 39.5974 11.5265 39.2696 11.016C38.9409 10.5062 38.6292 10.0519 38.3035 9.6239C37.9781 9.19594 37.641 8.79204 37.2558 8.3908C36.8702 7.99023 36.4359 7.592 35.9101 7.19043L36.0491 7.25391C35.9836 7.18208 35.9078 7.13831 35.7818 7.06916C35.6555 7.00034 35.4851 6.89944 35.2245 6.72071C35.0963 6.62884 34.9409 6.52326 34.7618 6.38595C34.5794 6.25332 34.3703 6.09196 34.1211 5.90587C33.9985 5.80965 33.8611 5.71511 33.7165 5.6072C33.644 5.55341 33.5688 5.49762 33.4913 5.43982C33.4526 5.41076 33.4131 5.38103 33.373 5.35063C33.353 5.33559 33.333 5.31989 33.3122 5.30519C33.2912 5.29082 33.2701 5.27612 33.2488 5.26109C33.0784 5.14282 32.8973 5.01486 32.7035 4.87622C32.6791 4.85918 32.6551 4.84081 32.63 4.82411C32.605 4.8074 32.5796 4.79103 32.5539 4.77399C32.5028 4.74025 32.4506 4.70584 32.3979 4.67109C32.2919 4.6006 32.183 4.5281 32.0708 4.45327L32.0795 4.43489C31.9448 4.37075 31.9281 4.41018 31.6789 4.23979C31.7831 4.30962 31.8884 4.3761 31.9903 4.44893L32.2939 4.66909C32.0848 4.59358 31.8854 4.53145 31.6659 4.47298C31.557 4.44191 31.4444 4.40817 31.3258 4.36841C31.2663 4.3487 31.2055 4.32632 31.142 4.30393C31.0782 4.28289 31.0121 4.25983 30.9436 4.23478C30.837 4.16829 30.8123 4.11418 30.813 4.07943C30.7004 4.03834 30.5884 3.99591 30.4755 3.95616L30.1338 3.84524C30.0198 3.80882 29.9062 3.77074 29.792 3.73599L29.4469 3.63844C29.3193 3.55458 29.192 3.46639 29.0607 3.38855C28.8382 3.36549 28.7583 3.43364 28.598 3.45135C28.5181 3.45903 28.4172 3.45971 28.2679 3.43031C28.1186 3.40191 27.9218 3.3401 27.6428 3.24856C27.8393 3.38486 27.6913 3.38486 27.5115 3.36649C27.4213 3.3578 27.3234 3.3421 27.2546 3.3411C27.1861 3.33943 27.148 3.34678 27.1791 3.37651C27.126 3.34377 27.001 3.28698 26.9008 3.2372C26.8581 3.23152 26.8129 3.22584 26.7662 3.2195C26.7191 3.21482 26.6696 3.20981 26.6188 3.20446C26.5173 3.19478 26.4094 3.18441 26.2981 3.17372C26.1869 3.16403 26.0716 3.15836 25.9567 3.15134C25.8992 3.14833 25.8414 3.14499 25.7843 3.14199C25.7268 3.14065 25.67 3.13898 25.6136 3.13765C25.1632 3.12428 24.7587 3.149 24.5986 3.19143C24.5986 3.19143 24.6401 3.19945 24.7139 3.21381C24.7877 3.22884 24.894 3.24756 25.0229 3.27696C25.1519 3.30602 25.3042 3.3371 25.4689 3.38019C25.5515 3.40091 25.6373 3.42262 25.7255 3.44467C25.8137 3.46806 25.9036 3.49411 25.9951 3.51984C26.1779 3.56962 26.3639 3.62975 26.5457 3.68855C26.5911 3.70325 26.6362 3.71795 26.681 3.73265C26.7254 3.74868 26.7695 3.76439 26.8133 3.78009C26.9001 3.81183 26.9853 3.84323 27.0675 3.87329C27.1083 3.88866 27.1484 3.9037 27.1878 3.9184C27.2269 3.93377 27.265 3.95013 27.3017 3.9655C27.3756 3.99657 27.4454 4.02631 27.5102 4.05471C27.6395 4.1115 27.7477 4.16128 27.8266 4.20738C27.715 4.17364 27.6261 4.15326 27.5583 4.13656C27.4901 4.12019 27.4424 4.10983 27.4113 4.10382C27.3485 4.09213 27.3515 4.09947 27.3876 4.11684C27.4601 4.15259 27.6659 4.22676 27.7477 4.27888L27.8179 4.24614C28.0835 4.33233 28.2091 4.40215 28.2993 4.4673C28.3895 4.53311 28.4463 4.58824 28.5742 4.64003C28.5769 4.63067 28.5719 4.61731 28.5676 4.60361L28.5295 4.60995C28.5098 4.58256 28.5285 4.5722 28.5602 4.56853C28.5602 4.5418 28.5903 4.52877 28.7339 4.57487L28.7029 4.57955C28.7597 4.59091 28.8265 4.60461 28.896 4.62565C28.9655 4.64637 29.0386 4.67009 29.1098 4.69381C29.2521 4.74158 29.3867 4.79003 29.4683 4.81976L29.4399 4.91665C29.5508 4.90462 29.7629 4.97277 30.0252 5.08435C30.1558 5.14148 30.2958 5.21665 30.4431 5.29449C30.5166 5.33392 30.5914 5.37501 30.6673 5.41677C30.7421 5.46054 30.8166 5.50797 30.8915 5.55408C31.0408 5.64829 31.1911 5.7405 31.3325 5.83572C31.4721 5.93327 31.6064 6.02748 31.73 6.11401C31.7915 6.15643 31.8506 6.1972 31.9057 6.23528C31.9599 6.27571 32.0106 6.31312 32.0574 6.3472C32.1513 6.41501 32.2295 6.46814 32.2879 6.50121C32.4951 6.68195 32.75 6.83897 33.0293 6.99198C33.1699 7.06682 33.3096 7.15167 33.4492 7.24054C33.484 7.26292 33.519 7.28531 33.5534 7.30869C33.5875 7.33275 33.6213 7.35713 33.6547 7.38219C33.7215 7.4323 33.7873 7.48443 33.8511 7.53955C34.2717 7.87063 34.3489 7.98789 34.375 8.06206C34.3997 8.13756 34.3703 8.17598 34.5453 8.3791C34.6626 8.49637 34.7177 8.54581 34.7398 8.55483C34.7622 8.56352 34.7511 8.53178 34.7324 8.48969C34.695 8.40583 34.6215 8.28589 34.7268 8.36841C34.813 8.47231 34.8965 8.57855 34.9807 8.68279L35.2255 9.00217C34.8788 8.70016 35.0221 8.91397 35.0568 8.99883C35.3004 9.23603 35.577 9.57746 35.8152 9.87012C36.0547 10.1621 36.2636 10.4003 36.4075 10.416C36.6658 10.7979 36.766 11.0094 36.8395 11.1584C36.8763 11.2329 36.9027 11.2947 36.9357 11.3565C36.9681 11.4186 37.0069 11.4807 37.0607 11.5623C37.0156 11.4343 36.8866 11.2061 36.9184 11.1797C37.0637 11.5269 37.04 11.308 36.9668 11.1751C37.1716 11.3718 37.521 12.0196 37.8 12.6313C38.084 13.2414 38.3101 13.8137 38.4361 13.816L38.4004 13.8344C38.6058 13.8765 38.6526 13.6132 38.9132 13.9289L38.965 14.2005C39.0445 14.3108 39.1237 14.422 39.2028 14.5343C39.2703 14.8039 39.1734 14.701 39.1554 14.7093C39.5028 15.2646 39.7598 16.1379 39.9732 16.8872C40.0314 16.5792 40.0815 16.2665 40.1226 15.9498C40.1951 16.2836 40.2689 16.7556 40.3397 17.1532C40.3564 17.2531 40.3738 17.348 40.3918 17.4351C40.4105 17.522 40.4256 17.6025 40.444 17.671C40.4797 17.8083 40.5191 17.9015 40.5612 17.9252C40.5435 18.0679 40.5285 18.2085 40.5084 18.3495C40.5124 18.6896 40.5261 18.9138 40.5539 19.0685C40.5786 19.2235 40.6163 19.309 40.6558 19.3692C40.7339 19.4894 40.8185 19.5091 40.8178 19.7791L40.7834 20.1222L40.743 20.4633L40.7035 20.1342L40.6584 19.8061C40.6648 20.1399 40.6594 20.3734 40.6461 20.5906C40.6327 20.8074 40.6117 21.0078 40.5796 21.2731C40.5813 21.2731 40.5829 21.2788 40.5843 21.2785C40.5883 21.2417 40.5943 21.218 40.604 21.2123L40.6147 21.3039C40.7019 21.3767 40.7864 21.7171 40.7991 22.1858C40.8001 22.5186 40.8308 22.8149 40.8388 23.163C40.8465 23.5111 40.8298 23.9107 40.7306 24.4493L40.8916 24.7239L40.7713 25.5447L40.6377 25.5421C40.6441 25.3396 40.6484 25.0904 40.6518 24.8208C40.6551 24.5505 40.6561 24.2572 40.6548 23.9588C40.6531 23.6605 40.6474 23.3571 40.6397 23.0658C40.6314 22.7748 40.6204 22.4962 40.6093 22.247L40.5478 22.2316C40.5595 22.5263 40.5803 22.842 40.5956 23.1346C40.6103 23.4273 40.6197 23.6962 40.6103 23.8947C40.5816 24.0874 40.4313 24.5819 40.3491 24.2194L40.4713 24.5956C40.462 25.1044 40.4546 25.4869 40.449 25.8077C40.4389 26.1184 40.4266 26.3689 40.4035 26.6205C40.3811 26.872 40.3504 27.1253 40.301 27.44C40.2512 27.7544 40.1837 28.1312 40.0714 28.622C40.1022 28.5679 40.1339 28.5137 40.1633 28.4589C40.1476 28.8609 40.1112 29.2598 39.9839 29.3476C39.9211 29.6406 39.8469 29.9329 39.7624 30.2152C39.6762 30.4965 39.5803 30.7681 39.4768 31.021C39.2673 31.5258 39.0274 31.9541 38.7983 32.2528C38.8236 32.3233 38.8477 32.3938 38.8721 32.4653C38.818 32.5739 38.693 32.6798 38.6042 32.784C38.5109 32.8859 38.4535 32.9875 38.5196 33.0914C38.4869 33.1706 38.4551 33.2507 38.4217 33.3302L38.3175 33.5664C38.2701 33.6333 38.2323 33.6967 38.1982 33.7589C38.1648 33.8217 38.1304 33.8795 38.0953 33.9393C38.0776 33.969 38.0593 33.9984 38.0392 34.0282C38.0192 34.0579 37.9965 34.0863 37.9721 34.1157C37.9473 34.1451 37.9206 34.1745 37.8909 34.2042C37.8758 34.2189 37.8605 34.2339 37.8438 34.249C37.8264 34.2633 37.8083 34.278 37.7896 34.2924L37.788 34.2937C37.7693 34.3081 37.7496 34.3231 37.7295 34.3368C37.7332 34.3398 37.7379 34.3408 37.7422 34.3418C37.6129 34.4745 37.5578 34.5466 37.5314 34.5867C37.5067 34.6278 37.518 34.6405 37.5264 34.6556C37.5351 34.6706 37.5408 34.6876 37.505 34.7374C37.4679 34.7862 37.3951 34.873 37.2287 35.0107C37.0928 35.0708 37.08 35.1624 37.0523 35.2693C37.0393 35.3234 37.0243 35.3825 36.9918 35.4453C36.9588 35.5075 36.9113 35.5763 36.8245 35.6401L36.59 35.6992L36.474 35.728L36.3561 35.7534C36.2722 35.8025 36.2001 35.8489 36.1359 35.8947C36.1038 35.9177 36.0731 35.9398 36.0437 35.9612C36.0143 35.9829 35.9863 36.0046 35.9599 36.0263C35.8533 36.1132 35.7674 36.203 35.6692 36.2973C35.572 36.3928 35.4701 36.5004 35.3278 36.6183C35.2927 36.648 35.2553 36.6791 35.2155 36.7112C35.1758 36.7436 35.1337 36.7767 35.0869 36.8094C34.994 36.8756 34.8901 36.9477 34.7695 37.0235C34.6412 37.077 34.5253 37.1154 34.4267 37.1375C34.3285 37.1595 34.2453 37.1619 34.1872 37.1495C34.0703 37.1241 34.0479 37.0322 34.1595 36.8709C33.9985 37.081 33.9654 37.1388 33.9089 37.1939C33.8505 37.2474 33.7703 37.3005 33.5003 37.4973C33.37 37.4669 33.4265 37.4201 33.5194 37.2855C32.9551 37.4602 33.2347 37.5187 32.8322 37.7054C32.8201 37.7555 32.8094 37.8117 32.7977 37.8688C32.7857 37.9256 32.773 37.9831 32.758 38.0365C32.7276 38.1437 32.6865 38.2349 32.6214 38.27L32.8024 38.2433C32.752 38.2777 32.7005 38.3118 32.6481 38.3455C32.5956 38.3793 32.5422 38.4127 32.4864 38.4427C32.3751 38.5042 32.2599 38.5634 32.1403 38.6185C32.0207 38.6736 31.8967 38.7251 31.7681 38.7715C31.736 38.7832 31.7036 38.7945 31.6709 38.8052C31.6378 38.8149 31.6041 38.8239 31.5703 38.833C31.5028 38.8507 31.4343 38.867 31.3645 38.8814L31.3562 38.7985L30.8086 39.0418L30.7398 38.9572C30.4742 39.0561 30.2063 39.1497 29.939 39.2469L30.0586 39.2382C30.0118 39.2566 29.9383 39.285 29.8484 39.3184C29.8037 39.3361 29.7536 39.3505 29.7011 39.3668C29.6483 39.3825 29.5932 39.3992 29.5364 39.4159C29.3089 39.4817 29.058 39.5456 28.8702 39.5693L28.8696 39.5101C28.601 39.5275 28.3507 39.5643 28.1072 39.6177C28.0464 39.6311 27.9856 39.6451 27.9255 39.6601C27.8653 39.6755 27.8042 39.6865 27.7437 39.7012C27.6224 39.7293 27.5015 39.76 27.3789 39.7928C27.2566 39.8255 27.133 39.8599 27.0067 39.8953C26.9439 39.9144 26.8791 39.9274 26.8143 39.9431C26.7491 39.9582 26.6833 39.9735 26.6165 39.9889C26.4829 40.0193 26.3456 40.0494 26.2029 40.0781C26.1317 40.0921 26.0593 40.1071 25.9851 40.1195C25.9109 40.1299 25.8351 40.1399 25.7579 40.1489L25.9062 40.016C25.4736 39.9441 25.8117 40.2067 25.3026 40.2014L25.2638 40.061C25.1582 40.1188 25.0694 40.1516 24.9905 40.1609C24.9117 40.17 24.8432 40.1609 24.779 40.1439C24.6501 40.1095 24.5368 40.0413 24.3835 40.0156L24.5372 40.1944L24.2489 40.193C24.1526 40.192 24.0567 40.194 23.9609 40.188C23.3258 40.1402 23.5683 39.9595 23.6559 39.8586L23.2322 40.0173L23.1477 39.8533C23.0705 39.9047 23.0121 39.9234 22.9596 39.9308C22.9072 39.9378 22.8611 39.9301 22.8076 39.9197C22.7004 39.899 22.5654 39.8666 22.2914 39.9141C22.2487 39.8506 22.387 39.8165 22.2033 39.7871C22.1281 39.8068 22.0529 39.8202 21.9774 39.8359L21.7506 39.8813L21.2935 39.9725L21.8424 39.8997L21.7639 40.1386C21.4739 40.2134 21.2795 40.1984 21.1085 40.1643C20.9374 40.1262 20.7891 40.0754 20.5829 40.0894L20.8692 40.045C20.5358 40.0417 20.3624 40.0139 20.2275 39.9755C20.0928 39.9341 19.9966 39.8786 19.8155 39.8269C19.9238 39.8877 20.0918 39.9789 19.8209 39.9729C19.6234 39.9588 19.7263 39.8733 19.5459 39.8212C19.5122 39.8977 19.3735 39.9425 19.1911 39.9471C19.0097 39.9465 18.7842 39.9077 18.5781 39.8312C18.5878 39.8095 18.6008 39.7894 18.6312 39.7801C18.5179 39.7861 18.4535 39.8168 18.2717 39.744L18.4184 39.588C18.2864 39.6244 18.1558 39.6491 18.0235 39.6789C17.7947 39.5763 17.4135 39.6241 17.4736 39.5135L17.6183 39.5091L17.3928 39.4527C17.3176 39.434 17.2434 39.4106 17.1689 39.3899L16.9454 39.3257C16.8709 39.304 16.7961 39.284 16.7226 39.2596L16.2799 39.1199C16.1329 39.0715 15.9876 39.0194 15.8413 38.9696L15.8613 38.8249C15.743 38.8938 15.5115 38.7912 15.3071 38.707C15.2559 38.6856 15.2065 38.6662 15.1611 38.6489C15.116 38.6312 15.0745 38.6175 15.0391 38.6105C14.9683 38.5964 14.9202 38.6098 14.9125 38.6729C14.8427 38.6101 14.7254 38.555 14.5938 38.5022C14.4635 38.4468 14.3182 38.395 14.1905 38.3455C14.0623 38.2978 13.9547 38.245 13.8962 38.1982C13.8381 38.1508 13.8304 38.106 13.9052 38.0629C13.8371 38.0311 13.7706 38.0014 13.7051 37.973C13.6724 37.959 13.64 37.9453 13.6079 37.9316C13.5762 37.9176 13.5448 37.9035 13.514 37.8898C13.3897 37.8357 13.2691 37.7869 13.1509 37.7412C13.0911 37.7191 13.0339 37.6947 12.9761 37.6713C12.9183 37.6483 12.8612 37.6252 12.8041 37.6025C12.6902 37.5564 12.5739 37.5147 12.461 37.4632C12.3471 37.4134 12.2315 37.3616 12.1125 37.3059C12.0527 37.2788 11.9936 37.2477 11.9338 37.2153C11.8737 37.1829 11.8129 37.1495 11.7507 37.1141C11.6886 37.0787 11.6254 37.0416 11.561 37.0028C11.4972 36.9627 11.4333 36.919 11.3672 36.8736C11.3014 36.8281 11.2342 36.78 11.1654 36.7296C11.0959 36.6801 11.0274 36.6243 10.9573 36.5655C10.8093 36.3216 10.4368 36.0176 10.0329 35.6755C9.98175 35.6334 9.92996 35.591 9.87785 35.5482C9.82506 35.5061 9.77528 35.4604 9.72349 35.4166C9.62026 35.3284 9.5167 35.2402 9.41481 35.1533C9.21903 34.9723 9.02291 34.8029 8.86756 34.6352C8.78337 34.5613 8.70087 34.4895 8.62002 34.4187C8.54184 34.3452 8.46532 34.273 8.39016 34.2022C8.3524 34.1668 8.31499 34.1317 8.27791 34.097C8.2592 34.0796 8.24083 34.0622 8.22246 34.0449C8.20475 34.0268 8.18704 34.0091 8.16967 33.9914C8.09918 33.9202 8.02968 33.8501 7.9612 33.7809C7.82088 33.6449 7.6966 33.5013 7.56798 33.364C7.5359 33.3292 7.50417 33.2948 7.47243 33.2604C7.44136 33.2257 7.41163 33.1896 7.38123 33.1542C7.32076 33.083 7.26063 33.0122 7.20016 32.9414C6.96095 32.6557 6.7341 32.3584 6.50726 32.034C6.44779 31.9545 6.39567 31.8689 6.33955 31.7841C6.28409 31.6986 6.22729 31.6117 6.16983 31.5228C6.11437 31.433 6.06126 31.3398 6.00513 31.2452C5.9774 31.1978 5.949 31.15 5.9206 31.1016C5.90657 31.0772 5.89221 31.0528 5.87785 31.0284C5.86448 31.0033 5.85145 30.9783 5.83809 30.9529C5.81571 30.8099 5.77929 30.6662 5.73185 30.5209C5.68942 30.3736 5.63831 30.2242 5.57784 30.0739C5.5461 29.9991 5.52004 29.9216 5.48931 29.8444C5.45924 29.7672 5.4275 29.6897 5.39476 29.6115C5.37872 29.5725 5.36101 29.5337 5.34497 29.4943C5.32961 29.4545 5.31458 29.4148 5.29922 29.375C5.26748 29.2955 5.23574 29.2157 5.204 29.1355L5.15522 29.0152L5.11213 28.8933C5.08339 28.8117 5.05499 28.7306 5.0266 28.6494C5.01257 28.6086 4.99853 28.5682 4.98449 28.5278C4.9708 28.4873 4.96045 28.4459 4.94843 28.4052C4.92538 28.3233 4.90331 28.2421 4.88226 28.1613C4.83649 28.0002 4.81112 27.8375 4.7884 27.6802C4.77838 27.6014 4.76635 27.5242 4.76334 27.4467C4.76034 27.3695 4.75932 27.2937 4.76099 27.2192L4.67413 27.0678L4.6307 26.9917C4.61667 26.9659 4.60398 26.9402 4.59028 26.9141C4.60732 26.8129 4.61634 26.7067 4.61935 26.5954C4.62169 26.54 4.61935 26.4835 4.62136 26.4254C4.62269 26.3672 4.62269 26.3078 4.62136 26.2476C4.61334 26.0061 4.60465 25.7465 4.59563 25.4769C4.58561 24.9363 4.60732 24.3464 4.77036 23.7995C4.74797 23.5195 4.74764 23.3725 4.75165 23.308C4.73862 23.3578 4.70453 23.432 4.61901 23.4453C4.63137 23.4059 4.64207 23.3615 4.65209 23.3134C4.66278 23.2656 4.67414 23.2141 4.68416 23.1617C4.70454 23.0568 4.72358 22.9472 4.74362 22.8497C4.76233 22.7521 4.78973 22.6669 4.81713 22.6108C4.84552 22.5547 4.87759 22.5279 4.91601 22.547L4.91768 22.6312C4.95643 22.6502 4.98216 22.5988 5.00254 22.5056C5.02325 22.4123 5.03562 22.2774 5.058 22.13C5.07938 21.9827 5.09909 21.8217 5.13384 21.6784C5.16892 21.535 5.21168 21.4084 5.26814 21.3292L5.04798 21.4806L5.13617 21.1826L5.23173 20.8862L5.22137 21.0556C5.23139 20.9711 5.24208 20.8882 5.2531 20.8064C5.26412 20.7249 5.2755 20.6447 5.2902 20.5662C5.31826 20.4092 5.34766 20.2578 5.37939 20.1112C5.41414 19.9652 5.44988 19.8242 5.48696 19.6875C5.505 19.6191 5.52471 19.5519 5.54542 19.4861C5.56647 19.4203 5.58685 19.3555 5.60723 19.2913C5.62828 19.2275 5.64866 19.164 5.67071 19.1019C5.69342 19.0401 5.71615 18.979 5.73853 18.9185C5.78464 18.7979 5.82874 18.6789 5.87851 18.564C5.92729 18.4488 5.97641 18.3355 6.02518 18.2236C6.07697 18.1127 6.12808 18.0028 6.17919 17.8932C6.38799 17.4569 6.60248 17.0306 6.82766 16.5672C7.05183 16.1032 7.27932 15.599 7.52354 15.0023C7.52087 15.1964 7.5633 15.0758 7.63112 14.9161C7.6652 14.8363 7.70563 14.7468 7.75006 14.6819C7.79516 14.6178 7.84493 14.5797 7.89438 14.6004C7.9652 14.5503 8.02735 14.4965 8.08214 14.4401C8.13659 14.3836 8.18437 14.3245 8.22814 14.2643C8.31533 14.1437 8.37813 14.0131 8.43325 13.8808C8.48971 13.7495 8.53549 13.6145 8.5826 13.4823C8.63071 13.351 8.68249 13.2247 8.7453 13.1071C8.73695 13.1011 8.73059 13.0884 8.73527 13.0543C8.92503 12.8124 9.11847 12.5732 9.31825 12.3407C9.25177 12.6387 9.31124 12.475 9.37104 12.3036C9.40011 12.2171 9.43251 12.1305 9.44688 12.0985C9.46158 12.0661 9.45823 12.0884 9.42148 12.2214C9.84109 11.7904 10.2871 11.3287 10.7672 10.864C11.2469 10.399 11.7611 9.93059 12.3106 9.48826C12.8595 9.0456 13.4425 8.62733 14.0496 8.25916C14.6563 7.89033 15.286 7.57296 15.9225 7.31905L15.7848 7.30536C15.9438 7.23487 16.1149 7.1637 16.2863 7.08686C16.3715 7.04778 16.4596 7.01236 16.5465 6.97595C16.634 6.9402 16.7209 6.90412 16.8068 6.86904C16.9812 6.80456 17.1505 6.74209 17.3119 6.69599C17.4739 6.65155 17.6246 6.61647 17.7599 6.60344C17.8956 6.59142 18.0292 6.554 18.1571 6.50322C18.2861 6.45478 18.41 6.39464 18.5233 6.3325C18.6362 6.26936 18.7411 6.21156 18.829 6.16112C18.9172 6.11134 18.989 6.07291 19.0391 6.05721C19.1761 5.99507 19.3157 5.95565 19.4434 5.9316C19.571 5.90788 19.6879 5.90387 19.7788 5.90621C19.9605 5.91222 20.0404 5.95298 19.9154 5.97269C20.2215 5.89485 20.5108 5.77157 20.8382 5.666C21.0012 5.61188 21.1749 5.56677 21.3623 5.52969C21.4562 5.51165 21.5541 5.49896 21.6563 5.4886C21.7586 5.47924 21.8648 5.47123 21.9767 5.4729C22.1408 5.56911 22.7328 5.4435 23.301 5.35096C23.8683 5.25608 24.4072 5.18291 24.4259 5.31086L24.4346 5.28882C25.0095 5.35263 25.5631 5.3102 26.1321 5.27278C26.7004 5.23603 27.2837 5.2063 27.9021 5.30452C27.9021 5.30452 27.878 5.32256 27.8356 5.33893C28.6835 5.10139 29.5438 4.8809 30.4097 4.67009C30.1835 4.37175 29.9557 4.07241 29.7252 3.77574C28.9919 3.50681 28.2508 3.24689 27.4982 3C25.4459 3.01136 23.3699 3.12194 21.3009 3.44601C21.0924 3.46004 20.8836 3.48208 20.6748 3.50079C20.466 3.52117 20.2569 3.5459 20.0477 3.56962C19.6298 3.62307 19.2108 3.68087 18.7922 3.75504C17.9554 3.90003 17.1175 4.08578 16.2883 4.33066L15.9181 4.46597L15.5506 4.61096C15.4277 4.65806 15.3067 4.71085 15.1855 4.7623C15.0645 4.81475 14.9422 4.86386 14.8226 4.92032C14.3399 5.13413 13.8678 5.37635 13.4014 5.62992C13.1716 5.76188 12.9394 5.89017 12.7152 6.03115L12.5458 6.13506L12.4613 6.18683L12.3781 6.24096L12.0461 6.45811C11.9351 6.53028 11.8286 6.60812 11.7197 6.68295L11.5573 6.79621C11.5028 6.83363 11.4507 6.87405 11.3976 6.91314L11.0799 7.149L10.7692 7.39322C9.11948 8.70584 7.69827 10.2673 6.51194 11.9675L6.33922 12.3871L6.29645 12.4917L6.25602 12.5973L6.17518 12.8081C5.77294 13.2688 5.40177 13.8066 5.06435 14.3906C4.72625 14.9746 4.42223 15.6047 4.14628 16.2511C3.86966 16.8976 3.62009 17.5601 3.38356 18.2132C3.1467 18.8667 2.92386 19.5088 2.691 20.1252L2.83733 20.2214C2.79223 20.3995 2.75114 20.5278 2.71874 20.6247C2.686 20.7215 2.65727 20.785 2.63154 20.8315C2.57976 20.9243 2.54 20.9491 2.50426 21.0346C2.31182 21.8751 2.16415 22.7354 2.0813 23.6107C1.99744 24.4853 1.9754 25.3743 2.02952 26.264C2.08331 27.1533 2.21359 28.044 2.42941 28.9136C2.64456 29.7829 2.94057 30.6228 3.30071 31.4223C4.02166 33.0229 4.99318 34.4591 6.098 35.7099C6.65058 36.3357 7.23923 36.917 7.84927 37.4519C8.45864 37.9867 9.08907 38.4765 9.72884 38.9272C9.78464 38.9793 9.85846 39.0398 9.94566 39.1059C10.0332 39.1714 10.1317 39.2462 10.2433 39.3174C10.3539 39.3899 10.4732 39.466 10.5965 39.5436C10.6272 39.5629 10.6583 39.5823 10.6893 39.602C10.7211 39.6207 10.7528 39.6394 10.7849 39.6581C10.8487 39.6956 10.9132 39.733 10.9773 39.7704C11.4888 40.0721 12.0016 40.3337 12.1907 40.4873C12.2505 40.5091 12.3107 40.5311 12.3708 40.5532C12.4309 40.5752 12.4917 40.5949 12.5522 40.616C12.6728 40.6584 12.7941 40.7008 12.9153 40.7433C13.0356 40.788 13.1589 40.8258 13.2805 40.8675C13.4021 40.9093 13.524 40.9507 13.6463 40.9928C13.7689 41.0326 13.8919 41.0723 14.0148 41.1121C14.1374 41.1522 14.2597 41.1943 14.3837 41.231C14.6309 41.3065 14.8764 41.388 15.125 41.4582L15.4962 41.5688C15.6204 41.6032 15.7447 41.6376 15.8687 41.672C16.1159 41.7442 16.3654 41.805 16.613 41.8705C16.7363 41.9045 16.8612 41.9313 16.9855 41.9603C17.1098 41.9891 17.2334 42.0178 17.357 42.0465C17.4806 42.0753 17.6036 42.1043 17.7265 42.133C17.7876 42.1484 17.8498 42.1588 17.9113 42.1711C17.9731 42.1832 18.0345 42.1948 18.096 42.2069L18.0178 42.2112L18.4849 42.2801L18.7181 42.3145L18.8347 42.3315L18.9519 42.3442C18.9893 42.3632 18.9914 42.3836 18.9593 42.392C19.2286 42.3926 19.5319 42.4164 19.856 42.4551C20.181 42.4845 20.5281 42.5226 20.8823 42.5704C21.2377 42.6088 21.6005 42.6482 21.9553 42.6866L22.0218 42.694L22.0883 42.699C22.1324 42.7023 22.1769 42.7053 22.2206 42.7087C22.3085 42.715 22.3957 42.7214 22.4819 42.7277C22.6546 42.7394 22.8233 42.7508 22.9863 42.7618L22.9102 42.7788L23.0886 42.7822L23.2666 42.7788C23.3852 42.7762 23.5038 42.7738 23.6224 42.7711C23.741 42.7685 23.8593 42.7655 23.9776 42.7628L24.155 42.7585C24.2141 42.7558 24.2729 42.7511 24.3317 42.7478C24.5672 42.7321 24.8021 42.7167 25.037 42.701L25.2127 42.689C25.2711 42.6846 25.3296 42.6769 25.3877 42.6713C25.5043 42.6586 25.6209 42.6459 25.7375 42.6332C26.6703 42.541 27.587 42.3726 28.4921 42.1811C28.7169 42.1267 28.9417 42.0726 29.1662 42.0181C29.2782 41.9901 29.3907 41.9653 29.502 41.9346L29.8347 41.8394C30.0562 41.7756 30.2774 41.7118 30.4982 41.6479C30.7167 41.5755 30.9349 41.503 31.1527 41.4305L31.4794 41.3215C31.5874 41.2825 31.6943 41.2407 31.8018 41.2003C32.0163 41.1188 32.2308 41.0373 32.4449 40.9557C32.4987 40.9364 32.5512 40.9126 32.604 40.8903L32.762 40.8224L33.078 40.6871C33.2885 40.5966 33.4997 40.5087 33.7071 40.4092C33.9159 40.3143 34.1221 40.2107 34.3289 40.1095C34.4321 40.058 34.5343 40.0039 34.6369 39.9511L34.7906 39.8716L34.9432 39.7888L35.2483 39.6217L35.5503 39.447C35.6515 39.3899 35.7507 39.3287 35.8503 39.2673C35.9495 39.2058 36.0501 39.1467 36.1483 39.0829L36.4433 38.8911L36.5171 38.843L36.59 38.7929L36.7356 38.6923C36.931 38.561 37.1201 38.4174 37.3116 38.2777C37.4061 38.2059 37.4993 38.1314 37.5932 38.0582L37.7338 37.9476L37.8715 37.8324C37.963 37.7549 38.0559 37.6797 38.1464 37.6002L38.4157 37.3586L38.4829 37.2982L38.5484 37.2354L38.6793 37.1091C38.7665 37.0246 38.855 36.942 38.9386 36.8525L39.1925 36.5886C39.275 36.498 39.3558 36.4055 39.4377 36.314C39.4781 36.2675 39.5199 36.2227 39.5593 36.1753L39.6769 36.032L39.7945 35.8883C39.8336 35.8406 39.8733 35.7928 39.9101 35.743C40.0614 35.5469 40.2081 35.3468 40.3474 35.1416C40.907 34.3225 41.368 33.4388 41.7412 32.5244C42.1271 31.6875 42.405 30.7732 42.5918 29.8294C42.7795 28.8849 42.8794 27.9107 42.9265 26.9318C42.9316 26.8096 42.9369 26.687 42.9419 26.5644C42.9456 26.4417 42.9489 26.3191 42.9526 26.1962C42.9549 26.0736 42.9569 25.9506 42.9593 25.8277C42.9606 25.7074 42.9616 25.5872 42.9629 25.4666C42.967 25.0079 42.978 24.5264 42.9863 24.039C43.0034 23.0615 43.0074 22.0525 42.9813 21.0359C42.9883 20.9888 42.99 20.9123 42.9893 20.8101C42.9887 20.759 42.9873 20.7018 42.9853 20.6384C42.9827 20.5749 42.9783 20.5057 42.9737 20.4309C42.9553 20.1319 42.9152 19.745 42.8507 19.301C42.7859 18.857 42.695 18.3552 42.5721 17.8297C42.4495 17.3038 42.2961 16.7539 42.1171 16.2127C41.9383 15.6712 41.7335 15.1386 41.5197 14.6439C41.4653 14.5206 41.4111 14.399 41.3583 14.2797C41.3026 14.1618 41.2478 14.0459 41.194 13.9326C41.1806 13.9042 41.1672 13.8761 41.1539 13.8481C41.1409 13.8217 41.1278 13.7953 41.1151 13.7689C41.0894 13.7168 41.0637 13.6653 41.0386 13.6145C40.9868 13.5116 40.9364 13.4118 40.8876 13.3152C40.6882 12.926 40.5014 12.5882 40.3507 12.3317C40.2004 12.0748 40.0861 11.898 40.032 11.8235L40.03 11.8242Z" fill="#BD2B54"/>
<path d="M30.8133 4.07994L30.8434 4.09096C30.8677 4.02515 30.8136 4.0325 30.8133 4.07994Z" fill="#BD2B54"/>
<path d="M39.9856 16.9354C39.9813 16.9194 39.9769 16.9037 39.9726 16.8887L39.9331 17.0921L39.9856 16.9354Z" fill="#BD2B54"/>
<path d="M34.7465 8.75195C34.8253 8.82812 34.8858 8.88592 34.9309 8.92935C34.9763 8.97245 35.0074 8.99985 35.0284 9.01589C35.0702 9.04762 35.0702 9.03226 35.0572 9.00119C35 8.94606 34.9452 8.89561 34.8935 8.85285C34.8413 8.81042 34.7912 8.77668 34.7468 8.75195H34.7465Z" fill="#BD2B54"/>
<path d="M26.9222 3.15604C26.7963 3.13199 26.7555 3.135 26.7642 3.15237C26.7729 3.16908 26.8307 3.20148 26.9011 3.23656C27.0301 3.25394 27.1397 3.26896 27.2169 3.27932C27.2553 3.28466 27.286 3.28901 27.3067 3.29202C27.3274 3.29536 27.3388 3.29736 27.3388 3.29736C27.2008 3.25593 27.0655 3.19714 26.9222 3.15604Z" fill="#BD2B54"/>
<path d="M27.7484 4.2793C27.7197 4.29199 27.6913 4.30469 27.6625 4.31872C27.8048 4.33542 27.8035 4.31538 27.7484 4.2793Z" fill="#BD2B54"/>
<path d="M18.0061 15.0477C18.0323 15.0316 18.0261 15.0419 18.0061 15.0477Z" fill="#EFDFC8"/>
<path d="M15.6345 28.7012C15.6381 28.7065 15.6408 28.7085 15.6448 28.7135C15.6679 28.7105 15.6883 28.7082 15.7053 28.7085L15.6348 28.7012H15.6345Z" fill="#EFDFC8"/>
<path d="M17.3754 30.6997C17.3786 30.7051 17.3809 30.7087 17.3841 30.7139C17.3905 30.7042 17.4006 30.6974 17.3754 30.6997Z" fill="#EFDFC8"/>
<path d="M13.1422 23.2384C13.1412 23.2157 13.1352 23.2037 13.1278 23.1953C13.1335 23.2077 13.1385 23.2207 13.1422 23.2384Z" fill="#EFDFC8"/>
<path d="M22.709 13.7188C22.709 13.7188 22.7024 13.7204 22.6973 13.7214C22.707 13.7248 22.7171 13.7268 22.7274 13.7311L22.709 13.7188Z" fill="#EFDFC8"/>
<path d="M22.6576 13.7582C22.5968 13.7482 22.6716 13.7285 22.6977 13.7225C22.6295 13.7004 22.563 13.7037 22.4972 13.7215C22.5006 13.7522 22.6262 13.7378 22.6576 13.7582Z" fill="#EFDFC8"/>
<path d="M30.5193 16.8119L30.4919 16.7988C30.5019 16.8055 30.5106 16.8088 30.5193 16.8119Z" fill="#EFDFC8"/>
<path d="M11.6682 23.6971C11.6635 23.6824 11.6599 23.6657 11.6548 23.6523C11.6572 23.6761 11.6622 23.6888 11.6682 23.6971Z" fill="#EFDFC8"/>
<path d="M29.5698 15.7305L29.5244 15.7542C29.5484 15.7495 29.5615 15.7408 29.5698 15.7305Z" fill="#EFDFC8"/>
<path d="M15.7053 28.709L15.7323 28.712C15.725 28.7096 15.7156 28.709 15.7053 28.709Z" fill="#EFDFC8"/>
<path d="M19.3812 32.1172C19.3749 32.1309 19.3739 32.1439 19.3749 32.1563C19.3775 32.1576 19.3795 32.159 19.3809 32.16V32.1172H19.3812Z" fill="#EFDFC8"/>
<path d="M31.3117 31.5051C31.3067 31.5014 31.3007 31.4981 31.2933 31.4961L31.2783 31.5572C31.2967 31.5362 31.3074 31.5188 31.3117 31.5051Z" fill="#EFDFC8"/>
<path d="M22.4832 33.4659C22.4872 33.4609 22.4962 33.4572 22.4979 33.4512C22.4708 33.4385 22.4197 33.4231 22.3519 33.4057C22.2841 33.388 22.1982 33.3713 22.1027 33.3496L22.0773 33.4054C22.1445 33.4188 22.2129 33.4265 22.2804 33.4371C22.3482 33.4465 22.4154 33.4585 22.4835 33.4659H22.4832Z" fill="#EFDFC8"/>
<path d="M26.4468 34.8431L26.233 34.82L26.1267 34.808L26.0205 34.793C26.0609 34.7853 26.1007 34.7776 26.1394 34.7703C26.1782 34.7619 26.2166 34.7539 26.2544 34.7459C26.3299 34.7305 26.4027 34.7158 26.4735 34.7014C26.6148 34.6704 26.7475 34.6413 26.8744 34.6136C27.0004 34.5828 27.1216 34.5578 27.2379 34.5284C27.3538 34.498 27.4671 34.4719 27.5773 34.4405C28.0183 34.3176 28.4346 34.1759 28.9277 33.9006L28.8819 33.9508C28.922 33.9401 28.9504 33.914 28.9982 33.8739C29.0219 33.8539 29.0507 33.8305 29.0877 33.8034C29.1248 33.7764 29.1709 33.747 29.2284 33.7109C29.2859 33.6755 29.3557 33.6367 29.4419 33.5939C29.5281 33.5512 29.6283 33.4997 29.7502 33.4463C29.9911 33.3334 30.3125 33.2007 30.7354 33.0036L30.7425 33.0136C30.7939 32.9759 30.7795 32.9565 30.9008 32.9067C30.8016 32.9508 30.7 32.9902 30.5991 33.029C30.7391 32.898 30.837 32.7534 31.0308 32.5954C31.0806 32.573 31.1103 32.581 31.1263 32.593C31.2847 32.4614 31.4364 32.3217 31.5867 32.1811L31.7795 32.1103C31.8346 32.0298 31.8189 31.976 31.8403 31.9045C31.8513 31.8691 31.872 31.8296 31.9161 31.7812C31.9599 31.7324 32.0294 31.6766 32.1313 31.5994C31.9191 31.6582 32.2512 31.3706 32.1657 31.3766C32.1794 31.3723 32.2001 31.3633 32.2228 31.3526C32.2452 31.3412 32.2699 31.3289 32.2923 31.3178C32.3387 31.2594 32.3945 31.1879 32.4533 31.111C32.5104 31.0329 32.5679 30.948 32.622 30.8671C32.6772 30.787 32.7216 30.7051 32.7583 30.6373C32.7944 30.5691 32.8198 30.5127 32.8282 30.4766C32.8282 30.4766 32.773 30.5254 32.6865 30.6022C32.6427 30.64 32.593 30.6854 32.5355 30.7325C32.4774 30.7786 32.4142 30.8284 32.3494 30.8802C32.2853 30.932 32.2154 30.9811 32.1473 31.0292C32.0785 31.0766 32.013 31.1247 31.9478 31.1648C31.8172 31.245 31.706 31.3121 31.6305 31.3425C31.7801 31.2106 31.7938 31.1869 31.7628 31.2036C31.7307 31.2193 31.6532 31.2734 31.6114 31.2871L31.6131 31.3255C31.5185 31.3993 31.4591 31.4234 31.411 31.4371C31.3629 31.4511 31.3261 31.4551 31.2757 31.4872C31.2797 31.4915 31.287 31.4942 31.2944 31.4972L31.2987 31.4799C31.3158 31.4815 31.3171 31.4925 31.3127 31.5062C31.3254 31.5156 31.3258 31.532 31.2757 31.5724L31.2797 31.5584C31.2469 31.5958 31.1975 31.6412 31.1487 31.683C31.1003 31.7251 31.0498 31.7602 31.0204 31.7829L30.9797 31.7381C30.965 31.7876 30.8965 31.854 30.7949 31.9215C30.6924 31.988 30.5627 32.0625 30.4241 32.1256C30.3553 32.1577 30.2868 32.1908 30.2189 32.2195C30.1511 32.2479 30.0857 32.275 30.0259 32.3C29.9961 32.3127 29.968 32.3248 29.9413 32.3364C29.9146 32.3475 29.8895 32.3578 29.8665 32.3672C29.8207 32.3866 29.7843 32.4043 29.7599 32.419C29.6437 32.45 29.5354 32.5179 29.4232 32.595C29.3677 32.6345 29.3089 32.6725 29.2481 32.7083C29.187 32.744 29.1241 32.7781 29.056 32.8028C28.6391 32.9906 28.8134 32.8279 28.5856 32.877C28.3133 32.9612 28.6668 32.9171 28.5656 32.9685C28.4513 32.9922 28.335 33.0093 28.2208 33.0277C28.3988 32.9441 28.2863 32.9525 28.2442 32.9448C28.1092 32.9989 27.9228 33.0364 27.7678 33.0808C27.6104 33.1202 27.4841 33.1693 27.4597 33.2388C27.2636 33.2699 27.1634 33.2749 27.0902 33.2732C27.0174 33.2729 26.9736 33.2709 26.8928 33.2906C26.9519 33.2969 27.0645 33.2863 27.0722 33.3093C26.9075 33.3003 27.0037 33.342 27.0685 33.3364C27.0415 33.3507 27.0017 33.3634 26.9526 33.3751C26.9279 33.3808 26.9012 33.3865 26.8724 33.3915C26.8434 33.3958 26.8126 33.3998 26.7805 33.4035C26.7164 33.4109 26.6466 33.4176 26.5751 33.4239C26.5033 33.4289 26.4294 33.4316 26.3576 33.4359C26.0696 33.451 25.809 33.455 25.794 33.5235L25.7903 33.4994C25.7499 33.605 25.8531 33.6868 25.6938 33.7653C25.6547 33.7566 25.6156 33.7469 25.5762 33.7363L25.4125 33.7977C25.2959 33.779 25.349 33.7463 25.3477 33.7343C25.0777 33.8074 24.6888 33.7787 24.3574 33.766C24.475 33.8525 24.596 33.9427 24.7199 34.0266C24.6474 34.0159 24.5605 33.9955 24.4707 33.9785C24.4259 33.9701 24.3801 33.9614 24.3347 33.9527C24.2896 33.9431 24.2448 33.9344 24.2024 33.9267C24.1169 33.9107 24.039 33.9016 23.9786 33.898C23.9181 33.8946 23.8753 33.901 23.86 33.9217L23.6946 33.8235C23.5563 33.7693 23.4637 33.7449 23.3973 33.7376C23.3311 33.7299 23.2917 33.7376 23.262 33.7513C23.2028 33.7787 23.1831 33.8255 23.0739 33.787C22.9837 33.7426 22.8948 33.6948 22.8066 33.6494C22.8991 33.6631 22.992 33.6788 23.0846 33.6912C22.9486 33.6481 22.8547 33.612 22.7685 33.5772C22.6827 33.5405 22.6045 33.5011 22.5016 33.4503C22.5016 33.4513 22.4989 33.4516 22.4986 33.4526C22.5129 33.4593 22.5216 33.4657 22.5226 33.4717L22.4839 33.4673C22.4415 33.5111 22.2921 33.5124 22.0993 33.468C22.0319 33.4479 21.9671 33.4342 21.9012 33.4216C21.8682 33.4152 21.8351 33.4092 21.801 33.4025C21.7673 33.3952 21.7329 33.3871 21.6974 33.3785C21.6266 33.3604 21.5511 33.3397 21.4689 33.307C21.3871 33.2732 21.2979 33.2305 21.1993 33.1723L21.0617 33.2318L20.9113 33.1489C20.8612 33.1216 20.8124 33.0911 20.763 33.0628L20.7907 32.9876C20.8288 33.0023 20.8716 33.0183 20.9177 33.035C20.9645 33.0501 21.0142 33.0661 21.067 33.0831C21.1198 33.0995 21.1746 33.1175 21.2317 33.1342C21.2892 33.1499 21.348 33.1663 21.4075 33.1827C21.6457 33.2488 21.8986 33.304 22.1027 33.3504L22.1181 33.3163C21.8775 33.2599 21.5952 33.2211 21.4405 33.1643C21.368 33.1252 21.1993 32.9862 21.3563 32.9779C21.3002 32.9883 21.2437 32.9979 21.1876 33.006C21.0897 32.9735 21.0035 32.9468 20.9274 32.9198C20.8515 32.892 20.7844 32.8676 20.7232 32.8453C20.6013 32.8002 20.5054 32.7567 20.4085 32.7133C20.3123 32.6685 20.2178 32.6167 20.0995 32.5523C19.9833 32.4831 19.8426 32.4023 19.6625 32.2833L19.711 32.3528C19.6298 32.3244 19.5473 32.2977 19.4858 32.2646C19.424 32.2319 19.3809 32.1965 19.3756 32.1567C19.2626 32.0939 19.1537 32.0221 19.0468 31.9516C18.9402 31.8801 18.8397 31.8039 18.7445 31.7304C18.6513 31.6536 18.5637 31.5787 18.4876 31.5046C18.4121 31.4294 18.3456 31.3569 18.2918 31.2894L18.1782 31.3235C18.0927 31.2547 18.0462 31.0462 17.926 31.1187L17.7158 31.0105C17.66 30.9607 17.6059 30.9323 17.5535 30.8975C17.501 30.8628 17.4495 30.822 17.4028 30.7455L17.4021 30.7449C17.3964 30.7355 17.3901 30.7258 17.3847 30.7158C17.3827 30.7181 17.3821 30.7205 17.3811 30.7231C17.2661 30.5982 17.2528 30.6149 17.2361 30.6263C17.219 30.638 17.1983 30.6436 17.072 30.4943C17.0243 30.3623 16.889 30.4913 16.7643 30.345C16.749 30.2688 16.7336 30.193 16.7209 30.1158C16.6738 30.042 16.63 29.9905 16.5853 29.9487C16.5405 29.907 16.4964 29.8739 16.4463 29.8398C16.3965 29.8051 16.3404 29.7697 16.2772 29.7186C16.2144 29.6671 16.1423 29.602 16.0587 29.5101C15.9375 29.2976 15.9518 29.1386 16.1316 29.1884C16.0143 29.1493 15.9833 29.1429 15.9532 29.1252C15.9228 29.1075 15.893 29.0781 15.7788 28.9872C15.7905 28.9214 15.8182 28.9381 15.8937 28.9569C15.8359 28.8419 15.8055 28.8172 15.7711 28.8048C15.7374 28.7921 15.7026 28.7898 15.6448 28.7143C15.5342 28.7307 15.3745 28.7711 15.3314 28.7243L15.3525 28.8025C15.1875 28.6699 15.0338 28.5005 14.9389 28.275L14.984 28.2553L14.822 28.0578L14.8651 28.0107C14.7952 27.9128 14.7238 27.8156 14.6566 27.7154L14.6683 27.7665C14.6432 27.7321 14.5884 27.6589 14.5357 27.5734C14.4839 27.4875 14.4294 27.392 14.406 27.3138L14.4388 27.3021C14.4084 27.1909 14.3659 27.0923 14.3198 26.9974C14.2961 26.9503 14.2707 26.9046 14.2437 26.8591C14.2176 26.8134 14.1899 26.7683 14.1612 26.7228C14.0459 26.5417 13.9189 26.3533 13.8117 26.1128C13.8421 26.1251 13.8718 26.1375 13.9029 26.1492C13.8992 25.9581 13.7846 26.1455 13.7359 25.9347L13.812 25.8929C13.7255 25.8268 13.7098 25.7673 13.7148 25.7089C13.7195 25.6504 13.7462 25.5919 13.7452 25.5245L13.659 25.6193L13.6009 25.3828C13.5538 25.1175 13.6861 25.1843 13.7542 25.2017C13.7081 25.1543 13.6597 25.1072 13.6149 25.0584L13.7001 24.9959C13.5525 24.9044 13.6787 24.867 13.5601 24.6642C13.5915 24.6365 13.6276 24.6862 13.6229 24.6077C13.5832 24.5539 13.5474 24.4988 13.5094 24.4437C13.4719 24.3886 13.4335 24.3331 13.3981 24.2766C13.4335 24.3465 13.4733 24.415 13.511 24.4831L13.363 24.4908C13.2798 24.3879 13.2668 24.3067 13.2641 24.2329C13.2611 24.159 13.2682 24.0926 13.2331 24.0127C13.2548 24.0485 13.2755 24.0842 13.2979 24.1196C13.2538 23.987 13.2474 23.9135 13.2514 23.854C13.2565 23.7942 13.2735 23.7481 13.2768 23.6693C13.2578 23.7207 13.2297 23.8009 13.1933 23.693C13.1726 23.6128 13.2364 23.6409 13.2408 23.562C13.1916 23.56 13.1479 23.5113 13.1188 23.4394C13.1044 23.4033 13.0931 23.3619 13.0884 23.3178C13.0841 23.2734 13.0844 23.2266 13.0914 23.1805C13.1054 23.1812 13.1191 23.1839 13.1292 23.1945C13.1091 23.1504 13.0807 23.1291 13.0971 23.0472L13.2087 23.0843C13.1696 23.0369 13.1328 22.9887 13.0944 22.9403C13.1148 22.8364 13.0309 22.6911 13.1041 22.7011L13.1282 22.7579C13.1215 22.5003 13.1315 22.2437 13.1485 21.9892L13.2354 21.9821C13.1786 21.9424 13.1926 21.8388 13.2077 21.749C13.2227 21.6591 13.2327 21.5816 13.1579 21.5869C13.1803 21.5529 13.1926 21.5004 13.2007 21.4426C13.2087 21.3848 13.2104 21.321 13.2164 21.2649C13.2297 21.1529 13.2491 21.0708 13.3256 21.1252C13.3353 21.0644 13.345 21.007 13.3523 20.9518C13.3597 20.8967 13.3637 20.8433 13.368 20.7911C13.3734 20.7394 13.3774 20.6886 13.3811 20.6378C13.3844 20.587 13.3877 20.5362 13.3941 20.4854C13.4001 20.4343 13.4065 20.3825 13.4148 20.3288C13.4228 20.275 13.4365 20.2209 13.4512 20.1637C13.4786 20.0488 13.5301 19.9285 13.5975 19.7929C13.6229 19.7735 13.6473 19.7481 13.6711 19.7174C13.6958 19.687 13.7215 19.6522 13.7459 19.6132C13.7703 19.5741 13.7943 19.5313 13.8177 19.4859C13.8294 19.4631 13.8411 19.4394 13.8524 19.4157C13.8635 19.3917 13.8752 19.3673 13.8885 19.3429C13.9393 19.2453 13.9888 19.1411 14.0362 19.0402C14.089 18.9413 14.1408 18.8461 14.1889 18.7632C14.1982 18.7415 14.2076 18.7201 14.2169 18.6991C14.2273 18.6784 14.2373 18.658 14.2477 18.638C14.2677 18.5975 14.2878 18.5578 14.3072 18.5187C14.3265 18.4796 14.3456 18.4409 14.3643 18.4031C14.3736 18.3841 14.3826 18.365 14.3923 18.3466C14.4027 18.3283 14.4127 18.3102 14.4227 18.2922C14.5039 18.1485 14.5764 18.0079 14.6636 17.8752C14.706 17.8078 14.7481 17.7403 14.7912 17.6718C14.838 17.6053 14.8851 17.5378 14.9339 17.4687C14.9583 17.4339 14.9833 17.3988 15.0084 17.3631C15.0348 17.328 15.0629 17.2936 15.0909 17.2579C15.1474 17.1867 15.2055 17.1122 15.2683 17.0353C15.3883 16.9846 15.4952 16.9044 15.5977 16.8078C15.6512 16.7617 15.703 16.7113 15.7541 16.6582C15.7798 16.6318 15.8052 16.6044 15.8302 16.577L15.868 16.5352L15.9074 16.4948C16.1156 16.277 16.333 16.0525 16.5749 15.9479L16.6437 15.8019C16.6878 15.7895 16.7313 15.7722 16.7747 15.7511C16.8195 15.7314 16.8642 15.708 16.9093 15.6813C16.9544 15.6549 17.0002 15.6255 17.0463 15.5944C17.0694 15.5787 17.0928 15.5627 17.1161 15.5463C17.1402 15.531 17.1646 15.5153 17.1893 15.4996C17.2882 15.4374 17.3888 15.3699 17.4977 15.3145C17.6079 15.2604 17.7225 15.2129 17.8421 15.1832C17.9323 15.1003 17.9834 15.0629 18.0068 15.0482C17.9854 15.0546 17.949 15.0559 17.9173 15.0161C17.9874 15.0011 18.0803 14.9523 18.1591 14.9206C18.2393 14.8912 18.3045 14.8772 18.3162 14.9266L18.2884 14.9503C18.3001 14.9998 18.39 14.9467 18.4999 14.8828C18.5544 14.8498 18.6158 14.8187 18.6736 14.795C18.7314 14.7716 18.7866 14.7569 18.83 14.7626L18.7117 14.6951L18.837 14.654L18.8995 14.6333L18.963 14.6149L18.9042 14.6583C19.0274 14.5815 19.146 14.5164 19.26 14.4599C19.3756 14.4071 19.4868 14.3637 19.594 14.3256C19.7016 14.2878 19.8079 14.2621 19.9104 14.2361C19.9619 14.2237 20.0127 14.2107 20.0638 14.2006C20.1149 14.191 20.1657 14.1816 20.2161 14.1719L20.3675 14.1438C20.3925 14.1392 20.4179 14.1342 20.4433 14.1291C20.4687 14.1248 20.4944 14.1205 20.5201 14.1165C20.6227 14.0987 20.7263 14.0787 20.8332 14.0536C20.9407 14.0313 21.0517 14.0049 21.1679 13.9701C21.226 13.9524 21.2858 13.934 21.3477 13.9153C21.4091 13.8956 21.4726 13.8739 21.5381 13.8495C21.4756 13.9187 21.5264 13.895 21.5969 13.8692C21.6674 13.8428 21.7589 13.8201 21.7746 13.8816C21.922 13.9437 22.0449 13.9153 22.1618 13.8706C22.2784 13.8245 22.387 13.7516 22.4982 13.7206C22.4976 13.7142 22.4999 13.7069 22.5119 13.6962C22.6446 13.6912 22.7769 13.6845 22.9092 13.6811C22.7963 13.7693 22.8651 13.7302 22.9366 13.6905C23.0081 13.6504 23.0826 13.607 22.9773 13.6811C23.4972 13.7112 24.0945 13.6975 24.6999 13.7232C25.3046 13.749 25.9226 13.8208 26.4632 13.9975L26.4257 13.9444C26.4946 13.9661 26.5697 13.9828 26.6446 14.0035C26.7187 14.0249 26.7959 14.0433 26.8681 14.067C26.9402 14.0914 27.0104 14.1155 27.0725 14.1438C27.134 14.1739 27.1888 14.2057 27.2322 14.2411C27.276 14.2761 27.3251 14.3022 27.3786 14.3182C27.4317 14.3343 27.4881 14.3426 27.5406 14.3506C27.6465 14.365 27.744 14.3647 27.7838 14.381C27.9057 14.4098 27.9976 14.4836 28.0467 14.5411C28.0942 14.6022 28.1002 14.6463 28.0591 14.6152C28.172 14.6767 28.3013 14.7064 28.4323 14.7642C28.4653 14.7779 28.4988 14.793 28.5322 14.8093C28.5489 14.8177 28.5659 14.8264 28.5826 14.8354C28.599 14.8454 28.6153 14.8558 28.632 14.8668C28.6975 14.9109 28.763 14.9647 28.8255 15.0332C28.8305 15.1274 29.0446 15.2574 29.2417 15.3963C29.4389 15.5343 29.6219 15.6733 29.5708 15.7324L29.5828 15.7261C29.6483 15.8303 29.7258 15.9188 29.807 16.0054C29.8478 16.0481 29.8905 16.0892 29.934 16.1296C29.9774 16.1704 30.0212 16.2115 30.0653 16.2526C30.1094 16.2937 30.1541 16.3344 30.1979 16.3772C30.2413 16.4203 30.2844 16.4647 30.3262 16.5108C30.4104 16.6024 30.4879 16.7049 30.555 16.8209C30.555 16.8209 30.54 16.8209 30.5203 16.8139C30.8707 16.9852 31.2222 17.167 31.5733 17.3507L31.7731 16.7838C31.6782 16.45 31.5817 16.1149 31.4731 15.7769C30.8724 15.1281 30.221 14.4839 29.4609 13.9357C29.3914 13.8732 29.3219 13.8104 29.2478 13.7513C29.1746 13.6918 29.1028 13.63 29.0273 13.5719L28.7977 13.4002C28.76 13.3708 28.7192 13.3447 28.6795 13.3177L28.5595 13.2365C28.5191 13.2097 28.4797 13.182 28.4386 13.156L28.3137 13.0805L28.188 13.0049L28.1249 12.9675L28.0604 12.9328C27.8884 12.8379 27.7126 12.751 27.5346 12.6709C27.0876 12.5122 26.6329 12.3966 26.1799 12.3164C25.7268 12.2376 25.2755 12.1915 24.8291 12.1681C24.3825 12.145 23.9418 12.146 23.5055 12.1624C23.0689 12.1758 22.6322 12.2102 22.1962 12.2569C22.0756 12.3091 21.9557 12.3588 21.8368 12.413C21.3139 12.3732 20.7273 12.4808 20.1446 12.6335C19.56 12.7861 18.9813 12.9856 18.4278 13.1175L18.4411 13.2191C18.3673 13.2468 18.3128 13.2669 18.2701 13.2786C18.2276 13.2903 18.1972 13.2939 18.1738 13.2946C18.1267 13.2956 18.106 13.2826 18.0659 13.2893L17.9377 13.3427C17.8949 13.3608 17.8531 13.3811 17.8107 13.4002C17.7262 13.4393 17.642 13.478 17.5575 13.5171C17.515 13.5361 17.4733 13.5569 17.4318 13.5782L17.3072 13.6417C17.2244 13.6848 17.1405 13.7256 17.0587 13.7707L16.8141 13.9083L16.6918 13.9775L16.5719 14.0513L16.3324 14.2C16.2529 14.2498 16.1764 14.3045 16.0985 14.3567L15.9822 14.4358C15.9435 14.4622 15.9044 14.4883 15.8673 14.5167L15.6418 14.6844C15.6044 14.7125 15.5666 14.7399 15.5296 14.7686L15.4207 14.8568C15.3482 14.9156 15.2757 14.9744 15.2032 15.0332C15.1313 15.0926 15.0625 15.1561 14.9924 15.2173L14.8878 15.3098C14.8527 15.3402 14.818 15.3713 14.7849 15.404C14.7177 15.4685 14.6509 15.5326 14.5838 15.5968C14.5504 15.6292 14.5166 15.6606 14.4839 15.6933L14.3877 15.7936C13.8728 16.3248 13.4138 16.8987 13.0236 17.5027C12.6354 18.1081 12.3137 18.7409 12.0608 19.3816C11.9843 19.4956 11.8941 19.7505 11.8232 20.003C11.8055 20.0662 11.7865 20.1286 11.7701 20.1888C11.7544 20.2493 11.739 20.307 11.7237 20.3598C11.6919 20.4654 11.6665 20.5519 11.6398 20.6004C11.6178 21.0544 11.5987 21.5121 11.5954 21.9675C11.592 22.4228 11.6067 22.8755 11.6438 23.3128L11.6295 23.2807L11.6602 23.4852C11.6712 23.5533 11.6843 23.6208 11.6963 23.6886C11.6906 23.707 11.6789 23.7107 11.6695 23.6987C11.7053 23.8116 11.7394 23.9402 11.7651 24.0805C11.7791 24.1504 11.7935 24.2225 11.8059 24.297C11.8119 24.3341 11.8182 24.3719 11.8242 24.4096C11.8306 24.4474 11.8373 24.4854 11.8439 24.5239C11.8677 24.6779 11.8951 24.8342 11.9208 24.9883C11.9498 25.1409 11.9762 25.2916 12.0096 25.4296L11.9896 25.4008C12.2198 26.197 12.5362 26.9467 12.9137 27.6506C13.2915 28.3545 13.7309 29.0143 14.2159 29.6297C14.4588 29.938 14.7124 30.2364 14.9763 30.5264C15.2412 30.8157 15.5172 31.095 15.8029 31.3669C16.3731 31.9118 16.9885 32.418 17.6453 32.8977C18.2313 33.3828 18.9663 33.7744 19.7581 34.0894C20.5522 34.4048 21.3994 34.6446 22.2527 34.8742C22.2901 34.8935 22.3783 34.9193 22.5049 34.9493C22.5684 34.9634 22.6416 34.9767 22.7228 34.9914C22.8039 35.0061 22.8928 35.0218 22.99 35.0332C23.3759 35.0876 23.868 35.121 24.3581 35.112C24.8485 35.1047 25.336 35.0572 25.7165 34.9958C25.812 34.9831 25.9002 34.9644 25.9807 34.95C26.0613 34.9343 26.1341 34.9223 26.1969 34.9069C26.3225 34.8778 26.41 34.8558 26.4478 34.8431H26.4468Z" fill="#EFDFC8"/>
<path d="M31.1257 32.5938L31.1153 32.6028C31.1417 32.6355 31.148 32.6101 31.1257 32.5938Z" fill="#EFDFC8"/>
<path d="M24.3357 33.7623C24.3427 33.7623 24.3497 33.7626 24.3564 33.7629C24.3304 33.7442 24.3046 33.7232 24.2789 33.7031L24.3357 33.7623Z" fill="#EFDFC8"/>
<path d="M28.3938 32.8633C28.2161 32.9248 28.2121 32.9371 28.2428 32.9424C28.3063 32.9181 28.3601 32.8923 28.3938 32.8633Z" fill="#EFDFC8"/>
<path d="M32.3267 31.3533C32.4019 31.2714 32.3551 31.2871 32.2916 31.3175C32.2739 31.3396 32.2579 31.36 32.2435 31.378C32.2285 31.3954 32.2151 31.4111 32.2041 31.4238C32.182 31.4492 32.169 31.4639 32.169 31.4639C32.2184 31.4254 32.2776 31.3954 32.3263 31.3533H32.3267Z" fill="#EFDFC8"/>
<path d="M31.6107 31.285L31.6091 31.2383C31.5723 31.2877 31.5823 31.2944 31.6107 31.285Z" fill="#EFDFC8"/>
<path d="M24.8419 17.0451C24.8558 17.0438 24.8506 17.0496 24.8419 17.0451Z" fill="#EFDFC8"/>
<path d="M29.5117 15.8652C29.5144 15.8658 29.516 15.8652 29.5187 15.8652C29.5261 15.8458 29.5324 15.8291 29.5384 15.8164L29.5117 15.8648V15.8652Z" fill="#EFDFC8"/>
<path d="M30.4745 16.0875C30.4755 16.0894 30.4761 16.091 30.4768 16.093C30.4749 16.081 30.4732 16.0694 30.4745 16.0875Z" fill="#EFDFC8"/>
<path d="M26.7923 15.78C26.7822 15.7776 26.7762 15.7816 26.7715 15.7877C26.7779 15.784 26.7842 15.7806 26.7923 15.78Z" fill="#EFDFC8"/>
<path d="M26.9982 17.1878C26.9982 17.1878 26.9953 17.1885 26.993 17.1888C26.9966 17.193 27.0005 17.1962 27.0037 17.2017L26.9979 17.1875L26.9982 17.1878Z" fill="#EFDFC8"/>
<path d="M26.971 17.2209C26.9469 17.2032 26.9813 17.1935 26.993 17.1908C26.9676 17.1604 26.9396 17.1551 26.9092 17.1641C26.9058 17.1949 26.961 17.1965 26.971 17.2209Z" fill="#EFDFC8"/>
<path d="M30.8977 17.5566L30.8851 17.5673C30.8903 17.5647 30.8942 17.5608 30.8977 17.5566Z" fill="#EFDFC8"/>
<path d="M26.7549 17.3027C26.7491 17.305 26.7426 17.3056 26.7371 17.3082C26.7459 17.3098 26.751 17.3073 26.7549 17.3027Z" fill="#EFDFC8"/>
<path d="M30.2878 17.4531L30.2754 17.5012C30.2838 17.4815 30.2868 17.4665 30.2878 17.4531Z" fill="#EFDFC8"/>
<path d="M29.5384 15.8163L29.5484 15.7988C29.5452 15.8027 29.542 15.8092 29.5384 15.8163Z" fill="#EFDFC8"/>
<path d="M30.6807 16.0762C30.696 16.0885 30.7081 16.0979 30.7184 16.1056C30.7184 16.1052 30.7184 16.1049 30.7188 16.1049L30.6807 16.0762Z" fill="#EFDFC8"/>
<path d="M30.8133 11.2305C30.8076 11.2325 30.8016 11.2348 30.7953 11.2378L30.8347 11.2508C30.8287 11.2405 30.8217 11.2338 30.8133 11.2305Z" fill="#EFDFC8"/>
<path d="M30.8584 15.2169C30.8527 15.2159 30.8474 15.2129 30.841 15.2129C30.826 15.2389 30.8277 15.3044 30.834 15.3883L30.8945 15.39C30.8835 15.3322 30.8704 15.2744 30.8584 15.2166V15.2169Z" fill="#EFDFC8"/>
<path d="M32.0902 13.4373L31.993 13.6171C31.9288 13.3592 31.9188 13.1654 31.8998 12.9817C31.8834 12.7979 31.8573 12.6242 31.7698 12.4107L31.7999 12.4304C31.8082 12.3953 31.7434 12.381 31.7 12.2794C31.6783 12.2286 31.6619 12.1558 31.6626 12.0469C31.6639 11.938 31.6776 11.794 31.7207 11.5975L31.7324 11.5949C31.725 11.5705 31.7016 11.5758 31.722 11.5194L31.6763 11.6587C31.6312 11.5912 31.56 11.5401 31.5289 11.4445C31.5373 11.4208 31.5597 11.4081 31.578 11.4018L31.5022 11.1669L31.56 11.075C31.5002 11.0119 31.3485 11.0857 31.3883 10.8686C31.2957 10.9705 31.2971 10.7894 31.247 10.8282C31.258 10.8148 31.2734 10.7871 31.287 10.7643C31.2429 10.6528 31.1527 10.4453 31.0816 10.4082C31.0816 10.4082 31.0542 10.5365 31.0154 10.6825C30.9777 10.8281 30.9252 10.9922 30.8808 11.0667C30.8704 10.8996 30.8567 11.0283 30.827 11.069L30.8574 11.0724C30.8544 11.1746 30.7842 11.192 30.7766 11.2441C30.7822 11.2427 30.7886 11.2394 30.7953 11.2364L30.7842 11.2327C30.7956 11.225 30.8046 11.2257 30.813 11.2291C30.8277 11.224 30.8407 11.2257 30.843 11.2524L30.8344 11.2494C30.8551 11.2865 30.8604 11.358 30.8621 11.3891L30.8033 11.4038C30.8674 11.4255 30.8527 11.5548 30.8237 11.6891C30.7943 11.8237 30.7478 11.9634 30.7562 12.0108C30.7291 12.0659 30.7452 12.1181 30.7662 12.1722C30.7866 12.2263 30.812 12.2828 30.805 12.3459C30.823 12.5387 30.7368 12.4571 30.7041 12.561C30.6884 12.686 30.7692 12.5243 30.7819 12.5707L30.7244 12.7278C30.7027 12.6469 30.6747 12.698 30.6543 12.7171C30.666 12.8413 30.5908 13.0508 30.7148 13.0692C30.684 13.2432 30.6362 13.2509 30.6416 13.3221C30.6596 13.295 30.672 13.2453 30.6961 13.2412C30.654 13.3154 30.7141 13.2706 30.7214 13.2419C30.7385 13.265 30.7385 13.3114 30.7311 13.3679C30.7234 13.4243 30.7071 13.4908 30.6934 13.5543C30.6656 13.6812 30.6469 13.7958 30.7134 13.7978L30.6894 13.8008C30.7899 13.8115 30.8805 13.7614 30.9433 13.8256L30.9052 13.8783L30.956 13.9445C30.9299 13.9963 30.9012 13.9759 30.8891 13.9772C30.9185 14.0327 30.9256 14.1025 30.9242 14.176C30.9222 14.2498 30.9132 14.3274 30.9139 14.3985L31.1658 14.2205C31.116 14.3477 31.0141 14.5749 31.101 14.5906L31.0171 14.6705C30.8654 14.9237 31.106 14.8312 31.0622 14.9314L30.9723 15.0587L30.966 14.9394C30.9246 15.0623 30.8955 15.1121 30.8377 15.211C30.8387 15.211 30.8394 15.212 30.8404 15.212C30.844 15.2053 30.8484 15.2007 30.8544 15.1993L30.8577 15.2157C30.9075 15.227 30.946 15.2868 30.9473 15.371C30.9389 15.4906 31.0168 15.5812 30.9209 15.7756L31.0228 15.8194L31.0088 15.8558C31.0064 15.8628 31.0041 15.8658 31.0017 15.8692L30.9944 15.8795C30.9847 15.8932 30.9753 15.9062 30.9657 15.9186L30.8851 15.9126C30.8855 15.9046 30.8851 15.8955 30.8845 15.8862C30.8835 15.8725 30.8821 15.8578 30.8808 15.8424C30.8771 15.7953 30.8724 15.7439 30.8658 15.6914C30.8531 15.5862 30.839 15.4763 30.8327 15.3871L30.7959 15.3861C30.8013 15.492 30.8424 15.6109 30.838 15.6817C30.824 15.7168 30.7442 15.807 30.6877 15.7459L30.7682 15.808C30.7695 15.8301 30.7705 15.8508 30.7715 15.8702C30.7722 15.8768 30.7729 15.8832 30.7736 15.8889C30.7746 15.9006 30.7756 15.9109 30.7759 15.9206C30.7766 15.9407 30.7759 15.9564 30.7712 15.9711C30.7622 15.9991 30.7408 16.0279 30.6954 16.0486C30.7091 16.0549 30.7224 16.0606 30.7361 16.0659C30.7605 16.1034 30.7832 16.1505 30.7174 16.1027C30.7141 16.116 30.7081 16.1274 30.6997 16.1341C30.6954 16.1374 30.6907 16.1398 30.6854 16.1411C30.6837 16.1411 30.6834 16.1424 30.6803 16.1411L30.671 16.1358C30.6646 16.1317 30.6583 16.1281 30.6523 16.1241C30.6022 16.092 30.5537 16.0489 30.512 15.9938C30.5313 16.0275 30.5501 16.0609 30.5674 16.0943C30.5604 16.091 30.5327 16.0509 30.5183 16.0299C30.5036 16.0085 30.5006 16.0055 30.53 16.075C30.53 16.089 30.5287 16.1027 30.5257 16.1164C30.5166 16.1117 30.5143 16.1234 30.509 16.1287C30.504 16.1341 30.4953 16.1331 30.4816 16.1044C30.4799 16.1007 30.4782 16.097 30.4765 16.0927C30.4772 16.0953 30.4776 16.098 30.4779 16.1007C30.4401 16.0549 30.4872 16.1865 30.4398 16.1274C30.4334 16.093 30.4301 16.1227 30.4218 16.1578C30.4198 16.1665 30.4178 16.1755 30.4151 16.1842C30.4137 16.1882 30.4124 16.1922 30.4111 16.1966C30.4097 16.2006 30.4087 16.2039 30.4044 16.2069C30.39 16.2189 30.3733 16.225 30.3533 16.2176L30.2838 16.0746C30.1418 15.9824 30.1024 16.1147 29.8852 16.0937C29.7857 16.0352 29.7469 15.9153 29.8261 15.82C29.7189 15.934 29.7746 15.8962 29.643 15.943C29.6287 15.8902 29.643 15.8809 29.6758 15.8378C29.5699 15.7669 29.6023 15.8768 29.5181 15.8652C29.484 15.9584 29.4405 16.108 29.4125 16.1114L29.4422 16.1444C29.3477 16.1865 29.2478 16.2006 29.1489 16.1421L29.1576 16.0943L29.0447 16.1077L29.044 16.0456L28.8843 16.0489L28.9043 16.0676C28.8666 16.0719 28.7427 16.081 28.6765 16.0419L28.6825 16.0078C28.4971 15.8815 28.321 16.0051 28.0902 15.9931L28.1273 15.9263C28.0561 15.8491 28.0952 16.0315 28.0053 15.9874L28.0093 15.9012C27.9158 16.0058 27.9054 15.8665 27.8533 15.8184L27.8684 15.9333L27.7641 15.8989C27.6505 15.8498 27.7063 15.7496 27.7294 15.6924L27.6405 15.7729L27.6348 15.672C27.565 15.7816 27.5784 15.6477 27.4698 15.6991C27.4651 15.6607 27.4932 15.642 27.4601 15.6223L27.2774 15.7452L27.3853 15.6934L27.3582 15.8371C27.2413 15.9363 27.2162 15.807 27.1364 15.8398L27.1928 15.802C27.0659 15.8247 27.0652 15.7626 26.9987 15.7235C27.0178 15.7526 27.0468 15.796 26.9947 15.81C26.9573 15.8144 26.98 15.7569 26.9469 15.7375C26.9289 15.8334 26.8354 15.8755 26.7595 15.8221C26.7619 15.8084 26.7649 15.7953 26.7712 15.787C26.7492 15.8007 26.7361 15.8244 26.7027 15.7977L26.7345 15.6924L26.6556 15.7876C26.6129 15.7536 26.538 15.8247 26.5514 15.7529L26.5795 15.7338L26.235 15.6731L26.2387 15.5869C26.1926 15.7014 26.0543 15.523 26.0509 15.6717C25.9935 15.5849 25.7873 15.7028 25.8428 15.5401C25.616 15.5043 25.477 15.652 25.2077 15.5434C25.1232 15.3924 24.8482 15.4108 24.6718 15.3781C24.318 15.4021 24.0882 15.4328 23.7284 15.4425C23.694 15.4038 23.6545 15.3791 23.6121 15.3644L23.4417 16.9362C23.6372 17.0084 23.9054 16.8748 24.0835 16.988L24.1553 16.9172C24.2933 17.0595 24.5442 16.9342 24.7443 17.0805C24.8008 17.0525 24.8295 17.0448 24.8422 17.0435C24.8329 17.0385 24.8198 17.0221 24.8212 16.972C24.8783 17.0141 25.0069 16.9847 24.9865 17.0829L24.9698 17.0912C24.9494 17.1891 25.1609 17.0665 25.2191 17.1604L25.194 17.0498L25.3076 17.0812L25.2742 17.0979C25.8047 16.9209 25.9928 17.284 26.4903 17.124C26.4141 17.2326 26.5905 17.0739 26.5818 17.2012C26.6823 17.3742 26.8066 17.1925 26.9092 17.1614C26.9099 17.155 26.9119 17.148 26.9185 17.139L27.0876 17.1741C26.967 17.3224 27.2259 17.0558 27.1167 17.1808C27.548 17.3522 28.1433 17.298 28.6524 17.4133L28.6347 17.3695C28.7647 17.3926 28.9331 17.3615 29.0246 17.439C29.1162 17.5162 29.2538 17.3598 29.2929 17.3578C29.4098 17.2997 29.4923 17.4521 29.4466 17.4394C29.5652 17.4333 29.6915 17.2997 29.8455 17.3812C29.8849 17.5232 30.3012 17.2994 30.2881 17.4527L30.2915 17.44C30.4856 17.5717 30.7017 17.4113 30.9129 17.5346C30.9129 17.5346 30.9072 17.5453 30.8985 17.5546L31.4053 17.1434L31.3358 16.6178L30.9917 16.1575L29.9176 16.1234L29.0874 15.8625L27.0151 15.6767L26.8541 15.7746C26.4715 15.5261 25.924 15.6971 25.5034 15.5023L25.4826 15.6006C25.3587 15.5922 25.3741 15.5317 25.3457 15.5107C24.7737 15.4552 24.1904 15.4258 23.6231 15.3804L23.4561 16.9219C24.0297 16.9586 24.587 17.0124 25.1001 17.1273C25.1933 17.2028 25.5004 17.1948 25.5715 17.272C25.9196 17.1841 26.2751 17.2209 26.6099 17.2673L26.5962 17.277L26.7565 17.2737C26.7625 17.2823 26.7622 17.2944 26.7565 17.3014C26.9439 17.2312 27.2166 17.3465 27.4317 17.4043L27.418 17.414C28.0551 17.4871 28.6745 17.5068 29.2912 17.5416C29.5996 17.559 29.9069 17.58 30.216 17.6134C30.3426 17.6274 30.4692 17.6415 30.5962 17.6558C30.7381 17.6722 30.8808 17.6899 31.0255 17.7083C31.098 17.718 31.1708 17.7277 31.2436 17.7374C31.3164 17.7464 31.3893 17.7557 31.4621 17.7648C31.6091 17.7838 31.7584 17.8038 31.9115 17.8256C31.9876 17.8423 32.0645 17.8576 32.1413 17.8713C32.1797 17.878 32.2181 17.8847 32.2569 17.8914L32.286 17.8961H32.2876V17.8947V17.8917L32.2886 17.8854L32.2896 17.873L32.294 17.8226C32.3047 17.6866 32.3107 17.5409 32.3137 17.3906C32.32 17.0886 32.3113 16.7712 32.303 16.4541C32.3013 16.375 32.2977 16.2951 32.2943 16.2153C32.2926 16.1755 32.291 16.1354 32.2893 16.0953C32.287 16.0549 32.285 16.0145 32.2826 15.9737C32.2769 15.8628 32.2713 15.7516 32.2656 15.6396C32.2572 15.4639 32.2622 15.2868 32.283 15.1084C32.3053 15.0747 32.3127 14.9601 32.307 14.8054C32.2993 14.6511 32.2843 14.4563 32.2566 14.2632C32.2432 14.1667 32.2298 14.0701 32.2145 13.9789C32.1984 13.8877 32.1824 13.8018 32.167 13.7263C32.1373 13.575 32.1069 13.4651 32.0912 13.4354L32.0902 13.4373Z" fill="#EFDFC8"/>
<path d="M31.5783 11.4031L31.58 11.4085C31.6208 11.3988 31.6034 11.3944 31.5783 11.4031Z" fill="#EFDFC8"/>
<path d="M30.9142 14.4094C30.9142 14.4064 30.9142 14.4034 30.9142 14.4004L30.8584 14.4391L30.9139 14.4091L30.9142 14.4094Z" fill="#EFDFC8"/>
<path d="M30.6292 12.6484C30.6302 12.7296 30.6409 12.7313 30.6556 12.7173C30.6529 12.6882 30.6456 12.6638 30.6292 12.6484Z" fill="#EFDFC8"/>
<path d="M31.3355 10.7525C31.3271 10.7091 31.3074 10.7318 31.287 10.7639C31.3037 10.806 31.3134 10.8357 31.3134 10.8357C31.3168 10.8093 31.3325 10.7796 31.3355 10.7525Z" fill="#EFDFC8"/>
<path d="M30.827 11.0691L30.7906 11.0645C30.8049 11.0868 30.8166 11.0828 30.827 11.0691Z" fill="#EFDFC8"/>
</svg>
