<svg width="69" height="67" viewBox="0 0 69 67" fill="none" xmlns="http://www.w3.org/2000/svg">
<ellipse cx="35.9171" cy="33.5335" rx="27.92" ry="27.222" transform="rotate(10.0881 35.9171 33.5335)" fill="#B30D3B"/>
<path d="M9.59702 29.4625C9.62919 29.3976 9.62533 29.3586 9.59702 29.4625Z" fill="#BD2B54"/>
<path d="M45.6953 56.9489C45.7168 56.9439 45.7264 56.9393 45.7471 56.9336C45.7725 56.8763 45.797 56.8266 45.8224 56.7865L45.6953 56.9489Z" fill="#BD2B54"/>
<path d="M53.4877 53.4179C53.5058 53.4086 53.5185 53.4019 53.536 53.3935C53.5129 53.3744 53.5016 53.3454 53.4877 53.4179Z" fill="#BD2B54"/>
<path d="M25.261 56.3245C25.1878 56.2943 25.143 56.2892 25.108 56.2928C25.1541 56.2986 25.2008 56.3064 25.261 56.3245Z" fill="#BD2B54"/>
<path d="M18.3674 15.564C18.3674 15.564 18.352 15.5814 18.3409 15.5942C18.3711 15.5794 18.4001 15.5625 18.4328 15.5496L18.3674 15.564Z" fill="#BD2B54"/>
<path d="M18.2901 15.7505C18.119 15.8599 18.2846 15.6634 18.3425 15.5964C18.1364 15.6987 17.9661 15.842 17.827 16.0218C17.8535 16.0485 17.9401 15.9852 18.0354 15.9141C18.1316 15.8441 18.2354 15.7637 18.2906 15.7505L18.2901 15.7505Z" fill="#BD2B54"/>
<path d="M46.8272 9.82421L46.729 9.83521C46.7688 9.83493 46.7991 9.83002 46.8272 9.82421Z" fill="#BD2B54"/>
<path d="M24.9149 60.0728C24.8654 60.064 24.8106 60.0493 24.7647 60.0421C24.8391 60.0686 24.8828 60.0739 24.9149 60.0728Z" fill="#BD2B54"/>
<path d="M42.0035 8.92546L41.9349 9.03549C41.9886 8.993 42.0041 8.95797 42.0035 8.92546Z" fill="#BD2B54"/>
<path d="M45.8221 56.7848L45.8718 56.7235C45.8538 56.7394 45.8382 56.7607 45.8221 56.7848Z" fill="#BD2B54"/>
<path d="M57.8865 46.9045C57.9215 46.9147 57.9552 46.9074 57.9862 46.8958C57.9899 46.8861 57.9932 46.8788 57.9954 46.8743L57.8869 46.9051L57.8865 46.9045Z" fill="#BD2B54"/>
<path d="M48.0495 8.91548C48.0464 8.93015 48.0468 8.9474 48.0516 8.9674L48.25 8.96734C48.1612 8.93387 48.0958 8.91781 48.05 8.91556L48.0495 8.91548Z" fill="#BD2B54"/>
<path d="M60.9057 35.6604C60.8931 35.6488 60.8836 35.6203 60.8691 35.6167C60.8102 35.8103 60.7501 36.3293 60.6614 36.9951L60.7986 37.0556C60.8429 36.5895 60.8813 36.1242 60.9058 35.6599L60.9057 35.6604Z" fill="#BD2B54"/>
<path d="M62.4669 22.0825C62.5327 22.5492 62.5867 23.0143 62.6291 23.4759C62.2708 22.4436 61.9291 21.5518 61.5935 20.7461C61.2563 19.9411 60.9293 19.219 60.5757 18.5307C60.2226 17.8425 59.8469 17.1854 59.4024 16.5199C58.9572 15.8554 58.4424 15.1818 57.7987 14.4805L57.9796 14.6054C57.905 14.4872 57.8086 14.4061 57.6476 14.2764C57.486 14.1471 57.2701 13.9612 56.946 13.6423C56.7875 13.4799 56.594 13.2912 56.375 13.0515C56.15 12.8177 55.8944 12.5364 55.5883 12.21C55.4389 12.0428 55.2682 11.8743 55.0905 11.685C55.0013 11.5905 54.9089 11.4926 54.8137 11.3912C54.7661 11.3402 54.7178 11.2882 54.6687 11.235C54.6441 11.2087 54.6196 11.1814 54.594 11.1553C54.5678 11.1297 54.5417 11.1035 54.5152 11.0769C54.3036 10.8664 54.0794 10.6395 53.8399 10.3943C53.8096 10.364 53.7802 10.3319 53.7489 10.3019C53.7176 10.272 53.6858 10.2424 53.6536 10.2118C53.5897 10.1511 53.5246 10.0892 53.4585 10.0267C53.3263 9.90015 53.1903 9.77001 53.0501 9.63572L53.0671 9.61188C52.8925 9.48709 52.8589 9.53872 52.5488 9.23456C52.6789 9.35973 52.8112 9.48043 52.9372 9.60927L53.3114 9.99758C53.0342 9.83793 52.7673 9.69963 52.4711 9.5615C52.3247 9.49004 52.1737 9.41388 52.0157 9.32768C51.9365 9.28477 51.856 9.23775 51.7717 9.19004C51.6866 9.14415 51.5987 9.09482 51.508 9.04207C51.3738 8.92104 51.3525 8.83815 51.3622 8.7891C51.213 8.70252 51.0652 8.6142 50.9153 8.52943L50.4591 8.2862C50.3069 8.2059 50.1556 8.12333 50.0025 8.04532L49.5382 7.82015C49.3786 7.66921 49.2205 7.5122 49.0542 7.36885C48.7448 7.28012 48.6145 7.35655 48.3829 7.34122C48.2679 7.33198 48.1248 7.30749 47.9206 7.22821C47.7163 7.15035 47.4531 7.01321 47.081 6.81325C47.3249 7.05583 47.1153 7.01854 46.8653 6.94721C46.7398 6.91218 46.6051 6.86527 46.5078 6.8465C46.4112 6.82688 46.3554 6.82769 46.3919 6.87764C46.325 6.81787 46.1623 6.70593 46.0328 6.61016C45.9737 6.59134 45.9113 6.57194 45.8466 6.55116C45.7811 6.53266 45.7123 6.51309 45.6417 6.49272C45.5003 6.4534 45.35 6.41154 45.1951 6.36836C45.04 6.3266 44.8782 6.28952 44.7171 6.25062C44.6365 6.23187 44.5555 6.21257 44.4753 6.19392C44.3942 6.17754 44.3142 6.16086 44.2346 6.14474C43.6 6.01232 43.0207 5.94538 42.7833 5.96515C42.7833 5.96515 42.84 5.98695 42.941 6.0259C43.0418 6.0658 43.1875 6.11908 43.3628 6.19323C43.5381 6.2669 43.7456 6.34921 43.9685 6.45185C44.0802 6.50199 44.1964 6.55439 44.3157 6.60785C44.4348 6.66321 44.5555 6.72277 44.6787 6.78227C44.925 6.89884 45.1734 7.03091 45.4161 7.16C45.4767 7.19227 45.5369 7.22446 45.5966 7.25657C45.6555 7.29048 45.714 7.32383 45.772 7.3571C45.8871 7.42395 45.9999 7.48991 46.1087 7.55321C46.1626 7.58525 46.2156 7.61665 46.2677 7.64741C46.3192 7.67903 46.369 7.71181 46.4172 7.74284C46.5139 7.80546 46.6054 7.86518 46.69 7.92174C46.8588 8.03477 46.9996 8.13255 47.0997 8.21773C46.9501 8.14181 46.8294 8.09056 46.7375 8.0498C46.6451 8.00944 46.5801 7.98273 46.5376 7.96638C46.4515 7.93399 46.4539 7.94516 46.5007 7.97886C46.5944 8.04776 46.8672 8.20469 46.97 8.29914L47.0776 8.27044C47.4321 8.45947 47.5925 8.59003 47.7038 8.70504C47.815 8.821 47.8816 8.9134 48.0498 9.01899C48.0559 9.00642 48.0522 8.98623 48.0495 8.96573L47.9939 8.96512C47.9729 8.92135 48.002 8.91139 48.0479 8.91419C48.0546 8.87633 48.1005 8.86545 48.2924 8.96696L48.2472 8.96576C48.3248 8.99616 48.416 9.0324 48.5091 9.07972C48.6023 9.12658 48.7 9.17862 48.7948 9.23015C48.9843 9.33369 49.1628 9.43624 49.2708 9.4989L49.2062 9.62897C49.3663 9.63989 49.6496 9.78989 49.993 10.014C50.1637 10.1279 50.343 10.2696 50.5321 10.417C50.6263 10.4914 50.7219 10.5685 50.8188 10.6467C50.9138 10.7276 51.0074 10.8136 51.1017 10.8977C51.2895 11.0688 51.4792 11.2373 51.6554 11.4078C51.8286 11.5812 51.9952 11.7485 52.1484 11.9022C52.2248 11.9778 52.2983 12.0504 52.3668 12.1183C52.4333 12.1892 52.4958 12.255 52.5534 12.315C52.6693 12.4347 52.7667 12.5297 52.8412 12.5913C53.0889 12.9 53.4105 13.1862 53.7676 13.4733C53.9479 13.6147 54.1244 13.7701 54.2998 13.9312C54.3434 13.9717 54.3874 14.0122 54.4303 14.054C54.4725 14.0967 54.5141 14.1397 54.5551 14.1836C54.6372 14.2715 54.7172 14.3619 54.7937 14.456C55.3061 15.031 55.3859 15.2166 55.4041 15.3282C55.4201 15.4414 55.3688 15.4884 55.5655 15.8202C55.7021 16.0159 55.7677 16.0998 55.7967 16.1181C55.8262 16.1361 55.819 16.0884 55.8027 16.024C55.7708 15.8958 55.6969 15.7074 55.8252 15.8508C55.9211 16.0197 56.0126 16.1912 56.1056 16.3601L56.372 16.8742C55.9569 16.359 56.106 16.698 56.1339 16.827C56.4191 17.2243 56.7249 17.7777 56.9885 18.2523C57.2538 18.7262 57.49 19.1163 57.69 19.1748C57.9596 19.7808 58.0483 20.1056 58.1148 20.3352C58.1481 20.45 58.1699 20.5442 58.2012 20.6401C58.2314 20.7363 58.2707 20.8341 58.3263 20.9631C58.2947 20.7705 58.1695 20.4147 58.2211 20.3854C58.3395 20.9137 58.361 20.5977 58.2909 20.391C58.5314 20.7213 58.8632 21.727 59.1042 22.6637C59.3527 23.5994 59.5288 24.4671 59.7066 24.5021L59.6514 24.5191C59.9318 24.6305 60.0644 24.2694 60.354 24.7823L60.3589 25.1801C60.4437 25.3563 60.5278 25.5338 60.6117 25.7128C60.6393 26.1117 60.528 25.9415 60.5004 25.9488C60.8526 26.8229 60.9964 28.1247 61.11 29.2399C61.27 28.8183 61.4198 28.388 61.5578 27.9497C61.5764 28.4407 61.562 29.128 61.5621 29.709C61.5606 29.8547 61.5613 29.9935 61.5649 30.1215C61.5695 30.2493 61.5705 30.3671 61.5792 30.4688C61.5953 30.6723 61.6276 30.8142 61.6813 30.8585C61.6203 31.0561 61.5635 31.2515 61.4996 31.4462C61.4196 31.9289 61.3825 32.2499 61.3828 32.476C61.3787 32.7018 61.4106 32.8325 61.4513 32.9276C61.5318 33.1176 61.6465 33.1669 61.5776 33.5491L61.4423 34.0264L61.2991 34.4994L61.3262 34.0233L61.345 33.5472C61.2699 34.0216 61.2035 34.351 61.1298 34.6553C61.0562 34.959 60.9759 35.2377 60.8636 35.6053C60.866 35.6058 60.8669 35.6142 60.8689 35.6141C60.8838 35.5631 60.8983 35.531 60.9135 35.5254L60.9056 35.6577C61.0107 35.7829 61.0447 36.2864 60.9445 36.9535C60.8621 37.4251 60.8309 37.8526 60.7546 38.3478C60.6777 38.8428 60.5533 39.4046 60.2771 40.1424L60.436 40.572L60.0587 41.7044L59.8701 41.667C59.9301 41.3818 59.9991 41.0299 60.0718 40.6488C60.1446 40.2668 60.22 39.8516 60.2932 39.4286C60.3661 39.0056 60.4345 38.5745 60.497 38.1599C60.5585 37.7456 60.6131 37.3481 60.6603 36.9923L60.5771 36.9551C60.5194 37.3754 60.4691 37.8283 60.4172 38.2463C60.3643 38.6645 60.3097 39.0478 60.2465 39.3266C60.1572 39.5924 59.8196 40.2549 59.7946 39.7207L59.873 40.2844C59.7315 41.0028 59.6247 41.5427 59.5358 41.9956C59.4433 42.4332 59.3626 42.785 59.2666 43.1355C59.1715 43.4863 59.0641 43.8372 58.9148 44.2705C58.7651 44.7033 58.5745 45.2201 58.2918 45.887C58.349 45.8181 58.4076 45.7494 58.463 45.6792C58.3395 46.2445 58.1874 46.8004 57.985 46.8928C57.8222 47.292 57.6434 47.6874 57.4525 48.066C57.2596 48.4427 57.0553 48.8033 56.8449 49.1354C56.4209 49.7977 55.9732 50.3439 55.5733 50.7092C55.5915 50.8155 55.6078 50.9214 55.6243 51.0288C55.5203 51.169 55.3166 51.2875 55.1645 51.4127C55.0068 51.5336 54.8998 51.663 54.9673 51.8268C54.901 51.9307 54.8358 52.0363 54.7684 52.1405L54.5613 52.4488C54.4772 52.5315 54.4078 52.6119 54.3438 52.6913C54.2807 52.7719 54.2174 52.8451 54.1526 52.921C54.12 52.9586 54.0866 52.9956 54.0507 53.0327C54.0148 53.0698 53.9755 53.1043 53.9335 53.1398C53.8911 53.1752 53.8458 53.2101 53.7962 53.2447C53.7712 53.2617 53.7457 53.2792 53.7182 53.2962C53.69 53.3122 53.6607 53.3285 53.6306 53.3441L53.6279 53.3456C53.5978 53.3612 53.5661 53.3776 53.5342 53.3919C53.5387 53.3971 53.5451 53.3997 53.551 53.4022C53.3344 53.5575 53.2381 53.6458 53.1906 53.696C53.1453 53.7479 53.1581 53.7688 53.1662 53.7922C53.1747 53.8157 53.1784 53.8412 53.1152 53.9032C53.0504 53.963 52.9253 54.0677 52.6549 54.2207C52.4472 54.2716 52.4061 54.3981 52.3399 54.5425C52.3078 54.6159 52.2716 54.6959 52.2099 54.7767C52.1474 54.8564 52.0628 54.9419 51.9237 55.0104L51.5766 55.035L51.4052 55.0465L51.2317 55.0528C51.1005 55.1012 50.9866 55.1488 50.8842 55.1975C50.833 55.222 50.7839 55.2455 50.7368 55.2684C50.6897 55.2918 50.6445 55.3154 50.6017 55.3395C50.4288 55.4357 50.2845 55.5414 50.1217 55.6501C49.9603 55.761 49.7884 55.8876 49.5571 56.0188C49.4999 56.0521 49.4391 56.0867 49.3747 56.1221C49.3102 56.158 49.2423 56.1942 49.1678 56.2288C49.0195 56.2991 48.8542 56.3751 48.6642 56.4522C48.469 56.4956 48.2951 56.5208 48.15 56.5272C48.0053 56.5336 47.8869 56.516 47.8076 56.4838C47.6484 56.4184 47.6398 56.2826 47.8386 56.0822C47.5575 56.3393 47.4961 56.4128 47.4022 56.4766C47.3059 56.5376 47.179 56.5927 46.747 56.8034C46.5701 56.7275 46.6619 56.6754 46.8274 56.5081C45.9841 56.6134 46.3654 56.7667 45.7481 56.9298C45.7184 56.9978 45.6891 57.0746 45.6582 57.1525C45.6268 57.2299 45.5944 57.3081 45.5596 57.3801C45.4895 57.5243 45.4083 57.6432 45.3072 57.6764L45.5704 57.6842C45.4903 57.7202 45.4088 57.7555 45.326 57.7901C45.2432 57.8247 45.1591 57.8585 45.0725 57.8871C44.8999 57.9462 44.7212 58.0008 44.5379 58.0488C44.3546 58.0967 44.1661 58.1384 43.9722 58.1717C43.9238 58.1802 43.875 58.1881 43.826 58.195C43.7767 58.2004 43.7266 58.2047 43.6765 58.209C43.5765 58.217 43.4754 58.223 43.3728 58.2257L43.3819 58.1062L42.5449 58.3128L42.4688 58.1757C42.0676 58.2488 41.6645 58.3138 41.2614 58.3842L41.433 58.402C41.3621 58.4163 41.2509 58.438 41.1152 58.4626C41.0473 58.4764 40.9727 58.4842 40.8943 58.4941C40.8155 58.5031 40.7332 58.5128 40.6486 58.5222C40.3097 58.5581 39.9382 58.5852 39.6663 58.5715L39.6803 58.4876C39.2954 58.4445 38.9317 58.4335 38.5732 58.4478C38.4837 58.4514 38.3941 58.456 38.3051 58.4621C38.216 58.4687 38.1267 58.4689 38.0373 58.4745C37.8584 58.4837 37.6794 58.4968 37.4975 58.5123C37.3155 58.5277 37.1322 58.5454 36.9444 58.5637C36.8507 58.5749 36.7556 58.577 36.6598 58.5829C36.5637 58.5878 36.4667 58.593 36.3681 58.5979C36.1712 58.6073 35.9691 58.6153 35.7598 58.62C35.6555 58.622 35.549 58.625 35.4408 58.6238C35.3331 58.6198 35.2232 58.6149 35.1116 58.6082L35.3552 58.4572C34.7605 58.2465 35.1732 58.7036 34.4534 58.5678L34.4338 58.3592C34.2697 58.4145 34.1356 58.4385 34.0216 58.4319C33.9076 58.4248 33.8129 58.3947 33.7263 58.3544C33.5523 58.2732 33.409 58.1481 33.1983 58.073L33.3709 58.3649L32.9629 58.2904C32.8268 58.2647 32.6905 58.2434 32.5562 58.2107C31.6686 57.983 32.0578 57.7881 32.2072 57.6672L31.5671 57.7852L31.4887 57.5316C31.3665 57.585 31.2789 57.5968 31.2028 57.594C31.1267 57.5907 31.0633 57.5682 30.9902 57.5401C30.8435 57.4837 30.6605 57.4038 30.2605 57.4019C30.2159 57.3012 30.4204 57.2878 30.1676 57.1999C30.0561 57.2089 29.9463 57.2089 29.8354 57.2121L29.5026 57.2193L28.8321 57.2338L29.628 57.2689L29.4566 57.5875C29.027 57.6204 28.7554 57.5501 28.5217 57.4587C28.289 57.3617 28.0916 57.2524 27.7961 57.2203L28.2129 57.2295C27.7414 57.1408 27.5028 57.0578 27.3213 56.9693C27.141 56.8767 27.0187 56.7739 26.7753 56.6549C26.9133 56.7683 27.1283 56.9399 26.7461 56.8631C26.4699 56.7935 26.6372 56.6982 26.3948 56.5789C26.3277 56.6788 26.1201 56.7073 25.8605 56.6679C25.6037 56.6213 25.294 56.5095 25.0213 56.3492C25.0405 56.3209 25.064 56.2958 25.1095 56.2902C24.9475 56.2702 24.8484 56.2975 24.6093 56.1485L24.8564 55.9645C24.6603 55.9828 24.4691 55.9849 24.2742 55.9937C23.9758 55.7907 23.4238 55.7623 23.5369 55.6208L23.7429 55.6512L23.4377 55.5144C23.3359 55.4689 23.2368 55.4171 23.1365 55.369L22.836 55.2218C22.736 55.1722 22.635 55.125 22.5371 55.0719L21.9452 54.7626C21.7492 54.6569 21.5565 54.5465 21.3617 54.4391L21.4266 54.2392C21.2417 54.3069 20.9396 54.1032 20.6712 53.9325C20.6042 53.8893 20.539 53.8494 20.4791 53.8133C20.4196 53.7769 20.3644 53.7471 20.316 53.7282C20.2192 53.6905 20.1477 53.6973 20.1209 53.7848C20.0378 53.6782 19.8856 53.5706 19.7125 53.4626C19.5419 53.3512 19.3491 53.2413 19.1808 53.1391C19.0111 53.0391 18.872 52.9372 18.801 52.8562C18.7306 52.7743 18.731 52.709 18.8479 52.6668C18.7593 52.6047 18.6726 52.5458 18.587 52.4891C18.5442 52.4609 18.5018 52.4334 18.4598 52.4059C18.4184 52.378 18.3774 52.3502 18.3373 52.3231C18.1749 52.2151 18.0164 52.1156 17.8604 52.021C17.7812 51.9747 17.7065 51.9257 17.6305 51.878C17.5544 51.8308 17.4793 51.7837 17.4041 51.7372C17.2544 51.6432 17.1002 51.5547 16.9532 51.4534C16.8044 51.3541 16.6537 51.2517 16.4993 51.1427C16.4214 51.0893 16.3454 51.0303 16.2689 50.9694C16.1919 50.9083 16.1142 50.8457 16.0351 50.7799C15.956 50.714 15.8759 50.6456 15.7943 50.5744C15.7141 50.5016 15.6347 50.4235 15.5524 50.3425C15.4707 50.2615 15.3876 50.1769 15.3024 50.0876C15.2165 50 15.1335 49.9037 15.0489 49.8027C14.9008 49.42 14.4497 48.8955 13.9638 48.3091C13.902 48.2366 13.8393 48.1634 13.7763 48.0897C13.7121 48.0168 13.6536 47.9395 13.5908 47.8644C13.4668 47.7134 13.3424 47.5624 13.2199 47.4137C12.9882 47.1079 12.7531 46.8185 12.5753 46.5418C12.4747 46.416 12.3759 46.2934 12.2792 46.1727C12.187 46.0489 12.0968 45.9274 12.0082 45.8082C11.9636 45.7485 11.9195 45.6894 11.8757 45.6308C11.8536 45.6015 11.8319 45.5722 11.8102 45.5435C11.7897 45.5134 11.7691 45.4839 11.7489 45.4545C11.667 45.3359 11.5862 45.219 11.5066 45.1038C11.3422 44.8758 11.2023 44.641 11.0547 44.4141C11.0181 44.3568 10.9818 44.3 10.9455 44.2433C10.9102 44.1863 10.8772 44.1277 10.8431 44.0698C10.7753 43.9538 10.708 43.8383 10.6402 43.7228C10.3734 43.2579 10.127 42.7795 9.88693 42.2627C9.82273 42.1351 9.77046 42.0008 9.71234 41.8665C9.65534 41.7314 9.59677 41.594 9.53777 41.4537C9.48186 41.3124 9.4301 41.167 9.37443 41.0189C9.3471 40.9447 9.31893 40.8699 9.29091 40.7941C9.27718 40.756 9.26297 40.7179 9.24877 40.6797C9.23615 40.6408 9.22401 40.6021 9.21148 40.5627C9.21581 40.3545 9.20044 40.1419 9.16987 39.9241C9.1469 39.7047 9.11211 39.4803 9.06434 39.2521C9.03825 39.1381 9.02087 39.0217 8.99678 38.9046C8.97364 38.7877 8.94822 38.67 8.92107 38.5509C8.90821 38.4915 8.89289 38.4321 8.88011 38.3722C8.86836 38.312 8.85707 38.2519 8.84532 38.1918C8.8204 38.0711 8.79559 37.95 8.77084 37.8285L8.73206 37.6458L8.70174 37.4622C8.68158 37.3395 8.66182 37.2173 8.64205 37.0952C8.63245 37.0339 8.62274 36.9731 8.61306 36.9123C8.60384 36.8516 8.59961 36.7903 8.59285 36.7295C8.58082 36.6078 8.57004 36.4873 8.56061 36.3674C8.53627 36.1283 8.54141 35.8909 8.54889 35.6623C8.55456 35.5481 8.55697 35.4358 8.57225 35.3252C8.58744 35.2151 8.60511 35.1074 8.62626 35.0023L8.54135 34.7661L8.49903 34.6473C8.48564 34.6073 8.47414 34.5676 8.46131 34.5273C8.51095 34.3882 8.55051 34.2399 8.58281 34.0831C8.6001 34.0052 8.61101 33.9246 8.6285 33.8428C8.64505 33.7608 8.66003 33.6765 8.67329 33.591C8.72281 33.2468 8.77592 32.8769 8.83109 32.4928C8.95312 31.7245 9.13256 30.8943 9.50133 30.1607C9.54018 29.7585 9.57674 29.5502 9.59867 29.4599C9.56767 29.5271 9.5007 29.6235 9.37619 29.6209C9.40363 29.5682 9.42998 29.508 9.4563 29.4423C9.48348 29.3774 9.51254 29.3073 9.53995 29.2356C9.59526 29.0921 9.64984 28.9417 9.70282 28.8086C9.7539 28.6751 9.81419 28.5613 9.86714 28.4887C9.92151 28.4164 9.97367 28.3866 10.0233 28.4233L10.0044 28.5429C10.0545 28.5797 10.1039 28.5133 10.1563 28.3864C10.2091 28.2596 10.2607 28.0715 10.3295 27.8685C10.3969 27.6651 10.4654 27.442 10.5507 27.2478C10.6366 27.0536 10.729 26.885 10.829 26.7871L10.479 26.946L10.679 26.546L10.889 26.1504L10.8317 26.3877C10.8672 26.2705 10.9032 26.1558 10.9394 26.0427C10.9756 25.93 11.0119 25.8193 11.0525 25.7118C11.1318 25.4964 11.2116 25.2894 11.2935 25.0897C11.3795 24.8916 11.4657 24.7009 11.5527 24.5167C11.5955 24.4243 11.6403 24.3341 11.6862 24.2461C11.7326 24.1582 11.7778 24.0715 11.8229 23.9858C11.8688 23.9007 11.9136 23.8159 11.9605 23.7335C12.0083 23.6516 12.0559 23.5708 12.1028 23.4907C12.1985 23.3315 12.291 23.1742 12.3904 23.0239C12.4886 22.873 12.5867 22.7249 12.684 22.5787C12.7853 22.4346 12.8854 22.2918 12.9854 22.1495C13.3911 21.584 13.8024 21.0342 14.2381 20.4346C14.6726 19.8338 15.1219 19.177 15.6182 18.3934C15.5655 18.6676 15.656 18.5075 15.7922 18.2988C15.8606 18.1943 15.9405 18.0777 16.0197 17.9971C16.0998 17.9176 16.1799 17.8762 16.2447 17.918C16.3577 17.8649 16.4593 17.8043 16.5511 17.7382C16.6425 17.6719 16.725 17.6002 16.8022 17.526C16.9561 17.3772 17.078 17.208 17.1894 17.0345C17.3024 16.8627 17.4013 16.683 17.5014 16.5075C17.6026 16.3337 17.7078 16.1678 17.8264 16.0171C17.8162 16.006 17.8103 15.9869 17.8255 15.9398C18.1552 15.645 18.4895 15.3549 18.8311 15.0759C18.6619 15.4813 18.7873 15.2644 18.9152 15.0367C18.9782 14.9214 19.0459 14.807 19.0744 14.7652C19.1034 14.723 19.093 14.7539 19.0074 14.933C19.7104 14.4282 20.4585 13.8866 21.2557 13.3494C22.0524 12.8115 22.8988 12.2776 23.7887 11.7895C24.6778 11.3008 25.609 10.8553 26.5617 10.4868C27.514 10.1172 28.486 9.82634 29.4515 9.62707L29.26 9.57298C29.503 9.5132 29.7632 9.4555 30.0254 9.38985C30.1559 9.35595 30.2898 9.32803 30.422 9.29834C30.555 9.26976 30.6871 9.24053 30.8176 9.21248C31.0808 9.16509 31.3365 9.11929 31.5767 9.09465C31.8174 9.07254 32.0397 9.06083 32.2346 9.07647C32.4298 9.09361 32.6285 9.07429 32.8226 9.0346C33.0174 8.99848 33.2082 8.94454 33.3842 8.88506C33.5601 8.82408 33.7233 8.76864 33.8605 8.71933C33.9979 8.67104 34.1093 8.63473 34.1843 8.62511C34.394 8.57161 34.6017 8.55096 34.7886 8.54905C34.9753 8.54762 35.142 8.57141 35.2701 8.59762C35.526 8.65194 35.6288 8.72979 35.4469 8.72623C35.9 8.69308 36.3409 8.59138 36.8313 8.52387C37.0759 8.48829 37.3333 8.46818 37.6082 8.46289C37.7457 8.46099 37.8876 8.46768 38.035 8.47878C38.1822 8.49129 38.3347 8.5067 38.4928 8.53728C38.7009 8.71491 39.5711 8.68616 40.3994 8.69828C41.2269 8.70685 42.0086 8.73902 42.0029 8.92498L42.0207 8.89594C42.8191 9.13122 43.6139 9.21063 44.4293 9.30101C45.2435 9.39217 46.0773 9.49705 46.9285 9.79203C46.9285 9.79203 46.8899 9.81152 46.8256 9.82402C48.0866 9.70123 49.3607 9.6057 50.6404 9.52532C50.3952 9.04572 50.1479 8.56429 49.8962 8.08596C48.9252 7.5202 47.9411 6.96529 46.9371 6.42588C44.0272 5.92476 41.0586 5.55822 38.0462 5.49584C37.7474 5.46318 37.4461 5.4418 37.1456 5.41568C36.8447 5.39192 36.5422 5.37424 36.24 5.35514C35.6345 5.32553 35.0265 5.30181 34.4149 5.30137C33.1929 5.29585 31.9592 5.3478 30.7229 5.48571L30.1645 5.58409L29.6074 5.69686C29.4213 5.7326 29.2367 5.7769 29.052 5.81922C28.8675 5.86304 28.6819 5.90178 28.4982 5.95162C27.7604 6.1333 27.0308 6.35695 26.3063 6.5986C25.9474 6.7276 25.5862 6.85081 25.2331 6.99402L24.9671 7.09803L24.8343 7.15008L24.7028 7.20579L24.1777 7.4297C24.0024 7.50397 23.8318 7.58737 23.6587 7.66593L23.4002 7.78543C23.3136 7.82471 23.2296 7.86883 23.1445 7.91082L22.635 8.16486L22.1334 8.43249C19.4658 9.87607 17.0591 11.7298 14.9502 13.8391L14.5998 14.39L14.5128 14.5273L14.429 14.6667L14.2613 14.9449C13.5754 15.4961 12.9141 16.1645 12.289 16.9066C11.6629 17.6487 11.0735 18.4646 10.5197 19.3107C9.96493 20.1567 9.44446 21.0323 8.94481 21.8978C8.44461 22.7638 7.96714 23.6172 7.48196 24.4316L7.66499 24.6048C7.55622 24.8456 7.4657 25.017 7.39538 25.146C7.32458 25.275 7.2679 25.3577 7.21975 25.417C7.123 25.5355 7.06045 25.5605 6.98826 25.6727C6.50384 26.8148 6.07787 27.9962 5.73992 29.2152C5.40071 30.433 5.14545 31.6867 4.99791 32.9605C4.84997 34.2338 4.81006 35.5283 4.89661 36.8145C4.9823 38.1001 5.18993 39.3644 5.4986 40.5876C6.11646 43.0366 7.13067 45.3158 8.38043 47.366C9.00546 48.3917 9.6928 49.3634 10.4221 50.2748C11.1505 51.186 11.9201 52.0387 12.7127 52.8383C12.7786 52.9262 12.868 53.0304 12.9748 53.1461C13.0823 53.2609 13.2031 53.3918 13.3432 53.5207C13.4816 53.6512 13.6313 53.7892 13.7864 53.93C13.825 53.9652 13.8642 54.0005 13.9032 54.0363C13.9435 54.0708 13.9837 54.1053 14.0244 54.1399C14.1054 54.2089 14.1873 54.2782 14.2687 54.3474C14.9172 54.9036 15.5777 55.4034 15.8068 55.6687C15.886 55.7145 15.9657 55.7609 16.0453 55.8073C16.1249 55.8537 16.2061 55.8969 16.2864 55.942C16.4466 56.0325 16.6077 56.1232 16.7688 56.2138C16.9278 56.3075 17.093 56.3921 17.2547 56.4819C17.4164 56.5717 17.5787 56.6611 17.7413 56.7515C17.905 56.8387 18.0691 56.9261 18.2332 57.0134C18.3968 57.101 18.5594 57.1915 18.7257 57.2748C19.0569 57.444 19.3841 57.6214 19.7186 57.7834L20.2164 58.0336C20.3838 58.1136 20.5512 58.1937 20.7181 58.2737C21.0501 58.4382 21.3883 58.5872 21.7224 58.7424C21.8885 58.8217 22.0587 58.8911 22.2274 58.9636C22.3962 59.0356 22.5641 59.1074 22.732 59.1793C22.8998 59.2511 23.0666 59.3233 23.2335 59.395C23.3163 59.4321 23.4017 59.4624 23.4856 59.4954C23.5702 59.5281 23.6543 59.5601 23.7383 59.5927L23.6265 59.5791L24.2707 59.7943L24.5924 59.9018L24.7532 59.9553L24.9161 60.0029C24.9643 60.0393 24.9621 60.0686 24.9145 60.0724C25.2958 60.1412 25.7195 60.2512 26.1688 60.3878C26.6218 60.5114 27.1039 60.6528 27.5935 60.8097C28.0873 60.9537 28.5913 61.101 29.0842 61.2448L29.1765 61.272L29.2694 61.2958C29.3311 61.3117 29.3932 61.3271 29.4544 61.3429C29.5773 61.374 29.6992 61.405 29.8197 61.4357C30.0614 61.4958 30.2975 61.5544 30.5257 61.6111L30.4135 61.6161L30.6654 61.6657L30.9184 61.7059C31.0871 61.732 31.2557 61.7586 31.4244 61.7847C31.593 61.8108 31.7613 61.8363 31.9295 61.8623L32.1819 61.9009C32.2663 61.912 32.3508 61.9202 32.4349 61.9303C32.7725 61.9674 33.1091 62.0048 33.4457 62.0418L33.6976 62.069C33.7815 62.0776 33.8663 62.0815 33.9501 62.0881C34.1184 62.0995 34.2868 62.1109 34.4551 62.1223C35.7996 62.2267 37.1406 62.2192 38.4709 62.1762C38.8031 62.1557 39.1352 62.1357 39.467 62.1151C39.6326 62.1036 39.7983 62.0969 39.9636 62.0814L40.4589 62.0304C40.7888 61.9959 41.1181 61.9612 41.447 61.9265C41.7748 61.8788 42.1021 61.8311 42.4289 61.7833L42.9191 61.7114C43.0819 61.6832 43.2438 61.651 43.4064 61.6209C43.7307 61.5594 44.0551 61.498 44.379 61.4365C44.4601 61.4226 44.5403 61.4022 44.6208 61.3838L44.8617 61.3276L45.3435 61.2156C45.6644 61.1404 45.9856 61.0691 46.3046 60.9804C46.6243 60.8986 46.9424 60.8039 47.2608 60.7126C47.42 60.6657 47.5785 60.6148 47.737 60.5659L47.9748 60.492L48.2119 60.4131L48.6861 60.2534L49.1579 60.082C49.3157 60.0266 49.4717 59.965 49.6282 59.903C49.7842 59.8409 49.9416 59.7825 50.0968 59.7169L50.563 59.5196L50.6797 59.47L50.7955 59.4174L51.0271 59.3117C51.3371 59.1749 51.6411 59.0191 51.9475 58.8695C52.0995 58.7916 52.2503 58.7096 52.4017 58.6296L52.6288 58.5084L52.8528 58.3798C53.002 58.2931 53.1525 58.21 53.3008 58.1202L53.7431 57.8459L53.8535 57.7772L53.9621 57.7047L54.1794 57.5589C54.3242 57.4611 54.4704 57.3665 54.6113 57.2608L55.0375 56.9509C55.1772 56.8434 55.315 56.7327 55.454 56.6237C55.523 56.5681 55.5934 56.5152 55.6612 56.4579L55.8639 56.2846L56.0667 56.1107C56.1341 56.0529 56.2025 55.9952 56.2671 55.934C56.5309 55.6943 56.789 55.4478 57.0381 55.1924C58.0372 54.173 58.9129 53.0375 59.672 51.8363C60.4295 50.7481 61.0536 49.5229 61.556 48.2331C62.06 46.9426 62.447 45.5878 62.7604 44.2131C62.7983 44.0412 62.8368 43.8689 62.8748 43.6964C62.9109 43.5237 62.9465 43.3509 62.9827 43.1776C63.0169 43.0045 63.0507 42.8314 63.085 42.6573C63.1172 42.4873 63.149 42.3172 63.1813 42.1467C63.3025 41.498 63.4395 40.8188 63.5742 40.1305C63.8446 38.7501 64.1046 37.3219 64.3239 35.8753C64.3457 35.8104 64.3673 35.7024 64.3921 35.5574C64.4045 35.485 64.4166 35.4036 64.4297 35.3132C64.4419 35.2226 64.4532 35.1235 64.4655 35.0164C64.5148 34.5882 64.5555 34.0301 64.5761 33.3849C64.5961 32.7397 64.5939 32.006 64.5522 31.2306C64.511 30.4548 64.4324 29.6372 64.3151 28.8254C64.1984 28.0133 64.0425 27.2073 63.8644 26.4526C63.8183 26.2643 63.7723 26.0784 63.7276 25.8961C63.6783 25.715 63.6299 25.537 63.5822 25.363C63.5704 25.3194 63.5586 25.2763 63.5467 25.2332C63.5349 25.1925 63.5231 25.1518 63.5118 25.1112C63.4885 25.0309 63.465 24.9516 63.4423 24.8733C63.3949 24.7145 63.3486 24.5603 63.3038 24.4113C63.1194 23.8097 62.94 23.2842 62.7912 22.8828C62.643 22.481 62.5257 22.2018 62.4678 22.0827L62.4669 22.0825Z" fill="#BD2B54"/>
<path d="M51.3628 8.78997L51.4029 8.81328C51.4543 8.72572 51.3753 8.72248 51.3628 8.78997Z" fill="#BD2B54"/>
<path d="M61.1161 29.3101C61.114 29.2862 61.1118 29.2629 61.1094 29.2404L61.0021 29.5193L61.1161 29.3101Z" fill="#BD2B54"/>
<path d="M55.7576 16.3965C55.8503 16.5245 55.9215 16.6219 55.9746 16.6949C56.0282 16.7676 56.0654 16.8143 56.0912 16.8424C56.1425 16.898 56.1463 16.8761 56.1357 16.8288C56.0685 16.7361 56.0035 16.6506 55.9408 16.5768C55.8775 16.5034 55.8149 16.4429 55.7581 16.3966L55.7576 16.3965Z" fill="#BD2B54"/>
<path d="M46.0836 6.50222C45.9112 6.4364 45.8528 6.43039 45.8607 6.45718C45.8688 6.48303 45.9425 6.54351 46.0335 6.61096C46.2118 6.66807 46.3632 6.71698 46.4699 6.7511C46.523 6.76835 46.5654 6.78226 46.594 6.79174C46.6225 6.80169 46.6381 6.80739 46.6381 6.80739C46.4531 6.71393 46.2763 6.59655 46.0836 6.50222Z" fill="#BD2B54"/>
<path d="M46.9715 8.30008C46.9274 8.31088 46.8837 8.32177 46.8393 8.33447C47.0377 8.39433 47.0409 8.36544 46.9715 8.30008Z" fill="#BD2B54"/>
<path d="M51.5393 33.605L51.2359 33.3744C52.1977 33.3029 52.651 33.5456 53.4728 33.4016L53.4279 33.4481C53.5486 33.5045 53.6089 33.0079 54.9444 33.6725L54.9448 33.6944C54.9909 33.6936 54.9897 33.6479 55.0824 33.7121L54.851 33.5662C54.9875 33.5163 55.1059 33.4173 55.2889 33.4105C55.3282 33.4372 55.3421 33.4827 55.3465 33.5192L55.7951 33.5042L55.9349 33.6535C56.071 33.5817 56.0042 33.2775 56.3739 33.4631C56.2322 33.2479 56.5543 33.3466 56.5074 33.2377C56.5264 33.2648 56.5691 33.3043 56.6035 33.3421C56.8214 33.3274 57.2321 33.2892 57.3322 33.1869C57.3322 33.1869 56.471 32.7062 56.2378 32.4725C56.546 32.544 56.3186 32.451 56.2568 32.3771L56.237 32.4287C56.0518 32.3697 56.0499 32.2362 55.9573 32.1958C55.9575 32.2067 55.9604 32.2195 55.9631 32.2322L55.9745 32.2155C55.9835 32.2392 55.9786 32.2557 55.9689 32.2687C55.9715 32.2979 55.9632 32.3181 55.9131 32.308L55.9225 32.2951C55.8457 32.3111 55.7127 32.2841 55.6547 32.2723L55.6518 32.1626C55.5183 32.3661 54.7289 31.7982 54.5456 31.7849C54.3593 31.6381 54.1336 31.803 53.9023 31.7228C53.5352 31.6725 53.7167 31.5542 53.5311 31.4513C53.3002 31.373 53.5795 31.5821 53.4876 31.5855L53.2098 31.4203C53.3697 31.4139 53.2818 31.344 53.2517 31.2988C53.0134 31.27 52.6349 31.0535 52.5653 31.2705C52.2425 31.1517 52.2403 31.0639 52.1027 31.048C52.1495 31.0893 52.2414 31.1297 52.2429 31.1754C52.1127 31.0735 52.1816 31.1966 52.2347 31.2213C52.04 31.3069 51.2105 30.7855 51.173 31.0238L51.1722 30.98C51.1295 31.1581 51.2052 31.336 51.0698 31.4297L50.9772 31.3454L50.8407 31.4173C50.7474 31.3549 50.7921 31.3102 50.7917 31.2865C50.5686 31.3616 50.2542 31.2518 49.9824 31.2181L50.2777 31.7177C50.0467 31.5973 49.6298 31.3522 49.5864 31.5084L49.4462 31.3389C48.9817 31.0105 49.1276 31.4669 48.9428 31.3677L48.7093 31.1816L48.939 31.1904C48.7081 31.0938 48.6152 31.0314 48.4303 30.9103C48.4303 30.9103 48.4283 30.914 48.4284 30.9158C48.4412 30.9229 48.4493 30.9319 48.4512 30.9428L48.4193 30.947C48.3929 31.0353 48.2741 31.094 48.1122 31.084C47.8821 31.0532 47.7046 31.1806 47.3346 30.9804L47.2462 31.1611L46.9692 31.0433L46.9667 30.8971C47.2368 30.9126 47.7437 30.8709 48.0903 30.8723L48.0954 30.8063C47.8898 30.8007 47.6568 30.8596 47.5209 30.8419C47.4542 30.8101 47.2822 30.654 47.4038 30.5586L47.2788 30.6979C46.5925 30.6951 46.5882 30.7043 45.8695 30.5247L45.9328 30.5986C45.7913 30.6394 45.6505 30.6784 45.6089 30.5584C45.1784 30.5256 44.7313 30.4237 44.4492 30.2329L44.3909 30.4039C44.2999 30.3927 44.1597 30.13 44.1191 30.3702L43.9263 30.4431C43.8018 30.4287 43.7274 30.5251 43.5845 30.4252L43.5839 30.4252C43.5751 30.418 43.5657 30.4109 43.557 30.4037C43.5571 30.4092 43.5578 30.4128 43.5586 30.4183C43.2764 30.339 43.564 30.5736 43.2404 30.4695C43.1354 30.3451 43.1299 30.6872 42.9723 30.646L42.811 30.3964C42.5246 30.2514 42.4799 30.4972 42.0686 30.4934C41.8695 30.4035 41.7705 30.1913 41.8984 30.0044C41.7222 30.2287 41.819 30.1503 41.582 30.2568C41.5439 30.1623 41.569 30.1436 41.6202 30.0604C41.4063 29.9489 41.4909 30.1431 41.3307 30.1367C41.2872 30.3112 41.238 30.59 41.1863 30.6018L41.2492 30.6575C41.0814 30.75 40.8973 30.7933 40.6989 30.7035L40.705 30.6156L40.4962 30.6595L40.4811 30.5464L40.1826 30.5789L40.2241 30.6093C40.1541 30.6233 39.9241 30.6602 39.7913 30.6003L39.795 30.5381C39.4199 30.3397 39.1176 30.5937 38.6822 30.614L38.7372 30.4869C38.5866 30.3596 38.6996 30.6832 38.522 30.6204L38.5106 30.4633C38.3583 30.6707 38.3085 30.4193 38.2001 30.3407L38.2536 30.5464L38.0508 30.5024C37.8273 30.4349 37.91 30.2415 37.9409 30.1349L37.7922 30.2965L37.7595 30.1142C37.6523 30.3263 37.6484 30.0795 37.4563 30.1944C37.4392 30.1252 37.4874 30.086 37.4212 30.0561L37.1055 30.312L37.2966 30.199L37.2775 30.4645C37.0799 30.6654 37.0047 30.4363 36.8625 30.51L36.9599 30.4315C36.7266 30.4959 36.7123 30.3828 36.5791 30.3248C36.6209 30.3734 36.6848 30.4473 36.5905 30.4818C36.5212 30.4958 36.551 30.3892 36.4847 30.3593C36.472 30.5369 36.3056 30.6294 36.1517 30.5479C36.153 30.5223 36.156 30.4985 36.1657 30.4818C36.1273 30.5099 36.1082 30.556 36.0397 30.5151L36.0762 30.3188L35.949 30.5075C35.8614 30.4542 35.7372 30.5971 35.7462 30.4653L35.7948 30.4261L35.1363 30.3825L35.1247 30.2255C35.0633 30.4423 34.765 30.1458 34.7913 30.416C34.6649 30.27 34.3048 30.5231 34.3725 30.2184C33.9402 30.1984 33.7116 30.4913 33.1839 30.3504C32.9926 30.0941 32.4814 30.1851 32.144 30.1617C31.4869 30.2791 31.0629 30.3797 30.391 30.4772C29.9799 30.1241 29.383 30.6226 28.9439 30.4272L28.8271 30.5737C28.5334 30.3502 28.0961 30.6412 27.6857 30.4288C27.5873 30.4945 27.5354 30.5155 27.5124 30.5214C27.5311 30.5284 27.5594 30.5535 27.57 30.6447C27.4529 30.5846 27.2194 30.6709 27.2331 30.4878L27.2623 30.469C27.276 30.2859 26.9119 30.5629 26.7795 30.4097L26.854 30.6023L26.6336 30.575L26.6918 30.5356C25.7449 30.9926 25.3026 30.3895 24.413 30.8163C24.528 30.6003 24.2382 30.9345 24.2225 30.7025C23.9911 30.4176 23.8049 30.7792 23.6209 30.8647C23.6211 30.8756 23.6192 30.8903 23.6089 30.9069L23.2844 30.8906C23.4726 30.5893 23.0553 31.1414 23.2285 30.8861C22.38 30.6996 21.2815 30.9672 20.302 30.9073L20.3463 30.9815C20.0981 30.9785 19.7912 31.0843 19.601 30.9724C19.4105 30.8605 19.193 31.1842 19.1203 31.1983C18.9166 31.3389 18.724 31.0881 18.8129 31.0976C18.5931 31.1434 18.3907 31.423 18.0827 31.3223C17.9735 31.0773 17.2527 31.6109 17.2382 31.3295L17.2352 31.3534C16.8398 31.1773 16.4763 31.5329 16.0509 31.3774C16.0509 31.3774 16.0585 31.3572 16.0726 31.3368L15.2297 32.2346L15.4917 33.159L16.25 33.881L18.264 33.6104L19.8792 33.8331L23.796 33.5735L24.072 33.3529C24.8486 33.6979 25.8287 33.2367 26.6631 33.4801L26.6771 33.297C26.9109 33.2802 26.897 33.3938 26.9554 33.4239C29.1305 33.3205 31.3666 33.0424 33.3289 33.2481C33.5199 33.3655 34.093 33.2897 34.2432 33.417C34.8757 33.1903 35.5495 33.1878 36.1869 33.2061L36.1632 33.2266L36.4627 33.1903C36.4757 33.2048 36.4774 33.2267 36.468 33.2415C36.8039 33.0802 37.3395 33.2392 37.755 33.3052L37.7313 33.3257C40.1493 33.3572 42.3889 33.0424 44.7916 33.3393C45.9115 33.6582 47.2025 33.2739 48.486 33.559C48.7235 33.7414 51.3105 33.6912 51.5381 33.616L51.5393 33.605Z" fill="#DED2C2"/>
<path d="M52.3455 31.2724L52.2881 30.9822C52.8283 31.184 52.9596 31.5263 53.4583 31.6245L53.4138 31.6537C53.4524 31.7375 53.706 31.3099 54.1152 32.2733L54.1056 32.2931C54.1303 32.3051 54.1501 32.2639 54.1704 32.347L54.1133 32.1525C54.2077 32.1455 54.3145 32.0897 54.4143 32.1341C54.4231 32.1689 54.4101 32.2135 54.3962 32.2473L54.64 32.3578L54.6472 32.5301C54.7513 32.5034 54.8518 32.2127 54.9643 32.481C54.9855 32.2493 55.1117 32.4266 55.1355 32.3162C55.1335 32.3457 55.1384 32.3928 55.1397 32.4361C55.2615 32.4831 55.4956 32.5624 55.5942 32.4986C55.5942 32.4986 55.3536 31.8306 55.3347 31.5571C55.4657 31.7062 55.387 31.5602 55.3873 31.477L55.3539 31.5177C55.2823 31.4137 55.3409 31.2938 55.31 31.232C55.3052 31.2419 55.3011 31.2541 55.2968 31.2662L55.3103 31.2545C55.3045 31.2781 55.2945 31.2916 55.2836 31.3005C55.2719 31.3273 55.2585 31.3431 55.2365 31.3203L55.2473 31.3113C55.1995 31.3044 55.1413 31.2435 55.1159 31.2169L55.1633 31.118C55.0019 31.2631 54.8383 30.537 54.7473 30.4745C54.7143 30.2917 54.5214 30.3768 54.435 30.2413C54.2634 30.0948 54.4121 30.039 54.36 29.8958C54.2729 29.7619 54.3271 30.0262 54.2771 30.0038L54.204 29.7792C54.2914 29.8177 54.2761 29.7309 54.2804 29.6822C54.1673 29.5906 54.0639 29.2923 53.9302 29.4672C53.8126 29.2717 53.8506 29.1926 53.785 29.1404C53.7914 29.1902 53.8219 29.2518 53.8022 29.2931C53.779 29.1659 53.7604 29.2951 53.7775 29.3319C53.6363 29.3547 53.4307 28.659 53.3044 28.8619L53.3236 28.8225C53.2215 28.97 53.1821 29.1501 53.0686 29.1966L53.0573 29.0955L52.9531 29.1221C52.9316 29.0405 52.9752 29.0129 52.9856 28.9915C52.8341 28.9971 52.7169 28.812 52.5883 28.7068L52.5213 29.2354C52.453 29.0639 52.3421 28.7294 52.2494 28.8571L52.251 28.6668C52.1521 28.2446 52.0254 28.6933 51.972 28.5535L51.9317 28.3225L52.0492 28.3938C51.9703 28.2436 51.949 28.1621 51.9054 28.0027C51.9054 28.0027 51.9027 28.0054 51.9019 28.0071C51.9055 28.017 51.9058 28.0272 51.9019 28.0375L51.8831 28.0325C51.8298 28.1041 51.7408 28.1239 51.6597 28.0702C51.5518 27.9791 51.4011 28.0441 51.2949 27.7627L51.1675 27.9L51.0737 27.7181L51.1376 27.5866C51.2735 27.675 51.56 27.7778 51.7427 27.8747L51.7748 27.8171C51.6686 27.7553 51.5191 27.7437 51.4552 27.6902C51.4342 27.6434 51.413 27.4562 51.5198 27.4045L51.3916 27.4946C51.03 27.3025 51.0236 27.3095 50.724 26.9503L50.7244 27.0339C50.6314 27.0313 50.5396 27.0273 50.5711 26.9085C50.3583 26.7602 50.1675 26.5455 50.1036 26.2969L49.9964 26.4338C49.9532 26.3986 49.9965 26.1248 49.8677 26.3285L49.7333 26.3404C49.6739 26.2932 49.5915 26.3589 49.5606 26.23L49.5603 26.2298C49.5589 26.221 49.5571 26.212 49.5557 26.2032C49.5533 26.2082 49.552 26.2116 49.55 26.2167C49.4362 26.0678 49.4835 26.3572 49.359 26.1746C49.359 26.0343 49.2033 26.3389 49.1384 26.2585L49.1646 25.9907C49.0779 25.7818 48.9446 25.9894 48.7289 25.8723C48.6637 25.7369 48.7062 25.5197 48.8572 25.3878C48.664 25.5398 48.7502 25.4964 48.5773 25.5262C48.5993 25.4311 48.621 25.4213 48.6852 25.3611C48.6219 25.2022 48.5799 25.3993 48.4981 25.3493C48.3972 25.4934 48.2467 25.7293 48.2141 25.7256L48.2225 25.7927C48.0925 25.8291 47.9758 25.8171 47.9111 25.6819L47.9535 25.605L47.8235 25.5865L47.8661 25.4812L47.6938 25.4278L47.7021 25.4664C47.6589 25.4596 47.5209 25.4291 47.4774 25.3389L47.5072 25.2842C47.3974 25.0031 47.1243 25.1468 46.8851 25.0447L46.9709 24.9462C46.9481 24.7907 46.8633 25.1114 46.7975 25.0062L46.8616 24.8625C46.6885 25.006 46.7745 24.7673 46.7523 24.667L46.6887 24.8658L46.6011 24.7704C46.5131 24.6483 46.6432 24.4981 46.7071 24.4113L46.5564 24.5148L46.6205 24.3427C46.4691 24.5029 46.5772 24.281 46.4244 24.3307C46.4463 24.2641 46.4893 24.2423 46.4676 24.1972L46.1865 24.339L46.338 24.2907L46.2093 24.5229C46.0152 24.6481 46.0777 24.4223 45.9696 24.449L46.0561 24.4057C45.9041 24.3989 45.947 24.2937 45.9025 24.205C45.9029 24.2601 45.9037 24.3438 45.8384 24.3487C45.7955 24.342 45.8589 24.2549 45.8372 24.2098C45.7512 24.3652 45.622 24.4019 45.577 24.2866C45.5891 24.264 45.6013 24.2435 45.6139 24.2313C45.581 24.2459 45.5504 24.2817 45.5324 24.2262L45.6394 24.0607L45.4879 24.1944C45.4654 24.1225 45.3359 24.2161 45.3995 24.1006L45.4427 24.0789L45.1141 23.8581L45.178 23.7144C45.0488 23.8915 45.0235 23.5437 44.9168 23.7927C44.9152 23.6272 44.6118 23.7541 44.7837 23.5002C44.5641 23.3629 44.3124 23.5618 44.0964 23.29C44.1098 23.0078 43.7989 22.9481 43.631 22.8339C43.2313 22.7575 42.9622 22.7303 42.5636 22.632C42.5039 22.2024 41.9658 22.4836 41.821 22.1875L41.6938 22.2862C41.6384 22.0051 41.2773 22.1447 41.1552 21.8413C41.0738 21.8729 41.037 21.8774 41.0222 21.8763C41.029 21.8877 41.0328 21.918 40.9976 22.0025C40.9626 21.9164 40.8006 21.9291 40.8896 21.7691L40.9134 21.7603C41.0024 21.6003 40.6863 21.7475 40.6847 21.5739L40.6381 21.7667L40.5338 21.6814L40.5822 21.6623C39.8776 21.8096 39.9131 21.1478 39.2523 21.2839C39.4095 21.1225 39.1071 21.3413 39.2024 21.1295C39.2073 20.8106 38.9474 21.0827 38.812 21.1084C38.8072 21.1182 38.7997 21.1308 38.7867 21.1428L38.6225 21.0386C38.8566 20.821 38.3895 21.1997 38.595 21.0191C38.2298 20.6179 37.5297 20.5538 37.0386 20.2297L37.0289 20.3083C36.8991 20.237 36.6896 20.247 36.639 20.0943C36.5883 19.9415 36.3288 20.1711 36.2841 20.1636C36.1136 20.2331 36.1238 19.9555 36.1666 19.9886C36.0299 19.9689 35.7981 20.1631 35.6802 19.9879C35.7319 19.7385 35.1127 20.0168 35.2306 19.7611L35.2184 19.7816C35.088 19.5148 34.7371 19.7325 34.5817 19.476C34.5817 19.476 34.5947 19.46 34.6112 19.4456L33.7648 20.0159L33.4906 20.9154L33.569 21.7708L34.7543 22.085L35.5087 22.7305L37.6949 23.5802L37.9393 23.4591C38.1957 23.9823 38.9198 23.8404 39.2521 24.2887L39.3413 24.1288C39.4724 24.1783 39.4143 24.2761 39.4317 24.3191C40.6276 24.8275 41.9338 25.1964 42.8792 25.9225C42.9277 26.0803 43.2645 26.1709 43.287 26.3262C43.7226 26.2981 44.0799 26.482 44.4086 26.6745L44.3869 26.6863L44.5614 26.7365C44.5618 26.753 44.553 26.7731 44.5414 26.7838C44.7909 26.7323 45.003 27.0225 45.1932 27.1963L45.1715 27.2081C46.4356 27.9042 47.76 28.2413 48.8974 29.1706C49.347 29.7653 50.2009 29.7781 50.7521 30.3877C50.7962 30.6165 52.186 31.2863 52.3399 31.2819L52.3455 31.2724Z" fill="#DED2C2"/>
<path d="M52.8442 33.9143L52.7583 34.1973C53.316 34.0502 53.4806 33.7226 53.9866 33.6745L53.9452 33.641C53.9919 33.5614 54.2018 34.0121 54.7047 33.0941L54.6971 33.0735C54.7229 33.064 54.7385 33.1069 54.7669 33.0263L54.6908 33.2142C54.784 33.2305 54.8847 33.2966 54.9884 33.2623C55.0007 33.2285 54.9922 33.1829 54.9817 33.1478L55.2352 33.0622L55.2596 32.8915C55.3604 32.9283 55.4316 33.2275 55.5702 32.9718C55.5682 33.2044 55.7114 33.0406 55.7242 33.1528C55.7251 33.1232 55.7347 33.0769 55.7402 33.0339C55.8661 32.9992 56.1069 32.9435 56.1987 33.0168C56.1987 33.0168 55.893 33.6576 55.847 33.9279C55.9921 33.7925 55.8993 33.93 55.8914 34.0128L55.8621 33.969C55.7806 34.0653 55.827 34.1905 55.7901 34.2489C55.7863 34.2386 55.7834 34.2261 55.7804 34.2136L55.7926 34.2266C55.7892 34.2025 55.7806 34.1881 55.7706 34.1782C55.7617 34.1503 55.7499 34.1332 55.7258 34.1538L55.7356 34.1638C55.6874 34.166 55.6234 34.2208 55.5955 34.2447L55.6328 34.3478C55.4866 34.1874 55.2517 34.8936 55.1549 34.9468C55.104 35.1254 54.9205 35.0215 54.821 35.1479C54.6357 35.2766 54.7782 35.3468 54.7121 35.4842C54.6121 35.6087 54.6923 35.3512 54.6403 35.3684L54.5453 35.5846C54.6361 35.5551 54.6122 35.6399 54.6117 35.6888C54.49 35.7687 54.3575 36.0553 54.2419 35.868C54.1054 36.0508 54.1354 36.1333 54.0649 36.1787C54.0762 36.1298 54.1127 36.0715 54.0972 36.0285C54.0615 36.1527 54.0558 36.0223 54.0764 35.9874C53.9382 35.9507 53.6645 36.6225 53.559 36.4081L53.5742 36.4493C53.4873 36.2923 53.4659 36.1092 53.3577 36.0517L53.3364 36.1511L53.2353 36.1143C53.2059 36.1933 53.2464 36.2251 53.2547 36.2474C53.1045 36.2268 52.9695 36.3994 52.8311 36.4913L52.8169 35.9587C52.7319 36.1226 52.5883 36.4444 52.5088 36.3081L52.4914 36.4976C52.3511 36.9079 52.2696 36.4489 52.2026 36.5827L52.1395 36.8085L52.2636 36.7492C52.1701 36.8908 52.1408 36.9698 52.0816 37.1241C52.0816 37.1241 52.0792 37.1211 52.0785 37.1194C52.0831 37.1099 52.0844 37.0997 52.0816 37.0891L52.0624 37.0922C52.0165 37.0157 51.9299 36.9872 51.8438 37.0325C51.7274 37.1125 51.5839 37.0328 51.4503 37.3023L51.3371 37.153L51.2257 37.3247L51.2763 37.4619C51.4202 37.3874 51.7156 37.3136 51.907 37.2353L51.9332 37.2958C51.8214 37.3467 51.6715 37.3435 51.6026 37.3903C51.577 37.4348 51.5373 37.619 51.6385 37.6811L51.5198 37.5787C51.141 37.7339 51.1354 37.7263 50.8015 38.0539L50.8102 37.9708C50.7174 37.9641 50.6257 37.959 50.6453 38.0804C50.4187 38.2068 50.2075 38.4015 50.1192 38.6425L50.0262 38.4956C49.9798 38.5264 49.9956 38.8031 49.8877 38.5876L49.7551 38.5624C49.6913 38.6034 49.6159 38.53 49.5723 38.6551L49.572 38.6553C49.5697 38.6639 49.567 38.6726 49.5647 38.6813C49.5628 38.6761 49.562 38.6726 49.5604 38.6673C49.4324 38.8041 49.5082 38.5209 49.3662 38.6902C49.3522 38.8298 49.2276 38.5113 49.155 38.5848L49.1545 38.854C49.0475 39.0532 48.9354 38.8334 48.7092 38.9285C48.6309 39.0567 48.6516 39.2771 48.7888 39.4233C48.6116 39.2528 48.693 39.3046 48.524 39.2578C48.5365 39.3546 48.557 39.3665 48.6149 39.4328C48.5362 39.5846 48.514 39.3843 48.4276 39.4259C48.3415 39.2725 48.2152 39.0229 48.1823 39.0233L48.1974 38.9573C48.0717 38.9082 47.9544 38.9086 47.8765 39.0367L47.9111 39.1174L47.7799 39.1229L47.8118 39.232L47.635 39.2679L47.6472 39.2303C47.6035 39.2328 47.4631 39.2494 47.4109 39.3349L47.4351 39.3923C47.298 39.6611 47.0404 39.491 46.7923 39.5688L46.8679 39.6754C46.8298 39.8278 46.7773 39.5003 46.7013 39.5984L46.7509 39.7478C46.5928 39.5878 46.6547 39.8339 46.6226 39.9314L46.5791 39.7273L46.4825 39.8135C46.3828 39.9263 46.4973 40.0887 46.5523 40.1814L46.4126 40.0634L46.4593 40.2411C46.3245 40.0666 46.4101 40.2982 46.263 40.2336C46.2781 40.302 46.3187 40.3279 46.2927 40.3706L46.027 40.2016L46.173 40.2648L46.068 40.0209C45.8873 39.8771 45.9271 40.1079 45.8222 40.0706L45.904 40.1223C45.752 40.114 45.7843 40.2229 45.7312 40.3068C45.737 40.252 45.7462 40.1688 45.6816 40.1575C45.6383 40.1598 45.6927 40.2528 45.6667 40.2955C45.5965 40.1324 45.4716 40.0829 45.4154 40.1933C45.4252 40.2169 45.4353 40.2385 45.4466 40.2519C45.4154 40.2342 45.3884 40.1954 45.365 40.2489L45.455 40.4242L45.3175 40.2761C45.288 40.3455 45.1684 40.2395 45.2203 40.3607L45.2611 40.3865L44.9122 40.5736L44.9616 40.723C44.8506 40.534 44.7909 40.8775 44.7094 40.6191C44.6913 40.7836 44.4021 40.6272 44.5479 40.8969C44.3157 41.0117 44.0851 40.7888 43.8432 41.0378C43.8284 41.3199 43.5131 41.3485 43.3347 41.4454C42.9294 41.4818 42.659 41.4821 42.2525 41.5404C42.1505 41.9619 41.643 41.6286 41.4694 41.9089L41.3527 41.798C41.2696 42.0722 40.9242 41.8975 40.7725 42.1872C40.6947 42.1477 40.6585 42.1396 40.6437 42.1392C40.6516 42.1285 40.6584 42.0988 40.6317 42.0112C40.5884 42.0934 40.4284 42.0647 40.5011 42.2327L40.524 42.2438C40.5966 42.4119 40.2966 42.234 40.2778 42.4066L40.2506 42.2101L40.1384 42.2846L40.1846 42.3085C39.4981 42.0919 39.4677 42.7539 38.8237 42.5529C38.9641 42.7291 38.6849 42.4813 38.7587 42.7016C38.7319 43.0193 38.5003 42.7228 38.3681 42.6838C38.3643 42.6735 38.3581 42.6602 38.3464 42.647L38.1727 42.7344C38.3839 42.9742 37.9568 42.5509 38.1434 42.7511C37.7401 43.1141 37.0371 43.1082 36.5163 43.382L36.5144 43.3028C36.3781 43.3608 36.1707 43.3302 36.1052 43.477C36.0395 43.624 35.8041 43.3698 35.7589 43.3728C35.5961 43.2867 35.5787 43.5639 35.6246 43.5353C35.4866 43.5414 35.2753 43.3251 35.1406 43.4877C35.1672 43.741 34.5787 43.4026 34.6707 43.6687L34.6605 43.6471C34.5043 43.8996 34.1767 43.6481 33.9966 43.888C33.9966 43.888 34.008 43.9052 34.023 43.9211L33.2374 43.2695L33.0539 42.3473L33.2168 41.5039L34.4276 41.309L35.2423 40.7416L37.5021 40.1133L37.7333 40.258C38.0404 39.7629 38.7468 39.976 39.122 39.5629L39.1949 39.7309C39.3302 39.6947 39.2821 39.5916 39.3037 39.5505C40.5442 39.1634 41.8806 38.9261 42.8934 38.2975C42.9573 38.1453 43.3014 38.0886 43.3393 37.9363C43.7699 38.0075 44.1437 37.86 44.49 37.7011L44.4695 37.6872L44.6482 37.6545C44.6502 37.6382 44.6434 37.6173 44.6329 37.6056C44.8761 37.6816 45.116 37.4139 45.3225 37.2598L45.3021 37.2459C46.629 36.6788 47.9804 36.4749 49.2045 35.6632C49.7109 35.1161 50.5619 35.1882 51.1709 34.6363C51.2375 34.413 52.687 33.8846 52.8397 33.9043L52.8442 33.9143Z" fill="#DED2C2"/>
</svg>
