<svg width="260" height="248" viewBox="0 0 260 248" fill="none" xmlns="http://www.w3.org/2000/svg">
<path d="M258.618 247.124C256.252 247.124 253.036 245.001 250.67 245.001C248.303 245.001 245.937 247.465 243.571 247.465C241.205 247.465 238.839 245.001 236.473 245.001C234.107 245.001 231.741 247.465 229.375 247.465C227.009 247.465 224.643 245.001 222.277 245.001C219.911 245.001 217.544 247.465 215.178 247.465C212.812 247.465 210.446 245.001 208.08 245.001C205.714 245.001 203.348 247.465 200.982 247.465C198.616 247.465 196.25 245.001 193.884 245.001C191.518 245.001 189.152 247.465 186.786 247.465C184.42 247.465 182.053 245.001 179.687 245.001C177.321 245.001 174.955 247.465 172.589 247.465C170.223 247.465 167.857 245.001 165.491 245.001C163.125 245.001 160.759 247.465 158.393 247.465C156.027 247.465 153.661 245.001 151.295 245.001C148.928 245.001 146.562 247.465 144.196 247.465C141.83 247.465 139.464 245.001 137.098 245.001C134.732 245.001 132.366 247.465 130 247.465C127.634 247.465 125.268 245.001 122.902 245.001C120.536 245.001 118.17 247.465 115.804 247.465C113.437 247.465 111.072 245.001 108.705 245.001C106.339 245.001 103.973 247.465 101.607 247.465C99.2411 247.465 96.8751 245.001 94.509 245.001C92.143 245.001 89.7768 247.465 87.4107 247.465C85.0446 247.465 82.6787 245.001 80.3126 245.001C77.9465 245.001 75.5805 247.465 73.2145 247.465C70.8484 247.465 68.4822 245.001 66.1162 245.001C63.7501 245.001 61.3841 247.465 59.018 247.465C56.652 247.465 54.2858 245.001 51.9197 245.001C49.5537 245.001 47.1877 247.465 44.8216 247.465C42.4555 247.465 40.0894 245.001 37.7233 245.001C35.3572 245.001 32.9913 247.465 30.6252 247.465C28.2591 247.465 25.8929 245.001 23.5269 245.001C21.1608 245.001 18.7948 247.465 16.4288 247.465C14.0627 247.465 11.6967 245.001 9.33064 245.001C6.96457 245.001 3.74816 247.124 1.38209 247.124C1.38209 244.865 3.46465 241.715 3.46465 239.455C3.46465 237.196 1 234.937 1 232.677C1 230.418 3.46465 228.159 3.46465 225.9C3.46465 223.64 1 221.381 1 219.122C1 216.863 3.46465 214.603 3.46465 212.344C3.46465 210.085 1 207.826 1 205.566C1 203.307 3.46465 201.048 3.46465 198.788C3.46465 196.529 1 194.27 1 192.011C1 189.751 3.46465 187.492 3.46465 185.233C3.46465 182.974 1 180.714 1 178.455C1 176.196 3.46465 173.937 3.46465 171.677C3.46465 169.418 1 167.159 1 164.899C1 162.64 3.46465 160.381 3.46465 158.122C3.46465 155.862 1 153.603 1 151.344C1 149.085 3.46465 146.825 3.46465 144.566C3.46465 142.307 1 140.048 1 137.788C1 135.529 3.46465 133.27 3.46465 131.01C3.46465 128.751 1 126.492 1 124.233C1 121.973 3.46465 119.714 3.46465 117.455C3.46465 115.196 1 112.936 1 110.677C1 108.418 3.46465 106.159 3.46465 103.899C3.46465 101.64 1 99.3808 1 97.1215C1 94.8622 3.46465 92.603 3.46465 90.3437C3.46465 88.0844 1 85.8252 1 83.5659C1 81.3066 3.46465 79.0474 3.46465 76.7881C3.46465 74.5288 1 72.2696 1 70.0103C1 67.751 3.46465 65.4918 3.46465 63.2325C3.46465 60.9732 1 58.714 1 56.4547C1 54.1954 3.46465 51.9362 3.46465 49.6769C3.46465 47.4176 1 45.1584 1 42.8991C1 40.6398 3.46465 38.3806 3.46465 36.1213C3.46465 33.862 1 31.6028 1 29.3435C1 27.0843 3.46465 24.825 3.46465 22.5657C3.46465 20.3065 1 18.0472 1 15.7879C1 13.5287 3.46465 11.2694 3.46465 9.01013C3.46465 6.75086 1.38209 3.60024 1.38209 1.34098C3.74816 1.34098 6.96457 3.46465 9.33064 3.46465C11.6967 3.46465 14.0627 1 16.4288 1C18.7948 1 21.1608 3.46465 23.5269 3.46465C25.8929 3.46465 28.2591 1 30.6252 1C32.9913 1 35.3572 3.46465 37.7233 3.46465C40.0894 3.46465 42.4555 1 44.8216 1C47.1877 1 49.5537 3.46465 51.9197 3.46465C54.2858 3.46465 56.652 1 59.018 1C61.3841 1 63.7501 3.46465 66.1162 3.46465C68.4822 3.46465 70.8484 1 73.2145 1C75.5805 1 77.9465 3.46465 80.3126 3.46465C82.6787 3.46465 85.0446 1 87.4107 1C89.7768 1 92.143 3.46465 94.509 3.46465C96.8751 3.46465 99.2411 1 101.607 1C103.973 1 106.339 3.46465 108.705 3.46465C111.072 3.46465 113.437 1 115.804 1C118.17 1 120.536 3.46465 122.902 3.46465C125.268 3.46465 127.634 1 130 1C132.366 1 134.732 3.46465 137.098 3.46465C139.464 3.46465 141.83 1 144.196 1C146.562 1 148.928 3.46465 151.295 3.46465C153.661 3.46465 156.027 1 158.393 1C160.759 1 163.125 3.46465 165.491 3.46465C167.857 3.46465 170.223 1 172.589 1C174.955 1 177.321 3.46465 179.687 3.46465C182.053 3.46465 184.42 1 186.786 1C189.152 1 191.518 3.46465 193.884 3.46465C196.25 3.46465 198.616 1 200.982 1C203.348 1 205.714 3.46465 208.08 3.46465C210.446 3.46465 212.812 1 215.178 1C217.544 1 219.911 3.46465 222.277 3.46465C224.643 3.46465 227.009 1 229.375 1C231.741 1 234.107 3.46465 236.473 3.46465C238.839 3.46465 241.205 1 243.571 1C245.937 1 248.303 3.46465 250.67 3.46465C253.036 3.46465 256.252 1.34098 258.618 1.34098C258.618 3.60024 256.535 6.75086 256.535 9.01013C256.535 11.2694 259 13.5287 259 15.7879C259 18.0472 256.535 20.3065 256.535 22.5657C256.535 24.825 259 27.0843 259 29.3435C259 31.6028 256.535 33.862 256.535 36.1213C256.535 38.3806 259 40.6398 259 42.8991C259 45.1584 256.535 47.4176 256.535 49.6769C256.535 51.9362 259 54.1954 259 56.4547C259 58.714 256.535 60.9732 256.535 63.2325C256.535 65.4918 259 67.751 259 70.0103C259 72.2696 256.535 74.5288 256.535 76.7881C256.535 79.0474 259 81.3066 259 83.5659C259 85.8252 256.535 88.0844 256.535 90.3437C256.535 92.603 259 94.8622 259 97.1215C259 99.3808 256.535 101.64 256.535 103.899C256.535 106.159 259 108.418 259 110.677C259 112.936 256.535 115.196 256.535 117.455C256.535 119.714 259 121.973 259 124.233C259 126.492 256.535 128.751 256.535 131.01C256.535 133.27 259 135.529 259 137.788C259 140.048 256.535 142.307 256.535 144.566C256.535 146.825 259 149.085 259 151.344C259 153.603 256.535 155.862 256.535 158.122C256.535 160.381 259 162.64 259 164.899C259 167.159 256.535 169.418 256.535 171.677C256.535 173.937 259 176.196 259 178.455C259 180.714 256.535 182.974 256.535 185.233C256.535 187.492 259 189.751 259 192.011C259 194.27 256.535 196.529 256.535 198.788C256.535 201.048 259 203.307 259 205.566C259 207.826 256.535 210.085 256.535 212.344C256.535 214.603 259 216.863 259 219.122C259 221.381 256.535 223.64 256.535 225.9C256.535 228.159 259 230.418 259 232.677C259 234.937 256.535 237.196 256.535 239.455C256.535 241.715 258.618 244.865 258.618 247.124Z" fill="#F0EFEA"/>
<path d="M258.618 247.124C256.252 247.124 253.036 245.001 250.67 245.001C248.303 245.001 245.937 247.465 243.571 247.465C241.205 247.465 238.839 245.001 236.473 245.001C234.107 245.001 231.741 247.465 229.375 247.465C227.009 247.465 224.643 245.001 222.277 245.001C219.911 245.001 217.544 247.465 215.178 247.465C212.812 247.465 210.446 245.001 208.08 245.001C205.714 245.001 203.348 247.465 200.982 247.465C198.616 247.465 196.25 245.001 193.884 245.001C191.518 245.001 189.152 247.465 186.786 247.465C184.42 247.465 182.053 245.001 179.687 245.001C177.321 245.001 174.955 247.465 172.589 247.465C170.223 247.465 167.857 245.001 165.491 245.001C163.125 245.001 160.759 247.465 158.393 247.465C156.027 247.465 153.661 245.001 151.295 245.001C148.928 245.001 146.562 247.465 144.196 247.465C141.83 247.465 139.464 245.001 137.098 245.001C134.732 245.001 132.366 247.465 130 247.465C127.634 247.465 125.268 245.001 122.902 245.001C120.536 245.001 118.17 247.465 115.804 247.465C113.437 247.465 111.072 245.001 108.705 245.001C106.339 245.001 103.973 247.465 101.607 247.465C99.2411 247.465 96.8751 245.001 94.509 245.001C92.143 245.001 89.7768 247.465 87.4107 247.465C85.0446 247.465 82.6787 245.001 80.3126 245.001C77.9465 245.001 75.5805 247.465 73.2145 247.465C70.8484 247.465 68.4822 245.001 66.1162 245.001C63.7501 245.001 61.3841 247.465 59.018 247.465C56.652 247.465 54.2858 245.001 51.9197 245.001C49.5537 245.001 47.1877 247.465 44.8216 247.465C42.4555 247.465 40.0894 245.001 37.7233 245.001C35.3572 245.001 32.9913 247.465 30.6252 247.465C28.2591 247.465 25.8929 245.001 23.5269 245.001C21.1608 245.001 18.7948 247.465 16.4288 247.465C14.0627 247.465 11.6967 245.001 9.33064 245.001C6.96457 245.001 3.74816 247.124 1.38209 247.124C1.38209 244.865 3.46465 241.715 3.46465 239.455C3.46465 237.196 1 234.937 1 232.677C1 230.418 3.46465 228.159 3.46465 225.9C3.46465 223.64 1 221.381 1 219.122C1 216.863 3.46465 214.603 3.46465 212.344C3.46465 210.085 1 207.826 1 205.566C1 203.307 3.46465 201.048 3.46465 198.788C3.46465 196.529 1 194.27 1 192.011C1 189.751 3.46465 187.492 3.46465 185.233C3.46465 182.974 1 180.714 1 178.455C1 176.196 3.46465 173.937 3.46465 171.677C3.46465 169.418 1 167.159 1 164.899C1 162.64 3.46465 160.381 3.46465 158.122C3.46465 155.862 1 153.603 1 151.344C1 149.085 3.46465 146.825 3.46465 144.566C3.46465 142.307 1 140.048 1 137.788C1 135.529 3.46465 133.27 3.46465 131.01C3.46465 128.751 1 126.492 1 124.233C1 121.973 3.46465 119.714 3.46465 117.455C3.46465 115.196 1 112.936 1 110.677C1 108.418 3.46465 106.159 3.46465 103.899C3.46465 101.64 1 99.3808 1 97.1215C1 94.8622 3.46465 92.603 3.46465 90.3437C3.46465 88.0844 1 85.8252 1 83.5659C1 81.3066 3.46465 79.0474 3.46465 76.7881C3.46465 74.5288 1 72.2696 1 70.0103C1 67.751 3.46465 65.4918 3.46465 63.2325C3.46465 60.9732 1 58.714 1 56.4547C1 54.1954 3.46465 51.9362 3.46465 49.6769C3.46465 47.4176 1 45.1584 1 42.8991C1 40.6398 3.46465 38.3806 3.46465 36.1213C3.46465 33.8621 1 31.6028 1 29.3435C1 27.0843 3.46465 24.825 3.46465 22.5657C3.46465 20.3065 1 18.0472 1 15.7879C1 13.5287 3.46465 11.2694 3.46465 9.01012C3.46465 6.75086 1.38209 3.60024 1.38209 1.34098C3.74816 1.34098 6.96457 3.46465 9.33064 3.46465C11.6967 3.46465 14.0627 1 16.4288 1C18.7948 1 21.1608 3.46465 23.5269 3.46465C25.8929 3.46465 28.2591 1 30.6252 1C32.9913 1 35.3572 3.46465 37.7233 3.46465C40.0894 3.46465 42.4555 1 44.8216 1C47.1877 1 49.5537 3.46465 51.9197 3.46465C54.2858 3.46465 56.652 1 59.018 1C61.3841 1 63.7501 3.46465 66.1162 3.46465C68.4822 3.46465 70.8484 1 73.2145 1C75.5805 1 77.9465 3.46465 80.3126 3.46465C82.6787 3.46465 85.0446 1 87.4107 1C89.7768 1 92.143 3.46465 94.509 3.46465C96.8751 3.46465 99.2411 1 101.607 1C103.973 1 106.339 3.46465 108.705 3.46465C111.072 3.46465 113.437 1 115.804 1C118.17 1 120.536 3.46465 122.902 3.46465C125.268 3.46465 127.634 1 130 1C132.366 1 134.732 3.46465 137.098 3.46465C139.464 3.46465 141.83 1 144.196 1C146.562 1 148.928 3.46465 151.295 3.46465C153.661 3.46465 156.027 1 158.393 1C160.759 1 163.125 3.46465 165.491 3.46465C167.857 3.46465 170.223 1 172.589 1C174.955 1 177.321 3.46465 179.687 3.46465C182.053 3.46465 184.42 1 186.786 1C189.152 1 191.518 3.46465 193.884 3.46465C196.25 3.46465 198.616 1 200.982 1C203.348 1 205.714 3.46465 208.08 3.46465C210.446 3.46465 212.812 1 215.178 1C217.544 1 219.911 3.46465 222.277 3.46465C224.643 3.46465 227.009 1 229.375 1C231.741 1 234.107 3.46465 236.473 3.46465C238.839 3.46465 241.205 1 243.571 1C245.937 1 248.303 3.46465 250.67 3.46465C253.036 3.46465 256.252 1.34098 258.618 1.34098C258.618 3.60024 256.535 6.75086 256.535 9.01012C256.535 11.2694 259 13.5287 259 15.7879C259 18.0472 256.535 20.3065 256.535 22.5657C256.535 24.825 259 27.0843 259 29.3435C259 31.6028 256.535 33.8621 256.535 36.1213C256.535 38.3806 259 40.6398 259 42.8991C259 45.1584 256.535 47.4176 256.535 49.6769C256.535 51.9362 259 54.1954 259 56.4547C259 58.714 256.535 60.9732 256.535 63.2325C256.535 65.4918 259 67.751 259 70.0103C259 72.2696 256.535 74.5288 256.535 76.7881C256.535 79.0474 259 81.3066 259 83.5659C259 85.8252 256.535 88.0844 256.535 90.3437C256.535 92.603 259 94.8622 259 97.1215C259 99.3808 256.535 101.64 256.535 103.899C256.535 106.159 259 108.418 259 110.677C259 112.936 256.535 115.196 256.535 117.455C256.535 119.714 259 121.973 259 124.233C259 126.492 256.535 128.751 256.535 131.01C256.535 133.27 259 135.529 259 137.788C259 140.048 256.535 142.307 256.535 144.566C256.535 146.825 259 149.085 259 151.344C259 153.603 256.535 155.862 256.535 158.122C256.535 160.381 259 162.64 259 164.899C259 167.159 256.535 169.418 256.535 171.677C256.535 173.937 259 176.196 259 178.455C259 180.714 256.535 182.974 256.535 185.233C256.535 187.492 259 189.751 259 192.011C259 194.27 256.535 196.529 256.535 198.788C256.535 201.048 259 203.307 259 205.566C259 207.826 256.535 210.085 256.535 212.344C256.535 214.603 259 216.863 259 219.122C259 221.381 256.535 223.64 256.535 225.9C256.535 228.159 259 230.418 259 232.677C259 234.937 256.535 237.196 256.535 239.455C256.535 241.715 258.618 244.865 258.618 247.124Z" stroke="#F0EFEA" stroke-miterlimit="10"/>
<path opacity="0.5" d="M83.7974 127.199H79.5594V114.108H83.9316C85.2143 114.108 86.3158 114.37 87.2363 114.895C88.1567 115.414 88.862 116.162 89.352 117.138C89.8464 118.11 90.0935 119.275 90.0935 120.635C90.0935 121.998 89.8442 123.17 89.3456 124.15C88.8513 125.13 88.1354 125.885 87.1979 126.413C86.2604 126.937 85.1269 127.199 83.7974 127.199ZM81.5346 125.473H83.6887C84.6858 125.473 85.5147 125.286 86.1752 124.911C86.8357 124.532 87.33 123.984 87.6581 123.268C87.9863 122.548 88.1503 121.67 88.1503 120.635C88.1503 119.608 87.9863 118.736 87.6581 118.02C87.3343 117.304 86.8506 116.761 86.2072 116.39C85.5637 116.02 84.7647 115.834 83.8101 115.834H81.5346V125.473ZM92.1983 127.199V117.381H94.0456V118.941H94.1478C94.3268 118.412 94.6421 117.997 95.0938 117.694C95.5498 117.387 96.0654 117.234 96.6407 117.234C96.76 117.234 96.9007 117.238 97.0626 117.247C97.2288 117.255 97.3588 117.266 97.4525 117.279V119.107C97.3758 119.086 97.2394 119.062 97.0434 119.037C96.8474 119.007 96.6514 118.992 96.4554 118.992C96.0036 118.992 95.6009 119.088 95.2473 119.279C94.8978 119.467 94.6208 119.729 94.4163 120.066C94.2117 120.398 94.1095 120.777 94.1095 121.203V127.199H92.1983ZM101.678 127.417C101.056 127.417 100.493 127.301 99.9903 127.071C99.4875 126.837 99.089 126.498 98.795 126.055C98.5052 125.612 98.3603 125.069 98.3603 124.425C98.3603 123.871 98.4669 123.415 98.6799 123.057C98.893 122.699 99.1806 122.416 99.5429 122.207C99.9051 121.998 100.31 121.841 100.757 121.734C101.205 121.627 101.661 121.547 102.125 121.491C102.713 121.423 103.191 121.368 103.557 121.325C103.924 121.278 104.19 121.203 104.356 121.101C104.522 120.999 104.605 120.833 104.605 120.603V120.558C104.605 120 104.448 119.567 104.132 119.26C103.821 118.953 103.357 118.8 102.739 118.8C102.095 118.8 101.588 118.943 101.218 119.228C100.851 119.51 100.598 119.823 100.457 120.168L98.6608 119.759C98.8738 119.162 99.1849 118.681 99.594 118.314C100.007 117.944 100.482 117.675 101.019 117.509C101.556 117.338 102.121 117.253 102.713 117.253C103.105 117.253 103.521 117.3 103.96 117.394C104.403 117.483 104.816 117.65 105.2 117.892C105.588 118.135 105.905 118.483 106.152 118.934C106.399 119.382 106.523 119.963 106.523 120.679V127.199H104.656V125.857H104.58C104.456 126.104 104.271 126.347 104.024 126.586C103.777 126.824 103.459 127.022 103.071 127.18C102.683 127.338 102.219 127.417 101.678 127.417ZM102.093 125.882C102.622 125.882 103.073 125.778 103.448 125.569C103.828 125.36 104.115 125.088 104.311 124.751C104.512 124.41 104.612 124.046 104.612 123.658V122.392C104.544 122.461 104.411 122.525 104.215 122.584C104.024 122.64 103.804 122.689 103.557 122.731C103.31 122.77 103.069 122.806 102.835 122.84C102.6 122.87 102.404 122.895 102.247 122.917C101.876 122.963 101.537 123.042 101.23 123.153C100.928 123.264 100.685 123.424 100.502 123.632C100.323 123.837 100.233 124.11 100.233 124.451C100.233 124.924 100.408 125.282 100.757 125.525C101.107 125.763 101.552 125.882 102.093 125.882ZM112.987 131.086C112.207 131.086 111.536 130.983 110.974 130.779C110.415 130.574 109.959 130.304 109.606 129.967C109.252 129.63 108.988 129.262 108.813 128.861L110.456 128.184C110.571 128.371 110.724 128.569 110.916 128.778C111.112 128.991 111.376 129.172 111.709 129.321C112.045 129.471 112.478 129.545 113.006 129.545C113.731 129.545 114.329 129.368 114.802 129.015C115.275 128.665 115.512 128.107 115.512 127.34V125.409H115.39C115.275 125.618 115.109 125.85 114.892 126.106C114.679 126.362 114.385 126.583 114.01 126.771C113.635 126.958 113.147 127.052 112.546 127.052C111.77 127.052 111.072 126.871 110.449 126.509C109.832 126.142 109.341 125.603 108.979 124.892C108.621 124.176 108.442 123.296 108.442 122.252C108.442 121.208 108.619 120.313 108.973 119.567C109.331 118.821 109.821 118.25 110.443 117.854C111.065 117.453 111.77 117.253 112.559 117.253C113.168 117.253 113.66 117.355 114.035 117.56C114.41 117.76 114.702 117.995 114.911 118.263C115.124 118.532 115.288 118.768 115.403 118.973H115.544V117.381H117.417V127.417C117.417 128.26 117.221 128.953 116.829 129.494C116.437 130.035 115.906 130.436 115.237 130.696C114.572 130.956 113.822 131.086 112.987 131.086ZM112.968 125.467C113.518 125.467 113.982 125.339 114.361 125.083C114.745 124.824 115.035 124.453 115.231 123.971C115.431 123.485 115.531 122.904 115.531 122.226C115.531 121.566 115.433 120.984 115.237 120.481C115.041 119.978 114.753 119.586 114.374 119.305C113.995 119.02 113.526 118.877 112.968 118.877C112.393 118.877 111.913 119.026 111.53 119.324C111.146 119.618 110.856 120.019 110.66 120.526C110.469 121.033 110.373 121.6 110.373 122.226C110.373 122.87 110.471 123.434 110.667 123.92C110.863 124.406 111.153 124.785 111.536 125.058C111.924 125.331 112.401 125.467 112.968 125.467ZM126.259 121.37V127.199H124.348V114.108H126.233V118.979H126.355C126.585 118.451 126.936 118.031 127.409 117.72C127.882 117.409 128.5 117.253 129.263 117.253C129.936 117.253 130.524 117.392 131.027 117.669C131.534 117.946 131.926 118.359 132.203 118.909C132.485 119.454 132.625 120.136 132.625 120.954V127.199H130.714V121.184C130.714 120.464 130.529 119.906 130.158 119.51C129.787 119.109 129.272 118.909 128.611 118.909C128.159 118.909 127.755 119.005 127.397 119.196C127.043 119.388 126.764 119.669 126.559 120.04C126.359 120.407 126.259 120.85 126.259 121.37ZM139.209 127.397C138.242 127.397 137.409 127.191 136.71 126.777C136.015 126.36 135.478 125.774 135.099 125.02C134.724 124.261 134.537 123.373 134.537 122.354C134.537 121.348 134.724 120.462 135.099 119.695C135.478 118.928 136.007 118.329 136.684 117.899C137.366 117.468 138.163 117.253 139.075 117.253C139.629 117.253 140.166 117.345 140.686 117.528C141.206 117.711 141.672 117.999 142.086 118.391C142.499 118.783 142.825 119.292 143.064 119.919C143.302 120.541 143.422 121.297 143.422 122.188V122.865H135.617V121.434H141.549C141.549 120.931 141.447 120.485 141.242 120.098C141.037 119.706 140.75 119.397 140.379 119.171C140.013 118.945 139.582 118.832 139.088 118.832C138.551 118.832 138.082 118.964 137.682 119.228C137.285 119.488 136.978 119.829 136.761 120.251C136.548 120.669 136.442 121.123 136.442 121.613V122.731C136.442 123.387 136.557 123.946 136.787 124.406C137.021 124.866 137.347 125.218 137.765 125.461C138.182 125.699 138.67 125.819 139.228 125.819C139.591 125.819 139.921 125.767 140.219 125.665C140.518 125.559 140.775 125.401 140.993 125.192C141.21 124.983 141.376 124.725 141.491 124.419L143.3 124.745C143.155 125.277 142.895 125.744 142.52 126.145C142.15 126.541 141.683 126.85 141.121 127.071C140.562 127.289 139.925 127.397 139.209 127.397ZM145.344 127.199V117.381H147.192V118.941H147.294C147.473 118.412 147.788 117.997 148.24 117.694C148.696 117.387 149.211 117.234 149.787 117.234C149.906 117.234 150.047 117.238 150.209 117.247C150.375 117.255 150.505 117.266 150.598 117.279V119.107C150.522 119.086 150.385 119.062 150.189 119.037C149.993 119.007 149.797 118.992 149.601 118.992C149.15 118.992 148.747 119.088 148.393 119.279C148.044 119.467 147.767 119.729 147.562 120.066C147.358 120.398 147.255 120.777 147.255 121.203V127.199H145.344ZM155.934 127.397C154.967 127.397 154.134 127.191 153.435 126.777C152.741 126.36 152.204 125.774 151.824 125.02C151.449 124.261 151.262 123.373 151.262 122.354C151.262 121.348 151.449 120.462 151.824 119.695C152.204 118.928 152.732 118.329 153.41 117.899C154.091 117.468 154.888 117.253 155.8 117.253C156.354 117.253 156.891 117.345 157.411 117.528C157.931 117.711 158.397 117.999 158.811 118.391C159.224 118.783 159.55 119.292 159.789 119.919C160.027 120.541 160.147 121.297 160.147 122.188V122.865H152.342V121.434H158.274C158.274 120.931 158.172 120.485 157.967 120.098C157.763 119.706 157.475 119.397 157.104 119.171C156.738 118.945 156.307 118.832 155.813 118.832C155.276 118.832 154.807 118.964 154.407 119.228C154.01 119.488 153.704 119.829 153.486 120.251C153.273 120.669 153.167 121.123 153.167 121.613V122.731C153.167 123.387 153.282 123.946 153.512 124.406C153.746 124.866 154.072 125.218 154.49 125.461C154.907 125.699 155.395 125.819 155.954 125.819C156.316 125.819 156.646 125.767 156.944 125.665C157.243 125.559 157.5 125.401 157.718 125.192C157.935 124.983 158.101 124.725 158.216 124.419L160.025 124.745C159.88 125.277 159.62 125.744 159.245 126.145C158.875 126.541 158.408 126.85 157.846 127.071C157.287 127.289 156.65 127.397 155.934 127.397Z" fill="#6E3F00"/>
<rect x="20" y="18" width="220" height="211" fill="#DED2C2"/>
<path d="M258.618 247.124C256.252 247.124 253.036 245.001 250.67 245.001C248.303 245.001 245.937 247.465 243.571 247.465C241.205 247.465 238.839 245.001 236.473 245.001C234.107 245.001 231.741 247.465 229.375 247.465C227.009 247.465 224.643 245.001 222.277 245.001C219.911 245.001 217.544 247.465 215.178 247.465C212.812 247.465 210.446 245.001 208.08 245.001C205.714 245.001 203.348 247.465 200.982 247.465C198.616 247.465 196.25 245.001 193.884 245.001C191.518 245.001 189.152 247.465 186.786 247.465C184.42 247.465 182.053 245.001 179.687 245.001C177.321 245.001 174.955 247.465 172.589 247.465C170.223 247.465 167.857 245.001 165.491 245.001C163.125 245.001 160.759 247.465 158.393 247.465C156.027 247.465 153.661 245.001 151.295 245.001C148.928 245.001 146.562 247.465 144.196 247.465C141.83 247.465 139.464 245.001 137.098 245.001C134.732 245.001 132.366 247.465 130 247.465C127.634 247.465 125.268 245.001 122.902 245.001C120.536 245.001 118.17 247.465 115.804 247.465C113.437 247.465 111.072 245.001 108.705 245.001C106.339 245.001 103.973 247.465 101.607 247.465C99.2411 247.465 96.8751 245.001 94.509 245.001C92.143 245.001 89.7768 247.465 87.4107 247.465C85.0446 247.465 82.6787 245.001 80.3126 245.001C77.9465 245.001 75.5805 247.465 73.2145 247.465C70.8484 247.465 68.4822 245.001 66.1162 245.001C63.7501 245.001 61.3841 247.465 59.018 247.465C56.652 247.465 54.2858 245.001 51.9197 245.001C49.5537 245.001 47.1877 247.465 44.8216 247.465C42.4555 247.465 40.0894 245.001 37.7233 245.001C35.3572 245.001 32.9913 247.465 30.6252 247.465C28.2591 247.465 25.8929 245.001 23.5269 245.001C21.1608 245.001 18.7948 247.465 16.4288 247.465C14.0627 247.465 11.6967 245.001 9.33064 245.001C6.96457 245.001 3.74816 247.124 1.38209 247.124C1.38209 244.865 3.46465 241.715 3.46465 239.455C3.46465 237.196 1 234.937 1 232.677C1 230.418 3.46465 228.159 3.46465 225.9C3.46465 223.64 1 221.381 1 219.122C1 216.863 3.46465 214.603 3.46465 212.344C3.46465 210.085 1 207.826 1 205.566C1 203.307 3.46465 201.048 3.46465 198.788C3.46465 196.529 1 194.27 1 192.011C1 189.751 3.46465 187.492 3.46465 185.233C3.46465 182.974 1 180.714 1 178.455C1 176.196 3.46465 173.937 3.46465 171.677C3.46465 169.418 1 167.159 1 164.899C1 162.64 3.46465 160.381 3.46465 158.122C3.46465 155.862 1 153.603 1 151.344C1 149.085 3.46465 146.825 3.46465 144.566C3.46465 142.307 1 140.048 1 137.788C1 135.529 3.46465 133.27 3.46465 131.01C3.46465 128.751 1 126.492 1 124.233C1 121.973 3.46465 119.714 3.46465 117.455C3.46465 115.196 1 112.936 1 110.677C1 108.418 3.46465 106.159 3.46465 103.899C3.46465 101.64 1 99.3808 1 97.1215C1 94.8622 3.46465 92.603 3.46465 90.3437C3.46465 88.0844 1 85.8252 1 83.5659C1 81.3066 3.46465 79.0474 3.46465 76.7881C3.46465 74.5288 1 72.2696 1 70.0103C1 67.751 3.46465 65.4918 3.46465 63.2325C3.46465 60.9732 1 58.714 1 56.4547C1 54.1954 3.46465 51.9362 3.46465 49.6769C3.46465 47.4176 1 45.1584 1 42.8991C1 40.6398 3.46465 38.3806 3.46465 36.1213C3.46465 33.862 1 31.6028 1 29.3435C1 27.0843 3.46465 24.825 3.46465 22.5657C3.46465 20.3065 1 18.0472 1 15.7879C1 13.5287 3.46465 11.2694 3.46465 9.01013C3.46465 6.75086 1.38209 3.60024 1.38209 1.34098C3.74816 1.34098 6.96457 3.46465 9.33064 3.46465C11.6967 3.46465 14.0627 1 16.4288 1C18.7948 1 21.1608 3.46465 23.5269 3.46465C25.8929 3.46465 28.2591 1 30.6252 1C32.9913 1 35.3572 3.46465 37.7233 3.46465C40.0894 3.46465 42.4555 1 44.8216 1C47.1877 1 49.5537 3.46465 51.9197 3.46465C54.2858 3.46465 56.652 1 59.018 1C61.3841 1 63.7501 3.46465 66.1162 3.46465C68.4822 3.46465 70.8484 1 73.2145 1C75.5805 1 77.9465 3.46465 80.3126 3.46465C82.6787 3.46465 85.0446 1 87.4107 1C89.7768 1 92.143 3.46465 94.509 3.46465C96.8751 3.46465 99.2411 1 101.607 1C103.973 1 106.339 3.46465 108.705 3.46465C111.072 3.46465 113.437 1 115.804 1C118.17 1 120.536 3.46465 122.902 3.46465C125.268 3.46465 127.634 1 130 1C132.366 1 134.732 3.46465 137.098 3.46465C139.464 3.46465 141.83 1 144.196 1C146.562 1 148.928 3.46465 151.295 3.46465C153.661 3.46465 156.027 1 158.393 1C160.759 1 163.125 3.46465 165.491 3.46465C167.857 3.46465 170.223 1 172.589 1C174.955 1 177.321 3.46465 179.687 3.46465C182.053 3.46465 184.42 1 186.786 1C189.152 1 191.518 3.46465 193.884 3.46465C196.25 3.46465 198.616 1 200.982 1C203.348 1 205.714 3.46465 208.08 3.46465C210.446 3.46465 212.812 1 215.178 1C217.544 1 219.911 3.46465 222.277 3.46465C224.643 3.46465 227.009 1 229.375 1C231.741 1 234.107 3.46465 236.473 3.46465C238.839 3.46465 241.205 1 243.571 1C245.937 1 248.303 3.46465 250.67 3.46465C253.036 3.46465 256.252 1.34098 258.618 1.34098C258.618 3.60024 256.535 6.75086 256.535 9.01013C256.535 11.2694 259 13.5287 259 15.7879C259 18.0472 256.535 20.3065 256.535 22.5657C256.535 24.825 259 27.0843 259 29.3435C259 31.6028 256.535 33.862 256.535 36.1213C256.535 38.3806 259 40.6398 259 42.8991C259 45.1584 256.535 47.4176 256.535 49.6769C256.535 51.9362 259 54.1954 259 56.4547C259 58.714 256.535 60.9732 256.535 63.2325C256.535 65.4918 259 67.751 259 70.0103C259 72.2696 256.535 74.5288 256.535 76.7881C256.535 79.0474 259 81.3066 259 83.5659C259 85.8252 256.535 88.0844 256.535 90.3437C256.535 92.603 259 94.8622 259 97.1215C259 99.3808 256.535 101.64 256.535 103.899C256.535 106.159 259 108.418 259 110.677C259 112.936 256.535 115.196 256.535 117.455C256.535 119.714 259 121.973 259 124.233C259 126.492 256.535 128.751 256.535 131.01C256.535 133.27 259 135.529 259 137.788C259 140.048 256.535 142.307 256.535 144.566C256.535 146.825 259 149.085 259 151.344C259 153.603 256.535 155.862 256.535 158.122C256.535 160.381 259 162.64 259 164.899C259 167.159 256.535 169.418 256.535 171.677C256.535 173.937 259 176.196 259 178.455C259 180.714 256.535 182.974 256.535 185.233C256.535 187.492 259 189.751 259 192.011C259 194.27 256.535 196.529 256.535 198.788C256.535 201.048 259 203.307 259 205.566C259 207.826 256.535 210.085 256.535 212.344C256.535 214.603 259 216.863 259 219.122C259 221.381 256.535 223.64 256.535 225.9C256.535 228.159 259 230.418 259 232.677C259 234.937 256.535 237.196 256.535 239.455C256.535 241.715 258.618 244.865 258.618 247.124Z" fill="#F0EFEA"/>
<path d="M258.618 247.124C256.252 247.124 253.036 245.001 250.67 245.001C248.303 245.001 245.937 247.465 243.571 247.465C241.205 247.465 238.839 245.001 236.473 245.001C234.107 245.001 231.741 247.465 229.375 247.465C227.009 247.465 224.643 245.001 222.277 245.001C219.911 245.001 217.544 247.465 215.178 247.465C212.812 247.465 210.446 245.001 208.08 245.001C205.714 245.001 203.348 247.465 200.982 247.465C198.616 247.465 196.25 245.001 193.884 245.001C191.518 245.001 189.152 247.465 186.786 247.465C184.42 247.465 182.053 245.001 179.687 245.001C177.321 245.001 174.955 247.465 172.589 247.465C170.223 247.465 167.857 245.001 165.491 245.001C163.125 245.001 160.759 247.465 158.393 247.465C156.027 247.465 153.661 245.001 151.295 245.001C148.928 245.001 146.562 247.465 144.196 247.465C141.83 247.465 139.464 245.001 137.098 245.001C134.732 245.001 132.366 247.465 130 247.465C127.634 247.465 125.268 245.001 122.902 245.001C120.536 245.001 118.17 247.465 115.804 247.465C113.437 247.465 111.072 245.001 108.705 245.001C106.339 245.001 103.973 247.465 101.607 247.465C99.2411 247.465 96.8751 245.001 94.509 245.001C92.143 245.001 89.7768 247.465 87.4107 247.465C85.0446 247.465 82.6787 245.001 80.3126 245.001C77.9465 245.001 75.5805 247.465 73.2145 247.465C70.8484 247.465 68.4822 245.001 66.1162 245.001C63.7501 245.001 61.3841 247.465 59.018 247.465C56.652 247.465 54.2858 245.001 51.9197 245.001C49.5537 245.001 47.1877 247.465 44.8216 247.465C42.4555 247.465 40.0894 245.001 37.7233 245.001C35.3572 245.001 32.9913 247.465 30.6252 247.465C28.2591 247.465 25.8929 245.001 23.5269 245.001C21.1608 245.001 18.7948 247.465 16.4288 247.465C14.0627 247.465 11.6967 245.001 9.33064 245.001C6.96457 245.001 3.74816 247.124 1.38209 247.124C1.38209 244.865 3.46465 241.715 3.46465 239.455C3.46465 237.196 1 234.937 1 232.677C1 230.418 3.46465 228.159 3.46465 225.9C3.46465 223.64 1 221.381 1 219.122C1 216.863 3.46465 214.603 3.46465 212.344C3.46465 210.085 1 207.826 1 205.566C1 203.307 3.46465 201.048 3.46465 198.788C3.46465 196.529 1 194.27 1 192.011C1 189.751 3.46465 187.492 3.46465 185.233C3.46465 182.974 1 180.714 1 178.455C1 176.196 3.46465 173.937 3.46465 171.677C3.46465 169.418 1 167.159 1 164.899C1 162.64 3.46465 160.381 3.46465 158.122C3.46465 155.862 1 153.603 1 151.344C1 149.085 3.46465 146.825 3.46465 144.566C3.46465 142.307 1 140.048 1 137.788C1 135.529 3.46465 133.27 3.46465 131.01C3.46465 128.751 1 126.492 1 124.233C1 121.973 3.46465 119.714 3.46465 117.455C3.46465 115.196 1 112.936 1 110.677C1 108.418 3.46465 106.159 3.46465 103.899C3.46465 101.64 1 99.3808 1 97.1215C1 94.8622 3.46465 92.603 3.46465 90.3437C3.46465 88.0844 1 85.8252 1 83.5659C1 81.3066 3.46465 79.0474 3.46465 76.7881C3.46465 74.5288 1 72.2696 1 70.0103C1 67.751 3.46465 65.4918 3.46465 63.2325C3.46465 60.9732 1 58.714 1 56.4547C1 54.1954 3.46465 51.9362 3.46465 49.6769C3.46465 47.4176 1 45.1584 1 42.8991C1 40.6398 3.46465 38.3806 3.46465 36.1213C3.46465 33.8621 1 31.6028 1 29.3435C1 27.0843 3.46465 24.825 3.46465 22.5657C3.46465 20.3065 1 18.0472 1 15.7879C1 13.5287 3.46465 11.2694 3.46465 9.01012C3.46465 6.75086 1.38209 3.60024 1.38209 1.34098C3.74816 1.34098 6.96457 3.46465 9.33064 3.46465C11.6967 3.46465 14.0627 1 16.4288 1C18.7948 1 21.1608 3.46465 23.5269 3.46465C25.8929 3.46465 28.2591 1 30.6252 1C32.9913 1 35.3572 3.46465 37.7233 3.46465C40.0894 3.46465 42.4555 1 44.8216 1C47.1877 1 49.5537 3.46465 51.9197 3.46465C54.2858 3.46465 56.652 1 59.018 1C61.3841 1 63.7501 3.46465 66.1162 3.46465C68.4822 3.46465 70.8484 1 73.2145 1C75.5805 1 77.9465 3.46465 80.3126 3.46465C82.6787 3.46465 85.0446 1 87.4107 1C89.7768 1 92.143 3.46465 94.509 3.46465C96.8751 3.46465 99.2411 1 101.607 1C103.973 1 106.339 3.46465 108.705 3.46465C111.072 3.46465 113.437 1 115.804 1C118.17 1 120.536 3.46465 122.902 3.46465C125.268 3.46465 127.634 1 130 1C132.366 1 134.732 3.46465 137.098 3.46465C139.464 3.46465 141.83 1 144.196 1C146.562 1 148.928 3.46465 151.295 3.46465C153.661 3.46465 156.027 1 158.393 1C160.759 1 163.125 3.46465 165.491 3.46465C167.857 3.46465 170.223 1 172.589 1C174.955 1 177.321 3.46465 179.687 3.46465C182.053 3.46465 184.42 1 186.786 1C189.152 1 191.518 3.46465 193.884 3.46465C196.25 3.46465 198.616 1 200.982 1C203.348 1 205.714 3.46465 208.08 3.46465C210.446 3.46465 212.812 1 215.178 1C217.544 1 219.911 3.46465 222.277 3.46465C224.643 3.46465 227.009 1 229.375 1C231.741 1 234.107 3.46465 236.473 3.46465C238.839 3.46465 241.205 1 243.571 1C245.937 1 248.303 3.46465 250.67 3.46465C253.036 3.46465 256.252 1.34098 258.618 1.34098C258.618 3.60024 256.535 6.75086 256.535 9.01012C256.535 11.2694 259 13.5287 259 15.7879C259 18.0472 256.535 20.3065 256.535 22.5657C256.535 24.825 259 27.0843 259 29.3435C259 31.6028 256.535 33.8621 256.535 36.1213C256.535 38.3806 259 40.6398 259 42.8991C259 45.1584 256.535 47.4176 256.535 49.6769C256.535 51.9362 259 54.1954 259 56.4547C259 58.714 256.535 60.9732 256.535 63.2325C256.535 65.4918 259 67.751 259 70.0103C259 72.2696 256.535 74.5288 256.535 76.7881C256.535 79.0474 259 81.3066 259 83.5659C259 85.8252 256.535 88.0844 256.535 90.3437C256.535 92.603 259 94.8622 259 97.1215C259 99.3808 256.535 101.64 256.535 103.899C256.535 106.159 259 108.418 259 110.677C259 112.936 256.535 115.196 256.535 117.455C256.535 119.714 259 121.973 259 124.233C259 126.492 256.535 128.751 256.535 131.01C256.535 133.27 259 135.529 259 137.788C259 140.048 256.535 142.307 256.535 144.566C256.535 146.825 259 149.085 259 151.344C259 153.603 256.535 155.862 256.535 158.122C256.535 160.381 259 162.64 259 164.899C259 167.159 256.535 169.418 256.535 171.677C256.535 173.937 259 176.196 259 178.455C259 180.714 256.535 182.974 256.535 185.233C256.535 187.492 259 189.751 259 192.011C259 194.27 256.535 196.529 256.535 198.788C256.535 201.048 259 203.307 259 205.566C259 207.826 256.535 210.085 256.535 212.344C256.535 214.603 259 216.863 259 219.122C259 221.381 256.535 223.64 256.535 225.9C256.535 228.159 259 230.418 259 232.677C259 234.937 256.535 237.196 256.535 239.455C256.535 241.715 258.618 244.865 258.618 247.124Z" stroke="#F0EFEA" stroke-miterlimit="10"/>
<path opacity="0.5" d="M83.7974 127.199H79.5594V114.108H83.9316C85.2143 114.108 86.3158 114.37 87.2363 114.895C88.1567 115.414 88.862 116.162 89.352 117.138C89.8464 118.11 90.0935 119.275 90.0935 120.635C90.0935 121.998 89.8442 123.17 89.3456 124.15C88.8513 125.13 88.1354 125.885 87.1979 126.413C86.2604 126.937 85.1269 127.199 83.7974 127.199ZM81.5346 125.473H83.6887C84.6858 125.473 85.5147 125.286 86.1752 124.911C86.8357 124.532 87.33 123.984 87.6581 123.268C87.9863 122.548 88.1503 121.67 88.1503 120.635C88.1503 119.608 87.9863 118.736 87.6581 118.02C87.3343 117.304 86.8506 116.761 86.2072 116.39C85.5637 116.02 84.7647 115.834 83.8101 115.834H81.5346V125.473ZM92.1983 127.199V117.381H94.0456V118.941H94.1478C94.3268 118.412 94.6421 117.997 95.0938 117.694C95.5498 117.387 96.0654 117.234 96.6407 117.234C96.76 117.234 96.9007 117.238 97.0626 117.247C97.2288 117.255 97.3588 117.266 97.4525 117.279V119.107C97.3758 119.086 97.2394 119.062 97.0434 119.037C96.8474 119.007 96.6514 118.992 96.4554 118.992C96.0036 118.992 95.6009 119.088 95.2473 119.279C94.8978 119.467 94.6208 119.729 94.4163 120.066C94.2117 120.398 94.1095 120.777 94.1095 121.203V127.199H92.1983ZM101.678 127.417C101.056 127.417 100.493 127.301 99.9903 127.071C99.4875 126.837 99.089 126.498 98.795 126.055C98.5052 125.612 98.3603 125.069 98.3603 124.425C98.3603 123.871 98.4669 123.415 98.6799 123.057C98.893 122.699 99.1806 122.416 99.5429 122.207C99.9051 121.998 100.31 121.841 100.757 121.734C101.205 121.627 101.661 121.547 102.125 121.491C102.713 121.423 103.191 121.368 103.557 121.325C103.924 121.278 104.19 121.203 104.356 121.101C104.522 120.999 104.605 120.833 104.605 120.603V120.558C104.605 120 104.448 119.567 104.132 119.26C103.821 118.953 103.357 118.8 102.739 118.8C102.095 118.8 101.588 118.943 101.218 119.228C100.851 119.51 100.598 119.823 100.457 120.168L98.6608 119.759C98.8738 119.162 99.1849 118.681 99.594 118.314C100.007 117.944 100.482 117.675 101.019 117.509C101.556 117.338 102.121 117.253 102.713 117.253C103.105 117.253 103.521 117.3 103.96 117.394C104.403 117.483 104.816 117.65 105.2 117.892C105.588 118.135 105.905 118.483 106.152 118.934C106.399 119.382 106.523 119.963 106.523 120.679V127.199H104.656V125.857H104.58C104.456 126.104 104.271 126.347 104.024 126.586C103.777 126.824 103.459 127.022 103.071 127.18C102.683 127.338 102.219 127.417 101.678 127.417ZM102.093 125.882C102.622 125.882 103.073 125.778 103.448 125.569C103.828 125.36 104.115 125.088 104.311 124.751C104.512 124.41 104.612 124.046 104.612 123.658V122.392C104.544 122.461 104.411 122.525 104.215 122.584C104.024 122.64 103.804 122.689 103.557 122.731C103.31 122.77 103.069 122.806 102.835 122.84C102.6 122.87 102.404 122.895 102.247 122.917C101.876 122.963 101.537 123.042 101.23 123.153C100.928 123.264 100.685 123.424 100.502 123.632C100.323 123.837 100.233 124.11 100.233 124.451C100.233 124.924 100.408 125.282 100.757 125.525C101.107 125.763 101.552 125.882 102.093 125.882ZM112.987 131.086C112.207 131.086 111.536 130.983 110.974 130.779C110.415 130.574 109.959 130.304 109.606 129.967C109.252 129.63 108.988 129.262 108.813 128.861L110.456 128.184C110.571 128.371 110.724 128.569 110.916 128.778C111.112 128.991 111.376 129.172 111.709 129.321C112.045 129.471 112.478 129.545 113.006 129.545C113.731 129.545 114.329 129.368 114.802 129.015C115.275 128.665 115.512 128.107 115.512 127.34V125.409H115.39C115.275 125.618 115.109 125.85 114.892 126.106C114.679 126.362 114.385 126.583 114.01 126.771C113.635 126.958 113.147 127.052 112.546 127.052C111.77 127.052 111.072 126.871 110.449 126.509C109.832 126.142 109.341 125.603 108.979 124.892C108.621 124.176 108.442 123.296 108.442 122.252C108.442 121.208 108.619 120.313 108.973 119.567C109.331 118.821 109.821 118.25 110.443 117.854C111.065 117.453 111.77 117.253 112.559 117.253C113.168 117.253 113.66 117.355 114.035 117.56C114.41 117.76 114.702 117.995 114.911 118.263C115.124 118.532 115.288 118.768 115.403 118.973H115.544V117.381H117.417V127.417C117.417 128.26 117.221 128.953 116.829 129.494C116.437 130.035 115.906 130.436 115.237 130.696C114.572 130.956 113.822 131.086 112.987 131.086ZM112.968 125.467C113.518 125.467 113.982 125.339 114.361 125.083C114.745 124.824 115.035 124.453 115.231 123.971C115.431 123.485 115.531 122.904 115.531 122.226C115.531 121.566 115.433 120.984 115.237 120.481C115.041 119.978 114.753 119.586 114.374 119.305C113.995 119.02 113.526 118.877 112.968 118.877C112.393 118.877 111.913 119.026 111.53 119.324C111.146 119.618 110.856 120.019 110.66 120.526C110.469 121.033 110.373 121.6 110.373 122.226C110.373 122.87 110.471 123.434 110.667 123.92C110.863 124.406 111.153 124.785 111.536 125.058C111.924 125.331 112.401 125.467 112.968 125.467ZM126.259 121.37V127.199H124.348V114.108H126.233V118.979H126.355C126.585 118.451 126.936 118.031 127.409 117.72C127.882 117.409 128.5 117.253 129.263 117.253C129.936 117.253 130.524 117.392 131.027 117.669C131.534 117.946 131.926 118.359 132.203 118.909C132.485 119.454 132.625 120.136 132.625 120.954V127.199H130.714V121.184C130.714 120.464 130.529 119.906 130.158 119.51C129.787 119.109 129.272 118.909 128.611 118.909C128.159 118.909 127.755 119.005 127.397 119.196C127.043 119.388 126.764 119.669 126.559 120.04C126.359 120.407 126.259 120.85 126.259 121.37ZM139.209 127.397C138.242 127.397 137.409 127.191 136.71 126.777C136.015 126.36 135.478 125.774 135.099 125.02C134.724 124.261 134.537 123.373 134.537 122.354C134.537 121.348 134.724 120.462 135.099 119.695C135.478 118.928 136.007 118.329 136.684 117.899C137.366 117.468 138.163 117.253 139.075 117.253C139.629 117.253 140.166 117.345 140.686 117.528C141.206 117.711 141.672 117.999 142.086 118.391C142.499 118.783 142.825 119.292 143.064 119.919C143.302 120.541 143.422 121.297 143.422 122.188V122.865H135.617V121.434H141.549C141.549 120.931 141.447 120.485 141.242 120.098C141.037 119.706 140.75 119.397 140.379 119.171C140.013 118.945 139.582 118.832 139.088 118.832C138.551 118.832 138.082 118.964 137.682 119.228C137.285 119.488 136.978 119.829 136.761 120.251C136.548 120.669 136.442 121.123 136.442 121.613V122.731C136.442 123.387 136.557 123.946 136.787 124.406C137.021 124.866 137.347 125.218 137.765 125.461C138.182 125.699 138.67 125.819 139.228 125.819C139.591 125.819 139.921 125.767 140.219 125.665C140.518 125.559 140.775 125.401 140.993 125.192C141.21 124.983 141.376 124.725 141.491 124.419L143.3 124.745C143.155 125.277 142.895 125.744 142.52 126.145C142.15 126.541 141.683 126.85 141.121 127.071C140.562 127.289 139.925 127.397 139.209 127.397ZM145.344 127.199V117.381H147.192V118.941H147.294C147.473 118.412 147.788 117.997 148.24 117.694C148.696 117.387 149.211 117.234 149.787 117.234C149.906 117.234 150.047 117.238 150.209 117.247C150.375 117.255 150.505 117.266 150.598 117.279V119.107C150.522 119.086 150.385 119.062 150.189 119.037C149.993 119.007 149.797 118.992 149.601 118.992C149.15 118.992 148.747 119.088 148.393 119.279C148.044 119.467 147.767 119.729 147.562 120.066C147.358 120.398 147.255 120.777 147.255 121.203V127.199H145.344ZM155.934 127.397C154.967 127.397 154.134 127.191 153.435 126.777C152.741 126.36 152.204 125.774 151.824 125.02C151.449 124.261 151.262 123.373 151.262 122.354C151.262 121.348 151.449 120.462 151.824 119.695C152.204 118.928 152.732 118.329 153.41 117.899C154.091 117.468 154.888 117.253 155.8 117.253C156.354 117.253 156.891 117.345 157.411 117.528C157.931 117.711 158.397 117.999 158.811 118.391C159.224 118.783 159.55 119.292 159.789 119.919C160.027 120.541 160.147 121.297 160.147 122.188V122.865H152.342V121.434H158.274C158.274 120.931 158.172 120.485 157.967 120.098C157.763 119.706 157.475 119.397 157.104 119.171C156.738 118.945 156.307 118.832 155.813 118.832C155.276 118.832 154.807 118.964 154.407 119.228C154.01 119.488 153.704 119.829 153.486 120.251C153.273 120.669 153.167 121.123 153.167 121.613V122.731C153.167 123.387 153.282 123.946 153.512 124.406C153.746 124.866 154.072 125.218 154.49 125.461C154.907 125.699 155.395 125.819 155.954 125.819C156.316 125.819 156.646 125.767 156.944 125.665C157.243 125.559 157.5 125.401 157.718 125.192C157.935 124.983 158.101 124.725 158.216 124.419L160.025 124.745C159.88 125.277 159.62 125.744 159.245 126.145C158.875 126.541 158.408 126.85 157.846 127.071C157.287 127.289 156.65 127.397 155.934 127.397Z" fill="#6E3F00"/>
<rect x="20" y="18" width="220" height="211" fill="#DED2C2"/>
</svg>
