<svg width="1240" height="217" viewBox="0 0 1240 217" fill="none" xmlns="http://www.w3.org/2000/svg">
<path d="M108.075 59.6589C110.41 68.3707 103.581 77.9454 92.545 80.9029C81.5087 83.8604 70.8073 78.9834 68.4727 70.2717C66.1381 61.5599 72.9668 51.9851 84.0031 49.0276C95.0394 46.0701 105.741 50.9471 108.075 59.6589Z" fill="#623800" stroke="#623800"/>
<path d="M228.028 63.0319C230.362 71.7437 223.534 81.3184 212.497 84.276C201.461 87.2335 190.759 82.3565 188.425 73.6447C186.09 64.9329 192.919 55.3582 203.955 52.4007C214.992 49.4431 225.693 54.3201 228.028 63.0319Z" fill="#623800" stroke="#623800"/>
<path d="M345.981 66.3503C348.316 75.0621 341.487 84.6368 330.451 87.5943C319.415 90.5518 308.713 85.6748 306.378 76.9631C304.044 68.2513 310.873 58.6765 321.909 55.719C332.945 52.7615 343.647 57.6385 345.981 66.3503Z" fill="#623800" stroke="#623800"/>
<path d="M69.665 69.1484L66.6846 175.107" stroke="#623800" stroke-width="3"/>
<path d="M189.118 72.5098L186.137 178.468" stroke="#623800" stroke-width="3"/>
<path d="M307.071 75.8262L304.091 181.784" stroke="#623800" stroke-width="3"/>
<path d="M65.8535 169.082L307.258 175.872" stroke="#623800" stroke-width="12"/>
<path d="M67.0845 143.105L187.037 146.48" stroke="#623800" stroke-width="12"/>
<path d="M796.34 134.567C793.761 125.924 800.318 116.161 811.267 112.895C822.215 109.628 833.05 114.202 835.628 122.845C838.207 131.487 831.65 141.25 820.701 144.517C809.753 147.784 798.918 143.21 796.34 134.567Z" fill="#623800" stroke="#623800"/>
<path d="M676.34 134.567C673.761 125.924 680.318 116.161 691.267 112.895C702.215 109.628 713.05 114.202 715.628 122.845C718.207 131.487 711.65 141.25 700.701 144.517C689.753 147.784 678.918 143.21 676.34 134.567Z" fill="#623800" stroke="#623800"/>
<path d="M593.34 134.567C590.761 125.924 597.318 116.161 608.267 112.895C619.215 109.628 630.05 114.202 632.628 122.845C635.207 131.487 628.65 141.25 617.701 144.517C606.753 147.784 595.918 143.21 593.34 134.567Z" fill="#623800" stroke="#623800"/>
<path d="M834.468 124L834.468 18" stroke="#623800" stroke-width="3"/>
<path d="M714.968 124L714.968 18" stroke="#623800" stroke-width="3"/>
<path d="M631.968 124L631.968 18" stroke="#623800" stroke-width="3"/>
<path d="M835 24L632 24" stroke="#623800" stroke-width="12"/>
<path d="M715 47H632" stroke="#623800" stroke-width="12"/>
<path d="M461.628 24.4332C464.207 33.0759 457.65 42.8388 446.701 46.1055C435.752 49.3721 424.918 44.798 422.34 36.1552C419.761 27.5125 426.318 17.7496 437.266 14.4829C448.215 11.2163 459.049 15.7905 461.628 24.4332Z" fill="#623800" stroke="#623800"/>
<path d="M423 35V141" stroke="#623800" stroke-width="3"/>
<path d="M996.628 100.437C999.207 109.08 992.65 118.843 981.701 122.109C970.752 125.376 959.918 120.802 957.34 112.159C954.761 103.516 961.318 93.7535 972.266 90.4869C983.215 87.2202 994.049 91.7944 996.628 100.437Z" fill="#623800" stroke="#623800"/>
<path d="M958 111.004V217.004" stroke="#623800" stroke-width="3"/>
<g opacity="0.18">
<path d="M1 182.998L1263 209.612" stroke="#623800" stroke-width="7"/>
<path d="M1 140.502L1263 167.116" stroke="#623800" stroke-width="7"/>
<path d="M1 88.9922L1263 115.606" stroke="#623800" stroke-width="7"/>
<path d="M1 46.9258L1263 73.5394" stroke="#623800" stroke-width="7"/>
<path d="M1 4L1263 30.6136" stroke="#623800" stroke-width="7"/>
</g>
</svg>
