<svg width="103" height="104" viewBox="0 0 103 104" fill="none" xmlns="http://www.w3.org/2000/svg">
<path d="M44.1565 96.3291C68.5435 100.317 91.5749 83.6019 95.5985 58.9952C99.6222 34.3885 83.1145 11.2082 58.7275 7.22045C34.3406 3.2327 11.3092 19.9477 7.28554 44.5543C3.26187 69.161 19.7696 92.3413 44.1565 96.3291Z" fill="#F1E7DD"/>
<path d="M34.6309 89.3164C34.7808 89.3822 34.7281 89.3675 34.6309 89.3164Z" fill="#DD8C21"/>
<path d="M26.7733 18.7109C26.7997 18.6905 26.8137 18.6804 26.8386 18.6598C26.8688 18.5984 26.8979 18.543 26.9291 18.494L26.7717 18.7106L26.7733 18.7109Z" fill="#DD8C21"/>
<path d="M38.8974 12.4473C38.9295 12.4402 38.9503 12.4359 38.9791 12.4298C38.9663 12.4138 38.9759 12.3922 38.8974 12.4473Z" fill="#DD8C21"/>
<path d="M11.2988 45.3369C11.2797 45.4542 11.2781 45.5203 11.2825 45.5688C11.2858 45.5015 11.2896 45.4311 11.2988 45.3369Z" fill="#DD8C21"/>
<path d="M59.0725 92.2444C59.0725 92.2444 59.0389 92.2513 59.0149 92.2567C59.0629 92.2553 59.113 92.2511 59.1626 92.2499L59.0727 92.243L59.0725 92.2444Z" fill="#DD8C21"/>
<path d="M58.8118 92.3413C58.5118 92.3692 58.8856 92.2856 59.0148 92.2574C58.68 92.272 58.3531 92.3232 58.0254 92.3973C58.0348 92.4435 58.6595 92.3317 58.8134 92.3415L58.8118 92.3413Z" fill="#DD8C21"/>
<path d="M90.8918 63.4062L90.8697 63.5415C90.8833 63.4866 90.8887 63.4443 90.8918 63.4062Z" fill="#DD8C21"/>
<path d="M13.7976 44.4502C13.7888 44.5136 13.7802 44.5847 13.7722 44.6436C13.7929 44.5451 13.7972 44.4903 13.7976 44.4502Z" fill="#DD8C21"/>
<path d="M88.2605 70.0108L88.2913 70.1122C88.2958 70.038 88.2816 70.0127 88.2605 70.0108Z" fill="#DD8C21"/>
<path d="M26.929 18.4942L26.9901 18.4109C26.9675 18.4363 26.9478 18.4636 26.929 18.4942Z" fill="#DD8C21"/>
<path d="M51.3118 10.3789C51.3173 10.4014 51.3452 10.4198 51.3798 10.4348C51.3953 10.4342 51.4076 10.4347 51.4154 10.4344L51.3118 10.3789Z" fill="#DD8C21"/>
<path d="M91.6863 50.1152C91.6948 50.1104 91.7043 50.0997 91.715 50.0813C91.6975 49.9998 91.6707 49.9183 91.6487 49.8359C91.6629 49.9664 91.6758 50.0564 91.6863 50.1152Z" fill="#DD8C21"/>
<path d="M68.0429 14.0415C68.0602 14.0397 68.1019 14.048 68.1079 14.0398C67.9774 13.9722 67.732 13.8629 67.4052 13.7248C67.2409 13.6564 67.0582 13.5788 66.8579 13.4952C66.6571 13.4147 66.4421 13.318 66.2069 13.241L66.1176 13.3064C66.4458 13.4078 66.7619 13.5457 67.0822 13.6673L68.0427 14.0429L68.0429 14.0415Z" fill="#DD8C21"/>
<path d="M81.3246 26.5657L81.0825 26.2014C81.0025 26.0791 80.9207 25.9579 80.8334 25.8421L80.3146 25.137C80.5544 25.3932 80.7849 25.6402 81.0089 25.88C81.2239 26.1276 81.4254 26.3729 81.6254 26.6088C81.8236 26.8459 82.0154 27.0758 82.2018 27.3002C82.3831 27.5284 82.5486 27.7587 82.7156 27.9799C83.394 28.8573 83.9313 29.7039 84.4674 30.5196C84.7191 30.9378 84.9672 31.3509 85.2176 31.7674C85.3471 31.9732 85.4614 32.1874 85.5799 32.4038C85.6987 32.6187 85.8184 32.8368 85.9395 33.0567C86.0603 33.278 86.189 33.4977 86.3099 33.7283C86.4274 33.9599 86.5458 34.1963 86.6679 34.4379C86.7917 34.6782 86.9176 34.925 87.047 35.1786C87.1798 35.4297 87.2911 35.7003 87.4207 35.9708L87.2794 35.743C87.3386 35.9081 87.4164 36.044 87.5397 36.2689C87.6013 36.382 87.6746 36.5172 87.7635 36.6887C87.8524 36.8602 87.9568 37.0697 88.0622 37.3378C88.1709 37.6049 88.2957 37.9239 88.4385 38.312C88.5068 38.5063 88.5946 38.7131 88.6607 38.9486C88.7289 39.1814 88.8031 39.4336 88.8831 39.7068C88.9601 39.9795 89.0428 40.2732 89.1312 40.5893C89.2051 40.9092 89.2783 41.2521 89.3569 41.6189C89.3961 41.8023 89.4359 41.992 89.4777 42.1881C89.4985 42.287 89.5177 42.3855 89.5395 42.4876C89.5551 42.5902 89.5719 42.6945 89.5887 42.7988C89.6521 43.2202 89.719 43.6682 89.7904 44.1447L89.7729 44.148C89.8336 44.4072 89.864 44.3999 89.9029 44.9342C89.8837 44.7125 89.8723 44.4906 89.8469 44.2694L89.7627 43.6076C89.9913 44.3745 90.1649 45.054 90.3564 46.1042C90.3716 46.3314 90.3352 46.4132 90.311 46.4385C90.416 47.3021 90.5443 48.165 90.5914 49.0346L90.523 49.8392C90.5538 50.0366 90.5839 50.1631 90.6152 50.2729C90.6465 50.3827 90.6815 50.4792 90.7099 50.6162C90.7383 50.7532 90.7611 50.9339 90.7694 51.2123C90.7744 51.3517 90.775 51.5165 90.7706 51.7128C90.7685 51.8109 90.7651 51.9166 90.7614 52.0329C90.7503 52.1481 90.7392 52.2725 90.7251 52.4056C90.9292 51.6002 90.7893 53.472 90.8889 53.2112C90.8635 53.3194 90.822 53.5635 90.7854 53.7591C90.7832 53.8388 90.7817 53.9232 90.7797 54.0106C90.773 54.0988 90.7673 54.1902 90.7611 54.2846C90.7487 54.4734 90.7343 54.6743 90.7207 54.8798C90.69 55.2934 90.6736 55.7325 90.6362 56.1496C90.5479 56.9817 90.4792 57.7308 90.4819 58.0344C90.4819 58.0344 90.5476 57.7266 90.6508 57.2463C90.7482 56.7636 90.917 56.1078 91.0204 55.3998C91.0813 55.0465 91.1426 54.681 91.2042 54.3232C91.2189 54.2333 91.2351 54.1436 91.2511 54.0554C91.2626 53.9664 91.274 53.8775 91.2852 53.7901C91.3077 53.6152 91.3281 53.4431 91.3491 53.2772C91.4282 52.6145 91.5248 52.0423 91.5545 51.7009C91.5528 51.8145 91.5514 51.9174 91.5505 52.0081C91.548 52.0985 91.5412 52.1774 91.5377 52.246C91.5306 52.3834 91.5271 52.4798 91.5231 52.5423C91.5195 52.6679 91.5255 52.6596 91.538 52.5832C91.5597 52.4313 91.6156 52.0049 91.6346 51.8233L91.5899 51.7005C91.617 50.6029 91.7269 50.5993 91.7507 50.0491C91.7415 50.0492 91.7311 50.0659 91.7206 50.0827L91.7368 50.1531C91.7175 50.2053 91.7039 50.1754 91.692 50.1165C91.668 50.1311 91.6547 50.0812 91.639 49.7816L91.6544 49.838C91.6093 49.3796 91.5772 48.5879 91.5629 48.2423L91.6545 48.228C91.6411 48.1781 91.6272 48.1128 91.6169 48.0341C91.602 47.9563 91.5877 47.8647 91.5724 47.7606C91.5445 47.5544 91.518 47.3023 91.4952 47.0184C91.4709 46.7343 91.4502 46.4185 91.4294 46.0842C91.3959 45.7524 91.3592 45.4032 91.3226 45.0525C91.2861 44.7017 91.2581 44.3462 91.2171 44.004C91.1681 43.6635 91.1201 43.3355 91.0755 43.0343C91.0293 42.7328 90.988 42.4582 90.9524 42.2245C90.9119 41.9917 90.8627 41.8036 90.8308 41.6691C90.788 41.3943 90.7242 41.1068 90.6484 40.8081C90.5723 40.5109 90.4907 40.2006 90.3779 39.8928C90.2718 39.5814 90.1637 39.2636 90.0535 38.9393C90.0016 38.7769 89.95 38.613 89.8968 38.4489C89.8468 38.2837 89.7839 38.1226 89.7324 37.9572C88.9859 35.8774 89.4842 36.8684 89.1258 35.8125C88.6309 34.5095 89.1382 36.1131 88.9124 35.6022L88.643 34.8116C88.5556 34.5464 88.4432 34.2926 88.3428 34.0314C88.7764 34.8996 88.5975 34.4025 88.5508 34.2271C88.3965 33.9002 88.2275 33.5216 88.0555 33.1333C88.013 33.0356 87.9688 32.9391 87.9263 32.8413C87.8821 32.7448 87.8313 32.6503 87.7838 32.5548C87.6871 32.3651 87.5929 32.1789 87.5009 31.9976C87.3165 31.6381 87.1412 31.3077 86.9876 31.0518C86.8241 30.8003 86.6842 30.6204 86.5883 30.5478C86.3535 30.12 86.1802 29.7962 86.0451 29.5401C85.9117 29.2828 85.8008 29.1046 85.7169 28.9493C85.5454 28.6427 85.4437 28.4552 85.2114 28.1063C85.3425 28.3586 85.6306 28.8367 85.602 28.8613C85.229 28.1677 85.3754 28.5625 85.5398 28.8372C85.4483 28.7191 85.3286 28.5472 85.1904 28.3384C85.1214 28.2332 85.0479 28.1181 84.9693 27.996C84.9302 27.9341 84.8911 27.8723 84.8494 27.807C84.8058 27.7445 84.7608 27.6802 84.7162 27.6144C84.5348 27.3493 84.3399 27.0634 84.1388 26.7689C83.9376 26.4743 83.7386 26.1663 83.517 25.8838C83.3006 25.5976 83.0881 25.3165 82.8907 25.0549C82.6934 24.7933 82.5078 24.5537 82.3302 24.3599C81.9836 23.9662 81.7306 23.7063 81.6524 23.695L81.6796 23.6702C81.3826 23.5663 81.5759 23.9934 80.9572 23.4382L80.6132 23.0003L79.977 22.4576C79.6146 22.029 79.8372 22.1931 79.8501 22.1798C79.6037 21.9456 79.311 21.7115 79.019 21.4452C78.7271 21.1789 78.4203 20.8994 78.1056 20.6125C77.7828 20.3365 77.4521 20.0531 77.1253 19.7734C76.9603 19.6341 76.8006 19.491 76.6346 19.3577C76.4664 19.2286 76.2997 19.0997 76.1355 18.9744C76.3255 19.2055 76.5255 19.4229 76.7065 19.6618L77.2493 20.3708C76.2754 19.3897 74.3195 17.8155 74.0093 17.7833L73.391 17.2066C72.8291 16.793 72.4382 16.529 72.1555 16.3566C71.8746 16.1829 71.6998 16.1035 71.5633 16.0627C71.2941 15.9771 71.1993 16.0109 70.7292 15.7139C70.3413 15.4504 69.9562 15.1796 69.5512 14.9457C69.9756 15.1366 70.382 15.3616 70.7922 15.5826C70.494 15.4015 70.2394 15.246 70.011 15.1086C69.7783 14.9782 69.5724 14.863 69.3733 14.7535C68.9754 14.5329 68.6178 14.3098 68.1243 14.0428C68.1243 14.0428 68.1123 14.0409 68.1108 14.0406C68.1791 14.0749 68.2226 14.1004 68.2282 14.1137L68.0459 14.0423C67.8586 14.0487 67.1682 13.8095 66.2556 13.4418C65.5991 13.2021 65.0079 13.0053 64.3166 12.7814C63.9669 12.6796 63.5957 12.5682 63.178 12.4306C62.9691 12.3626 62.7504 12.2883 62.5176 12.2056C62.2817 12.1332 62.0327 12.0556 61.7647 11.9717L61.188 11.9882C60.9208 11.9091 60.6533 11.8223 60.3849 11.7507L59.5712 11.5499L59.5938 11.4305C59.9976 11.5119 60.4943 11.59 61.0318 11.7287C61.3015 11.7928 61.5846 11.8591 61.8767 11.9269C62.1666 11.9989 62.4699 12.0547 62.7686 12.1482C63.3667 12.3214 63.982 12.4928 64.5701 12.6705C65.1513 12.8718 65.7091 13.0661 66.2103 13.2389L66.2644 13.2C65.6704 12.9921 65.0332 12.7755 64.4438 12.5868C63.8475 12.4216 63.3027 12.2709 62.906 12.146C62.81 12.1118 62.6784 12.0595 62.5462 12.0025C62.4127 11.953 62.2769 11.8985 62.1784 11.8516C61.9798 11.7576 61.9232 11.6898 62.2999 11.7391L61.5138 11.6706C60.4949 11.407 59.7125 11.2883 59.0624 11.1604C58.4134 11.0251 57.8806 10.9703 57.3467 10.8845C57.0794 10.8439 56.8108 10.8015 56.524 10.7577C56.2375 10.7124 55.9304 10.6883 55.5895 10.6464C55.248 10.6075 54.8718 10.5644 54.4444 10.5146C54.0158 10.4722 53.5345 10.4504 52.9852 10.4114L53.3656 10.4859C52.9291 10.4915 52.4943 10.4866 52.1375 10.4852C51.7809 10.4915 51.5026 10.4799 51.3811 10.4323C51.0515 10.4338 50.7186 10.4363 50.3875 10.4376C50.2217 10.4351 50.057 10.4451 49.8924 10.4536C49.7279 10.4621 49.5636 10.4691 49.399 10.4776C48.7441 10.5106 48.0984 10.525 47.4861 10.5896C47.179 10.6132 46.8794 10.6381 46.5878 10.6613C46.443 10.6714 46.2997 10.6819 46.1579 10.6926C46.0183 10.7082 45.8803 10.7241 45.7455 10.739C45.2076 10.8003 44.7133 10.8488 44.2799 10.8826C44.1645 10.9484 44.0496 11.0204 43.9372 11.0959C43.3911 11.2067 42.5203 11.1766 42.3003 11.43C41.9171 11.5428 41.5399 11.6751 41.1612 11.7979C40.7915 11.8944 40.4976 11.9879 40.192 12.0872C39.8897 12.1948 39.5711 12.2982 39.1447 12.3931L39.1399 12.3939C39.0872 12.4053 39.0314 12.4177 38.9787 12.4291C38.9795 12.4338 38.9854 12.4348 38.9912 12.4373C38.1574 12.6703 38.1777 12.7152 38.1613 12.7495C38.146 12.787 38.1014 12.8336 37.1625 13.1448C36.847 13.2102 36.6993 13.3138 36.5181 13.4427C36.3402 13.5798 36.1295 13.7393 35.6833 13.9172L34.7133 14.1172C33.9022 14.4463 33.4533 14.6977 32.9236 15.0004C32.6646 15.1628 32.3872 15.3437 32.0368 15.5573C31.6886 15.7759 31.2545 16.0112 30.7245 16.3539C29.6559 16.9303 29.0559 17.0984 29.66 16.5385C29.2333 16.9074 29.1567 17.018 29.022 17.1267C28.8912 17.2393 28.7149 17.3674 28.1339 17.8234C27.9031 17.8888 28.0214 17.7865 28.2504 17.5439C27.9675 17.7115 27.7853 17.828 27.6615 17.917C27.5414 18.0113 27.4754 18.0759 27.4194 18.136C27.3072 18.2577 27.2333 18.361 26.8382 18.6597C26.6982 18.9508 26.578 19.3282 26.3352 19.5332C26.4406 19.4627 26.5535 19.4027 26.663 19.3359C26.4662 19.5038 26.2758 19.6897 26.0763 19.8741C25.8769 20.0585 25.6729 20.2422 25.4609 20.4276C25.3536 20.5194 25.2463 20.6111 25.1372 20.7041C25.0268 20.7953 24.9162 20.888 24.8094 20.986C24.5915 21.1797 24.3661 21.3721 24.1335 21.5619L24.1164 21.4776C23.8145 21.7806 23.4968 22.0673 23.2121 22.387L23.0889 22.3777L22.4569 23.0424C22.2481 23.2652 22.0312 23.4807 21.8357 23.7165L22.022 23.5469C21.8827 23.7119 21.5853 24.0618 21.2488 24.4439C21.0794 24.6332 20.9024 24.8306 20.7347 25.0186C20.5722 25.2121 20.4162 25.3944 20.2796 25.5429L20.2579 25.487C20.0623 25.6952 19.8759 25.9032 19.694 26.112C19.6044 26.2174 19.5151 26.3214 19.4275 26.424C19.3412 26.5284 19.2631 26.6388 19.1808 26.7469C18.859 27.1807 18.5534 27.6186 18.2459 28.0685C17.9622 28.5331 17.6704 29.0087 17.3636 29.5111C17.2045 29.759 17.0627 30.0237 16.909 30.2956C16.7567 30.5677 16.5973 30.8464 16.4286 31.1343L16.5159 30.7792C16.2376 31.1447 16.2409 31.219 16.2407 31.3144C16.2406 31.3621 16.238 31.4156 16.1988 31.5138C16.1612 31.6124 16.0939 31.7599 15.9543 31.9926L15.8136 31.9772C15.6655 32.4409 15.514 32.7086 15.3528 32.9316C15.2715 33.043 15.189 33.1433 15.1039 33.2495C15.0228 33.3593 14.9408 33.4752 14.8573 33.6186L15.1416 33.4142L14.5849 34.5221C14.429 34.826 14.3127 35.0194 14.2349 35.1375C14.1599 35.2576 14.1133 35.2977 14.0833 35.2928C14.0249 35.2832 14.0353 35.0879 14.0347 34.9785L13.8045 35.8967L13.5953 36.0087C13.5068 36.7099 13.2898 36.6252 12.9883 37.7918C12.9023 37.8654 12.9708 37.5688 12.8136 37.9464L12.5876 38.9144L12.4093 39.8919C12.4958 39.5043 12.5663 39.1111 12.6662 38.7257L12.8282 38.9307C12.7289 39.5471 12.6085 39.9445 12.483 40.2979C12.3607 40.6504 12.2261 40.9562 12.159 41.3947C12.1873 41.1931 12.2055 40.9883 12.2471 40.7904C12.0862 41.492 11.9996 41.8612 11.9036 42.1471C11.8121 42.4338 11.7211 42.6421 11.6064 43.0327C11.7008 42.7942 11.8535 42.4344 11.7444 43.0076C11.6755 43.4288 11.6252 43.219 11.5255 43.6121C11.5891 43.6748 11.5915 43.9615 11.5485 44.3469C11.5264 44.5388 11.4938 44.7566 11.451 44.9805C11.4065 45.2056 11.3755 45.4422 11.3228 45.6706C11.3035 45.6567 11.2857 45.6338 11.282 45.5716C11.2735 45.8118 11.2944 45.9384 11.2018 46.3449L11.0726 46.0807L11.1183 46.8931C11.0542 47.1535 11.0464 47.4831 11.036 47.7354C11.024 47.9874 11.0106 48.1637 10.9585 48.1244L10.9516 47.8185C10.8034 49.158 10.7306 50.5066 10.7147 51.8554L10.5853 51.9127C10.6773 52.1125 10.6685 52.6651 10.663 53.1506C10.657 53.3943 10.6665 53.619 10.6887 53.775C10.7094 53.9308 10.7413 54.0176 10.7964 53.982C10.7773 54.1743 10.7864 54.4575 10.8033 54.768C10.8133 54.9236 10.8253 55.0856 10.836 55.2459C10.8415 55.3253 10.8482 55.4064 10.8539 55.4843C10.8626 55.5627 10.8732 55.6398 10.8811 55.7135C10.9531 56.3086 10.9937 56.7569 10.8417 56.5474C10.8767 56.8794 10.9133 57.1917 10.9522 57.4905C11.0006 57.7877 11.0574 58.071 11.111 58.346C11.166 58.6213 11.2207 58.8888 11.2742 59.1546L11.3569 59.5529C11.3907 59.6846 11.4246 59.8164 11.4582 59.9496C11.5975 60.4818 11.7242 61.0336 11.8749 61.6461C11.959 61.9508 12.0437 62.2709 12.1291 62.6143C12.1719 62.7859 12.2151 62.9638 12.2591 63.1465C12.2811 63.2378 12.3026 63.3321 12.3256 63.4267C12.3519 63.5203 12.3777 63.6168 12.4049 63.7136C12.4829 64.2912 12.746 65.3455 13.1742 66.4636C13.276 66.745 13.3795 67.0344 13.4895 67.3217C13.611 67.6047 13.7322 67.8893 13.8512 68.1689C13.9701 68.4484 14.0883 68.7233 14.2018 68.9896C14.3137 69.2557 14.4429 69.5015 14.552 69.7379C14.7873 70.1904 15.0021 70.6273 15.2289 71.0384C15.4641 71.4447 15.6908 71.8373 15.913 72.2199C16.127 72.6058 16.3667 72.9651 16.5973 73.3245C16.8299 73.6812 17.0518 74.0376 17.2871 74.387C17.5311 74.7301 17.7766 75.0734 18.0244 75.4218C18.1483 75.5959 18.2737 75.7704 18.4016 75.9483C18.5367 76.1197 18.6715 76.2925 18.8089 76.4689C19.0857 76.8189 19.363 77.1844 19.6628 77.5535C19.9731 77.9152 20.2948 78.291 20.6324 78.6833C20.7187 78.8144 20.8056 78.9517 20.9059 79.082C21.0061 79.2122 21.1122 79.345 21.2225 79.48C21.4418 79.7483 21.6788 80.0211 21.9259 80.2985C21.9885 80.3672 22.0509 80.4374 22.1136 80.5061C22.1777 80.5751 22.2471 80.6403 22.3147 80.7068C22.4515 80.84 22.5894 80.9749 22.7274 81.1098C23.0067 81.3787 23.2914 81.6515 23.5799 81.9203C23.8796 82.177 24.1821 82.4358 24.4803 82.6924C24.7803 82.9477 25.0682 83.2103 25.3733 83.4433C25.6727 83.6831 25.9634 83.9199 26.2405 84.1545C26.3782 84.2725 26.5147 84.3887 26.6484 84.5029C26.7858 84.6131 26.919 84.7211 27.0459 84.8296L27.7072 85.1717C27.8717 85.3232 28.0522 85.4805 28.2468 85.6369C28.447 85.7866 28.661 85.9371 28.8864 86.0925C29.3384 86.3973 29.8171 86.7357 30.3486 87.0334C30.6111 87.1887 30.878 87.3447 31.1474 87.5042C31.282 87.5847 31.4166 87.6651 31.5527 87.7459C31.6891 87.8251 31.8311 87.8976 31.9692 87.9756C32.2474 88.1289 32.525 88.2851 32.8007 88.4441C33.0766 88.6015 33.3439 88.7745 33.6197 88.9227C34.1985 89.1389 34.4958 89.2599 34.6265 89.3167C34.526 89.2633 34.3798 89.1686 34.3623 89.078C34.5172 89.1665 34.7178 89.267 34.9289 89.3692C35.0344 89.4204 35.1412 89.4732 35.2467 89.5243C35.3545 89.5712 35.461 89.6163 35.5618 89.659C35.9626 89.8338 36.2649 89.9802 36.1889 90.0308L36.0147 89.9761C35.9372 90.0266 36.4465 90.2161 37.0612 90.4474C37.6871 90.6483 38.4182 90.8833 38.7742 91.0785L38.4136 90.7794L39.0474 91.0169L39.6908 91.2237L39.335 91.1501C39.6934 91.2364 40.0385 91.319 40.3731 91.3999C40.7079 91.4793 41.0266 91.573 41.3434 91.6309C41.9746 91.7619 42.5649 91.8984 43.1304 92.0263C43.6998 92.1301 44.2424 92.2373 44.7699 92.3436C44.9026 92.3699 45.032 92.3972 45.1632 92.4233C45.2936 92.4446 45.4243 92.4644 45.5549 92.4843C45.8145 92.5252 46.0727 92.5659 46.3307 92.6065C48.3856 92.9164 50.4409 93.1386 53.1877 92.8782C52.8262 92.9715 53.0965 92.9464 53.4663 92.916C53.837 92.8704 54.3052 92.8208 54.347 92.9138C54.6979 92.9512 55.0344 92.9554 55.3602 92.9394C55.685 92.9202 55.9952 92.8586 56.2972 92.8002C56.9011 92.6743 57.4673 92.5345 58.021 92.3957C58.0194 92.3862 58.0309 92.3726 58.0935 92.3475C58.7466 92.2404 59.4046 92.1602 60.0507 92.0119C58.942 92.5047 61.4061 91.507 60.3851 91.9434C62.9348 91.4861 65.8102 90.5803 68.618 89.288L68.8834 89.1713L69.1432 89.0414L69.6645 88.7804C70.0118 88.6048 70.3604 88.4309 70.7095 88.254L71.7313 87.6807C72.0721 87.4887 72.4161 87.3048 72.7434 87.0921C73.4038 86.6768 74.0743 86.2847 74.7015 85.8378C75.0199 85.622 75.3369 85.4061 75.6519 85.1928C75.9584 84.9659 76.2613 84.7415 76.5641 84.5185L76.3169 84.6274C76.6206 84.3985 76.9422 84.1541 77.2624 83.9001C77.5737 83.634 77.8887 83.3638 78.1948 83.1014C78.3485 82.9711 78.5002 82.8435 78.6484 82.7185C78.7978 82.5952 78.9333 82.4634 79.0697 82.3441C79.3417 82.1023 79.597 81.887 79.8262 81.709C80.2939 81.3622 80.6964 80.8678 81.0407 80.447C81.2123 80.2349 81.3648 80.0367 81.4934 79.8715C81.6167 79.7008 81.715 79.5614 81.7874 79.4763C82.1659 78.9687 82.5911 78.5427 82.8647 78.2811C83.1316 78.0139 83.2672 77.9283 83.0917 78.1351C83.9265 77.068 84.5379 75.9459 85.6468 74.445C85.7778 74.3402 86.0095 74.0149 86.2842 73.5873C86.5435 73.1495 86.8362 72.6017 87.1226 72.0744C87.2698 71.8137 87.3941 71.5432 87.5145 71.2966C87.6351 71.0485 87.7478 70.8207 87.8486 70.6278C88.0486 70.2419 88.2015 69.9945 88.2577 70.0083L88.2483 69.9806C88.5386 69.4571 88.8007 68.9273 89.0498 68.3924C89.1146 68.2599 89.1706 68.1244 89.2224 67.9867L89.3837 67.5744C89.4887 67.2991 89.5937 67.0239 89.6993 66.7456C89.7513 66.6064 89.8048 66.4673 89.8568 66.3281C89.9031 66.1864 89.9493 66.0446 89.9973 65.9017C90.0931 65.6172 90.1891 65.3312 90.2873 65.041C90.3386 64.897 90.3886 64.7513 90.4401 64.6058C90.4931 64.4605 90.5463 64.3138 90.5908 64.1641C90.6858 63.8656 90.7873 63.5651 90.897 63.2614C90.897 63.2614 90.8994 63.3126 90.8894 63.4018C91.1818 61.6611 91.2965 59.9053 91.3731 58.1755C91.0258 58.6143 90.6798 59.0457 90.3354 59.4665L90.156 59.9897C90.0924 60.1624 90.0197 60.3337 89.9518 60.5042L89.5415 61.5268C89.4132 61.8691 89.2543 62.2002 89.1 62.532L88.6423 63.5238C88.058 65.3844 87.3679 67.214 86.5253 68.9785C85.6716 70.7351 84.7007 72.4372 83.6115 74.0629C81.7495 76.5735 79.5988 78.8552 77.2286 80.8595C75.8091 82.1049 74.3078 83.2569 72.7353 84.308C71.1495 85.337 69.4955 86.2563 67.7869 87.0666C66.0716 87.8619 64.2954 88.5211 62.4876 89.072L61.1208 89.4488C60.8943 89.5164 60.6633 89.5648 60.4317 89.6162L59.7399 89.7709L59.0482 89.9256L58.3496 90.0469L57.6513 90.1666C57.4174 90.2037 57.1861 90.2537 56.9514 90.2769L55.3576 90.6396C53.1143 90.6914 50.5684 90.7307 47.9831 90.4926C45.4011 90.2628 42.79 89.7589 40.5227 88.951L40.3836 89.0668C40.058 88.9689 39.8178 88.9035 39.6435 88.8303C39.4687 88.7602 39.3542 88.7076 39.2692 88.6629C39.1004 88.5753 39.0528 88.5275 38.8978 88.459L38.3388 88.263C38.1528 88.1957 37.9638 88.137 37.7828 88.0582C37.4178 87.9092 37.0512 87.7601 36.6847 87.6109C36.5017 87.5348 36.3177 87.4646 36.1351 87.3855L35.5974 87.1345L34.5204 86.6336C34.1663 86.4556 33.8188 86.2649 33.4669 86.0827C33.1172 85.8962 32.7611 85.721 32.4231 85.5103L31.3987 84.9041L31.1417 84.7528L30.893 84.5891L30.3971 84.2617C29.0575 83.4085 27.8117 82.4245 26.5903 81.4229C25.4067 80.3782 24.2422 79.3105 23.1988 78.1426C22.1248 77.0019 21.1689 75.7697 20.2526 74.5302C19.3765 73.2618 18.5347 71.9806 17.8267 70.6443C16.383 67.9903 15.2698 65.2348 14.5549 62.4814C14.4653 61.9373 14.1687 60.8715 13.9757 59.8118C13.9234 59.5477 13.8691 59.2865 13.8194 59.0352C13.7824 58.7813 13.7482 58.5387 13.7153 58.3163C13.6543 57.8707 13.6095 57.5048 13.6016 57.2896C13.5153 56.8383 13.452 56.3786 13.3782 55.9171C13.3435 55.6867 13.3061 55.4544 13.2764 55.2217C13.2547 54.9873 13.2327 54.7544 13.2113 54.5185C13.1911 54.2843 13.1697 54.0484 13.1482 53.8125C13.1298 53.577 13.1023 53.3401 13.1011 53.1029C13.0879 52.6282 13.0747 52.1536 13.0618 51.6774C13.0513 51.4402 13.0595 51.2014 13.0675 50.9642L13.0886 50.252C13.0966 50.0147 13.1046 49.7775 13.1126 49.5402C13.1207 49.303 13.1499 49.0676 13.1684 48.8321C13.2099 48.3617 13.2514 47.8914 13.2937 47.4258C13.3602 46.9626 13.4249 46.5007 13.4907 46.042L13.4876 46.1831C13.5254 45.8953 13.5498 45.6053 13.5984 45.3178L13.7466 44.4585C13.7718 44.3888 13.7913 44.3828 13.7927 44.4399C13.8219 44.1954 13.8586 43.9336 13.9019 43.659C13.92 43.5204 13.9488 43.3819 13.9828 43.2397C14.0154 43.0973 14.0481 42.9534 14.0816 42.8049C14.2239 42.2172 14.3583 41.5835 14.5716 40.9565C14.776 40.3281 14.962 39.6798 15.2113 39.068C15.4519 38.4532 15.6621 37.8458 15.9161 37.2994L15.8786 37.4348C16.0449 37.0295 16.2095 36.6255 16.3753 36.2232C16.4533 36.0189 16.5541 35.8261 16.6434 35.6283L16.9185 35.0376L17.1934 34.4484C17.2812 34.2504 17.3918 34.0638 17.4896 33.8704C17.6907 33.4878 17.8915 33.1066 18.0926 32.7239C18.3019 32.3472 18.5266 31.9807 18.7427 31.6097L19.0689 31.0551C19.1805 30.8717 19.3015 30.696 19.4188 30.5151C19.6529 30.1563 19.8868 29.799 20.1207 29.4417C20.3711 29.0963 20.62 28.7507 20.8704 28.4053L21.2444 27.8878L21.6429 27.3896C21.9081 27.0574 22.1745 26.727 22.4397 26.3948C22.7212 26.0761 23.0009 25.7586 23.2806 25.4411C23.4219 25.2826 23.559 25.1218 23.7029 24.9668L24.1452 24.5112C24.441 24.2087 24.7315 23.9006 25.0309 23.6033L25.956 22.7372C26.1116 22.5949 26.261 22.4439 26.4217 22.3085L26.9043 21.898C27.2286 21.6278 27.5426 21.3452 27.8732 21.0837C28.5461 20.5735 29.1988 20.0369 29.903 19.5702L30.4223 19.2088C30.5957 19.0894 30.7671 18.9635 30.9478 18.8561L32.0228 18.1838C32.3764 17.9508 32.7542 17.7586 33.1211 17.5477L33.675 17.2381L33.9527 17.0834L34.2362 16.9405C34.6165 16.7518 34.9965 16.5646 35.3767 16.3759L35.6629 16.2349L35.9547 16.1071L36.5395 15.8534C39.653 14.4802 42.9921 13.5809 46.4345 13.1142C46.8372 13.08 47.2431 13.0448 47.6536 13.0103C47.8583 12.9915 48.0645 12.9728 48.271 12.9527C48.4772 12.9341 48.6869 12.9315 48.8951 12.9193C49.3129 12.8968 49.7335 12.8748 50.1589 12.852C50.5832 12.8367 51.0117 12.8422 51.4439 12.8344C51.6599 12.8312 51.8759 12.828 52.0934 12.8251C52.3111 12.8207 52.5285 12.8378 52.7465 12.8411C53.183 12.854 53.6223 12.8689 54.0648 12.8828C54.5069 12.9089 54.9493 12.952 55.3949 12.9848C55.6182 13.0029 55.8417 13.0194 56.065 13.0375C56.2891 13.0603 56.5115 13.0935 56.7348 13.1208C57.1824 13.1786 57.6316 13.2367 58.0823 13.295C58.5292 13.3758 58.979 13.4585 59.4289 13.5398C59.6543 13.5828 59.8807 13.6199 60.1053 13.6674C60.329 13.7209 60.5512 13.7741 60.7748 13.8276C61.2214 13.9391 61.6722 14.0344 62.1165 14.1594C63.0008 14.4271 63.8931 14.6746 64.7564 15.0143C65.6341 15.3133 66.475 15.7048 67.321 16.0755C67.4708 16.1569 67.8072 16.3397 68.2914 16.5789C68.5335 16.6985 68.8129 16.835 69.1205 16.9869C69.4214 17.1516 69.752 17.3318 70.1055 17.5235C70.2823 17.6186 70.4661 17.7179 70.6542 17.8195C70.8426 17.9195 71.026 18.0404 71.2196 18.1551C71.6034 18.3872 72.0057 18.6284 72.4175 18.8774C72.8186 19.1446 73.2307 19.4198 73.6486 19.6974C73.7524 19.7683 73.8585 19.8349 73.9621 19.9072L74.267 20.1325C74.4717 20.283 74.6764 20.4334 74.8812 20.5839C75.0856 20.7358 75.2926 20.882 75.4934 21.038C75.6904 21.1979 75.8861 21.3561 76.0804 21.5141C76.4669 21.8328 76.8644 22.1318 77.217 22.4603C77.5771 22.7809 77.9278 23.0922 78.2624 23.39C78.5837 23.7027 78.8903 24.0022 79.1783 24.2832C79.3231 24.4239 79.4626 24.559 79.5969 24.6887C79.7254 24.8252 79.8471 24.9559 79.9651 25.0814C80.1998 25.3306 80.4123 25.5562 80.5957 25.7524C80.6889 25.8508 80.7743 25.9402 80.853 26.0238C80.9301 26.1073 80.9956 26.1872 81.0567 26.2557C81.1775 26.3924 81.2684 26.495 81.3231 26.5563L81.3246 26.5657Z" fill="#DD8C21"/>
<path d="M90.3052 46.4362L90.2978 46.3778C90.2342 46.389 90.2685 46.4718 90.3052 46.4362Z" fill="#DD8C21"/>
<path d="M76.051 18.9159C76.0784 18.9374 76.1058 18.9588 76.1334 18.9788L75.8757 18.6758L76.051 18.9159Z" fill="#DD8C21"/>
<path d="M88.9169 34.9918C88.7467 34.5546 88.6329 34.3374 88.5814 34.2382C88.5282 34.1402 88.529 34.1634 88.5459 34.2293C88.6195 34.3814 88.6884 34.525 88.7504 34.6537C88.8093 34.7833 88.8659 34.8988 88.9169 34.9918Z" fill="#DD8C21"/>
<path d="M90.7041 53.7403C90.6808 54.2121 90.7253 54.0346 90.7796 53.7588C90.7906 53.2773 90.7979 52.9414 90.7979 52.9414C90.7732 53.2052 90.73 53.469 90.7044 53.7388L90.7041 53.7403Z" fill="#DD8C21"/>
<path d="M91.6305 51.8207L91.6846 51.9715C91.6679 51.6863 91.6489 51.6987 91.6305 51.8207Z" fill="#DD8C21"/>
<path d="M34.3535 31.4475L34.2593 32.5811L34.2949 32.5869L34.5785 31.466L35.9696 28.2007L36.7513 28.3285L37.0004 31.8803L36.9151 33.0154L36.9506 33.0212L37.2342 31.9003L38.3412 28.5885L39.4781 28.7744L37.0596 34.8082L36.2691 34.679L35.9593 31.1082L36.0022 30.1211L35.9578 30.1139L35.6914 31.0735L34.2618 34.3507L33.4358 34.2156L33.0741 27.7272L34.3087 27.9291L34.3535 31.4475ZM38.628 32.7392C38.7567 31.9517 39.0066 31.3906 39.3774 31.0561C39.7482 30.7215 40.209 30.5993 40.7597 30.6893C41.3518 30.7862 41.761 31.0537 41.9873 31.492C42.2135 31.9302 42.2632 32.5372 42.1364 33.3129C42.0066 34.1063 41.7563 34.6703 41.3855 35.0049C41.0156 35.3335 40.5524 35.4523 39.9957 35.3613C38.8292 35.1705 38.3733 34.2965 38.628 32.7392ZM39.7205 32.9178C39.6478 33.3619 39.642 33.7136 39.703 33.9728C39.7639 34.2321 39.9128 34.3811 40.1497 34.4198C40.3747 34.4566 40.5575 34.3801 40.6979 34.1903C40.8453 33.9955 40.9606 33.6435 41.0439 33.1342C41.1184 32.6783 41.1247 32.3237 41.0628 32.0704C41.0009 31.817 40.8485 31.6705 40.6057 31.6308C40.3985 31.5969 40.2182 31.6769 40.065 31.8707C39.9186 32.0596 39.8037 32.4086 39.7205 32.9178ZM42.5832 33.386C42.712 32.5984 42.9618 32.0374 43.3327 31.7028C43.7035 31.3683 44.1643 31.2461 44.715 31.3361C45.3071 31.4329 45.7163 31.7005 45.9426 32.1387C46.1688 32.577 46.2185 33.184 46.0917 33.9597C45.9619 34.7531 45.7116 35.3171 45.3408 35.6517C44.9709 35.9803 44.5076 36.0991 43.951 36.0081C42.7845 35.8173 42.3286 34.9433 42.5832 33.386ZM43.6757 33.5646C43.6031 34.0087 43.5973 34.3604 43.6583 34.6196C43.7192 34.8788 43.8681 35.0278 44.105 35.0666C44.33 35.1034 44.5127 35.0268 44.6532 34.837C44.8006 34.6423 44.9159 34.2902 44.9992 33.781C45.0737 33.3251 45.08 32.9704 45.0181 32.7171C44.9562 32.4638 44.8038 32.3173 44.561 32.2776C44.3538 32.2437 44.1735 32.3237 44.0202 32.5175C43.8738 32.7063 43.759 33.0554 43.6757 33.5646ZM49.7796 35.2375C49.7389 35.4862 49.7012 35.7354 49.6665 35.9851C49.6317 36.2348 49.6104 36.514 49.6024 36.8227L48.8564 36.7007L48.7985 36.1623L48.763 36.1565C48.4938 36.5381 48.1076 36.6877 47.6043 36.6054C47.1543 36.5319 46.8281 36.2961 46.6256 35.8982C46.4291 35.5013 46.3962 34.9032 46.5269 34.1038C46.6547 33.3222 46.8907 32.7528 47.2348 32.3956C47.58 32.0326 48.0279 31.8961 48.5785 31.9861C48.7207 32.0093 48.8376 32.0376 48.9295 32.0709C49.0213 32.1041 49.1082 32.1487 49.1903 32.2047L49.4837 30.4105L50.5406 30.5834L49.7796 35.2375ZM48.0113 35.678C48.1712 35.7041 48.3048 35.6864 48.4121 35.625C48.5204 35.5575 48.6109 35.4507 48.6834 35.3045L49.0262 33.2084C48.9757 33.1454 48.9139 33.0958 48.8408 33.0595C48.7736 33.0242 48.6808 32.9969 48.5623 32.9775C48.3255 32.9388 48.1304 33.0163 47.9771 33.2101C47.8239 33.4039 47.7027 33.7732 47.6136 34.318C47.5468 34.7265 47.5428 35.0481 47.6017 35.2827C47.6676 35.5123 47.8041 35.6441 48.0113 35.678Z" fill="#DD8C21"/>
<path d="M34.6558 40.1083C34.6306 40.2623 34.5877 40.4133 34.527 40.5615C34.4731 40.7047 34.3996 40.8385 34.3062 40.9631C34.2139 41.0818 34.1003 41.1817 33.9654 41.263C33.8364 41.3453 33.6876 41.4 33.519 41.4272L33.5103 41.4805C33.6466 41.5392 33.7711 41.6143 33.8839 41.7057C34.0025 41.798 34.0991 41.9141 34.1735 42.054C34.2488 42.1879 34.2986 42.348 34.3229 42.5344C34.354 42.7158 34.3502 42.9249 34.3115 43.1618C34.2592 43.4815 34.1575 43.7506 34.0062 43.9691C33.8619 44.1826 33.6829 44.3479 33.4692 44.4649C33.2614 44.5829 33.0274 44.6572 32.767 44.6875C32.5067 44.7179 32.2374 44.7104 31.9591 44.6649C31.8762 44.6513 31.7696 44.6339 31.6394 44.6126C31.5091 44.5913 31.3679 44.5621 31.2159 44.5251C31.0689 44.495 30.9168 44.458 30.7599 44.414C30.6029 44.3701 30.4592 44.3193 30.3288 44.2615L31.331 38.1329C31.5322 38.1293 31.7768 38.1389 32.0649 38.1617C32.3599 38.1795 32.6495 38.2117 32.9338 38.2582C33.1943 38.3008 33.4396 38.3622 33.6697 38.4424C33.9057 38.5235 34.1033 38.6349 34.2626 38.7764C34.4277 38.9189 34.5471 39.0996 34.6208 39.3183C34.6954 39.5312 34.7071 39.7945 34.6558 40.1083ZM32.1441 43.7011C32.3928 43.7417 32.6101 43.6952 32.7961 43.5615C32.9822 43.4277 33.1003 43.2069 33.1507 42.899C33.1826 42.7036 33.1812 42.5453 33.1463 42.4241C33.1123 42.2969 33.0558 42.1965 32.9767 42.1228C32.8985 42.0431 32.8017 41.9847 32.6861 41.9476C32.5765 41.9114 32.4596 41.8832 32.3352 41.8628L31.8822 41.7888L31.5932 43.5563C31.6377 43.5818 31.7152 43.6097 31.8258 43.6399C31.9432 43.6652 32.0493 43.6856 32.1441 43.7011ZM32.2836 40.9516C32.3487 40.9622 32.4232 40.9714 32.5071 40.979C32.5979 40.9817 32.6708 40.9814 32.7261 40.9783C32.9084 40.9413 33.071 40.8584 33.2136 40.7297C33.3621 40.602 33.4558 40.4197 33.4945 40.1829C33.5197 40.0289 33.5203 39.8953 33.4962 39.7819C33.4722 39.6686 33.4295 39.5765 33.3682 39.5056C33.3077 39.4289 33.2291 39.3704 33.1324 39.3303C33.0425 39.2852 32.9413 39.2534 32.8287 39.235C32.586 39.1953 32.4123 39.1791 32.3078 39.1863L32.026 40.9094L32.2836 40.9516ZM35.9681 43.7519C35.9342 43.9591 35.9307 44.1105 35.9577 44.2061C35.9846 44.3017 36.0454 44.3573 36.1402 44.3728C36.1934 44.3815 36.2477 44.3843 36.3029 44.3811C36.3641 44.379 36.4326 44.3689 36.5085 44.3509L36.4668 45.2196C36.388 45.2553 36.2593 45.2799 36.0808 45.2932C35.9023 45.3066 35.7243 45.2988 35.5466 45.2697C35.2506 45.2213 35.0406 45.111 34.9168 44.9388C34.793 44.7665 34.7601 44.5027 34.8182 44.1475L35.6925 38.8005L36.7495 38.9733L35.9681 43.7519ZM37.0211 43.1215C37.1499 42.334 37.3997 41.7729 37.7705 41.4384C38.1414 41.1039 38.6021 40.9816 39.1528 41.0717C39.745 41.1685 40.1542 41.436 40.3804 41.8743C40.6066 42.3125 40.6563 42.9195 40.5295 43.6952C40.3998 44.4887 40.1495 45.0527 39.7786 45.3872C39.4087 45.7158 38.9455 45.8346 38.3889 45.7436C37.2224 45.5529 36.7664 44.6788 37.0211 43.1215ZM38.1136 43.3002C38.041 43.7443 38.0351 44.0959 38.0961 44.3552C38.1571 44.6144 38.306 44.7634 38.5428 44.8021C38.7678 44.8389 38.9506 44.7624 39.0911 44.5726C39.2384 44.3778 39.3537 44.0258 39.437 43.5166C39.5116 43.0606 39.5179 42.706 39.4559 42.4527C39.394 42.1994 39.2417 42.0529 38.9989 42.0132C38.7916 41.9793 38.6114 42.0592 38.4581 42.253C38.3117 42.4419 38.1969 42.7909 38.1136 43.3002ZM43.4326 46.2036C43.2652 46.2978 43.073 46.3576 42.8561 46.3829C42.6392 46.4082 42.4271 46.4039 42.2198 46.37C41.9178 46.3207 41.6719 46.2257 41.4821 46.0853C41.2992 45.9398 41.159 45.7558 41.0617 45.5332C40.9653 45.3046 40.9107 45.0434 40.898 44.7495C40.8922 44.4506 40.9183 44.1236 40.9764 43.7683C41.1032 42.9926 41.3377 42.4321 41.68 42.0868C42.0222 41.7415 42.4627 41.6129 43.0015 41.701C43.268 41.7446 43.4803 41.8036 43.6383 41.8781C43.8023 41.9535 43.9436 42.0374 44.0622 42.1298L43.6698 42.9684C43.5719 42.8977 43.4746 42.8423 43.3778 42.8021C43.2879 42.757 43.1748 42.7234 43.0386 42.7011C42.7899 42.6604 42.5855 42.7395 42.4253 42.9382C42.2661 43.1311 42.1473 43.4673 42.0689 43.9469C42.003 44.3496 42.0115 44.6884 42.0942 44.9633C42.1828 45.2393 42.3663 45.4 42.6446 45.4455C42.7926 45.4697 42.9199 45.4723 43.0263 45.4532C43.1397 45.4292 43.2456 45.3948 43.3441 45.3501L43.4326 46.2036ZM45.4847 44.8976L45.236 44.857L44.9354 46.6955L43.8784 46.5227L44.8951 40.3053L45.952 40.4781L45.3522 44.1464L45.5857 44.0569L46.6119 42.4099L47.7577 42.5973L46.653 44.2223L46.2217 44.4618L46.5898 44.8321L47.1559 47.0586L45.9657 46.864L45.4847 44.8976Z" fill="#DD8C21"/>
<path d="M30.9807 53.4914L30.8865 54.6251L30.9221 54.6309L31.2057 53.51L32.5968 50.2447L33.3785 50.3725L33.6276 53.9242L33.5423 55.0593L33.5778 55.0651L33.8614 53.9442L34.9683 50.6325L36.1053 50.8184L33.6868 56.8522L32.8963 56.7229L32.5865 53.1521L32.6294 52.1651L32.585 52.1578L32.3186 53.1174L30.889 56.3947L30.063 56.2596L29.7013 49.7712L30.9359 49.9731L30.9807 53.4914ZM38.1078 57.1921C37.9385 57.2981 37.7197 57.3718 37.4515 57.4131C37.1834 57.4543 36.9101 57.4522 36.6318 57.4067C36.3239 57.3563 36.0662 57.2595 35.8586 57.1161C35.6569 56.9737 35.5015 56.7902 35.3923 56.5656C35.2831 56.3411 35.2162 56.0809 35.1916 55.785C35.174 55.4842 35.1951 55.1503 35.2552 54.7831C35.3859 53.9838 35.6391 53.4202 36.0149 53.0926C36.3976 52.76 36.8702 52.6397 37.4328 52.7317C37.6222 52.7626 37.801 52.8223 37.9689 52.9105C38.1379 52.9929 38.2793 53.1133 38.3932 53.2717C38.514 53.4252 38.5975 53.6213 38.6436 53.8598C38.6966 54.0935 38.6955 54.379 38.6403 54.7165C38.619 54.8468 38.5873 54.9845 38.5454 55.1296C38.5093 55.2757 38.4625 55.4322 38.4048 55.5991L36.2464 55.2462C36.1982 55.6152 36.2292 55.9091 36.3394 56.1277C36.4495 56.3464 36.6615 56.4814 36.9754 56.5327C37.1649 56.5637 37.3414 56.5621 37.5051 56.5281C37.6746 56.495 37.8062 56.4527 37.8997 56.4011L38.1078 57.1921ZM37.2669 53.6347C37.0418 53.5979 36.8581 53.6621 36.7156 53.8273C36.574 53.9865 36.4677 54.2275 36.3967 54.5503L37.6224 54.7507C37.6954 54.4161 37.7015 54.1557 37.6407 53.9695C37.581 53.7773 37.4563 53.6657 37.2669 53.6347ZM42.2954 56.6092C42.2547 56.8579 42.217 57.1071 42.1822 57.3567C42.1475 57.6064 42.1262 57.8856 42.1182 58.1944L41.3721 58.0724L41.3143 57.534L41.2787 57.5282C41.0096 57.9098 40.6234 58.0594 40.1201 57.9771C39.6701 57.9035 39.3439 57.6678 39.1414 57.2699C38.9449 56.873 38.912 56.2748 39.0427 55.4754C39.1705 54.6938 39.4065 54.1244 39.7506 53.7673C40.0957 53.4042 40.5436 53.2677 41.0943 53.3578C41.2364 53.381 41.3534 53.4092 41.4453 53.4425C41.5371 53.4758 41.624 53.5204 41.7061 53.5763L41.9995 51.7822L43.0564 51.955L42.2954 56.6092ZM40.5271 57.0496C40.687 57.0758 40.8206 57.0581 40.9279 56.9966C41.0362 56.9292 41.1266 56.8224 41.1992 56.6762L41.542 54.58C41.4915 54.517 41.4296 54.4674 41.3565 54.4311C41.2894 54.3958 41.1966 54.3685 41.0781 54.3491C40.8413 54.3104 40.6462 54.3879 40.4929 54.5818C40.3396 54.7756 40.2185 55.1448 40.1294 55.6896C40.0626 56.0982 40.0586 56.4198 40.1175 56.6543C40.1833 56.884 40.3199 57.0157 40.5271 57.0496ZM45.0091 58.658L45.4506 55.9578C45.5039 55.6322 45.5027 55.3979 45.447 55.255C45.3913 55.1122 45.2717 55.0258 45.0882 54.9957C44.9342 54.9706 44.7932 54.9961 44.6652 55.0725C44.5372 55.1488 44.4379 55.2542 44.3673 55.3886L43.8633 58.4706L42.8064 58.2978L43.5326 53.8568L44.3764 53.9948L44.4165 54.5302L44.4431 54.5346C44.5778 54.3803 44.7466 54.259 44.9495 54.1705C45.1534 54.0762 45.4034 54.0533 45.6995 54.1017C45.8771 54.1307 46.0296 54.183 46.1571 54.2586C46.2905 54.3351 46.3944 54.4433 46.4688 54.5831C46.5442 54.7171 46.5886 54.8915 46.6021 55.1065C46.6166 55.3156 46.5991 55.5711 46.5497 55.8731L46.0661 58.8308L45.0091 58.658ZM49.8522 59.1125C49.6829 59.2186 49.4641 59.2922 49.196 59.3335C48.9278 59.3748 48.6545 59.3726 48.3762 59.3271C48.0683 59.2768 47.8106 59.1799 47.603 59.0365C47.4013 58.8941 47.2459 58.7106 47.1367 58.4861C47.0275 58.2615 46.9606 58.0013 46.9361 57.7055C46.9184 57.4047 46.9395 57.0707 46.9996 56.7036C47.1303 55.9042 47.3835 55.3407 47.7593 55.013C48.142 54.6804 48.6146 54.5601 49.1772 54.6521C49.3667 54.6831 49.5454 54.7427 49.7133 54.831C49.8823 54.9133 50.0237 55.0337 50.1376 55.1922C50.2584 55.3457 50.3419 55.5417 50.388 55.7803C50.441 56.0139 50.4399 56.2995 50.3847 56.637C50.3634 56.7673 50.3318 56.905 50.2898 57.0501C50.2537 57.1962 50.2069 57.3527 50.1492 57.5195L47.9908 57.1666C47.9427 57.5357 47.9736 57.8295 48.0838 58.0482C48.194 58.2668 48.406 58.4018 48.7198 58.4531C48.9093 58.4841 49.0858 58.4826 49.2495 58.4485C49.419 58.4155 49.5506 58.3731 49.6441 58.3216L49.8522 59.1125ZM49.0113 55.5552C48.7863 55.5184 48.6025 55.5826 48.46 55.7477C48.3184 55.907 48.2121 56.148 48.1411 56.4707L49.3668 56.6712C49.4398 56.3366 49.4459 56.0761 49.3852 55.8899C49.3254 55.6977 49.2007 55.5862 49.0113 55.5552ZM52.2809 58.6342C52.3012 58.5098 52.2767 58.3994 52.2073 58.303C52.1449 58.2015 52.0573 58.1051 51.9446 58.0138C51.8328 57.9164 51.7122 57.8177 51.5826 57.7175C51.459 57.6182 51.3443 57.5022 51.2383 57.3693C51.1324 57.2365 51.051 57.0834 50.9942 56.9099C50.9434 56.7375 50.9378 56.5298 50.9775 56.2871C51.0453 55.8726 51.2101 55.5712 51.4719 55.383C51.7337 55.1948 52.0837 55.1365 52.5219 55.2082C52.7824 55.2508 53.0233 55.3205 53.2446 55.4175C53.4668 55.5086 53.6392 55.6067 53.7619 55.7119L53.3795 56.4883C53.2748 56.4226 53.1459 56.3559 52.9928 56.2883C52.8406 56.2148 52.6876 56.1654 52.5336 56.1403C52.2435 56.0928 52.0786 56.1905 52.0389 56.4333C52.0205 56.5458 52.0435 56.6468 52.1078 56.7364C52.1791 56.821 52.2711 56.909 52.3839 57.0004C52.4966 57.0918 52.6148 57.1871 52.7384 57.2863C52.8679 57.3865 52.9851 57.506 53.0901 57.6448C53.1961 57.7776 53.274 57.9332 53.3238 58.1116C53.3796 58.291 53.3877 58.502 53.348 58.7448C53.2812 59.1534 53.1031 59.4617 52.8137 59.6697C52.5244 59.8778 52.1339 59.9416 51.6425 59.8612C51.3997 59.8215 51.1647 59.7527 50.9375 59.6548C50.7163 59.5578 50.5424 59.4503 50.4157 59.3323L50.8483 58.5276C50.961 58.619 51.093 58.7044 51.2441 58.7838C51.4012 58.8642 51.5686 58.9189 51.7462 58.948C51.8824 58.9703 51.9997 58.9591 52.0982 58.9144C52.1977 58.8638 52.2586 58.7703 52.2809 58.6342ZM57.145 59.0374C57.1044 59.2861 57.0666 59.5353 57.0319 59.7849C56.9972 60.0346 56.9758 60.3138 56.9679 60.6226L56.2218 60.5006L56.1639 59.9622L56.1284 59.9564C55.8593 60.338 55.4731 60.4876 54.9698 60.4053C54.5197 60.3317 54.1935 60.096 53.9911 59.6981C53.7945 59.3012 53.7616 58.703 53.8923 57.9036C54.0202 57.122 54.2561 56.5526 54.6003 56.1955C54.9454 55.8324 55.3933 55.6959 55.944 55.786C56.0861 55.8092 56.2031 55.8375 56.2949 55.8707C56.3867 55.904 56.4737 55.9486 56.5557 56.0046L56.8491 54.2104L57.9061 54.3832L57.145 59.0374ZM55.3768 59.4778C55.5366 59.504 55.6702 59.4863 55.7776 59.4248C55.8859 59.3574 55.9763 59.2506 56.0488 59.1044L56.3916 57.0082C56.3411 56.9453 56.2793 56.8956 56.2062 56.8594C56.139 56.824 56.0462 56.7967 55.9278 56.7773C55.6909 56.7386 55.4959 56.8162 55.3426 57.01C55.1893 57.2038 55.0681 57.573 54.979 58.1178C54.9122 58.5264 54.9083 58.848 54.9672 59.0825C55.033 59.3122 55.1695 59.4439 55.3768 59.4778ZM58.3475 56.5529C58.5426 56.4754 58.7787 56.4258 59.0558 56.4042C59.3329 56.3827 59.6402 56.3995 59.9777 56.4547C60.4811 56.537 60.8091 56.7244 60.9619 57.0169C61.1206 57.3103 61.1608 57.6969 61.0824 58.1765C61.0369 58.4548 60.983 58.7287 60.9206 58.9982C60.8652 59.2627 60.8133 59.5248 60.7647 59.7843C60.7172 60.038 60.6795 60.2872 60.6516 60.5319C60.6307 60.7716 60.6353 61.0034 60.6656 61.2272L59.804 61.0864L59.7239 60.517L59.6883 60.5112C59.5655 60.6674 59.409 60.7877 59.2189 60.8721C59.0288 60.9566 58.8035 60.9775 58.5429 60.9349C58.1936 60.8777 57.9371 60.7172 57.7736 60.4534C57.611 60.1836 57.5616 59.8533 57.6255 59.4625C57.7127 58.9296 57.9641 58.5816 58.3799 58.4186C58.7956 58.2555 59.3233 58.2445 59.963 58.3856C60.0487 58.047 60.0657 57.7944 60.0139 57.6279C59.968 57.4623 59.8237 57.3597 59.5809 57.32C59.4033 57.2909 59.2163 57.2817 59.0201 57.2921C58.8238 57.3026 58.6454 57.3342 58.4847 57.387L58.3475 56.5529ZM59.073 60.0914C59.2329 60.1175 59.3695 60.1003 59.4827 60.0398C59.5969 59.9734 59.6855 59.8966 59.7483 59.8096L59.8689 59.0724C59.7356 59.0324 59.6058 59.0081 59.4795 58.9996C59.3532 58.9912 59.2393 58.9999 59.1378 59.0258C59.0363 59.0518 58.9492 59.1014 58.8764 59.1746C58.8105 59.2429 58.7674 59.3392 58.7471 59.4635C58.717 59.6471 58.7298 59.792 58.7854 59.8984C58.8469 60.0057 58.9428 60.0701 59.073 60.0914ZM63.0643 59.6132L63.0665 60.3249L63.1109 60.3321L63.3055 59.6435L64.2274 57.2408L65.311 57.418L63.5457 61.2422C63.3879 61.5751 63.2418 61.8735 63.1075 62.1372C62.9732 62.401 62.8397 62.6224 62.7071 62.8013C62.5745 62.9803 62.4348 63.1094 62.2881 63.1888C62.1463 63.275 61.9866 63.3036 61.809 63.2746C61.6846 63.2543 61.5652 63.2226 61.4506 63.1795C61.341 63.1434 61.2486 63.0948 61.1735 63.0339L61.4993 62.157C61.5714 62.1992 61.6464 62.2236 61.7244 62.2303C61.8073 62.2438 61.8861 62.2263 61.961 62.1777C62.0407 62.1361 62.1169 62.0604 62.1896 61.9507C62.2623 61.841 62.3323 61.6913 62.3998 61.5017L61.5805 56.808L62.8507 57.0157L63.0643 59.6132Z" fill="#DD8C21"/>
<path d="M65.3942 41.7162C65.3896 41.7059 65.3798 41.7075 65.3942 41.7162Z" fill="#DD8C21"/>
<path d="M79.9668 53.8066C79.9539 53.8106 79.949 53.8129 79.9361 53.8169C79.9205 53.8465 79.9057 53.8716 79.8916 53.8922L79.9668 53.8066Z" fill="#DD8C21"/>
<path d="M74.915 55.5528C74.9021 55.5554 74.894 55.5572 74.8825 55.5601C74.8899 55.5723 74.8889 55.5878 74.915 55.5528Z" fill="#DD8C21"/>
<path d="M81.3728 47.3492C81.3273 47.3634 81.3052 47.3752 81.2893 47.388C81.313 47.3749 81.3383 47.3621 81.3728 47.3492Z" fill="#DD8C21"/>
<path d="M71.456 37.5303C71.456 37.5303 71.444 37.5376 71.437 37.5426C71.4563 37.538 71.4743 37.5317 71.4951 37.5274L71.4575 37.5305L71.456 37.5303Z" fill="#DD8C21"/>
<path d="M71.3811 37.6168C71.2693 37.6587 71.3945 37.5727 71.4378 37.5443C71.3072 37.5785 71.1922 37.64 71.0823 37.7177C71.1004 37.7484 71.3155 37.6215 71.3811 37.6168Z" fill="#DD8C21"/>
<path d="M83.0111 45.5058L82.9675 45.4727C82.9835 45.4875 82.9986 45.4977 83.0111 45.5058Z" fill="#DD8C21"/>
<path d="M82.4202 48.8206C82.3952 48.832 82.3684 48.8446 82.3452 48.8547C82.3857 48.8428 82.4062 48.8307 82.4202 48.8206Z" fill="#DD8C21"/>
<path d="M81.2965 43.2423L81.2331 43.252C81.269 43.2594 81.2853 43.2543 81.2965 43.2423Z" fill="#DD8C21"/>
<path d="M79.8914 53.8936L79.861 53.9275C79.8718 53.9184 79.8814 53.9075 79.8914 53.8936Z" fill="#DD8C21"/>
<path d="M70.3317 55.6735C70.3509 55.6597 70.3679 55.6316 70.3836 55.6017C70.3853 55.5912 70.3865 55.5837 70.3875 55.5777L70.3332 55.6737L70.3317 55.6735Z" fill="#DD8C21"/>
<path d="M61.9158 44.3299C61.9158 44.3299 61.9001 44.3319 61.8916 44.3367L61.9004 44.4431C61.912 44.391 61.9179 44.3549 61.9158 44.3299Z" fill="#DD8C21"/>
<path d="M71.6236 54.7734C71.6236 54.7734 71.632 54.7979 71.6377 54.8004C71.6776 54.6884 71.7408 54.3862 71.8138 53.9965L71.7505 53.96L71.6222 54.7732L71.6236 54.7734Z" fill="#DD8C21"/>
<path d="M66.9101 52.2288L67.41 52.7861C66.4555 52.0914 65.7716 51.5578 65.1236 51.0594C64.802 50.8144 64.4886 50.5754 64.1574 50.3227C63.8361 50.0762 63.4909 49.8243 63.1969 49.5515L63.279 49.5957C63.2152 49.496 63.0851 49.4917 62.853 49.1982C62.7409 49.046 62.5935 48.808 62.4905 48.4309C62.389 48.0542 62.3287 47.5288 62.4239 46.8333L62.4375 46.8355C62.4367 46.7368 62.4122 46.7359 62.4575 46.5432L62.4026 46.7851C62.3863 46.8656 62.3763 46.9455 62.3631 47.0265C62.3534 46.9541 62.3402 46.8842 62.3273 46.8128C62.319 46.7407 62.3126 46.6673 62.3049 46.5921C62.2974 46.5155 62.2904 46.4359 62.2874 46.3507C62.2891 46.2648 62.2951 46.1719 62.3038 46.0717C62.3282 45.988 62.3601 45.9624 62.3826 45.9569C62.3923 45.7938 62.4302 45.6276 62.4525 45.4635C62.4732 45.2991 62.5142 45.1334 62.5504 44.9685L62.7098 44.6898C62.7321 44.5349 62.6877 44.4769 62.6819 44.362C62.6805 44.2479 62.6942 44.0701 62.8965 43.6891C62.6633 43.9481 62.9689 43.2654 62.8705 43.3401C62.9008 43.3051 62.9545 43.2215 63.0083 43.1564C63.1054 42.9199 63.224 42.5714 63.3536 42.2586C63.4815 41.9471 63.5898 41.6616 63.6116 41.5374C63.6116 41.5374 63.5417 41.6445 63.4314 41.8111C63.3238 41.9798 63.1624 42.2043 63.0096 42.4517C62.861 42.7014 62.6893 42.9611 62.5536 43.1975C62.4195 43.4342 62.2986 43.6376 62.2178 43.7552C62.5048 43.0726 62.2704 43.5652 62.1776 43.6901L62.1915 43.7462C62.0284 44.1598 61.9522 44.1365 61.8627 44.3451C61.8687 44.3461 61.8784 44.343 61.8884 44.3385L61.8856 44.3088C61.9053 44.292 61.912 44.3069 61.9126 44.3317C61.9311 44.3316 61.9382 44.3543 61.8978 44.4693L61.8958 44.4443C61.8611 44.628 61.7736 44.9369 61.7346 45.0721L61.6672 45.0611C61.6984 45.237 61.5377 45.7679 61.4259 46.3391C61.3052 46.9073 61.2821 47.5192 61.3076 47.7496C61.3052 47.8677 61.3158 47.9911 61.3349 48.1189C61.362 48.2449 61.3959 48.3766 61.4372 48.5096C61.5264 48.7735 61.6412 49.0416 61.7534 49.3155C61.9602 49.7356 62.0261 49.8403 62.0316 49.9104C62.0455 49.9758 62.0124 49.9997 62.1459 50.2093C62.522 50.6955 62.1217 50.0652 62.2891 50.2465C62.4258 50.4458 62.5785 50.6324 62.7338 50.8117C62.4221 50.5437 62.5593 50.7216 62.5984 50.7927C63.0525 51.2163 63.7174 51.856 63.9406 51.8556C64.5295 52.3767 64.4978 52.4208 64.7611 52.627C64.6862 52.5393 64.5216 52.3877 64.536 52.3654C64.75 52.6005 64.6648 52.4434 64.5699 52.3556C64.9917 52.5908 66.3918 54.0433 66.5609 53.9879L66.5435 54.0097C66.6993 53.989 66.625 53.7937 66.9261 53.9476L67.0712 54.1237L67.3655 54.2918C67.5198 54.4587 67.4147 54.4137 67.4068 54.4248C67.8681 54.7188 68.4266 55.238 68.9313 55.6622L68.5754 54.9868C68.6728 55.0874 68.7916 55.2084 68.9141 55.3346C68.9762 55.3971 69.0381 55.4611 69.0999 55.5251C69.1771 55.5992 69.2528 55.6732 69.3261 55.7421C69.6302 56.0289 69.9186 56.2792 69.9685 56.2566L70.3146 56.6718C70.6097 56.9755 70.8271 57.1804 70.969 57.3006C71.0302 57.0397 71.0224 56.8707 71.0172 56.7421C71.0113 56.6087 71.0055 56.5031 71.0636 56.3172C71.1382 56.1246 71.2173 55.9144 71.2995 55.6846L71.1492 56.4527C71.3421 55.7532 71.4418 55.4262 71.6354 54.8069C71.6354 54.8069 71.6346 54.8021 71.6331 54.8019C71.6225 54.8294 71.6128 54.8509 71.6053 54.8589L71.6191 54.775C71.5764 54.6972 71.595 54.4047 71.6722 54.0172C71.7939 53.4707 71.7957 53.0262 72.0803 52.1708L72.0104 51.93L72.1043 51.6191L71.1916 51.4775L71.1158 51.8191L71.0251 51.8089C71.0363 51.7123 71.0497 51.6021 71.0663 51.4632L72.2295 51.6442C72.1129 52.3008 71.9356 53.2907 71.8107 53.9983L71.8485 54.0214C71.9429 53.5289 72.0108 52.9628 72.0837 52.6392C72.1322 52.484 72.3033 52.0964 72.3072 52.4018L72.278 52.0815C72.3095 51.9081 72.3395 51.753 72.3549 51.6678L70.9426 51.4476C70.8714 52.0808 70.8281 52.4401 70.7683 52.8335C70.7392 53.0304 70.7056 53.2358 70.6615 53.4871C70.6409 53.6131 70.6153 53.7504 70.5883 53.9061C70.5756 53.984 70.5593 54.0645 70.5451 54.1515C70.538 54.1949 70.5309 54.2384 70.5218 54.2846C70.5093 54.3611 70.4963 54.4405 70.4846 54.5217L70.5226 54.3925L70.5421 54.3295L70.5518 54.2988L70.5595 54.28C70.5489 54.4199 70.5381 54.5613 70.5286 54.6952C70.517 54.8318 70.5049 54.9622 70.492 55.0786C70.4645 55.3127 70.4306 55.501 70.3812 55.6053C70.2942 56.2975 70.1938 57.0152 70.0955 57.7103C71.0509 57.2893 71.955 56.9185 72.6876 56.655C72.768 56.5774 72.8449 56.5022 72.9151 56.4306C72.96 56.4102 73.0091 56.3921 73.0615 56.373C73.1104 56.3563 73.1773 56.3334 73.2174 56.323C73.2811 56.3104 73.3462 56.2979 73.4071 56.2833C73.5289 56.2539 73.6279 56.2132 73.6473 56.1225L74.0559 55.8922C74.334 55.7822 74.4772 55.6502 74.8156 55.5762L74.8171 55.5765C74.8378 55.5722 74.86 55.5681 74.8807 55.5638C74.8797 55.5606 74.877 55.5586 74.8742 55.5566C75.5173 55.3416 74.8303 55.4678 75.5707 55.2318C75.8298 55.2095 75.7745 55.002 76.1355 54.884L76.5455 54.8895C77.2145 54.7233 77.2681 54.5367 78.1998 54.1949C78.6659 54.0834 78.927 54.1338 78.6689 54.3471C79.0297 54.0705 78.823 54.1953 79.3431 53.9417C79.4451 53.9676 79.3923 53.999 79.2897 54.09C79.7928 53.9876 79.5699 53.9388 79.9359 53.8185C80.0064 53.6792 80.0739 53.4733 80.1908 53.4262L80.0391 53.4414C80.4091 53.2587 80.8256 53.0929 81.2955 53.005L81.2952 53.0635L81.7704 52.8872L81.821 52.9448L82.506 52.7182L82.406 52.728C82.5648 52.6693 83.0937 52.4941 83.4099 52.4427L83.4093 52.4842C83.4535 52.4775 83.4961 52.4707 83.5388 52.4638C83.6042 52.4499 83.671 52.4362 83.7347 52.4235C83.8687 52.3946 84.0017 52.3625 84.1332 52.3301C84.3962 52.2654 84.6527 52.1934 84.905 52.1193C84.9247 51.8947 84.9465 51.6674 84.9672 51.4368C84.9766 51.3229 84.9861 51.2091 84.9957 51.0937C85.0041 50.9858 85.0172 50.8401 85.0188 50.7927C85.0336 50.5135 85.0525 50.2195 85.0882 49.8975L85.1501 50.0461C85.2734 49.6969 85.0408 49.9328 85.1314 49.5105L85.2315 49.5007C85.1912 49.3048 85.2126 49.1837 85.2542 49.0797C85.2751 49.0276 85.3011 48.9811 85.3265 48.9298L85.345 48.8913C85.3522 48.8756 85.3601 48.8461 85.3671 48.8226C85.3814 48.7726 85.3962 48.7196 85.4088 48.6617C85.3568 48.7348 85.3058 48.8018 85.2541 48.8642L85.3834 48.0357C85.4624 47.5715 85.523 47.3982 85.5726 47.3586C85.6206 47.3188 85.6562 47.4216 85.6823 47.4782L85.6557 46.8689L85.7996 46.6293C85.7639 46.4711 85.7708 46.3629 85.7956 46.2208C85.8184 46.0814 85.8601 45.9112 85.887 45.6616C85.781 45.6982 85.6498 45.7475 85.4849 45.8144C85.4554 45.7788 85.7022 45.6714 85.4223 45.7457C84.8904 45.9773 84.3941 46.1978 83.9353 46.406L84.7894 46.0485C84.7193 46.1294 84.6506 46.2105 84.5869 46.2894C84.1523 46.5 83.9059 46.5767 83.6678 46.6393C83.4345 46.7012 83.2159 46.7486 82.9386 46.8633L83.3233 46.6846C83.2056 46.7269 83.1024 46.7654 83.0108 46.7982C82.931 46.8251 82.8608 46.849 82.799 46.8697C82.7147 46.8959 82.649 46.9114 82.5889 46.9215C82.4701 46.9421 82.3787 46.9457 82.2195 46.9781C82.3244 46.9768 82.4837 46.9721 82.2699 47.0649C82.1121 47.1268 82.165 47.0385 82.0058 47.0709C82.0036 47.1876 81.6334 47.3717 81.2652 47.4393C81.2649 47.4223 81.2676 47.4058 81.2873 47.389C81.2028 47.4352 81.165 47.4783 81.0005 47.5053L81.0537 47.3585L80.7885 47.5691C80.5766 47.6037 80.3114 47.785 80.3119 47.6974L80.4188 47.6364L78.8883 48.111L78.8361 48.0255C78.7285 48.2034 77.9913 48.2506 78.0941 48.3937C77.7787 48.4021 76.9839 48.8293 77.0933 48.5932C76.5919 48.7513 76.2198 48.9183 75.817 49.0848C75.4148 49.2484 74.9803 49.4298 74.4038 49.5387C74.1815 49.5146 73.8106 49.5802 73.4361 49.602C73.2484 49.6114 73.0618 49.6224 72.883 49.5963C72.7027 49.5883 72.5295 49.5461 72.3778 49.5136C71.7768 49.3861 71.2759 49.1457 70.8054 48.8133C70.3352 48.4794 69.878 48.0752 69.389 47.4889C69.1914 47.0595 68.8559 46.6075 68.516 46.1071C68.1719 45.6045 67.8164 45.077 67.5899 44.5797L67.359 44.3727C67.0984 43.679 66.3487 42.8238 65.6917 41.9376C65.5823 41.8535 65.5002 41.7908 65.4387 41.7438C65.3968 41.7078 65.4121 41.7272 65.4036 41.7227C65.3976 41.7217 65.3937 41.718 65.3909 41.716C65.3917 41.7207 65.3947 41.7305 65.387 41.74C65.3832 41.744 65.3763 41.749 65.3718 41.7575C65.3726 41.7715 65.3716 41.7867 65.3647 41.801L65.3466 41.7796L65.3471 41.7766C65.3471 41.7766 65.3426 41.7666 65.3386 41.7629C65.3311 41.7524 65.3232 41.7434 65.3142 41.7327C65.2959 41.7128 65.2759 41.6941 65.2619 41.6765C65.229 41.6418 65.2207 41.6174 65.2963 41.6067L65.3234 41.6111C65.4027 41.5964 65.341 41.5786 65.266 41.5478C65.2602 41.5454 65.2485 41.5419 65.249 41.5389C65.251 41.5361 65.2547 41.5321 65.2567 41.5294C65.2624 41.5226 65.2711 41.5164 65.2811 41.5118C65.3013 41.5013 65.3273 41.4932 65.3642 41.4931C65.3058 41.4835 65.2401 41.4805 65.1709 41.4799L65.319 41.4026C65.3068 41.4206 65.3086 41.4286 65.3068 41.4391C65.3096 41.4318 65.3088 41.4271 65.3168 41.4161L65.3434 41.385C65.3623 41.3635 65.3812 41.3419 65.3999 41.3219C65.439 41.2806 65.4828 41.2385 65.5261 41.1994L65.5602 41.1696C65.5602 41.1696 65.5744 41.1581 65.5884 41.1481L65.6252 41.1202C65.6743 41.0836 65.7247 41.0487 65.7721 41.0134C65.8695 40.9447 65.9652 40.8772 66.0588 40.8125C66.4349 40.5554 66.791 40.3443 67.145 40.1374C67.8517 39.722 68.5507 39.3345 69.4199 38.6779C69.2389 38.9376 69.753 38.4014 69.8502 38.5127C70.4137 38.3986 70.7073 37.9772 71.0761 37.7174C71.0726 37.7107 71.0725 37.7014 71.09 37.6796L71.7861 37.3194C71.4616 37.7035 72.2104 36.9178 71.9052 37.2589C72.3721 37.0489 72.8655 36.8079 73.3794 36.5549C73.8868 36.3039 74.4141 36.0438 74.9517 35.7777L75.0826 35.7114L75.1497 35.6777C75.1711 35.6689 75.197 35.6424 75.2101 35.6753L75.3036 35.7906L75.454 35.9814C75.8358 36.4702 76.2101 36.9578 76.5642 37.4374L76.5379 37.3254C76.9022 37.8082 77.4079 38.368 77.6304 38.7768C77.8529 39.1857 78.3408 39.4963 78.4555 39.6321C78.8282 39.9793 78.9807 40.4398 78.8555 40.2639C79.2039 40.6748 79.6448 40.9716 80.046 41.6052C80.0791 41.9015 81.4158 43.1205 81.2908 43.2447L81.3081 43.2429C81.797 44.074 82.516 44.6564 83.0583 45.5377C83.0583 45.5377 83.0367 45.5295 83.0061 45.5091L84.7097 46.8374L84.8053 46.008L84.0669 44.2835L80.9674 40.4599L78.7044 37.244L77.2261 35.3662L76.2211 34.086L75.8646 33.6306L75.7756 33.516L75.7309 33.4595C75.7309 33.4595 75.7239 33.446 75.7187 33.4498L75.702 33.4578L75.6685 33.4739L75.4065 33.5988L74.36 34.0972L74.1361 34.2053L74.0004 34.2724L73.7291 34.4066C73.5484 34.4955 73.3674 34.5859 73.1876 34.6781C72.8271 34.8593 72.4688 35.0454 72.1118 35.2333C71.3975 35.6106 70.6883 35.9948 69.9873 36.3943C69.8072 36.5449 69.6286 36.6958 69.4498 36.8481C68.5674 37.2179 67.6365 37.7814 66.7101 38.3825C66.2481 38.6856 65.7841 38.9914 65.3272 39.2907C65.0995 39.4413 64.8721 39.5888 64.6446 39.7286C64.4674 39.8427 64.2918 39.9572 64.1178 40.0703C63.9324 40.1878 63.7472 40.3037 63.5652 40.4186C63.5828 40.4522 63.6022 40.4847 63.6215 40.5171C63.5191 40.588 63.4321 40.6492 63.3544 40.7012C63.2716 40.7554 63.2023 40.8025 63.142 40.8419C63.0182 40.9217 62.9282 40.9732 62.8556 41.0121C62.7105 41.09 62.6392 41.1121 62.5163 41.1859L62.2815 41.3507L62.1635 41.433L62.066 41.5109L62.8875 42.0593L63.3091 42.3422C63.4443 42.4381 63.567 42.5352 63.6959 42.6317C63.82 42.7289 63.9587 42.8224 64.0714 42.9239L64.2789 43.1226C64.3833 43.2181 64.4786 43.3322 64.5786 43.4363C64.9692 43.8711 65.3266 44.3682 65.6708 44.8893C66.0148 45.4119 66.3446 45.9645 66.6869 46.5253C67.0254 47.0809 67.3913 47.667 67.8048 48.2164C68.2165 48.767 68.6708 49.2923 69.1905 49.7666C69.7088 50.2393 70.2935 50.6642 70.9532 50.9783C71.1153 51.0603 71.2917 51.1199 71.4603 51.1906C71.6355 51.2485 71.8129 51.3021 71.9913 51.3497C72.1735 51.3841 72.3537 51.4305 72.5383 51.45C72.7219 51.4661 72.9065 51.4948 73.0898 51.494C73.8277 51.5084 74.5033 51.368 75.1106 51.2118C75.6266 51.1438 76.9191 50.6564 77.2913 50.6203C78.7208 50.0014 80.2809 49.4869 81.759 49.0129L81.7079 49.0431L82.3954 48.7923C82.4279 48.7914 82.4351 48.8034 82.4157 48.8187C82.5807 48.741 82.7686 48.6655 82.9746 48.5914C83.0776 48.5544 83.1836 48.5179 83.2941 48.4821L83.3722 48.4564L83.3882 48.4529L83.4186 48.4455C83.503 48.4285 83.5662 48.4373 83.593 48.4525C83.5846 48.4757 83.5749 48.4972 83.5667 48.519L83.553 48.5275C83.5332 48.6674 83.5695 48.3794 83.4556 49.3396C83.4152 49.6809 83.3765 50.0208 83.3363 50.3606L83.3072 50.6144L83.3018 50.6473L83.3038 50.6538L83.3016 50.6673L83.3015 50.7243L83.1002 50.7883C82.8479 50.8625 82.5972 50.9369 82.345 51.0111C81.8171 51.1711 81.2931 51.3347 80.7713 51.5049C79.7275 51.8452 78.6943 52.2057 77.6659 52.5839C76.6372 52.9636 75.6134 53.3611 74.5866 53.7765C74.074 53.9836 73.5605 54.1967 73.045 54.4125L72.6595 54.5772L72.466 54.6595C72.4495 54.666 72.4468 54.664 72.4353 54.6683C72.3981 54.6792 72.3644 54.6875 72.336 54.6921C72.3115 54.6819 72.2994 54.6707 72.2897 54.6645C72.309 54.6123 72.3204 54.5803 72.326 54.555C72.3283 54.5416 72.33 54.5311 72.3319 54.5191L72.3334 54.5101L72.3431 54.4132C72.3548 54.3135 72.3652 54.2121 72.3769 54.1124C72.4625 53.3061 72.5499 52.48 72.6385 51.6464L70.6799 51.3415C70.4851 52.4009 70.2746 53.4716 70.0169 54.5299C69.9805 54.5363 69.9649 54.5276 69.9636 54.5166C69.9636 54.5166 69.9636 54.5166 69.9634 54.5181L69.9467 54.5076C69.7459 54.3517 69.5454 54.1942 69.3474 54.0403C69.1136 53.8605 68.8853 53.6846 68.6666 53.5164C67.7905 52.8499 67.072 52.3307 66.9071 52.2283L66.9101 52.2288Z" fill="#DD8C21"/>
<path d="M62.3825 45.9546L62.379 45.976C62.4284 45.9809 62.4153 45.9458 62.3825 45.9546Z" fill="#DD8C21"/>
<path d="M68.9674 55.6878C68.9566 55.6783 68.9456 55.6704 68.9363 55.6611C68.9552 55.7059 69.0043 55.7741 69.0478 55.8383C69.0191 55.7873 68.9863 55.7326 68.9674 55.6878Z" fill="#DD8C21"/>
<path d="M62.3223 50.5518C62.4645 50.7016 62.5423 50.773 62.5807 50.8024C62.6191 50.8318 62.6165 50.819 62.6022 50.7935C62.496 50.6975 62.4013 50.6064 62.3223 50.5518Z" fill="#DD8C21"/>
<path d="M63.0594 43.1817C63.1368 43.0096 63.0815 43.0652 63.0099 43.1551C62.9722 43.2444 62.9517 43.3226 62.9322 43.3763C62.9141 43.4303 62.9028 43.4623 62.9028 43.4623C62.9507 43.367 63.0055 43.276 63.0594 43.1817Z" fill="#DD8C21"/>
<path d="M62.1793 43.6859L62.1631 43.6159C62.1327 43.7272 62.1481 43.7267 62.1793 43.6859Z" fill="#DD8C21"/>
<path d="M46.7363 63.0549C46.708 63.0455 46.6915 63.0507 46.7363 63.0549Z" fill="#DD8C21"/>
<path d="M57.07 68.3746C57.061 68.3732 57.0561 68.3739 57.0469 68.3739C57.0294 68.3958 57.0139 68.4149 56.9992 68.4294L57.0702 68.3731L57.07 68.3746Z" fill="#DD8C21"/>
<path d="M53.3937 68.0987C53.3844 68.0971 53.3785 68.0946 53.3711 68.0918C53.3719 68.1062 53.3665 68.1195 53.3937 68.0987Z" fill="#DD8C21"/>
<path d="M60.8536 66.2055C60.8228 66.1958 60.804 66.1974 60.7895 66.2012C60.808 66.2011 60.8281 66.2013 60.8536 66.2055Z" fill="#DD8C21"/>
<path d="M40.0471 61.9925C40.0471 61.9925 40.0562 61.994 40.064 61.9937C40.0511 61.9869 40.0395 61.9819 40.0269 61.9736L40.0486 61.9928L40.0471 61.9925Z" fill="#DD8C21"/>
<path d="M40.1257 61.9659C40.2042 61.9957 40.098 61.9938 40.0627 61.9927C40.1465 62.0372 40.2362 62.055 40.3288 62.0547C40.3345 62.0201 40.1622 61.9981 40.1275 61.9647L40.1257 61.9659Z" fill="#DD8C21"/>
<path d="M27.8693 60.3936L27.9084 60.3829C27.8926 60.385 27.8809 60.3893 27.8693 60.3936Z" fill="#DD8C21"/>
<path d="M60.7854 67.9691C60.7674 67.9661 60.7473 67.9659 60.7293 67.9629C60.7573 67.9706 60.7729 67.9701 60.7854 67.9691Z" fill="#DD8C21"/>
<path d="M29.7895 60.6584L29.8166 60.6056C29.7946 60.6268 29.789 60.6428 29.7895 60.6584Z" fill="#DD8C21"/>
<path d="M57.0017 68.4298L56.973 68.4505C56.9833 68.4458 56.991 68.4375 57.0017 68.4298Z" fill="#DD8C21"/>
<path d="M49.9922 67.9391C49.9918 67.922 49.9848 67.9084 49.9759 67.896C49.9713 67.8953 49.9683 67.8948 49.9668 67.8945L49.9937 67.9394L49.9922 67.9391Z" fill="#DD8C21"/>
<path d="M46.8322 71.2217C46.8322 71.2217 46.8452 71.2269 46.8542 71.2284L46.867 71.1502C46.8466 71.1808 46.8351 71.2036 46.8322 71.2217Z" fill="#DD8C21"/>
<path d="M45.3323 67.5274C45.3323 67.5274 45.3166 67.5387 45.3154 67.5462C45.3948 67.5684 45.6054 67.5797 45.8736 67.5866L45.8923 67.5189L45.3307 67.5271L45.3323 67.5274Z" fill="#DD8C21"/>
<path d="M44.165 71.1361L43.7406 70.8419C44.5057 71.0763 45.0514 71.2872 45.5734 71.4833C45.8344 71.5814 46.0885 71.6753 46.3612 71.7676C46.497 71.8128 46.6372 71.8589 46.7854 71.9031C46.8221 71.9138 46.8604 71.9246 46.8984 71.937L46.9556 71.954C46.9706 71.9565 46.9676 71.956 46.9736 71.957C46.9935 71.9572 47.0132 71.9588 47.0347 71.9593C47.023 71.9651 47.0125 71.9726 47.0021 71.9801C47.0101 71.9968 47.043 71.9653 47.1107 71.9563C47.1451 71.9527 47.1896 71.9538 47.2366 71.9677C47.2836 71.9815 47.3363 72.0071 47.3612 72.0435C47.265 72.1139 47.1274 72.2022 47.0081 72.2166L46.9935 72.2111C46.9935 72.2111 47.0166 72.2303 46.9729 72.2247C47.0059 72.2301 47.0433 72.227 47.0895 72.2176C47.0956 72.237 47.1086 72.2607 47.1112 72.2919C47.1132 72.3076 47.1121 72.3244 47.1076 72.3421L47.1054 72.3556C47.0994 72.3639 47.0857 72.3816 47.0775 72.3942C47.0574 72.4232 47.0358 72.452 47.0124 72.482C46.9598 72.5211 46.9231 72.5197 46.9029 72.5118L46.4424 73.0968L46.2278 73.2141C46.1188 73.4194 46.3289 73.4615 45.8574 73.86C46.1049 73.7681 45.7237 74.1413 45.823 74.1268C45.7916 74.1401 45.7271 74.1773 45.6745 74.2071C45.4536 74.4942 45.0427 75.0396 44.9851 75.2133C44.9851 75.2133 46.1065 74.3039 46.4582 74.1013C46.104 74.4698 46.3844 74.214 46.4816 74.1652L46.4785 74.1185C46.6996 73.9053 46.7619 73.9571 46.8785 73.8561C46.873 73.8521 46.864 73.8507 46.8553 73.8477L46.8516 73.8702C46.8314 73.8715 46.8288 73.8588 46.8333 73.841C46.8178 73.8323 46.8162 73.8136 46.8724 73.752L46.8695 73.77C46.9421 73.6649 47.0932 73.5034 47.1599 73.4342L47.2145 73.477C47.2388 73.3471 47.5174 73.0925 47.825 72.8304C48.1363 72.5642 48.5443 72.2062 48.6657 72.0659C48.8556 71.9123 48.9906 71.7358 49.1207 71.5616C48.9107 71.4996 48.6975 71.4385 48.5232 71.3562C48.1932 71.2283 48.1258 71.1788 48.1075 71.1404C48.0877 71.1018 48.118 71.076 47.9467 70.9849C47.7174 70.8812 47.73 70.9079 47.7753 70.9507C47.8206 70.9935 47.888 71.0522 47.796 71.0218L47.5447 70.8837C47.4584 70.8373 47.3578 70.7839 47.302 70.7486C47.3342 70.7585 47.3593 70.7657 47.38 70.7706C47.408 70.7783 47.4287 70.7832 47.4452 70.7859C47.4767 70.791 47.4864 70.788 47.4834 70.7783C47.4801 70.7608 47.4157 70.721 47.3947 70.6991C47.0254 70.5572 46.4798 70.2325 46.3205 70.3219C45.8391 70.0846 45.857 70.0321 45.6427 69.9494C45.707 69.9984 45.8431 70.0699 45.8342 70.0961C45.6535 69.9681 45.7327 70.0764 45.8105 70.1184C45.4835 70.0665 44.2995 69.325 44.1845 69.4447L44.1935 69.4184C44.0849 69.4991 44.163 69.6428 43.9287 69.626L43.8015 69.5282L43.5694 69.498C43.437 69.4132 43.5177 69.4095 43.5229 69.3965C43.2428 69.3399 42.905 69.1939 42.5752 69.0553L42.4184 69.8823C42.5308 69.8915 42.643 69.9021 42.7509 69.9105L42.426 69.685L42.5096 69.24L42.6154 69.3743C42.5758 69.3525 42.5338 69.3271 42.4888 69.3013L42.4291 69.6194C42.8134 69.7068 43.3522 69.8288 43.4231 69.7434L43.6482 69.8541C44.4027 70.0775 44.1824 69.7875 44.4847 69.8585L44.8629 69.9834L44.4823 69.9674C44.8601 70.0384 45.0118 70.0802 45.3122 70.1631L45.3157 70.1606C45.295 70.1557 45.2822 70.149 45.2787 70.1422L45.3326 70.1418C45.3814 70.0882 45.5806 70.0562 45.849 70.0708C46.229 70.1006 46.5302 70.0283 47.1337 70.1685L47.2899 70.0602L47.7439 70.1452L47.7414 70.2356C47.2941 70.2132 46.4514 70.2186 45.877 70.2016L45.8656 70.2428C46.2067 70.2555 46.5959 70.2284 46.8207 70.2467C46.9294 70.269 47.2079 70.3731 47.0021 70.4271L47.2156 70.3451C48.3542 70.3758 48.3609 70.3723 49.5452 70.5182L49.4439 70.4693C49.6809 70.4511 49.9163 70.4327 49.9792 70.5092C50.6913 70.5502 51.4287 70.6338 51.8871 70.7673L51.9916 70.6643C52.1422 70.6751 52.362 70.8465 52.44 70.6992L52.763 70.6627C52.9683 70.6778 53.096 70.6217 53.3292 70.6922C53.3439 70.6961 53.3584 70.7016 53.3729 70.707C53.3734 70.704 53.3724 70.7008 53.3714 70.6975C53.8348 70.7625 53.3701 70.6019 53.9017 70.6827C54.0698 70.7656 54.0953 70.5527 54.3544 70.5874L54.6094 70.7507C55.0769 70.8564 55.1634 70.7043 55.8457 70.7297C56.1718 70.7969 56.325 70.9327 56.1038 71.0428C56.4068 70.9123 56.2426 70.9562 56.6407 70.9028C56.7001 70.9633 56.657 70.9732 56.5673 71.0231C56.9159 71.1032 56.7854 70.9788 57.0511 70.9914C57.1317 70.8846 57.2273 70.714 57.3142 70.7097L57.2127 70.6715C57.4959 70.624 57.8033 70.6081 58.1266 70.6732L58.1131 70.728L58.4619 70.7127L58.481 70.7835L58.9772 70.78L58.91 70.7582C59.0264 70.7526 59.4096 70.743 59.627 70.7877L59.6176 70.8262C60.2296 70.9709 60.7438 70.8288 61.4665 70.8423L61.3694 70.9188C61.6122 71.0062 61.4415 70.7982 61.7333 70.849L61.7448 70.9478C62.0074 70.8291 62.0771 70.9868 62.2543 71.0419L62.1757 70.9106L62.5095 70.9497C62.8775 71.0053 62.7294 71.1196 62.674 71.186L62.9291 71.0938L62.9735 71.2088C63.0081 71.1852 63.0363 71.1729 63.0607 71.1645L71.4209 68.7192L63.3374 69.2751C63.2223 69.2824 63.1985 69.1831 62.9293 69.173C62.9141 69.1243 62.9992 69.1213 62.8972 69.0769L62.341 69.0999L62.6701 69.1106L62.5917 69.2609C62.236 69.2997 62.1573 69.1314 61.9148 69.1179L62.0868 69.1106C61.699 69.0534 61.6956 68.9805 61.4918 68.8902C61.5504 68.9367 61.6405 69.0069 61.4819 68.9886C61.368 68.97 61.4352 68.9163 61.3332 68.872C61.2813 68.9727 60.9958 68.9584 60.7627 68.8495C60.7697 68.8353 60.7781 68.8212 60.7976 68.8152C60.7312 68.8166 60.6911 68.8362 60.5888 68.7841L60.6826 68.681L60.4448 68.7421C60.3125 68.6758 60.0866 68.7112 60.1251 68.6359L60.2105 68.6314L59.1543 68.3418L59.1627 68.2431C59.0254 68.3484 58.5953 68.0518 58.5901 68.2249C58.4109 68.0878 57.7837 68.1022 57.9465 67.9442C57.249 67.767 56.8307 67.8495 55.998 67.5671C55.7302 67.3417 54.8862 67.2037 54.3411 67.0637C53.2541 66.8968 52.5494 66.8015 51.4411 66.6234C50.8265 66.2689 49.7799 66.3533 49.0931 66.0917L48.8805 66.14C48.4351 65.9086 47.6801 65.933 47.0412 65.67C46.8707 65.6775 46.7835 65.674 46.7443 65.6691C46.7735 65.6785 46.817 65.7041 46.8197 65.763C46.6379 65.6887 46.2449 65.6644 46.293 65.5584L46.3442 65.556C46.3923 65.45 45.7577 65.5001 45.5647 65.3624L45.6585 65.5039L45.3019 65.4163L45.4028 65.4113C44.5972 65.3965 44.0342 65.2722 43.4834 65.139C42.9341 65.0061 42.3948 64.8779 41.6379 64.8757C41.8554 64.7789 41.3361 64.8956 41.3416 64.7488C41.001 64.5068 40.648 64.6707 40.3361 64.6674C40.3349 64.6749 40.3306 64.6819 40.3107 64.691L39.7809 64.589C40.1284 64.4595 39.3724 64.6776 39.69 64.571C38.3237 64.2106 36.4879 64.0674 34.8855 63.7762L34.9501 63.8329C34.5424 63.7662 34.0262 63.7511 33.727 63.6329C33.4265 63.5129 33.0316 63.6592 32.91 63.6501C32.5595 63.6851 32.2706 63.484 32.4153 63.5123C32.0486 63.4862 31.6842 63.6067 31.1896 63.4689C31.037 63.2915 29.7921 63.4497 29.7993 63.2738L29.7924 63.2881C29.1592 63.0845 28.5246 63.2193 27.8398 63.0304C27.8398 63.0304 27.854 63.0189 27.8799 63.0108L26.4013 63.3754L26.7406 64.0019L27.9119 64.6136C29.0206 64.7041 30.1297 64.8116 31.2375 64.9173C32.1098 65.0984 32.9826 65.2673 33.8534 65.4574C35.9958 65.7308 38.1343 66.0466 40.2696 66.3727L40.7476 66.32C41.9661 66.7563 43.62 66.7789 44.9413 67.1889L44.9894 67.0829C45.3712 67.1484 45.3314 67.2127 45.4224 67.2491C48.9633 67.8835 52.626 68.4979 55.7506 69.3628C56.0387 69.5022 56.9729 69.6812 57.193 69.8126C58.2492 69.9145 59.3315 70.1853 60.3504 70.4489L60.3084 70.4513L60.7957 70.5494C60.8135 70.5631 60.8128 70.5769 60.7951 70.5817C61.3625 70.6221 62.1915 70.9362 62.8454 71.1447L62.8035 71.1471C62.8197 71.1513 62.836 71.1555 62.8507 71.1594L63.1349 69.2143C59.1445 69.0512 55.4292 69.1255 51.4738 68.8235C49.6311 68.5715 47.4719 68.7494 45.3551 68.5171C45.1434 68.4471 43.7561 68.3942 42.483 68.3676L35.2987 68.2148L42.0858 70.4759C43.0797 70.8077 44.0048 71.0991 44.1747 71.133L44.165 71.1361Z" fill="#DD8C21"/>
<path d="M46.9036 69.8926L46.9138 69.8786C46.8765 69.8474 46.8746 69.8784 46.9036 69.8926Z" fill="#DD8C21"/>
<path d="M42.7812 67.2954C42.7722 67.294 42.7629 67.294 42.7537 67.294L42.8563 67.3648L42.7812 67.2954Z" fill="#DD8C21"/>
<path d="M47.7103 68.173C47.5408 68.1051 47.4461 68.0711 47.406 68.0614C47.3762 68.055 47.3795 68.0633 47.3923 68.0793C47.5086 68.123 47.6232 68.1587 47.7088 68.1727L47.7103 68.173Z" fill="#DD8C21"/>
<path d="M45.6321 71.5514C45.543 71.6526 45.5975 71.6307 45.6735 71.5906C45.7575 71.4824 45.8162 71.4072 45.8162 71.4072C45.7585 71.4579 45.6916 71.4994 45.6321 71.5514Z" fill="#DD8C21"/>
<path d="M46.4818 71.5442L46.4848 71.6018C46.5282 71.5348 46.5154 71.5281 46.4818 71.5442Z" fill="#DD8C21"/>
</svg>
