<svg width="57" height="55" viewBox="0 0 57 55" fill="none" xmlns="http://www.w3.org/2000/svg">
<ellipse cx="28.4433" cy="27.4987" rx="28.4433" ry="27.4997" fill="#DD8C21"/>
<g clip-path="url(#clip0_299_86038)">
<path d="M45.3583 18.4723C45.1662 17.7046 44.7748 17.0012 44.2238 16.4331C43.6728 15.8651 42.9816 15.4525 42.2201 15.237C39.4378 14.5576 28.3085 14.5576 28.3085 14.5576C28.3085 14.5576 17.1792 14.5576 14.3969 15.3017C13.6354 15.5172 12.9442 15.9298 12.3932 16.4978C11.8422 17.0659 11.4509 17.7693 11.2587 18.537C10.7495 21.3606 10.5004 24.2251 10.5146 27.0942C10.4964 29.985 10.7455 32.8713 11.2587 35.7162C11.4705 36.4601 11.8707 37.1367 12.4204 37.6808C12.9701 38.2249 13.6509 38.6179 14.3969 38.8221C17.1792 39.5662 28.3085 39.5662 28.3085 39.5662C28.3085 39.5662 39.4378 39.5662 42.2201 38.8221C42.9816 38.6066 43.6728 38.194 44.2238 37.626C44.7748 37.0579 45.1662 36.3545 45.3583 35.5868C45.8636 32.7844 46.1127 29.9418 46.1025 27.0942C46.1206 24.2035 45.8715 21.3172 45.3583 18.4723Z" stroke="#DED2C2" stroke-width="4" stroke-linecap="round" stroke-linejoin="round"/>
<path d="M24.6689 32.3839L33.9702 27.0942L24.6689 21.8046V32.3839Z" stroke="#DED2C2" stroke-width="4" stroke-linecap="round" stroke-linejoin="round"/>
</g>
<defs>
<clipPath id="clip0_299_86038">
<rect width="38.8231" height="38.8231" fill="white" transform="translate(8.89697 8.08691)"/>
</clipPath>
</defs>
</svg>
